<?xml version="1.0" encoding="utf-8"?>
<!-- Generator: Adobe Illustrator 22.0.1, SVG Export Plug-In . SVG Version: 6.00 Build 0)  -->
<svg version="1.1" id="Layer_1" xmlns="http://www.w3.org/2000/svg" xmlns:xlink="http://www.w3.org/1999/xlink" x="0px" y="0px"
	 viewBox="0 0 376.1 95.8" style="enable-background:new 0 0 376.1 95.8;" xml:space="preserve">
<style type="text/css">
	.st0{fill:#09367B;}
	.st1{fill:#F0A216;}
	.st2{fill:#CBD0E0;}
</style>
<g>
	<g>
		<path class="st0" d="M123.9,65.8H117l-8.4-40.3h6.8l5.1,28.3l5.1-28.3h6.8L123.9,65.8z"/>
	</g>
	<g>
		<path class="st0" d="M146.9,65.8l-0.3-2.3c-0.5,0.4-1,0.8-1.6,1.1c-0.5,0.4-1.1,0.7-1.7,0.9c-1.2,0.6-2.5,0.8-4.1,0.8
			c-2.1,0-3.6-0.6-4.7-1.9c-1.1-1.3-1.7-2.9-1.7-4.8c0-2.8,0.7-5.1,2.2-6.8c1.6-1.8,3.3-3.2,5.1-4.1c0.4-0.2,0.8-0.4,1.3-0.6
			c0.4-0.2,0.9-0.4,1.4-0.7c0.5-0.2,1-0.4,1.6-0.7c0.6-0.2,1.2-0.5,1.8-0.7v-1.8c0-1.3-0.3-2.3-0.8-2.9c-0.6-0.6-1.3-0.9-2.3-0.9
			c-1.5,0-2.4,0.4-2.9,1.2c-0.5,0.8-0.7,1.8-0.7,3.1h-6.3c0-2.4,0.8-4.6,2.5-6.6c1.7-1.9,4.2-2.9,7.6-2.9c3,0,5.2,0.7,6.7,2.1
			c1.6,1.4,2.4,3.4,2.4,6.1v19.3l0.3,3.2H146.9z M146.2,50.5l-2.5,1.5c-1.2,0.7-2.3,1.6-3.2,2.7c-1,1.1-1.5,2.4-1.5,3.9
			c0,0.9,0.2,1.5,0.7,2c0.4,0.5,1.2,0.7,2.2,0.7c1,0,1.9-0.4,2.8-1.2c0.9-0.9,1.4-1.4,1.5-1.7V50.5z"/>
	</g>
	<g>
		<path class="st0" d="M159.5,65.8V25.5h6.1v40.3H159.5z"/>
	</g>
	<g>
		<path class="st0" d="M188.8,63.5c-1.6,1.9-4.1,2.8-7.3,2.8c-3.3,0-5.7-0.9-7.2-2.8c-1.6-1.9-2.4-4.6-2.4-8.2v-9.2
			c0-3.6,0.8-6.3,2.4-8.2c1.6-1.9,4-2.8,7.2-2.8c3.2,0,5.6,0.9,7.3,2.8c1.6,1.9,2.4,4.6,2.4,8.2v9.2
			C191.3,58.9,190.5,61.7,188.8,63.5z M185.1,44.8c0-1.4-0.3-2.5-0.9-3.3c-0.6-0.8-1.5-1.2-2.7-1.2c-1.1,0-2,0.4-2.6,1.2
			c-0.6,0.7-0.9,1.8-0.9,3.3v11.9c0,1.4,0.3,2.5,0.9,3.3c0.6,0.8,1.5,1.2,2.6,1.2c1.1,0,2-0.4,2.7-1.2c0.6-0.7,0.9-1.8,0.9-3.3V44.8
			z"/>
	</g>
	<g>
		<path class="st0" d="M210.9,41.6c-0.2-0.1-0.5-0.1-0.9-0.2c-0.4-0.1-0.8-0.1-1.2-0.2c-0.4-0.1-0.9-0.1-1.4-0.1
			c-1.2,0-2.2,0.4-3,1.1c-0.8,0.8-1.2,1.8-1.2,3v20.6H197v-30h6v3.7c0.8-1.5,1.9-2.5,3.2-3.2c1.3-0.7,2.6-1.1,4-1.1h1.3v6.5
			C211.3,41.7,211.2,41.6,210.9,41.6z"/>
	</g>
	<g>
		<path class="st0" d="M229.3,65.8v-3c-1.1,1-2.1,1.8-3.2,2.5c-1.1,0.7-2.5,1.1-4.4,1.1c-1.7,0-2.9-0.6-3.8-1.7
			c-0.9-1.2-1.4-2.7-1.4-4.7V35.7h6.1V59c0,0.7,0.2,1.3,0.6,1.7c0.4,0.4,0.9,0.6,1.7,0.6c0.8,0,1.7-0.3,2.6-0.8
			c0.4-0.3,0.8-0.5,1-0.7c0.3-0.2,0.4-0.3,0.5-0.4V35.7h6.1v30H229.3z"/>
	</g>
	<g>
		<path class="st0" d="M266.3,65.8V42.5c0-0.7-0.2-1.2-0.6-1.6c-0.5-0.4-1.1-0.6-1.7-0.6c-0.8,0-1.6,0.2-2.3,0.7
			c-0.4,0.2-0.7,0.4-1,0.6c-0.3,0.2-0.5,0.4-0.8,0.6v23.6h-6.1V42.5c0-0.6-0.2-1.2-0.6-1.6c-0.4-0.4-1-0.6-1.7-0.6
			c-0.7,0-1.4,0.2-2.3,0.7c-0.8,0.4-1.4,0.8-1.7,1.2v23.6h-6.3v-30h5.9v3.1c0.5-0.5,1-1,1.6-1.4c0.5-0.4,1-0.8,1.6-1.2
			c1-0.7,2.3-1.1,3.9-1.1c1.2,0,2.2,0.2,2.9,0.7c0.8,0.5,1.6,1.5,2.3,2.9c0.6-0.5,1.1-1,1.6-1.5c0.5-0.4,1-0.8,1.6-1.1
			c1-0.7,2.2-1,3.7-1c1.9,0,3.4,0.6,4.4,1.7c1.1,1.2,1.6,2.8,1.6,4.8v24.1H266.3z"/>
	</g>
	<g>
		<path class="st0" d="M308.5,62.6c-1.8,2.1-4.6,3.2-8.4,3.2h-10V25.5h10.4c3.5,0,6.2,1,7.9,3.1c1.8,2,2.7,5.1,2.7,9v16
			C311.2,57.6,310.3,60.5,308.5,62.6z M304.3,36.7c0-2.1-0.4-3.5-1.1-4.4c-0.7-0.8-2-1.2-4-1.2h-2.4v28.9h2.4c1.9,0,3.2-0.4,3.9-1.2
			c0.8-0.9,1.1-2.2,1.1-4V36.7z"/>
	</g>
	<g>
		<path class="st0" d="M329.1,65.8l-0.3-2.3c-0.5,0.4-1,0.8-1.6,1.1c-0.5,0.4-1.1,0.7-1.7,0.9c-1.2,0.6-2.5,0.8-4.1,0.8
			c-2.1,0-3.6-0.6-4.7-1.9c-1.1-1.3-1.7-2.9-1.7-4.8c0-2.8,0.7-5.1,2.2-6.8c1.6-1.8,3.3-3.2,5.1-4.1c0.4-0.2,0.8-0.4,1.3-0.6
			c0.4-0.2,0.9-0.4,1.4-0.7c0.5-0.2,1-0.4,1.6-0.7c0.6-0.2,1.2-0.5,1.8-0.7v-1.8c0-1.3-0.3-2.3-0.8-2.9c-0.6-0.6-1.3-0.9-2.3-0.9
			c-1.5,0-2.4,0.4-2.9,1.2c-0.5,0.8-0.7,1.8-0.7,3.1h-6.3c0-2.4,0.8-4.6,2.5-6.6c1.7-1.9,4.2-2.9,7.6-2.9c3,0,5.2,0.7,6.7,2.1
			c1.6,1.4,2.4,3.4,2.4,6.1v19.3l0.3,3.2H329.1z M328.4,50.5L326,52c-1.2,0.7-2.3,1.6-3.2,2.7c-1,1.1-1.5,2.4-1.5,3.9
			c0,0.9,0.2,1.5,0.7,2c0.4,0.5,1.2,0.7,2.2,0.7c1,0,1.9-0.4,2.8-1.2c0.9-0.9,1.4-1.4,1.5-1.7V50.5z"/>
	</g>
	<g>
		<path class="st0" d="M349.3,66.3c-2.4,0-4.2-0.6-5.4-1.7c-1.2-1.2-1.9-2.8-1.9-5.1V40.9h-3.5v-5.2h3.5v-6.4l6.1-1.7v8.1h4.2v5.2
			h-4.2V58c0,1,0.2,1.6,0.5,2c0.4,0.4,0.9,0.6,1.6,0.6h2.1V66L349.3,66.3z"/>
	</g>
	<g>
		<path class="st0" d="M370.2,65.8l-0.3-2.3c-0.5,0.4-1,0.8-1.6,1.1c-0.5,0.4-1.1,0.7-1.7,0.9c-1.2,0.6-2.5,0.8-4.1,0.8
			c-2.1,0-3.6-0.6-4.7-1.9c-1.1-1.3-1.7-2.9-1.7-4.8c0-2.8,0.7-5.1,2.2-6.8c1.6-1.8,3.3-3.2,5.1-4.1c0.4-0.2,0.8-0.4,1.3-0.6
			c0.4-0.2,0.9-0.4,1.4-0.7c0.5-0.2,1-0.4,1.6-0.7c0.6-0.2,1.2-0.5,1.8-0.7v-1.8c0-1.3-0.3-2.3-0.8-2.9c-0.6-0.6-1.3-0.9-2.3-0.9
			c-1.5,0-2.4,0.4-2.9,1.2c-0.5,0.8-0.7,1.8-0.7,3.1h-6.3c0-2.4,0.8-4.6,2.5-6.6c1.7-1.9,4.2-2.9,7.6-2.9c3,0,5.2,0.7,6.7,2.1
			c1.6,1.4,2.4,3.4,2.4,6.1v19.3l0.3,3.2H370.2z M369.5,50.5l-2.5,1.5c-1.2,0.7-2.3,1.6-3.2,2.7c-1,1.1-1.5,2.4-1.5,3.9
			c0,0.9,0.2,1.5,0.7,2c0.4,0.5,1.2,0.7,2.2,0.7c1,0,1.9-0.4,2.8-1.2c0.9-0.9,1.4-1.4,1.5-1.7V50.5z"/>
	</g>
</g>
<g>
	<path class="st1" d="M15.2,48.4c0-16.8,12.7-30.7,29-32.5v-2c-17.4,1.9-31,16.7-31,34.5s13.6,32.7,31,34.5v-2
		C27.9,79.1,15.2,65.2,15.2,48.4z"/>
	<path class="st2" d="M51.7,3.1v2C73.9,7,91.4,25.7,91.4,48.4c0,22.7-17.5,41.4-39.7,43.3v2C75,91.8,93.4,72.2,93.4,48.4
		S75,5,51.7,3.1z"/>
	<path class="st1" d="M83.7,47.9c0-18.5-14-33.7-32-35.6c-1.2-0.1-2.5-0.2-3.8-0.2v1.5v2V19c1.3,0,2.5,0.1,3.8,0.3
		c14.1,1.9,25.1,14,25.1,28.6s-11,26.8-25.1,28.6c-1.2,0.2-2.5,0.3-3.8,0.3v4.3v2v0.6c1.3,0,2.5-0.1,3.8-0.2
		C69.7,81.6,83.7,66.4,83.7,47.9z"/>
	<path class="st0" d="M47.9,93.9v-2v-3c-1.3,0-2.5-0.1-3.7-0.2C23.3,86.8,6.9,69.3,6.9,47.9S23.3,9,44.2,7.1
		c1.2-0.1,2.5-0.2,3.7-0.2v-2v-2V0c-1.3,0-2.5,0.1-3.7,0.2C19.5,2.1,0,22.7,0,47.9s19.5,45.8,44.2,47.8c1.2,0.1,2.5,0.2,3.7,0.2
		V93.9z"/>
	<path class="st0" d="M69.6,47.9c0-10.7-7.7-19.6-17.9-21.4c-1.2-0.2-2.5-0.3-3.8-0.3c-1.3,0-2.5,0.1-3.7,0.3
		c-10.2,1.8-18,10.7-18,21.4s7.8,19.6,18,21.4c1.2,0.2,2.4,0.3,3.7,0.3c1.3,0,2.6-0.1,3.8-0.3C61.9,67.5,69.6,58.6,69.6,47.9z
		 M47.9,65.7l-3.7-6.5l-13.3-23h4.8l8.4,14.6l3.7,6.5l3.8-6.5l8.4-14.6h4.8l-13.2,23L47.9,65.7z"/>
</g>
</svg>
