<?xml version="1.0" encoding="UTF-8" standalone="no"?>
<!DOCTYPE svg PUBLIC "-//W3C//DTD SVG 1.1//EN"
 "http://www.w3.org/Graphics/SVG/1.1/DTD/svg11.dtd">
<!-- Generated by graphviz version 2.50.0 (0)
 -->
<!-- Title: Tree Pages: 1 -->
<svg width="1518pt" height="373pt"
 viewBox="0.00 0.00 1518.00 373.00" xmlns="http://www.w3.org/2000/svg" xmlns:xlink="http://www.w3.org/1999/xlink">
<g id="graph0" class="graph" transform="scale(1 1) rotate(0) translate(4 369)">
<title>Tree</title>
<polygon fill="white" stroke="transparent" points="-4,4 -4,-369 1514,-369 1514,4 -4,4"/>
<!-- 0 -->
<g id="node1" class="node">
<title>0</title>
<path fill="#efb388" stroke="black" d="M834,-365C834,-365 684,-365 684,-365 678,-365 672,-359 672,-353 672,-353 672,-309 672,-309 672,-303 678,-297 684,-297 684,-297 834,-297 834,-297 840,-297 846,-303 846,-309 846,-309 846,-353 846,-353 846,-359 840,-365 834,-365"/>
<text text-anchor="start" x="718.5" y="-349.8" font-family="Helvetica,sans-Serif" font-size="14.00">X1 ≤ 0.661</text>
<text text-anchor="start" x="680" y="-334.8" font-family="Helvetica,sans-Serif" font-size="14.00">squared_error = 0.032</text>
<text text-anchor="start" x="701.5" y="-319.8" font-family="Helvetica,sans-Serif" font-size="14.00">samples = 1000</text>
<text text-anchor="start" x="709" y="-304.8" font-family="Helvetica,sans-Serif" font-size="14.00">value = 0.031</text>
</g>
<!-- 1 -->
<g id="node2" class="node">
<title>1</title>
<path fill="#e99558" stroke="black" d="M642,-261C642,-261 492,-261 492,-261 486,-261 480,-255 480,-249 480,-249 480,-205 480,-205 480,-199 486,-193 492,-193 492,-193 642,-193 642,-193 648,-193 654,-199 654,-205 654,-205 654,-249 654,-249 654,-255 648,-261 642,-261"/>
<text text-anchor="start" x="526.5" y="-245.8" font-family="Helvetica,sans-Serif" font-size="14.00">X2 ≤ 0.412</text>
<text text-anchor="start" x="488" y="-230.8" font-family="Helvetica,sans-Serif" font-size="14.00">squared_error = 0.016</text>
<text text-anchor="start" x="514" y="-215.8" font-family="Helvetica,sans-Serif" font-size="14.00">samples = 657</text>
<text text-anchor="start" x="517" y="-200.8" font-family="Helvetica,sans-Serif" font-size="14.00">value = 0.125</text>
</g>
<!-- 0&#45;&gt;1 -->
<g id="edge1" class="edge">
<title>0&#45;&gt;1</title>
<path fill="none" stroke="black" d="M696.66,-296.88C678.04,-286.99 657.48,-276.07 638.33,-265.9"/>
<polygon fill="black" stroke="black" points="639.83,-262.73 629.35,-261.12 636.54,-268.91 639.83,-262.73"/>
<text text-anchor="middle" x="636.67" y="-281.33" font-family="Helvetica,sans-Serif" font-size="14.00">True</text>
</g>
<!-- 8 -->
<g id="node9" class="node">
<title>8</title>
<path fill="#fbece2" stroke="black" d="M1024,-261C1024,-261 874,-261 874,-261 868,-261 862,-255 862,-249 862,-249 862,-205 862,-205 862,-199 868,-193 874,-193 874,-193 1024,-193 1024,-193 1030,-193 1036,-199 1036,-205 1036,-205 1036,-249 1036,-249 1036,-255 1030,-261 1024,-261"/>
<text text-anchor="start" x="908.5" y="-245.8" font-family="Helvetica,sans-Serif" font-size="14.00">X1 ≤ 0.727</text>
<text text-anchor="start" x="870" y="-230.8" font-family="Helvetica,sans-Serif" font-size="14.00">squared_error = 0.015</text>
<text text-anchor="start" x="896" y="-215.8" font-family="Helvetica,sans-Serif" font-size="14.00">samples = 343</text>
<text text-anchor="start" x="896.5" y="-200.8" font-family="Helvetica,sans-Serif" font-size="14.00">value = &#45;0.148</text>
</g>
<!-- 0&#45;&gt;8 -->
<g id="edge8" class="edge">
<title>0&#45;&gt;8</title>
<path fill="none" stroke="black" d="M820.69,-296.88C839.12,-286.99 859.46,-276.07 878.41,-265.9"/>
<polygon fill="black" stroke="black" points="880.14,-268.94 887.3,-261.12 876.83,-262.77 880.14,-268.94"/>
<text text-anchor="middle" x="880.08" y="-281.36" font-family="Helvetica,sans-Serif" font-size="14.00">False</text>
</g>
<!-- 2 -->
<g id="node3" class="node">
<title>2</title>
<path fill="#eda775" stroke="black" d="M354,-157C354,-157 204,-157 204,-157 198,-157 192,-151 192,-145 192,-145 192,-101 192,-101 192,-95 198,-89 204,-89 204,-89 354,-89 354,-89 360,-89 366,-95 366,-101 366,-101 366,-145 366,-145 366,-151 360,-157 354,-157"/>
<text text-anchor="start" x="238.5" y="-141.8" font-family="Helvetica,sans-Serif" font-size="14.00">X1 ≤ 0.578</text>
<text text-anchor="start" x="200" y="-126.8" font-family="Helvetica,sans-Serif" font-size="14.00">squared_error = 0.012</text>
<text text-anchor="start" x="226" y="-111.8" font-family="Helvetica,sans-Serif" font-size="14.00">samples = 278</text>
<text text-anchor="start" x="229" y="-96.8" font-family="Helvetica,sans-Serif" font-size="14.00">value = 0.069</text>
</g>
<!-- 1&#45;&gt;2 -->
<g id="edge2" class="edge">
<title>1&#45;&gt;2</title>
<path fill="none" stroke="black" d="M479.81,-195.12C447.11,-183.54 409.76,-170.31 376.21,-158.43"/>
<polygon fill="black" stroke="black" points="376.99,-154.99 366.39,-154.95 374.65,-161.59 376.99,-154.99"/>
</g>
<!-- 5 -->
<g id="node6" class="node">
<title>5</title>
<path fill="#e68844" stroke="black" d="M642,-157C642,-157 492,-157 492,-157 486,-157 480,-151 480,-145 480,-145 480,-101 480,-101 480,-95 486,-89 492,-89 492,-89 642,-89 642,-89 648,-89 654,-95 654,-101 654,-101 654,-145 654,-145 654,-151 648,-157 642,-157"/>
<text text-anchor="start" x="526.5" y="-141.8" font-family="Helvetica,sans-Serif" font-size="14.00">X1 ≤ 0.569</text>
<text text-anchor="start" x="488" y="-126.8" font-family="Helvetica,sans-Serif" font-size="14.00">squared_error = 0.015</text>
<text text-anchor="start" x="514" y="-111.8" font-family="Helvetica,sans-Serif" font-size="14.00">samples = 379</text>
<text text-anchor="start" x="517" y="-96.8" font-family="Helvetica,sans-Serif" font-size="14.00">value = 0.166</text>
</g>
<!-- 1&#45;&gt;5 -->
<g id="edge5" class="edge">
<title>1&#45;&gt;5</title>
<path fill="none" stroke="black" d="M567,-192.88C567,-184.78 567,-175.98 567,-167.47"/>
<polygon fill="black" stroke="black" points="570.5,-167.3 567,-157.3 563.5,-167.3 570.5,-167.3"/>
</g>
<!-- 3 -->
<g id="node4" class="node">
<title>3</title>
<path fill="#eca46f" stroke="black" d="M162,-53C162,-53 12,-53 12,-53 6,-53 0,-47 0,-41 0,-41 0,-12 0,-12 0,-6 6,0 12,0 12,0 162,0 162,0 168,0 174,-6 174,-12 174,-12 174,-41 174,-41 174,-47 168,-53 162,-53"/>
<text text-anchor="start" x="8" y="-37.8" font-family="Helvetica,sans-Serif" font-size="14.00">squared_error = 0.011</text>
<text text-anchor="start" x="34" y="-22.8" font-family="Helvetica,sans-Serif" font-size="14.00">samples = 241</text>
<text text-anchor="start" x="37" y="-7.8" font-family="Helvetica,sans-Serif" font-size="14.00">value = 0.079</text>
</g>
<!-- 2&#45;&gt;3 -->
<g id="edge3" class="edge">
<title>2&#45;&gt;3</title>
<path fill="none" stroke="black" d="M211.85,-88.95C191.12,-78.75 168.42,-67.57 148.13,-57.59"/>
<polygon fill="black" stroke="black" points="149.5,-54.36 138.99,-53.09 146.41,-60.64 149.5,-54.36"/>
</g>
<!-- 4 -->
<g id="node5" class="node">
<title>4</title>
<path fill="#f1bd98" stroke="black" d="M354,-53C354,-53 204,-53 204,-53 198,-53 192,-47 192,-41 192,-41 192,-12 192,-12 192,-6 198,0 204,0 204,0 354,0 354,0 360,0 366,-6 366,-12 366,-12 366,-41 366,-41 366,-47 360,-53 354,-53"/>
<text text-anchor="start" x="200" y="-37.8" font-family="Helvetica,sans-Serif" font-size="14.00">squared_error = 0.008</text>
<text text-anchor="start" x="230.5" y="-22.8" font-family="Helvetica,sans-Serif" font-size="14.00">samples = 37</text>
<text text-anchor="start" x="226.5" y="-7.8" font-family="Helvetica,sans-Serif" font-size="14.00">value = &#45;0.001</text>
</g>
<!-- 2&#45;&gt;4 -->
<g id="edge4" class="edge">
<title>2&#45;&gt;4</title>
<path fill="none" stroke="black" d="M279,-88.95C279,-80.72 279,-71.85 279,-63.48"/>
<polygon fill="black" stroke="black" points="282.5,-63.24 279,-53.24 275.5,-63.24 282.5,-63.24"/>
</g>
<!-- 6 -->
<g id="node7" class="node">
<title>6</title>
<path fill="#e58139" stroke="black" d="M546,-53C546,-53 396,-53 396,-53 390,-53 384,-47 384,-41 384,-41 384,-12 384,-12 384,-6 390,0 396,0 396,0 546,0 546,0 552,0 558,-6 558,-12 558,-12 558,-41 558,-41 558,-47 552,-53 546,-53"/>
<text text-anchor="start" x="392" y="-37.8" font-family="Helvetica,sans-Serif" font-size="14.00">squared_error = 0.013</text>
<text text-anchor="start" x="418" y="-22.8" font-family="Helvetica,sans-Serif" font-size="14.00">samples = 331</text>
<text text-anchor="start" x="421" y="-7.8" font-family="Helvetica,sans-Serif" font-size="14.00">value = 0.188</text>
</g>
<!-- 5&#45;&gt;6 -->
<g id="edge6" class="edge">
<title>5&#45;&gt;6</title>
<path fill="none" stroke="black" d="M533.42,-88.95C524.04,-79.71 513.84,-69.67 504.46,-60.44"/>
<polygon fill="black" stroke="black" points="506.73,-57.76 497.15,-53.24 501.82,-62.75 506.73,-57.76"/>
</g>
<!-- 7 -->
<g id="node8" class="node">
<title>7</title>
<path fill="#f0b78d" stroke="black" d="M738,-53C738,-53 588,-53 588,-53 582,-53 576,-47 576,-41 576,-41 576,-12 576,-12 576,-6 582,0 588,0 588,0 738,0 738,0 744,0 750,-6 750,-12 750,-12 750,-41 750,-41 750,-47 744,-53 738,-53"/>
<text text-anchor="start" x="584" y="-37.8" font-family="Helvetica,sans-Serif" font-size="14.00">squared_error = 0.007</text>
<text text-anchor="start" x="614.5" y="-22.8" font-family="Helvetica,sans-Serif" font-size="14.00">samples = 48</text>
<text text-anchor="start" x="617.5" y="-7.8" font-family="Helvetica,sans-Serif" font-size="14.00">value = 0.02</text>
</g>
<!-- 5&#45;&gt;7 -->
<g id="edge7" class="edge">
<title>5&#45;&gt;7</title>
<path fill="none" stroke="black" d="M600.58,-88.95C609.96,-79.71 620.16,-69.67 629.54,-60.44"/>
<polygon fill="black" stroke="black" points="632.18,-62.75 636.85,-53.24 627.27,-57.76 632.18,-62.75"/>
</g>
<!-- 9 -->
<g id="node10" class="node">
<title>9</title>
<path fill="#f5ceb3" stroke="black" d="M1019.5,-157C1019.5,-157 878.5,-157 878.5,-157 872.5,-157 866.5,-151 866.5,-145 866.5,-145 866.5,-101 866.5,-101 866.5,-95 872.5,-89 878.5,-89 878.5,-89 1019.5,-89 1019.5,-89 1025.5,-89 1031.5,-95 1031.5,-101 1031.5,-101 1031.5,-145 1031.5,-145 1031.5,-151 1025.5,-157 1019.5,-157"/>
<text text-anchor="start" x="908.5" y="-141.8" font-family="Helvetica,sans-Serif" font-size="14.00">X2 ≤ 0.133</text>
<text text-anchor="start" x="874.5" y="-126.8" font-family="Helvetica,sans-Serif" font-size="14.00">squared_error = 0.01</text>
<text text-anchor="start" x="900.5" y="-111.8" font-family="Helvetica,sans-Serif" font-size="14.00">samples = 71</text>
<text text-anchor="start" x="896.5" y="-96.8" font-family="Helvetica,sans-Serif" font-size="14.00">value = &#45;0.054</text>
</g>
<!-- 8&#45;&gt;9 -->
<g id="edge9" class="edge">
<title>8&#45;&gt;9</title>
<path fill="none" stroke="black" d="M949,-192.88C949,-184.78 949,-175.98 949,-167.47"/>
<polygon fill="black" stroke="black" points="952.5,-167.3 949,-157.3 945.5,-167.3 952.5,-167.3"/>
</g>
<!-- 12 -->
<g id="node13" class="node">
<title>12</title>
<path fill="#fdf4ee" stroke="black" d="M1306,-157C1306,-157 1156,-157 1156,-157 1150,-157 1144,-151 1144,-145 1144,-145 1144,-101 1144,-101 1144,-95 1150,-89 1156,-89 1156,-89 1306,-89 1306,-89 1312,-89 1318,-95 1318,-101 1318,-101 1318,-145 1318,-145 1318,-151 1312,-157 1306,-157"/>
<text text-anchor="start" x="1190.5" y="-141.8" font-family="Helvetica,sans-Serif" font-size="14.00">X2 ≤ 0.299</text>
<text text-anchor="start" x="1152" y="-126.8" font-family="Helvetica,sans-Serif" font-size="14.00">squared_error = 0.014</text>
<text text-anchor="start" x="1178" y="-111.8" font-family="Helvetica,sans-Serif" font-size="14.00">samples = 272</text>
<text text-anchor="start" x="1178.5" y="-96.8" font-family="Helvetica,sans-Serif" font-size="14.00">value = &#45;0.172</text>
</g>
<!-- 8&#45;&gt;12 -->
<g id="edge12" class="edge">
<title>8&#45;&gt;12</title>
<path fill="none" stroke="black" d="M1036.3,-194.43C1067.23,-183.24 1102.21,-170.58 1133.91,-159.12"/>
<polygon fill="black" stroke="black" points="1135.42,-162.29 1143.63,-155.6 1133.04,-155.71 1135.42,-162.29"/>
</g>
<!-- 10 -->
<g id="node11" class="node">
<title>10</title>
<path fill="#f1b991" stroke="black" d="M930,-53C930,-53 780,-53 780,-53 774,-53 768,-47 768,-41 768,-41 768,-12 768,-12 768,-6 774,0 780,0 780,0 930,0 930,0 936,0 942,-6 942,-12 942,-12 942,-41 942,-41 942,-47 936,-53 930,-53"/>
<text text-anchor="start" x="776" y="-37.8" font-family="Helvetica,sans-Serif" font-size="14.00">squared_error = 0.008</text>
<text text-anchor="start" x="806.5" y="-22.8" font-family="Helvetica,sans-Serif" font-size="14.00">samples = 13</text>
<text text-anchor="start" x="805" y="-7.8" font-family="Helvetica,sans-Serif" font-size="14.00">value = 0.013</text>
</g>
<!-- 9&#45;&gt;10 -->
<g id="edge10" class="edge">
<title>9&#45;&gt;10</title>
<path fill="none" stroke="black" d="M916.12,-88.95C906.93,-79.71 896.95,-69.67 887.76,-60.44"/>
<polygon fill="black" stroke="black" points="890.13,-57.86 880.6,-53.24 885.17,-62.79 890.13,-57.86"/>
</g>
<!-- 11 -->
<g id="node12" class="node">
<title>11</title>
<path fill="#f6d3ba" stroke="black" d="M1113.5,-53C1113.5,-53 972.5,-53 972.5,-53 966.5,-53 960.5,-47 960.5,-41 960.5,-41 960.5,-12 960.5,-12 960.5,-6 966.5,0 972.5,0 972.5,0 1113.5,0 1113.5,0 1119.5,0 1125.5,-6 1125.5,-12 1125.5,-12 1125.5,-41 1125.5,-41 1125.5,-47 1119.5,-53 1113.5,-53"/>
<text text-anchor="start" x="968.5" y="-37.8" font-family="Helvetica,sans-Serif" font-size="14.00">squared_error = 0.01</text>
<text text-anchor="start" x="994.5" y="-22.8" font-family="Helvetica,sans-Serif" font-size="14.00">samples = 58</text>
<text text-anchor="start" x="990.5" y="-7.8" font-family="Helvetica,sans-Serif" font-size="14.00">value = &#45;0.069</text>
</g>
<!-- 9&#45;&gt;11 -->
<g id="edge11" class="edge">
<title>9&#45;&gt;11</title>
<path fill="none" stroke="black" d="M981.88,-88.95C991.07,-79.71 1001.05,-69.67 1010.24,-60.44"/>
<polygon fill="black" stroke="black" points="1012.83,-62.79 1017.4,-53.24 1007.87,-57.86 1012.83,-62.79"/>
</g>
<!-- 13 -->
<g id="node14" class="node">
<title>13</title>
<path fill="#f9e1cf" stroke="black" d="M1306,-53C1306,-53 1156,-53 1156,-53 1150,-53 1144,-47 1144,-41 1144,-41 1144,-12 1144,-12 1144,-6 1150,0 1156,0 1156,0 1306,0 1306,0 1312,0 1318,-6 1318,-12 1318,-12 1318,-41 1318,-41 1318,-47 1312,-53 1306,-53"/>
<text text-anchor="start" x="1152" y="-37.8" font-family="Helvetica,sans-Serif" font-size="14.00">squared_error = 0.011</text>
<text text-anchor="start" x="1182.5" y="-22.8" font-family="Helvetica,sans-Serif" font-size="14.00">samples = 97</text>
<text text-anchor="start" x="1178.5" y="-7.8" font-family="Helvetica,sans-Serif" font-size="14.00">value = &#45;0.111</text>
</g>
<!-- 12&#45;&gt;13 -->
<g id="edge13" class="edge">
<title>12&#45;&gt;13</title>
<path fill="none" stroke="black" d="M1231,-88.95C1231,-80.72 1231,-71.85 1231,-63.48"/>
<polygon fill="black" stroke="black" points="1234.5,-63.24 1231,-53.24 1227.5,-63.24 1234.5,-63.24"/>
</g>
<!-- 14 -->
<g id="node15" class="node">
<title>14</title>
<path fill="#ffffff" stroke="black" d="M1498,-53C1498,-53 1348,-53 1348,-53 1342,-53 1336,-47 1336,-41 1336,-41 1336,-12 1336,-12 1336,-6 1342,0 1348,0 1348,0 1498,0 1498,0 1504,0 1510,-6 1510,-12 1510,-12 1510,-41 1510,-41 1510,-47 1504,-53 1498,-53"/>
<text text-anchor="start" x="1344" y="-37.8" font-family="Helvetica,sans-Serif" font-size="14.00">squared_error = 0.012</text>
<text text-anchor="start" x="1370" y="-22.8" font-family="Helvetica,sans-Serif" font-size="14.00">samples = 175</text>
<text text-anchor="start" x="1370.5" y="-7.8" font-family="Helvetica,sans-Serif" font-size="14.00">value = &#45;0.206</text>
</g>
<!-- 12&#45;&gt;14 -->
<g id="edge14" class="edge">
<title>12&#45;&gt;14</title>
<path fill="none" stroke="black" d="M1298.15,-88.95C1318.88,-78.75 1341.58,-67.57 1361.87,-57.59"/>
<polygon fill="black" stroke="black" points="1363.59,-60.64 1371.01,-53.09 1360.5,-54.36 1363.59,-60.64"/>
</g>
</g>
</svg>