<?xml version="1.0" encoding="UTF-8" standalone="no"?>
<!DOCTYPE svg PUBLIC "-//W3C//DTD SVG 1.1//EN"
 "http://www.w3.org/Graphics/SVG/1.1/DTD/svg11.dtd">
<!-- Generated by graphviz version 2.50.0 (0)
 -->
<!-- Title: Tree Pages: 1 -->
<svg width="1500pt" height="373pt"
 viewBox="0.00 0.00 1500.00 373.00" xmlns="http://www.w3.org/2000/svg" xmlns:xlink="http://www.w3.org/1999/xlink">
<g id="graph0" class="graph" transform="scale(1 1) rotate(0) translate(4 369)">
<title>Tree</title>
<polygon fill="white" stroke="transparent" points="-4,4 -4,-369 1496,-369 1496,4 -4,4"/>
<!-- 0 -->
<g id="node1" class="node">
<title>0</title>
<path fill="#efb286" stroke="black" d="M820,-365C820,-365 670,-365 670,-365 664,-365 658,-359 658,-353 658,-353 658,-309 658,-309 658,-303 664,-297 670,-297 670,-297 820,-297 820,-297 826,-297 832,-303 832,-309 832,-309 832,-353 832,-353 832,-359 826,-365 820,-365"/>
<text text-anchor="start" x="704.5" y="-349.8" font-family="Helvetica,sans-Serif" font-size="14.00">X1 ≤ 0.651</text>
<text text-anchor="start" x="666" y="-334.8" font-family="Helvetica,sans-Serif" font-size="14.00">squared_error = 0.036</text>
<text text-anchor="start" x="687.5" y="-319.8" font-family="Helvetica,sans-Serif" font-size="14.00">samples = 1000</text>
<text text-anchor="start" x="695" y="-304.8" font-family="Helvetica,sans-Serif" font-size="14.00">value = 0.026</text>
</g>
<!-- 1 -->
<g id="node2" class="node">
<title>1</title>
<path fill="#e89152" stroke="black" d="M635,-261C635,-261 485,-261 485,-261 479,-261 473,-255 473,-249 473,-249 473,-205 473,-205 473,-199 479,-193 485,-193 485,-193 635,-193 635,-193 641,-193 647,-199 647,-205 647,-205 647,-249 647,-249 647,-255 641,-261 635,-261"/>
<text text-anchor="start" x="519.5" y="-245.8" font-family="Helvetica,sans-Serif" font-size="14.00">X1 ≤ 0.543</text>
<text text-anchor="start" x="481" y="-230.8" font-family="Helvetica,sans-Serif" font-size="14.00">squared_error = 0.017</text>
<text text-anchor="start" x="507" y="-215.8" font-family="Helvetica,sans-Serif" font-size="14.00">samples = 634</text>
<text text-anchor="start" x="510" y="-200.8" font-family="Helvetica,sans-Serif" font-size="14.00">value = 0.131</text>
</g>
<!-- 0&#45;&gt;1 -->
<g id="edge1" class="edge">
<title>0&#45;&gt;1</title>
<path fill="none" stroke="black" d="M684.94,-296.88C667.07,-287.04 647.36,-276.17 628.98,-266.03"/>
<polygon fill="black" stroke="black" points="630.53,-262.89 620.08,-261.12 627.15,-269.02 630.53,-262.89"/>
<text text-anchor="middle" x="627.02" y="-281.44" font-family="Helvetica,sans-Serif" font-size="14.00">True</text>
</g>
<!-- 8 -->
<g id="node9" class="node">
<title>8</title>
<path fill="#fbebe0" stroke="black" d="M1006,-261C1006,-261 856,-261 856,-261 850,-261 844,-255 844,-249 844,-249 844,-205 844,-205 844,-199 850,-193 856,-193 856,-193 1006,-193 1006,-193 1012,-193 1018,-199 1018,-205 1018,-205 1018,-249 1018,-249 1018,-255 1012,-261 1006,-261"/>
<text text-anchor="start" x="890.5" y="-245.8" font-family="Helvetica,sans-Serif" font-size="14.00">X1 ≤ 0.776</text>
<text text-anchor="start" x="852" y="-230.8" font-family="Helvetica,sans-Serif" font-size="14.00">squared_error = 0.016</text>
<text text-anchor="start" x="878" y="-215.8" font-family="Helvetica,sans-Serif" font-size="14.00">samples = 366</text>
<text text-anchor="start" x="878.5" y="-200.8" font-family="Helvetica,sans-Serif" font-size="14.00">value = &#45;0.157</text>
</g>
<!-- 0&#45;&gt;8 -->
<g id="edge8" class="edge">
<title>0&#45;&gt;8</title>
<path fill="none" stroke="black" d="M805.39,-296.88C823.35,-287.04 843.16,-276.17 861.64,-266.03"/>
<polygon fill="black" stroke="black" points="863.51,-269 870.6,-261.12 860.15,-262.86 863.51,-269"/>
<text text-anchor="middle" x="863.6" y="-281.42" font-family="Helvetica,sans-Serif" font-size="14.00">False</text>
</g>
<!-- 2 -->
<g id="node3" class="node">
<title>2</title>
<path fill="#e78b48" stroke="black" d="M354,-157C354,-157 204,-157 204,-157 198,-157 192,-151 192,-145 192,-145 192,-101 192,-101 192,-95 198,-89 204,-89 204,-89 354,-89 354,-89 360,-89 366,-95 366,-101 366,-101 366,-145 366,-145 366,-151 360,-157 354,-157"/>
<text text-anchor="start" x="238.5" y="-141.8" font-family="Helvetica,sans-Serif" font-size="14.00">X2 ≤ 0.283</text>
<text text-anchor="start" x="200" y="-126.8" font-family="Helvetica,sans-Serif" font-size="14.00">squared_error = 0.016</text>
<text text-anchor="start" x="226" y="-111.8" font-family="Helvetica,sans-Serif" font-size="14.00">samples = 516</text>
<text text-anchor="start" x="229" y="-96.8" font-family="Helvetica,sans-Serif" font-size="14.00">value = 0.152</text>
</g>
<!-- 1&#45;&gt;2 -->
<g id="edge2" class="edge">
<title>1&#45;&gt;2</title>
<path fill="none" stroke="black" d="M472.63,-194.29C441.97,-183.16 407.35,-170.59 375.95,-159.19"/>
<polygon fill="black" stroke="black" points="376.91,-155.82 366.32,-155.69 374.52,-162.4 376.91,-155.82"/>
</g>
<!-- 5 -->
<g id="node6" class="node">
<title>5</title>
<path fill="#eead7e" stroke="black" d="M635,-157C635,-157 485,-157 485,-157 479,-157 473,-151 473,-145 473,-145 473,-101 473,-101 473,-95 479,-89 485,-89 485,-89 635,-89 635,-89 641,-89 647,-95 647,-101 647,-101 647,-145 647,-145 647,-151 641,-157 635,-157"/>
<text text-anchor="start" x="519.5" y="-141.8" font-family="Helvetica,sans-Serif" font-size="14.00">X1 ≤ 0.608</text>
<text text-anchor="start" x="481" y="-126.8" font-family="Helvetica,sans-Serif" font-size="14.00">squared_error = 0.012</text>
<text text-anchor="start" x="507" y="-111.8" font-family="Helvetica,sans-Serif" font-size="14.00">samples = 118</text>
<text text-anchor="start" x="510" y="-96.8" font-family="Helvetica,sans-Serif" font-size="14.00">value = 0.042</text>
</g>
<!-- 1&#45;&gt;5 -->
<g id="edge5" class="edge">
<title>1&#45;&gt;5</title>
<path fill="none" stroke="black" d="M560,-192.88C560,-184.78 560,-175.98 560,-167.47"/>
<polygon fill="black" stroke="black" points="563.5,-167.3 560,-157.3 556.5,-167.3 563.5,-167.3"/>
</g>
<!-- 3 -->
<g id="node4" class="node">
<title>3</title>
<path fill="#eca470" stroke="black" d="M162,-53C162,-53 12,-53 12,-53 6,-53 0,-47 0,-41 0,-41 0,-12 0,-12 0,-6 6,0 12,0 12,0 162,0 162,0 168,0 174,-6 174,-12 174,-12 174,-41 174,-41 174,-47 168,-53 162,-53"/>
<text text-anchor="start" x="8" y="-37.8" font-family="Helvetica,sans-Serif" font-size="14.00">squared_error = 0.011</text>
<text text-anchor="start" x="34" y="-22.8" font-family="Helvetica,sans-Serif" font-size="14.00">samples = 140</text>
<text text-anchor="start" x="41.5" y="-7.8" font-family="Helvetica,sans-Serif" font-size="14.00">value = 0.07</text>
</g>
<!-- 2&#45;&gt;3 -->
<g id="edge3" class="edge">
<title>2&#45;&gt;3</title>
<path fill="none" stroke="black" d="M211.85,-88.95C191.12,-78.75 168.42,-67.57 148.13,-57.59"/>
<polygon fill="black" stroke="black" points="149.5,-54.36 138.99,-53.09 146.41,-60.64 149.5,-54.36"/>
</g>
<!-- 4 -->
<g id="node5" class="node">
<title>4</title>
<path fill="#e58139" stroke="black" d="M354,-53C354,-53 204,-53 204,-53 198,-53 192,-47 192,-41 192,-41 192,-12 192,-12 192,-6 198,0 204,0 204,0 354,0 354,0 360,0 366,-6 366,-12 366,-12 366,-41 366,-41 366,-47 360,-53 354,-53"/>
<text text-anchor="start" x="200" y="-37.8" font-family="Helvetica,sans-Serif" font-size="14.00">squared_error = 0.015</text>
<text text-anchor="start" x="226" y="-22.8" font-family="Helvetica,sans-Serif" font-size="14.00">samples = 376</text>
<text text-anchor="start" x="229" y="-7.8" font-family="Helvetica,sans-Serif" font-size="14.00">value = 0.182</text>
</g>
<!-- 2&#45;&gt;4 -->
<g id="edge4" class="edge">
<title>2&#45;&gt;4</title>
<path fill="none" stroke="black" d="M279,-88.95C279,-80.72 279,-71.85 279,-63.48"/>
<polygon fill="black" stroke="black" points="282.5,-63.24 279,-53.24 275.5,-63.24 282.5,-63.24"/>
</g>
<!-- 6 -->
<g id="node7" class="node">
<title>6</title>
<path fill="#eca470" stroke="black" d="M546,-53C546,-53 396,-53 396,-53 390,-53 384,-47 384,-41 384,-41 384,-12 384,-12 384,-6 390,0 396,0 396,0 546,0 546,0 552,0 558,-6 558,-12 558,-12 558,-41 558,-41 558,-47 552,-53 546,-53"/>
<text text-anchor="start" x="392" y="-37.8" font-family="Helvetica,sans-Serif" font-size="14.00">squared_error = 0.011</text>
<text text-anchor="start" x="422.5" y="-22.8" font-family="Helvetica,sans-Serif" font-size="14.00">samples = 60</text>
<text text-anchor="start" x="425.5" y="-7.8" font-family="Helvetica,sans-Serif" font-size="14.00">value = 0.07</text>
</g>
<!-- 5&#45;&gt;6 -->
<g id="edge6" class="edge">
<title>5&#45;&gt;6</title>
<path fill="none" stroke="black" d="M528.87,-88.95C520.26,-79.8 510.9,-69.87 502.28,-60.71"/>
<polygon fill="black" stroke="black" points="504.64,-58.12 495.24,-53.24 499.55,-62.92 504.64,-58.12"/>
</g>
<!-- 7 -->
<g id="node8" class="node">
<title>7</title>
<path fill="#f0b68c" stroke="black" d="M729.5,-53C729.5,-53 588.5,-53 588.5,-53 582.5,-53 576.5,-47 576.5,-41 576.5,-41 576.5,-12 576.5,-12 576.5,-6 582.5,0 588.5,0 588.5,0 729.5,0 729.5,0 735.5,0 741.5,-6 741.5,-12 741.5,-12 741.5,-41 741.5,-41 741.5,-47 735.5,-53 729.5,-53"/>
<text text-anchor="start" x="584.5" y="-37.8" font-family="Helvetica,sans-Serif" font-size="14.00">squared_error = 0.01</text>
<text text-anchor="start" x="610.5" y="-22.8" font-family="Helvetica,sans-Serif" font-size="14.00">samples = 58</text>
<text text-anchor="start" x="609" y="-7.8" font-family="Helvetica,sans-Serif" font-size="14.00">value = 0.013</text>
</g>
<!-- 5&#45;&gt;7 -->
<g id="edge7" class="edge">
<title>5&#45;&gt;7</title>
<path fill="none" stroke="black" d="M594.63,-88.95C604.4,-79.62 615.03,-69.47 624.78,-60.16"/>
<polygon fill="black" stroke="black" points="627.22,-62.67 632.04,-53.24 622.39,-57.61 627.22,-62.67"/>
</g>
<!-- 9 -->
<g id="node10" class="node">
<title>9</title>
<path fill="#f7d7c1" stroke="black" d="M1006,-157C1006,-157 856,-157 856,-157 850,-157 844,-151 844,-145 844,-145 844,-101 844,-101 844,-95 850,-89 856,-89 856,-89 1006,-89 1006,-89 1012,-89 1018,-95 1018,-101 1018,-101 1018,-145 1018,-145 1018,-151 1012,-157 1006,-157"/>
<text text-anchor="start" x="899.5" y="-141.8" font-family="Helvetica,sans-Serif" font-size="14.00">X2 ≤ 0.2</text>
<text text-anchor="start" x="852" y="-126.8" font-family="Helvetica,sans-Serif" font-size="14.00">squared_error = 0.012</text>
<text text-anchor="start" x="878" y="-111.8" font-family="Helvetica,sans-Serif" font-size="14.00">samples = 129</text>
<text text-anchor="start" x="878.5" y="-96.8" font-family="Helvetica,sans-Serif" font-size="14.00">value = &#45;0.093</text>
</g>
<!-- 8&#45;&gt;9 -->
<g id="edge9" class="edge">
<title>8&#45;&gt;9</title>
<path fill="none" stroke="black" d="M931,-192.88C931,-184.78 931,-175.98 931,-167.47"/>
<polygon fill="black" stroke="black" points="934.5,-167.3 931,-157.3 927.5,-167.3 934.5,-167.3"/>
</g>
<!-- 12 -->
<g id="node13" class="node">
<title>12</title>
<path fill="#fdf6f1" stroke="black" d="M1288,-157C1288,-157 1138,-157 1138,-157 1132,-157 1126,-151 1126,-145 1126,-145 1126,-101 1126,-101 1126,-95 1132,-89 1138,-89 1138,-89 1288,-89 1288,-89 1294,-89 1300,-95 1300,-101 1300,-101 1300,-145 1300,-145 1300,-151 1294,-157 1288,-157"/>
<text text-anchor="start" x="1172.5" y="-141.8" font-family="Helvetica,sans-Serif" font-size="14.00">X2 ≤ 0.242</text>
<text text-anchor="start" x="1134" y="-126.8" font-family="Helvetica,sans-Serif" font-size="14.00">squared_error = 0.015</text>
<text text-anchor="start" x="1160" y="-111.8" font-family="Helvetica,sans-Serif" font-size="14.00">samples = 237</text>
<text text-anchor="start" x="1160.5" y="-96.8" font-family="Helvetica,sans-Serif" font-size="14.00">value = &#45;0.191</text>
</g>
<!-- 8&#45;&gt;12 -->
<g id="edge12" class="edge">
<title>8&#45;&gt;12</title>
<path fill="none" stroke="black" d="M1018.3,-194.43C1049.23,-183.24 1084.21,-170.58 1115.91,-159.12"/>
<polygon fill="black" stroke="black" points="1117.42,-162.29 1125.63,-155.6 1115.04,-155.71 1117.42,-162.29"/>
</g>
<!-- 10 -->
<g id="node11" class="node">
<title>10</title>
<path fill="#f2bf9a" stroke="black" d="M912.5,-53C912.5,-53 771.5,-53 771.5,-53 765.5,-53 759.5,-47 759.5,-41 759.5,-41 759.5,-12 759.5,-12 759.5,-6 765.5,0 771.5,0 771.5,0 912.5,0 912.5,0 918.5,0 924.5,-6 924.5,-12 924.5,-12 924.5,-41 924.5,-41 924.5,-47 918.5,-53 912.5,-53"/>
<text text-anchor="start" x="767.5" y="-37.8" font-family="Helvetica,sans-Serif" font-size="14.00">squared_error = 0.01</text>
<text text-anchor="start" x="793.5" y="-22.8" font-family="Helvetica,sans-Serif" font-size="14.00">samples = 23</text>
<text text-anchor="start" x="789.5" y="-7.8" font-family="Helvetica,sans-Serif" font-size="14.00">value = &#45;0.015</text>
</g>
<!-- 9&#45;&gt;10 -->
<g id="edge10" class="edge">
<title>9&#45;&gt;10</title>
<path fill="none" stroke="black" d="M899.87,-88.95C891.26,-79.8 881.9,-69.87 873.28,-60.71"/>
<polygon fill="black" stroke="black" points="875.64,-58.12 866.24,-53.24 870.55,-62.92 875.64,-58.12"/>
</g>
<!-- 11 -->
<g id="node12" class="node">
<title>11</title>
<path fill="#f8ddc9" stroke="black" d="M1095.5,-53C1095.5,-53 954.5,-53 954.5,-53 948.5,-53 942.5,-47 942.5,-41 942.5,-41 942.5,-12 942.5,-12 942.5,-6 948.5,0 954.5,0 954.5,0 1095.5,0 1095.5,0 1101.5,0 1107.5,-6 1107.5,-12 1107.5,-12 1107.5,-41 1107.5,-41 1107.5,-47 1101.5,-53 1095.5,-53"/>
<text text-anchor="start" x="950.5" y="-37.8" font-family="Helvetica,sans-Serif" font-size="14.00">squared_error = 0.01</text>
<text text-anchor="start" x="972" y="-22.8" font-family="Helvetica,sans-Serif" font-size="14.00">samples = 106</text>
<text text-anchor="start" x="977" y="-7.8" font-family="Helvetica,sans-Serif" font-size="14.00">value = &#45;0.11</text>
</g>
<!-- 9&#45;&gt;11 -->
<g id="edge11" class="edge">
<title>9&#45;&gt;11</title>
<path fill="none" stroke="black" d="M963.88,-88.95C973.07,-79.71 983.05,-69.67 992.24,-60.44"/>
<polygon fill="black" stroke="black" points="994.83,-62.79 999.4,-53.24 989.87,-57.86 994.83,-62.79"/>
</g>
<!-- 13 -->
<g id="node14" class="node">
<title>13</title>
<path fill="#f7d7c0" stroke="black" d="M1288,-53C1288,-53 1138,-53 1138,-53 1132,-53 1126,-47 1126,-41 1126,-41 1126,-12 1126,-12 1126,-6 1132,0 1138,0 1138,0 1288,0 1288,0 1294,0 1300,-6 1300,-12 1300,-12 1300,-41 1300,-41 1300,-47 1294,-53 1288,-53"/>
<text text-anchor="start" x="1134" y="-37.8" font-family="Helvetica,sans-Serif" font-size="14.00">squared_error = 0.011</text>
<text text-anchor="start" x="1164.5" y="-22.8" font-family="Helvetica,sans-Serif" font-size="14.00">samples = 54</text>
<text text-anchor="start" x="1160.5" y="-7.8" font-family="Helvetica,sans-Serif" font-size="14.00">value = &#45;0.093</text>
</g>
<!-- 12&#45;&gt;13 -->
<g id="edge13" class="edge">
<title>12&#45;&gt;13</title>
<path fill="none" stroke="black" d="M1213,-88.95C1213,-80.72 1213,-71.85 1213,-63.48"/>
<polygon fill="black" stroke="black" points="1216.5,-63.24 1213,-53.24 1209.5,-63.24 1216.5,-63.24"/>
</g>
<!-- 14 -->
<g id="node15" class="node">
<title>14</title>
<path fill="#ffffff" stroke="black" d="M1480,-53C1480,-53 1330,-53 1330,-53 1324,-53 1318,-47 1318,-41 1318,-41 1318,-12 1318,-12 1318,-6 1324,0 1330,0 1330,0 1480,0 1480,0 1486,0 1492,-6 1492,-12 1492,-12 1492,-41 1492,-41 1492,-47 1486,-53 1480,-53"/>
<text text-anchor="start" x="1326" y="-37.8" font-family="Helvetica,sans-Serif" font-size="14.00">squared_error = 0.012</text>
<text text-anchor="start" x="1352" y="-22.8" font-family="Helvetica,sans-Serif" font-size="14.00">samples = 183</text>
<text text-anchor="start" x="1357" y="-7.8" font-family="Helvetica,sans-Serif" font-size="14.00">value = &#45;0.22</text>
</g>
<!-- 12&#45;&gt;14 -->
<g id="edge14" class="edge">
<title>12&#45;&gt;14</title>
<path fill="none" stroke="black" d="M1280.15,-88.95C1300.88,-78.75 1323.58,-67.57 1343.87,-57.59"/>
<polygon fill="black" stroke="black" points="1345.59,-60.64 1353.01,-53.09 1342.5,-54.36 1345.59,-60.64"/>
</g>
</g>
</svg>