<?xml version="1.0" encoding="UTF-8" standalone="no"?>
<!DOCTYPE svg PUBLIC "-//W3C//DTD SVG 1.1//EN"
 "http://www.w3.org/Graphics/SVG/1.1/DTD/svg11.dtd">
<!-- Generated by graphviz version 2.50.0 (0)
 -->
<!-- Title: Tree Pages: 1 -->
<svg width="1501pt" height="373pt"
 viewBox="0.00 0.00 1500.50 373.00" xmlns="http://www.w3.org/2000/svg" xmlns:xlink="http://www.w3.org/1999/xlink">
<g id="graph0" class="graph" transform="scale(1 1) rotate(0) translate(4 369)">
<title>Tree</title>
<polygon fill="white" stroke="transparent" points="-4,4 -4,-369 1496.5,-369 1496.5,4 -4,4"/>
<!-- 0 -->
<g id="node1" class="node">
<title>0</title>
<path fill="#eeae80" stroke="black" d="M826,-365C826,-365 676,-365 676,-365 670,-365 664,-359 664,-353 664,-353 664,-309 664,-309 664,-303 670,-297 676,-297 676,-297 826,-297 826,-297 832,-297 838,-303 838,-309 838,-309 838,-353 838,-353 838,-359 832,-365 826,-365"/>
<text text-anchor="start" x="710.5" y="-349.8" font-family="Helvetica,sans-Serif" font-size="14.00">X1 ≤ 0.655</text>
<text text-anchor="start" x="672" y="-334.8" font-family="Helvetica,sans-Serif" font-size="14.00">squared_error = 0.036</text>
<text text-anchor="start" x="693.5" y="-319.8" font-family="Helvetica,sans-Serif" font-size="14.00">samples = 1000</text>
<text text-anchor="start" x="701" y="-304.8" font-family="Helvetica,sans-Serif" font-size="14.00">value = 0.026</text>
</g>
<!-- 1 -->
<g id="node2" class="node">
<title>1</title>
<path fill="#e89050" stroke="black" d="M636,-261C636,-261 486,-261 486,-261 480,-261 474,-255 474,-249 474,-249 474,-205 474,-205 474,-199 480,-193 486,-193 486,-193 636,-193 636,-193 642,-193 648,-199 648,-205 648,-205 648,-249 648,-249 648,-255 642,-261 636,-261"/>
<text text-anchor="start" x="520.5" y="-245.8" font-family="Helvetica,sans-Serif" font-size="14.00">X1 ≤ 0.523</text>
<text text-anchor="start" x="482" y="-230.8" font-family="Helvetica,sans-Serif" font-size="14.00">squared_error = 0.017</text>
<text text-anchor="start" x="508" y="-215.8" font-family="Helvetica,sans-Serif" font-size="14.00">samples = 646</text>
<text text-anchor="start" x="511" y="-200.8" font-family="Helvetica,sans-Serif" font-size="14.00">value = 0.129</text>
</g>
<!-- 0&#45;&gt;1 -->
<g id="edge1" class="edge">
<title>0&#45;&gt;1</title>
<path fill="none" stroke="black" d="M689.31,-296.88C670.88,-286.99 650.54,-276.07 631.59,-265.9"/>
<polygon fill="black" stroke="black" points="633.17,-262.77 622.7,-261.12 629.86,-268.94 633.17,-262.77"/>
<text text-anchor="middle" x="629.92" y="-281.36" font-family="Helvetica,sans-Serif" font-size="14.00">True</text>
</g>
<!-- 8 -->
<g id="node9" class="node">
<title>8</title>
<path fill="#fae6d7" stroke="black" d="M1016,-261C1016,-261 866,-261 866,-261 860,-261 854,-255 854,-249 854,-249 854,-205 854,-205 854,-199 860,-193 866,-193 866,-193 1016,-193 1016,-193 1022,-193 1028,-199 1028,-205 1028,-205 1028,-249 1028,-249 1028,-255 1022,-261 1016,-261"/>
<text text-anchor="start" x="900.5" y="-245.8" font-family="Helvetica,sans-Serif" font-size="14.00">X1 ≤ 0.792</text>
<text text-anchor="start" x="862" y="-230.8" font-family="Helvetica,sans-Serif" font-size="14.00">squared_error = 0.016</text>
<text text-anchor="start" x="888" y="-215.8" font-family="Helvetica,sans-Serif" font-size="14.00">samples = 354</text>
<text text-anchor="start" x="888.5" y="-200.8" font-family="Helvetica,sans-Serif" font-size="14.00">value = &#45;0.163</text>
</g>
<!-- 0&#45;&gt;8 -->
<g id="edge8" class="edge">
<title>0&#45;&gt;8</title>
<path fill="none" stroke="black" d="M812.69,-296.88C831.12,-286.99 851.46,-276.07 870.41,-265.9"/>
<polygon fill="black" stroke="black" points="872.14,-268.94 879.3,-261.12 868.83,-262.77 872.14,-268.94"/>
<text text-anchor="middle" x="872.08" y="-281.36" font-family="Helvetica,sans-Serif" font-size="14.00">False</text>
</g>
<!-- 2 -->
<g id="node3" class="node">
<title>2</title>
<path fill="#e78946" stroke="black" d="M354,-157C354,-157 204,-157 204,-157 198,-157 192,-151 192,-145 192,-145 192,-101 192,-101 192,-95 198,-89 204,-89 204,-89 354,-89 354,-89 360,-89 366,-95 366,-101 366,-101 366,-145 366,-145 366,-151 360,-157 354,-157"/>
<text text-anchor="start" x="238.5" y="-141.8" font-family="Helvetica,sans-Serif" font-size="14.00">X1 ≤ 0.147</text>
<text text-anchor="start" x="200" y="-126.8" font-family="Helvetica,sans-Serif" font-size="14.00">squared_error = 0.016</text>
<text text-anchor="start" x="226" y="-111.8" font-family="Helvetica,sans-Serif" font-size="14.00">samples = 519</text>
<text text-anchor="start" x="233.5" y="-96.8" font-family="Helvetica,sans-Serif" font-size="14.00">value = 0.15</text>
</g>
<!-- 1&#45;&gt;2 -->
<g id="edge2" class="edge">
<title>1&#45;&gt;2</title>
<path fill="none" stroke="black" d="M473.7,-194.43C442.77,-183.24 407.79,-170.58 376.09,-159.12"/>
<polygon fill="black" stroke="black" points="376.96,-155.71 366.37,-155.6 374.58,-162.29 376.96,-155.71"/>
</g>
<!-- 5 -->
<g id="node6" class="node">
<title>5</title>
<path fill="#eda978" stroke="black" d="M631.5,-157C631.5,-157 490.5,-157 490.5,-157 484.5,-157 478.5,-151 478.5,-145 478.5,-145 478.5,-101 478.5,-101 478.5,-95 484.5,-89 490.5,-89 490.5,-89 631.5,-89 631.5,-89 637.5,-89 643.5,-95 643.5,-101 643.5,-101 643.5,-145 643.5,-145 643.5,-151 637.5,-157 631.5,-157"/>
<text text-anchor="start" x="520.5" y="-141.8" font-family="Helvetica,sans-Serif" font-size="14.00">X1 ≤ 0.619</text>
<text text-anchor="start" x="486.5" y="-126.8" font-family="Helvetica,sans-Serif" font-size="14.00">squared_error = 0.01</text>
<text text-anchor="start" x="508" y="-111.8" font-family="Helvetica,sans-Serif" font-size="14.00">samples = 127</text>
<text text-anchor="start" x="511" y="-96.8" font-family="Helvetica,sans-Serif" font-size="14.00">value = 0.043</text>
</g>
<!-- 1&#45;&gt;5 -->
<g id="edge5" class="edge">
<title>1&#45;&gt;5</title>
<path fill="none" stroke="black" d="M561,-192.88C561,-184.78 561,-175.98 561,-167.47"/>
<polygon fill="black" stroke="black" points="564.5,-167.3 561,-157.3 557.5,-167.3 564.5,-167.3"/>
</g>
<!-- 3 -->
<g id="node4" class="node">
<title>3</title>
<path fill="#eca36e" stroke="black" d="M162,-53C162,-53 12,-53 12,-53 6,-53 0,-47 0,-41 0,-41 0,-12 0,-12 0,-6 6,0 12,0 12,0 162,0 162,0 168,0 174,-6 174,-12 174,-12 174,-41 174,-41 174,-47 168,-53 162,-53"/>
<text text-anchor="start" x="8" y="-37.8" font-family="Helvetica,sans-Serif" font-size="14.00">squared_error = 0.013</text>
<text text-anchor="start" x="34" y="-22.8" font-family="Helvetica,sans-Serif" font-size="14.00">samples = 131</text>
<text text-anchor="start" x="37" y="-7.8" font-family="Helvetica,sans-Serif" font-size="14.00">value = 0.065</text>
</g>
<!-- 2&#45;&gt;3 -->
<g id="edge3" class="edge">
<title>2&#45;&gt;3</title>
<path fill="none" stroke="black" d="M211.85,-88.95C191.12,-78.75 168.42,-67.57 148.13,-57.59"/>
<polygon fill="black" stroke="black" points="149.5,-54.36 138.99,-53.09 146.41,-60.64 149.5,-54.36"/>
</g>
<!-- 4 -->
<g id="node5" class="node">
<title>4</title>
<path fill="#e58139" stroke="black" d="M354,-53C354,-53 204,-53 204,-53 198,-53 192,-47 192,-41 192,-41 192,-12 192,-12 192,-6 198,0 204,0 204,0 354,0 354,0 360,0 366,-6 366,-12 366,-12 366,-41 366,-41 366,-47 360,-53 354,-53"/>
<text text-anchor="start" x="200" y="-37.8" font-family="Helvetica,sans-Serif" font-size="14.00">squared_error = 0.014</text>
<text text-anchor="start" x="226" y="-22.8" font-family="Helvetica,sans-Serif" font-size="14.00">samples = 388</text>
<text text-anchor="start" x="229" y="-7.8" font-family="Helvetica,sans-Serif" font-size="14.00">value = 0.179</text>
</g>
<!-- 2&#45;&gt;4 -->
<g id="edge4" class="edge">
<title>2&#45;&gt;4</title>
<path fill="none" stroke="black" d="M279,-88.95C279,-80.72 279,-71.85 279,-63.48"/>
<polygon fill="black" stroke="black" points="282.5,-63.24 279,-53.24 275.5,-63.24 282.5,-63.24"/>
</g>
<!-- 6 -->
<g id="node7" class="node">
<title>6</title>
<path fill="#eca16c" stroke="black" d="M537.5,-53C537.5,-53 396.5,-53 396.5,-53 390.5,-53 384.5,-47 384.5,-41 384.5,-41 384.5,-12 384.5,-12 384.5,-6 390.5,0 396.5,0 396.5,0 537.5,0 537.5,0 543.5,0 549.5,-6 549.5,-12 549.5,-12 549.5,-41 549.5,-41 549.5,-47 543.5,-53 537.5,-53"/>
<text text-anchor="start" x="392.5" y="-37.8" font-family="Helvetica,sans-Serif" font-size="14.00">squared_error = 0.01</text>
<text text-anchor="start" x="418.5" y="-22.8" font-family="Helvetica,sans-Serif" font-size="14.00">samples = 79</text>
<text text-anchor="start" x="421.5" y="-7.8" font-family="Helvetica,sans-Serif" font-size="14.00">value = 0.07</text>
</g>
<!-- 5&#45;&gt;6 -->
<g id="edge6" class="edge">
<title>5&#45;&gt;6</title>
<path fill="none" stroke="black" d="M528.12,-88.95C518.93,-79.71 508.95,-69.67 499.76,-60.44"/>
<polygon fill="black" stroke="black" points="502.13,-57.86 492.6,-53.24 497.17,-62.79 502.13,-57.86"/>
</g>
<!-- 7 -->
<g id="node8" class="node">
<title>7</title>
<path fill="#f0b68c" stroke="black" d="M730,-53C730,-53 580,-53 580,-53 574,-53 568,-47 568,-41 568,-41 568,-12 568,-12 568,-6 574,0 580,0 580,0 730,0 730,0 736,0 742,-6 742,-12 742,-12 742,-41 742,-41 742,-47 736,-53 730,-53"/>
<text text-anchor="start" x="576" y="-37.8" font-family="Helvetica,sans-Serif" font-size="14.00">squared_error = 0.007</text>
<text text-anchor="start" x="606.5" y="-22.8" font-family="Helvetica,sans-Serif" font-size="14.00">samples = 48</text>
<text text-anchor="start" x="611.5" y="-7.8" font-family="Helvetica,sans-Serif" font-size="14.00">value = &#45;0.0</text>
</g>
<!-- 5&#45;&gt;7 -->
<g id="edge7" class="edge">
<title>5&#45;&gt;7</title>
<path fill="none" stroke="black" d="M593.88,-88.95C603.07,-79.71 613.05,-69.67 622.24,-60.44"/>
<polygon fill="black" stroke="black" points="624.83,-62.79 629.4,-53.24 619.87,-57.86 624.83,-62.79"/>
</g>
<!-- 9 -->
<g id="node10" class="node">
<title>9</title>
<path fill="#f6d1b7" stroke="black" d="M1016,-157C1016,-157 866,-157 866,-157 860,-157 854,-151 854,-145 854,-145 854,-101 854,-101 854,-95 860,-89 866,-89 866,-89 1016,-89 1016,-89 1022,-89 1028,-95 1028,-101 1028,-101 1028,-145 1028,-145 1028,-151 1022,-157 1016,-157"/>
<text text-anchor="start" x="900.5" y="-141.8" font-family="Helvetica,sans-Serif" font-size="14.00">X2 ≤ 0.471</text>
<text text-anchor="start" x="862" y="-126.8" font-family="Helvetica,sans-Serif" font-size="14.00">squared_error = 0.011</text>
<text text-anchor="start" x="888" y="-111.8" font-family="Helvetica,sans-Serif" font-size="14.00">samples = 146</text>
<text text-anchor="start" x="888.5" y="-96.8" font-family="Helvetica,sans-Serif" font-size="14.00">value = &#45;0.094</text>
</g>
<!-- 8&#45;&gt;9 -->
<g id="edge9" class="edge">
<title>8&#45;&gt;9</title>
<path fill="none" stroke="black" d="M941,-192.88C941,-184.78 941,-175.98 941,-167.47"/>
<polygon fill="black" stroke="black" points="944.5,-167.3 941,-157.3 937.5,-167.3 944.5,-167.3"/>
</g>
<!-- 12 -->
<g id="node13" class="node">
<title>12</title>
<path fill="#fdf4ee" stroke="black" d="M1302,-157C1302,-157 1152,-157 1152,-157 1146,-157 1140,-151 1140,-145 1140,-145 1140,-101 1140,-101 1140,-95 1146,-89 1152,-89 1152,-89 1302,-89 1302,-89 1308,-89 1314,-95 1314,-101 1314,-101 1314,-145 1314,-145 1314,-151 1308,-157 1302,-157"/>
<text text-anchor="start" x="1186.5" y="-141.8" font-family="Helvetica,sans-Serif" font-size="14.00">X2 ≤ 0.237</text>
<text text-anchor="start" x="1148" y="-126.8" font-family="Helvetica,sans-Serif" font-size="14.00">squared_error = 0.015</text>
<text text-anchor="start" x="1174" y="-111.8" font-family="Helvetica,sans-Serif" font-size="14.00">samples = 208</text>
<text text-anchor="start" x="1174.5" y="-96.8" font-family="Helvetica,sans-Serif" font-size="14.00">value = &#45;0.211</text>
</g>
<!-- 8&#45;&gt;12 -->
<g id="edge12" class="edge">
<title>8&#45;&gt;12</title>
<path fill="none" stroke="black" d="M1028.36,-194.84C1060.51,-183.38 1097.1,-170.33 1130.04,-158.58"/>
<polygon fill="black" stroke="black" points="1131.44,-161.8 1139.68,-155.14 1129.08,-155.21 1131.44,-161.8"/>
</g>
<!-- 10 -->
<g id="node11" class="node">
<title>10</title>
<path fill="#f3c7a7" stroke="black" d="M922,-53C922,-53 772,-53 772,-53 766,-53 760,-47 760,-41 760,-41 760,-12 760,-12 760,-6 766,0 772,0 772,0 922,0 922,0 928,0 934,-6 934,-12 934,-12 934,-41 934,-41 934,-47 928,-53 922,-53"/>
<text text-anchor="start" x="768" y="-37.8" font-family="Helvetica,sans-Serif" font-size="14.00">squared_error = 0.007</text>
<text text-anchor="start" x="798.5" y="-22.8" font-family="Helvetica,sans-Serif" font-size="14.00">samples = 64</text>
<text text-anchor="start" x="794.5" y="-7.8" font-family="Helvetica,sans-Serif" font-size="14.00">value = &#45;0.058</text>
</g>
<!-- 9&#45;&gt;10 -->
<g id="edge10" class="edge">
<title>9&#45;&gt;10</title>
<path fill="none" stroke="black" d="M908.12,-88.95C898.93,-79.71 888.95,-69.67 879.76,-60.44"/>
<polygon fill="black" stroke="black" points="882.13,-57.86 872.6,-53.24 877.17,-62.79 882.13,-57.86"/>
</g>
<!-- 11 -->
<g id="node12" class="node">
<title>11</title>
<path fill="#f7dac4" stroke="black" d="M1114,-53C1114,-53 964,-53 964,-53 958,-53 952,-47 952,-41 952,-41 952,-12 952,-12 952,-6 958,0 964,0 964,0 1114,0 1114,0 1120,0 1126,-6 1126,-12 1126,-12 1126,-41 1126,-41 1126,-47 1120,-53 1114,-53"/>
<text text-anchor="start" x="960" y="-37.8" font-family="Helvetica,sans-Serif" font-size="14.00">squared_error = 0.011</text>
<text text-anchor="start" x="990.5" y="-22.8" font-family="Helvetica,sans-Serif" font-size="14.00">samples = 82</text>
<text text-anchor="start" x="986.5" y="-7.8" font-family="Helvetica,sans-Serif" font-size="14.00">value = &#45;0.121</text>
</g>
<!-- 9&#45;&gt;11 -->
<g id="edge11" class="edge">
<title>9&#45;&gt;11</title>
<path fill="none" stroke="black" d="M975.28,-88.95C984.86,-79.71 995.27,-69.67 1004.84,-60.44"/>
<polygon fill="black" stroke="black" points="1007.54,-62.7 1012.31,-53.24 1002.68,-57.66 1007.54,-62.7"/>
</g>
<!-- 13 -->
<g id="node14" class="node">
<title>13</title>
<path fill="#f5ccb0" stroke="black" d="M1297.5,-53C1297.5,-53 1156.5,-53 1156.5,-53 1150.5,-53 1144.5,-47 1144.5,-41 1144.5,-41 1144.5,-12 1144.5,-12 1144.5,-6 1150.5,0 1156.5,0 1156.5,0 1297.5,0 1297.5,0 1303.5,0 1309.5,-6 1309.5,-12 1309.5,-12 1309.5,-41 1309.5,-41 1309.5,-47 1303.5,-53 1297.5,-53"/>
<text text-anchor="start" x="1152.5" y="-37.8" font-family="Helvetica,sans-Serif" font-size="14.00">squared_error = 0.01</text>
<text text-anchor="start" x="1178.5" y="-22.8" font-family="Helvetica,sans-Serif" font-size="14.00">samples = 45</text>
<text text-anchor="start" x="1174.5" y="-7.8" font-family="Helvetica,sans-Serif" font-size="14.00">value = &#45;0.077</text>
</g>
<!-- 12&#45;&gt;13 -->
<g id="edge13" class="edge">
<title>12&#45;&gt;13</title>
<path fill="none" stroke="black" d="M1227,-88.95C1227,-80.72 1227,-71.85 1227,-63.48"/>
<polygon fill="black" stroke="black" points="1230.5,-63.24 1227,-53.24 1223.5,-63.24 1230.5,-63.24"/>
</g>
<!-- 14 -->
<g id="node15" class="node">
<title>14</title>
<path fill="#ffffff" stroke="black" d="M1480.5,-53C1480.5,-53 1339.5,-53 1339.5,-53 1333.5,-53 1327.5,-47 1327.5,-41 1327.5,-41 1327.5,-12 1327.5,-12 1327.5,-6 1333.5,0 1339.5,0 1339.5,0 1480.5,0 1480.5,0 1486.5,0 1492.5,-6 1492.5,-12 1492.5,-12 1492.5,-41 1492.5,-41 1492.5,-47 1486.5,-53 1480.5,-53"/>
<text text-anchor="start" x="1335.5" y="-37.8" font-family="Helvetica,sans-Serif" font-size="14.00">squared_error = 0.01</text>
<text text-anchor="start" x="1357" y="-22.8" font-family="Helvetica,sans-Serif" font-size="14.00">samples = 163</text>
<text text-anchor="start" x="1357.5" y="-7.8" font-family="Helvetica,sans-Serif" font-size="14.00">value = &#45;0.248</text>
</g>
<!-- 12&#45;&gt;14 -->
<g id="edge14" class="edge">
<title>12&#45;&gt;14</title>
<path fill="none" stroke="black" d="M1291,-88.95C1310.67,-78.79 1332.2,-67.67 1351.48,-57.72"/>
<polygon fill="black" stroke="black" points="1353.17,-60.78 1360.45,-53.09 1349.96,-54.57 1353.17,-60.78"/>
</g>
</g>
</svg>