<?xml version="1.0" encoding="UTF-8" standalone="no"?>
<!DOCTYPE svg PUBLIC "-//W3C//DTD SVG 1.1//EN"
 "http://www.w3.org/Graphics/SVG/1.1/DTD/svg11.dtd">
<!-- Generated by graphviz version 2.50.0 (0)
 -->
<!-- Title: Tree Pages: 1 -->
<svg width="1526pt" height="373pt"
 viewBox="0.00 0.00 1526.00 373.00" xmlns="http://www.w3.org/2000/svg" xmlns:xlink="http://www.w3.org/1999/xlink">
<g id="graph0" class="graph" transform="scale(1 1) rotate(0) translate(4 369)">
<title>Tree</title>
<polygon fill="white" stroke="transparent" points="-4,4 -4,-369 1522,-369 1522,4 -4,4"/>
<!-- 0 -->
<g id="node1" class="node">
<title>0</title>
<path fill="#efaf81" stroke="black" d="M834,-365C834,-365 684,-365 684,-365 678,-365 672,-359 672,-353 672,-353 672,-309 672,-309 672,-303 678,-297 684,-297 684,-297 834,-297 834,-297 840,-297 846,-303 846,-309 846,-309 846,-353 846,-353 846,-359 840,-365 834,-365"/>
<text text-anchor="start" x="718.5" y="-349.8" font-family="Helvetica,sans-Serif" font-size="14.00">X1 ≤ 0.657</text>
<text text-anchor="start" x="680" y="-334.8" font-family="Helvetica,sans-Serif" font-size="14.00">squared_error = 0.036</text>
<text text-anchor="start" x="701.5" y="-319.8" font-family="Helvetica,sans-Serif" font-size="14.00">samples = 1000</text>
<text text-anchor="start" x="709" y="-304.8" font-family="Helvetica,sans-Serif" font-size="14.00">value = 0.028</text>
</g>
<!-- 1 -->
<g id="node2" class="node">
<title>1</title>
<path fill="#e99355" stroke="black" d="M642,-261C642,-261 492,-261 492,-261 486,-261 480,-255 480,-249 480,-249 480,-205 480,-205 480,-199 486,-193 492,-193 492,-193 642,-193 642,-193 648,-193 654,-199 654,-205 654,-205 654,-249 654,-249 654,-255 648,-261 642,-261"/>
<text text-anchor="start" x="526.5" y="-245.8" font-family="Helvetica,sans-Serif" font-size="14.00">X1 ≤ 0.511</text>
<text text-anchor="start" x="488" y="-230.8" font-family="Helvetica,sans-Serif" font-size="14.00">squared_error = 0.016</text>
<text text-anchor="start" x="514" y="-215.8" font-family="Helvetica,sans-Serif" font-size="14.00">samples = 653</text>
<text text-anchor="start" x="521.5" y="-200.8" font-family="Helvetica,sans-Serif" font-size="14.00">value = 0.13</text>
</g>
<!-- 0&#45;&gt;1 -->
<g id="edge1" class="edge">
<title>0&#45;&gt;1</title>
<path fill="none" stroke="black" d="M696.66,-296.88C678.04,-286.99 657.48,-276.07 638.33,-265.9"/>
<polygon fill="black" stroke="black" points="639.83,-262.73 629.35,-261.12 636.54,-268.91 639.83,-262.73"/>
<text text-anchor="middle" x="636.67" y="-281.33" font-family="Helvetica,sans-Serif" font-size="14.00">True</text>
</g>
<!-- 8 -->
<g id="node9" class="node">
<title>8</title>
<path fill="#fae5d6" stroke="black" d="M1026,-261C1026,-261 876,-261 876,-261 870,-261 864,-255 864,-249 864,-249 864,-205 864,-205 864,-199 870,-193 876,-193 876,-193 1026,-193 1026,-193 1032,-193 1038,-199 1038,-205 1038,-205 1038,-249 1038,-249 1038,-255 1032,-261 1026,-261"/>
<text text-anchor="start" x="910.5" y="-245.8" font-family="Helvetica,sans-Serif" font-size="14.00">X1 ≤ 0.769</text>
<text text-anchor="start" x="872" y="-230.8" font-family="Helvetica,sans-Serif" font-size="14.00">squared_error = 0.017</text>
<text text-anchor="start" x="898" y="-215.8" font-family="Helvetica,sans-Serif" font-size="14.00">samples = 347</text>
<text text-anchor="start" x="898.5" y="-200.8" font-family="Helvetica,sans-Serif" font-size="14.00">value = &#45;0.165</text>
</g>
<!-- 0&#45;&gt;8 -->
<g id="edge8" class="edge">
<title>0&#45;&gt;8</title>
<path fill="none" stroke="black" d="M821.34,-296.88C839.96,-286.99 860.52,-276.07 879.67,-265.9"/>
<polygon fill="black" stroke="black" points="881.46,-268.91 888.65,-261.12 878.17,-262.73 881.46,-268.91"/>
<text text-anchor="middle" x="881.33" y="-281.33" font-family="Helvetica,sans-Serif" font-size="14.00">False</text>
</g>
<!-- 2 -->
<g id="node3" class="node">
<title>2</title>
<path fill="#e78b49" stroke="black" d="M354,-157C354,-157 204,-157 204,-157 198,-157 192,-151 192,-145 192,-145 192,-101 192,-101 192,-95 198,-89 204,-89 204,-89 354,-89 354,-89 360,-89 366,-95 366,-101 366,-101 366,-145 366,-145 366,-151 360,-157 354,-157"/>
<text text-anchor="start" x="238.5" y="-141.8" font-family="Helvetica,sans-Serif" font-size="14.00">X1 ≤ 0.169</text>
<text text-anchor="start" x="200" y="-126.8" font-family="Helvetica,sans-Serif" font-size="14.00">squared_error = 0.015</text>
<text text-anchor="start" x="226" y="-111.8" font-family="Helvetica,sans-Serif" font-size="14.00">samples = 501</text>
<text text-anchor="start" x="229" y="-96.8" font-family="Helvetica,sans-Serif" font-size="14.00">value = 0.155</text>
</g>
<!-- 1&#45;&gt;2 -->
<g id="edge2" class="edge">
<title>1&#45;&gt;2</title>
<path fill="none" stroke="black" d="M479.81,-195.12C447.11,-183.54 409.76,-170.31 376.21,-158.43"/>
<polygon fill="black" stroke="black" points="376.99,-154.99 366.39,-154.95 374.65,-161.59 376.99,-154.99"/>
</g>
<!-- 5 -->
<g id="node6" class="node">
<title>5</title>
<path fill="#edaa79" stroke="black" d="M642,-157C642,-157 492,-157 492,-157 486,-157 480,-151 480,-145 480,-145 480,-101 480,-101 480,-95 486,-89 492,-89 492,-89 642,-89 642,-89 648,-89 654,-95 654,-101 654,-101 654,-145 654,-145 654,-151 648,-157 642,-157"/>
<text text-anchor="start" x="526.5" y="-141.8" font-family="Helvetica,sans-Serif" font-size="14.00">X1 ≤ 0.596</text>
<text text-anchor="start" x="488" y="-126.8" font-family="Helvetica,sans-Serif" font-size="14.00">squared_error = 0.009</text>
<text text-anchor="start" x="514" y="-111.8" font-family="Helvetica,sans-Serif" font-size="14.00">samples = 152</text>
<text text-anchor="start" x="517" y="-96.8" font-family="Helvetica,sans-Serif" font-size="14.00">value = 0.046</text>
</g>
<!-- 1&#45;&gt;5 -->
<g id="edge5" class="edge">
<title>1&#45;&gt;5</title>
<path fill="none" stroke="black" d="M567,-192.88C567,-184.78 567,-175.98 567,-167.47"/>
<polygon fill="black" stroke="black" points="570.5,-167.3 567,-157.3 563.5,-167.3 570.5,-167.3"/>
</g>
<!-- 3 -->
<g id="node4" class="node">
<title>3</title>
<path fill="#eb9f68" stroke="black" d="M162,-53C162,-53 12,-53 12,-53 6,-53 0,-47 0,-41 0,-41 0,-12 0,-12 0,-6 6,0 12,0 12,0 162,0 162,0 168,0 174,-6 174,-12 174,-12 174,-41 174,-41 174,-47 168,-53 162,-53"/>
<text text-anchor="start" x="8" y="-37.8" font-family="Helvetica,sans-Serif" font-size="14.00">squared_error = 0.013</text>
<text text-anchor="start" x="34" y="-22.8" font-family="Helvetica,sans-Serif" font-size="14.00">samples = 174</text>
<text text-anchor="start" x="37" y="-7.8" font-family="Helvetica,sans-Serif" font-size="14.00">value = 0.085</text>
</g>
<!-- 2&#45;&gt;3 -->
<g id="edge3" class="edge">
<title>2&#45;&gt;3</title>
<path fill="none" stroke="black" d="M211.85,-88.95C191.12,-78.75 168.42,-67.57 148.13,-57.59"/>
<polygon fill="black" stroke="black" points="149.5,-54.36 138.99,-53.09 146.41,-60.64 149.5,-54.36"/>
</g>
<!-- 4 -->
<g id="node5" class="node">
<title>4</title>
<path fill="#e58139" stroke="black" d="M354,-53C354,-53 204,-53 204,-53 198,-53 192,-47 192,-41 192,-41 192,-12 192,-12 192,-6 198,0 204,0 204,0 354,0 354,0 360,0 366,-6 366,-12 366,-12 366,-41 366,-41 366,-47 360,-53 354,-53"/>
<text text-anchor="start" x="200" y="-37.8" font-family="Helvetica,sans-Serif" font-size="14.00">squared_error = 0.012</text>
<text text-anchor="start" x="226" y="-22.8" font-family="Helvetica,sans-Serif" font-size="14.00">samples = 327</text>
<text text-anchor="start" x="229" y="-7.8" font-family="Helvetica,sans-Serif" font-size="14.00">value = 0.193</text>
</g>
<!-- 2&#45;&gt;4 -->
<g id="edge4" class="edge">
<title>2&#45;&gt;4</title>
<path fill="none" stroke="black" d="M279,-88.95C279,-80.72 279,-71.85 279,-63.48"/>
<polygon fill="black" stroke="black" points="282.5,-63.24 279,-53.24 275.5,-63.24 282.5,-63.24"/>
</g>
<!-- 6 -->
<g id="node7" class="node">
<title>6</title>
<path fill="#eca26c" stroke="black" d="M546,-53C546,-53 396,-53 396,-53 390,-53 384,-47 384,-41 384,-41 384,-12 384,-12 384,-6 390,0 396,0 396,0 546,0 546,0 552,0 558,-6 558,-12 558,-12 558,-41 558,-41 558,-47 552,-53 546,-53"/>
<text text-anchor="start" x="392" y="-37.8" font-family="Helvetica,sans-Serif" font-size="14.00">squared_error = 0.008</text>
<text text-anchor="start" x="422.5" y="-22.8" font-family="Helvetica,sans-Serif" font-size="14.00">samples = 88</text>
<text text-anchor="start" x="421" y="-7.8" font-family="Helvetica,sans-Serif" font-size="14.00">value = 0.076</text>
</g>
<!-- 5&#45;&gt;6 -->
<g id="edge6" class="edge">
<title>5&#45;&gt;6</title>
<path fill="none" stroke="black" d="M533.42,-88.95C524.04,-79.71 513.84,-69.67 504.46,-60.44"/>
<polygon fill="black" stroke="black" points="506.73,-57.76 497.15,-53.24 501.82,-62.75 506.73,-57.76"/>
</g>
<!-- 7 -->
<g id="node8" class="node">
<title>7</title>
<path fill="#f0b68c" stroke="black" d="M738,-53C738,-53 588,-53 588,-53 582,-53 576,-47 576,-41 576,-41 576,-12 576,-12 576,-6 582,0 588,0 588,0 738,0 738,0 744,0 750,-6 750,-12 750,-12 750,-41 750,-41 750,-47 744,-53 738,-53"/>
<text text-anchor="start" x="584" y="-37.8" font-family="Helvetica,sans-Serif" font-size="14.00">squared_error = 0.008</text>
<text text-anchor="start" x="614.5" y="-22.8" font-family="Helvetica,sans-Serif" font-size="14.00">samples = 64</text>
<text text-anchor="start" x="613" y="-7.8" font-family="Helvetica,sans-Serif" font-size="14.00">value = 0.004</text>
</g>
<!-- 5&#45;&gt;7 -->
<g id="edge7" class="edge">
<title>5&#45;&gt;7</title>
<path fill="none" stroke="black" d="M600.58,-88.95C609.96,-79.71 620.16,-69.67 629.54,-60.44"/>
<polygon fill="black" stroke="black" points="632.18,-62.75 636.85,-53.24 627.27,-57.76 632.18,-62.75"/>
</g>
<!-- 9 -->
<g id="node10" class="node">
<title>9</title>
<path fill="#f5cdb0" stroke="black" d="M1026,-157C1026,-157 876,-157 876,-157 870,-157 864,-151 864,-145 864,-145 864,-101 864,-101 864,-95 870,-89 876,-89 876,-89 1026,-89 1026,-89 1032,-89 1038,-95 1038,-101 1038,-101 1038,-145 1038,-145 1038,-151 1032,-157 1026,-157"/>
<text text-anchor="start" x="910.5" y="-141.8" font-family="Helvetica,sans-Serif" font-size="14.00">X2 ≤ 0.623</text>
<text text-anchor="start" x="872" y="-126.8" font-family="Helvetica,sans-Serif" font-size="14.00">squared_error = 0.009</text>
<text text-anchor="start" x="898" y="-111.8" font-family="Helvetica,sans-Serif" font-size="14.00">samples = 108</text>
<text text-anchor="start" x="898.5" y="-96.8" font-family="Helvetica,sans-Serif" font-size="14.00">value = &#45;0.078</text>
</g>
<!-- 8&#45;&gt;9 -->
<g id="edge9" class="edge">
<title>8&#45;&gt;9</title>
<path fill="none" stroke="black" d="M951,-192.88C951,-184.78 951,-175.98 951,-167.47"/>
<polygon fill="black" stroke="black" points="954.5,-167.3 951,-157.3 947.5,-167.3 954.5,-167.3"/>
</g>
<!-- 12 -->
<g id="node13" class="node">
<title>12</title>
<path fill="#fcf0e7" stroke="black" d="M1314,-157C1314,-157 1164,-157 1164,-157 1158,-157 1152,-151 1152,-145 1152,-145 1152,-101 1152,-101 1152,-95 1158,-89 1164,-89 1164,-89 1314,-89 1314,-89 1320,-89 1326,-95 1326,-101 1326,-101 1326,-145 1326,-145 1326,-151 1320,-157 1314,-157"/>
<text text-anchor="start" x="1198.5" y="-141.8" font-family="Helvetica,sans-Serif" font-size="14.00">X2 ≤ 0.456</text>
<text text-anchor="start" x="1160" y="-126.8" font-family="Helvetica,sans-Serif" font-size="14.00">squared_error = 0.015</text>
<text text-anchor="start" x="1186" y="-111.8" font-family="Helvetica,sans-Serif" font-size="14.00">samples = 239</text>
<text text-anchor="start" x="1186.5" y="-96.8" font-family="Helvetica,sans-Serif" font-size="14.00">value = &#45;0.204</text>
</g>
<!-- 8&#45;&gt;12 -->
<g id="edge12" class="edge">
<title>8&#45;&gt;12</title>
<path fill="none" stroke="black" d="M1038.19,-195.12C1070.89,-183.54 1108.24,-170.31 1141.79,-158.43"/>
<polygon fill="black" stroke="black" points="1143.35,-161.59 1151.61,-154.95 1141.01,-154.99 1143.35,-161.59"/>
</g>
<!-- 10 -->
<g id="node11" class="node">
<title>10</title>
<path fill="#f3c4a2" stroke="black" d="M930,-53C930,-53 780,-53 780,-53 774,-53 768,-47 768,-41 768,-41 768,-12 768,-12 768,-6 774,0 780,0 780,0 930,0 930,0 936,0 942,-6 942,-12 942,-12 942,-41 942,-41 942,-47 936,-53 930,-53"/>
<text text-anchor="start" x="776" y="-37.8" font-family="Helvetica,sans-Serif" font-size="14.00">squared_error = 0.007</text>
<text text-anchor="start" x="806.5" y="-22.8" font-family="Helvetica,sans-Serif" font-size="14.00">samples = 62</text>
<text text-anchor="start" x="802.5" y="-7.8" font-family="Helvetica,sans-Serif" font-size="14.00">value = &#45;0.047</text>
</g>
<!-- 9&#45;&gt;10 -->
<g id="edge10" class="edge">
<title>9&#45;&gt;10</title>
<path fill="none" stroke="black" d="M917.42,-88.95C908.04,-79.71 897.84,-69.67 888.46,-60.44"/>
<polygon fill="black" stroke="black" points="890.73,-57.76 881.15,-53.24 885.82,-62.75 890.73,-57.76"/>
</g>
<!-- 11 -->
<g id="node12" class="node">
<title>11</title>
<path fill="#f7d8c2" stroke="black" d="M1122,-53C1122,-53 972,-53 972,-53 966,-53 960,-47 960,-41 960,-41 960,-12 960,-12 960,-6 966,0 972,0 972,0 1122,0 1122,0 1128,0 1134,-6 1134,-12 1134,-12 1134,-41 1134,-41 1134,-47 1128,-53 1122,-53"/>
<text text-anchor="start" x="968" y="-37.8" font-family="Helvetica,sans-Serif" font-size="14.00">squared_error = 0.009</text>
<text text-anchor="start" x="998.5" y="-22.8" font-family="Helvetica,sans-Serif" font-size="14.00">samples = 46</text>
<text text-anchor="start" x="994.5" y="-7.8" font-family="Helvetica,sans-Serif" font-size="14.00">value = &#45;0.121</text>
</g>
<!-- 9&#45;&gt;11 -->
<g id="edge11" class="edge">
<title>9&#45;&gt;11</title>
<path fill="none" stroke="black" d="M984.58,-88.95C993.96,-79.71 1004.16,-69.67 1013.54,-60.44"/>
<polygon fill="black" stroke="black" points="1016.18,-62.75 1020.85,-53.24 1011.27,-57.76 1016.18,-62.75"/>
</g>
<!-- 13 -->
<g id="node14" class="node">
<title>13</title>
<path fill="#f8decb" stroke="black" d="M1314,-53C1314,-53 1164,-53 1164,-53 1158,-53 1152,-47 1152,-41 1152,-41 1152,-12 1152,-12 1152,-6 1158,0 1164,0 1164,0 1314,0 1314,0 1320,0 1326,-6 1326,-12 1326,-12 1326,-41 1326,-41 1326,-47 1320,-53 1314,-53"/>
<text text-anchor="start" x="1160" y="-37.8" font-family="Helvetica,sans-Serif" font-size="14.00">squared_error = 0.012</text>
<text text-anchor="start" x="1186" y="-22.8" font-family="Helvetica,sans-Serif" font-size="14.00">samples = 110</text>
<text text-anchor="start" x="1186.5" y="-7.8" font-family="Helvetica,sans-Serif" font-size="14.00">value = &#45;0.141</text>
</g>
<!-- 12&#45;&gt;13 -->
<g id="edge13" class="edge">
<title>12&#45;&gt;13</title>
<path fill="none" stroke="black" d="M1239,-88.95C1239,-80.72 1239,-71.85 1239,-63.48"/>
<polygon fill="black" stroke="black" points="1242.5,-63.24 1239,-53.24 1235.5,-63.24 1242.5,-63.24"/>
</g>
<!-- 14 -->
<g id="node15" class="node">
<title>14</title>
<path fill="#ffffff" stroke="black" d="M1506,-53C1506,-53 1356,-53 1356,-53 1350,-53 1344,-47 1344,-41 1344,-41 1344,-12 1344,-12 1344,-6 1350,0 1356,0 1356,0 1506,0 1506,0 1512,0 1518,-6 1518,-12 1518,-12 1518,-41 1518,-41 1518,-47 1512,-53 1506,-53"/>
<text text-anchor="start" x="1352" y="-37.8" font-family="Helvetica,sans-Serif" font-size="14.00">squared_error = 0.011</text>
<text text-anchor="start" x="1378" y="-22.8" font-family="Helvetica,sans-Serif" font-size="14.00">samples = 129</text>
<text text-anchor="start" x="1378.5" y="-7.8" font-family="Helvetica,sans-Serif" font-size="14.00">value = &#45;0.259</text>
</g>
<!-- 12&#45;&gt;14 -->
<g id="edge14" class="edge">
<title>12&#45;&gt;14</title>
<path fill="none" stroke="black" d="M1306.15,-88.95C1326.88,-78.75 1349.58,-67.57 1369.87,-57.59"/>
<polygon fill="black" stroke="black" points="1371.59,-60.64 1379.01,-53.09 1368.5,-54.36 1371.59,-60.64"/>
</g>
</g>
</svg>