<?xml version="1.0" encoding="UTF-8" standalone="no"?>
<!DOCTYPE svg PUBLIC "-//W3C//DTD SVG 1.1//EN"
 "http://www.w3.org/Graphics/SVG/1.1/DTD/svg11.dtd">
<!-- Generated by graphviz version 2.50.0 (0)
 -->
<!-- Title: Tree Pages: 1 -->
<svg width="1509pt" height="373pt"
 viewBox="0.00 0.00 1509.00 373.00" xmlns="http://www.w3.org/2000/svg" xmlns:xlink="http://www.w3.org/1999/xlink">
<g id="graph0" class="graph" transform="scale(1 1) rotate(0) translate(4 369)">
<title>Tree</title>
<polygon fill="white" stroke="transparent" points="-4,4 -4,-369 1505,-369 1505,4 -4,4"/>
<!-- 0 -->
<g id="node1" class="node">
<title>0</title>
<path fill="#eeae80" stroke="black" d="M834,-365C834,-365 684,-365 684,-365 678,-365 672,-359 672,-353 672,-353 672,-309 672,-309 672,-303 678,-297 684,-297 684,-297 834,-297 834,-297 840,-297 846,-303 846,-309 846,-309 846,-353 846,-353 846,-359 840,-365 834,-365"/>
<text text-anchor="start" x="718.5" y="-349.8" font-family="Helvetica,sans-Serif" font-size="14.00">X1 ≤ 0.649</text>
<text text-anchor="start" x="680" y="-334.8" font-family="Helvetica,sans-Serif" font-size="14.00">squared_error = 0.034</text>
<text text-anchor="start" x="701.5" y="-319.8" font-family="Helvetica,sans-Serif" font-size="14.00">samples = 1000</text>
<text text-anchor="start" x="713.5" y="-304.8" font-family="Helvetica,sans-Serif" font-size="14.00">value = 0.03</text>
</g>
<!-- 1 -->
<g id="node2" class="node">
<title>1</title>
<path fill="#e88f4f" stroke="black" d="M642,-261C642,-261 492,-261 492,-261 486,-261 480,-255 480,-249 480,-249 480,-205 480,-205 480,-199 486,-193 492,-193 492,-193 642,-193 642,-193 648,-193 654,-199 654,-205 654,-205 654,-249 654,-249 654,-255 648,-261 642,-261"/>
<text text-anchor="start" x="526.5" y="-245.8" font-family="Helvetica,sans-Serif" font-size="14.00">X2 ≤ 0.222</text>
<text text-anchor="start" x="488" y="-230.8" font-family="Helvetica,sans-Serif" font-size="14.00">squared_error = 0.016</text>
<text text-anchor="start" x="514" y="-215.8" font-family="Helvetica,sans-Serif" font-size="14.00">samples = 659</text>
<text text-anchor="start" x="517" y="-200.8" font-family="Helvetica,sans-Serif" font-size="14.00">value = 0.128</text>
</g>
<!-- 0&#45;&gt;1 -->
<g id="edge1" class="edge">
<title>0&#45;&gt;1</title>
<path fill="none" stroke="black" d="M696.66,-296.88C678.04,-286.99 657.48,-276.07 638.33,-265.9"/>
<polygon fill="black" stroke="black" points="639.83,-262.73 629.35,-261.12 636.54,-268.91 639.83,-262.73"/>
<text text-anchor="middle" x="636.67" y="-281.33" font-family="Helvetica,sans-Serif" font-size="14.00">True</text>
</g>
<!-- 8 -->
<g id="node9" class="node">
<title>8</title>
<path fill="#fbeade" stroke="black" d="M1021,-261C1021,-261 871,-261 871,-261 865,-261 859,-255 859,-249 859,-249 859,-205 859,-205 859,-199 865,-193 871,-193 871,-193 1021,-193 1021,-193 1027,-193 1033,-199 1033,-205 1033,-205 1033,-249 1033,-249 1033,-255 1027,-261 1021,-261"/>
<text text-anchor="start" x="905.5" y="-245.8" font-family="Helvetica,sans-Serif" font-size="14.00">X1 ≤ 0.743</text>
<text text-anchor="start" x="867" y="-230.8" font-family="Helvetica,sans-Serif" font-size="14.00">squared_error = 0.016</text>
<text text-anchor="start" x="893" y="-215.8" font-family="Helvetica,sans-Serif" font-size="14.00">samples = 341</text>
<text text-anchor="start" x="893.5" y="-200.8" font-family="Helvetica,sans-Serif" font-size="14.00">value = &#45;0.159</text>
</g>
<!-- 0&#45;&gt;8 -->
<g id="edge8" class="edge">
<title>0&#45;&gt;8</title>
<path fill="none" stroke="black" d="M819.71,-296.88C837.77,-287.04 857.69,-276.17 876.27,-266.03"/>
<polygon fill="black" stroke="black" points="878.17,-268.99 885.27,-261.12 874.82,-262.84 878.17,-268.99"/>
<text text-anchor="middle" x="878.22" y="-281.41" font-family="Helvetica,sans-Serif" font-size="14.00">False</text>
</g>
<!-- 2 -->
<g id="node3" class="node">
<title>2</title>
<path fill="#edaa79" stroke="black" d="M354,-157C354,-157 204,-157 204,-157 198,-157 192,-151 192,-145 192,-145 192,-101 192,-101 192,-95 198,-89 204,-89 204,-89 354,-89 354,-89 360,-89 366,-95 366,-101 366,-101 366,-145 366,-145 366,-151 360,-157 354,-157"/>
<text text-anchor="start" x="238.5" y="-141.8" font-family="Helvetica,sans-Serif" font-size="14.00">X2 ≤ 0.061</text>
<text text-anchor="start" x="200" y="-126.8" font-family="Helvetica,sans-Serif" font-size="14.00">squared_error = 0.009</text>
<text text-anchor="start" x="226" y="-111.8" font-family="Helvetica,sans-Serif" font-size="14.00">samples = 169</text>
<text text-anchor="start" x="229" y="-96.8" font-family="Helvetica,sans-Serif" font-size="14.00">value = 0.045</text>
</g>
<!-- 1&#45;&gt;2 -->
<g id="edge2" class="edge">
<title>1&#45;&gt;2</title>
<path fill="none" stroke="black" d="M479.81,-195.12C447.11,-183.54 409.76,-170.31 376.21,-158.43"/>
<polygon fill="black" stroke="black" points="376.99,-154.99 366.39,-154.95 374.65,-161.59 376.99,-154.99"/>
</g>
<!-- 5 -->
<g id="node6" class="node">
<title>5</title>
<path fill="#e68641" stroke="black" d="M642,-157C642,-157 492,-157 492,-157 486,-157 480,-151 480,-145 480,-145 480,-101 480,-101 480,-95 486,-89 492,-89 492,-89 642,-89 642,-89 648,-89 654,-95 654,-101 654,-101 654,-145 654,-145 654,-151 648,-157 642,-157"/>
<text text-anchor="start" x="526.5" y="-141.8" font-family="Helvetica,sans-Serif" font-size="14.00">X1 ≤ 0.091</text>
<text text-anchor="start" x="488" y="-126.8" font-family="Helvetica,sans-Serif" font-size="14.00">squared_error = 0.015</text>
<text text-anchor="start" x="514" y="-111.8" font-family="Helvetica,sans-Serif" font-size="14.00">samples = 490</text>
<text text-anchor="start" x="517" y="-96.8" font-family="Helvetica,sans-Serif" font-size="14.00">value = 0.156</text>
</g>
<!-- 1&#45;&gt;5 -->
<g id="edge5" class="edge">
<title>1&#45;&gt;5</title>
<path fill="none" stroke="black" d="M567,-192.88C567,-184.78 567,-175.98 567,-167.47"/>
<polygon fill="black" stroke="black" points="570.5,-167.3 567,-157.3 563.5,-167.3 570.5,-167.3"/>
</g>
<!-- 3 -->
<g id="node4" class="node">
<title>3</title>
<path fill="#f0b88f" stroke="black" d="M162,-53C162,-53 12,-53 12,-53 6,-53 0,-47 0,-41 0,-41 0,-12 0,-12 0,-6 6,0 12,0 12,0 162,0 162,0 168,0 174,-6 174,-12 174,-12 174,-41 174,-41 174,-47 168,-53 162,-53"/>
<text text-anchor="start" x="8" y="-37.8" font-family="Helvetica,sans-Serif" font-size="14.00">squared_error = 0.007</text>
<text text-anchor="start" x="38.5" y="-22.8" font-family="Helvetica,sans-Serif" font-size="14.00">samples = 50</text>
<text text-anchor="start" x="43.5" y="-7.8" font-family="Helvetica,sans-Serif" font-size="14.00">value = &#45;0.0</text>
</g>
<!-- 2&#45;&gt;3 -->
<g id="edge3" class="edge">
<title>2&#45;&gt;3</title>
<path fill="none" stroke="black" d="M211.85,-88.95C191.12,-78.75 168.42,-67.57 148.13,-57.59"/>
<polygon fill="black" stroke="black" points="149.5,-54.36 138.99,-53.09 146.41,-60.64 149.5,-54.36"/>
</g>
<!-- 4 -->
<g id="node5" class="node">
<title>4</title>
<path fill="#eca46f" stroke="black" d="M354,-53C354,-53 204,-53 204,-53 198,-53 192,-47 192,-41 192,-41 192,-12 192,-12 192,-6 198,0 204,0 204,0 354,0 354,0 360,0 366,-6 366,-12 366,-12 366,-41 366,-41 366,-47 360,-53 354,-53"/>
<text text-anchor="start" x="200" y="-37.8" font-family="Helvetica,sans-Serif" font-size="14.00">squared_error = 0.008</text>
<text text-anchor="start" x="226" y="-22.8" font-family="Helvetica,sans-Serif" font-size="14.00">samples = 119</text>
<text text-anchor="start" x="229" y="-7.8" font-family="Helvetica,sans-Serif" font-size="14.00">value = 0.064</text>
</g>
<!-- 2&#45;&gt;4 -->
<g id="edge4" class="edge">
<title>2&#45;&gt;4</title>
<path fill="none" stroke="black" d="M279,-88.95C279,-80.72 279,-71.85 279,-63.48"/>
<polygon fill="black" stroke="black" points="282.5,-63.24 279,-53.24 275.5,-63.24 282.5,-63.24"/>
</g>
<!-- 6 -->
<g id="node7" class="node">
<title>6</title>
<path fill="#eda672" stroke="black" d="M546,-53C546,-53 396,-53 396,-53 390,-53 384,-47 384,-41 384,-41 384,-12 384,-12 384,-6 390,0 396,0 396,0 546,0 546,0 552,0 558,-6 558,-12 558,-12 558,-41 558,-41 558,-47 552,-53 546,-53"/>
<text text-anchor="start" x="392" y="-37.8" font-family="Helvetica,sans-Serif" font-size="14.00">squared_error = 0.011</text>
<text text-anchor="start" x="422.5" y="-22.8" font-family="Helvetica,sans-Serif" font-size="14.00">samples = 67</text>
<text text-anchor="start" x="421" y="-7.8" font-family="Helvetica,sans-Serif" font-size="14.00">value = 0.057</text>
</g>
<!-- 5&#45;&gt;6 -->
<g id="edge6" class="edge">
<title>5&#45;&gt;6</title>
<path fill="none" stroke="black" d="M533.42,-88.95C524.04,-79.71 513.84,-69.67 504.46,-60.44"/>
<polygon fill="black" stroke="black" points="506.73,-57.76 497.15,-53.24 501.82,-62.75 506.73,-57.76"/>
</g>
<!-- 7 -->
<g id="node8" class="node">
<title>7</title>
<path fill="#e58139" stroke="black" d="M738,-53C738,-53 588,-53 588,-53 582,-53 576,-47 576,-41 576,-41 576,-12 576,-12 576,-6 582,0 588,0 588,0 738,0 738,0 744,0 750,-6 750,-12 750,-12 750,-41 750,-41 750,-47 744,-53 738,-53"/>
<text text-anchor="start" x="584" y="-37.8" font-family="Helvetica,sans-Serif" font-size="14.00">squared_error = 0.014</text>
<text text-anchor="start" x="610" y="-22.8" font-family="Helvetica,sans-Serif" font-size="14.00">samples = 423</text>
<text text-anchor="start" x="613" y="-7.8" font-family="Helvetica,sans-Serif" font-size="14.00">value = 0.172</text>
</g>
<!-- 5&#45;&gt;7 -->
<g id="edge7" class="edge">
<title>5&#45;&gt;7</title>
<path fill="none" stroke="black" d="M600.58,-88.95C609.96,-79.71 620.16,-69.67 629.54,-60.44"/>
<polygon fill="black" stroke="black" points="632.18,-62.75 636.85,-53.24 627.27,-57.76 632.18,-62.75"/>
</g>
<!-- 9 -->
<g id="node10" class="node">
<title>9</title>
<path fill="#f4cbad" stroke="black" d="M1016.5,-157C1016.5,-157 875.5,-157 875.5,-157 869.5,-157 863.5,-151 863.5,-145 863.5,-145 863.5,-101 863.5,-101 863.5,-95 869.5,-89 875.5,-89 875.5,-89 1016.5,-89 1016.5,-89 1022.5,-89 1028.5,-95 1028.5,-101 1028.5,-101 1028.5,-145 1028.5,-145 1028.5,-151 1022.5,-157 1016.5,-157"/>
<text text-anchor="start" x="905.5" y="-141.8" font-family="Helvetica,sans-Serif" font-size="14.00">X1 ≤ 0.679</text>
<text text-anchor="start" x="871.5" y="-126.8" font-family="Helvetica,sans-Serif" font-size="14.00">squared_error = 0.01</text>
<text text-anchor="start" x="897.5" y="-111.8" font-family="Helvetica,sans-Serif" font-size="14.00">samples = 82</text>
<text text-anchor="start" x="898" y="-96.8" font-family="Helvetica,sans-Serif" font-size="14.00">value = &#45;0.06</text>
</g>
<!-- 8&#45;&gt;9 -->
<g id="edge9" class="edge">
<title>8&#45;&gt;9</title>
<path fill="none" stroke="black" d="M946,-192.88C946,-184.78 946,-175.98 946,-167.47"/>
<polygon fill="black" stroke="black" points="949.5,-167.3 946,-157.3 942.5,-167.3 949.5,-167.3"/>
</g>
<!-- 12 -->
<g id="node13" class="node">
<title>12</title>
<path fill="#fdf4ee" stroke="black" d="M1301,-157C1301,-157 1151,-157 1151,-157 1145,-157 1139,-151 1139,-145 1139,-145 1139,-101 1139,-101 1139,-95 1145,-89 1151,-89 1151,-89 1301,-89 1301,-89 1307,-89 1313,-95 1313,-101 1313,-101 1313,-145 1313,-145 1313,-151 1307,-157 1301,-157"/>
<text text-anchor="start" x="1185.5" y="-141.8" font-family="Helvetica,sans-Serif" font-size="14.00">X2 ≤ 0.277</text>
<text text-anchor="start" x="1147" y="-126.8" font-family="Helvetica,sans-Serif" font-size="14.00">squared_error = 0.014</text>
<text text-anchor="start" x="1173" y="-111.8" font-family="Helvetica,sans-Serif" font-size="14.00">samples = 259</text>
<text text-anchor="start" x="1178" y="-96.8" font-family="Helvetica,sans-Serif" font-size="14.00">value = &#45;0.19</text>
</g>
<!-- 8&#45;&gt;12 -->
<g id="edge12" class="edge">
<title>8&#45;&gt;12</title>
<path fill="none" stroke="black" d="M1033.06,-194.29C1063.61,-183.16 1098.11,-170.59 1129.4,-159.19"/>
<polygon fill="black" stroke="black" points="1130.8,-162.41 1138.99,-155.69 1128.4,-155.83 1130.8,-162.41"/>
</g>
<!-- 10 -->
<g id="node11" class="node">
<title>10</title>
<path fill="#f2c09c" stroke="black" d="M930,-53C930,-53 780,-53 780,-53 774,-53 768,-47 768,-41 768,-41 768,-12 768,-12 768,-6 774,0 780,0 780,0 930,0 930,0 936,0 942,-6 942,-12 942,-12 942,-41 942,-41 942,-47 936,-53 930,-53"/>
<text text-anchor="start" x="776" y="-37.8" font-family="Helvetica,sans-Serif" font-size="14.00">squared_error = 0.009</text>
<text text-anchor="start" x="806.5" y="-22.8" font-family="Helvetica,sans-Serif" font-size="14.00">samples = 32</text>
<text text-anchor="start" x="802.5" y="-7.8" font-family="Helvetica,sans-Serif" font-size="14.00">value = &#45;0.026</text>
</g>
<!-- 9&#45;&gt;10 -->
<g id="edge10" class="edge">
<title>9&#45;&gt;10</title>
<path fill="none" stroke="black" d="M914.17,-88.95C905.36,-79.8 895.8,-69.87 886.98,-60.71"/>
<polygon fill="black" stroke="black" points="889.24,-58.01 879.78,-53.24 884.2,-62.87 889.24,-58.01"/>
</g>
<!-- 11 -->
<g id="node12" class="node">
<title>11</title>
<path fill="#f6d2b8" stroke="black" d="M1113.5,-53C1113.5,-53 972.5,-53 972.5,-53 966.5,-53 960.5,-47 960.5,-41 960.5,-41 960.5,-12 960.5,-12 960.5,-6 966.5,0 972.5,0 972.5,0 1113.5,0 1113.5,0 1119.5,0 1125.5,-6 1125.5,-12 1125.5,-12 1125.5,-41 1125.5,-41 1125.5,-47 1119.5,-53 1113.5,-53"/>
<text text-anchor="start" x="968.5" y="-37.8" font-family="Helvetica,sans-Serif" font-size="14.00">squared_error = 0.01</text>
<text text-anchor="start" x="994.5" y="-22.8" font-family="Helvetica,sans-Serif" font-size="14.00">samples = 50</text>
<text text-anchor="start" x="990.5" y="-7.8" font-family="Helvetica,sans-Serif" font-size="14.00">value = &#45;0.082</text>
</g>
<!-- 9&#45;&gt;11 -->
<g id="edge11" class="edge">
<title>9&#45;&gt;11</title>
<path fill="none" stroke="black" d="M979.93,-88.95C989.41,-79.71 999.71,-69.67 1009.19,-60.44"/>
<polygon fill="black" stroke="black" points="1011.86,-62.72 1016.58,-53.24 1006.98,-57.71 1011.86,-62.72"/>
</g>
<!-- 13 -->
<g id="node14" class="node">
<title>13</title>
<path fill="#f7d8c2" stroke="black" d="M1296.5,-53C1296.5,-53 1155.5,-53 1155.5,-53 1149.5,-53 1143.5,-47 1143.5,-41 1143.5,-41 1143.5,-12 1143.5,-12 1143.5,-6 1149.5,0 1155.5,0 1155.5,0 1296.5,0 1296.5,0 1302.5,0 1308.5,-6 1308.5,-12 1308.5,-12 1308.5,-41 1308.5,-41 1308.5,-47 1302.5,-53 1296.5,-53"/>
<text text-anchor="start" x="1151.5" y="-37.8" font-family="Helvetica,sans-Serif" font-size="14.00">squared_error = 0.01</text>
<text text-anchor="start" x="1177.5" y="-22.8" font-family="Helvetica,sans-Serif" font-size="14.00">samples = 72</text>
<text text-anchor="start" x="1173.5" y="-7.8" font-family="Helvetica,sans-Serif" font-size="14.00">value = &#45;0.102</text>
</g>
<!-- 12&#45;&gt;13 -->
<g id="edge13" class="edge">
<title>12&#45;&gt;13</title>
<path fill="none" stroke="black" d="M1226,-88.95C1226,-80.72 1226,-71.85 1226,-63.48"/>
<polygon fill="black" stroke="black" points="1229.5,-63.24 1226,-53.24 1222.5,-63.24 1229.5,-63.24"/>
</g>
<!-- 14 -->
<g id="node15" class="node">
<title>14</title>
<path fill="#ffffff" stroke="black" d="M1489,-53C1489,-53 1339,-53 1339,-53 1333,-53 1327,-47 1327,-41 1327,-41 1327,-12 1327,-12 1327,-6 1333,0 1339,0 1339,0 1489,0 1489,0 1495,0 1501,-6 1501,-12 1501,-12 1501,-41 1501,-41 1501,-47 1495,-53 1489,-53"/>
<text text-anchor="start" x="1335" y="-37.8" font-family="Helvetica,sans-Serif" font-size="14.00">squared_error = 0.011</text>
<text text-anchor="start" x="1361" y="-22.8" font-family="Helvetica,sans-Serif" font-size="14.00">samples = 187</text>
<text text-anchor="start" x="1361.5" y="-7.8" font-family="Helvetica,sans-Serif" font-size="14.00">value = &#45;0.224</text>
</g>
<!-- 12&#45;&gt;14 -->
<g id="edge14" class="edge">
<title>12&#45;&gt;14</title>
<path fill="none" stroke="black" d="M1291.75,-88.95C1312.05,-78.75 1334.28,-67.57 1354.15,-57.59"/>
<polygon fill="black" stroke="black" points="1355.73,-60.71 1363.1,-53.09 1352.59,-54.45 1355.73,-60.71"/>
</g>
</g>
</svg>