<?xml version="1.0" encoding="UTF-8" standalone="no"?>
<!DOCTYPE svg PUBLIC "-//W3C//DTD SVG 1.1//EN"
 "http://www.w3.org/Graphics/SVG/1.1/DTD/svg11.dtd">
<!-- Generated by graphviz version 2.50.0 (0)
 -->
<!-- Title: Tree Pages: 1 -->
<svg width="1501pt" height="373pt"
 viewBox="0.00 0.00 1500.50 373.00" xmlns="http://www.w3.org/2000/svg" xmlns:xlink="http://www.w3.org/1999/xlink">
<g id="graph0" class="graph" transform="scale(1 1) rotate(0) translate(4 369)">
<title>Tree</title>
<polygon fill="white" stroke="transparent" points="-4,4 -4,-369 1496.5,-369 1496.5,4 -4,4"/>
<!-- 0 -->
<g id="node1" class="node">
<title>0</title>
<path fill="#f0b48a" stroke="black" d="M816.5,-365C816.5,-365 666.5,-365 666.5,-365 660.5,-365 654.5,-359 654.5,-353 654.5,-353 654.5,-309 654.5,-309 654.5,-303 660.5,-297 666.5,-297 666.5,-297 816.5,-297 816.5,-297 822.5,-297 828.5,-303 828.5,-309 828.5,-309 828.5,-353 828.5,-353 828.5,-359 822.5,-365 816.5,-365"/>
<text text-anchor="start" x="701" y="-349.8" font-family="Helvetica,sans-Serif" font-size="14.00">X1 ≤ 0.625</text>
<text text-anchor="start" x="662.5" y="-334.8" font-family="Helvetica,sans-Serif" font-size="14.00">squared_error = 0.033</text>
<text text-anchor="start" x="684" y="-319.8" font-family="Helvetica,sans-Serif" font-size="14.00">samples = 1000</text>
<text text-anchor="start" x="691.5" y="-304.8" font-family="Helvetica,sans-Serif" font-size="14.00">value = 0.029</text>
</g>
<!-- 1 -->
<g id="node2" class="node">
<title>1</title>
<path fill="#e99456" stroke="black" d="M626.5,-261C626.5,-261 476.5,-261 476.5,-261 470.5,-261 464.5,-255 464.5,-249 464.5,-249 464.5,-205 464.5,-205 464.5,-199 470.5,-193 476.5,-193 476.5,-193 626.5,-193 626.5,-193 632.5,-193 638.5,-199 638.5,-205 638.5,-205 638.5,-249 638.5,-249 638.5,-255 632.5,-261 626.5,-261"/>
<text text-anchor="start" x="511" y="-245.8" font-family="Helvetica,sans-Serif" font-size="14.00">X2 ≤ 0.391</text>
<text text-anchor="start" x="472.5" y="-230.8" font-family="Helvetica,sans-Serif" font-size="14.00">squared_error = 0.016</text>
<text text-anchor="start" x="498.5" y="-215.8" font-family="Helvetica,sans-Serif" font-size="14.00">samples = 619</text>
<text text-anchor="start" x="501.5" y="-200.8" font-family="Helvetica,sans-Serif" font-size="14.00">value = 0.131</text>
</g>
<!-- 0&#45;&gt;1 -->
<g id="edge1" class="edge">
<title>0&#45;&gt;1</title>
<path fill="none" stroke="black" d="M679.81,-296.88C661.38,-286.99 641.04,-276.07 622.09,-265.9"/>
<polygon fill="black" stroke="black" points="623.67,-262.77 613.2,-261.12 620.36,-268.94 623.67,-262.77"/>
<text text-anchor="middle" x="620.42" y="-281.36" font-family="Helvetica,sans-Serif" font-size="14.00">True</text>
</g>
<!-- 8 -->
<g id="node9" class="node">
<title>8</title>
<path fill="#fbeadd" stroke="black" d="M1008.5,-261C1008.5,-261 858.5,-261 858.5,-261 852.5,-261 846.5,-255 846.5,-249 846.5,-249 846.5,-205 846.5,-205 846.5,-199 852.5,-193 858.5,-193 858.5,-193 1008.5,-193 1008.5,-193 1014.5,-193 1020.5,-199 1020.5,-205 1020.5,-205 1020.5,-249 1020.5,-249 1020.5,-255 1014.5,-261 1008.5,-261"/>
<text text-anchor="start" x="897.5" y="-245.8" font-family="Helvetica,sans-Serif" font-size="14.00">X1 ≤ 0.72</text>
<text text-anchor="start" x="854.5" y="-230.8" font-family="Helvetica,sans-Serif" font-size="14.00">squared_error = 0.017</text>
<text text-anchor="start" x="880.5" y="-215.8" font-family="Helvetica,sans-Serif" font-size="14.00">samples = 381</text>
<text text-anchor="start" x="881" y="-200.8" font-family="Helvetica,sans-Serif" font-size="14.00">value = &#45;0.136</text>
</g>
<!-- 0&#45;&gt;8 -->
<g id="edge8" class="edge">
<title>0&#45;&gt;8</title>
<path fill="none" stroke="black" d="M803.84,-296.88C822.46,-286.99 843.02,-276.07 862.17,-265.9"/>
<polygon fill="black" stroke="black" points="863.96,-268.91 871.15,-261.12 860.67,-262.73 863.96,-268.91"/>
<text text-anchor="middle" x="863.83" y="-281.33" font-family="Helvetica,sans-Serif" font-size="14.00">False</text>
</g>
<!-- 2 -->
<g id="node3" class="node">
<title>2</title>
<path fill="#eda674" stroke="black" d="M340.5,-157C340.5,-157 190.5,-157 190.5,-157 184.5,-157 178.5,-151 178.5,-145 178.5,-145 178.5,-101 178.5,-101 178.5,-95 184.5,-89 190.5,-89 190.5,-89 340.5,-89 340.5,-89 346.5,-89 352.5,-95 352.5,-101 352.5,-101 352.5,-145 352.5,-145 352.5,-151 346.5,-157 340.5,-157"/>
<text text-anchor="start" x="225" y="-141.8" font-family="Helvetica,sans-Serif" font-size="14.00">X2 ≤ 0.133</text>
<text text-anchor="start" x="186.5" y="-126.8" font-family="Helvetica,sans-Serif" font-size="14.00">squared_error = 0.011</text>
<text text-anchor="start" x="212.5" y="-111.8" font-family="Helvetica,sans-Serif" font-size="14.00">samples = 239</text>
<text text-anchor="start" x="215.5" y="-96.8" font-family="Helvetica,sans-Serif" font-size="14.00">value = 0.073</text>
</g>
<!-- 1&#45;&gt;2 -->
<g id="edge2" class="edge">
<title>1&#45;&gt;2</title>
<path fill="none" stroke="black" d="M464.14,-194.84C431.99,-183.38 395.4,-170.33 362.46,-158.58"/>
<polygon fill="black" stroke="black" points="363.42,-155.21 352.82,-155.14 361.06,-161.8 363.42,-155.21"/>
</g>
<!-- 5 -->
<g id="node6" class="node">
<title>5</title>
<path fill="#e68844" stroke="black" d="M626.5,-157C626.5,-157 476.5,-157 476.5,-157 470.5,-157 464.5,-151 464.5,-145 464.5,-145 464.5,-101 464.5,-101 464.5,-95 470.5,-89 476.5,-89 476.5,-89 626.5,-89 626.5,-89 632.5,-89 638.5,-95 638.5,-101 638.5,-101 638.5,-145 638.5,-145 638.5,-151 632.5,-157 626.5,-157"/>
<text text-anchor="start" x="511" y="-141.8" font-family="Helvetica,sans-Serif" font-size="14.00">X1 ≤ 0.106</text>
<text text-anchor="start" x="472.5" y="-126.8" font-family="Helvetica,sans-Serif" font-size="14.00">squared_error = 0.015</text>
<text text-anchor="start" x="498.5" y="-111.8" font-family="Helvetica,sans-Serif" font-size="14.00">samples = 380</text>
<text text-anchor="start" x="501.5" y="-96.8" font-family="Helvetica,sans-Serif" font-size="14.00">value = 0.167</text>
</g>
<!-- 1&#45;&gt;5 -->
<g id="edge5" class="edge">
<title>1&#45;&gt;5</title>
<path fill="none" stroke="black" d="M551.5,-192.88C551.5,-184.78 551.5,-175.98 551.5,-167.47"/>
<polygon fill="black" stroke="black" points="555,-167.3 551.5,-157.3 548,-167.3 555,-167.3"/>
</g>
<!-- 3 -->
<g id="node4" class="node">
<title>3</title>
<path fill="#f0b58b" stroke="black" d="M153,-53C153,-53 12,-53 12,-53 6,-53 0,-47 0,-41 0,-41 0,-12 0,-12 0,-6 6,0 12,0 12,0 153,0 153,0 159,0 165,-6 165,-12 165,-12 165,-41 165,-41 165,-47 159,-53 153,-53"/>
<text text-anchor="start" x="8" y="-37.8" font-family="Helvetica,sans-Serif" font-size="14.00">squared_error = 0.01</text>
<text text-anchor="start" x="34" y="-22.8" font-family="Helvetica,sans-Serif" font-size="14.00">samples = 81</text>
<text text-anchor="start" x="32.5" y="-7.8" font-family="Helvetica,sans-Serif" font-size="14.00">value = 0.026</text>
</g>
<!-- 2&#45;&gt;3 -->
<g id="edge3" class="edge">
<title>2&#45;&gt;3</title>
<path fill="none" stroke="black" d="M201.5,-88.95C181.83,-78.79 160.3,-67.67 141.02,-57.72"/>
<polygon fill="black" stroke="black" points="142.54,-54.57 132.05,-53.09 139.33,-60.78 142.54,-54.57"/>
</g>
<!-- 4 -->
<g id="node5" class="node">
<title>4</title>
<path fill="#eb9f68" stroke="black" d="M336,-53C336,-53 195,-53 195,-53 189,-53 183,-47 183,-41 183,-41 183,-12 183,-12 183,-6 189,0 195,0 195,0 336,0 336,0 342,0 348,-6 348,-12 348,-12 348,-41 348,-41 348,-47 342,-53 336,-53"/>
<text text-anchor="start" x="191" y="-37.8" font-family="Helvetica,sans-Serif" font-size="14.00">squared_error = 0.01</text>
<text text-anchor="start" x="212.5" y="-22.8" font-family="Helvetica,sans-Serif" font-size="14.00">samples = 158</text>
<text text-anchor="start" x="215.5" y="-7.8" font-family="Helvetica,sans-Serif" font-size="14.00">value = 0.097</text>
</g>
<!-- 2&#45;&gt;4 -->
<g id="edge4" class="edge">
<title>2&#45;&gt;4</title>
<path fill="none" stroke="black" d="M265.5,-88.95C265.5,-80.72 265.5,-71.85 265.5,-63.48"/>
<polygon fill="black" stroke="black" points="269,-63.24 265.5,-53.24 262,-63.24 269,-63.24"/>
</g>
<!-- 6 -->
<g id="node7" class="node">
<title>6</title>
<path fill="#eda775" stroke="black" d="M528.5,-53C528.5,-53 378.5,-53 378.5,-53 372.5,-53 366.5,-47 366.5,-41 366.5,-41 366.5,-12 366.5,-12 366.5,-6 372.5,0 378.5,0 378.5,0 528.5,0 528.5,0 534.5,0 540.5,-6 540.5,-12 540.5,-12 540.5,-41 540.5,-41 540.5,-47 534.5,-53 528.5,-53"/>
<text text-anchor="start" x="374.5" y="-37.8" font-family="Helvetica,sans-Serif" font-size="14.00">squared_error = 0.008</text>
<text text-anchor="start" x="405" y="-22.8" font-family="Helvetica,sans-Serif" font-size="14.00">samples = 68</text>
<text text-anchor="start" x="403.5" y="-7.8" font-family="Helvetica,sans-Serif" font-size="14.00">value = 0.069</text>
</g>
<!-- 5&#45;&gt;6 -->
<g id="edge6" class="edge">
<title>5&#45;&gt;6</title>
<path fill="none" stroke="black" d="M517.22,-88.95C507.64,-79.71 497.23,-69.67 487.66,-60.44"/>
<polygon fill="black" stroke="black" points="489.82,-57.66 480.19,-53.24 484.96,-62.7 489.82,-57.66"/>
</g>
<!-- 7 -->
<g id="node8" class="node">
<title>7</title>
<path fill="#e58139" stroke="black" d="M720.5,-53C720.5,-53 570.5,-53 570.5,-53 564.5,-53 558.5,-47 558.5,-41 558.5,-41 558.5,-12 558.5,-12 558.5,-6 564.5,0 570.5,0 570.5,0 720.5,0 720.5,0 726.5,0 732.5,-6 732.5,-12 732.5,-12 732.5,-41 732.5,-41 732.5,-47 726.5,-53 720.5,-53"/>
<text text-anchor="start" x="566.5" y="-37.8" font-family="Helvetica,sans-Serif" font-size="14.00">squared_error = 0.014</text>
<text text-anchor="start" x="592.5" y="-22.8" font-family="Helvetica,sans-Serif" font-size="14.00">samples = 312</text>
<text text-anchor="start" x="595.5" y="-7.8" font-family="Helvetica,sans-Serif" font-size="14.00">value = 0.189</text>
</g>
<!-- 5&#45;&gt;7 -->
<g id="edge7" class="edge">
<title>5&#45;&gt;7</title>
<path fill="none" stroke="black" d="M584.38,-88.95C593.57,-79.71 603.55,-69.67 612.74,-60.44"/>
<polygon fill="black" stroke="black" points="615.33,-62.79 619.9,-53.24 610.37,-57.86 615.33,-62.79"/>
</g>
<!-- 9 -->
<g id="node10" class="node">
<title>9</title>
<path fill="#f5cdb1" stroke="black" d="M1004,-157C1004,-157 863,-157 863,-157 857,-157 851,-151 851,-145 851,-145 851,-101 851,-101 851,-95 857,-89 863,-89 863,-89 1004,-89 1004,-89 1010,-89 1016,-95 1016,-101 1016,-101 1016,-145 1016,-145 1016,-151 1010,-157 1004,-157"/>
<text text-anchor="start" x="893" y="-141.8" font-family="Helvetica,sans-Serif" font-size="14.00">X1 ≤ 0.683</text>
<text text-anchor="start" x="859" y="-126.8" font-family="Helvetica,sans-Serif" font-size="14.00">squared_error = 0.01</text>
<text text-anchor="start" x="880.5" y="-111.8" font-family="Helvetica,sans-Serif" font-size="14.00">samples = 101</text>
<text text-anchor="start" x="881" y="-96.8" font-family="Helvetica,sans-Serif" font-size="14.00">value = &#45;0.047</text>
</g>
<!-- 8&#45;&gt;9 -->
<g id="edge9" class="edge">
<title>8&#45;&gt;9</title>
<path fill="none" stroke="black" d="M933.5,-192.88C933.5,-184.78 933.5,-175.98 933.5,-167.47"/>
<polygon fill="black" stroke="black" points="937,-167.3 933.5,-157.3 930,-167.3 937,-167.3"/>
</g>
<!-- 12 -->
<g id="node13" class="node">
<title>12</title>
<path fill="#fdf4ee" stroke="black" d="M1292.5,-157C1292.5,-157 1142.5,-157 1142.5,-157 1136.5,-157 1130.5,-151 1130.5,-145 1130.5,-145 1130.5,-101 1130.5,-101 1130.5,-95 1136.5,-89 1142.5,-89 1142.5,-89 1292.5,-89 1292.5,-89 1298.5,-89 1304.5,-95 1304.5,-101 1304.5,-101 1304.5,-145 1304.5,-145 1304.5,-151 1298.5,-157 1292.5,-157"/>
<text text-anchor="start" x="1181.5" y="-141.8" font-family="Helvetica,sans-Serif" font-size="14.00">X2 ≤ 0.25</text>
<text text-anchor="start" x="1138.5" y="-126.8" font-family="Helvetica,sans-Serif" font-size="14.00">squared_error = 0.016</text>
<text text-anchor="start" x="1164.5" y="-111.8" font-family="Helvetica,sans-Serif" font-size="14.00">samples = 280</text>
<text text-anchor="start" x="1165" y="-96.8" font-family="Helvetica,sans-Serif" font-size="14.00">value = &#45;0.168</text>
</g>
<!-- 8&#45;&gt;12 -->
<g id="edge12" class="edge">
<title>8&#45;&gt;12</title>
<path fill="none" stroke="black" d="M1020.64,-194.7C1052.25,-183.35 1088.15,-170.46 1120.55,-158.82"/>
<polygon fill="black" stroke="black" points="1121.81,-162.09 1130.04,-155.41 1119.44,-155.5 1121.81,-162.09"/>
</g>
<!-- 10 -->
<g id="node11" class="node">
<title>10</title>
<path fill="#f3c7a6" stroke="black" d="M912.5,-53C912.5,-53 762.5,-53 762.5,-53 756.5,-53 750.5,-47 750.5,-41 750.5,-41 750.5,-12 750.5,-12 750.5,-6 756.5,0 762.5,0 762.5,0 912.5,0 912.5,0 918.5,0 924.5,-6 924.5,-12 924.5,-12 924.5,-41 924.5,-41 924.5,-47 918.5,-53 912.5,-53"/>
<text text-anchor="start" x="758.5" y="-37.8" font-family="Helvetica,sans-Serif" font-size="14.00">squared_error = 0.009</text>
<text text-anchor="start" x="789" y="-22.8" font-family="Helvetica,sans-Serif" font-size="14.00">samples = 57</text>
<text text-anchor="start" x="785" y="-7.8" font-family="Helvetica,sans-Serif" font-size="14.00">value = &#45;0.027</text>
</g>
<!-- 9&#45;&gt;10 -->
<g id="edge10" class="edge">
<title>9&#45;&gt;10</title>
<path fill="none" stroke="black" d="M899.92,-88.95C890.54,-79.71 880.34,-69.67 870.96,-60.44"/>
<polygon fill="black" stroke="black" points="873.23,-57.76 863.65,-53.24 868.32,-62.75 873.23,-57.76"/>
</g>
<!-- 11 -->
<g id="node12" class="node">
<title>11</title>
<path fill="#f6d5be" stroke="black" d="M1104.5,-53C1104.5,-53 954.5,-53 954.5,-53 948.5,-53 942.5,-47 942.5,-41 942.5,-41 942.5,-12 942.5,-12 942.5,-6 948.5,0 954.5,0 954.5,0 1104.5,0 1104.5,0 1110.5,0 1116.5,-6 1116.5,-12 1116.5,-12 1116.5,-41 1116.5,-41 1116.5,-47 1110.5,-53 1104.5,-53"/>
<text text-anchor="start" x="950.5" y="-37.8" font-family="Helvetica,sans-Serif" font-size="14.00">squared_error = 0.011</text>
<text text-anchor="start" x="981" y="-22.8" font-family="Helvetica,sans-Serif" font-size="14.00">samples = 44</text>
<text text-anchor="start" x="977" y="-7.8" font-family="Helvetica,sans-Serif" font-size="14.00">value = &#45;0.073</text>
</g>
<!-- 9&#45;&gt;11 -->
<g id="edge11" class="edge">
<title>9&#45;&gt;11</title>
<path fill="none" stroke="black" d="M967.08,-88.95C976.46,-79.71 986.66,-69.67 996.04,-60.44"/>
<polygon fill="black" stroke="black" points="998.68,-62.75 1003.35,-53.24 993.77,-57.76 998.68,-62.75"/>
</g>
<!-- 13 -->
<g id="node14" class="node">
<title>13</title>
<path fill="#f7d7c0" stroke="black" d="M1288,-53C1288,-53 1147,-53 1147,-53 1141,-53 1135,-47 1135,-41 1135,-41 1135,-12 1135,-12 1135,-6 1141,0 1147,0 1147,0 1288,0 1288,0 1294,0 1300,-6 1300,-12 1300,-12 1300,-41 1300,-41 1300,-47 1294,-53 1288,-53"/>
<text text-anchor="start" x="1143" y="-37.8" font-family="Helvetica,sans-Serif" font-size="14.00">squared_error = 0.01</text>
<text text-anchor="start" x="1169" y="-22.8" font-family="Helvetica,sans-Serif" font-size="14.00">samples = 77</text>
<text text-anchor="start" x="1165" y="-7.8" font-family="Helvetica,sans-Serif" font-size="14.00">value = &#45;0.078</text>
</g>
<!-- 12&#45;&gt;13 -->
<g id="edge13" class="edge">
<title>12&#45;&gt;13</title>
<path fill="none" stroke="black" d="M1217.5,-88.95C1217.5,-80.72 1217.5,-71.85 1217.5,-63.48"/>
<polygon fill="black" stroke="black" points="1221,-63.24 1217.5,-53.24 1214,-63.24 1221,-63.24"/>
</g>
<!-- 14 -->
<g id="node15" class="node">
<title>14</title>
<path fill="#ffffff" stroke="black" d="M1480.5,-53C1480.5,-53 1330.5,-53 1330.5,-53 1324.5,-53 1318.5,-47 1318.5,-41 1318.5,-41 1318.5,-12 1318.5,-12 1318.5,-6 1324.5,0 1330.5,0 1330.5,0 1480.5,0 1480.5,0 1486.5,0 1492.5,-6 1492.5,-12 1492.5,-12 1492.5,-41 1492.5,-41 1492.5,-47 1486.5,-53 1480.5,-53"/>
<text text-anchor="start" x="1326.5" y="-37.8" font-family="Helvetica,sans-Serif" font-size="14.00">squared_error = 0.013</text>
<text text-anchor="start" x="1352.5" y="-22.8" font-family="Helvetica,sans-Serif" font-size="14.00">samples = 203</text>
<text text-anchor="start" x="1353" y="-7.8" font-family="Helvetica,sans-Serif" font-size="14.00">value = &#45;0.202</text>
</g>
<!-- 12&#45;&gt;14 -->
<g id="edge14" class="edge">
<title>12&#45;&gt;14</title>
<path fill="none" stroke="black" d="M1283.25,-88.95C1303.55,-78.75 1325.78,-67.57 1345.65,-57.59"/>
<polygon fill="black" stroke="black" points="1347.23,-60.71 1354.6,-53.09 1344.09,-54.45 1347.23,-60.71"/>
</g>
</g>
</svg>