<?xml version="1.0" encoding="UTF-8" standalone="no"?>
<!DOCTYPE svg PUBLIC "-//W3C//DTD SVG 1.1//EN"
 "http://www.w3.org/Graphics/SVG/1.1/DTD/svg11.dtd">
<!-- Generated by graphviz version 2.50.0 (0)
 -->
<!-- Title: Tree Pages: 1 -->
<svg width="1510pt" height="373pt"
 viewBox="0.00 0.00 1509.50 373.00" xmlns="http://www.w3.org/2000/svg" xmlns:xlink="http://www.w3.org/1999/xlink">
<g id="graph0" class="graph" transform="scale(1 1) rotate(0) translate(4 369)">
<title>Tree</title>
<polygon fill="white" stroke="transparent" points="-4,4 -4,-369 1505.5,-369 1505.5,4 -4,4"/>
<!-- 0 -->
<g id="node1" class="node">
<title>0</title>
<path fill="#efb387" stroke="black" d="M830,-365C830,-365 680,-365 680,-365 674,-365 668,-359 668,-353 668,-353 668,-309 668,-309 668,-303 674,-297 680,-297 680,-297 830,-297 830,-297 836,-297 842,-303 842,-309 842,-309 842,-353 842,-353 842,-359 836,-365 830,-365"/>
<text text-anchor="start" x="714.5" y="-349.8" font-family="Helvetica,sans-Serif" font-size="14.00">X1 ≤ 0.649</text>
<text text-anchor="start" x="676" y="-334.8" font-family="Helvetica,sans-Serif" font-size="14.00">squared_error = 0.036</text>
<text text-anchor="start" x="697.5" y="-319.8" font-family="Helvetica,sans-Serif" font-size="14.00">samples = 1000</text>
<text text-anchor="start" x="705" y="-304.8" font-family="Helvetica,sans-Serif" font-size="14.00">value = 0.026</text>
</g>
<!-- 1 -->
<g id="node2" class="node">
<title>1</title>
<path fill="#e99457" stroke="black" d="M640,-261C640,-261 490,-261 490,-261 484,-261 478,-255 478,-249 478,-249 478,-205 478,-205 478,-199 484,-193 490,-193 490,-193 640,-193 640,-193 646,-193 652,-199 652,-205 652,-205 652,-249 652,-249 652,-255 646,-261 640,-261"/>
<text text-anchor="start" x="524.5" y="-245.8" font-family="Helvetica,sans-Serif" font-size="14.00">X1 ≤ 0.523</text>
<text text-anchor="start" x="486" y="-230.8" font-family="Helvetica,sans-Serif" font-size="14.00">squared_error = 0.016</text>
<text text-anchor="start" x="512" y="-215.8" font-family="Helvetica,sans-Serif" font-size="14.00">samples = 642</text>
<text text-anchor="start" x="519.5" y="-200.8" font-family="Helvetica,sans-Serif" font-size="14.00">value = 0.13</text>
</g>
<!-- 0&#45;&gt;1 -->
<g id="edge1" class="edge">
<title>0&#45;&gt;1</title>
<path fill="none" stroke="black" d="M693.31,-296.88C674.88,-286.99 654.54,-276.07 635.59,-265.9"/>
<polygon fill="black" stroke="black" points="637.17,-262.77 626.7,-261.12 633.86,-268.94 637.17,-262.77"/>
<text text-anchor="middle" x="633.92" y="-281.36" font-family="Helvetica,sans-Serif" font-size="14.00">True</text>
</g>
<!-- 8 -->
<g id="node9" class="node">
<title>8</title>
<path fill="#fae9dc" stroke="black" d="M1020,-261C1020,-261 870,-261 870,-261 864,-261 858,-255 858,-249 858,-249 858,-205 858,-205 858,-199 864,-193 870,-193 870,-193 1020,-193 1020,-193 1026,-193 1032,-199 1032,-205 1032,-205 1032,-249 1032,-249 1032,-255 1026,-261 1020,-261"/>
<text text-anchor="start" x="904.5" y="-245.8" font-family="Helvetica,sans-Serif" font-size="14.00">X1 ≤ 0.794</text>
<text text-anchor="start" x="866" y="-230.8" font-family="Helvetica,sans-Serif" font-size="14.00">squared_error = 0.016</text>
<text text-anchor="start" x="892" y="-215.8" font-family="Helvetica,sans-Serif" font-size="14.00">samples = 358</text>
<text text-anchor="start" x="897" y="-200.8" font-family="Helvetica,sans-Serif" font-size="14.00">value = &#45;0.16</text>
</g>
<!-- 0&#45;&gt;8 -->
<g id="edge8" class="edge">
<title>0&#45;&gt;8</title>
<path fill="none" stroke="black" d="M816.69,-296.88C835.12,-286.99 855.46,-276.07 874.41,-265.9"/>
<polygon fill="black" stroke="black" points="876.14,-268.94 883.3,-261.12 872.83,-262.77 876.14,-268.94"/>
<text text-anchor="middle" x="876.08" y="-281.36" font-family="Helvetica,sans-Serif" font-size="14.00">False</text>
</g>
<!-- 2 -->
<g id="node3" class="node">
<title>2</title>
<path fill="#e88e4d" stroke="black" d="M354,-157C354,-157 204,-157 204,-157 198,-157 192,-151 192,-145 192,-145 192,-101 192,-101 192,-95 198,-89 204,-89 204,-89 354,-89 354,-89 360,-89 366,-95 366,-101 366,-101 366,-145 366,-145 366,-151 360,-157 354,-157"/>
<text text-anchor="start" x="238.5" y="-141.8" font-family="Helvetica,sans-Serif" font-size="14.00">X1 ≤ 0.195</text>
<text text-anchor="start" x="200" y="-126.8" font-family="Helvetica,sans-Serif" font-size="14.00">squared_error = 0.016</text>
<text text-anchor="start" x="226" y="-111.8" font-family="Helvetica,sans-Serif" font-size="14.00">samples = 510</text>
<text text-anchor="start" x="229" y="-96.8" font-family="Helvetica,sans-Serif" font-size="14.00">value = 0.152</text>
</g>
<!-- 1&#45;&gt;2 -->
<g id="edge2" class="edge">
<title>1&#45;&gt;2</title>
<path fill="none" stroke="black" d="M477.64,-194.84C445.49,-183.38 408.9,-170.33 375.96,-158.58"/>
<polygon fill="black" stroke="black" points="376.92,-155.21 366.32,-155.14 374.56,-161.8 376.92,-155.21"/>
</g>
<!-- 5 -->
<g id="node6" class="node">
<title>5</title>
<path fill="#eead7e" stroke="black" d="M640,-157C640,-157 490,-157 490,-157 484,-157 478,-151 478,-145 478,-145 478,-101 478,-101 478,-95 484,-89 490,-89 490,-89 640,-89 640,-89 646,-89 652,-95 652,-101 652,-101 652,-145 652,-145 652,-151 646,-157 640,-157"/>
<text text-anchor="start" x="524.5" y="-141.8" font-family="Helvetica,sans-Serif" font-size="14.00">X2 ≤ 0.712</text>
<text text-anchor="start" x="486" y="-126.8" font-family="Helvetica,sans-Serif" font-size="14.00">squared_error = 0.009</text>
<text text-anchor="start" x="512" y="-111.8" font-family="Helvetica,sans-Serif" font-size="14.00">samples = 132</text>
<text text-anchor="start" x="515" y="-96.8" font-family="Helvetica,sans-Serif" font-size="14.00">value = 0.046</text>
</g>
<!-- 1&#45;&gt;5 -->
<g id="edge5" class="edge">
<title>1&#45;&gt;5</title>
<path fill="none" stroke="black" d="M565,-192.88C565,-184.78 565,-175.98 565,-167.47"/>
<polygon fill="black" stroke="black" points="568.5,-167.3 565,-157.3 561.5,-167.3 568.5,-167.3"/>
</g>
<!-- 3 -->
<g id="node4" class="node">
<title>3</title>
<path fill="#eca26d" stroke="black" d="M162,-53C162,-53 12,-53 12,-53 6,-53 0,-47 0,-41 0,-41 0,-12 0,-12 0,-6 6,0 12,0 12,0 162,0 162,0 168,0 174,-6 174,-12 174,-12 174,-41 174,-41 174,-47 168,-53 162,-53"/>
<text text-anchor="start" x="8" y="-37.8" font-family="Helvetica,sans-Serif" font-size="14.00">squared_error = 0.012</text>
<text text-anchor="start" x="34" y="-22.8" font-family="Helvetica,sans-Serif" font-size="14.00">samples = 202</text>
<text text-anchor="start" x="37" y="-7.8" font-family="Helvetica,sans-Serif" font-size="14.00">value = 0.084</text>
</g>
<!-- 2&#45;&gt;3 -->
<g id="edge3" class="edge">
<title>2&#45;&gt;3</title>
<path fill="none" stroke="black" d="M211.85,-88.95C191.12,-78.75 168.42,-67.57 148.13,-57.59"/>
<polygon fill="black" stroke="black" points="149.5,-54.36 138.99,-53.09 146.41,-60.64 149.5,-54.36"/>
</g>
<!-- 4 -->
<g id="node5" class="node">
<title>4</title>
<path fill="#e58139" stroke="black" d="M354,-53C354,-53 204,-53 204,-53 198,-53 192,-47 192,-41 192,-41 192,-12 192,-12 192,-6 198,0 204,0 204,0 354,0 354,0 360,0 366,-6 366,-12 366,-12 366,-41 366,-41 366,-47 360,-53 354,-53"/>
<text text-anchor="start" x="200" y="-37.8" font-family="Helvetica,sans-Serif" font-size="14.00">squared_error = 0.013</text>
<text text-anchor="start" x="226" y="-22.8" font-family="Helvetica,sans-Serif" font-size="14.00">samples = 308</text>
<text text-anchor="start" x="229" y="-7.8" font-family="Helvetica,sans-Serif" font-size="14.00">value = 0.197</text>
</g>
<!-- 2&#45;&gt;4 -->
<g id="edge4" class="edge">
<title>2&#45;&gt;4</title>
<path fill="none" stroke="black" d="M279,-88.95C279,-80.72 279,-71.85 279,-63.48"/>
<polygon fill="black" stroke="black" points="282.5,-63.24 279,-53.24 275.5,-63.24 282.5,-63.24"/>
</g>
<!-- 6 -->
<g id="node7" class="node">
<title>6</title>
<path fill="#efb184" stroke="black" d="M546,-53C546,-53 396,-53 396,-53 390,-53 384,-47 384,-41 384,-41 384,-12 384,-12 384,-6 390,0 396,0 396,0 546,0 546,0 552,0 558,-6 558,-12 558,-12 558,-41 558,-41 558,-47 552,-53 546,-53"/>
<text text-anchor="start" x="392" y="-37.8" font-family="Helvetica,sans-Serif" font-size="14.00">squared_error = 0.009</text>
<text text-anchor="start" x="422.5" y="-22.8" font-family="Helvetica,sans-Serif" font-size="14.00">samples = 92</text>
<text text-anchor="start" x="421" y="-7.8" font-family="Helvetica,sans-Serif" font-size="14.00">value = 0.033</text>
</g>
<!-- 5&#45;&gt;6 -->
<g id="edge6" class="edge">
<title>5&#45;&gt;6</title>
<path fill="none" stroke="black" d="M532.12,-88.95C522.93,-79.71 512.95,-69.67 503.76,-60.44"/>
<polygon fill="black" stroke="black" points="506.13,-57.86 496.6,-53.24 501.17,-62.79 506.13,-57.86"/>
</g>
<!-- 7 -->
<g id="node8" class="node">
<title>7</title>
<path fill="#eca470" stroke="black" d="M738,-53C738,-53 588,-53 588,-53 582,-53 576,-47 576,-41 576,-41 576,-12 576,-12 576,-6 582,0 588,0 588,0 738,0 738,0 744,0 750,-6 750,-12 750,-12 750,-41 750,-41 750,-47 744,-53 738,-53"/>
<text text-anchor="start" x="584" y="-37.8" font-family="Helvetica,sans-Serif" font-size="14.00">squared_error = 0.009</text>
<text text-anchor="start" x="614.5" y="-22.8" font-family="Helvetica,sans-Serif" font-size="14.00">samples = 40</text>
<text text-anchor="start" x="613" y="-7.8" font-family="Helvetica,sans-Serif" font-size="14.00">value = 0.076</text>
</g>
<!-- 5&#45;&gt;7 -->
<g id="edge7" class="edge">
<title>5&#45;&gt;7</title>
<path fill="none" stroke="black" d="M599.28,-88.95C608.86,-79.71 619.27,-69.67 628.84,-60.44"/>
<polygon fill="black" stroke="black" points="631.54,-62.7 636.31,-53.24 626.68,-57.66 631.54,-62.7"/>
</g>
<!-- 9 -->
<g id="node10" class="node">
<title>9</title>
<path fill="#f6d2b8" stroke="black" d="M1020,-157C1020,-157 870,-157 870,-157 864,-157 858,-151 858,-145 858,-145 858,-101 858,-101 858,-95 864,-89 870,-89 870,-89 1020,-89 1020,-89 1026,-89 1032,-95 1032,-101 1032,-101 1032,-145 1032,-145 1032,-151 1026,-157 1020,-157"/>
<text text-anchor="start" x="904.5" y="-141.8" font-family="Helvetica,sans-Serif" font-size="14.00">X2 ≤ 0.305</text>
<text text-anchor="start" x="866" y="-126.8" font-family="Helvetica,sans-Serif" font-size="14.00">squared_error = 0.009</text>
<text text-anchor="start" x="892" y="-111.8" font-family="Helvetica,sans-Serif" font-size="14.00">samples = 139</text>
<text text-anchor="start" x="892.5" y="-96.8" font-family="Helvetica,sans-Serif" font-size="14.00">value = &#45;0.081</text>
</g>
<!-- 8&#45;&gt;9 -->
<g id="edge9" class="edge">
<title>8&#45;&gt;9</title>
<path fill="none" stroke="black" d="M945,-192.88C945,-184.78 945,-175.98 945,-167.47"/>
<polygon fill="black" stroke="black" points="948.5,-167.3 945,-157.3 941.5,-167.3 948.5,-167.3"/>
</g>
<!-- 12 -->
<g id="node13" class="node">
<title>12</title>
<path fill="#fdf7f3" stroke="black" d="M1306,-157C1306,-157 1156,-157 1156,-157 1150,-157 1144,-151 1144,-145 1144,-145 1144,-101 1144,-101 1144,-95 1150,-89 1156,-89 1156,-89 1306,-89 1306,-89 1312,-89 1318,-95 1318,-101 1318,-101 1318,-145 1318,-145 1318,-151 1312,-157 1306,-157"/>
<text text-anchor="start" x="1190.5" y="-141.8" font-family="Helvetica,sans-Serif" font-size="14.00">X2 ≤ 0.212</text>
<text text-anchor="start" x="1152" y="-126.8" font-family="Helvetica,sans-Serif" font-size="14.00">squared_error = 0.013</text>
<text text-anchor="start" x="1178" y="-111.8" font-family="Helvetica,sans-Serif" font-size="14.00">samples = 219</text>
<text text-anchor="start" x="1183" y="-96.8" font-family="Helvetica,sans-Serif" font-size="14.00">value = &#45;0.21</text>
</g>
<!-- 8&#45;&gt;12 -->
<g id="edge12" class="edge">
<title>8&#45;&gt;12</title>
<path fill="none" stroke="black" d="M1032.36,-194.84C1064.51,-183.38 1101.1,-170.33 1134.04,-158.58"/>
<polygon fill="black" stroke="black" points="1135.44,-161.8 1143.68,-155.14 1133.08,-155.21 1135.44,-161.8"/>
</g>
<!-- 10 -->
<g id="node11" class="node">
<title>10</title>
<path fill="#f3c5a4" stroke="black" d="M921.5,-53C921.5,-53 780.5,-53 780.5,-53 774.5,-53 768.5,-47 768.5,-41 768.5,-41 768.5,-12 768.5,-12 768.5,-6 774.5,0 780.5,0 780.5,0 921.5,0 921.5,0 927.5,0 933.5,-6 933.5,-12 933.5,-12 933.5,-41 933.5,-41 933.5,-47 927.5,-53 921.5,-53"/>
<text text-anchor="start" x="776.5" y="-37.8" font-family="Helvetica,sans-Serif" font-size="14.00">squared_error = 0.01</text>
<text text-anchor="start" x="802.5" y="-22.8" font-family="Helvetica,sans-Serif" font-size="14.00">samples = 45</text>
<text text-anchor="start" x="798.5" y="-7.8" font-family="Helvetica,sans-Serif" font-size="14.00">value = &#45;0.037</text>
</g>
<!-- 9&#45;&gt;10 -->
<g id="edge10" class="edge">
<title>9&#45;&gt;10</title>
<path fill="none" stroke="black" d="M912.12,-88.95C902.93,-79.71 892.95,-69.67 883.76,-60.44"/>
<polygon fill="black" stroke="black" points="886.13,-57.86 876.6,-53.24 881.17,-62.79 886.13,-57.86"/>
</g>
<!-- 11 -->
<g id="node12" class="node">
<title>11</title>
<path fill="#f7d8c2" stroke="black" d="M1114,-53C1114,-53 964,-53 964,-53 958,-53 952,-47 952,-41 952,-41 952,-12 952,-12 952,-6 958,0 964,0 964,0 1114,0 1114,0 1120,0 1126,-6 1126,-12 1126,-12 1126,-41 1126,-41 1126,-47 1120,-53 1114,-53"/>
<text text-anchor="start" x="960" y="-37.8" font-family="Helvetica,sans-Serif" font-size="14.00">squared_error = 0.008</text>
<text text-anchor="start" x="990.5" y="-22.8" font-family="Helvetica,sans-Serif" font-size="14.00">samples = 94</text>
<text text-anchor="start" x="986.5" y="-7.8" font-family="Helvetica,sans-Serif" font-size="14.00">value = &#45;0.102</text>
</g>
<!-- 9&#45;&gt;11 -->
<g id="edge11" class="edge">
<title>9&#45;&gt;11</title>
<path fill="none" stroke="black" d="M977.88,-88.95C987.07,-79.71 997.05,-69.67 1006.24,-60.44"/>
<polygon fill="black" stroke="black" points="1008.83,-62.79 1013.4,-53.24 1003.87,-57.86 1008.83,-62.79"/>
</g>
<!-- 13 -->
<g id="node14" class="node">
<title>13</title>
<path fill="#f6d1b7" stroke="black" d="M1306,-53C1306,-53 1156,-53 1156,-53 1150,-53 1144,-47 1144,-41 1144,-41 1144,-12 1144,-12 1144,-6 1150,0 1156,0 1156,0 1306,0 1306,0 1312,0 1318,-6 1318,-12 1318,-12 1318,-41 1318,-41 1318,-47 1312,-53 1306,-53"/>
<text text-anchor="start" x="1152" y="-37.8" font-family="Helvetica,sans-Serif" font-size="14.00">squared_error = 0.011</text>
<text text-anchor="start" x="1182.5" y="-22.8" font-family="Helvetica,sans-Serif" font-size="14.00">samples = 37</text>
<text text-anchor="start" x="1178.5" y="-7.8" font-family="Helvetica,sans-Serif" font-size="14.00">value = &#45;0.079</text>
</g>
<!-- 12&#45;&gt;13 -->
<g id="edge13" class="edge">
<title>12&#45;&gt;13</title>
<path fill="none" stroke="black" d="M1231,-88.95C1231,-80.72 1231,-71.85 1231,-63.48"/>
<polygon fill="black" stroke="black" points="1234.5,-63.24 1231,-53.24 1227.5,-63.24 1234.5,-63.24"/>
</g>
<!-- 14 -->
<g id="node15" class="node">
<title>14</title>
<path fill="#ffffff" stroke="black" d="M1489.5,-53C1489.5,-53 1348.5,-53 1348.5,-53 1342.5,-53 1336.5,-47 1336.5,-41 1336.5,-41 1336.5,-12 1336.5,-12 1336.5,-6 1342.5,0 1348.5,0 1348.5,0 1489.5,0 1489.5,0 1495.5,0 1501.5,-6 1501.5,-12 1501.5,-12 1501.5,-41 1501.5,-41 1501.5,-47 1495.5,-53 1489.5,-53"/>
<text text-anchor="start" x="1344.5" y="-37.8" font-family="Helvetica,sans-Serif" font-size="14.00">squared_error = 0.01</text>
<text text-anchor="start" x="1366" y="-22.8" font-family="Helvetica,sans-Serif" font-size="14.00">samples = 182</text>
<text text-anchor="start" x="1366.5" y="-7.8" font-family="Helvetica,sans-Serif" font-size="14.00">value = &#45;0.237</text>
</g>
<!-- 12&#45;&gt;14 -->
<g id="edge14" class="edge">
<title>12&#45;&gt;14</title>
<path fill="none" stroke="black" d="M1296.75,-88.95C1317.05,-78.75 1339.28,-67.57 1359.15,-57.59"/>
<polygon fill="black" stroke="black" points="1360.73,-60.71 1368.1,-53.09 1357.59,-54.45 1360.73,-60.71"/>
</g>
</g>
</svg>