<?xml version="1.0" encoding="UTF-8" standalone="no"?>
<!DOCTYPE svg PUBLIC "-//W3C//DTD SVG 1.1//EN"
 "http://www.w3.org/Graphics/SVG/1.1/DTD/svg11.dtd">
<!-- Generated by graphviz version 2.50.0 (0)
 -->
<!-- Title: Tree Pages: 1 -->
<svg width="1510pt" height="373pt"
 viewBox="0.00 0.00 1510.00 373.00" xmlns="http://www.w3.org/2000/svg" xmlns:xlink="http://www.w3.org/1999/xlink">
<g id="graph0" class="graph" transform="scale(1 1) rotate(0) translate(4 369)">
<title>Tree</title>
<polygon fill="white" stroke="transparent" points="-4,4 -4,-369 1506,-369 1506,4 -4,4"/>
<!-- 0 -->
<g id="node1" class="node">
<title>0</title>
<path fill="#eeaf81" stroke="black" d="M826,-365C826,-365 676,-365 676,-365 670,-365 664,-359 664,-353 664,-353 664,-309 664,-309 664,-303 670,-297 676,-297 676,-297 826,-297 826,-297 832,-297 838,-303 838,-309 838,-309 838,-353 838,-353 838,-359 832,-365 826,-365"/>
<text text-anchor="start" x="710.5" y="-349.8" font-family="Helvetica,sans-Serif" font-size="14.00">X1 ≤ 0.661</text>
<text text-anchor="start" x="672" y="-334.8" font-family="Helvetica,sans-Serif" font-size="14.00">squared_error = 0.036</text>
<text text-anchor="start" x="693.5" y="-319.8" font-family="Helvetica,sans-Serif" font-size="14.00">samples = 1000</text>
<text text-anchor="start" x="701" y="-304.8" font-family="Helvetica,sans-Serif" font-size="14.00">value = 0.029</text>
</g>
<!-- 1 -->
<g id="node2" class="node">
<title>1</title>
<path fill="#e99558" stroke="black" d="M638,-261C638,-261 488,-261 488,-261 482,-261 476,-255 476,-249 476,-249 476,-205 476,-205 476,-199 482,-193 488,-193 488,-193 638,-193 638,-193 644,-193 650,-199 650,-205 650,-205 650,-249 650,-249 650,-255 644,-261 638,-261"/>
<text text-anchor="start" x="522.5" y="-245.8" font-family="Helvetica,sans-Serif" font-size="14.00">X1 ≤ 0.504</text>
<text text-anchor="start" x="484" y="-230.8" font-family="Helvetica,sans-Serif" font-size="14.00">squared_error = 0.018</text>
<text text-anchor="start" x="510" y="-215.8" font-family="Helvetica,sans-Serif" font-size="14.00">samples = 678</text>
<text text-anchor="start" x="513" y="-200.8" font-family="Helvetica,sans-Serif" font-size="14.00">value = 0.123</text>
</g>
<!-- 0&#45;&gt;1 -->
<g id="edge1" class="edge">
<title>0&#45;&gt;1</title>
<path fill="none" stroke="black" d="M689.96,-296.88C671.73,-286.99 651.6,-276.07 632.85,-265.9"/>
<polygon fill="black" stroke="black" points="634.51,-262.82 624.05,-261.12 631.17,-268.97 634.51,-262.82"/>
<text text-anchor="middle" x="631.16" y="-281.39" font-family="Helvetica,sans-Serif" font-size="14.00">True</text>
</g>
<!-- 8 -->
<g id="node9" class="node">
<title>8</title>
<path fill="#fae7d9" stroke="black" d="M1014,-261C1014,-261 864,-261 864,-261 858,-261 852,-255 852,-249 852,-249 852,-205 852,-205 852,-199 858,-193 864,-193 864,-193 1014,-193 1014,-193 1020,-193 1026,-199 1026,-205 1026,-205 1026,-249 1026,-249 1026,-255 1020,-261 1014,-261"/>
<text text-anchor="start" x="898.5" y="-245.8" font-family="Helvetica,sans-Serif" font-size="14.00">X2 ≤ 0.304</text>
<text text-anchor="start" x="860" y="-230.8" font-family="Helvetica,sans-Serif" font-size="14.00">squared_error = 0.016</text>
<text text-anchor="start" x="886" y="-215.8" font-family="Helvetica,sans-Serif" font-size="14.00">samples = 322</text>
<text text-anchor="start" x="891" y="-200.8" font-family="Helvetica,sans-Serif" font-size="14.00">value = &#45;0.17</text>
</g>
<!-- 0&#45;&gt;8 -->
<g id="edge8" class="edge">
<title>0&#45;&gt;8</title>
<path fill="none" stroke="black" d="M812.04,-296.88C830.27,-286.99 850.4,-276.07 869.15,-265.9"/>
<polygon fill="black" stroke="black" points="870.83,-268.97 877.95,-261.12 867.49,-262.82 870.83,-268.97"/>
<text text-anchor="middle" x="870.84" y="-281.39" font-family="Helvetica,sans-Serif" font-size="14.00">False</text>
</g>
<!-- 2 -->
<g id="node3" class="node">
<title>2</title>
<path fill="#e78c4b" stroke="black" d="M354,-157C354,-157 204,-157 204,-157 198,-157 192,-151 192,-145 192,-145 192,-101 192,-101 192,-95 198,-89 204,-89 204,-89 354,-89 354,-89 360,-89 366,-95 366,-101 366,-101 366,-145 366,-145 366,-151 360,-157 354,-157"/>
<text text-anchor="start" x="238.5" y="-141.8" font-family="Helvetica,sans-Serif" font-size="14.00">X1 ≤ 0.133</text>
<text text-anchor="start" x="200" y="-126.8" font-family="Helvetica,sans-Serif" font-size="14.00">squared_error = 0.017</text>
<text text-anchor="start" x="226" y="-111.8" font-family="Helvetica,sans-Serif" font-size="14.00">samples = 517</text>
<text text-anchor="start" x="229" y="-96.8" font-family="Helvetica,sans-Serif" font-size="14.00">value = 0.152</text>
</g>
<!-- 1&#45;&gt;2 -->
<g id="edge2" class="edge">
<title>1&#45;&gt;2</title>
<path fill="none" stroke="black" d="M475.86,-194.7C444.25,-183.35 408.35,-170.46 375.95,-158.82"/>
<polygon fill="black" stroke="black" points="377.06,-155.5 366.46,-155.41 374.69,-162.09 377.06,-155.5"/>
</g>
<!-- 5 -->
<g id="node6" class="node">
<title>5</title>
<path fill="#eeaf81" stroke="black" d="M638,-157C638,-157 488,-157 488,-157 482,-157 476,-151 476,-145 476,-145 476,-101 476,-101 476,-95 482,-89 488,-89 488,-89 638,-89 638,-89 644,-89 650,-95 650,-101 650,-101 650,-145 650,-145 650,-151 644,-157 638,-157"/>
<text text-anchor="start" x="527" y="-141.8" font-family="Helvetica,sans-Serif" font-size="14.00">X1 ≤ 0.57</text>
<text text-anchor="start" x="484" y="-126.8" font-family="Helvetica,sans-Serif" font-size="14.00">squared_error = 0.011</text>
<text text-anchor="start" x="510" y="-111.8" font-family="Helvetica,sans-Serif" font-size="14.00">samples = 161</text>
<text text-anchor="start" x="513" y="-96.8" font-family="Helvetica,sans-Serif" font-size="14.00">value = 0.029</text>
</g>
<!-- 1&#45;&gt;5 -->
<g id="edge5" class="edge">
<title>1&#45;&gt;5</title>
<path fill="none" stroke="black" d="M563,-192.88C563,-184.78 563,-175.98 563,-167.47"/>
<polygon fill="black" stroke="black" points="566.5,-167.3 563,-157.3 559.5,-167.3 566.5,-167.3"/>
</g>
<!-- 3 -->
<g id="node4" class="node">
<title>3</title>
<path fill="#eda978" stroke="black" d="M162,-53C162,-53 12,-53 12,-53 6,-53 0,-47 0,-41 0,-41 0,-12 0,-12 0,-6 6,0 12,0 12,0 162,0 162,0 168,0 174,-6 174,-12 174,-12 174,-41 174,-41 174,-47 168,-53 162,-53"/>
<text text-anchor="start" x="8" y="-37.8" font-family="Helvetica,sans-Serif" font-size="14.00">squared_error = 0.011</text>
<text text-anchor="start" x="34" y="-22.8" font-family="Helvetica,sans-Serif" font-size="14.00">samples = 147</text>
<text text-anchor="start" x="37" y="-7.8" font-family="Helvetica,sans-Serif" font-size="14.00">value = 0.049</text>
</g>
<!-- 2&#45;&gt;3 -->
<g id="edge3" class="edge">
<title>2&#45;&gt;3</title>
<path fill="none" stroke="black" d="M211.85,-88.95C191.12,-78.75 168.42,-67.57 148.13,-57.59"/>
<polygon fill="black" stroke="black" points="149.5,-54.36 138.99,-53.09 146.41,-60.64 149.5,-54.36"/>
</g>
<!-- 4 -->
<g id="node5" class="node">
<title>4</title>
<path fill="#e58139" stroke="black" d="M354,-53C354,-53 204,-53 204,-53 198,-53 192,-47 192,-41 192,-41 192,-12 192,-12 192,-6 198,0 204,0 204,0 354,0 354,0 360,0 366,-6 366,-12 366,-12 366,-41 366,-41 366,-47 360,-53 354,-53"/>
<text text-anchor="start" x="200" y="-37.8" font-family="Helvetica,sans-Serif" font-size="14.00">squared_error = 0.013</text>
<text text-anchor="start" x="226" y="-22.8" font-family="Helvetica,sans-Serif" font-size="14.00">samples = 370</text>
<text text-anchor="start" x="229" y="-7.8" font-family="Helvetica,sans-Serif" font-size="14.00">value = 0.193</text>
</g>
<!-- 2&#45;&gt;4 -->
<g id="edge4" class="edge">
<title>2&#45;&gt;4</title>
<path fill="none" stroke="black" d="M279,-88.95C279,-80.72 279,-71.85 279,-63.48"/>
<polygon fill="black" stroke="black" points="282.5,-63.24 279,-53.24 275.5,-63.24 282.5,-63.24"/>
</g>
<!-- 6 -->
<g id="node7" class="node">
<title>6</title>
<path fill="#eda673" stroke="black" d="M546,-53C546,-53 396,-53 396,-53 390,-53 384,-47 384,-41 384,-41 384,-12 384,-12 384,-6 390,0 396,0 396,0 546,0 546,0 552,0 558,-6 558,-12 558,-12 558,-41 558,-41 558,-47 552,-53 546,-53"/>
<text text-anchor="start" x="392" y="-37.8" font-family="Helvetica,sans-Serif" font-size="14.00">squared_error = 0.011</text>
<text text-anchor="start" x="422.5" y="-22.8" font-family="Helvetica,sans-Serif" font-size="14.00">samples = 67</text>
<text text-anchor="start" x="425.5" y="-7.8" font-family="Helvetica,sans-Serif" font-size="14.00">value = 0.06</text>
</g>
<!-- 5&#45;&gt;6 -->
<g id="edge6" class="edge">
<title>5&#45;&gt;6</title>
<path fill="none" stroke="black" d="M530.82,-88.95C521.83,-79.71 512.06,-69.67 503.07,-60.44"/>
<polygon fill="black" stroke="black" points="505.54,-57.96 496.06,-53.24 500.52,-62.84 505.54,-57.96"/>
</g>
<!-- 7 -->
<g id="node8" class="node">
<title>7</title>
<path fill="#f0b58b" stroke="black" d="M729.5,-53C729.5,-53 588.5,-53 588.5,-53 582.5,-53 576.5,-47 576.5,-41 576.5,-41 576.5,-12 576.5,-12 576.5,-6 582.5,0 588.5,0 588.5,0 729.5,0 729.5,0 735.5,0 741.5,-6 741.5,-12 741.5,-12 741.5,-41 741.5,-41 741.5,-47 735.5,-53 729.5,-53"/>
<text text-anchor="start" x="584.5" y="-37.8" font-family="Helvetica,sans-Serif" font-size="14.00">squared_error = 0.01</text>
<text text-anchor="start" x="610.5" y="-22.8" font-family="Helvetica,sans-Serif" font-size="14.00">samples = 94</text>
<text text-anchor="start" x="609" y="-7.8" font-family="Helvetica,sans-Serif" font-size="14.00">value = 0.007</text>
</g>
<!-- 5&#45;&gt;7 -->
<g id="edge7" class="edge">
<title>5&#45;&gt;7</title>
<path fill="none" stroke="black" d="M596.58,-88.95C605.96,-79.71 616.16,-69.67 625.54,-60.44"/>
<polygon fill="black" stroke="black" points="628.18,-62.75 632.85,-53.24 623.27,-57.76 628.18,-62.75"/>
</g>
<!-- 9 -->
<g id="node10" class="node">
<title>9</title>
<path fill="#f5d1b6" stroke="black" d="M1014,-157C1014,-157 864,-157 864,-157 858,-157 852,-151 852,-145 852,-145 852,-101 852,-101 852,-95 858,-89 864,-89 864,-89 1014,-89 1014,-89 1020,-89 1026,-95 1026,-101 1026,-101 1026,-145 1026,-145 1026,-151 1020,-157 1014,-157"/>
<text text-anchor="start" x="898.5" y="-141.8" font-family="Helvetica,sans-Serif" font-size="14.00">X2 ≤ 0.016</text>
<text text-anchor="start" x="860" y="-126.8" font-family="Helvetica,sans-Serif" font-size="14.00">squared_error = 0.011</text>
<text text-anchor="start" x="890.5" y="-111.8" font-family="Helvetica,sans-Serif" font-size="14.00">samples = 89</text>
<text text-anchor="start" x="886.5" y="-96.8" font-family="Helvetica,sans-Serif" font-size="14.00">value = &#45;0.092</text>
</g>
<!-- 8&#45;&gt;9 -->
<g id="edge9" class="edge">
<title>8&#45;&gt;9</title>
<path fill="none" stroke="black" d="M939,-192.88C939,-184.78 939,-175.98 939,-167.47"/>
<polygon fill="black" stroke="black" points="942.5,-167.3 939,-157.3 935.5,-167.3 942.5,-167.3"/>
</g>
<!-- 12 -->
<g id="node13" class="node">
<title>12</title>
<path fill="#fcefe6" stroke="black" d="M1298,-157C1298,-157 1148,-157 1148,-157 1142,-157 1136,-151 1136,-145 1136,-145 1136,-101 1136,-101 1136,-95 1142,-89 1148,-89 1148,-89 1298,-89 1298,-89 1304,-89 1310,-95 1310,-101 1310,-101 1310,-145 1310,-145 1310,-151 1304,-157 1298,-157"/>
<text text-anchor="start" x="1182.5" y="-141.8" font-family="Helvetica,sans-Serif" font-size="14.00">X1 ≤ 0.799</text>
<text text-anchor="start" x="1144" y="-126.8" font-family="Helvetica,sans-Serif" font-size="14.00">squared_error = 0.015</text>
<text text-anchor="start" x="1170" y="-111.8" font-family="Helvetica,sans-Serif" font-size="14.00">samples = 233</text>
<text text-anchor="start" x="1179.5" y="-96.8" font-family="Helvetica,sans-Serif" font-size="14.00">value = &#45;0.2</text>
</g>
<!-- 8&#45;&gt;12 -->
<g id="edge12" class="edge">
<title>8&#45;&gt;12</title>
<path fill="none" stroke="black" d="M1026.14,-194.7C1057.75,-183.35 1093.65,-170.46 1126.05,-158.82"/>
<polygon fill="black" stroke="black" points="1127.31,-162.09 1135.54,-155.41 1124.94,-155.5 1127.31,-162.09"/>
</g>
<!-- 10 -->
<g id="node11" class="node">
<title>10</title>
<path fill="#eb9e67" stroke="black" d="M922,-53C922,-53 772,-53 772,-53 766,-53 760,-47 760,-41 760,-41 760,-12 760,-12 760,-6 766,0 772,0 772,0 922,0 922,0 928,0 934,-6 934,-12 934,-12 934,-41 934,-41 934,-47 928,-53 922,-53"/>
<text text-anchor="start" x="768" y="-37.8" font-family="Helvetica,sans-Serif" font-size="14.00">squared_error = 0.003</text>
<text text-anchor="start" x="803" y="-22.8" font-family="Helvetica,sans-Serif" font-size="14.00">samples = 3</text>
<text text-anchor="start" x="797" y="-7.8" font-family="Helvetica,sans-Serif" font-size="14.00">value = 0.088</text>
</g>
<!-- 9&#45;&gt;10 -->
<g id="edge10" class="edge">
<title>9&#45;&gt;10</title>
<path fill="none" stroke="black" d="M906.82,-88.95C897.83,-79.71 888.06,-69.67 879.07,-60.44"/>
<polygon fill="black" stroke="black" points="881.54,-57.96 872.06,-53.24 876.52,-62.84 881.54,-57.96"/>
</g>
<!-- 11 -->
<g id="node12" class="node">
<title>11</title>
<path fill="#f6d2b9" stroke="black" d="M1105.5,-53C1105.5,-53 964.5,-53 964.5,-53 958.5,-53 952.5,-47 952.5,-41 952.5,-41 952.5,-12 952.5,-12 952.5,-6 958.5,0 964.5,0 964.5,0 1105.5,0 1105.5,0 1111.5,0 1117.5,-6 1117.5,-12 1117.5,-12 1117.5,-41 1117.5,-41 1117.5,-47 1111.5,-53 1105.5,-53"/>
<text text-anchor="start" x="960.5" y="-37.8" font-family="Helvetica,sans-Serif" font-size="14.00">squared_error = 0.01</text>
<text text-anchor="start" x="986.5" y="-22.8" font-family="Helvetica,sans-Serif" font-size="14.00">samples = 86</text>
<text text-anchor="start" x="982.5" y="-7.8" font-family="Helvetica,sans-Serif" font-size="14.00">value = &#45;0.098</text>
</g>
<!-- 9&#45;&gt;11 -->
<g id="edge11" class="edge">
<title>9&#45;&gt;11</title>
<path fill="none" stroke="black" d="M972.58,-88.95C981.96,-79.71 992.16,-69.67 1001.54,-60.44"/>
<polygon fill="black" stroke="black" points="1004.18,-62.75 1008.85,-53.24 999.27,-57.76 1004.18,-62.75"/>
</g>
<!-- 13 -->
<g id="node14" class="node">
<title>13</title>
<path fill="#f7dbc6" stroke="black" d="M1298,-53C1298,-53 1148,-53 1148,-53 1142,-53 1136,-47 1136,-41 1136,-41 1136,-12 1136,-12 1136,-6 1142,0 1148,0 1148,0 1298,0 1298,0 1304,0 1310,-6 1310,-12 1310,-12 1310,-41 1310,-41 1310,-47 1304,-53 1298,-53"/>
<text text-anchor="start" x="1144" y="-37.8" font-family="Helvetica,sans-Serif" font-size="14.00">squared_error = 0.011</text>
<text text-anchor="start" x="1170" y="-22.8" font-family="Helvetica,sans-Serif" font-size="14.00">samples = 103</text>
<text text-anchor="start" x="1170.5" y="-7.8" font-family="Helvetica,sans-Serif" font-size="14.00">value = &#45;0.127</text>
</g>
<!-- 12&#45;&gt;13 -->
<g id="edge13" class="edge">
<title>12&#45;&gt;13</title>
<path fill="none" stroke="black" d="M1223,-88.95C1223,-80.72 1223,-71.85 1223,-63.48"/>
<polygon fill="black" stroke="black" points="1226.5,-63.24 1223,-53.24 1219.5,-63.24 1226.5,-63.24"/>
</g>
<!-- 14 -->
<g id="node15" class="node">
<title>14</title>
<path fill="#ffffff" stroke="black" d="M1490,-53C1490,-53 1340,-53 1340,-53 1334,-53 1328,-47 1328,-41 1328,-41 1328,-12 1328,-12 1328,-6 1334,0 1340,0 1340,0 1490,0 1490,0 1496,0 1502,-6 1502,-12 1502,-12 1502,-41 1502,-41 1502,-47 1496,-53 1490,-53"/>
<text text-anchor="start" x="1336" y="-37.8" font-family="Helvetica,sans-Serif" font-size="14.00">squared_error = 0.011</text>
<text text-anchor="start" x="1362" y="-22.8" font-family="Helvetica,sans-Serif" font-size="14.00">samples = 130</text>
<text text-anchor="start" x="1362.5" y="-7.8" font-family="Helvetica,sans-Serif" font-size="14.00">value = &#45;0.257</text>
</g>
<!-- 12&#45;&gt;14 -->
<g id="edge14" class="edge">
<title>12&#45;&gt;14</title>
<path fill="none" stroke="black" d="M1290.15,-88.95C1310.88,-78.75 1333.58,-67.57 1353.87,-57.59"/>
<polygon fill="black" stroke="black" points="1355.59,-60.64 1363.01,-53.09 1352.5,-54.36 1355.59,-60.64"/>
</g>
</g>
</svg>