<?xml version="1.0" encoding="UTF-8" standalone="no"?>
<!DOCTYPE svg PUBLIC "-//W3C//DTD SVG 1.1//EN"
 "http://www.w3.org/Graphics/SVG/1.1/DTD/svg11.dtd">
<!-- Generated by graphviz version 2.50.0 (0)
 -->
<!-- Title: Tree Pages: 1 -->
<svg width="1510pt" height="373pt"
 viewBox="0.00 0.00 1510.00 373.00" xmlns="http://www.w3.org/2000/svg" xmlns:xlink="http://www.w3.org/1999/xlink">
<g id="graph0" class="graph" transform="scale(1 1) rotate(0) translate(4 369)">
<title>Tree</title>
<polygon fill="white" stroke="transparent" points="-4,4 -4,-369 1506,-369 1506,4 -4,4"/>
<!-- 0 -->
<g id="node1" class="node">
<title>0</title>
<path fill="#eeae7f" stroke="black" d="M826,-365C826,-365 676,-365 676,-365 670,-365 664,-359 664,-353 664,-353 664,-309 664,-309 664,-303 670,-297 676,-297 676,-297 826,-297 826,-297 832,-297 838,-303 838,-309 838,-309 838,-353 838,-353 838,-359 832,-365 826,-365"/>
<text text-anchor="start" x="710.5" y="-349.8" font-family="Helvetica,sans-Serif" font-size="14.00">X1 ≤ 0.655</text>
<text text-anchor="start" x="672" y="-334.8" font-family="Helvetica,sans-Serif" font-size="14.00">squared_error = 0.031</text>
<text text-anchor="start" x="693.5" y="-319.8" font-family="Helvetica,sans-Serif" font-size="14.00">samples = 1000</text>
<text text-anchor="start" x="701" y="-304.8" font-family="Helvetica,sans-Serif" font-size="14.00">value = 0.035</text>
</g>
<!-- 1 -->
<g id="node2" class="node">
<title>1</title>
<path fill="#e89153" stroke="black" d="M634,-261C634,-261 484,-261 484,-261 478,-261 472,-255 472,-249 472,-249 472,-205 472,-205 472,-199 478,-193 484,-193 484,-193 634,-193 634,-193 640,-193 646,-199 646,-205 646,-205 646,-249 646,-249 646,-255 640,-261 634,-261"/>
<text text-anchor="start" x="518.5" y="-245.8" font-family="Helvetica,sans-Serif" font-size="14.00">X1 ≤ 0.095</text>
<text text-anchor="start" x="480" y="-230.8" font-family="Helvetica,sans-Serif" font-size="14.00">squared_error = 0.016</text>
<text text-anchor="start" x="506" y="-215.8" font-family="Helvetica,sans-Serif" font-size="14.00">samples = 677</text>
<text text-anchor="start" x="509" y="-200.8" font-family="Helvetica,sans-Serif" font-size="14.00">value = 0.122</text>
</g>
<!-- 0&#45;&gt;1 -->
<g id="edge1" class="edge">
<title>0&#45;&gt;1</title>
<path fill="none" stroke="black" d="M688.66,-296.88C670.04,-286.99 649.48,-276.07 630.33,-265.9"/>
<polygon fill="black" stroke="black" points="631.83,-262.73 621.35,-261.12 628.54,-268.91 631.83,-262.73"/>
<text text-anchor="middle" x="628.67" y="-281.33" font-family="Helvetica,sans-Serif" font-size="14.00">True</text>
</g>
<!-- 8 -->
<g id="node9" class="node">
<title>8</title>
<path fill="#fae9dc" stroke="black" d="M1014,-261C1014,-261 864,-261 864,-261 858,-261 852,-255 852,-249 852,-249 852,-205 852,-205 852,-199 858,-193 864,-193 864,-193 1014,-193 1014,-193 1020,-193 1026,-199 1026,-205 1026,-205 1026,-249 1026,-249 1026,-255 1020,-261 1014,-261"/>
<text text-anchor="start" x="898.5" y="-245.8" font-family="Helvetica,sans-Serif" font-size="14.00">X2 ≤ 0.334</text>
<text text-anchor="start" x="860" y="-230.8" font-family="Helvetica,sans-Serif" font-size="14.00">squared_error = 0.014</text>
<text text-anchor="start" x="886" y="-215.8" font-family="Helvetica,sans-Serif" font-size="14.00">samples = 323</text>
<text text-anchor="start" x="886.5" y="-200.8" font-family="Helvetica,sans-Serif" font-size="14.00">value = &#45;0.147</text>
</g>
<!-- 0&#45;&gt;8 -->
<g id="edge8" class="edge">
<title>0&#45;&gt;8</title>
<path fill="none" stroke="black" d="M812.04,-296.88C830.27,-286.99 850.4,-276.07 869.15,-265.9"/>
<polygon fill="black" stroke="black" points="870.83,-268.97 877.95,-261.12 867.49,-262.82 870.83,-268.97"/>
<text text-anchor="middle" x="870.84" y="-281.39" font-family="Helvetica,sans-Serif" font-size="14.00">False</text>
</g>
<!-- 2 -->
<g id="node3" class="node">
<title>2</title>
<path fill="#efb185" stroke="black" d="M345.5,-157C345.5,-157 204.5,-157 204.5,-157 198.5,-157 192.5,-151 192.5,-145 192.5,-145 192.5,-101 192.5,-101 192.5,-95 198.5,-89 204.5,-89 204.5,-89 345.5,-89 345.5,-89 351.5,-89 357.5,-95 357.5,-101 357.5,-101 357.5,-145 357.5,-145 357.5,-151 351.5,-157 345.5,-157"/>
<text text-anchor="start" x="234.5" y="-141.8" font-family="Helvetica,sans-Serif" font-size="14.00">X1 ≤ 0.027</text>
<text text-anchor="start" x="200.5" y="-126.8" font-family="Helvetica,sans-Serif" font-size="14.00">squared_error = 0.01</text>
<text text-anchor="start" x="226.5" y="-111.8" font-family="Helvetica,sans-Serif" font-size="14.00">samples = 99</text>
<text text-anchor="start" x="225" y="-96.8" font-family="Helvetica,sans-Serif" font-size="14.00">value = 0.024</text>
</g>
<!-- 1&#45;&gt;2 -->
<g id="edge2" class="edge">
<title>1&#45;&gt;2</title>
<path fill="none" stroke="black" d="M471.86,-194.7C438.77,-182.82 400.97,-169.24 367.41,-157.19"/>
<polygon fill="black" stroke="black" points="368.2,-153.75 357.6,-153.67 365.83,-160.34 368.2,-153.75"/>
</g>
<!-- 5 -->
<g id="node6" class="node">
<title>5</title>
<path fill="#e78c4a" stroke="black" d="M634,-157C634,-157 484,-157 484,-157 478,-157 472,-151 472,-145 472,-145 472,-101 472,-101 472,-95 478,-89 484,-89 484,-89 634,-89 634,-89 640,-89 646,-95 646,-101 646,-101 646,-145 646,-145 646,-151 640,-157 634,-157"/>
<text text-anchor="start" x="518.5" y="-141.8" font-family="Helvetica,sans-Serif" font-size="14.00">X1 ≤ 0.484</text>
<text text-anchor="start" x="480" y="-126.8" font-family="Helvetica,sans-Serif" font-size="14.00">squared_error = 0.016</text>
<text text-anchor="start" x="506" y="-111.8" font-family="Helvetica,sans-Serif" font-size="14.00">samples = 578</text>
<text text-anchor="start" x="509" y="-96.8" font-family="Helvetica,sans-Serif" font-size="14.00">value = 0.139</text>
</g>
<!-- 1&#45;&gt;5 -->
<g id="edge5" class="edge">
<title>1&#45;&gt;5</title>
<path fill="none" stroke="black" d="M559,-192.88C559,-184.78 559,-175.98 559,-167.47"/>
<polygon fill="black" stroke="black" points="562.5,-167.3 559,-157.3 555.5,-167.3 562.5,-167.3"/>
</g>
<!-- 3 -->
<g id="node4" class="node">
<title>3</title>
<path fill="#f2bf9a" stroke="black" d="M162,-53C162,-53 12,-53 12,-53 6,-53 0,-47 0,-41 0,-41 0,-12 0,-12 0,-6 6,0 12,0 12,0 162,0 162,0 168,0 174,-6 174,-12 174,-12 174,-41 174,-41 174,-47 168,-53 162,-53"/>
<text text-anchor="start" x="8" y="-37.8" font-family="Helvetica,sans-Serif" font-size="14.00">squared_error = 0.007</text>
<text text-anchor="start" x="38.5" y="-22.8" font-family="Helvetica,sans-Serif" font-size="14.00">samples = 29</text>
<text text-anchor="start" x="34.5" y="-7.8" font-family="Helvetica,sans-Serif" font-size="14.00">value = &#45;0.017</text>
</g>
<!-- 2&#45;&gt;3 -->
<g id="edge3" class="edge">
<title>2&#45;&gt;3</title>
<path fill="none" stroke="black" d="M209.25,-88.95C188.95,-78.75 166.72,-67.57 146.85,-57.59"/>
<polygon fill="black" stroke="black" points="148.41,-54.45 137.9,-53.09 145.27,-60.71 148.41,-54.45"/>
</g>
<!-- 4 -->
<g id="node5" class="node">
<title>4</title>
<path fill="#eeac7c" stroke="black" d="M345.5,-53C345.5,-53 204.5,-53 204.5,-53 198.5,-53 192.5,-47 192.5,-41 192.5,-41 192.5,-12 192.5,-12 192.5,-6 198.5,0 204.5,0 204.5,0 345.5,0 345.5,0 351.5,0 357.5,-6 357.5,-12 357.5,-12 357.5,-41 357.5,-41 357.5,-47 351.5,-53 345.5,-53"/>
<text text-anchor="start" x="200.5" y="-37.8" font-family="Helvetica,sans-Serif" font-size="14.00">squared_error = 0.01</text>
<text text-anchor="start" x="226.5" y="-22.8" font-family="Helvetica,sans-Serif" font-size="14.00">samples = 70</text>
<text text-anchor="start" x="225" y="-7.8" font-family="Helvetica,sans-Serif" font-size="14.00">value = 0.041</text>
</g>
<!-- 2&#45;&gt;4 -->
<g id="edge4" class="edge">
<title>2&#45;&gt;4</title>
<path fill="none" stroke="black" d="M275,-88.95C275,-80.72 275,-71.85 275,-63.48"/>
<polygon fill="black" stroke="black" points="278.5,-63.24 275,-53.24 271.5,-63.24 278.5,-63.24"/>
</g>
<!-- 6 -->
<g id="node7" class="node">
<title>6</title>
<path fill="#e58139" stroke="black" d="M538,-53C538,-53 388,-53 388,-53 382,-53 376,-47 376,-41 376,-41 376,-12 376,-12 376,-6 382,0 388,0 388,0 538,0 538,0 544,0 550,-6 550,-12 550,-12 550,-41 550,-41 550,-47 544,-53 538,-53"/>
<text text-anchor="start" x="384" y="-37.8" font-family="Helvetica,sans-Serif" font-size="14.00">squared_error = 0.013</text>
<text text-anchor="start" x="410" y="-22.8" font-family="Helvetica,sans-Serif" font-size="14.00">samples = 415</text>
<text text-anchor="start" x="413" y="-7.8" font-family="Helvetica,sans-Serif" font-size="14.00">value = 0.173</text>
</g>
<!-- 5&#45;&gt;6 -->
<g id="edge6" class="edge">
<title>5&#45;&gt;6</title>
<path fill="none" stroke="black" d="M525.42,-88.95C516.04,-79.71 505.84,-69.67 496.46,-60.44"/>
<polygon fill="black" stroke="black" points="498.73,-57.76 489.15,-53.24 493.82,-62.75 498.73,-57.76"/>
</g>
<!-- 7 -->
<g id="node8" class="node">
<title>7</title>
<path fill="#eda876" stroke="black" d="M730,-53C730,-53 580,-53 580,-53 574,-53 568,-47 568,-41 568,-41 568,-12 568,-12 568,-6 574,0 580,0 580,0 730,0 730,0 736,0 742,-6 742,-12 742,-12 742,-41 742,-41 742,-47 736,-53 730,-53"/>
<text text-anchor="start" x="576" y="-37.8" font-family="Helvetica,sans-Serif" font-size="14.00">squared_error = 0.013</text>
<text text-anchor="start" x="602" y="-22.8" font-family="Helvetica,sans-Serif" font-size="14.00">samples = 163</text>
<text text-anchor="start" x="605" y="-7.8" font-family="Helvetica,sans-Serif" font-size="14.00">value = 0.053</text>
</g>
<!-- 5&#45;&gt;7 -->
<g id="edge7" class="edge">
<title>5&#45;&gt;7</title>
<path fill="none" stroke="black" d="M592.58,-88.95C601.96,-79.71 612.16,-69.67 621.54,-60.44"/>
<polygon fill="black" stroke="black" points="624.18,-62.75 628.85,-53.24 619.27,-57.76 624.18,-62.75"/>
</g>
<!-- 9 -->
<g id="node10" class="node">
<title>9</title>
<path fill="#f7d7c0" stroke="black" d="M1014,-157C1014,-157 864,-157 864,-157 858,-157 852,-151 852,-145 852,-145 852,-101 852,-101 852,-95 858,-89 864,-89 864,-89 1014,-89 1014,-89 1020,-89 1026,-95 1026,-101 1026,-101 1026,-145 1026,-145 1026,-151 1020,-157 1014,-157"/>
<text text-anchor="start" x="898.5" y="-141.8" font-family="Helvetica,sans-Serif" font-size="14.00">X2 ≤ 0.126</text>
<text text-anchor="start" x="860" y="-126.8" font-family="Helvetica,sans-Serif" font-size="14.00">squared_error = 0.011</text>
<text text-anchor="start" x="886" y="-111.8" font-family="Helvetica,sans-Serif" font-size="14.00">samples = 108</text>
<text text-anchor="start" x="886.5" y="-96.8" font-family="Helvetica,sans-Serif" font-size="14.00">value = &#45;0.091</text>
</g>
<!-- 8&#45;&gt;9 -->
<g id="edge9" class="edge">
<title>8&#45;&gt;9</title>
<path fill="none" stroke="black" d="M939,-192.88C939,-184.78 939,-175.98 939,-167.47"/>
<polygon fill="black" stroke="black" points="942.5,-167.3 939,-157.3 935.5,-167.3 942.5,-167.3"/>
</g>
<!-- 12 -->
<g id="node13" class="node">
<title>12</title>
<path fill="#fcf2eb" stroke="black" d="M1298,-157C1298,-157 1148,-157 1148,-157 1142,-157 1136,-151 1136,-145 1136,-145 1136,-101 1136,-101 1136,-95 1142,-89 1148,-89 1148,-89 1298,-89 1298,-89 1304,-89 1310,-95 1310,-101 1310,-101 1310,-145 1310,-145 1310,-151 1304,-157 1298,-157"/>
<text text-anchor="start" x="1187" y="-141.8" font-family="Helvetica,sans-Serif" font-size="14.00">X1 ≤ 0.77</text>
<text text-anchor="start" x="1144" y="-126.8" font-family="Helvetica,sans-Serif" font-size="14.00">squared_error = 0.013</text>
<text text-anchor="start" x="1170" y="-111.8" font-family="Helvetica,sans-Serif" font-size="14.00">samples = 215</text>
<text text-anchor="start" x="1170.5" y="-96.8" font-family="Helvetica,sans-Serif" font-size="14.00">value = &#45;0.176</text>
</g>
<!-- 8&#45;&gt;12 -->
<g id="edge12" class="edge">
<title>8&#45;&gt;12</title>
<path fill="none" stroke="black" d="M1026.14,-194.7C1057.75,-183.35 1093.65,-170.46 1126.05,-158.82"/>
<polygon fill="black" stroke="black" points="1127.31,-162.09 1135.54,-155.41 1124.94,-155.5 1127.31,-162.09"/>
</g>
<!-- 10 -->
<g id="node11" class="node">
<title>10</title>
<path fill="#f3c7a7" stroke="black" d="M922,-53C922,-53 772,-53 772,-53 766,-53 760,-47 760,-41 760,-41 760,-12 760,-12 760,-6 766,0 772,0 772,0 922,0 922,0 928,0 934,-6 934,-12 934,-12 934,-41 934,-41 934,-47 928,-53 922,-53"/>
<text text-anchor="start" x="768" y="-37.8" font-family="Helvetica,sans-Serif" font-size="14.00">squared_error = 0.011</text>
<text text-anchor="start" x="798.5" y="-22.8" font-family="Helvetica,sans-Serif" font-size="14.00">samples = 36</text>
<text text-anchor="start" x="794.5" y="-7.8" font-family="Helvetica,sans-Serif" font-size="14.00">value = &#45;0.042</text>
</g>
<!-- 9&#45;&gt;10 -->
<g id="edge10" class="edge">
<title>9&#45;&gt;10</title>
<path fill="none" stroke="black" d="M906.82,-88.95C897.83,-79.71 888.06,-69.67 879.07,-60.44"/>
<polygon fill="black" stroke="black" points="881.54,-57.96 872.06,-53.24 876.52,-62.84 881.54,-57.96"/>
</g>
<!-- 11 -->
<g id="node12" class="node">
<title>11</title>
<path fill="#f8dfcc" stroke="black" d="M1105.5,-53C1105.5,-53 964.5,-53 964.5,-53 958.5,-53 952.5,-47 952.5,-41 952.5,-41 952.5,-12 952.5,-12 952.5,-6 958.5,0 964.5,0 964.5,0 1105.5,0 1105.5,0 1111.5,0 1117.5,-6 1117.5,-12 1117.5,-12 1117.5,-41 1117.5,-41 1117.5,-47 1111.5,-53 1105.5,-53"/>
<text text-anchor="start" x="960.5" y="-37.8" font-family="Helvetica,sans-Serif" font-size="14.00">squared_error = 0.01</text>
<text text-anchor="start" x="986.5" y="-22.8" font-family="Helvetica,sans-Serif" font-size="14.00">samples = 72</text>
<text text-anchor="start" x="982.5" y="-7.8" font-family="Helvetica,sans-Serif" font-size="14.00">value = &#45;0.115</text>
</g>
<!-- 9&#45;&gt;11 -->
<g id="edge11" class="edge">
<title>9&#45;&gt;11</title>
<path fill="none" stroke="black" d="M972.58,-88.95C981.96,-79.71 992.16,-69.67 1001.54,-60.44"/>
<polygon fill="black" stroke="black" points="1004.18,-62.75 1008.85,-53.24 999.27,-57.76 1004.18,-62.75"/>
</g>
<!-- 13 -->
<g id="node14" class="node">
<title>13</title>
<path fill="#f8dcc9" stroke="black" d="M1298,-53C1298,-53 1148,-53 1148,-53 1142,-53 1136,-47 1136,-41 1136,-41 1136,-12 1136,-12 1136,-6 1142,0 1148,0 1148,0 1298,0 1298,0 1304,0 1310,-6 1310,-12 1310,-12 1310,-41 1310,-41 1310,-47 1304,-53 1298,-53"/>
<text text-anchor="start" x="1144" y="-37.8" font-family="Helvetica,sans-Serif" font-size="14.00">squared_error = 0.008</text>
<text text-anchor="start" x="1174.5" y="-22.8" font-family="Helvetica,sans-Serif" font-size="14.00">samples = 79</text>
<text text-anchor="start" x="1170.5" y="-7.8" font-family="Helvetica,sans-Serif" font-size="14.00">value = &#45;0.108</text>
</g>
<!-- 12&#45;&gt;13 -->
<g id="edge13" class="edge">
<title>12&#45;&gt;13</title>
<path fill="none" stroke="black" d="M1223,-88.95C1223,-80.72 1223,-71.85 1223,-63.48"/>
<polygon fill="black" stroke="black" points="1226.5,-63.24 1223,-53.24 1219.5,-63.24 1226.5,-63.24"/>
</g>
<!-- 14 -->
<g id="node15" class="node">
<title>14</title>
<path fill="#ffffff" stroke="black" d="M1490,-53C1490,-53 1340,-53 1340,-53 1334,-53 1328,-47 1328,-41 1328,-41 1328,-12 1328,-12 1328,-6 1334,0 1340,0 1340,0 1490,0 1490,0 1496,0 1502,-6 1502,-12 1502,-12 1502,-41 1502,-41 1502,-47 1496,-53 1490,-53"/>
<text text-anchor="start" x="1336" y="-37.8" font-family="Helvetica,sans-Serif" font-size="14.00">squared_error = 0.011</text>
<text text-anchor="start" x="1362" y="-22.8" font-family="Helvetica,sans-Serif" font-size="14.00">samples = 136</text>
<text text-anchor="start" x="1362.5" y="-7.8" font-family="Helvetica,sans-Serif" font-size="14.00">value = &#45;0.215</text>
</g>
<!-- 12&#45;&gt;14 -->
<g id="edge14" class="edge">
<title>12&#45;&gt;14</title>
<path fill="none" stroke="black" d="M1290.15,-88.95C1310.88,-78.75 1333.58,-67.57 1353.87,-57.59"/>
<polygon fill="black" stroke="black" points="1355.59,-60.64 1363.01,-53.09 1352.5,-54.36 1355.59,-60.64"/>
</g>
</g>
</svg>