<?xml version="1.0" encoding="UTF-8" standalone="no"?>
<!DOCTYPE svg PUBLIC "-//W3C//DTD SVG 1.1//EN"
 "http://www.w3.org/Graphics/SVG/1.1/DTD/svg11.dtd">
<!-- Generated by graphviz version 2.50.0 (0)
 -->
<!-- Title: Tree Pages: 1 -->
<svg width="1509pt" height="373pt"
 viewBox="0.00 0.00 1509.00 373.00" xmlns="http://www.w3.org/2000/svg" xmlns:xlink="http://www.w3.org/1999/xlink">
<g id="graph0" class="graph" transform="scale(1 1) rotate(0) translate(4 369)">
<title>Tree</title>
<polygon fill="white" stroke="transparent" points="-4,4 -4,-369 1505,-369 1505,4 -4,4"/>
<!-- 0 -->
<g id="node1" class="node">
<title>0</title>
<path fill="#efb185" stroke="black" d="M816,-365C816,-365 666,-365 666,-365 660,-365 654,-359 654,-353 654,-353 654,-309 654,-309 654,-303 660,-297 666,-297 666,-297 816,-297 816,-297 822,-297 828,-303 828,-309 828,-309 828,-353 828,-353 828,-359 822,-365 816,-365"/>
<text text-anchor="start" x="705" y="-349.8" font-family="Helvetica,sans-Serif" font-size="14.00">X1 ≤ 0.64</text>
<text text-anchor="start" x="662" y="-334.8" font-family="Helvetica,sans-Serif" font-size="14.00">squared_error = 0.035</text>
<text text-anchor="start" x="683.5" y="-319.8" font-family="Helvetica,sans-Serif" font-size="14.00">samples = 1000</text>
<text text-anchor="start" x="691" y="-304.8" font-family="Helvetica,sans-Serif" font-size="14.00">value = 0.027</text>
</g>
<!-- 1 -->
<g id="node2" class="node">
<title>1</title>
<path fill="#e99254" stroke="black" d="M633,-261C633,-261 483,-261 483,-261 477,-261 471,-255 471,-249 471,-249 471,-205 471,-205 471,-199 477,-193 483,-193 483,-193 633,-193 633,-193 639,-193 645,-199 645,-205 645,-205 645,-249 645,-249 645,-255 639,-261 633,-261"/>
<text text-anchor="start" x="517.5" y="-245.8" font-family="Helvetica,sans-Serif" font-size="14.00">X1 ≤ 0.505</text>
<text text-anchor="start" x="479" y="-230.8" font-family="Helvetica,sans-Serif" font-size="14.00">squared_error = 0.017</text>
<text text-anchor="start" x="505" y="-215.8" font-family="Helvetica,sans-Serif" font-size="14.00">samples = 653</text>
<text text-anchor="start" x="508" y="-200.8" font-family="Helvetica,sans-Serif" font-size="14.00">value = 0.125</text>
</g>
<!-- 0&#45;&gt;1 -->
<g id="edge1" class="edge">
<title>0&#45;&gt;1</title>
<path fill="none" stroke="black" d="M681.59,-296.88C663.92,-287.04 644.42,-276.17 626.24,-266.03"/>
<polygon fill="black" stroke="black" points="627.87,-262.94 617.43,-261.12 624.46,-269.05 627.87,-262.94"/>
<text text-anchor="middle" x="624.26" y="-281.47" font-family="Helvetica,sans-Serif" font-size="14.00">True</text>
</g>
<!-- 8 -->
<g id="node9" class="node">
<title>8</title>
<path fill="#fbece1" stroke="black" d="M1009,-261C1009,-261 859,-261 859,-261 853,-261 847,-255 847,-249 847,-249 847,-205 847,-205 847,-199 853,-193 859,-193 859,-193 1009,-193 1009,-193 1015,-193 1021,-199 1021,-205 1021,-205 1021,-249 1021,-249 1021,-255 1015,-261 1009,-261"/>
<text text-anchor="start" x="893.5" y="-245.8" font-family="Helvetica,sans-Serif" font-size="14.00">X1 ≤ 0.746</text>
<text text-anchor="start" x="855" y="-230.8" font-family="Helvetica,sans-Serif" font-size="14.00">squared_error = 0.016</text>
<text text-anchor="start" x="881" y="-215.8" font-family="Helvetica,sans-Serif" font-size="14.00">samples = 347</text>
<text text-anchor="start" x="881.5" y="-200.8" font-family="Helvetica,sans-Serif" font-size="14.00">value = &#45;0.158</text>
</g>
<!-- 0&#45;&gt;8 -->
<g id="edge8" class="edge">
<title>0&#45;&gt;8</title>
<path fill="none" stroke="black" d="M803.66,-296.88C822.38,-286.99 843.04,-276.07 862.3,-265.9"/>
<polygon fill="black" stroke="black" points="864.12,-268.89 871.32,-261.12 860.85,-262.7 864.12,-268.89"/>
<text text-anchor="middle" x="863.95" y="-281.31" font-family="Helvetica,sans-Serif" font-size="14.00">False</text>
</g>
<!-- 2 -->
<g id="node3" class="node">
<title>2</title>
<path fill="#e78b49" stroke="black" d="M354,-157C354,-157 204,-157 204,-157 198,-157 192,-151 192,-145 192,-145 192,-101 192,-101 192,-95 198,-89 204,-89 204,-89 354,-89 354,-89 360,-89 366,-95 366,-101 366,-101 366,-145 366,-145 366,-151 360,-157 354,-157"/>
<text text-anchor="start" x="243" y="-141.8" font-family="Helvetica,sans-Serif" font-size="14.00">X1 ≤ 0.14</text>
<text text-anchor="start" x="200" y="-126.8" font-family="Helvetica,sans-Serif" font-size="14.00">squared_error = 0.016</text>
<text text-anchor="start" x="226" y="-111.8" font-family="Helvetica,sans-Serif" font-size="14.00">samples = 505</text>
<text text-anchor="start" x="229" y="-96.8" font-family="Helvetica,sans-Serif" font-size="14.00">value = 0.148</text>
</g>
<!-- 1&#45;&gt;2 -->
<g id="edge2" class="edge">
<title>1&#45;&gt;2</title>
<path fill="none" stroke="black" d="M470.87,-194.15C440.73,-183.13 406.78,-170.71 375.9,-159.43"/>
<polygon fill="black" stroke="black" points="377.02,-156.11 366.43,-155.96 374.62,-162.68 377.02,-156.11"/>
</g>
<!-- 5 -->
<g id="node6" class="node">
<title>5</title>
<path fill="#eeac7c" stroke="black" d="M633,-157C633,-157 483,-157 483,-157 477,-157 471,-151 471,-145 471,-145 471,-101 471,-101 471,-95 477,-89 483,-89 483,-89 633,-89 633,-89 639,-89 645,-95 645,-101 645,-101 645,-145 645,-145 645,-151 639,-157 633,-157"/>
<text text-anchor="start" x="517.5" y="-141.8" font-family="Helvetica,sans-Serif" font-size="14.00">X1 ≤ 0.585</text>
<text text-anchor="start" x="479" y="-126.8" font-family="Helvetica,sans-Serif" font-size="14.00">squared_error = 0.011</text>
<text text-anchor="start" x="505" y="-111.8" font-family="Helvetica,sans-Serif" font-size="14.00">samples = 148</text>
<text text-anchor="start" x="508" y="-96.8" font-family="Helvetica,sans-Serif" font-size="14.00">value = 0.045</text>
</g>
<!-- 1&#45;&gt;5 -->
<g id="edge5" class="edge">
<title>1&#45;&gt;5</title>
<path fill="none" stroke="black" d="M558,-192.88C558,-184.78 558,-175.98 558,-167.47"/>
<polygon fill="black" stroke="black" points="561.5,-167.3 558,-157.3 554.5,-167.3 561.5,-167.3"/>
</g>
<!-- 3 -->
<g id="node4" class="node">
<title>3</title>
<path fill="#eda673" stroke="black" d="M162,-53C162,-53 12,-53 12,-53 6,-53 0,-47 0,-41 0,-41 0,-12 0,-12 0,-6 6,0 12,0 12,0 162,0 162,0 168,0 174,-6 174,-12 174,-12 174,-41 174,-41 174,-47 168,-53 162,-53"/>
<text text-anchor="start" x="8" y="-37.8" font-family="Helvetica,sans-Serif" font-size="14.00">squared_error = 0.012</text>
<text text-anchor="start" x="34" y="-22.8" font-family="Helvetica,sans-Serif" font-size="14.00">samples = 138</text>
<text text-anchor="start" x="37" y="-7.8" font-family="Helvetica,sans-Serif" font-size="14.00">value = 0.064</text>
</g>
<!-- 2&#45;&gt;3 -->
<g id="edge3" class="edge">
<title>2&#45;&gt;3</title>
<path fill="none" stroke="black" d="M211.85,-88.95C191.12,-78.75 168.42,-67.57 148.13,-57.59"/>
<polygon fill="black" stroke="black" points="149.5,-54.36 138.99,-53.09 146.41,-60.64 149.5,-54.36"/>
</g>
<!-- 4 -->
<g id="node5" class="node">
<title>4</title>
<path fill="#e58139" stroke="black" d="M354,-53C354,-53 204,-53 204,-53 198,-53 192,-47 192,-41 192,-41 192,-12 192,-12 192,-6 198,0 204,0 204,0 354,0 354,0 360,0 366,-6 366,-12 366,-12 366,-41 366,-41 366,-47 360,-53 354,-53"/>
<text text-anchor="start" x="200" y="-37.8" font-family="Helvetica,sans-Serif" font-size="14.00">squared_error = 0.014</text>
<text text-anchor="start" x="226" y="-22.8" font-family="Helvetica,sans-Serif" font-size="14.00">samples = 367</text>
<text text-anchor="start" x="233.5" y="-7.8" font-family="Helvetica,sans-Serif" font-size="14.00">value = 0.18</text>
</g>
<!-- 2&#45;&gt;4 -->
<g id="edge4" class="edge">
<title>2&#45;&gt;4</title>
<path fill="none" stroke="black" d="M279,-88.95C279,-80.72 279,-71.85 279,-63.48"/>
<polygon fill="black" stroke="black" points="282.5,-63.24 279,-53.24 275.5,-63.24 282.5,-63.24"/>
</g>
<!-- 6 -->
<g id="node7" class="node">
<title>6</title>
<path fill="#eca36f" stroke="black" d="M537.5,-53C537.5,-53 396.5,-53 396.5,-53 390.5,-53 384.5,-47 384.5,-41 384.5,-41 384.5,-12 384.5,-12 384.5,-6 390.5,0 396.5,0 396.5,0 537.5,0 537.5,0 543.5,0 549.5,-6 549.5,-12 549.5,-12 549.5,-41 549.5,-41 549.5,-47 543.5,-53 537.5,-53"/>
<text text-anchor="start" x="392.5" y="-37.8" font-family="Helvetica,sans-Serif" font-size="14.00">squared_error = 0.01</text>
<text text-anchor="start" x="418.5" y="-22.8" font-family="Helvetica,sans-Serif" font-size="14.00">samples = 80</text>
<text text-anchor="start" x="417" y="-7.8" font-family="Helvetica,sans-Serif" font-size="14.00">value = 0.072</text>
</g>
<!-- 5&#45;&gt;6 -->
<g id="edge6" class="edge">
<title>5&#45;&gt;6</title>
<path fill="none" stroke="black" d="M526.17,-88.95C517.36,-79.8 507.8,-69.87 498.98,-60.71"/>
<polygon fill="black" stroke="black" points="501.24,-58.01 491.78,-53.24 496.2,-62.87 501.24,-58.01"/>
</g>
<!-- 7 -->
<g id="node8" class="node">
<title>7</title>
<path fill="#f0b68c" stroke="black" d="M720.5,-53C720.5,-53 579.5,-53 579.5,-53 573.5,-53 567.5,-47 567.5,-41 567.5,-41 567.5,-12 567.5,-12 567.5,-6 573.5,0 579.5,0 579.5,0 720.5,0 720.5,0 726.5,0 732.5,-6 732.5,-12 732.5,-12 732.5,-41 732.5,-41 732.5,-47 726.5,-53 720.5,-53"/>
<text text-anchor="start" x="575.5" y="-37.8" font-family="Helvetica,sans-Serif" font-size="14.00">squared_error = 0.01</text>
<text text-anchor="start" x="601.5" y="-22.8" font-family="Helvetica,sans-Serif" font-size="14.00">samples = 68</text>
<text text-anchor="start" x="600" y="-7.8" font-family="Helvetica,sans-Serif" font-size="14.00">value = 0.014</text>
</g>
<!-- 5&#45;&gt;7 -->
<g id="edge7" class="edge">
<title>5&#45;&gt;7</title>
<path fill="none" stroke="black" d="M590.18,-88.95C599.17,-79.71 608.94,-69.67 617.93,-60.44"/>
<polygon fill="black" stroke="black" points="620.48,-62.84 624.94,-53.24 615.46,-57.96 620.48,-62.84"/>
</g>
<!-- 9 -->
<g id="node10" class="node">
<title>9</title>
<path fill="#f5d1b6" stroke="black" d="M1009,-157C1009,-157 859,-157 859,-157 853,-157 847,-151 847,-145 847,-145 847,-101 847,-101 847,-95 853,-89 859,-89 859,-89 1009,-89 1009,-89 1015,-89 1021,-95 1021,-101 1021,-101 1021,-145 1021,-145 1021,-151 1015,-157 1009,-157"/>
<text text-anchor="start" x="893.5" y="-141.8" font-family="Helvetica,sans-Serif" font-size="14.00">X2 ≤ 0.479</text>
<text text-anchor="start" x="855" y="-126.8" font-family="Helvetica,sans-Serif" font-size="14.00">squared_error = 0.011</text>
<text text-anchor="start" x="881" y="-111.8" font-family="Helvetica,sans-Serif" font-size="14.00">samples = 110</text>
<text text-anchor="start" x="881.5" y="-96.8" font-family="Helvetica,sans-Serif" font-size="14.00">value = &#45;0.071</text>
</g>
<!-- 8&#45;&gt;9 -->
<g id="edge9" class="edge">
<title>8&#45;&gt;9</title>
<path fill="none" stroke="black" d="M934,-192.88C934,-184.78 934,-175.98 934,-167.47"/>
<polygon fill="black" stroke="black" points="937.5,-167.3 934,-157.3 930.5,-167.3 937.5,-167.3"/>
</g>
<!-- 12 -->
<g id="node13" class="node">
<title>12</title>
<path fill="#fef9f5" stroke="black" d="M1297,-157C1297,-157 1147,-157 1147,-157 1141,-157 1135,-151 1135,-145 1135,-145 1135,-101 1135,-101 1135,-95 1141,-89 1147,-89 1147,-89 1297,-89 1297,-89 1303,-89 1309,-95 1309,-101 1309,-101 1309,-145 1309,-145 1309,-151 1303,-157 1297,-157"/>
<text text-anchor="start" x="1181.5" y="-141.8" font-family="Helvetica,sans-Serif" font-size="14.00">X2 ≤ 0.193</text>
<text text-anchor="start" x="1143" y="-126.8" font-family="Helvetica,sans-Serif" font-size="14.00">squared_error = 0.014</text>
<text text-anchor="start" x="1169" y="-111.8" font-family="Helvetica,sans-Serif" font-size="14.00">samples = 237</text>
<text text-anchor="start" x="1169.5" y="-96.8" font-family="Helvetica,sans-Serif" font-size="14.00">value = &#45;0.198</text>
</g>
<!-- 8&#45;&gt;12 -->
<g id="edge12" class="edge">
<title>8&#45;&gt;12</title>
<path fill="none" stroke="black" d="M1021.19,-195.12C1053.89,-183.54 1091.24,-170.31 1124.79,-158.43"/>
<polygon fill="black" stroke="black" points="1126.35,-161.59 1134.61,-154.95 1124.01,-154.99 1126.35,-161.59"/>
</g>
<!-- 10 -->
<g id="node11" class="node">
<title>10</title>
<path fill="#f4c9aa" stroke="black" d="M913,-53C913,-53 763,-53 763,-53 757,-53 751,-47 751,-41 751,-41 751,-12 751,-12 751,-6 757,0 763,0 763,0 913,0 913,0 919,0 925,-6 925,-12 925,-12 925,-41 925,-41 925,-47 919,-53 913,-53"/>
<text text-anchor="start" x="759" y="-37.8" font-family="Helvetica,sans-Serif" font-size="14.00">squared_error = 0.012</text>
<text text-anchor="start" x="789.5" y="-22.8" font-family="Helvetica,sans-Serif" font-size="14.00">samples = 54</text>
<text text-anchor="start" x="785.5" y="-7.8" font-family="Helvetica,sans-Serif" font-size="14.00">value = &#45;0.047</text>
</g>
<!-- 9&#45;&gt;10 -->
<g id="edge10" class="edge">
<title>9&#45;&gt;10</title>
<path fill="none" stroke="black" d="M900.42,-88.95C891.04,-79.71 880.84,-69.67 871.46,-60.44"/>
<polygon fill="black" stroke="black" points="873.73,-57.76 864.15,-53.24 868.82,-62.75 873.73,-57.76"/>
</g>
<!-- 11 -->
<g id="node12" class="node">
<title>11</title>
<path fill="#f7d8c1" stroke="black" d="M1105,-53C1105,-53 955,-53 955,-53 949,-53 943,-47 943,-41 943,-41 943,-12 943,-12 943,-6 949,0 955,0 955,0 1105,0 1105,0 1111,0 1117,-6 1117,-12 1117,-12 1117,-41 1117,-41 1117,-47 1111,-53 1105,-53"/>
<text text-anchor="start" x="951" y="-37.8" font-family="Helvetica,sans-Serif" font-size="14.00">squared_error = 0.009</text>
<text text-anchor="start" x="981.5" y="-22.8" font-family="Helvetica,sans-Serif" font-size="14.00">samples = 56</text>
<text text-anchor="start" x="977.5" y="-7.8" font-family="Helvetica,sans-Serif" font-size="14.00">value = &#45;0.094</text>
</g>
<!-- 9&#45;&gt;11 -->
<g id="edge11" class="edge">
<title>9&#45;&gt;11</title>
<path fill="none" stroke="black" d="M967.58,-88.95C976.96,-79.71 987.16,-69.67 996.54,-60.44"/>
<polygon fill="black" stroke="black" points="999.18,-62.75 1003.85,-53.24 994.27,-57.76 999.18,-62.75"/>
</g>
<!-- 13 -->
<g id="node14" class="node">
<title>13</title>
<path fill="#f5d1b6" stroke="black" d="M1297,-53C1297,-53 1147,-53 1147,-53 1141,-53 1135,-47 1135,-41 1135,-41 1135,-12 1135,-12 1135,-6 1141,0 1147,0 1147,0 1297,0 1297,0 1303,0 1309,-6 1309,-12 1309,-12 1309,-41 1309,-41 1309,-47 1303,-53 1297,-53"/>
<text text-anchor="start" x="1143" y="-37.8" font-family="Helvetica,sans-Serif" font-size="14.00">squared_error = 0.007</text>
<text text-anchor="start" x="1173.5" y="-22.8" font-family="Helvetica,sans-Serif" font-size="14.00">samples = 33</text>
<text text-anchor="start" x="1169.5" y="-7.8" font-family="Helvetica,sans-Serif" font-size="14.00">value = &#45;0.072</text>
</g>
<!-- 12&#45;&gt;13 -->
<g id="edge13" class="edge">
<title>12&#45;&gt;13</title>
<path fill="none" stroke="black" d="M1222,-88.95C1222,-80.72 1222,-71.85 1222,-63.48"/>
<polygon fill="black" stroke="black" points="1225.5,-63.24 1222,-53.24 1218.5,-63.24 1225.5,-63.24"/>
</g>
<!-- 14 -->
<g id="node15" class="node">
<title>14</title>
<path fill="#ffffff" stroke="black" d="M1489,-53C1489,-53 1339,-53 1339,-53 1333,-53 1327,-47 1327,-41 1327,-41 1327,-12 1327,-12 1327,-6 1333,0 1339,0 1339,0 1489,0 1489,0 1495,0 1501,-6 1501,-12 1501,-12 1501,-41 1501,-41 1501,-47 1495,-53 1489,-53"/>
<text text-anchor="start" x="1335" y="-37.8" font-family="Helvetica,sans-Serif" font-size="14.00">squared_error = 0.012</text>
<text text-anchor="start" x="1361" y="-22.8" font-family="Helvetica,sans-Serif" font-size="14.00">samples = 204</text>
<text text-anchor="start" x="1361.5" y="-7.8" font-family="Helvetica,sans-Serif" font-size="14.00">value = &#45;0.218</text>
</g>
<!-- 12&#45;&gt;14 -->
<g id="edge14" class="edge">
<title>12&#45;&gt;14</title>
<path fill="none" stroke="black" d="M1289.15,-88.95C1309.88,-78.75 1332.58,-67.57 1352.87,-57.59"/>
<polygon fill="black" stroke="black" points="1354.59,-60.64 1362.01,-53.09 1351.5,-54.36 1354.59,-60.64"/>
</g>
</g>
</svg>