<?xml version="1.0" encoding="UTF-8" standalone="no"?>
<!DOCTYPE svg PUBLIC "-//W3C//DTD SVG 1.1//EN"
 "http://www.w3.org/Graphics/SVG/1.1/DTD/svg11.dtd">
<!-- Generated by graphviz version 2.40.1 (20161225.0304)
 -->
<!-- Title: Tree Pages: 1 -->
<svg width="1110pt" height="373pt"
 viewBox="0.00 0.00 1109.50 373.00" xmlns="http://www.w3.org/2000/svg" xmlns:xlink="http://www.w3.org/1999/xlink">
<g id="graph0" class="graph" transform="scale(1 1) rotate(0) translate(4 369)">
<title>Tree</title>
<polygon fill="#ffffff" stroke="transparent" points="-4,4 -4,-369 1105.5,-369 1105.5,4 -4,4"/>
<!-- 0 -->
<g id="node1" class="node">
<title>0</title>
<path fill="#efb083" stroke="#000000" d="M600,-365C600,-365 490,-365 490,-365 484,-365 478,-359 478,-353 478,-353 478,-309 478,-309 478,-303 484,-297 490,-297 490,-297 600,-297 600,-297 606,-297 612,-303 612,-309 612,-309 612,-353 612,-353 612,-359 606,-365 600,-365"/>
<text text-anchor="start" x="504.5" y="-349.8" font-family="Helvetica,sans-Serif" font-size="14.00" fill="#000000">X1 ≤ 0.632</text>
<text text-anchor="start" x="498.5" y="-334.8" font-family="Helvetica,sans-Serif" font-size="14.00" fill="#000000">mse = 0.035</text>
<text text-anchor="start" x="486" y="-319.8" font-family="Helvetica,sans-Serif" font-size="14.00" fill="#000000">samples = 1000</text>
<text text-anchor="start" x="494.5" y="-304.8" font-family="Helvetica,sans-Serif" font-size="14.00" fill="#000000">value = 0.032</text>
</g>
<!-- 1 -->
<g id="node2" class="node">
<title>1</title>
<path fill="#e89051" stroke="#000000" d="M457.5,-261C457.5,-261 356.5,-261 356.5,-261 350.5,-261 344.5,-255 344.5,-249 344.5,-249 344.5,-205 344.5,-205 344.5,-199 350.5,-193 356.5,-193 356.5,-193 457.5,-193 457.5,-193 463.5,-193 469.5,-199 469.5,-205 469.5,-205 469.5,-249 469.5,-249 469.5,-255 463.5,-261 457.5,-261"/>
<text text-anchor="start" x="366.5" y="-245.8" font-family="Helvetica,sans-Serif" font-size="14.00" fill="#000000">X2 ≤ 0.287</text>
<text text-anchor="start" x="360.5" y="-230.8" font-family="Helvetica,sans-Serif" font-size="14.00" fill="#000000">mse = 0.016</text>
<text text-anchor="start" x="352.5" y="-215.8" font-family="Helvetica,sans-Serif" font-size="14.00" fill="#000000">samples = 633</text>
<text text-anchor="start" x="356.5" y="-200.8" font-family="Helvetica,sans-Serif" font-size="14.00" fill="#000000">value = 0.134</text>
</g>
<!-- 0&#45;&gt;1 -->
<g id="edge1" class="edge">
<title>0&#45;&gt;1</title>
<path fill="none" stroke="#000000" d="M499.8136,-296.9465C487.185,-287.4293 473.3433,-276.9978 460.2932,-267.163"/>
<polygon fill="#000000" stroke="#000000" points="462.3805,-264.3534 452.2879,-261.13 458.1675,-269.9437 462.3805,-264.3534"/>
<text text-anchor="middle" x="455.7661" y="-282.1869" font-family="Helvetica,sans-Serif" font-size="14.00" fill="#000000">True</text>
</g>
<!-- 8 -->
<g id="node9" class="node">
<title>8</title>
<path fill="#fae8db" stroke="#000000" d="M735.5,-261C735.5,-261 634.5,-261 634.5,-261 628.5,-261 622.5,-255 622.5,-249 622.5,-249 622.5,-205 622.5,-205 622.5,-199 628.5,-193 634.5,-193 634.5,-193 735.5,-193 735.5,-193 741.5,-193 747.5,-199 747.5,-205 747.5,-205 747.5,-249 747.5,-249 747.5,-255 741.5,-261 735.5,-261"/>
<text text-anchor="start" x="644.5" y="-245.8" font-family="Helvetica,sans-Serif" font-size="14.00" fill="#000000">X1 ≤ 0.739</text>
<text text-anchor="start" x="638.5" y="-230.8" font-family="Helvetica,sans-Serif" font-size="14.00" fill="#000000">mse = 0.018</text>
<text text-anchor="start" x="630.5" y="-215.8" font-family="Helvetica,sans-Serif" font-size="14.00" fill="#000000">samples = 367</text>
<text text-anchor="start" x="632" y="-200.8" font-family="Helvetica,sans-Serif" font-size="14.00" fill="#000000">value = &#45;0.144</text>
</g>
<!-- 0&#45;&gt;8 -->
<g id="edge8" class="edge">
<title>0&#45;&gt;8</title>
<path fill="none" stroke="#000000" d="M590.8412,-296.9465C603.6529,-287.4293 617.6952,-276.9978 630.9344,-267.163"/>
<polygon fill="#000000" stroke="#000000" points="633.1155,-269.9029 639.0558,-261.13 628.9412,-264.2837 633.1155,-269.9029"/>
<text text-anchor="middle" x="635.4068" y="-282.1623" font-family="Helvetica,sans-Serif" font-size="14.00" fill="#000000">False</text>
</g>
<!-- 2 -->
<g id="node3" class="node">
<title>2</title>
<path fill="#eda673" stroke="#000000" d="M247.5,-157C247.5,-157 146.5,-157 146.5,-157 140.5,-157 134.5,-151 134.5,-145 134.5,-145 134.5,-101 134.5,-101 134.5,-95 140.5,-89 146.5,-89 146.5,-89 247.5,-89 247.5,-89 253.5,-89 259.5,-95 259.5,-101 259.5,-101 259.5,-145 259.5,-145 259.5,-151 253.5,-157 247.5,-157"/>
<text text-anchor="start" x="156.5" y="-141.8" font-family="Helvetica,sans-Serif" font-size="14.00" fill="#000000">X2 ≤ 0.025</text>
<text text-anchor="start" x="150.5" y="-126.8" font-family="Helvetica,sans-Serif" font-size="14.00" fill="#000000">mse = 0.011</text>
<text text-anchor="start" x="142.5" y="-111.8" font-family="Helvetica,sans-Serif" font-size="14.00" fill="#000000">samples = 193</text>
<text text-anchor="start" x="146.5" y="-96.8" font-family="Helvetica,sans-Serif" font-size="14.00" fill="#000000">value = 0.065</text>
</g>
<!-- 1&#45;&gt;2 -->
<g id="edge2" class="edge">
<title>1&#45;&gt;2</title>
<path fill="none" stroke="#000000" d="M344.2775,-195.9374C320.5934,-184.2081 293.464,-170.7727 268.9963,-158.6553"/>
<polygon fill="#000000" stroke="#000000" points="270.2765,-155.3837 259.7619,-154.0821 267.1699,-161.6566 270.2765,-155.3837"/>
</g>
<!-- 5 -->
<g id="node6" class="node">
<title>5</title>
<path fill="#e68742" stroke="#000000" d="M457.5,-157C457.5,-157 356.5,-157 356.5,-157 350.5,-157 344.5,-151 344.5,-145 344.5,-145 344.5,-101 344.5,-101 344.5,-95 350.5,-89 356.5,-89 356.5,-89 457.5,-89 457.5,-89 463.5,-89 469.5,-95 469.5,-101 469.5,-101 469.5,-145 469.5,-145 469.5,-151 463.5,-157 457.5,-157"/>
<text text-anchor="start" x="366.5" y="-141.8" font-family="Helvetica,sans-Serif" font-size="14.00" fill="#000000">X1 ≤ 0.085</text>
<text text-anchor="start" x="360.5" y="-126.8" font-family="Helvetica,sans-Serif" font-size="14.00" fill="#000000">mse = 0.016</text>
<text text-anchor="start" x="352.5" y="-111.8" font-family="Helvetica,sans-Serif" font-size="14.00" fill="#000000">samples = 440</text>
<text text-anchor="start" x="356.5" y="-96.8" font-family="Helvetica,sans-Serif" font-size="14.00" fill="#000000">value = 0.164</text>
</g>
<!-- 1&#45;&gt;5 -->
<g id="edge5" class="edge">
<title>1&#45;&gt;5</title>
<path fill="none" stroke="#000000" d="M407,-192.9465C407,-184.776 407,-175.9318 407,-167.3697"/>
<polygon fill="#000000" stroke="#000000" points="410.5001,-167.13 407,-157.13 403.5001,-167.13 410.5001,-167.13"/>
</g>
<!-- 3 -->
<g id="node4" class="node">
<title>3</title>
<path fill="#f2c19d" stroke="#000000" d="M104,-53C104,-53 12,-53 12,-53 6,-53 0,-47 0,-41 0,-41 0,-12 0,-12 0,-6 6,0 12,0 12,0 104,0 104,0 110,0 116,-6 116,-12 116,-12 116,-41 116,-41 116,-47 110,-53 104,-53"/>
<text text-anchor="start" x="11.5" y="-37.8" font-family="Helvetica,sans-Serif" font-size="14.00" fill="#000000">mse = 0.012</text>
<text text-anchor="start" x="8" y="-22.8" font-family="Helvetica,sans-Serif" font-size="14.00" fill="#000000">samples = 25</text>
<text text-anchor="start" x="9.5" y="-7.8" font-family="Helvetica,sans-Serif" font-size="14.00" fill="#000000">value = &#45;0.02</text>
</g>
<!-- 2&#45;&gt;3 -->
<g id="edge3" class="edge">
<title>2&#45;&gt;3</title>
<path fill="none" stroke="#000000" d="M147.9938,-88.9777C134.0126,-79.2713 118.8162,-68.7213 104.9602,-59.1018"/>
<polygon fill="#000000" stroke="#000000" points="106.7394,-56.0763 96.5289,-53.2485 102.7474,-61.8264 106.7394,-56.0763"/>
</g>
<!-- 4 -->
<g id="node5" class="node">
<title>4</title>
<path fill="#eca26d" stroke="#000000" d="M247.5,-53C247.5,-53 146.5,-53 146.5,-53 140.5,-53 134.5,-47 134.5,-41 134.5,-41 134.5,-12 134.5,-12 134.5,-6 140.5,0 146.5,0 146.5,0 247.5,0 247.5,0 253.5,0 259.5,-6 259.5,-12 259.5,-12 259.5,-41 259.5,-41 259.5,-47 253.5,-53 247.5,-53"/>
<text text-anchor="start" x="155" y="-37.8" font-family="Helvetica,sans-Serif" font-size="14.00" fill="#000000">mse = 0.01</text>
<text text-anchor="start" x="142.5" y="-22.8" font-family="Helvetica,sans-Serif" font-size="14.00" fill="#000000">samples = 168</text>
<text text-anchor="start" x="146.5" y="-7.8" font-family="Helvetica,sans-Serif" font-size="14.00" fill="#000000">value = 0.078</text>
</g>
<!-- 2&#45;&gt;4 -->
<g id="edge4" class="edge">
<title>2&#45;&gt;4</title>
<path fill="none" stroke="#000000" d="M197,-88.9777C197,-80.7364 197,-71.887 197,-63.5153"/>
<polygon fill="#000000" stroke="#000000" points="200.5001,-63.2484 197,-53.2485 193.5001,-63.2485 200.5001,-63.2484"/>
</g>
<!-- 6 -->
<g id="node7" class="node">
<title>6</title>
<path fill="#eeab7b" stroke="#000000" d="M382.5,-53C382.5,-53 289.5,-53 289.5,-53 283.5,-53 277.5,-47 277.5,-41 277.5,-41 277.5,-12 277.5,-12 277.5,-6 283.5,0 289.5,0 289.5,0 382.5,0 382.5,0 388.5,0 394.5,-6 394.5,-12 394.5,-12 394.5,-41 394.5,-41 394.5,-47 388.5,-53 382.5,-53"/>
<text text-anchor="start" x="289.5" y="-37.8" font-family="Helvetica,sans-Serif" font-size="14.00" fill="#000000">mse = 0.009</text>
<text text-anchor="start" x="286" y="-22.8" font-family="Helvetica,sans-Serif" font-size="14.00" fill="#000000">samples = 58</text>
<text text-anchor="start" x="285.5" y="-7.8" font-family="Helvetica,sans-Serif" font-size="14.00" fill="#000000">value = 0.049</text>
</g>
<!-- 5&#45;&gt;6 -->
<g id="edge6" class="edge">
<title>5&#45;&gt;6</title>
<path fill="none" stroke="#000000" d="M381.9681,-88.9777C375.4329,-80.0954 368.378,-70.5067 361.8036,-61.5711"/>
<polygon fill="#000000" stroke="#000000" points="364.4257,-59.229 355.6802,-53.2485 358.7874,-63.3775 364.4257,-59.229"/>
</g>
<!-- 7 -->
<g id="node8" class="node">
<title>7</title>
<path fill="#e58139" stroke="#000000" d="M525.5,-53C525.5,-53 424.5,-53 424.5,-53 418.5,-53 412.5,-47 412.5,-41 412.5,-41 412.5,-12 412.5,-12 412.5,-6 418.5,0 424.5,0 424.5,0 525.5,0 525.5,0 531.5,0 537.5,-6 537.5,-12 537.5,-12 537.5,-41 537.5,-41 537.5,-47 531.5,-53 525.5,-53"/>
<text text-anchor="start" x="428.5" y="-37.8" font-family="Helvetica,sans-Serif" font-size="14.00" fill="#000000">mse = 0.014</text>
<text text-anchor="start" x="420.5" y="-22.8" font-family="Helvetica,sans-Serif" font-size="14.00" fill="#000000">samples = 382</text>
<text text-anchor="start" x="424.5" y="-7.8" font-family="Helvetica,sans-Serif" font-size="14.00" fill="#000000">value = 0.182</text>
</g>
<!-- 5&#45;&gt;7 -->
<g id="edge7" class="edge">
<title>5&#45;&gt;7</title>
<path fill="none" stroke="#000000" d="M430.9743,-88.9777C437.2333,-80.0954 443.9901,-70.5067 450.2867,-61.5711"/>
<polygon fill="#000000" stroke="#000000" points="453.2521,-63.4389 456.1513,-53.2485 447.5301,-59.4068 453.2521,-63.4389"/>
</g>
<!-- 9 -->
<g id="node10" class="node">
<title>9</title>
<path fill="#f4ccaf" stroke="#000000" d="M735.5,-157C735.5,-157 634.5,-157 634.5,-157 628.5,-157 622.5,-151 622.5,-145 622.5,-145 622.5,-101 622.5,-101 622.5,-95 628.5,-89 634.5,-89 634.5,-89 735.5,-89 735.5,-89 741.5,-89 747.5,-95 747.5,-101 747.5,-101 747.5,-145 747.5,-145 747.5,-151 741.5,-157 735.5,-157"/>
<text text-anchor="start" x="644.5" y="-141.8" font-family="Helvetica,sans-Serif" font-size="14.00" fill="#000000">X1 ≤ 0.681</text>
<text text-anchor="start" x="638.5" y="-126.8" font-family="Helvetica,sans-Serif" font-size="14.00" fill="#000000">mse = 0.012</text>
<text text-anchor="start" x="630.5" y="-111.8" font-family="Helvetica,sans-Serif" font-size="14.00" fill="#000000">samples = 122</text>
<text text-anchor="start" x="632" y="-96.8" font-family="Helvetica,sans-Serif" font-size="14.00" fill="#000000">value = &#45;0.055</text>
</g>
<!-- 8&#45;&gt;9 -->
<g id="edge9" class="edge">
<title>8&#45;&gt;9</title>
<path fill="none" stroke="#000000" d="M685,-192.9465C685,-184.776 685,-175.9318 685,-167.3697"/>
<polygon fill="#000000" stroke="#000000" points="688.5001,-167.13 685,-157.13 681.5001,-167.13 688.5001,-167.13"/>
</g>
<!-- 12 -->
<g id="node13" class="node">
<title>12</title>
<path fill="#fdf6f1" stroke="#000000" d="M947.5,-157C947.5,-157 846.5,-157 846.5,-157 840.5,-157 834.5,-151 834.5,-145 834.5,-145 834.5,-101 834.5,-101 834.5,-95 840.5,-89 846.5,-89 846.5,-89 947.5,-89 947.5,-89 953.5,-89 959.5,-95 959.5,-101 959.5,-101 959.5,-145 959.5,-145 959.5,-151 953.5,-157 947.5,-157"/>
<text text-anchor="start" x="856.5" y="-141.8" font-family="Helvetica,sans-Serif" font-size="14.00" fill="#000000">X2 ≤ 0.234</text>
<text text-anchor="start" x="850.5" y="-126.8" font-family="Helvetica,sans-Serif" font-size="14.00" fill="#000000">mse = 0.016</text>
<text text-anchor="start" x="842.5" y="-111.8" font-family="Helvetica,sans-Serif" font-size="14.00" fill="#000000">samples = 245</text>
<text text-anchor="start" x="844" y="-96.8" font-family="Helvetica,sans-Serif" font-size="14.00" fill="#000000">value = &#45;0.187</text>
</g>
<!-- 8&#45;&gt;12 -->
<g id="edge12" class="edge">
<title>8&#45;&gt;12</title>
<path fill="none" stroke="#000000" d="M747.7465,-196.2187C772.1049,-184.2693 800.1414,-170.5156 825.2914,-158.1778"/>
<polygon fill="#000000" stroke="#000000" points="826.9781,-161.2489 834.4145,-153.7023 823.8951,-154.9644 826.9781,-161.2489"/>
</g>
<!-- 10 -->
<g id="node11" class="node">
<title>10</title>
<path fill="#f2c19d" stroke="#000000" d="M666,-53C666,-53 568,-53 568,-53 562,-53 556,-47 556,-41 556,-41 556,-12 556,-12 556,-6 562,0 568,0 568,0 666,0 666,0 672,0 678,-6 678,-12 678,-12 678,-41 678,-41 678,-47 672,-53 666,-53"/>
<text text-anchor="start" x="570.5" y="-37.8" font-family="Helvetica,sans-Serif" font-size="14.00" fill="#000000">mse = 0.009</text>
<text text-anchor="start" x="567" y="-22.8" font-family="Helvetica,sans-Serif" font-size="14.00" fill="#000000">samples = 64</text>
<text text-anchor="start" x="564" y="-7.8" font-family="Helvetica,sans-Serif" font-size="14.00" fill="#000000">value = &#45;0.019</text>
</g>
<!-- 9&#45;&gt;10 -->
<g id="edge10" class="edge">
<title>9&#45;&gt;10</title>
<path fill="none" stroke="#000000" d="M661.0257,-88.9777C654.7667,-80.0954 648.0099,-70.5067 641.7133,-61.5711"/>
<polygon fill="#000000" stroke="#000000" points="644.4699,-59.4068 635.8487,-53.2485 638.7479,-63.4389 644.4699,-59.4068"/>
</g>
<!-- 11 -->
<g id="node12" class="node">
<title>11</title>
<path fill="#f7d9c3" stroke="#000000" d="M806,-53C806,-53 708,-53 708,-53 702,-53 696,-47 696,-41 696,-41 696,-12 696,-12 696,-6 702,0 708,0 708,0 806,0 806,0 812,0 818,-6 818,-12 818,-12 818,-41 818,-41 818,-47 812,-53 806,-53"/>
<text text-anchor="start" x="710.5" y="-37.8" font-family="Helvetica,sans-Serif" font-size="14.00" fill="#000000">mse = 0.012</text>
<text text-anchor="start" x="707" y="-22.8" font-family="Helvetica,sans-Serif" font-size="14.00" fill="#000000">samples = 58</text>
<text text-anchor="start" x="704" y="-7.8" font-family="Helvetica,sans-Serif" font-size="14.00" fill="#000000">value = &#45;0.095</text>
</g>
<!-- 9&#45;&gt;11 -->
<g id="edge11" class="edge">
<title>9&#45;&gt;11</title>
<path fill="none" stroke="#000000" d="M710.3845,-88.9777C717.08,-80.0039 724.3135,-70.3089 731.039,-61.295"/>
<polygon fill="#000000" stroke="#000000" points="733.8677,-63.3565 737.0426,-53.2485 728.2573,-59.1704 733.8677,-63.3565"/>
</g>
<!-- 13 -->
<g id="node14" class="node">
<title>13</title>
<path fill="#f7d6bf" stroke="#000000" d="M946,-53C946,-53 848,-53 848,-53 842,-53 836,-47 836,-41 836,-41 836,-12 836,-12 836,-6 842,0 848,0 848,0 946,0 946,0 952,0 958,-6 958,-12 958,-12 958,-41 958,-41 958,-47 952,-53 946,-53"/>
<text text-anchor="start" x="850.5" y="-37.8" font-family="Helvetica,sans-Serif" font-size="14.00" fill="#000000">mse = 0.013</text>
<text text-anchor="start" x="847" y="-22.8" font-family="Helvetica,sans-Serif" font-size="14.00" fill="#000000">samples = 54</text>
<text text-anchor="start" x="844" y="-7.8" font-family="Helvetica,sans-Serif" font-size="14.00" fill="#000000">value = &#45;0.087</text>
</g>
<!-- 12&#45;&gt;13 -->
<g id="edge13" class="edge">
<title>12&#45;&gt;13</title>
<path fill="none" stroke="#000000" d="M897,-88.9777C897,-80.7364 897,-71.887 897,-63.5153"/>
<polygon fill="#000000" stroke="#000000" points="900.5001,-63.2484 897,-53.2485 893.5001,-63.2485 900.5001,-63.2484"/>
</g>
<!-- 14 -->
<g id="node15" class="node">
<title>14</title>
<path fill="#ffffff" stroke="#000000" d="M1089.5,-53C1089.5,-53 988.5,-53 988.5,-53 982.5,-53 976.5,-47 976.5,-41 976.5,-41 976.5,-12 976.5,-12 976.5,-6 982.5,0 988.5,0 988.5,0 1089.5,0 1089.5,0 1095.5,0 1101.5,-6 1101.5,-12 1101.5,-12 1101.5,-41 1101.5,-41 1101.5,-47 1095.5,-53 1089.5,-53"/>
<text text-anchor="start" x="992.5" y="-37.8" font-family="Helvetica,sans-Serif" font-size="14.00" fill="#000000">mse = 0.013</text>
<text text-anchor="start" x="984.5" y="-22.8" font-family="Helvetica,sans-Serif" font-size="14.00" fill="#000000">samples = 191</text>
<text text-anchor="start" x="986" y="-7.8" font-family="Helvetica,sans-Serif" font-size="14.00" fill="#000000">value = &#45;0.216</text>
</g>
<!-- 12&#45;&gt;14 -->
<g id="edge14" class="edge">
<title>12&#45;&gt;14</title>
<path fill="none" stroke="#000000" d="M947.0639,-88.9777C961.3469,-79.2713 976.8713,-68.7213 991.0263,-59.1018"/>
<polygon fill="#000000" stroke="#000000" points="993.3359,-61.764 999.6395,-53.2485 989.4014,-55.9744 993.3359,-61.764"/>
</g>
</g>
</svg>
