<?xml version="1.0" encoding="UTF-8" standalone="no"?>
<!DOCTYPE svg PUBLIC "-//W3C//DTD SVG 1.1//EN"
 "http://www.w3.org/Graphics/SVG/1.1/DTD/svg11.dtd">
<!-- Generated by graphviz version 2.40.1 (20161225.0304)
 -->
<!-- Title: Tree Pages: 1 -->
<svg width="1108pt" height="373pt"
 viewBox="0.00 0.00 1108.00 373.00" xmlns="http://www.w3.org/2000/svg" xmlns:xlink="http://www.w3.org/1999/xlink">
<g id="graph0" class="graph" transform="scale(1 1) rotate(0) translate(4 369)">
<title>Tree</title>
<polygon fill="#ffffff" stroke="transparent" points="-4,4 -4,-369 1104,-369 1104,4 -4,4"/>
<!-- 0 -->
<g id="node1" class="node">
<title>0</title>
<path fill="#eeaf81" stroke="#000000" d="M597.5,-365C597.5,-365 487.5,-365 487.5,-365 481.5,-365 475.5,-359 475.5,-353 475.5,-353 475.5,-309 475.5,-309 475.5,-303 481.5,-297 487.5,-297 487.5,-297 597.5,-297 597.5,-297 603.5,-297 609.5,-303 609.5,-309 609.5,-309 609.5,-353 609.5,-353 609.5,-359 603.5,-365 597.5,-365"/>
<text text-anchor="start" x="502" y="-349.8" font-family="Helvetica,sans-Serif" font-size="14.00" fill="#000000">X1 ≤ 0.627</text>
<text text-anchor="start" x="496" y="-334.8" font-family="Helvetica,sans-Serif" font-size="14.00" fill="#000000">mse = 0.033</text>
<text text-anchor="start" x="483.5" y="-319.8" font-family="Helvetica,sans-Serif" font-size="14.00" fill="#000000">samples = 1000</text>
<text text-anchor="start" x="492" y="-304.8" font-family="Helvetica,sans-Serif" font-size="14.00" fill="#000000">value = 0.033</text>
</g>
<!-- 1 -->
<g id="node2" class="node">
<title>1</title>
<path fill="#e89050" stroke="#000000" d="M456,-261C456,-261 355,-261 355,-261 349,-261 343,-255 343,-249 343,-249 343,-205 343,-205 343,-199 349,-193 355,-193 355,-193 456,-193 456,-193 462,-193 468,-199 468,-205 468,-205 468,-249 468,-249 468,-255 462,-261 456,-261"/>
<text text-anchor="start" x="365" y="-245.8" font-family="Helvetica,sans-Serif" font-size="14.00" fill="#000000">X2 ≤ 0.323</text>
<text text-anchor="start" x="359" y="-230.8" font-family="Helvetica,sans-Serif" font-size="14.00" fill="#000000">mse = 0.015</text>
<text text-anchor="start" x="351" y="-215.8" font-family="Helvetica,sans-Serif" font-size="14.00" fill="#000000">samples = 633</text>
<text text-anchor="start" x="355" y="-200.8" font-family="Helvetica,sans-Serif" font-size="14.00" fill="#000000">value = 0.133</text>
</g>
<!-- 0&#45;&gt;1 -->
<g id="edge1" class="edge">
<title>0&#45;&gt;1</title>
<path fill="none" stroke="#000000" d="M497.6411,-296.9465C485.2222,-287.519 471.6217,-277.1946 458.7739,-267.4415"/>
<polygon fill="#000000" stroke="#000000" points="460.541,-264.3887 450.4597,-261.13 456.3085,-269.9642 460.541,-264.3887"/>
<text text-anchor="middle" x="453.8513" y="-282.1989" font-family="Helvetica,sans-Serif" font-size="14.00" fill="#000000">True</text>
</g>
<!-- 8 -->
<g id="node9" class="node">
<title>8</title>
<path fill="#f9e4d5" stroke="#000000" d="M734,-261C734,-261 633,-261 633,-261 627,-261 621,-255 621,-249 621,-249 621,-205 621,-205 621,-199 627,-193 633,-193 633,-193 734,-193 734,-193 740,-193 746,-199 746,-205 746,-205 746,-249 746,-249 746,-255 740,-261 734,-261"/>
<text text-anchor="start" x="643" y="-245.8" font-family="Helvetica,sans-Serif" font-size="14.00" fill="#000000">X1 ≤ 0.728</text>
<text text-anchor="start" x="637" y="-230.8" font-family="Helvetica,sans-Serif" font-size="14.00" fill="#000000">mse = 0.017</text>
<text text-anchor="start" x="629" y="-215.8" font-family="Helvetica,sans-Serif" font-size="14.00" fill="#000000">samples = 367</text>
<text text-anchor="start" x="635" y="-200.8" font-family="Helvetica,sans-Serif" font-size="14.00" fill="#000000">value = &#45;0.14</text>
</g>
<!-- 0&#45;&gt;8 -->
<g id="edge8" class="edge">
<title>0&#45;&gt;8</title>
<path fill="none" stroke="#000000" d="M588.6687,-296.9465C601.5719,-287.4293 615.7145,-276.9978 629.0483,-267.163"/>
<polygon fill="#000000" stroke="#000000" points="631.2575,-269.8826 637.2276,-261.13 627.1023,-264.2492 631.2575,-269.8826"/>
<text text-anchor="middle" x="633.4944" y="-282.1497" font-family="Helvetica,sans-Serif" font-size="14.00" fill="#000000">False</text>
</g>
<!-- 2 -->
<g id="node3" class="node">
<title>2</title>
<path fill="#eca36e" stroke="#000000" d="M248,-157C248,-157 147,-157 147,-157 141,-157 135,-151 135,-145 135,-145 135,-101 135,-101 135,-95 141,-89 147,-89 147,-89 248,-89 248,-89 254,-89 260,-95 260,-101 260,-101 260,-145 260,-145 260,-151 254,-157 248,-157"/>
<text text-anchor="start" x="157" y="-141.8" font-family="Helvetica,sans-Serif" font-size="14.00" fill="#000000">X2 ≤ 0.078</text>
<text text-anchor="start" x="151" y="-126.8" font-family="Helvetica,sans-Serif" font-size="14.00" fill="#000000">mse = 0.011</text>
<text text-anchor="start" x="143" y="-111.8" font-family="Helvetica,sans-Serif" font-size="14.00" fill="#000000">samples = 212</text>
<text text-anchor="start" x="147" y="-96.8" font-family="Helvetica,sans-Serif" font-size="14.00" fill="#000000">value = 0.073</text>
</g>
<!-- 1&#45;&gt;2 -->
<g id="edge2" class="edge">
<title>1&#45;&gt;2</title>
<path fill="none" stroke="#000000" d="M342.8111,-195.6555C319.5824,-184.0412 293.0706,-170.7853 269.1076,-158.8038"/>
<polygon fill="#000000" stroke="#000000" points="270.5701,-155.622 260.0605,-154.2803 267.4395,-161.883 270.5701,-155.622"/>
</g>
<!-- 5 -->
<g id="node6" class="node">
<title>5</title>
<path fill="#e68642" stroke="#000000" d="M456,-157C456,-157 355,-157 355,-157 349,-157 343,-151 343,-145 343,-145 343,-101 343,-101 343,-95 349,-89 355,-89 355,-89 456,-89 456,-89 462,-89 468,-95 468,-101 468,-101 468,-145 468,-145 468,-151 462,-157 456,-157"/>
<text text-anchor="start" x="365" y="-141.8" font-family="Helvetica,sans-Serif" font-size="14.00" fill="#000000">X1 ≤ 0.072</text>
<text text-anchor="start" x="359" y="-126.8" font-family="Helvetica,sans-Serif" font-size="14.00" fill="#000000">mse = 0.014</text>
<text text-anchor="start" x="351" y="-111.8" font-family="Helvetica,sans-Serif" font-size="14.00" fill="#000000">samples = 421</text>
<text text-anchor="start" x="355" y="-96.8" font-family="Helvetica,sans-Serif" font-size="14.00" fill="#000000">value = 0.164</text>
</g>
<!-- 1&#45;&gt;5 -->
<g id="edge5" class="edge">
<title>1&#45;&gt;5</title>
<path fill="none" stroke="#000000" d="M405.5,-192.9465C405.5,-184.776 405.5,-175.9318 405.5,-167.3697"/>
<polygon fill="#000000" stroke="#000000" points="409.0001,-167.13 405.5,-157.13 402.0001,-167.13 409.0001,-167.13"/>
</g>
<!-- 3 -->
<g id="node4" class="node">
<title>3</title>
<path fill="#eeaf81" stroke="#000000" d="M105,-53C105,-53 12,-53 12,-53 6,-53 0,-47 0,-41 0,-41 0,-12 0,-12 0,-6 6,0 12,0 12,0 105,0 105,0 111,0 117,-6 117,-12 117,-12 117,-41 117,-41 117,-47 111,-53 105,-53"/>
<text text-anchor="start" x="12" y="-37.8" font-family="Helvetica,sans-Serif" font-size="14.00" fill="#000000">mse = 0.009</text>
<text text-anchor="start" x="8.5" y="-22.8" font-family="Helvetica,sans-Serif" font-size="14.00" fill="#000000">samples = 61</text>
<text text-anchor="start" x="8" y="-7.8" font-family="Helvetica,sans-Serif" font-size="14.00" fill="#000000">value = 0.033</text>
</g>
<!-- 2&#45;&gt;3 -->
<g id="edge3" class="edge">
<title>2&#45;&gt;3</title>
<path fill="none" stroke="#000000" d="M148.4938,-88.9777C134.5126,-79.2713 119.3162,-68.7213 105.4602,-59.1018"/>
<polygon fill="#000000" stroke="#000000" points="107.2394,-56.0763 97.0289,-53.2485 103.2474,-61.8264 107.2394,-56.0763"/>
</g>
<!-- 4 -->
<g id="node5" class="node">
<title>4</title>
<path fill="#eb9e66" stroke="#000000" d="M248,-53C248,-53 147,-53 147,-53 141,-53 135,-47 135,-41 135,-41 135,-12 135,-12 135,-6 141,0 147,0 147,0 248,0 248,0 254,0 260,-6 260,-12 260,-12 260,-41 260,-41 260,-47 254,-53 248,-53"/>
<text text-anchor="start" x="155.5" y="-37.8" font-family="Helvetica,sans-Serif" font-size="14.00" fill="#000000">mse = 0.01</text>
<text text-anchor="start" x="143" y="-22.8" font-family="Helvetica,sans-Serif" font-size="14.00" fill="#000000">samples = 151</text>
<text text-anchor="start" x="147" y="-7.8" font-family="Helvetica,sans-Serif" font-size="14.00" fill="#000000">value = 0.089</text>
</g>
<!-- 2&#45;&gt;4 -->
<g id="edge4" class="edge">
<title>2&#45;&gt;4</title>
<path fill="none" stroke="#000000" d="M197.5,-88.9777C197.5,-80.7364 197.5,-71.887 197.5,-63.5153"/>
<polygon fill="#000000" stroke="#000000" points="201.0001,-63.2484 197.5,-53.2485 194.0001,-63.2485 201.0001,-63.2484"/>
</g>
<!-- 6 -->
<g id="node7" class="node">
<title>6</title>
<path fill="#eeab7b" stroke="#000000" d="M383,-53C383,-53 290,-53 290,-53 284,-53 278,-47 278,-41 278,-41 278,-12 278,-12 278,-6 284,0 290,0 290,0 383,0 383,0 389,0 395,-6 395,-12 395,-12 395,-41 395,-41 395,-47 389,-53 383,-53"/>
<text text-anchor="start" x="290" y="-37.8" font-family="Helvetica,sans-Serif" font-size="14.00" fill="#000000">mse = 0.012</text>
<text text-anchor="start" x="286.5" y="-22.8" font-family="Helvetica,sans-Serif" font-size="14.00" fill="#000000">samples = 55</text>
<text text-anchor="start" x="286" y="-7.8" font-family="Helvetica,sans-Serif" font-size="14.00" fill="#000000">value = 0.046</text>
</g>
<!-- 5&#45;&gt;6 -->
<g id="edge6" class="edge">
<title>5&#45;&gt;6</title>
<path fill="none" stroke="#000000" d="M381.1732,-88.9777C374.8221,-80.0954 367.966,-70.5067 361.5768,-61.5711"/>
<polygon fill="#000000" stroke="#000000" points="364.2893,-59.3472 355.6259,-53.2485 358.5952,-63.4187 364.2893,-59.3472"/>
</g>
<!-- 7 -->
<g id="node8" class="node">
<title>7</title>
<path fill="#e58139" stroke="#000000" d="M526,-53C526,-53 425,-53 425,-53 419,-53 413,-47 413,-41 413,-41 413,-12 413,-12 413,-6 419,0 425,0 425,0 526,0 526,0 532,0 538,-6 538,-12 538,-12 538,-41 538,-41 538,-47 532,-53 526,-53"/>
<text text-anchor="start" x="429" y="-37.8" font-family="Helvetica,sans-Serif" font-size="14.00" fill="#000000">mse = 0.012</text>
<text text-anchor="start" x="421" y="-22.8" font-family="Helvetica,sans-Serif" font-size="14.00" fill="#000000">samples = 366</text>
<text text-anchor="start" x="425" y="-7.8" font-family="Helvetica,sans-Serif" font-size="14.00" fill="#000000">value = 0.182</text>
</g>
<!-- 5&#45;&gt;7 -->
<g id="edge7" class="edge">
<title>5&#45;&gt;7</title>
<path fill="none" stroke="#000000" d="M430.1794,-88.9777C436.6225,-80.0954 443.578,-70.5067 450.0598,-61.5711"/>
<polygon fill="#000000" stroke="#000000" points="453.0583,-63.3982 456.097,-53.2485 447.3921,-59.288 453.0583,-63.3982"/>
</g>
<!-- 9 -->
<g id="node10" class="node">
<title>9</title>
<path fill="#f4c9aa" stroke="#000000" d="M734,-157C734,-157 633,-157 633,-157 627,-157 621,-151 621,-145 621,-145 621,-101 621,-101 621,-95 627,-89 633,-89 633,-89 734,-89 734,-89 740,-89 746,-95 746,-101 746,-101 746,-145 746,-145 746,-151 740,-157 734,-157"/>
<text text-anchor="start" x="643" y="-141.8" font-family="Helvetica,sans-Serif" font-size="14.00" fill="#000000">X2 ≤ 0.077</text>
<text text-anchor="start" x="637" y="-126.8" font-family="Helvetica,sans-Serif" font-size="14.00" fill="#000000">mse = 0.012</text>
<text text-anchor="start" x="629" y="-111.8" font-family="Helvetica,sans-Serif" font-size="14.00" fill="#000000">samples = 111</text>
<text text-anchor="start" x="630.5" y="-96.8" font-family="Helvetica,sans-Serif" font-size="14.00" fill="#000000">value = &#45;0.052</text>
</g>
<!-- 8&#45;&gt;9 -->
<g id="edge9" class="edge">
<title>8&#45;&gt;9</title>
<path fill="none" stroke="#000000" d="M683.5,-192.9465C683.5,-184.776 683.5,-175.9318 683.5,-167.3697"/>
<polygon fill="#000000" stroke="#000000" points="687.0001,-167.13 683.5,-157.13 680.0001,-167.13 687.0001,-167.13"/>
</g>
<!-- 12 -->
<g id="node13" class="node">
<title>12</title>
<path fill="#fcf0e7" stroke="#000000" d="M946,-157C946,-157 845,-157 845,-157 839,-157 833,-151 833,-145 833,-145 833,-101 833,-101 833,-95 839,-89 845,-89 845,-89 946,-89 946,-89 952,-89 958,-95 958,-101 958,-101 958,-145 958,-145 958,-151 952,-157 946,-157"/>
<text text-anchor="start" x="855" y="-141.8" font-family="Helvetica,sans-Serif" font-size="14.00" fill="#000000">X2 ≤ 0.367</text>
<text text-anchor="start" x="849" y="-126.8" font-family="Helvetica,sans-Serif" font-size="14.00" fill="#000000">mse = 0.015</text>
<text text-anchor="start" x="841" y="-111.8" font-family="Helvetica,sans-Serif" font-size="14.00" fill="#000000">samples = 256</text>
<text text-anchor="start" x="842.5" y="-96.8" font-family="Helvetica,sans-Serif" font-size="14.00" fill="#000000">value = &#45;0.178</text>
</g>
<!-- 8&#45;&gt;12 -->
<g id="edge12" class="edge">
<title>8&#45;&gt;12</title>
<path fill="none" stroke="#000000" d="M746.2465,-196.2187C770.6049,-184.2693 798.6414,-170.5156 823.7914,-158.1778"/>
<polygon fill="#000000" stroke="#000000" points="825.4781,-161.2489 832.9145,-153.7023 822.3951,-154.9644 825.4781,-161.2489"/>
</g>
<!-- 10 -->
<g id="node11" class="node">
<title>10</title>
<path fill="#eca16b" stroke="#000000" d="M661,-53C661,-53 568,-53 568,-53 562,-53 556,-47 556,-41 556,-41 556,-12 556,-12 556,-6 562,0 568,0 568,0 661,0 661,0 667,0 673,-6 673,-12 673,-12 673,-41 673,-41 673,-47 667,-53 661,-53"/>
<text text-anchor="start" x="568" y="-37.8" font-family="Helvetica,sans-Serif" font-size="14.00" fill="#000000">mse = 0.002</text>
<text text-anchor="start" x="569" y="-22.8" font-family="Helvetica,sans-Serif" font-size="14.00" fill="#000000">samples = 7</text>
<text text-anchor="start" x="564" y="-7.8" font-family="Helvetica,sans-Serif" font-size="14.00" fill="#000000">value = 0.079</text>
</g>
<!-- 9&#45;&gt;10 -->
<g id="edge10" class="edge">
<title>9&#45;&gt;10</title>
<path fill="none" stroke="#000000" d="M659.1732,-88.9777C652.8221,-80.0954 645.966,-70.5067 639.5768,-61.5711"/>
<polygon fill="#000000" stroke="#000000" points="642.2893,-59.3472 633.6259,-53.2485 636.5952,-63.4187 642.2893,-59.3472"/>
</g>
<!-- 11 -->
<g id="node12" class="node">
<title>11</title>
<path fill="#f4ccae" stroke="#000000" d="M804,-53C804,-53 703,-53 703,-53 697,-53 691,-47 691,-41 691,-41 691,-12 691,-12 691,-6 697,0 703,0 703,0 804,0 804,0 810,0 816,-6 816,-12 816,-12 816,-41 816,-41 816,-47 810,-53 804,-53"/>
<text text-anchor="start" x="707" y="-37.8" font-family="Helvetica,sans-Serif" font-size="14.00" fill="#000000">mse = 0.011</text>
<text text-anchor="start" x="699" y="-22.8" font-family="Helvetica,sans-Serif" font-size="14.00" fill="#000000">samples = 104</text>
<text text-anchor="start" x="705" y="-7.8" font-family="Helvetica,sans-Serif" font-size="14.00" fill="#000000">value = &#45;0.06</text>
</g>
<!-- 9&#45;&gt;11 -->
<g id="edge11" class="edge">
<title>9&#45;&gt;11</title>
<path fill="none" stroke="#000000" d="M708.1794,-88.9777C714.6225,-80.0954 721.578,-70.5067 728.0598,-61.5711"/>
<polygon fill="#000000" stroke="#000000" points="731.0583,-63.3982 734.097,-53.2485 725.3921,-59.288 731.0583,-63.3982"/>
</g>
<!-- 13 -->
<g id="node14" class="node">
<title>13</title>
<path fill="#f7d8c1" stroke="#000000" d="M944.5,-53C944.5,-53 846.5,-53 846.5,-53 840.5,-53 834.5,-47 834.5,-41 834.5,-41 834.5,-12 834.5,-12 834.5,-6 840.5,0 846.5,0 846.5,0 944.5,0 944.5,0 950.5,0 956.5,-6 956.5,-12 956.5,-12 956.5,-41 956.5,-41 956.5,-47 950.5,-53 944.5,-53"/>
<text text-anchor="start" x="849" y="-37.8" font-family="Helvetica,sans-Serif" font-size="14.00" fill="#000000">mse = 0.011</text>
<text text-anchor="start" x="845.5" y="-22.8" font-family="Helvetica,sans-Serif" font-size="14.00" fill="#000000">samples = 98</text>
<text text-anchor="start" x="842.5" y="-7.8" font-family="Helvetica,sans-Serif" font-size="14.00" fill="#000000">value = &#45;0.099</text>
</g>
<!-- 12&#45;&gt;13 -->
<g id="edge13" class="edge">
<title>12&#45;&gt;13</title>
<path fill="none" stroke="#000000" d="M895.5,-88.9777C895.5,-80.7364 895.5,-71.887 895.5,-63.5153"/>
<polygon fill="#000000" stroke="#000000" points="899.0001,-63.2484 895.5,-53.2485 892.0001,-63.2485 899.0001,-63.2484"/>
</g>
<!-- 14 -->
<g id="node15" class="node">
<title>14</title>
<path fill="#ffffff" stroke="#000000" d="M1088,-53C1088,-53 987,-53 987,-53 981,-53 975,-47 975,-41 975,-41 975,-12 975,-12 975,-6 981,0 987,0 987,0 1088,0 1088,0 1094,0 1100,-6 1100,-12 1100,-12 1100,-41 1100,-41 1100,-47 1094,-53 1088,-53"/>
<text text-anchor="start" x="991" y="-37.8" font-family="Helvetica,sans-Serif" font-size="14.00" fill="#000000">mse = 0.011</text>
<text text-anchor="start" x="983" y="-22.8" font-family="Helvetica,sans-Serif" font-size="14.00" fill="#000000">samples = 158</text>
<text text-anchor="start" x="984.5" y="-7.8" font-family="Helvetica,sans-Serif" font-size="14.00" fill="#000000">value = &#45;0.227</text>
</g>
<!-- 12&#45;&gt;14 -->
<g id="edge14" class="edge">
<title>12&#45;&gt;14</title>
<path fill="none" stroke="#000000" d="M945.5639,-88.9777C959.8469,-79.2713 975.3713,-68.7213 989.5263,-59.1018"/>
<polygon fill="#000000" stroke="#000000" points="991.8359,-61.764 998.1395,-53.2485 987.9014,-55.9744 991.8359,-61.764"/>
</g>
</g>
</svg>
