<?xml version="1.0" encoding="UTF-8" standalone="no"?>
<!DOCTYPE svg PUBLIC "-//W3C//DTD SVG 1.1//EN"
 "http://www.w3.org/Graphics/SVG/1.1/DTD/svg11.dtd">
<!-- Generated by graphviz version 2.40.1 (20161225.0304)
 -->
<!-- Title: Tree Pages: 1 -->
<svg width="1122pt" height="373pt"
 viewBox="0.00 0.00 1122.00 373.00" xmlns="http://www.w3.org/2000/svg" xmlns:xlink="http://www.w3.org/1999/xlink">
<g id="graph0" class="graph" transform="scale(1 1) rotate(0) translate(4 369)">
<title>Tree</title>
<polygon fill="#ffffff" stroke="transparent" points="-4,4 -4,-369 1118,-369 1118,4 -4,4"/>
<!-- 0 -->
<g id="node1" class="node">
<title>0</title>
<path fill="#eeae80" stroke="#000000" d="M608.5,-365C608.5,-365 498.5,-365 498.5,-365 492.5,-365 486.5,-359 486.5,-353 486.5,-353 486.5,-309 486.5,-309 486.5,-303 492.5,-297 498.5,-297 498.5,-297 608.5,-297 608.5,-297 614.5,-297 620.5,-303 620.5,-309 620.5,-309 620.5,-353 620.5,-353 620.5,-359 614.5,-365 608.5,-365"/>
<text text-anchor="start" x="513" y="-349.8" font-family="Helvetica,sans-Serif" font-size="14.00" fill="#000000">X1 ≤ 0.631</text>
<text text-anchor="start" x="507" y="-334.8" font-family="Helvetica,sans-Serif" font-size="14.00" fill="#000000">mse = 0.032</text>
<text text-anchor="start" x="494.5" y="-319.8" font-family="Helvetica,sans-Serif" font-size="14.00" fill="#000000">samples = 1000</text>
<text text-anchor="start" x="503" y="-304.8" font-family="Helvetica,sans-Serif" font-size="14.00" fill="#000000">value = 0.034</text>
</g>
<!-- 1 -->
<g id="node2" class="node">
<title>1</title>
<path fill="#e89051" stroke="#000000" d="M466,-261C466,-261 365,-261 365,-261 359,-261 353,-255 353,-249 353,-249 353,-205 353,-205 353,-199 359,-193 365,-193 365,-193 466,-193 466,-193 472,-193 478,-199 478,-205 478,-205 478,-249 478,-249 478,-255 472,-261 466,-261"/>
<text text-anchor="start" x="375" y="-245.8" font-family="Helvetica,sans-Serif" font-size="14.00" fill="#000000">X1 ≤ 0.513</text>
<text text-anchor="start" x="369" y="-230.8" font-family="Helvetica,sans-Serif" font-size="14.00" fill="#000000">mse = 0.016</text>
<text text-anchor="start" x="361" y="-215.8" font-family="Helvetica,sans-Serif" font-size="14.00" fill="#000000">samples = 641</text>
<text text-anchor="start" x="369.5" y="-200.8" font-family="Helvetica,sans-Serif" font-size="14.00" fill="#000000">value = 0.13</text>
</g>
<!-- 0&#45;&gt;1 -->
<g id="edge1" class="edge">
<title>0&#45;&gt;1</title>
<path fill="none" stroke="#000000" d="M508.3136,-296.9465C495.685,-287.4293 481.8433,-276.9978 468.7932,-267.163"/>
<polygon fill="#000000" stroke="#000000" points="470.8805,-264.3534 460.7879,-261.13 466.6675,-269.9437 470.8805,-264.3534"/>
<text text-anchor="middle" x="464.2661" y="-282.1869" font-family="Helvetica,sans-Serif" font-size="14.00" fill="#000000">True</text>
</g>
<!-- 8 -->
<g id="node9" class="node">
<title>8</title>
<path fill="#fae4d5" stroke="#000000" d="M746,-261C746,-261 645,-261 645,-261 639,-261 633,-255 633,-249 633,-249 633,-205 633,-205 633,-199 639,-193 645,-193 645,-193 746,-193 746,-193 752,-193 758,-199 758,-205 758,-205 758,-249 758,-249 758,-255 752,-261 746,-261"/>
<text text-anchor="start" x="655" y="-245.8" font-family="Helvetica,sans-Serif" font-size="14.00" fill="#000000">X1 ≤ 0.781</text>
<text text-anchor="start" x="649" y="-230.8" font-family="Helvetica,sans-Serif" font-size="14.00" fill="#000000">mse = 0.016</text>
<text text-anchor="start" x="641" y="-215.8" font-family="Helvetica,sans-Serif" font-size="14.00" fill="#000000">samples = 359</text>
<text text-anchor="start" x="642.5" y="-200.8" font-family="Helvetica,sans-Serif" font-size="14.00" fill="#000000">value = &#45;0.139</text>
</g>
<!-- 0&#45;&gt;8 -->
<g id="edge8" class="edge">
<title>0&#45;&gt;8</title>
<path fill="none" stroke="#000000" d="M599.9961,-296.9465C612.9908,-287.4293 627.2337,-276.9978 640.6621,-267.163"/>
<polygon fill="#000000" stroke="#000000" points="642.8998,-269.8624 648.8994,-261.13 638.7637,-264.2151 642.8998,-269.8624"/>
<text text-anchor="middle" x="645.0829" y="-282.137" font-family="Helvetica,sans-Serif" font-size="14.00" fill="#000000">False</text>
</g>
<!-- 2 -->
<g id="node3" class="node">
<title>2</title>
<path fill="#e78a48" stroke="#000000" d="M256,-157C256,-157 155,-157 155,-157 149,-157 143,-151 143,-145 143,-145 143,-101 143,-101 143,-95 149,-89 155,-89 155,-89 256,-89 256,-89 262,-89 268,-95 268,-101 268,-101 268,-145 268,-145 268,-151 262,-157 256,-157"/>
<text text-anchor="start" x="165" y="-141.8" font-family="Helvetica,sans-Serif" font-size="14.00" fill="#000000">X1 ≤ 0.149</text>
<text text-anchor="start" x="159" y="-126.8" font-family="Helvetica,sans-Serif" font-size="14.00" fill="#000000">mse = 0.015</text>
<text text-anchor="start" x="151" y="-111.8" font-family="Helvetica,sans-Serif" font-size="14.00" fill="#000000">samples = 511</text>
<text text-anchor="start" x="159.5" y="-96.8" font-family="Helvetica,sans-Serif" font-size="14.00" fill="#000000">value = 0.15</text>
</g>
<!-- 1&#45;&gt;2 -->
<g id="edge2" class="edge">
<title>1&#45;&gt;2</title>
<path fill="none" stroke="#000000" d="M352.7775,-195.9374C329.0934,-184.2081 301.964,-170.7727 277.4963,-158.6553"/>
<polygon fill="#000000" stroke="#000000" points="278.7765,-155.3837 268.2619,-154.0821 275.6699,-161.6566 278.7765,-155.3837"/>
</g>
<!-- 5 -->
<g id="node6" class="node">
<title>5</title>
<path fill="#eda876" stroke="#000000" d="M466,-157C466,-157 365,-157 365,-157 359,-157 353,-151 353,-145 353,-145 353,-101 353,-101 353,-95 359,-89 365,-89 365,-89 466,-89 466,-89 472,-89 478,-95 478,-101 478,-101 478,-145 478,-145 478,-151 472,-157 466,-157"/>
<text text-anchor="start" x="375" y="-141.8" font-family="Helvetica,sans-Serif" font-size="14.00" fill="#000000">X2 ≤ 0.157</text>
<text text-anchor="start" x="373.5" y="-126.8" font-family="Helvetica,sans-Serif" font-size="14.00" fill="#000000">mse = 0.01</text>
<text text-anchor="start" x="361" y="-111.8" font-family="Helvetica,sans-Serif" font-size="14.00" fill="#000000">samples = 130</text>
<text text-anchor="start" x="365" y="-96.8" font-family="Helvetica,sans-Serif" font-size="14.00" fill="#000000">value = 0.055</text>
</g>
<!-- 1&#45;&gt;5 -->
<g id="edge5" class="edge">
<title>1&#45;&gt;5</title>
<path fill="none" stroke="#000000" d="M415.5,-192.9465C415.5,-184.776 415.5,-175.9318 415.5,-167.3697"/>
<polygon fill="#000000" stroke="#000000" points="419.0001,-167.13 415.5,-157.13 412.0001,-167.13 419.0001,-167.13"/>
</g>
<!-- 3 -->
<g id="node4" class="node">
<title>3</title>
<path fill="#eca26c" stroke="#000000" d="M113,-53C113,-53 12,-53 12,-53 6,-53 0,-47 0,-41 0,-41 0,-12 0,-12 0,-6 6,0 12,0 12,0 113,0 113,0 119,0 125,-6 125,-12 125,-12 125,-41 125,-41 125,-47 119,-53 113,-53"/>
<text text-anchor="start" x="16" y="-37.8" font-family="Helvetica,sans-Serif" font-size="14.00" fill="#000000">mse = 0.013</text>
<text text-anchor="start" x="8" y="-22.8" font-family="Helvetica,sans-Serif" font-size="14.00" fill="#000000">samples = 146</text>
<text text-anchor="start" x="12" y="-7.8" font-family="Helvetica,sans-Serif" font-size="14.00" fill="#000000">value = 0.075</text>
</g>
<!-- 2&#45;&gt;3 -->
<g id="edge3" class="edge">
<title>2&#45;&gt;3</title>
<path fill="none" stroke="#000000" d="M155.0835,-88.9777C140.7,-79.2713 125.0663,-68.7213 110.8115,-59.1018"/>
<polygon fill="#000000" stroke="#000000" points="112.3846,-55.941 102.1376,-53.2485 108.469,-61.7435 112.3846,-55.941"/>
</g>
<!-- 4 -->
<g id="node5" class="node">
<title>4</title>
<path fill="#e58139" stroke="#000000" d="M256,-53C256,-53 155,-53 155,-53 149,-53 143,-47 143,-41 143,-41 143,-12 143,-12 143,-6 149,0 155,0 155,0 256,0 256,0 262,0 268,-6 268,-12 268,-12 268,-41 268,-41 268,-47 262,-53 256,-53"/>
<text text-anchor="start" x="159" y="-37.8" font-family="Helvetica,sans-Serif" font-size="14.00" fill="#000000">mse = 0.013</text>
<text text-anchor="start" x="151" y="-22.8" font-family="Helvetica,sans-Serif" font-size="14.00" fill="#000000">samples = 365</text>
<text text-anchor="start" x="155" y="-7.8" font-family="Helvetica,sans-Serif" font-size="14.00" fill="#000000">value = 0.179</text>
</g>
<!-- 2&#45;&gt;4 -->
<g id="edge4" class="edge">
<title>2&#45;&gt;4</title>
<path fill="none" stroke="#000000" d="M205.5,-88.9777C205.5,-80.7364 205.5,-71.887 205.5,-63.5153"/>
<polygon fill="#000000" stroke="#000000" points="209.0001,-63.2484 205.5,-53.2485 202.0001,-63.2485 209.0001,-63.2484"/>
</g>
<!-- 6 -->
<g id="node7" class="node">
<title>6</title>
<path fill="#f0b88f" stroke="#000000" d="M391,-53C391,-53 298,-53 298,-53 292,-53 286,-47 286,-41 286,-41 286,-12 286,-12 286,-6 292,0 298,0 298,0 391,0 391,0 397,0 403,-6 403,-12 403,-12 403,-41 403,-41 403,-47 397,-53 391,-53"/>
<text text-anchor="start" x="302.5" y="-37.8" font-family="Helvetica,sans-Serif" font-size="14.00" fill="#000000">mse = 0.01</text>
<text text-anchor="start" x="294.5" y="-22.8" font-family="Helvetica,sans-Serif" font-size="14.00" fill="#000000">samples = 26</text>
<text text-anchor="start" x="294" y="-7.8" font-family="Helvetica,sans-Serif" font-size="14.00" fill="#000000">value = 0.005</text>
</g>
<!-- 5&#45;&gt;6 -->
<g id="edge6" class="edge">
<title>5&#45;&gt;6</title>
<path fill="none" stroke="#000000" d="M390.4681,-88.9777C383.9329,-80.0954 376.878,-70.5067 370.3036,-61.5711"/>
<polygon fill="#000000" stroke="#000000" points="372.9257,-59.229 364.1802,-53.2485 367.2874,-63.3775 372.9257,-59.229"/>
</g>
<!-- 7 -->
<g id="node8" class="node">
<title>7</title>
<path fill="#eca470" stroke="#000000" d="M534,-53C534,-53 433,-53 433,-53 427,-53 421,-47 421,-41 421,-41 421,-12 421,-12 421,-6 427,0 433,0 433,0 534,0 534,0 540,0 546,-6 546,-12 546,-12 546,-41 546,-41 546,-47 540,-53 534,-53"/>
<text text-anchor="start" x="441.5" y="-37.8" font-family="Helvetica,sans-Serif" font-size="14.00" fill="#000000">mse = 0.01</text>
<text text-anchor="start" x="429" y="-22.8" font-family="Helvetica,sans-Serif" font-size="14.00" fill="#000000">samples = 104</text>
<text text-anchor="start" x="433" y="-7.8" font-family="Helvetica,sans-Serif" font-size="14.00" fill="#000000">value = 0.068</text>
</g>
<!-- 5&#45;&gt;7 -->
<g id="edge7" class="edge">
<title>5&#45;&gt;7</title>
<path fill="none" stroke="#000000" d="M439.4743,-88.9777C445.7333,-80.0954 452.4901,-70.5067 458.7867,-61.5711"/>
<polygon fill="#000000" stroke="#000000" points="461.7521,-63.4389 464.6513,-53.2485 456.0301,-59.4068 461.7521,-63.4389"/>
</g>
<!-- 9 -->
<g id="node10" class="node">
<title>9</title>
<path fill="#f5cfb3" stroke="#000000" d="M746,-157C746,-157 645,-157 645,-157 639,-157 633,-151 633,-145 633,-145 633,-101 633,-101 633,-95 639,-89 645,-89 645,-89 746,-89 746,-89 752,-89 758,-95 758,-101 758,-101 758,-145 758,-145 758,-151 752,-157 746,-157"/>
<text text-anchor="start" x="655" y="-141.8" font-family="Helvetica,sans-Serif" font-size="14.00" fill="#000000">X1 ≤ 0.666</text>
<text text-anchor="start" x="649" y="-126.8" font-family="Helvetica,sans-Serif" font-size="14.00" fill="#000000">mse = 0.011</text>
<text text-anchor="start" x="641" y="-111.8" font-family="Helvetica,sans-Serif" font-size="14.00" fill="#000000">samples = 141</text>
<text text-anchor="start" x="642.5" y="-96.8" font-family="Helvetica,sans-Serif" font-size="14.00" fill="#000000">value = &#45;0.069</text>
</g>
<!-- 8&#45;&gt;9 -->
<g id="edge9" class="edge">
<title>8&#45;&gt;9</title>
<path fill="none" stroke="#000000" d="M695.5,-192.9465C695.5,-184.776 695.5,-175.9318 695.5,-167.3697"/>
<polygon fill="#000000" stroke="#000000" points="699.0001,-167.13 695.5,-157.13 692.0001,-167.13 699.0001,-167.13"/>
</g>
<!-- 12 -->
<g id="node13" class="node">
<title>12</title>
<path fill="#fcf2eb" stroke="#000000" d="M960,-157C960,-157 859,-157 859,-157 853,-157 847,-151 847,-145 847,-145 847,-101 847,-101 847,-95 853,-89 859,-89 859,-89 960,-89 960,-89 966,-89 972,-95 972,-101 972,-101 972,-145 972,-145 972,-151 966,-157 960,-157"/>
<text text-anchor="start" x="869" y="-141.8" font-family="Helvetica,sans-Serif" font-size="14.00" fill="#000000">X2 ≤ 0.281</text>
<text text-anchor="start" x="863" y="-126.8" font-family="Helvetica,sans-Serif" font-size="14.00" fill="#000000">mse = 0.014</text>
<text text-anchor="start" x="855" y="-111.8" font-family="Helvetica,sans-Serif" font-size="14.00" fill="#000000">samples = 218</text>
<text text-anchor="start" x="856.5" y="-96.8" font-family="Helvetica,sans-Serif" font-size="14.00" fill="#000000">value = &#45;0.184</text>
</g>
<!-- 8&#45;&gt;12 -->
<g id="edge12" class="edge">
<title>8&#45;&gt;12</title>
<path fill="none" stroke="#000000" d="M758.2611,-196.4993C783.0852,-184.4352 811.7651,-170.4973 837.4326,-158.0234"/>
<polygon fill="#000000" stroke="#000000" points="839.2757,-161.0192 846.74,-153.5002 836.216,-154.7233 839.2757,-161.0192"/>
</g>
<!-- 10 -->
<g id="node11" class="node">
<title>10</title>
<path fill="#f2bf9a" stroke="#000000" d="M674.5,-53C674.5,-53 576.5,-53 576.5,-53 570.5,-53 564.5,-47 564.5,-41 564.5,-41 564.5,-12 564.5,-12 564.5,-6 570.5,0 576.5,0 576.5,0 674.5,0 674.5,0 680.5,0 686.5,-6 686.5,-12 686.5,-12 686.5,-41 686.5,-41 686.5,-47 680.5,-53 674.5,-53"/>
<text text-anchor="start" x="579" y="-37.8" font-family="Helvetica,sans-Serif" font-size="14.00" fill="#000000">mse = 0.008</text>
<text text-anchor="start" x="575.5" y="-22.8" font-family="Helvetica,sans-Serif" font-size="14.00" fill="#000000">samples = 37</text>
<text text-anchor="start" x="572.5" y="-7.8" font-family="Helvetica,sans-Serif" font-size="14.00" fill="#000000">value = &#45;0.019</text>
</g>
<!-- 9&#45;&gt;10 -->
<g id="edge10" class="edge">
<title>9&#45;&gt;10</title>
<path fill="none" stroke="#000000" d="M670.8206,-88.9777C664.3775,-80.0954 657.422,-70.5067 650.9402,-61.5711"/>
<polygon fill="#000000" stroke="#000000" points="653.6079,-59.288 644.903,-53.2485 647.9417,-63.3982 653.6079,-59.288"/>
</g>
<!-- 11 -->
<g id="node12" class="node">
<title>11</title>
<path fill="#f6d4bc" stroke="#000000" d="M818,-53C818,-53 717,-53 717,-53 711,-53 705,-47 705,-41 705,-41 705,-12 705,-12 705,-6 711,0 717,0 717,0 818,0 818,0 824,0 830,-6 830,-12 830,-12 830,-41 830,-41 830,-47 824,-53 818,-53"/>
<text text-anchor="start" x="721" y="-37.8" font-family="Helvetica,sans-Serif" font-size="14.00" fill="#000000">mse = 0.012</text>
<text text-anchor="start" x="713" y="-22.8" font-family="Helvetica,sans-Serif" font-size="14.00" fill="#000000">samples = 104</text>
<text text-anchor="start" x="714.5" y="-7.8" font-family="Helvetica,sans-Serif" font-size="14.00" fill="#000000">value = &#45;0.087</text>
</g>
<!-- 9&#45;&gt;11 -->
<g id="edge11" class="edge">
<title>9&#45;&gt;11</title>
<path fill="none" stroke="#000000" d="M720.8845,-88.9777C727.58,-80.0039 734.8135,-70.3089 741.539,-61.295"/>
<polygon fill="#000000" stroke="#000000" points="744.3677,-63.3565 747.5426,-53.2485 738.7573,-59.1704 744.3677,-63.3565"/>
</g>
<!-- 13 -->
<g id="node14" class="node">
<title>13</title>
<path fill="#f7d7c1" stroke="#000000" d="M958.5,-53C958.5,-53 860.5,-53 860.5,-53 854.5,-53 848.5,-47 848.5,-41 848.5,-41 848.5,-12 848.5,-12 848.5,-6 854.5,0 860.5,0 860.5,0 958.5,0 958.5,0 964.5,0 970.5,-6 970.5,-12 970.5,-12 970.5,-41 970.5,-41 970.5,-47 964.5,-53 958.5,-53"/>
<text text-anchor="start" x="867.5" y="-37.8" font-family="Helvetica,sans-Serif" font-size="14.00" fill="#000000">mse = 0.01</text>
<text text-anchor="start" x="859.5" y="-22.8" font-family="Helvetica,sans-Serif" font-size="14.00" fill="#000000">samples = 69</text>
<text text-anchor="start" x="856.5" y="-7.8" font-family="Helvetica,sans-Serif" font-size="14.00" fill="#000000">value = &#45;0.097</text>
</g>
<!-- 12&#45;&gt;13 -->
<g id="edge13" class="edge">
<title>12&#45;&gt;13</title>
<path fill="none" stroke="#000000" d="M909.5,-88.9777C909.5,-80.7364 909.5,-71.887 909.5,-63.5153"/>
<polygon fill="#000000" stroke="#000000" points="913.0001,-63.2484 909.5,-53.2485 906.0001,-63.2485 913.0001,-63.2484"/>
</g>
<!-- 14 -->
<g id="node15" class="node">
<title>14</title>
<path fill="#ffffff" stroke="#000000" d="M1102,-53C1102,-53 1001,-53 1001,-53 995,-53 989,-47 989,-41 989,-41 989,-12 989,-12 989,-6 995,0 1001,0 1001,0 1102,0 1102,0 1108,0 1114,-6 1114,-12 1114,-12 1114,-41 1114,-41 1114,-47 1108,-53 1102,-53"/>
<text text-anchor="start" x="1009.5" y="-37.8" font-family="Helvetica,sans-Serif" font-size="14.00" fill="#000000">mse = 0.01</text>
<text text-anchor="start" x="997" y="-22.8" font-family="Helvetica,sans-Serif" font-size="14.00" fill="#000000">samples = 149</text>
<text text-anchor="start" x="998.5" y="-7.8" font-family="Helvetica,sans-Serif" font-size="14.00" fill="#000000">value = &#45;0.225</text>
</g>
<!-- 12&#45;&gt;14 -->
<g id="edge14" class="edge">
<title>12&#45;&gt;14</title>
<path fill="none" stroke="#000000" d="M959.5639,-88.9777C973.8469,-79.2713 989.3713,-68.7213 1003.5263,-59.1018"/>
<polygon fill="#000000" stroke="#000000" points="1005.8359,-61.764 1012.1395,-53.2485 1001.9014,-55.9744 1005.8359,-61.764"/>
</g>
</g>
</svg>
