<?xml version="1.0" encoding="UTF-8" standalone="no"?>
<!DOCTYPE svg PUBLIC "-//W3C//DTD SVG 1.1//EN"
 "http://www.w3.org/Graphics/SVG/1.1/DTD/svg11.dtd">
<!-- Generated by graphviz version 2.40.1 (20161225.0304)
 -->
<!-- Title: Tree Pages: 1 -->
<svg width="1100pt" height="373pt"
 viewBox="0.00 0.00 1100.00 373.00" xmlns="http://www.w3.org/2000/svg" xmlns:xlink="http://www.w3.org/1999/xlink">
<g id="graph0" class="graph" transform="scale(1 1) rotate(0) translate(4 369)">
<title>Tree</title>
<polygon fill="#ffffff" stroke="transparent" points="-4,4 -4,-369 1096,-369 1096,4 -4,4"/>
<!-- 0 -->
<g id="node1" class="node">
<title>0</title>
<path fill="#eead7e" stroke="#000000" d="M589.5,-365C589.5,-365 479.5,-365 479.5,-365 473.5,-365 467.5,-359 467.5,-353 467.5,-353 467.5,-309 467.5,-309 467.5,-303 473.5,-297 479.5,-297 479.5,-297 589.5,-297 589.5,-297 595.5,-297 601.5,-303 601.5,-309 601.5,-309 601.5,-353 601.5,-353 601.5,-359 595.5,-365 589.5,-365"/>
<text text-anchor="start" x="494" y="-349.8" font-family="Helvetica,sans-Serif" font-size="14.00" fill="#000000">X1 ≤ 0.617</text>
<text text-anchor="start" x="488" y="-334.8" font-family="Helvetica,sans-Serif" font-size="14.00" fill="#000000">mse = 0.035</text>
<text text-anchor="start" x="475.5" y="-319.8" font-family="Helvetica,sans-Serif" font-size="14.00" fill="#000000">samples = 1000</text>
<text text-anchor="start" x="484" y="-304.8" font-family="Helvetica,sans-Serif" font-size="14.00" fill="#000000">value = 0.035</text>
</g>
<!-- 1 -->
<g id="node2" class="node">
<title>1</title>
<path fill="#e88e4e" stroke="#000000" d="M450,-261C450,-261 349,-261 349,-261 343,-261 337,-255 337,-249 337,-249 337,-205 337,-205 337,-199 343,-193 349,-193 349,-193 450,-193 450,-193 456,-193 462,-199 462,-205 462,-205 462,-249 462,-249 462,-255 456,-261 450,-261"/>
<text text-anchor="start" x="359" y="-245.8" font-family="Helvetica,sans-Serif" font-size="14.00" fill="#000000">X2 ≤ 0.256</text>
<text text-anchor="start" x="353" y="-230.8" font-family="Helvetica,sans-Serif" font-size="14.00" fill="#000000">mse = 0.016</text>
<text text-anchor="start" x="345" y="-215.8" font-family="Helvetica,sans-Serif" font-size="14.00" fill="#000000">samples = 632</text>
<text text-anchor="start" x="349" y="-200.8" font-family="Helvetica,sans-Serif" font-size="14.00" fill="#000000">value = 0.138</text>
</g>
<!-- 0&#45;&gt;1 -->
<g id="edge1" class="edge">
<title>0&#45;&gt;1</title>
<path fill="none" stroke="#000000" d="M490.296,-296.9465C478.0584,-287.519 464.6564,-277.1946 451.9962,-267.4415"/>
<polygon fill="#000000" stroke="#000000" points="453.8612,-264.4601 443.8034,-261.13 449.5893,-270.0055 453.8612,-264.4601"/>
<text text-anchor="middle" x="447.0191" y="-282.2223" font-family="Helvetica,sans-Serif" font-size="14.00" fill="#000000">True</text>
</g>
<!-- 8 -->
<g id="node9" class="node">
<title>8</title>
<path fill="#f9e2d2" stroke="#000000" d="M726,-261C726,-261 625,-261 625,-261 619,-261 613,-255 613,-249 613,-249 613,-205 613,-205 613,-199 619,-193 625,-193 625,-193 726,-193 726,-193 732,-193 738,-199 738,-205 738,-205 738,-249 738,-249 738,-255 732,-261 726,-261"/>
<text text-anchor="start" x="635" y="-245.8" font-family="Helvetica,sans-Serif" font-size="14.00" fill="#000000">X1 ≤ 0.798</text>
<text text-anchor="start" x="629" y="-230.8" font-family="Helvetica,sans-Serif" font-size="14.00" fill="#000000">mse = 0.017</text>
<text text-anchor="start" x="621" y="-215.8" font-family="Helvetica,sans-Serif" font-size="14.00" fill="#000000">samples = 368</text>
<text text-anchor="start" x="622.5" y="-200.8" font-family="Helvetica,sans-Serif" font-size="14.00" fill="#000000">value = &#45;0.141</text>
</g>
<!-- 0&#45;&gt;8 -->
<g id="edge8" class="edge">
<title>0&#45;&gt;8</title>
<path fill="none" stroke="#000000" d="M580.6687,-296.9465C593.5719,-287.4293 607.7145,-276.9978 621.0483,-267.163"/>
<polygon fill="#000000" stroke="#000000" points="623.2575,-269.8826 629.2276,-261.13 619.1023,-264.2492 623.2575,-269.8826"/>
<text text-anchor="middle" x="625.4944" y="-282.1497" font-family="Helvetica,sans-Serif" font-size="14.00" fill="#000000">False</text>
</g>
<!-- 2 -->
<g id="node3" class="node">
<title>2</title>
<path fill="#eca36f" stroke="#000000" d="M244,-157C244,-157 143,-157 143,-157 137,-157 131,-151 131,-145 131,-145 131,-101 131,-101 131,-95 137,-89 143,-89 143,-89 244,-89 244,-89 250,-89 256,-95 256,-101 256,-101 256,-145 256,-145 256,-151 250,-157 244,-157"/>
<text text-anchor="start" x="153" y="-141.8" font-family="Helvetica,sans-Serif" font-size="14.00" fill="#000000">X2 ≤ 0.098</text>
<text text-anchor="start" x="147" y="-126.8" font-family="Helvetica,sans-Serif" font-size="14.00" fill="#000000">mse = 0.012</text>
<text text-anchor="start" x="139" y="-111.8" font-family="Helvetica,sans-Serif" font-size="14.00" fill="#000000">samples = 161</text>
<text text-anchor="start" x="143" y="-96.8" font-family="Helvetica,sans-Serif" font-size="14.00" fill="#000000">value = 0.069</text>
</g>
<!-- 1&#45;&gt;2 -->
<g id="edge2" class="edge">
<title>1&#45;&gt;2</title>
<path fill="none" stroke="#000000" d="M336.8542,-195.373C314.2822,-183.9774 288.6389,-171.0313 265.3431,-159.2703"/>
<polygon fill="#000000" stroke="#000000" points="266.707,-156.0382 256.2027,-154.6557 263.5522,-162.287 266.707,-156.0382"/>
</g>
<!-- 5 -->
<g id="node6" class="node">
<title>5</title>
<path fill="#e68743" stroke="#000000" d="M450,-157C450,-157 349,-157 349,-157 343,-157 337,-151 337,-145 337,-145 337,-101 337,-101 337,-95 343,-89 349,-89 349,-89 450,-89 450,-89 456,-89 462,-95 462,-101 462,-101 462,-145 462,-145 462,-151 456,-157 450,-157"/>
<text text-anchor="start" x="359" y="-141.8" font-family="Helvetica,sans-Serif" font-size="14.00" fill="#000000">X1 ≤ 0.515</text>
<text text-anchor="start" x="353" y="-126.8" font-family="Helvetica,sans-Serif" font-size="14.00" fill="#000000">mse = 0.015</text>
<text text-anchor="start" x="345" y="-111.8" font-family="Helvetica,sans-Serif" font-size="14.00" fill="#000000">samples = 471</text>
<text text-anchor="start" x="349" y="-96.8" font-family="Helvetica,sans-Serif" font-size="14.00" fill="#000000">value = 0.162</text>
</g>
<!-- 1&#45;&gt;5 -->
<g id="edge5" class="edge">
<title>1&#45;&gt;5</title>
<path fill="none" stroke="#000000" d="M399.5,-192.9465C399.5,-184.776 399.5,-175.9318 399.5,-167.3697"/>
<polygon fill="#000000" stroke="#000000" points="403.0001,-167.13 399.5,-157.13 396.0001,-167.13 403.0001,-167.13"/>
</g>
<!-- 3 -->
<g id="node4" class="node">
<title>3</title>
<path fill="#eeaf81" stroke="#000000" d="M105,-53C105,-53 12,-53 12,-53 6,-53 0,-47 0,-41 0,-41 0,-12 0,-12 0,-6 6,0 12,0 12,0 105,0 105,0 111,0 117,-6 117,-12 117,-12 117,-41 117,-41 117,-47 111,-53 105,-53"/>
<text text-anchor="start" x="12" y="-37.8" font-family="Helvetica,sans-Serif" font-size="14.00" fill="#000000">mse = 0.009</text>
<text text-anchor="start" x="8.5" y="-22.8" font-family="Helvetica,sans-Serif" font-size="14.00" fill="#000000">samples = 64</text>
<text text-anchor="start" x="8" y="-7.8" font-family="Helvetica,sans-Serif" font-size="14.00" fill="#000000">value = 0.031</text>
</g>
<!-- 2&#45;&gt;3 -->
<g id="edge3" class="edge">
<title>2&#45;&gt;3</title>
<path fill="none" stroke="#000000" d="M145.9041,-88.9777C132.3252,-79.2713 117.5661,-68.7213 104.1088,-59.1018"/>
<polygon fill="#000000" stroke="#000000" points="106.0908,-56.2164 95.9202,-53.2485 102.0201,-61.9111 106.0908,-56.2164"/>
</g>
<!-- 4 -->
<g id="node5" class="node">
<title>4</title>
<path fill="#eb9c63" stroke="#000000" d="M240,-53C240,-53 147,-53 147,-53 141,-53 135,-47 135,-41 135,-41 135,-12 135,-12 135,-6 141,0 147,0 147,0 240,0 240,0 246,0 252,-6 252,-12 252,-12 252,-41 252,-41 252,-47 246,-53 240,-53"/>
<text text-anchor="start" x="147" y="-37.8" font-family="Helvetica,sans-Serif" font-size="14.00" fill="#000000">mse = 0.013</text>
<text text-anchor="start" x="143.5" y="-22.8" font-family="Helvetica,sans-Serif" font-size="14.00" fill="#000000">samples = 97</text>
<text text-anchor="start" x="143" y="-7.8" font-family="Helvetica,sans-Serif" font-size="14.00" fill="#000000">value = 0.093</text>
</g>
<!-- 2&#45;&gt;4 -->
<g id="edge4" class="edge">
<title>2&#45;&gt;4</title>
<path fill="none" stroke="#000000" d="M193.5,-88.9777C193.5,-80.7364 193.5,-71.887 193.5,-63.5153"/>
<polygon fill="#000000" stroke="#000000" points="197.0001,-63.2484 193.5,-53.2485 190.0001,-63.2485 197.0001,-63.2484"/>
</g>
<!-- 6 -->
<g id="node7" class="node">
<title>6</title>
<path fill="#e58139" stroke="#000000" d="M383,-53C383,-53 282,-53 282,-53 276,-53 270,-47 270,-41 270,-41 270,-12 270,-12 270,-6 276,0 282,0 282,0 383,0 383,0 389,0 395,-6 395,-12 395,-12 395,-41 395,-41 395,-47 389,-53 383,-53"/>
<text text-anchor="start" x="286" y="-37.8" font-family="Helvetica,sans-Serif" font-size="14.00" fill="#000000">mse = 0.014</text>
<text text-anchor="start" x="278" y="-22.8" font-family="Helvetica,sans-Serif" font-size="14.00" fill="#000000">samples = 395</text>
<text text-anchor="start" x="282" y="-7.8" font-family="Helvetica,sans-Serif" font-size="14.00" fill="#000000">value = 0.182</text>
</g>
<!-- 5&#45;&gt;6 -->
<g id="edge6" class="edge">
<title>5&#45;&gt;6</title>
<path fill="none" stroke="#000000" d="M375.8783,-88.9777C369.7113,-80.0954 363.0539,-70.5067 356.8499,-61.5711"/>
<polygon fill="#000000" stroke="#000000" points="359.6497,-59.4666 351.0715,-53.2485 353.8997,-63.4589 359.6497,-59.4666"/>
</g>
<!-- 7 -->
<g id="node8" class="node">
<title>7</title>
<path fill="#eda775" stroke="#000000" d="M518,-53C518,-53 425,-53 425,-53 419,-53 413,-47 413,-41 413,-41 413,-12 413,-12 413,-6 419,0 425,0 425,0 518,0 518,0 524,0 530,-6 530,-12 530,-12 530,-41 530,-41 530,-47 524,-53 518,-53"/>
<text text-anchor="start" x="425" y="-37.8" font-family="Helvetica,sans-Serif" font-size="14.00" fill="#000000">mse = 0.009</text>
<text text-anchor="start" x="421.5" y="-22.8" font-family="Helvetica,sans-Serif" font-size="14.00" fill="#000000">samples = 76</text>
<text text-anchor="start" x="421" y="-7.8" font-family="Helvetica,sans-Serif" font-size="14.00" fill="#000000">value = 0.056</text>
</g>
<!-- 5&#45;&gt;7 -->
<g id="edge7" class="edge">
<title>5&#45;&gt;7</title>
<path fill="none" stroke="#000000" d="M424.8845,-88.9777C431.58,-80.0039 438.8135,-70.3089 445.539,-61.295"/>
<polygon fill="#000000" stroke="#000000" points="448.3677,-63.3565 451.5426,-53.2485 442.7573,-59.1704 448.3677,-63.3565"/>
</g>
<!-- 9 -->
<g id="node10" class="node">
<title>9</title>
<path fill="#f5cdb0" stroke="#000000" d="M726,-157C726,-157 625,-157 625,-157 619,-157 613,-151 613,-145 613,-145 613,-101 613,-101 613,-95 619,-89 625,-89 625,-89 726,-89 726,-89 732,-89 738,-95 738,-101 738,-101 738,-145 738,-145 738,-151 732,-157 726,-157"/>
<text text-anchor="start" x="635" y="-141.8" font-family="Helvetica,sans-Serif" font-size="14.00" fill="#000000">X2 ≤ 0.226</text>
<text text-anchor="start" x="629" y="-126.8" font-family="Helvetica,sans-Serif" font-size="14.00" fill="#000000">mse = 0.012</text>
<text text-anchor="start" x="621" y="-111.8" font-family="Helvetica,sans-Serif" font-size="14.00" fill="#000000">samples = 174</text>
<text text-anchor="start" x="627" y="-96.8" font-family="Helvetica,sans-Serif" font-size="14.00" fill="#000000">value = &#45;0.07</text>
</g>
<!-- 8&#45;&gt;9 -->
<g id="edge9" class="edge">
<title>8&#45;&gt;9</title>
<path fill="none" stroke="#000000" d="M675.5,-192.9465C675.5,-184.776 675.5,-175.9318 675.5,-167.3697"/>
<polygon fill="#000000" stroke="#000000" points="679.0001,-167.13 675.5,-157.13 672.0001,-167.13 679.0001,-167.13"/>
</g>
<!-- 12 -->
<g id="node13" class="node">
<title>12</title>
<path fill="#fdf5f0" stroke="#000000" d="M938,-157C938,-157 837,-157 837,-157 831,-157 825,-151 825,-145 825,-145 825,-101 825,-101 825,-95 831,-89 837,-89 837,-89 938,-89 938,-89 944,-89 950,-95 950,-101 950,-101 950,-145 950,-145 950,-151 944,-157 938,-157"/>
<text text-anchor="start" x="847" y="-141.8" font-family="Helvetica,sans-Serif" font-size="14.00" fill="#000000">X2 ≤ 0.273</text>
<text text-anchor="start" x="841" y="-126.8" font-family="Helvetica,sans-Serif" font-size="14.00" fill="#000000">mse = 0.014</text>
<text text-anchor="start" x="833" y="-111.8" font-family="Helvetica,sans-Serif" font-size="14.00" fill="#000000">samples = 194</text>
<text text-anchor="start" x="834.5" y="-96.8" font-family="Helvetica,sans-Serif" font-size="14.00" fill="#000000">value = &#45;0.204</text>
</g>
<!-- 8&#45;&gt;12 -->
<g id="edge12" class="edge">
<title>8&#45;&gt;12</title>
<path fill="none" stroke="#000000" d="M738.2465,-196.2187C762.6049,-184.2693 790.6414,-170.5156 815.7914,-158.1778"/>
<polygon fill="#000000" stroke="#000000" points="817.4781,-161.2489 824.9145,-153.7023 814.3951,-154.9644 817.4781,-161.2489"/>
</g>
<!-- 10 -->
<g id="node11" class="node">
<title>10</title>
<path fill="#f0b78e" stroke="#000000" d="M653,-53C653,-53 560,-53 560,-53 554,-53 548,-47 548,-41 548,-41 548,-12 548,-12 548,-6 554,0 560,0 560,0 653,0 653,0 659,0 665,-6 665,-12 665,-12 665,-41 665,-41 665,-47 659,-53 653,-53"/>
<text text-anchor="start" x="560" y="-37.8" font-family="Helvetica,sans-Serif" font-size="14.00" fill="#000000">mse = 0.008</text>
<text text-anchor="start" x="556.5" y="-22.8" font-family="Helvetica,sans-Serif" font-size="14.00" fill="#000000">samples = 46</text>
<text text-anchor="start" x="556" y="-7.8" font-family="Helvetica,sans-Serif" font-size="14.00" fill="#000000">value = 0.002</text>
</g>
<!-- 9&#45;&gt;10 -->
<g id="edge10" class="edge">
<title>9&#45;&gt;10</title>
<path fill="none" stroke="#000000" d="M651.1732,-88.9777C644.8221,-80.0954 637.966,-70.5067 631.5768,-61.5711"/>
<polygon fill="#000000" stroke="#000000" points="634.2893,-59.3472 625.6259,-53.2485 628.5952,-63.4187 634.2893,-59.3472"/>
</g>
<!-- 11 -->
<g id="node12" class="node">
<title>11</title>
<path fill="#f6d5bd" stroke="#000000" d="M796,-53C796,-53 695,-53 695,-53 689,-53 683,-47 683,-41 683,-41 683,-12 683,-12 683,-6 689,0 695,0 695,0 796,0 796,0 802,0 808,-6 808,-12 808,-12 808,-41 808,-41 808,-47 802,-53 796,-53"/>
<text text-anchor="start" x="699" y="-37.8" font-family="Helvetica,sans-Serif" font-size="14.00" fill="#000000">mse = 0.011</text>
<text text-anchor="start" x="691" y="-22.8" font-family="Helvetica,sans-Serif" font-size="14.00" fill="#000000">samples = 128</text>
<text text-anchor="start" x="692.5" y="-7.8" font-family="Helvetica,sans-Serif" font-size="14.00" fill="#000000">value = &#45;0.096</text>
</g>
<!-- 9&#45;&gt;11 -->
<g id="edge11" class="edge">
<title>9&#45;&gt;11</title>
<path fill="none" stroke="#000000" d="M700.1794,-88.9777C706.6225,-80.0954 713.578,-70.5067 720.0598,-61.5711"/>
<polygon fill="#000000" stroke="#000000" points="723.0583,-63.3982 726.097,-53.2485 717.3921,-59.288 723.0583,-63.3982"/>
</g>
<!-- 13 -->
<g id="node14" class="node">
<title>13</title>
<path fill="#f6d2b8" stroke="#000000" d="M936.5,-53C936.5,-53 838.5,-53 838.5,-53 832.5,-53 826.5,-47 826.5,-41 826.5,-41 826.5,-12 826.5,-12 826.5,-6 832.5,0 838.5,0 838.5,0 936.5,0 936.5,0 942.5,0 948.5,-6 948.5,-12 948.5,-12 948.5,-41 948.5,-41 948.5,-47 942.5,-53 936.5,-53"/>
<text text-anchor="start" x="841" y="-37.8" font-family="Helvetica,sans-Serif" font-size="14.00" fill="#000000">mse = 0.011</text>
<text text-anchor="start" x="837.5" y="-22.8" font-family="Helvetica,sans-Serif" font-size="14.00" fill="#000000">samples = 41</text>
<text text-anchor="start" x="834.5" y="-7.8" font-family="Helvetica,sans-Serif" font-size="14.00" fill="#000000">value = &#45;0.085</text>
</g>
<!-- 12&#45;&gt;13 -->
<g id="edge13" class="edge">
<title>12&#45;&gt;13</title>
<path fill="none" stroke="#000000" d="M887.5,-88.9777C887.5,-80.7364 887.5,-71.887 887.5,-63.5153"/>
<polygon fill="#000000" stroke="#000000" points="891.0001,-63.2484 887.5,-53.2485 884.0001,-63.2485 891.0001,-63.2484"/>
</g>
<!-- 14 -->
<g id="node15" class="node">
<title>14</title>
<path fill="#ffffff" stroke="#000000" d="M1080,-53C1080,-53 979,-53 979,-53 973,-53 967,-47 967,-41 967,-41 967,-12 967,-12 967,-6 973,0 979,0 979,0 1080,0 1080,0 1086,0 1092,-6 1092,-12 1092,-12 1092,-41 1092,-41 1092,-47 1086,-53 1080,-53"/>
<text text-anchor="start" x="987.5" y="-37.8" font-family="Helvetica,sans-Serif" font-size="14.00" fill="#000000">mse = 0.01</text>
<text text-anchor="start" x="975" y="-22.8" font-family="Helvetica,sans-Serif" font-size="14.00" fill="#000000">samples = 153</text>
<text text-anchor="start" x="976.5" y="-7.8" font-family="Helvetica,sans-Serif" font-size="14.00" fill="#000000">value = &#45;0.236</text>
</g>
<!-- 12&#45;&gt;14 -->
<g id="edge14" class="edge">
<title>12&#45;&gt;14</title>
<path fill="none" stroke="#000000" d="M937.5639,-88.9777C951.8469,-79.2713 967.3713,-68.7213 981.5263,-59.1018"/>
<polygon fill="#000000" stroke="#000000" points="983.8359,-61.764 990.1395,-53.2485 979.9014,-55.9744 983.8359,-61.764"/>
</g>
</g>
</svg>
