<?xml version="1.0" encoding="UTF-8" standalone="no"?>
<!DOCTYPE svg PUBLIC "-//W3C//DTD SVG 1.1//EN"
 "http://www.w3.org/Graphics/SVG/1.1/DTD/svg11.dtd">
<!-- Generated by graphviz version 2.50.0 (0)
 -->
<!-- Title: Tree Pages: 1 -->
<svg width="1510pt" height="373pt"
 viewBox="0.00 0.00 1510.00 373.00" xmlns="http://www.w3.org/2000/svg" xmlns:xlink="http://www.w3.org/1999/xlink">
<g id="graph0" class="graph" transform="scale(1 1) rotate(0) translate(4 369)">
<title>Tree</title>
<polygon fill="white" stroke="transparent" points="-4,4 -4,-369 1506,-369 1506,4 -4,4"/>
<!-- 0 -->
<g id="node1" class="node">
<title>0</title>
<path fill="#efb184" stroke="black" d="M826,-365C826,-365 676,-365 676,-365 670,-365 664,-359 664,-353 664,-353 664,-309 664,-309 664,-303 670,-297 676,-297 676,-297 826,-297 826,-297 832,-297 838,-303 838,-309 838,-309 838,-353 838,-353 838,-359 832,-365 826,-365"/>
<text text-anchor="start" x="710.5" y="-349.8" font-family="Helvetica,sans-Serif" font-size="14.00">X1 ≤ 0.613</text>
<text text-anchor="start" x="672" y="-334.8" font-family="Helvetica,sans-Serif" font-size="14.00">squared_error = 0.034</text>
<text text-anchor="start" x="693.5" y="-319.8" font-family="Helvetica,sans-Serif" font-size="14.00">samples = 1000</text>
<text text-anchor="start" x="705.5" y="-304.8" font-family="Helvetica,sans-Serif" font-size="14.00">value = 0.03</text>
</g>
<!-- 1 -->
<g id="node2" class="node">
<title>1</title>
<path fill="#e89253" stroke="black" d="M634,-261C634,-261 484,-261 484,-261 478,-261 472,-255 472,-249 472,-249 472,-205 472,-205 472,-199 478,-193 484,-193 484,-193 634,-193 634,-193 640,-193 646,-199 646,-205 646,-205 646,-249 646,-249 646,-255 640,-261 634,-261"/>
<text text-anchor="start" x="518.5" y="-245.8" font-family="Helvetica,sans-Serif" font-size="14.00">X2 ≤ 0.226</text>
<text text-anchor="start" x="480" y="-230.8" font-family="Helvetica,sans-Serif" font-size="14.00">squared_error = 0.015</text>
<text text-anchor="start" x="506" y="-215.8" font-family="Helvetica,sans-Serif" font-size="14.00">samples = 624</text>
<text text-anchor="start" x="509" y="-200.8" font-family="Helvetica,sans-Serif" font-size="14.00">value = 0.135</text>
</g>
<!-- 0&#45;&gt;1 -->
<g id="edge1" class="edge">
<title>0&#45;&gt;1</title>
<path fill="none" stroke="black" d="M688.66,-296.88C670.04,-286.99 649.48,-276.07 630.33,-265.9"/>
<polygon fill="black" stroke="black" points="631.83,-262.73 621.35,-261.12 628.54,-268.91 631.83,-262.73"/>
<text text-anchor="middle" x="628.67" y="-281.33" font-family="Helvetica,sans-Serif" font-size="14.00">True</text>
</g>
<!-- 8 -->
<g id="node9" class="node">
<title>8</title>
<path fill="#fae5d6" stroke="black" d="M1016,-261C1016,-261 866,-261 866,-261 860,-261 854,-255 854,-249 854,-249 854,-205 854,-205 854,-199 860,-193 866,-193 866,-193 1016,-193 1016,-193 1022,-193 1028,-199 1028,-205 1028,-205 1028,-249 1028,-249 1028,-255 1022,-261 1016,-261"/>
<text text-anchor="start" x="900.5" y="-245.8" font-family="Helvetica,sans-Serif" font-size="14.00">X1 ≤ 0.751</text>
<text text-anchor="start" x="862" y="-230.8" font-family="Helvetica,sans-Serif" font-size="14.00">squared_error = 0.016</text>
<text text-anchor="start" x="888" y="-215.8" font-family="Helvetica,sans-Serif" font-size="14.00">samples = 376</text>
<text text-anchor="start" x="888.5" y="-200.8" font-family="Helvetica,sans-Serif" font-size="14.00">value = &#45;0.146</text>
</g>
<!-- 0&#45;&gt;8 -->
<g id="edge8" class="edge">
<title>0&#45;&gt;8</title>
<path fill="none" stroke="black" d="M812.69,-296.88C831.12,-286.99 851.46,-276.07 870.41,-265.9"/>
<polygon fill="black" stroke="black" points="872.14,-268.94 879.3,-261.12 868.83,-262.77 872.14,-268.94"/>
<text text-anchor="middle" x="872.08" y="-281.36" font-family="Helvetica,sans-Serif" font-size="14.00">False</text>
</g>
<!-- 2 -->
<g id="node3" class="node">
<title>2</title>
<path fill="#eead7e" stroke="black" d="M345.5,-157C345.5,-157 204.5,-157 204.5,-157 198.5,-157 192.5,-151 192.5,-145 192.5,-145 192.5,-101 192.5,-101 192.5,-95 198.5,-89 204.5,-89 204.5,-89 345.5,-89 345.5,-89 351.5,-89 357.5,-95 357.5,-101 357.5,-101 357.5,-145 357.5,-145 357.5,-151 351.5,-157 345.5,-157"/>
<text text-anchor="start" x="234.5" y="-141.8" font-family="Helvetica,sans-Serif" font-size="14.00">X2 ≤ 0.071</text>
<text text-anchor="start" x="200.5" y="-126.8" font-family="Helvetica,sans-Serif" font-size="14.00">squared_error = 0.01</text>
<text text-anchor="start" x="222" y="-111.8" font-family="Helvetica,sans-Serif" font-size="14.00">samples = 148</text>
<text text-anchor="start" x="225" y="-96.8" font-family="Helvetica,sans-Serif" font-size="14.00">value = 0.043</text>
</g>
<!-- 1&#45;&gt;2 -->
<g id="edge2" class="edge">
<title>1&#45;&gt;2</title>
<path fill="none" stroke="black" d="M471.86,-194.7C438.77,-182.82 400.97,-169.24 367.41,-157.19"/>
<polygon fill="black" stroke="black" points="368.2,-153.75 357.6,-153.67 365.83,-160.34 368.2,-153.75"/>
</g>
<!-- 5 -->
<g id="node6" class="node">
<title>5</title>
<path fill="#e78946" stroke="black" d="M634,-157C634,-157 484,-157 484,-157 478,-157 472,-151 472,-145 472,-145 472,-101 472,-101 472,-95 478,-89 484,-89 484,-89 634,-89 634,-89 640,-89 646,-95 646,-101 646,-101 646,-145 646,-145 646,-151 640,-157 634,-157"/>
<text text-anchor="start" x="518.5" y="-141.8" font-family="Helvetica,sans-Serif" font-size="14.00">X1 ≤ 0.127</text>
<text text-anchor="start" x="480" y="-126.8" font-family="Helvetica,sans-Serif" font-size="14.00">squared_error = 0.014</text>
<text text-anchor="start" x="506" y="-111.8" font-family="Helvetica,sans-Serif" font-size="14.00">samples = 476</text>
<text text-anchor="start" x="509" y="-96.8" font-family="Helvetica,sans-Serif" font-size="14.00">value = 0.164</text>
</g>
<!-- 1&#45;&gt;5 -->
<g id="edge5" class="edge">
<title>1&#45;&gt;5</title>
<path fill="none" stroke="black" d="M559,-192.88C559,-184.78 559,-175.98 559,-167.47"/>
<polygon fill="black" stroke="black" points="562.5,-167.3 559,-157.3 555.5,-167.3 562.5,-167.3"/>
</g>
<!-- 3 -->
<g id="node4" class="node">
<title>3</title>
<path fill="#f1b992" stroke="black" d="M162,-53C162,-53 12,-53 12,-53 6,-53 0,-47 0,-41 0,-41 0,-12 0,-12 0,-6 6,0 12,0 12,0 162,0 162,0 168,0 174,-6 174,-12 174,-12 174,-41 174,-41 174,-47 168,-53 162,-53"/>
<text text-anchor="start" x="8" y="-37.8" font-family="Helvetica,sans-Serif" font-size="14.00">squared_error = 0.006</text>
<text text-anchor="start" x="38.5" y="-22.8" font-family="Helvetica,sans-Serif" font-size="14.00">samples = 41</text>
<text text-anchor="start" x="37" y="-7.8" font-family="Helvetica,sans-Serif" font-size="14.00">value = 0.001</text>
</g>
<!-- 2&#45;&gt;3 -->
<g id="edge3" class="edge">
<title>2&#45;&gt;3</title>
<path fill="none" stroke="black" d="M209.25,-88.95C188.95,-78.75 166.72,-67.57 146.85,-57.59"/>
<polygon fill="black" stroke="black" points="148.41,-54.45 137.9,-53.09 145.27,-60.71 148.41,-54.45"/>
</g>
<!-- 4 -->
<g id="node5" class="node">
<title>4</title>
<path fill="#eda877" stroke="black" d="M345.5,-53C345.5,-53 204.5,-53 204.5,-53 198.5,-53 192.5,-47 192.5,-41 192.5,-41 192.5,-12 192.5,-12 192.5,-6 198.5,0 204.5,0 204.5,0 345.5,0 345.5,0 351.5,0 357.5,-6 357.5,-12 357.5,-12 357.5,-41 357.5,-41 357.5,-47 351.5,-53 345.5,-53"/>
<text text-anchor="start" x="200.5" y="-37.8" font-family="Helvetica,sans-Serif" font-size="14.00">squared_error = 0.01</text>
<text text-anchor="start" x="222" y="-22.8" font-family="Helvetica,sans-Serif" font-size="14.00">samples = 107</text>
<text text-anchor="start" x="225" y="-7.8" font-family="Helvetica,sans-Serif" font-size="14.00">value = 0.058</text>
</g>
<!-- 2&#45;&gt;4 -->
<g id="edge4" class="edge">
<title>2&#45;&gt;4</title>
<path fill="none" stroke="black" d="M275,-88.95C275,-80.72 275,-71.85 275,-63.48"/>
<polygon fill="black" stroke="black" points="278.5,-63.24 275,-53.24 271.5,-63.24 278.5,-63.24"/>
</g>
<!-- 6 -->
<g id="node7" class="node">
<title>6</title>
<path fill="#eda674" stroke="black" d="M538,-53C538,-53 388,-53 388,-53 382,-53 376,-47 376,-41 376,-41 376,-12 376,-12 376,-6 382,0 388,0 388,0 538,0 538,0 544,0 550,-6 550,-12 550,-12 550,-41 550,-41 550,-47 544,-53 538,-53"/>
<text text-anchor="start" x="384" y="-37.8" font-family="Helvetica,sans-Serif" font-size="14.00">squared_error = 0.009</text>
<text text-anchor="start" x="410" y="-22.8" font-family="Helvetica,sans-Serif" font-size="14.00">samples = 102</text>
<text text-anchor="start" x="413" y="-7.8" font-family="Helvetica,sans-Serif" font-size="14.00">value = 0.066</text>
</g>
<!-- 5&#45;&gt;6 -->
<g id="edge6" class="edge">
<title>5&#45;&gt;6</title>
<path fill="none" stroke="black" d="M525.42,-88.95C516.04,-79.71 505.84,-69.67 496.46,-60.44"/>
<polygon fill="black" stroke="black" points="498.73,-57.76 489.15,-53.24 493.82,-62.75 498.73,-57.76"/>
</g>
<!-- 7 -->
<g id="node8" class="node">
<title>7</title>
<path fill="#e58139" stroke="black" d="M730,-53C730,-53 580,-53 580,-53 574,-53 568,-47 568,-41 568,-41 568,-12 568,-12 568,-6 574,0 580,0 580,0 730,0 730,0 736,0 742,-6 742,-12 742,-12 742,-41 742,-41 742,-47 736,-53 730,-53"/>
<text text-anchor="start" x="576" y="-37.8" font-family="Helvetica,sans-Serif" font-size="14.00">squared_error = 0.011</text>
<text text-anchor="start" x="602" y="-22.8" font-family="Helvetica,sans-Serif" font-size="14.00">samples = 374</text>
<text text-anchor="start" x="605" y="-7.8" font-family="Helvetica,sans-Serif" font-size="14.00">value = 0.191</text>
</g>
<!-- 5&#45;&gt;7 -->
<g id="edge7" class="edge">
<title>5&#45;&gt;7</title>
<path fill="none" stroke="black" d="M592.58,-88.95C601.96,-79.71 612.16,-69.67 621.54,-60.44"/>
<polygon fill="black" stroke="black" points="624.18,-62.75 628.85,-53.24 619.27,-57.76 624.18,-62.75"/>
</g>
<!-- 9 -->
<g id="node10" class="node">
<title>9</title>
<path fill="#f5ccaf" stroke="black" d="M1016,-157C1016,-157 866,-157 866,-157 860,-157 854,-151 854,-145 854,-145 854,-101 854,-101 854,-95 860,-89 866,-89 866,-89 1016,-89 1016,-89 1022,-89 1028,-95 1028,-101 1028,-101 1028,-145 1028,-145 1028,-151 1022,-157 1016,-157"/>
<text text-anchor="start" x="900.5" y="-141.8" font-family="Helvetica,sans-Serif" font-size="14.00">X1 ≤ 0.712</text>
<text text-anchor="start" x="862" y="-126.8" font-family="Helvetica,sans-Serif" font-size="14.00">squared_error = 0.009</text>
<text text-anchor="start" x="888" y="-111.8" font-family="Helvetica,sans-Serif" font-size="14.00">samples = 134</text>
<text text-anchor="start" x="888.5" y="-96.8" font-family="Helvetica,sans-Serif" font-size="14.00">value = &#45;0.063</text>
</g>
<!-- 8&#45;&gt;9 -->
<g id="edge9" class="edge">
<title>8&#45;&gt;9</title>
<path fill="none" stroke="black" d="M941,-192.88C941,-184.78 941,-175.98 941,-167.47"/>
<polygon fill="black" stroke="black" points="944.5,-167.3 941,-157.3 937.5,-167.3 944.5,-167.3"/>
</g>
<!-- 12 -->
<g id="node13" class="node">
<title>12</title>
<path fill="#fcf3ec" stroke="black" d="M1302,-157C1302,-157 1152,-157 1152,-157 1146,-157 1140,-151 1140,-145 1140,-145 1140,-101 1140,-101 1140,-95 1146,-89 1152,-89 1152,-89 1302,-89 1302,-89 1308,-89 1314,-95 1314,-101 1314,-101 1314,-145 1314,-145 1314,-151 1308,-157 1302,-157"/>
<text text-anchor="start" x="1186.5" y="-141.8" font-family="Helvetica,sans-Serif" font-size="14.00">X2 ≤ 0.432</text>
<text text-anchor="start" x="1148" y="-126.8" font-family="Helvetica,sans-Serif" font-size="14.00">squared_error = 0.014</text>
<text text-anchor="start" x="1174" y="-111.8" font-family="Helvetica,sans-Serif" font-size="14.00">samples = 242</text>
<text text-anchor="start" x="1174.5" y="-96.8" font-family="Helvetica,sans-Serif" font-size="14.00">value = &#45;0.192</text>
</g>
<!-- 8&#45;&gt;12 -->
<g id="edge12" class="edge">
<title>8&#45;&gt;12</title>
<path fill="none" stroke="black" d="M1028.36,-194.84C1060.51,-183.38 1097.1,-170.33 1130.04,-158.58"/>
<polygon fill="black" stroke="black" points="1131.44,-161.8 1139.68,-155.14 1129.08,-155.21 1131.44,-161.8"/>
</g>
<!-- 10 -->
<g id="node11" class="node">
<title>10</title>
<path fill="#f4c8a8" stroke="black" d="M922,-53C922,-53 772,-53 772,-53 766,-53 760,-47 760,-41 760,-41 760,-12 760,-12 760,-6 766,0 772,0 772,0 922,0 922,0 928,0 934,-6 934,-12 934,-12 934,-41 934,-41 934,-47 928,-53 922,-53"/>
<text text-anchor="start" x="768" y="-37.8" font-family="Helvetica,sans-Serif" font-size="14.00">squared_error = 0.008</text>
<text text-anchor="start" x="794" y="-22.8" font-family="Helvetica,sans-Serif" font-size="14.00">samples = 100</text>
<text text-anchor="start" x="794.5" y="-7.8" font-family="Helvetica,sans-Serif" font-size="14.00">value = &#45;0.047</text>
</g>
<!-- 9&#45;&gt;10 -->
<g id="edge10" class="edge">
<title>9&#45;&gt;10</title>
<path fill="none" stroke="black" d="M908.12,-88.95C898.93,-79.71 888.95,-69.67 879.76,-60.44"/>
<polygon fill="black" stroke="black" points="882.13,-57.86 872.6,-53.24 877.17,-62.79 882.13,-57.86"/>
</g>
<!-- 11 -->
<g id="node12" class="node">
<title>11</title>
<path fill="#f7dac5" stroke="black" d="M1114,-53C1114,-53 964,-53 964,-53 958,-53 952,-47 952,-41 952,-41 952,-12 952,-12 952,-6 958,0 964,0 964,0 1114,0 1114,0 1120,0 1126,-6 1126,-12 1126,-12 1126,-41 1126,-41 1126,-47 1120,-53 1114,-53"/>
<text text-anchor="start" x="960" y="-37.8" font-family="Helvetica,sans-Serif" font-size="14.00">squared_error = 0.009</text>
<text text-anchor="start" x="990.5" y="-22.8" font-family="Helvetica,sans-Serif" font-size="14.00">samples = 34</text>
<text text-anchor="start" x="991" y="-7.8" font-family="Helvetica,sans-Serif" font-size="14.00">value = &#45;0.11</text>
</g>
<!-- 9&#45;&gt;11 -->
<g id="edge11" class="edge">
<title>9&#45;&gt;11</title>
<path fill="none" stroke="black" d="M975.28,-88.95C984.86,-79.71 995.27,-69.67 1004.84,-60.44"/>
<polygon fill="black" stroke="black" points="1007.54,-62.7 1012.31,-53.24 1002.68,-57.66 1007.54,-62.7"/>
</g>
<!-- 13 -->
<g id="node14" class="node">
<title>13</title>
<path fill="#f9e2d1" stroke="black" d="M1297.5,-53C1297.5,-53 1156.5,-53 1156.5,-53 1150.5,-53 1144.5,-47 1144.5,-41 1144.5,-41 1144.5,-12 1144.5,-12 1144.5,-6 1150.5,0 1156.5,0 1156.5,0 1297.5,0 1297.5,0 1303.5,0 1309.5,-6 1309.5,-12 1309.5,-12 1309.5,-41 1309.5,-41 1309.5,-47 1303.5,-53 1297.5,-53"/>
<text text-anchor="start" x="1152.5" y="-37.8" font-family="Helvetica,sans-Serif" font-size="14.00">squared_error = 0.01</text>
<text text-anchor="start" x="1174" y="-22.8" font-family="Helvetica,sans-Serif" font-size="14.00">samples = 101</text>
<text text-anchor="start" x="1174.5" y="-7.8" font-family="Helvetica,sans-Serif" font-size="14.00">value = &#45;0.135</text>
</g>
<!-- 12&#45;&gt;13 -->
<g id="edge13" class="edge">
<title>12&#45;&gt;13</title>
<path fill="none" stroke="black" d="M1227,-88.95C1227,-80.72 1227,-71.85 1227,-63.48"/>
<polygon fill="black" stroke="black" points="1230.5,-63.24 1227,-53.24 1223.5,-63.24 1230.5,-63.24"/>
</g>
<!-- 14 -->
<g id="node15" class="node">
<title>14</title>
<path fill="#ffffff" stroke="black" d="M1490,-53C1490,-53 1340,-53 1340,-53 1334,-53 1328,-47 1328,-41 1328,-41 1328,-12 1328,-12 1328,-6 1334,0 1340,0 1340,0 1490,0 1490,0 1496,0 1502,-6 1502,-12 1502,-12 1502,-41 1502,-41 1502,-47 1496,-53 1490,-53"/>
<text text-anchor="start" x="1336" y="-37.8" font-family="Helvetica,sans-Serif" font-size="14.00">squared_error = 0.013</text>
<text text-anchor="start" x="1362" y="-22.8" font-family="Helvetica,sans-Serif" font-size="14.00">samples = 141</text>
<text text-anchor="start" x="1362.5" y="-7.8" font-family="Helvetica,sans-Serif" font-size="14.00">value = &#45;0.233</text>
</g>
<!-- 12&#45;&gt;14 -->
<g id="edge14" class="edge">
<title>12&#45;&gt;14</title>
<path fill="none" stroke="black" d="M1292.75,-88.95C1313.05,-78.75 1335.28,-67.57 1355.15,-57.59"/>
<polygon fill="black" stroke="black" points="1356.73,-60.71 1364.1,-53.09 1353.59,-54.45 1356.73,-60.71"/>
</g>
</g>
</svg>
