<?xml version="1.0" encoding="UTF-8" standalone="no"?>
<!DOCTYPE svg PUBLIC "-//W3C//DTD SVG 1.1//EN"
 "http://www.w3.org/Graphics/SVG/1.1/DTD/svg11.dtd">
<!-- Generated by graphviz version 2.50.0 (0)
 -->
<!-- Title: Tree Pages: 1 -->
<svg width="1510pt" height="373pt"
 viewBox="0.00 0.00 1509.50 373.00" xmlns="http://www.w3.org/2000/svg" xmlns:xlink="http://www.w3.org/1999/xlink">
<g id="graph0" class="graph" transform="scale(1 1) rotate(0) translate(4 369)">
<title>Tree</title>
<polygon fill="white" stroke="transparent" points="-4,4 -4,-369 1505.5,-369 1505.5,4 -4,4"/>
<!-- 0 -->
<g id="node1" class="node">
<title>0</title>
<path fill="#edaa79" stroke="black" d="M826,-365C826,-365 676,-365 676,-365 670,-365 664,-359 664,-353 664,-353 664,-309 664,-309 664,-303 670,-297 676,-297 676,-297 826,-297 826,-297 832,-297 838,-303 838,-309 838,-309 838,-353 838,-353 838,-359 832,-365 826,-365"/>
<text text-anchor="start" x="710.5" y="-349.8" font-family="Helvetica,sans-Serif" font-size="14.00">X1 ≤ 0.624</text>
<text text-anchor="start" x="672" y="-334.8" font-family="Helvetica,sans-Serif" font-size="14.00">squared_error = 0.032</text>
<text text-anchor="start" x="693.5" y="-319.8" font-family="Helvetica,sans-Serif" font-size="14.00">samples = 1000</text>
<text text-anchor="start" x="701" y="-304.8" font-family="Helvetica,sans-Serif" font-size="14.00">value = 0.037</text>
</g>
<!-- 1 -->
<g id="node2" class="node">
<title>1</title>
<path fill="#e89051" stroke="black" d="M638,-261C638,-261 488,-261 488,-261 482,-261 476,-255 476,-249 476,-249 476,-205 476,-205 476,-199 482,-193 488,-193 488,-193 638,-193 638,-193 644,-193 650,-199 650,-205 650,-205 650,-249 650,-249 650,-255 644,-261 638,-261"/>
<text text-anchor="start" x="522.5" y="-245.8" font-family="Helvetica,sans-Serif" font-size="14.00">X2 ≤ 0.343</text>
<text text-anchor="start" x="484" y="-230.8" font-family="Helvetica,sans-Serif" font-size="14.00">squared_error = 0.015</text>
<text text-anchor="start" x="510" y="-215.8" font-family="Helvetica,sans-Serif" font-size="14.00">samples = 654</text>
<text text-anchor="start" x="513" y="-200.8" font-family="Helvetica,sans-Serif" font-size="14.00">value = 0.129</text>
</g>
<!-- 0&#45;&gt;1 -->
<g id="edge1" class="edge">
<title>0&#45;&gt;1</title>
<path fill="none" stroke="black" d="M689.96,-296.88C671.73,-286.99 651.6,-276.07 632.85,-265.9"/>
<polygon fill="black" stroke="black" points="634.51,-262.82 624.05,-261.12 631.17,-268.97 634.51,-262.82"/>
<text text-anchor="middle" x="631.16" y="-281.39" font-family="Helvetica,sans-Serif" font-size="14.00">True</text>
</g>
<!-- 8 -->
<g id="node9" class="node">
<title>8</title>
<path fill="#f7dac6" stroke="black" d="M1018,-261C1018,-261 868,-261 868,-261 862,-261 856,-255 856,-249 856,-249 856,-205 856,-205 856,-199 862,-193 868,-193 868,-193 1018,-193 1018,-193 1024,-193 1030,-199 1030,-205 1030,-205 1030,-249 1030,-249 1030,-255 1024,-261 1018,-261"/>
<text text-anchor="start" x="907" y="-245.8" font-family="Helvetica,sans-Serif" font-size="14.00">X1 ≤ 0.81</text>
<text text-anchor="start" x="864" y="-230.8" font-family="Helvetica,sans-Serif" font-size="14.00">squared_error = 0.017</text>
<text text-anchor="start" x="890" y="-215.8" font-family="Helvetica,sans-Serif" font-size="14.00">samples = 346</text>
<text text-anchor="start" x="890.5" y="-200.8" font-family="Helvetica,sans-Serif" font-size="14.00">value = &#45;0.137</text>
</g>
<!-- 0&#45;&gt;8 -->
<g id="edge8" class="edge">
<title>0&#45;&gt;8</title>
<path fill="none" stroke="black" d="M813.34,-296.88C831.96,-286.99 852.52,-276.07 871.67,-265.9"/>
<polygon fill="black" stroke="black" points="873.46,-268.91 880.65,-261.12 870.17,-262.73 873.46,-268.91"/>
<text text-anchor="middle" x="873.33" y="-281.33" font-family="Helvetica,sans-Serif" font-size="14.00">False</text>
</g>
<!-- 2 -->
<g id="node3" class="node">
<title>2</title>
<path fill="#eca26c" stroke="black" d="M354,-157C354,-157 204,-157 204,-157 198,-157 192,-151 192,-145 192,-145 192,-101 192,-101 192,-95 198,-89 204,-89 204,-89 354,-89 354,-89 360,-89 366,-95 366,-101 366,-101 366,-145 366,-145 366,-151 360,-157 354,-157"/>
<text text-anchor="start" x="238.5" y="-141.8" font-family="Helvetica,sans-Serif" font-size="14.00">X1 ≤ 0.451</text>
<text text-anchor="start" x="200" y="-126.8" font-family="Helvetica,sans-Serif" font-size="14.00">squared_error = 0.011</text>
<text text-anchor="start" x="226" y="-111.8" font-family="Helvetica,sans-Serif" font-size="14.00">samples = 227</text>
<text text-anchor="start" x="229" y="-96.8" font-family="Helvetica,sans-Serif" font-size="14.00">value = 0.067</text>
</g>
<!-- 1&#45;&gt;2 -->
<g id="edge2" class="edge">
<title>1&#45;&gt;2</title>
<path fill="none" stroke="black" d="M475.86,-194.7C444.25,-183.35 408.35,-170.46 375.95,-158.82"/>
<polygon fill="black" stroke="black" points="377.06,-155.5 366.46,-155.41 374.69,-162.09 377.06,-155.5"/>
</g>
<!-- 5 -->
<g id="node6" class="node">
<title>5</title>
<path fill="#e68743" stroke="black" d="M638,-157C638,-157 488,-157 488,-157 482,-157 476,-151 476,-145 476,-145 476,-101 476,-101 476,-95 482,-89 488,-89 488,-89 638,-89 638,-89 644,-89 650,-95 650,-101 650,-101 650,-145 650,-145 650,-151 644,-157 638,-157"/>
<text text-anchor="start" x="522.5" y="-141.8" font-family="Helvetica,sans-Serif" font-size="14.00">X1 ≤ 0.124</text>
<text text-anchor="start" x="484" y="-126.8" font-family="Helvetica,sans-Serif" font-size="14.00">squared_error = 0.014</text>
<text text-anchor="start" x="510" y="-111.8" font-family="Helvetica,sans-Serif" font-size="14.00">samples = 427</text>
<text text-anchor="start" x="513" y="-96.8" font-family="Helvetica,sans-Serif" font-size="14.00">value = 0.162</text>
</g>
<!-- 1&#45;&gt;5 -->
<g id="edge5" class="edge">
<title>1&#45;&gt;5</title>
<path fill="none" stroke="black" d="M563,-192.88C563,-184.78 563,-175.98 563,-167.47"/>
<polygon fill="black" stroke="black" points="566.5,-167.3 563,-157.3 559.5,-167.3 566.5,-167.3"/>
</g>
<!-- 3 -->
<g id="node4" class="node">
<title>3</title>
<path fill="#ea9c63" stroke="black" d="M162,-53C162,-53 12,-53 12,-53 6,-53 0,-47 0,-41 0,-41 0,-12 0,-12 0,-6 6,0 12,0 12,0 162,0 162,0 168,0 174,-6 174,-12 174,-12 174,-41 174,-41 174,-47 168,-53 162,-53"/>
<text text-anchor="start" x="8" y="-37.8" font-family="Helvetica,sans-Serif" font-size="14.00">squared_error = 0.011</text>
<text text-anchor="start" x="34" y="-22.8" font-family="Helvetica,sans-Serif" font-size="14.00">samples = 149</text>
<text text-anchor="start" x="37" y="-7.8" font-family="Helvetica,sans-Serif" font-size="14.00">value = 0.089</text>
</g>
<!-- 2&#45;&gt;3 -->
<g id="edge3" class="edge">
<title>2&#45;&gt;3</title>
<path fill="none" stroke="black" d="M211.85,-88.95C191.12,-78.75 168.42,-67.57 148.13,-57.59"/>
<polygon fill="black" stroke="black" points="149.5,-54.36 138.99,-53.09 146.41,-60.64 149.5,-54.36"/>
</g>
<!-- 4 -->
<g id="node5" class="node">
<title>4</title>
<path fill="#eead7f" stroke="black" d="M354,-53C354,-53 204,-53 204,-53 198,-53 192,-47 192,-41 192,-41 192,-12 192,-12 192,-6 198,0 204,0 204,0 354,0 354,0 360,0 366,-6 366,-12 366,-12 366,-41 366,-41 366,-47 360,-53 354,-53"/>
<text text-anchor="start" x="200" y="-37.8" font-family="Helvetica,sans-Serif" font-size="14.00">squared_error = 0.008</text>
<text text-anchor="start" x="230.5" y="-22.8" font-family="Helvetica,sans-Serif" font-size="14.00">samples = 78</text>
<text text-anchor="start" x="229" y="-7.8" font-family="Helvetica,sans-Serif" font-size="14.00">value = 0.025</text>
</g>
<!-- 2&#45;&gt;4 -->
<g id="edge4" class="edge">
<title>2&#45;&gt;4</title>
<path fill="none" stroke="black" d="M279,-88.95C279,-80.72 279,-71.85 279,-63.48"/>
<polygon fill="black" stroke="black" points="282.5,-63.24 279,-53.24 275.5,-63.24 282.5,-63.24"/>
</g>
<!-- 6 -->
<g id="node7" class="node">
<title>6</title>
<path fill="#eca16b" stroke="black" d="M537.5,-53C537.5,-53 396.5,-53 396.5,-53 390.5,-53 384.5,-47 384.5,-41 384.5,-41 384.5,-12 384.5,-12 384.5,-6 390.5,0 396.5,0 396.5,0 537.5,0 537.5,0 543.5,0 549.5,-6 549.5,-12 549.5,-12 549.5,-41 549.5,-41 549.5,-47 543.5,-53 537.5,-53"/>
<text text-anchor="start" x="392.5" y="-37.8" font-family="Helvetica,sans-Serif" font-size="14.00">squared_error = 0.01</text>
<text text-anchor="start" x="418.5" y="-22.8" font-family="Helvetica,sans-Serif" font-size="14.00">samples = 84</text>
<text text-anchor="start" x="417" y="-7.8" font-family="Helvetica,sans-Serif" font-size="14.00">value = 0.069</text>
</g>
<!-- 5&#45;&gt;6 -->
<g id="edge6" class="edge">
<title>5&#45;&gt;6</title>
<path fill="none" stroke="black" d="M529.42,-88.95C520.04,-79.71 509.84,-69.67 500.46,-60.44"/>
<polygon fill="black" stroke="black" points="502.73,-57.76 493.15,-53.24 497.82,-62.75 502.73,-57.76"/>
</g>
<!-- 7 -->
<g id="node8" class="node">
<title>7</title>
<path fill="#e58139" stroke="black" d="M730,-53C730,-53 580,-53 580,-53 574,-53 568,-47 568,-41 568,-41 568,-12 568,-12 568,-6 574,0 580,0 580,0 730,0 730,0 736,0 742,-6 742,-12 742,-12 742,-41 742,-41 742,-47 736,-53 730,-53"/>
<text text-anchor="start" x="576" y="-37.8" font-family="Helvetica,sans-Serif" font-size="14.00">squared_error = 0.013</text>
<text text-anchor="start" x="602" y="-22.8" font-family="Helvetica,sans-Serif" font-size="14.00">samples = 343</text>
<text text-anchor="start" x="605" y="-7.8" font-family="Helvetica,sans-Serif" font-size="14.00">value = 0.184</text>
</g>
<!-- 5&#45;&gt;7 -->
<g id="edge7" class="edge">
<title>5&#45;&gt;7</title>
<path fill="none" stroke="black" d="M595.18,-88.95C604.17,-79.71 613.94,-69.67 622.93,-60.44"/>
<polygon fill="black" stroke="black" points="625.48,-62.84 629.94,-53.24 620.46,-57.96 625.48,-62.84"/>
</g>
<!-- 9 -->
<g id="node10" class="node">
<title>9</title>
<path fill="#f4caab" stroke="black" d="M1018,-157C1018,-157 868,-157 868,-157 862,-157 856,-151 856,-145 856,-145 856,-101 856,-101 856,-95 862,-89 868,-89 868,-89 1018,-89 1018,-89 1024,-89 1030,-95 1030,-101 1030,-101 1030,-145 1030,-145 1030,-151 1024,-157 1018,-157"/>
<text text-anchor="start" x="902.5" y="-141.8" font-family="Helvetica,sans-Serif" font-size="14.00">X1 ≤ 0.703</text>
<text text-anchor="start" x="864" y="-126.8" font-family="Helvetica,sans-Serif" font-size="14.00">squared_error = 0.011</text>
<text text-anchor="start" x="890" y="-111.8" font-family="Helvetica,sans-Serif" font-size="14.00">samples = 182</text>
<text text-anchor="start" x="890.5" y="-96.8" font-family="Helvetica,sans-Serif" font-size="14.00">value = &#45;0.077</text>
</g>
<!-- 8&#45;&gt;9 -->
<g id="edge9" class="edge">
<title>8&#45;&gt;9</title>
<path fill="none" stroke="black" d="M943,-192.88C943,-184.78 943,-175.98 943,-167.47"/>
<polygon fill="black" stroke="black" points="946.5,-167.3 943,-157.3 939.5,-167.3 946.5,-167.3"/>
</g>
<!-- 12 -->
<g id="node13" class="node">
<title>12</title>
<path fill="#fbede3" stroke="black" d="M1306,-157C1306,-157 1156,-157 1156,-157 1150,-157 1144,-151 1144,-145 1144,-145 1144,-101 1144,-101 1144,-95 1150,-89 1156,-89 1156,-89 1306,-89 1306,-89 1312,-89 1318,-95 1318,-101 1318,-101 1318,-145 1318,-145 1318,-151 1312,-157 1306,-157"/>
<text text-anchor="start" x="1190.5" y="-141.8" font-family="Helvetica,sans-Serif" font-size="14.00">X2 ≤ 0.425</text>
<text text-anchor="start" x="1152" y="-126.8" font-family="Helvetica,sans-Serif" font-size="14.00">squared_error = 0.016</text>
<text text-anchor="start" x="1178" y="-111.8" font-family="Helvetica,sans-Serif" font-size="14.00">samples = 164</text>
<text text-anchor="start" x="1178.5" y="-96.8" font-family="Helvetica,sans-Serif" font-size="14.00">value = &#45;0.204</text>
</g>
<!-- 8&#45;&gt;12 -->
<g id="edge12" class="edge">
<title>8&#45;&gt;12</title>
<path fill="none" stroke="black" d="M1030.19,-195.12C1062.89,-183.54 1100.24,-170.31 1133.79,-158.43"/>
<polygon fill="black" stroke="black" points="1135.35,-161.59 1143.61,-154.95 1133.01,-154.99 1135.35,-161.59"/>
</g>
<!-- 10 -->
<g id="node11" class="node">
<title>10</title>
<path fill="#f1bd97" stroke="black" d="M922,-53C922,-53 772,-53 772,-53 766,-53 760,-47 760,-41 760,-41 760,-12 760,-12 760,-6 766,0 772,0 772,0 922,0 922,0 928,0 934,-6 934,-12 934,-12 934,-41 934,-41 934,-47 928,-53 922,-53"/>
<text text-anchor="start" x="768" y="-37.8" font-family="Helvetica,sans-Serif" font-size="14.00">squared_error = 0.007</text>
<text text-anchor="start" x="798.5" y="-22.8" font-family="Helvetica,sans-Serif" font-size="14.00">samples = 83</text>
<text text-anchor="start" x="794.5" y="-7.8" font-family="Helvetica,sans-Serif" font-size="14.00">value = &#45;0.031</text>
</g>
<!-- 9&#45;&gt;10 -->
<g id="edge10" class="edge">
<title>9&#45;&gt;10</title>
<path fill="none" stroke="black" d="M909.42,-88.95C900.04,-79.71 889.84,-69.67 880.46,-60.44"/>
<polygon fill="black" stroke="black" points="882.73,-57.76 873.15,-53.24 877.82,-62.75 882.73,-57.76"/>
</g>
<!-- 11 -->
<g id="node12" class="node">
<title>11</title>
<path fill="#f6d4bc" stroke="black" d="M1114,-53C1114,-53 964,-53 964,-53 958,-53 952,-47 952,-41 952,-41 952,-12 952,-12 952,-6 958,0 964,0 964,0 1114,0 1114,0 1120,0 1126,-6 1126,-12 1126,-12 1126,-41 1126,-41 1126,-47 1120,-53 1114,-53"/>
<text text-anchor="start" x="960" y="-37.8" font-family="Helvetica,sans-Serif" font-size="14.00">squared_error = 0.011</text>
<text text-anchor="start" x="990.5" y="-22.8" font-family="Helvetica,sans-Serif" font-size="14.00">samples = 99</text>
<text text-anchor="start" x="986.5" y="-7.8" font-family="Helvetica,sans-Serif" font-size="14.00">value = &#45;0.115</text>
</g>
<!-- 9&#45;&gt;11 -->
<g id="edge11" class="edge">
<title>9&#45;&gt;11</title>
<path fill="none" stroke="black" d="M976.58,-88.95C985.96,-79.71 996.16,-69.67 1005.54,-60.44"/>
<polygon fill="black" stroke="black" points="1008.18,-62.75 1012.85,-53.24 1003.27,-57.76 1008.18,-62.75"/>
</g>
<!-- 13 -->
<g id="node14" class="node">
<title>13</title>
<path fill="#f7dac5" stroke="black" d="M1306,-53C1306,-53 1156,-53 1156,-53 1150,-53 1144,-47 1144,-41 1144,-41 1144,-12 1144,-12 1144,-6 1150,0 1156,0 1156,0 1306,0 1306,0 1312,0 1318,-6 1318,-12 1318,-12 1318,-41 1318,-41 1318,-47 1312,-53 1306,-53"/>
<text text-anchor="start" x="1152" y="-37.8" font-family="Helvetica,sans-Serif" font-size="14.00">squared_error = 0.012</text>
<text text-anchor="start" x="1182.5" y="-22.8" font-family="Helvetica,sans-Serif" font-size="14.00">samples = 80</text>
<text text-anchor="start" x="1178.5" y="-7.8" font-family="Helvetica,sans-Serif" font-size="14.00">value = &#45;0.136</text>
</g>
<!-- 12&#45;&gt;13 -->
<g id="edge13" class="edge">
<title>12&#45;&gt;13</title>
<path fill="none" stroke="black" d="M1231,-88.95C1231,-80.72 1231,-71.85 1231,-63.48"/>
<polygon fill="black" stroke="black" points="1234.5,-63.24 1231,-53.24 1227.5,-63.24 1234.5,-63.24"/>
</g>
<!-- 14 -->
<g id="node15" class="node">
<title>14</title>
<path fill="#ffffff" stroke="black" d="M1489.5,-53C1489.5,-53 1348.5,-53 1348.5,-53 1342.5,-53 1336.5,-47 1336.5,-41 1336.5,-41 1336.5,-12 1336.5,-12 1336.5,-6 1342.5,0 1348.5,0 1348.5,0 1489.5,0 1489.5,0 1495.5,0 1501.5,-6 1501.5,-12 1501.5,-12 1501.5,-41 1501.5,-41 1501.5,-47 1495.5,-53 1489.5,-53"/>
<text text-anchor="start" x="1344.5" y="-37.8" font-family="Helvetica,sans-Serif" font-size="14.00">squared_error = 0.01</text>
<text text-anchor="start" x="1370.5" y="-22.8" font-family="Helvetica,sans-Serif" font-size="14.00">samples = 84</text>
<text text-anchor="start" x="1366.5" y="-7.8" font-family="Helvetica,sans-Serif" font-size="14.00">value = &#45;0.269</text>
</g>
<!-- 12&#45;&gt;14 -->
<g id="edge14" class="edge">
<title>12&#45;&gt;14</title>
<path fill="none" stroke="black" d="M1296.75,-88.95C1317.05,-78.75 1339.28,-67.57 1359.15,-57.59"/>
<polygon fill="black" stroke="black" points="1360.73,-60.71 1368.1,-53.09 1357.59,-54.45 1360.73,-60.71"/>
</g>
</g>
</svg>
