<?xml version="1.0" encoding="UTF-8" standalone="no"?>
<!DOCTYPE svg PUBLIC "-//W3C//DTD SVG 1.1//EN"
 "http://www.w3.org/Graphics/SVG/1.1/DTD/svg11.dtd">
<!-- Generated by graphviz version 2.40.1 (20161225.0304)
 -->
<!-- Title: Tree Pages: 1 -->
<svg width="1116pt" height="373pt"
 viewBox="0.00 0.00 1115.50 373.00" xmlns="http://www.w3.org/2000/svg" xmlns:xlink="http://www.w3.org/1999/xlink">
<g id="graph0" class="graph" transform="scale(1 1) rotate(0) translate(4 369)">
<title>Tree</title>
<polygon fill="#ffffff" stroke="transparent" points="-4,4 -4,-369 1111.5,-369 1111.5,4 -4,4"/>
<!-- 0 -->
<g id="node1" class="node">
<title>0</title>
<path fill="#efb286" stroke="#000000" d="M606,-365C606,-365 496,-365 496,-365 490,-365 484,-359 484,-353 484,-353 484,-309 484,-309 484,-303 490,-297 496,-297 496,-297 606,-297 606,-297 612,-297 618,-303 618,-309 618,-309 618,-353 618,-353 618,-359 612,-365 606,-365"/>
<text text-anchor="start" x="510.5" y="-349.8" font-family="Helvetica,sans-Serif" font-size="14.00" fill="#000000">X1 ≤ 0.619</text>
<text text-anchor="start" x="509" y="-334.8" font-family="Helvetica,sans-Serif" font-size="14.00" fill="#000000">mse = 0.03</text>
<text text-anchor="start" x="492" y="-319.8" font-family="Helvetica,sans-Serif" font-size="14.00" fill="#000000">samples = 1000</text>
<text text-anchor="start" x="500.5" y="-304.8" font-family="Helvetica,sans-Serif" font-size="14.00" fill="#000000">value = 0.032</text>
</g>
<!-- 1 -->
<g id="node2" class="node">
<title>1</title>
<path fill="#e99254" stroke="#000000" d="M463.5,-261C463.5,-261 362.5,-261 362.5,-261 356.5,-261 350.5,-255 350.5,-249 350.5,-249 350.5,-205 350.5,-205 350.5,-199 356.5,-193 362.5,-193 362.5,-193 463.5,-193 463.5,-193 469.5,-193 475.5,-199 475.5,-205 475.5,-205 475.5,-249 475.5,-249 475.5,-255 469.5,-261 463.5,-261"/>
<text text-anchor="start" x="377" y="-245.8" font-family="Helvetica,sans-Serif" font-size="14.00" fill="#000000">X2 ≤ 0.31</text>
<text text-anchor="start" x="366.5" y="-230.8" font-family="Helvetica,sans-Serif" font-size="14.00" fill="#000000">mse = 0.015</text>
<text text-anchor="start" x="358.5" y="-215.8" font-family="Helvetica,sans-Serif" font-size="14.00" fill="#000000">samples = 625</text>
<text text-anchor="start" x="362.5" y="-200.8" font-family="Helvetica,sans-Serif" font-size="14.00" fill="#000000">value = 0.125</text>
</g>
<!-- 0&#45;&gt;1 -->
<g id="edge1" class="edge">
<title>0&#45;&gt;1</title>
<path fill="none" stroke="#000000" d="M505.8136,-296.9465C493.185,-287.4293 479.3433,-276.9978 466.2932,-267.163"/>
<polygon fill="#000000" stroke="#000000" points="468.3805,-264.3534 458.2879,-261.13 464.1675,-269.9437 468.3805,-264.3534"/>
<text text-anchor="middle" x="461.7661" y="-282.1869" font-family="Helvetica,sans-Serif" font-size="14.00" fill="#000000">True</text>
</g>
<!-- 8 -->
<g id="node9" class="node">
<title>8</title>
<path fill="#fae7d9" stroke="#000000" d="M741.5,-261C741.5,-261 640.5,-261 640.5,-261 634.5,-261 628.5,-255 628.5,-249 628.5,-249 628.5,-205 628.5,-205 628.5,-199 634.5,-193 640.5,-193 640.5,-193 741.5,-193 741.5,-193 747.5,-193 753.5,-199 753.5,-205 753.5,-205 753.5,-249 753.5,-249 753.5,-255 747.5,-261 741.5,-261"/>
<text text-anchor="start" x="650.5" y="-245.8" font-family="Helvetica,sans-Serif" font-size="14.00" fill="#000000">X1 ≤ 0.715</text>
<text text-anchor="start" x="644.5" y="-230.8" font-family="Helvetica,sans-Serif" font-size="14.00" fill="#000000">mse = 0.014</text>
<text text-anchor="start" x="636.5" y="-215.8" font-family="Helvetica,sans-Serif" font-size="14.00" fill="#000000">samples = 375</text>
<text text-anchor="start" x="638" y="-200.8" font-family="Helvetica,sans-Serif" font-size="14.00" fill="#000000">value = &#45;0.124</text>
</g>
<!-- 0&#45;&gt;8 -->
<g id="edge8" class="edge">
<title>0&#45;&gt;8</title>
<path fill="none" stroke="#000000" d="M596.8412,-296.9465C609.6529,-287.4293 623.6952,-276.9978 636.9344,-267.163"/>
<polygon fill="#000000" stroke="#000000" points="639.1155,-269.9029 645.0558,-261.13 634.9412,-264.2837 639.1155,-269.9029"/>
<text text-anchor="middle" x="641.4068" y="-282.1623" font-family="Helvetica,sans-Serif" font-size="14.00" fill="#000000">False</text>
</g>
<!-- 2 -->
<g id="node3" class="node">
<title>2</title>
<path fill="#eda876" stroke="#000000" d="M253.5,-157C253.5,-157 152.5,-157 152.5,-157 146.5,-157 140.5,-151 140.5,-145 140.5,-145 140.5,-101 140.5,-101 140.5,-95 146.5,-89 152.5,-89 152.5,-89 253.5,-89 253.5,-89 259.5,-89 265.5,-95 265.5,-101 265.5,-101 265.5,-145 265.5,-145 265.5,-151 259.5,-157 253.5,-157"/>
<text text-anchor="start" x="162.5" y="-141.8" font-family="Helvetica,sans-Serif" font-size="14.00" fill="#000000">X1 ≤ 0.059</text>
<text text-anchor="start" x="156.5" y="-126.8" font-family="Helvetica,sans-Serif" font-size="14.00" fill="#000000">mse = 0.011</text>
<text text-anchor="start" x="148.5" y="-111.8" font-family="Helvetica,sans-Serif" font-size="14.00" fill="#000000">samples = 216</text>
<text text-anchor="start" x="152.5" y="-96.8" font-family="Helvetica,sans-Serif" font-size="14.00" fill="#000000">value = 0.062</text>
</g>
<!-- 1&#45;&gt;2 -->
<g id="edge2" class="edge">
<title>1&#45;&gt;2</title>
<path fill="none" stroke="#000000" d="M350.2775,-195.9374C326.5934,-184.2081 299.464,-170.7727 274.9963,-158.6553"/>
<polygon fill="#000000" stroke="#000000" points="276.2765,-155.3837 265.7619,-154.0821 273.1699,-161.6566 276.2765,-155.3837"/>
</g>
<!-- 5 -->
<g id="node6" class="node">
<title>5</title>
<path fill="#e68742" stroke="#000000" d="M463.5,-157C463.5,-157 362.5,-157 362.5,-157 356.5,-157 350.5,-151 350.5,-145 350.5,-145 350.5,-101 350.5,-101 350.5,-95 356.5,-89 362.5,-89 362.5,-89 463.5,-89 463.5,-89 469.5,-89 475.5,-95 475.5,-101 475.5,-101 475.5,-145 475.5,-145 475.5,-151 469.5,-157 463.5,-157"/>
<text text-anchor="start" x="372.5" y="-141.8" font-family="Helvetica,sans-Serif" font-size="14.00" fill="#000000">X1 ≤ 0.088</text>
<text text-anchor="start" x="366.5" y="-126.8" font-family="Helvetica,sans-Serif" font-size="14.00" fill="#000000">mse = 0.015</text>
<text text-anchor="start" x="358.5" y="-111.8" font-family="Helvetica,sans-Serif" font-size="14.00" fill="#000000">samples = 409</text>
<text text-anchor="start" x="362.5" y="-96.8" font-family="Helvetica,sans-Serif" font-size="14.00" fill="#000000">value = 0.159</text>
</g>
<!-- 1&#45;&gt;5 -->
<g id="edge5" class="edge">
<title>1&#45;&gt;5</title>
<path fill="none" stroke="#000000" d="M413,-192.9465C413,-184.776 413,-175.9318 413,-167.3697"/>
<polygon fill="#000000" stroke="#000000" points="416.5001,-167.13 413,-157.13 409.5001,-167.13 416.5001,-167.13"/>
</g>
<!-- 3 -->
<g id="node4" class="node">
<title>3</title>
<path fill="#f3c3a0" stroke="#000000" d="M110,-53C110,-53 12,-53 12,-53 6,-53 0,-47 0,-41 0,-41 0,-12 0,-12 0,-6 6,0 12,0 12,0 110,0 110,0 116,0 122,-6 122,-12 122,-12 122,-41 122,-41 122,-47 116,-53 110,-53"/>
<text text-anchor="start" x="14.5" y="-37.8" font-family="Helvetica,sans-Serif" font-size="14.00" fill="#000000">mse = 0.008</text>
<text text-anchor="start" x="11" y="-22.8" font-family="Helvetica,sans-Serif" font-size="14.00" fill="#000000">samples = 19</text>
<text text-anchor="start" x="8" y="-7.8" font-family="Helvetica,sans-Serif" font-size="14.00" fill="#000000">value = &#45;0.018</text>
</g>
<!-- 2&#45;&gt;3 -->
<g id="edge3" class="edge">
<title>2&#45;&gt;3</title>
<path fill="none" stroke="#000000" d="M152.9361,-88.9777C138.6531,-79.2713 123.1287,-68.7213 108.9737,-59.1018"/>
<polygon fill="#000000" stroke="#000000" points="110.5986,-55.9744 100.3605,-53.2485 106.6641,-61.764 110.5986,-55.9744"/>
</g>
<!-- 4 -->
<g id="node5" class="node">
<title>4</title>
<path fill="#eca571" stroke="#000000" d="M253.5,-53C253.5,-53 152.5,-53 152.5,-53 146.5,-53 140.5,-47 140.5,-41 140.5,-41 140.5,-12 140.5,-12 140.5,-6 146.5,0 152.5,0 152.5,0 253.5,0 253.5,0 259.5,0 265.5,-6 265.5,-12 265.5,-12 265.5,-41 265.5,-41 265.5,-47 259.5,-53 253.5,-53"/>
<text text-anchor="start" x="156.5" y="-37.8" font-family="Helvetica,sans-Serif" font-size="14.00" fill="#000000">mse = 0.011</text>
<text text-anchor="start" x="148.5" y="-22.8" font-family="Helvetica,sans-Serif" font-size="14.00" fill="#000000">samples = 197</text>
<text text-anchor="start" x="157" y="-7.8" font-family="Helvetica,sans-Serif" font-size="14.00" fill="#000000">value = 0.07</text>
</g>
<!-- 2&#45;&gt;4 -->
<g id="edge4" class="edge">
<title>2&#45;&gt;4</title>
<path fill="none" stroke="#000000" d="M203,-88.9777C203,-80.7364 203,-71.887 203,-63.5153"/>
<polygon fill="#000000" stroke="#000000" points="206.5001,-63.2484 203,-53.2485 199.5001,-63.2485 206.5001,-63.2484"/>
</g>
<!-- 6 -->
<g id="node7" class="node">
<title>6</title>
<path fill="#eeac7d" stroke="#000000" d="M388.5,-53C388.5,-53 295.5,-53 295.5,-53 289.5,-53 283.5,-47 283.5,-41 283.5,-41 283.5,-12 283.5,-12 283.5,-6 289.5,0 295.5,0 295.5,0 388.5,0 388.5,0 394.5,0 400.5,-6 400.5,-12 400.5,-12 400.5,-41 400.5,-41 400.5,-47 394.5,-53 388.5,-53"/>
<text text-anchor="start" x="295.5" y="-37.8" font-family="Helvetica,sans-Serif" font-size="14.00" fill="#000000">mse = 0.008</text>
<text text-anchor="start" x="292" y="-22.8" font-family="Helvetica,sans-Serif" font-size="14.00" fill="#000000">samples = 54</text>
<text text-anchor="start" x="291.5" y="-7.8" font-family="Helvetica,sans-Serif" font-size="14.00" fill="#000000">value = 0.048</text>
</g>
<!-- 5&#45;&gt;6 -->
<g id="edge6" class="edge">
<title>5&#45;&gt;6</title>
<path fill="none" stroke="#000000" d="M387.9681,-88.9777C381.4329,-80.0954 374.378,-70.5067 367.8036,-61.5711"/>
<polygon fill="#000000" stroke="#000000" points="370.4257,-59.229 361.6802,-53.2485 364.7874,-63.3775 370.4257,-59.229"/>
</g>
<!-- 7 -->
<g id="node8" class="node">
<title>7</title>
<path fill="#e58139" stroke="#000000" d="M531.5,-53C531.5,-53 430.5,-53 430.5,-53 424.5,-53 418.5,-47 418.5,-41 418.5,-41 418.5,-12 418.5,-12 418.5,-6 424.5,0 430.5,0 430.5,0 531.5,0 531.5,0 537.5,0 543.5,-6 543.5,-12 543.5,-12 543.5,-41 543.5,-41 543.5,-47 537.5,-53 531.5,-53"/>
<text text-anchor="start" x="434.5" y="-37.8" font-family="Helvetica,sans-Serif" font-size="14.00" fill="#000000">mse = 0.013</text>
<text text-anchor="start" x="426.5" y="-22.8" font-family="Helvetica,sans-Serif" font-size="14.00" fill="#000000">samples = 355</text>
<text text-anchor="start" x="430.5" y="-7.8" font-family="Helvetica,sans-Serif" font-size="14.00" fill="#000000">value = 0.176</text>
</g>
<!-- 5&#45;&gt;7 -->
<g id="edge7" class="edge">
<title>5&#45;&gt;7</title>
<path fill="none" stroke="#000000" d="M436.9743,-88.9777C443.2333,-80.0954 449.9901,-70.5067 456.2867,-61.5711"/>
<polygon fill="#000000" stroke="#000000" points="459.2521,-63.4389 462.1513,-53.2485 453.5301,-59.4068 459.2521,-63.4389"/>
</g>
<!-- 9 -->
<g id="node10" class="node">
<title>9</title>
<path fill="#f4c9ab" stroke="#000000" d="M741.5,-157C741.5,-157 640.5,-157 640.5,-157 634.5,-157 628.5,-151 628.5,-145 628.5,-145 628.5,-101 628.5,-101 628.5,-95 634.5,-89 640.5,-89 640.5,-89 741.5,-89 741.5,-89 747.5,-89 753.5,-95 753.5,-101 753.5,-101 753.5,-145 753.5,-145 753.5,-151 747.5,-157 741.5,-157"/>
<text text-anchor="start" x="650.5" y="-141.8" font-family="Helvetica,sans-Serif" font-size="14.00" fill="#000000">X2 ≤ 0.845</text>
<text text-anchor="start" x="644.5" y="-126.8" font-family="Helvetica,sans-Serif" font-size="14.00" fill="#000000">mse = 0.008</text>
<text text-anchor="start" x="636.5" y="-111.8" font-family="Helvetica,sans-Serif" font-size="14.00" fill="#000000">samples = 106</text>
<text text-anchor="start" x="638" y="-96.8" font-family="Helvetica,sans-Serif" font-size="14.00" fill="#000000">value = &#45;0.037</text>
</g>
<!-- 8&#45;&gt;9 -->
<g id="edge9" class="edge">
<title>8&#45;&gt;9</title>
<path fill="none" stroke="#000000" d="M691,-192.9465C691,-184.776 691,-175.9318 691,-167.3697"/>
<polygon fill="#000000" stroke="#000000" points="694.5001,-167.13 691,-157.13 687.5001,-167.13 694.5001,-167.13"/>
</g>
<!-- 12 -->
<g id="node13" class="node">
<title>12</title>
<path fill="#fcf2eb" stroke="#000000" d="M953.5,-157C953.5,-157 852.5,-157 852.5,-157 846.5,-157 840.5,-151 840.5,-145 840.5,-145 840.5,-101 840.5,-101 840.5,-95 846.5,-89 852.5,-89 852.5,-89 953.5,-89 953.5,-89 959.5,-89 965.5,-95 965.5,-101 965.5,-101 965.5,-145 965.5,-145 965.5,-151 959.5,-157 953.5,-157"/>
<text text-anchor="start" x="862.5" y="-141.8" font-family="Helvetica,sans-Serif" font-size="14.00" fill="#000000">X2 ≤ 0.304</text>
<text text-anchor="start" x="856.5" y="-126.8" font-family="Helvetica,sans-Serif" font-size="14.00" fill="#000000">mse = 0.013</text>
<text text-anchor="start" x="848.5" y="-111.8" font-family="Helvetica,sans-Serif" font-size="14.00" fill="#000000">samples = 269</text>
<text text-anchor="start" x="850" y="-96.8" font-family="Helvetica,sans-Serif" font-size="14.00" fill="#000000">value = &#45;0.158</text>
</g>
<!-- 8&#45;&gt;12 -->
<g id="edge12" class="edge">
<title>8&#45;&gt;12</title>
<path fill="none" stroke="#000000" d="M753.7465,-196.2187C778.1049,-184.2693 806.1414,-170.5156 831.2914,-158.1778"/>
<polygon fill="#000000" stroke="#000000" points="832.9781,-161.2489 840.4145,-153.7023 829.8951,-154.9644 832.9781,-161.2489"/>
</g>
<!-- 10 -->
<g id="node11" class="node">
<title>10</title>
<path fill="#f3c5a4" stroke="#000000" d="M672,-53C672,-53 574,-53 574,-53 568,-53 562,-47 562,-41 562,-41 562,-12 562,-12 562,-6 568,0 574,0 574,0 672,0 672,0 678,0 684,-6 684,-12 684,-12 684,-41 684,-41 684,-47 678,-53 672,-53"/>
<text text-anchor="start" x="576.5" y="-37.8" font-family="Helvetica,sans-Serif" font-size="14.00" fill="#000000">mse = 0.007</text>
<text text-anchor="start" x="573" y="-22.8" font-family="Helvetica,sans-Serif" font-size="14.00" fill="#000000">samples = 89</text>
<text text-anchor="start" x="570" y="-7.8" font-family="Helvetica,sans-Serif" font-size="14.00" fill="#000000">value = &#45;0.026</text>
</g>
<!-- 9&#45;&gt;10 -->
<g id="edge10" class="edge">
<title>9&#45;&gt;10</title>
<path fill="none" stroke="#000000" d="M667.0257,-88.9777C660.7667,-80.0954 654.0099,-70.5067 647.7133,-61.5711"/>
<polygon fill="#000000" stroke="#000000" points="650.4699,-59.4068 641.8487,-53.2485 644.7479,-63.4389 650.4699,-59.4068"/>
</g>
<!-- 11 -->
<g id="node12" class="node">
<title>11</title>
<path fill="#f8ddca" stroke="#000000" d="M812,-53C812,-53 714,-53 714,-53 708,-53 702,-47 702,-41 702,-41 702,-12 702,-12 702,-6 708,0 714,0 714,0 812,0 812,0 818,0 824,-6 824,-12 824,-12 824,-41 824,-41 824,-47 818,-53 812,-53"/>
<text text-anchor="start" x="716.5" y="-37.8" font-family="Helvetica,sans-Serif" font-size="14.00" fill="#000000">mse = 0.007</text>
<text text-anchor="start" x="713" y="-22.8" font-family="Helvetica,sans-Serif" font-size="14.00" fill="#000000">samples = 17</text>
<text text-anchor="start" x="710" y="-7.8" font-family="Helvetica,sans-Serif" font-size="14.00" fill="#000000">value = &#45;0.096</text>
</g>
<!-- 9&#45;&gt;11 -->
<g id="edge11" class="edge">
<title>9&#45;&gt;11</title>
<path fill="none" stroke="#000000" d="M716.3845,-88.9777C723.08,-80.0039 730.3135,-70.3089 737.039,-61.295"/>
<polygon fill="#000000" stroke="#000000" points="739.8677,-63.3565 743.0426,-53.2485 734.2573,-59.1704 739.8677,-63.3565"/>
</g>
<!-- 13 -->
<g id="node14" class="node">
<title>13</title>
<path fill="#f7d9c3" stroke="#000000" d="M952,-53C952,-53 854,-53 854,-53 848,-53 842,-47 842,-41 842,-41 842,-12 842,-12 842,-6 848,0 854,0 854,0 952,0 952,0 958,0 964,-6 964,-12 964,-12 964,-41 964,-41 964,-47 958,-53 952,-53"/>
<text text-anchor="start" x="861" y="-37.8" font-family="Helvetica,sans-Serif" font-size="14.00" fill="#000000">mse = 0.01</text>
<text text-anchor="start" x="853" y="-22.8" font-family="Helvetica,sans-Serif" font-size="14.00" fill="#000000">samples = 88</text>
<text text-anchor="start" x="850" y="-7.8" font-family="Helvetica,sans-Serif" font-size="14.00" fill="#000000">value = &#45;0.082</text>
</g>
<!-- 12&#45;&gt;13 -->
<g id="edge13" class="edge">
<title>12&#45;&gt;13</title>
<path fill="none" stroke="#000000" d="M903,-88.9777C903,-80.7364 903,-71.887 903,-63.5153"/>
<polygon fill="#000000" stroke="#000000" points="906.5001,-63.2484 903,-53.2485 899.5001,-63.2485 906.5001,-63.2484"/>
</g>
<!-- 14 -->
<g id="node15" class="node">
<title>14</title>
<path fill="#ffffff" stroke="#000000" d="M1095.5,-53C1095.5,-53 994.5,-53 994.5,-53 988.5,-53 982.5,-47 982.5,-41 982.5,-41 982.5,-12 982.5,-12 982.5,-6 988.5,0 994.5,0 994.5,0 1095.5,0 1095.5,0 1101.5,0 1107.5,-6 1107.5,-12 1107.5,-12 1107.5,-41 1107.5,-41 1107.5,-47 1101.5,-53 1095.5,-53"/>
<text text-anchor="start" x="1003" y="-37.8" font-family="Helvetica,sans-Serif" font-size="14.00" fill="#000000">mse = 0.01</text>
<text text-anchor="start" x="990.5" y="-22.8" font-family="Helvetica,sans-Serif" font-size="14.00" fill="#000000">samples = 181</text>
<text text-anchor="start" x="992" y="-7.8" font-family="Helvetica,sans-Serif" font-size="14.00" fill="#000000">value = &#45;0.195</text>
</g>
<!-- 12&#45;&gt;14 -->
<g id="edge14" class="edge">
<title>12&#45;&gt;14</title>
<path fill="none" stroke="#000000" d="M953.0639,-88.9777C967.3469,-79.2713 982.8713,-68.7213 997.0263,-59.1018"/>
<polygon fill="#000000" stroke="#000000" points="999.3359,-61.764 1005.6395,-53.2485 995.4014,-55.9744 999.3359,-61.764"/>
</g>
</g>
</svg>
