<?xml version="1.0" encoding="UTF-8" standalone="no"?>
<!DOCTYPE svg PUBLIC "-//W3C//DTD SVG 1.1//EN"
 "http://www.w3.org/Graphics/SVG/1.1/DTD/svg11.dtd">
<!-- Generated by graphviz version 2.40.1 (20161225.0304)
 -->
<!-- Title: Tree Pages: 1 -->
<svg width="1100pt" height="373pt"
 viewBox="0.00 0.00 1099.50 373.00" xmlns="http://www.w3.org/2000/svg" xmlns:xlink="http://www.w3.org/1999/xlink">
<g id="graph0" class="graph" transform="scale(1 1) rotate(0) translate(4 369)">
<title>Tree</title>
<polygon fill="#ffffff" stroke="transparent" points="-4,4 -4,-369 1095.5,-369 1095.5,4 -4,4"/>
<!-- 0 -->
<g id="node1" class="node">
<title>0</title>
<path fill="#efb185" stroke="#000000" d="M592,-365C592,-365 482,-365 482,-365 476,-365 470,-359 470,-353 470,-353 470,-309 470,-309 470,-303 476,-297 482,-297 482,-297 592,-297 592,-297 598,-297 604,-303 604,-309 604,-309 604,-353 604,-353 604,-359 598,-365 592,-365"/>
<text text-anchor="start" x="496.5" y="-349.8" font-family="Helvetica,sans-Serif" font-size="14.00" fill="#000000">X1 ≤ 0.609</text>
<text text-anchor="start" x="490.5" y="-334.8" font-family="Helvetica,sans-Serif" font-size="14.00" fill="#000000">mse = 0.034</text>
<text text-anchor="start" x="478" y="-319.8" font-family="Helvetica,sans-Serif" font-size="14.00" fill="#000000">samples = 1000</text>
<text text-anchor="start" x="486.5" y="-304.8" font-family="Helvetica,sans-Serif" font-size="14.00" fill="#000000">value = 0.032</text>
</g>
<!-- 1 -->
<g id="node2" class="node">
<title>1</title>
<path fill="#e99254" stroke="#000000" d="M451.5,-261C451.5,-261 350.5,-261 350.5,-261 344.5,-261 338.5,-255 338.5,-249 338.5,-249 338.5,-205 338.5,-205 338.5,-199 344.5,-193 350.5,-193 350.5,-193 451.5,-193 451.5,-193 457.5,-193 463.5,-199 463.5,-205 463.5,-205 463.5,-249 463.5,-249 463.5,-255 457.5,-261 451.5,-261"/>
<text text-anchor="start" x="360.5" y="-245.8" font-family="Helvetica,sans-Serif" font-size="14.00" fill="#000000">X2 ≤ 0.291</text>
<text text-anchor="start" x="354.5" y="-230.8" font-family="Helvetica,sans-Serif" font-size="14.00" fill="#000000">mse = 0.017</text>
<text text-anchor="start" x="346.5" y="-215.8" font-family="Helvetica,sans-Serif" font-size="14.00" fill="#000000">samples = 607</text>
<text text-anchor="start" x="350.5" y="-200.8" font-family="Helvetica,sans-Serif" font-size="14.00" fill="#000000">value = 0.137</text>
</g>
<!-- 0&#45;&gt;1 -->
<g id="edge1" class="edge">
<title>0&#45;&gt;1</title>
<path fill="none" stroke="#000000" d="M492.4685,-296.9465C480.1403,-287.519 466.6391,-277.1946 453.885,-267.4415"/>
<polygon fill="#000000" stroke="#000000" points="455.7012,-264.4243 445.6315,-261.13 451.449,-269.9848 455.7012,-264.4243"/>
<text text-anchor="middle" x="448.9356" y="-282.2107" font-family="Helvetica,sans-Serif" font-size="14.00" fill="#000000">True</text>
</g>
<!-- 8 -->
<g id="node9" class="node">
<title>8</title>
<path fill="#f9e1d1" stroke="#000000" d="M728.5,-261C728.5,-261 627.5,-261 627.5,-261 621.5,-261 615.5,-255 615.5,-249 615.5,-249 615.5,-205 615.5,-205 615.5,-199 621.5,-193 627.5,-193 627.5,-193 728.5,-193 728.5,-193 734.5,-193 740.5,-199 740.5,-205 740.5,-205 740.5,-249 740.5,-249 740.5,-255 734.5,-261 728.5,-261"/>
<text text-anchor="start" x="637.5" y="-245.8" font-family="Helvetica,sans-Serif" font-size="14.00" fill="#000000">X1 ≤ 0.804</text>
<text text-anchor="start" x="631.5" y="-230.8" font-family="Helvetica,sans-Serif" font-size="14.00" fill="#000000">mse = 0.016</text>
<text text-anchor="start" x="623.5" y="-215.8" font-family="Helvetica,sans-Serif" font-size="14.00" fill="#000000">samples = 393</text>
<text text-anchor="start" x="629.5" y="-200.8" font-family="Helvetica,sans-Serif" font-size="14.00" fill="#000000">value = &#45;0.13</text>
</g>
<!-- 0&#45;&gt;8 -->
<g id="edge8" class="edge">
<title>0&#45;&gt;8</title>
<path fill="none" stroke="#000000" d="M583.1687,-296.9465C596.0719,-287.4293 610.2145,-276.9978 623.5483,-267.163"/>
<polygon fill="#000000" stroke="#000000" points="625.7575,-269.8826 631.7276,-261.13 621.6023,-264.2492 625.7575,-269.8826"/>
<text text-anchor="middle" x="627.9944" y="-282.1497" font-family="Helvetica,sans-Serif" font-size="14.00" fill="#000000">False</text>
</g>
<!-- 2 -->
<g id="node3" class="node">
<title>2</title>
<path fill="#eeab7a" stroke="#000000" d="M243.5,-157C243.5,-157 142.5,-157 142.5,-157 136.5,-157 130.5,-151 130.5,-145 130.5,-145 130.5,-101 130.5,-101 130.5,-95 136.5,-89 142.5,-89 142.5,-89 243.5,-89 243.5,-89 249.5,-89 255.5,-95 255.5,-101 255.5,-101 255.5,-145 255.5,-145 255.5,-151 249.5,-157 243.5,-157"/>
<text text-anchor="start" x="152.5" y="-141.8" font-family="Helvetica,sans-Serif" font-size="14.00" fill="#000000">X2 ≤ 0.133</text>
<text text-anchor="start" x="146.5" y="-126.8" font-family="Helvetica,sans-Serif" font-size="14.00" fill="#000000">mse = 0.012</text>
<text text-anchor="start" x="138.5" y="-111.8" font-family="Helvetica,sans-Serif" font-size="14.00" fill="#000000">samples = 181</text>
<text text-anchor="start" x="142.5" y="-96.8" font-family="Helvetica,sans-Serif" font-size="14.00" fill="#000000">value = 0.055</text>
</g>
<!-- 1&#45;&gt;2 -->
<g id="edge2" class="edge">
<title>1&#45;&gt;2</title>
<path fill="none" stroke="#000000" d="M338.3111,-195.6555C315.0824,-184.0412 288.5706,-170.7853 264.6076,-158.8038"/>
<polygon fill="#000000" stroke="#000000" points="266.0701,-155.622 255.5605,-154.2803 262.9395,-161.883 266.0701,-155.622"/>
</g>
<!-- 5 -->
<g id="node6" class="node">
<title>5</title>
<path fill="#e68844" stroke="#000000" d="M451.5,-157C451.5,-157 350.5,-157 350.5,-157 344.5,-157 338.5,-151 338.5,-145 338.5,-145 338.5,-101 338.5,-101 338.5,-95 344.5,-89 350.5,-89 350.5,-89 451.5,-89 451.5,-89 457.5,-89 463.5,-95 463.5,-101 463.5,-101 463.5,-145 463.5,-145 463.5,-151 457.5,-157 451.5,-157"/>
<text text-anchor="start" x="360.5" y="-141.8" font-family="Helvetica,sans-Serif" font-size="14.00" fill="#000000">X1 ≤ 0.131</text>
<text text-anchor="start" x="354.5" y="-126.8" font-family="Helvetica,sans-Serif" font-size="14.00" fill="#000000">mse = 0.015</text>
<text text-anchor="start" x="346.5" y="-111.8" font-family="Helvetica,sans-Serif" font-size="14.00" fill="#000000">samples = 426</text>
<text text-anchor="start" x="350.5" y="-96.8" font-family="Helvetica,sans-Serif" font-size="14.00" fill="#000000">value = 0.172</text>
</g>
<!-- 1&#45;&gt;5 -->
<g id="edge5" class="edge">
<title>1&#45;&gt;5</title>
<path fill="none" stroke="#000000" d="M401,-192.9465C401,-184.776 401,-175.9318 401,-167.3697"/>
<polygon fill="#000000" stroke="#000000" points="404.5001,-167.13 401,-157.13 397.5001,-167.13 404.5001,-167.13"/>
</g>
<!-- 3 -->
<g id="node4" class="node">
<title>3</title>
<path fill="#f0b58b" stroke="#000000" d="M104,-53C104,-53 12,-53 12,-53 6,-53 0,-47 0,-41 0,-41 0,-12 0,-12 0,-6 6,0 12,0 12,0 104,0 104,0 110,0 116,-6 116,-12 116,-12 116,-41 116,-41 116,-47 110,-53 104,-53"/>
<text text-anchor="start" x="11.5" y="-37.8" font-family="Helvetica,sans-Serif" font-size="14.00" fill="#000000">mse = 0.009</text>
<text text-anchor="start" x="8" y="-22.8" font-family="Helvetica,sans-Serif" font-size="14.00" fill="#000000">samples = 91</text>
<text text-anchor="start" x="12" y="-7.8" font-family="Helvetica,sans-Serif" font-size="14.00" fill="#000000">value = 0.02</text>
</g>
<!-- 2&#45;&gt;3 -->
<g id="edge3" class="edge">
<title>2&#45;&gt;3</title>
<path fill="none" stroke="#000000" d="M145.4041,-88.9777C131.8252,-79.2713 117.0661,-68.7213 103.6088,-59.1018"/>
<polygon fill="#000000" stroke="#000000" points="105.5908,-56.2164 95.4202,-53.2485 101.5201,-61.9111 105.5908,-56.2164"/>
</g>
<!-- 4 -->
<g id="node5" class="node">
<title>4</title>
<path fill="#eba06a" stroke="#000000" d="M239.5,-53C239.5,-53 146.5,-53 146.5,-53 140.5,-53 134.5,-47 134.5,-41 134.5,-41 134.5,-12 134.5,-12 134.5,-6 140.5,0 146.5,0 146.5,0 239.5,0 239.5,0 245.5,0 251.5,-6 251.5,-12 251.5,-12 251.5,-41 251.5,-41 251.5,-47 245.5,-53 239.5,-53"/>
<text text-anchor="start" x="146.5" y="-37.8" font-family="Helvetica,sans-Serif" font-size="14.00" fill="#000000">mse = 0.013</text>
<text text-anchor="start" x="143" y="-22.8" font-family="Helvetica,sans-Serif" font-size="14.00" fill="#000000">samples = 90</text>
<text text-anchor="start" x="142.5" y="-7.8" font-family="Helvetica,sans-Serif" font-size="14.00" fill="#000000">value = 0.091</text>
</g>
<!-- 2&#45;&gt;4 -->
<g id="edge4" class="edge">
<title>2&#45;&gt;4</title>
<path fill="none" stroke="#000000" d="M193,-88.9777C193,-80.7364 193,-71.887 193,-63.5153"/>
<polygon fill="#000000" stroke="#000000" points="196.5001,-63.2484 193,-53.2485 189.5001,-63.2485 196.5001,-63.2484"/>
</g>
<!-- 6 -->
<g id="node7" class="node">
<title>6</title>
<path fill="#eca470" stroke="#000000" d="M374.5,-53C374.5,-53 281.5,-53 281.5,-53 275.5,-53 269.5,-47 269.5,-41 269.5,-41 269.5,-12 269.5,-12 269.5,-6 275.5,0 281.5,0 281.5,0 374.5,0 374.5,0 380.5,0 386.5,-6 386.5,-12 386.5,-12 386.5,-41 386.5,-41 386.5,-47 380.5,-53 374.5,-53"/>
<text text-anchor="start" x="286" y="-37.8" font-family="Helvetica,sans-Serif" font-size="14.00" fill="#000000">mse = 0.01</text>
<text text-anchor="start" x="278" y="-22.8" font-family="Helvetica,sans-Serif" font-size="14.00" fill="#000000">samples = 83</text>
<text text-anchor="start" x="277.5" y="-7.8" font-family="Helvetica,sans-Serif" font-size="14.00" fill="#000000">value = 0.077</text>
</g>
<!-- 5&#45;&gt;6 -->
<g id="edge6" class="edge">
<title>5&#45;&gt;6</title>
<path fill="none" stroke="#000000" d="M375.2629,-88.9777C368.4744,-80.0039 361.1404,-70.3089 354.3216,-61.295"/>
<polygon fill="#000000" stroke="#000000" points="357.059,-59.1121 348.2346,-53.2485 351.4763,-63.3352 357.059,-59.1121"/>
</g>
<!-- 7 -->
<g id="node8" class="node">
<title>7</title>
<path fill="#e58139" stroke="#000000" d="M517.5,-53C517.5,-53 416.5,-53 416.5,-53 410.5,-53 404.5,-47 404.5,-41 404.5,-41 404.5,-12 404.5,-12 404.5,-6 410.5,0 416.5,0 416.5,0 517.5,0 517.5,0 523.5,0 529.5,-6 529.5,-12 529.5,-12 529.5,-41 529.5,-41 529.5,-47 523.5,-53 517.5,-53"/>
<text text-anchor="start" x="420.5" y="-37.8" font-family="Helvetica,sans-Serif" font-size="14.00" fill="#000000">mse = 0.014</text>
<text text-anchor="start" x="412.5" y="-22.8" font-family="Helvetica,sans-Serif" font-size="14.00" fill="#000000">samples = 343</text>
<text text-anchor="start" x="416.5" y="-7.8" font-family="Helvetica,sans-Serif" font-size="14.00" fill="#000000">value = 0.195</text>
</g>
<!-- 5&#45;&gt;7 -->
<g id="edge7" class="edge">
<title>5&#45;&gt;7</title>
<path fill="none" stroke="#000000" d="M424.2691,-88.9777C430.344,-80.0954 436.9021,-70.5067 443.0135,-61.5711"/>
<polygon fill="#000000" stroke="#000000" points="445.9493,-63.4785 448.7057,-53.2485 440.1714,-59.5267 445.9493,-63.4785"/>
</g>
<!-- 9 -->
<g id="node10" class="node">
<title>9</title>
<path fill="#f5d0b4" stroke="#000000" d="M728.5,-157C728.5,-157 627.5,-157 627.5,-157 621.5,-157 615.5,-151 615.5,-145 615.5,-145 615.5,-101 615.5,-101 615.5,-95 621.5,-89 627.5,-89 627.5,-89 728.5,-89 728.5,-89 734.5,-89 740.5,-95 740.5,-101 740.5,-101 740.5,-145 740.5,-145 740.5,-151 734.5,-157 728.5,-157"/>
<text text-anchor="start" x="637.5" y="-141.8" font-family="Helvetica,sans-Serif" font-size="14.00" fill="#000000">X1 ≤ 0.691</text>
<text text-anchor="start" x="631.5" y="-126.8" font-family="Helvetica,sans-Serif" font-size="14.00" fill="#000000">mse = 0.012</text>
<text text-anchor="start" x="623.5" y="-111.8" font-family="Helvetica,sans-Serif" font-size="14.00" fill="#000000">samples = 212</text>
<text text-anchor="start" x="625" y="-96.8" font-family="Helvetica,sans-Serif" font-size="14.00" fill="#000000">value = &#45;0.069</text>
</g>
<!-- 8&#45;&gt;9 -->
<g id="edge9" class="edge">
<title>8&#45;&gt;9</title>
<path fill="none" stroke="#000000" d="M678,-192.9465C678,-184.776 678,-175.9318 678,-167.3697"/>
<polygon fill="#000000" stroke="#000000" points="681.5001,-167.13 678,-157.13 674.5001,-167.13 681.5001,-167.13"/>
</g>
<!-- 12 -->
<g id="node13" class="node">
<title>12</title>
<path fill="#fdf6f2" stroke="#000000" d="M940.5,-157C940.5,-157 839.5,-157 839.5,-157 833.5,-157 827.5,-151 827.5,-145 827.5,-145 827.5,-101 827.5,-101 827.5,-95 833.5,-89 839.5,-89 839.5,-89 940.5,-89 940.5,-89 946.5,-89 952.5,-95 952.5,-101 952.5,-101 952.5,-145 952.5,-145 952.5,-151 946.5,-157 940.5,-157"/>
<text text-anchor="start" x="849.5" y="-141.8" font-family="Helvetica,sans-Serif" font-size="14.00" fill="#000000">X2 ≤ 0.195</text>
<text text-anchor="start" x="843.5" y="-126.8" font-family="Helvetica,sans-Serif" font-size="14.00" fill="#000000">mse = 0.012</text>
<text text-anchor="start" x="835.5" y="-111.8" font-family="Helvetica,sans-Serif" font-size="14.00" fill="#000000">samples = 181</text>
<text text-anchor="start" x="846" y="-96.8" font-family="Helvetica,sans-Serif" font-size="14.00" fill="#000000">value = &#45;0.2</text>
</g>
<!-- 8&#45;&gt;12 -->
<g id="edge12" class="edge">
<title>8&#45;&gt;12</title>
<path fill="none" stroke="#000000" d="M740.7465,-196.2187C765.1049,-184.2693 793.1414,-170.5156 818.2914,-158.1778"/>
<polygon fill="#000000" stroke="#000000" points="819.9781,-161.2489 827.4145,-153.7023 816.8951,-154.9644 819.9781,-161.2489"/>
</g>
<!-- 10 -->
<g id="node11" class="node">
<title>10</title>
<path fill="#f2c19e" stroke="#000000" d="M658,-53C658,-53 560,-53 560,-53 554,-53 548,-47 548,-41 548,-41 548,-12 548,-12 548,-6 554,0 560,0 560,0 658,0 658,0 664,0 670,-6 670,-12 670,-12 670,-41 670,-41 670,-47 664,-53 658,-53"/>
<text text-anchor="start" x="562.5" y="-37.8" font-family="Helvetica,sans-Serif" font-size="14.00" fill="#000000">mse = 0.008</text>
<text text-anchor="start" x="559" y="-22.8" font-family="Helvetica,sans-Serif" font-size="14.00" fill="#000000">samples = 92</text>
<text text-anchor="start" x="556" y="-7.8" font-family="Helvetica,sans-Serif" font-size="14.00" fill="#000000">value = &#45;0.021</text>
</g>
<!-- 9&#45;&gt;10 -->
<g id="edge10" class="edge">
<title>9&#45;&gt;10</title>
<path fill="none" stroke="#000000" d="M653.6732,-88.9777C647.3221,-80.0954 640.466,-70.5067 634.0768,-61.5711"/>
<polygon fill="#000000" stroke="#000000" points="636.7893,-59.3472 628.1259,-53.2485 631.0952,-63.4187 636.7893,-59.3472"/>
</g>
<!-- 11 -->
<g id="node12" class="node">
<title>11</title>
<path fill="#f7dac6" stroke="#000000" d="M801.5,-53C801.5,-53 700.5,-53 700.5,-53 694.5,-53 688.5,-47 688.5,-41 688.5,-41 688.5,-12 688.5,-12 688.5,-6 694.5,0 700.5,0 700.5,0 801.5,0 801.5,0 807.5,0 813.5,-6 813.5,-12 813.5,-12 813.5,-41 813.5,-41 813.5,-47 807.5,-53 801.5,-53"/>
<text text-anchor="start" x="704.5" y="-37.8" font-family="Helvetica,sans-Serif" font-size="14.00" fill="#000000">mse = 0.012</text>
<text text-anchor="start" x="696.5" y="-22.8" font-family="Helvetica,sans-Serif" font-size="14.00" fill="#000000">samples = 120</text>
<text text-anchor="start" x="698" y="-7.8" font-family="Helvetica,sans-Serif" font-size="14.00" fill="#000000">value = &#45;0.106</text>
</g>
<!-- 9&#45;&gt;11 -->
<g id="edge11" class="edge">
<title>9&#45;&gt;11</title>
<path fill="none" stroke="#000000" d="M703.7371,-88.9777C710.5256,-80.0039 717.8596,-70.3089 724.6784,-61.295"/>
<polygon fill="#000000" stroke="#000000" points="727.5237,-63.3352 730.7654,-53.2485 721.941,-59.1121 727.5237,-63.3352"/>
</g>
<!-- 13 -->
<g id="node14" class="node">
<title>13</title>
<path fill="#f5d0b5" stroke="#000000" d="M936,-53C936,-53 844,-53 844,-53 838,-53 832,-47 832,-41 832,-41 832,-12 832,-12 832,-6 838,0 844,0 844,0 936,0 936,0 942,0 948,-6 948,-12 948,-12 948,-41 948,-41 948,-47 942,-53 936,-53"/>
<text text-anchor="start" x="843.5" y="-37.8" font-family="Helvetica,sans-Serif" font-size="14.00" fill="#000000">mse = 0.006</text>
<text text-anchor="start" x="840" y="-22.8" font-family="Helvetica,sans-Serif" font-size="14.00" fill="#000000">samples = 33</text>
<text text-anchor="start" x="841.5" y="-7.8" font-family="Helvetica,sans-Serif" font-size="14.00" fill="#000000">value = &#45;0.07</text>
</g>
<!-- 12&#45;&gt;13 -->
<g id="edge13" class="edge">
<title>12&#45;&gt;13</title>
<path fill="none" stroke="#000000" d="M890,-88.9777C890,-80.7364 890,-71.887 890,-63.5153"/>
<polygon fill="#000000" stroke="#000000" points="893.5001,-63.2484 890,-53.2485 886.5001,-63.2485 893.5001,-63.2484"/>
</g>
<!-- 14 -->
<g id="node15" class="node">
<title>14</title>
<path fill="#ffffff" stroke="#000000" d="M1079.5,-53C1079.5,-53 978.5,-53 978.5,-53 972.5,-53 966.5,-47 966.5,-41 966.5,-41 966.5,-12 966.5,-12 966.5,-6 972.5,0 978.5,0 978.5,0 1079.5,0 1079.5,0 1085.5,0 1091.5,-6 1091.5,-12 1091.5,-12 1091.5,-41 1091.5,-41 1091.5,-47 1085.5,-53 1079.5,-53"/>
<text text-anchor="start" x="982.5" y="-37.8" font-family="Helvetica,sans-Serif" font-size="14.00" fill="#000000">mse = 0.009</text>
<text text-anchor="start" x="974.5" y="-22.8" font-family="Helvetica,sans-Serif" font-size="14.00" fill="#000000">samples = 148</text>
<text text-anchor="start" x="976" y="-7.8" font-family="Helvetica,sans-Serif" font-size="14.00" fill="#000000">value = &#45;0.229</text>
</g>
<!-- 12&#45;&gt;14 -->
<g id="edge14" class="edge">
<title>12&#45;&gt;14</title>
<path fill="none" stroke="#000000" d="M939.0062,-88.9777C952.9874,-79.2713 968.1838,-68.7213 982.0398,-59.1018"/>
<polygon fill="#000000" stroke="#000000" points="984.2526,-61.8264 990.4711,-53.2485 980.2606,-56.0763 984.2526,-61.8264"/>
</g>
</g>
</svg>
