<?xml version="1.0" encoding="UTF-8" standalone="no"?>
<!DOCTYPE svg PUBLIC "-//W3C//DTD SVG 1.1//EN"
 "http://www.w3.org/Graphics/SVG/1.1/DTD/svg11.dtd">
<!-- Generated by graphviz version 2.40.1 (20161225.0304)
 -->
<!-- Title: Tree Pages: 1 -->
<svg width="1110pt" height="373pt"
 viewBox="0.00 0.00 1110.00 373.00" xmlns="http://www.w3.org/2000/svg" xmlns:xlink="http://www.w3.org/1999/xlink">
<g id="graph0" class="graph" transform="scale(1 1) rotate(0) translate(4 369)">
<title>Tree</title>
<polygon fill="#ffffff" stroke="transparent" points="-4,4 -4,-369 1106,-369 1106,4 -4,4"/>
<!-- 0 -->
<g id="node1" class="node">
<title>0</title>
<path fill="#efb184" stroke="#000000" d="M606.5,-365C606.5,-365 496.5,-365 496.5,-365 490.5,-365 484.5,-359 484.5,-353 484.5,-353 484.5,-309 484.5,-309 484.5,-303 490.5,-297 496.5,-297 496.5,-297 606.5,-297 606.5,-297 612.5,-297 618.5,-303 618.5,-309 618.5,-309 618.5,-353 618.5,-353 618.5,-359 612.5,-365 606.5,-365"/>
<text text-anchor="start" x="511" y="-349.8" font-family="Helvetica,sans-Serif" font-size="14.00" fill="#000000">X1 ≤ 0.627</text>
<text text-anchor="start" x="505" y="-334.8" font-family="Helvetica,sans-Serif" font-size="14.00" fill="#000000">mse = 0.035</text>
<text text-anchor="start" x="492.5" y="-319.8" font-family="Helvetica,sans-Serif" font-size="14.00" fill="#000000">samples = 1000</text>
<text text-anchor="start" x="501" y="-304.8" font-family="Helvetica,sans-Serif" font-size="14.00" fill="#000000">value = 0.031</text>
</g>
<!-- 1 -->
<g id="node2" class="node">
<title>1</title>
<path fill="#e89050" stroke="#000000" d="M464,-261C464,-261 363,-261 363,-261 357,-261 351,-255 351,-249 351,-249 351,-205 351,-205 351,-199 357,-193 363,-193 363,-193 464,-193 464,-193 470,-193 476,-199 476,-205 476,-205 476,-249 476,-249 476,-255 470,-261 464,-261"/>
<text text-anchor="start" x="373" y="-245.8" font-family="Helvetica,sans-Serif" font-size="14.00" fill="#000000">X2 ≤ 0.233</text>
<text text-anchor="start" x="367" y="-230.8" font-family="Helvetica,sans-Serif" font-size="14.00" fill="#000000">mse = 0.018</text>
<text text-anchor="start" x="359" y="-215.8" font-family="Helvetica,sans-Serif" font-size="14.00" fill="#000000">samples = 633</text>
<text text-anchor="start" x="363" y="-200.8" font-family="Helvetica,sans-Serif" font-size="14.00" fill="#000000">value = 0.132</text>
</g>
<!-- 0&#45;&gt;1 -->
<g id="edge1" class="edge">
<title>0&#45;&gt;1</title>
<path fill="none" stroke="#000000" d="M506.3136,-296.9465C493.685,-287.4293 479.8433,-276.9978 466.7932,-267.163"/>
<polygon fill="#000000" stroke="#000000" points="468.8805,-264.3534 458.7879,-261.13 464.6675,-269.9437 468.8805,-264.3534"/>
<text text-anchor="middle" x="462.2661" y="-282.1869" font-family="Helvetica,sans-Serif" font-size="14.00" fill="#000000">True</text>
</g>
<!-- 8 -->
<g id="node9" class="node">
<title>8</title>
<path fill="#fbe9dd" stroke="#000000" d="M739,-261C739,-261 638,-261 638,-261 632,-261 626,-255 626,-249 626,-249 626,-205 626,-205 626,-199 632,-193 638,-193 638,-193 739,-193 739,-193 745,-193 751,-199 751,-205 751,-205 751,-249 751,-249 751,-255 745,-261 739,-261"/>
<text text-anchor="start" x="648" y="-245.8" font-family="Helvetica,sans-Serif" font-size="14.00" fill="#000000">X1 ≤ 0.766</text>
<text text-anchor="start" x="642" y="-230.8" font-family="Helvetica,sans-Serif" font-size="14.00" fill="#000000">mse = 0.015</text>
<text text-anchor="start" x="634" y="-215.8" font-family="Helvetica,sans-Serif" font-size="14.00" fill="#000000">samples = 367</text>
<text text-anchor="start" x="635.5" y="-200.8" font-family="Helvetica,sans-Serif" font-size="14.00" fill="#000000">value = &#45;0.145</text>
</g>
<!-- 0&#45;&gt;8 -->
<g id="edge8" class="edge">
<title>0&#45;&gt;8</title>
<path fill="none" stroke="#000000" d="M596.3589,-296.9465C608.7778,-287.519 622.3783,-277.1946 635.2261,-267.4415"/>
<polygon fill="#000000" stroke="#000000" points="637.6915,-269.9642 643.5403,-261.13 633.459,-264.3887 637.6915,-269.9642"/>
<text text-anchor="middle" x="640.1487" y="-282.1989" font-family="Helvetica,sans-Serif" font-size="14.00" fill="#000000">False</text>
</g>
<!-- 2 -->
<g id="node3" class="node">
<title>2</title>
<path fill="#eda978" stroke="#000000" d="M255,-157C255,-157 154,-157 154,-157 148,-157 142,-151 142,-145 142,-145 142,-101 142,-101 142,-95 148,-89 154,-89 154,-89 255,-89 255,-89 261,-89 267,-95 267,-101 267,-101 267,-145 267,-145 267,-151 261,-157 255,-157"/>
<text text-anchor="start" x="164" y="-141.8" font-family="Helvetica,sans-Serif" font-size="14.00" fill="#000000">X1 ≤ 0.542</text>
<text text-anchor="start" x="162.5" y="-126.8" font-family="Helvetica,sans-Serif" font-size="14.00" fill="#000000">mse = 0.01</text>
<text text-anchor="start" x="150" y="-111.8" font-family="Helvetica,sans-Serif" font-size="14.00" fill="#000000">samples = 148</text>
<text text-anchor="start" x="154" y="-96.8" font-family="Helvetica,sans-Serif" font-size="14.00" fill="#000000">value = 0.053</text>
</g>
<!-- 1&#45;&gt;2 -->
<g id="edge2" class="edge">
<title>1&#45;&gt;2</title>
<path fill="none" stroke="#000000" d="M350.7931,-195.7966C327.3372,-184.1247 300.5178,-170.7792 276.3032,-158.7298"/>
<polygon fill="#000000" stroke="#000000" points="277.6747,-155.503 267.1626,-154.1814 274.5562,-161.7699 277.6747,-155.503"/>
</g>
<!-- 5 -->
<g id="node6" class="node">
<title>5</title>
<path fill="#e68844" stroke="#000000" d="M464,-157C464,-157 363,-157 363,-157 357,-157 351,-151 351,-145 351,-145 351,-101 351,-101 351,-95 357,-89 363,-89 363,-89 464,-89 464,-89 470,-89 476,-95 476,-101 476,-101 476,-145 476,-145 476,-151 470,-157 464,-157"/>
<text text-anchor="start" x="373" y="-141.8" font-family="Helvetica,sans-Serif" font-size="14.00" fill="#000000">X1 ≤ 0.095</text>
<text text-anchor="start" x="367" y="-126.8" font-family="Helvetica,sans-Serif" font-size="14.00" fill="#000000">mse = 0.018</text>
<text text-anchor="start" x="359" y="-111.8" font-family="Helvetica,sans-Serif" font-size="14.00" fill="#000000">samples = 485</text>
<text text-anchor="start" x="363" y="-96.8" font-family="Helvetica,sans-Serif" font-size="14.00" fill="#000000">value = 0.157</text>
</g>
<!-- 1&#45;&gt;5 -->
<g id="edge5" class="edge">
<title>1&#45;&gt;5</title>
<path fill="none" stroke="#000000" d="M413.5,-192.9465C413.5,-184.776 413.5,-175.9318 413.5,-167.3697"/>
<polygon fill="#000000" stroke="#000000" points="417.0001,-167.13 413.5,-157.13 410.0001,-167.13 417.0001,-167.13"/>
</g>
<!-- 3 -->
<g id="node4" class="node">
<title>3</title>
<path fill="#eca571" stroke="#000000" d="M113,-53C113,-53 12,-53 12,-53 6,-53 0,-47 0,-41 0,-41 0,-12 0,-12 0,-6 6,0 12,0 12,0 113,0 113,0 119,0 125,-6 125,-12 125,-12 125,-41 125,-41 125,-47 119,-53 113,-53"/>
<text text-anchor="start" x="20.5" y="-37.8" font-family="Helvetica,sans-Serif" font-size="14.00" fill="#000000">mse = 0.01</text>
<text text-anchor="start" x="8" y="-22.8" font-family="Helvetica,sans-Serif" font-size="14.00" fill="#000000">samples = 124</text>
<text text-anchor="start" x="12" y="-7.8" font-family="Helvetica,sans-Serif" font-size="14.00" fill="#000000">value = 0.067</text>
</g>
<!-- 2&#45;&gt;3 -->
<g id="edge3" class="edge">
<title>2&#45;&gt;3</title>
<path fill="none" stroke="#000000" d="M154.4361,-88.9777C140.1531,-79.2713 124.6287,-68.7213 110.4737,-59.1018"/>
<polygon fill="#000000" stroke="#000000" points="112.0986,-55.9744 101.8605,-53.2485 108.1641,-61.764 112.0986,-55.9744"/>
</g>
<!-- 4 -->
<g id="node5" class="node">
<title>4</title>
<path fill="#f2c29f" stroke="#000000" d="M253.5,-53C253.5,-53 155.5,-53 155.5,-53 149.5,-53 143.5,-47 143.5,-41 143.5,-41 143.5,-12 143.5,-12 143.5,-6 149.5,0 155.5,0 155.5,0 253.5,0 253.5,0 259.5,0 265.5,-6 265.5,-12 265.5,-12 265.5,-41 265.5,-41 265.5,-47 259.5,-53 253.5,-53"/>
<text text-anchor="start" x="158" y="-37.8" font-family="Helvetica,sans-Serif" font-size="14.00" fill="#000000">mse = 0.006</text>
<text text-anchor="start" x="154.5" y="-22.8" font-family="Helvetica,sans-Serif" font-size="14.00" fill="#000000">samples = 24</text>
<text text-anchor="start" x="151.5" y="-7.8" font-family="Helvetica,sans-Serif" font-size="14.00" fill="#000000">value = &#45;0.022</text>
</g>
<!-- 2&#45;&gt;4 -->
<g id="edge4" class="edge">
<title>2&#45;&gt;4</title>
<path fill="none" stroke="#000000" d="M204.5,-88.9777C204.5,-80.7364 204.5,-71.887 204.5,-63.5153"/>
<polygon fill="#000000" stroke="#000000" points="208.0001,-63.2484 204.5,-53.2485 201.0001,-63.2485 208.0001,-63.2484"/>
</g>
<!-- 6 -->
<g id="node7" class="node">
<title>6</title>
<path fill="#eeae7f" stroke="#000000" d="M389,-53C389,-53 296,-53 296,-53 290,-53 284,-47 284,-41 284,-41 284,-12 284,-12 284,-6 290,0 296,0 296,0 389,0 389,0 395,0 401,-6 401,-12 401,-12 401,-41 401,-41 401,-47 395,-53 389,-53"/>
<text text-anchor="start" x="296" y="-37.8" font-family="Helvetica,sans-Serif" font-size="14.00" fill="#000000">mse = 0.012</text>
<text text-anchor="start" x="292.5" y="-22.8" font-family="Helvetica,sans-Serif" font-size="14.00" fill="#000000">samples = 73</text>
<text text-anchor="start" x="292" y="-7.8" font-family="Helvetica,sans-Serif" font-size="14.00" fill="#000000">value = 0.039</text>
</g>
<!-- 5&#45;&gt;6 -->
<g id="edge6" class="edge">
<title>5&#45;&gt;6</title>
<path fill="none" stroke="#000000" d="M388.4681,-88.9777C381.9329,-80.0954 374.878,-70.5067 368.3036,-61.5711"/>
<polygon fill="#000000" stroke="#000000" points="370.9257,-59.229 362.1802,-53.2485 365.2874,-63.3775 370.9257,-59.229"/>
</g>
<!-- 7 -->
<g id="node8" class="node">
<title>7</title>
<path fill="#e58139" stroke="#000000" d="M532,-53C532,-53 431,-53 431,-53 425,-53 419,-47 419,-41 419,-41 419,-12 419,-12 419,-6 425,0 431,0 431,0 532,0 532,0 538,0 544,-6 544,-12 544,-12 544,-41 544,-41 544,-47 538,-53 532,-53"/>
<text text-anchor="start" x="435" y="-37.8" font-family="Helvetica,sans-Serif" font-size="14.00" fill="#000000">mse = 0.017</text>
<text text-anchor="start" x="427" y="-22.8" font-family="Helvetica,sans-Serif" font-size="14.00" fill="#000000">samples = 412</text>
<text text-anchor="start" x="431" y="-7.8" font-family="Helvetica,sans-Serif" font-size="14.00" fill="#000000">value = 0.178</text>
</g>
<!-- 5&#45;&gt;7 -->
<g id="edge7" class="edge">
<title>5&#45;&gt;7</title>
<path fill="none" stroke="#000000" d="M437.4743,-88.9777C443.7333,-80.0954 450.4901,-70.5067 456.7867,-61.5711"/>
<polygon fill="#000000" stroke="#000000" points="459.7521,-63.4389 462.6513,-53.2485 454.0301,-59.4068 459.7521,-63.4389"/>
</g>
<!-- 9 -->
<g id="node10" class="node">
<title>9</title>
<path fill="#f5d0b5" stroke="#000000" d="M739,-157C739,-157 638,-157 638,-157 632,-157 626,-151 626,-145 626,-145 626,-101 626,-101 626,-95 632,-89 638,-89 638,-89 739,-89 739,-89 745,-89 751,-95 751,-101 751,-101 751,-145 751,-145 751,-151 745,-157 739,-157"/>
<text text-anchor="start" x="648" y="-141.8" font-family="Helvetica,sans-Serif" font-size="14.00" fill="#000000">X1 ≤ 0.669</text>
<text text-anchor="start" x="646.5" y="-126.8" font-family="Helvetica,sans-Serif" font-size="14.00" fill="#000000">mse = 0.01</text>
<text text-anchor="start" x="634" y="-111.8" font-family="Helvetica,sans-Serif" font-size="14.00" fill="#000000">samples = 126</text>
<text text-anchor="start" x="635.5" y="-96.8" font-family="Helvetica,sans-Serif" font-size="14.00" fill="#000000">value = &#45;0.066</text>
</g>
<!-- 8&#45;&gt;9 -->
<g id="edge9" class="edge">
<title>8&#45;&gt;9</title>
<path fill="none" stroke="#000000" d="M688.5,-192.9465C688.5,-184.776 688.5,-175.9318 688.5,-167.3697"/>
<polygon fill="#000000" stroke="#000000" points="692.0001,-167.13 688.5,-157.13 685.0001,-167.13 692.0001,-167.13"/>
</g>
<!-- 12 -->
<g id="node13" class="node">
<title>12</title>
<path fill="#fdf7f2" stroke="#000000" d="M948,-157C948,-157 847,-157 847,-157 841,-157 835,-151 835,-145 835,-145 835,-101 835,-101 835,-95 841,-89 847,-89 847,-89 948,-89 948,-89 954,-89 960,-95 960,-101 960,-101 960,-145 960,-145 960,-151 954,-157 948,-157"/>
<text text-anchor="start" x="857" y="-141.8" font-family="Helvetica,sans-Serif" font-size="14.00" fill="#000000">X2 ≤ 0.176</text>
<text text-anchor="start" x="851" y="-126.8" font-family="Helvetica,sans-Serif" font-size="14.00" fill="#000000">mse = 0.013</text>
<text text-anchor="start" x="843" y="-111.8" font-family="Helvetica,sans-Serif" font-size="14.00" fill="#000000">samples = 241</text>
<text text-anchor="start" x="844.5" y="-96.8" font-family="Helvetica,sans-Serif" font-size="14.00" fill="#000000">value = &#45;0.185</text>
</g>
<!-- 8&#45;&gt;12 -->
<g id="edge12" class="edge">
<title>8&#45;&gt;12</title>
<path fill="none" stroke="#000000" d="M751.2069,-195.7966C774.6628,-184.1247 801.4822,-170.7792 825.6968,-158.7298"/>
<polygon fill="#000000" stroke="#000000" points="827.4438,-161.7699 834.8374,-154.1814 824.3253,-155.503 827.4438,-161.7699"/>
</g>
<!-- 10 -->
<g id="node11" class="node">
<title>10</title>
<path fill="#f2c2a0" stroke="#000000" d="M672.5,-53C672.5,-53 574.5,-53 574.5,-53 568.5,-53 562.5,-47 562.5,-41 562.5,-41 562.5,-12 562.5,-12 562.5,-6 568.5,0 574.5,0 574.5,0 672.5,0 672.5,0 678.5,0 684.5,-6 684.5,-12 684.5,-12 684.5,-41 684.5,-41 684.5,-47 678.5,-53 672.5,-53"/>
<text text-anchor="start" x="577" y="-37.8" font-family="Helvetica,sans-Serif" font-size="14.00" fill="#000000">mse = 0.008</text>
<text text-anchor="start" x="573.5" y="-22.8" font-family="Helvetica,sans-Serif" font-size="14.00" fill="#000000">samples = 45</text>
<text text-anchor="start" x="570.5" y="-7.8" font-family="Helvetica,sans-Serif" font-size="14.00" fill="#000000">value = &#45;0.024</text>
</g>
<!-- 9&#45;&gt;10 -->
<g id="edge10" class="edge">
<title>9&#45;&gt;10</title>
<path fill="none" stroke="#000000" d="M665.5834,-88.9777C659.6006,-80.0954 653.1418,-70.5067 647.123,-61.5711"/>
<polygon fill="#000000" stroke="#000000" points="650.0067,-59.5871 641.5171,-53.2485 644.2009,-63.4978 650.0067,-59.5871"/>
</g>
<!-- 11 -->
<g id="node12" class="node">
<title>11</title>
<path fill="#f7d8c1" stroke="#000000" d="M806.5,-53C806.5,-53 714.5,-53 714.5,-53 708.5,-53 702.5,-47 702.5,-41 702.5,-41 702.5,-12 702.5,-12 702.5,-6 708.5,0 714.5,0 714.5,0 806.5,0 806.5,0 812.5,0 818.5,-6 818.5,-12 818.5,-12 818.5,-41 818.5,-41 818.5,-47 812.5,-53 806.5,-53"/>
<text text-anchor="start" x="714" y="-37.8" font-family="Helvetica,sans-Serif" font-size="14.00" fill="#000000">mse = 0.009</text>
<text text-anchor="start" x="710.5" y="-22.8" font-family="Helvetica,sans-Serif" font-size="14.00" fill="#000000">samples = 81</text>
<text text-anchor="start" x="712" y="-7.8" font-family="Helvetica,sans-Serif" font-size="14.00" fill="#000000">value = &#45;0.09</text>
</g>
<!-- 9&#45;&gt;11 -->
<g id="edge11" class="edge">
<title>9&#45;&gt;11</title>
<path fill="none" stroke="#000000" d="M713.8845,-88.9777C720.58,-80.0039 727.8135,-70.3089 734.539,-61.295"/>
<polygon fill="#000000" stroke="#000000" points="737.3677,-63.3565 740.5426,-53.2485 731.7573,-59.1704 737.3677,-63.3565"/>
</g>
<!-- 13 -->
<g id="node14" class="node">
<title>13</title>
<path fill="#f6d3bb" stroke="#000000" d="M946.5,-53C946.5,-53 848.5,-53 848.5,-53 842.5,-53 836.5,-47 836.5,-41 836.5,-41 836.5,-12 836.5,-12 836.5,-6 842.5,0 848.5,0 848.5,0 946.5,0 946.5,0 952.5,0 958.5,-6 958.5,-12 958.5,-12 958.5,-41 958.5,-41 958.5,-47 952.5,-53 946.5,-53"/>
<text text-anchor="start" x="851" y="-37.8" font-family="Helvetica,sans-Serif" font-size="14.00" fill="#000000">mse = 0.011</text>
<text text-anchor="start" x="847.5" y="-22.8" font-family="Helvetica,sans-Serif" font-size="14.00" fill="#000000">samples = 47</text>
<text text-anchor="start" x="844.5" y="-7.8" font-family="Helvetica,sans-Serif" font-size="14.00" fill="#000000">value = &#45;0.077</text>
</g>
<!-- 12&#45;&gt;13 -->
<g id="edge13" class="edge">
<title>12&#45;&gt;13</title>
<path fill="none" stroke="#000000" d="M897.5,-88.9777C897.5,-80.7364 897.5,-71.887 897.5,-63.5153"/>
<polygon fill="#000000" stroke="#000000" points="901.0001,-63.2484 897.5,-53.2485 894.0001,-63.2485 901.0001,-63.2484"/>
</g>
<!-- 14 -->
<g id="node15" class="node">
<title>14</title>
<path fill="#ffffff" stroke="#000000" d="M1090,-53C1090,-53 989,-53 989,-53 983,-53 977,-47 977,-41 977,-41 977,-12 977,-12 977,-6 983,0 989,0 989,0 1090,0 1090,0 1096,0 1102,-6 1102,-12 1102,-12 1102,-41 1102,-41 1102,-47 1096,-53 1090,-53"/>
<text text-anchor="start" x="997.5" y="-37.8" font-family="Helvetica,sans-Serif" font-size="14.00" fill="#000000">mse = 0.01</text>
<text text-anchor="start" x="985" y="-22.8" font-family="Helvetica,sans-Serif" font-size="14.00" fill="#000000">samples = 194</text>
<text text-anchor="start" x="986.5" y="-7.8" font-family="Helvetica,sans-Serif" font-size="14.00" fill="#000000">value = &#45;0.212</text>
</g>
<!-- 12&#45;&gt;14 -->
<g id="edge14" class="edge">
<title>12&#45;&gt;14</title>
<path fill="none" stroke="#000000" d="M947.5639,-88.9777C961.8469,-79.2713 977.3713,-68.7213 991.5263,-59.1018"/>
<polygon fill="#000000" stroke="#000000" points="993.8359,-61.764 1000.1395,-53.2485 989.9014,-55.9744 993.8359,-61.764"/>
</g>
</g>
</svg>
