<?xml version="1.0" encoding="UTF-8" standalone="no"?>
<!DOCTYPE svg PUBLIC "-//W3C//DTD SVG 1.1//EN"
 "http://www.w3.org/Graphics/SVG/1.1/DTD/svg11.dtd">
<!-- Generated by graphviz version 2.40.1 (20161225.0304)
 -->
<!-- Title: Tree Pages: 1 -->
<svg width="1116pt" height="373pt"
 viewBox="0.00 0.00 1116.00 373.00" xmlns="http://www.w3.org/2000/svg" xmlns:xlink="http://www.w3.org/1999/xlink">
<g id="graph0" class="graph" transform="scale(1 1) rotate(0) translate(4 369)">
<title>Tree</title>
<polygon fill="#ffffff" stroke="transparent" points="-4,4 -4,-369 1112,-369 1112,4 -4,4"/>
<!-- 0 -->
<g id="node1" class="node">
<title>0</title>
<path fill="#eda774" stroke="#000000" d="M600.5,-365C600.5,-365 490.5,-365 490.5,-365 484.5,-365 478.5,-359 478.5,-353 478.5,-353 478.5,-309 478.5,-309 478.5,-303 484.5,-297 490.5,-297 490.5,-297 600.5,-297 600.5,-297 606.5,-297 612.5,-303 612.5,-309 612.5,-309 612.5,-353 612.5,-353 612.5,-359 606.5,-365 600.5,-365"/>
<text text-anchor="start" x="505" y="-349.8" font-family="Helvetica,sans-Serif" font-size="14.00" fill="#000000">X1 ≤ 0.578</text>
<text text-anchor="start" x="499" y="-334.8" font-family="Helvetica,sans-Serif" font-size="14.00" fill="#000000">mse = 0.034</text>
<text text-anchor="start" x="486.5" y="-319.8" font-family="Helvetica,sans-Serif" font-size="14.00" fill="#000000">samples = 1000</text>
<text text-anchor="start" x="495" y="-304.8" font-family="Helvetica,sans-Serif" font-size="14.00" fill="#000000">value = 0.035</text>
</g>
<!-- 1 -->
<g id="node2" class="node">
<title>1</title>
<path fill="#e88e4d" stroke="#000000" d="M458,-261C458,-261 357,-261 357,-261 351,-261 345,-255 345,-249 345,-249 345,-205 345,-205 345,-199 351,-193 357,-193 357,-193 458,-193 458,-193 464,-193 470,-199 470,-205 470,-205 470,-249 470,-249 470,-255 464,-261 458,-261"/>
<text text-anchor="start" x="367" y="-245.8" font-family="Helvetica,sans-Serif" font-size="14.00" fill="#000000">X2 ≤ 0.365</text>
<text text-anchor="start" x="361" y="-230.8" font-family="Helvetica,sans-Serif" font-size="14.00" fill="#000000">mse = 0.016</text>
<text text-anchor="start" x="353" y="-215.8" font-family="Helvetica,sans-Serif" font-size="14.00" fill="#000000">samples = 614</text>
<text text-anchor="start" x="357" y="-200.8" font-family="Helvetica,sans-Serif" font-size="14.00" fill="#000000">value = 0.139</text>
</g>
<!-- 0&#45;&gt;1 -->
<g id="edge1" class="edge">
<title>0&#45;&gt;1</title>
<path fill="none" stroke="#000000" d="M500.3136,-296.9465C487.685,-287.4293 473.8433,-276.9978 460.7932,-267.163"/>
<polygon fill="#000000" stroke="#000000" points="462.8805,-264.3534 452.7879,-261.13 458.6675,-269.9437 462.8805,-264.3534"/>
<text text-anchor="middle" x="456.2661" y="-282.1869" font-family="Helvetica,sans-Serif" font-size="14.00" fill="#000000">True</text>
</g>
<!-- 8 -->
<g id="node9" class="node">
<title>8</title>
<path fill="#f5cfb3" stroke="#000000" d="M739,-261C739,-261 638,-261 638,-261 632,-261 626,-255 626,-249 626,-249 626,-205 626,-205 626,-199 632,-193 638,-193 638,-193 739,-193 739,-193 745,-193 751,-199 751,-205 751,-205 751,-249 751,-249 751,-255 745,-261 739,-261"/>
<text text-anchor="start" x="648" y="-245.8" font-family="Helvetica,sans-Serif" font-size="14.00" fill="#000000">X1 ≤ 0.722</text>
<text text-anchor="start" x="642" y="-230.8" font-family="Helvetica,sans-Serif" font-size="14.00" fill="#000000">mse = 0.017</text>
<text text-anchor="start" x="634" y="-215.8" font-family="Helvetica,sans-Serif" font-size="14.00" fill="#000000">samples = 386</text>
<text text-anchor="start" x="635.5" y="-200.8" font-family="Helvetica,sans-Serif" font-size="14.00" fill="#000000">value = &#45;0.131</text>
</g>
<!-- 0&#45;&gt;8 -->
<g id="edge8" class="edge">
<title>0&#45;&gt;8</title>
<path fill="none" stroke="#000000" d="M592.3235,-296.9465C605.4098,-287.4293 619.753,-276.9978 633.2759,-267.163"/>
<polygon fill="#000000" stroke="#000000" points="635.5425,-269.8423 641.5713,-261.13 631.4253,-264.1812 635.5425,-269.8423"/>
<text text-anchor="middle" x="637.6722" y="-282.1241" font-family="Helvetica,sans-Serif" font-size="14.00" fill="#000000">False</text>
</g>
<!-- 2 -->
<g id="node3" class="node">
<title>2</title>
<path fill="#eb9d65" stroke="#000000" d="M248,-157C248,-157 147,-157 147,-157 141,-157 135,-151 135,-145 135,-145 135,-101 135,-101 135,-95 141,-89 147,-89 147,-89 248,-89 248,-89 254,-89 260,-95 260,-101 260,-101 260,-145 260,-145 260,-151 254,-157 248,-157"/>
<text text-anchor="start" x="157" y="-141.8" font-family="Helvetica,sans-Serif" font-size="14.00" fill="#000000">X1 ≤ 0.152</text>
<text text-anchor="start" x="151" y="-126.8" font-family="Helvetica,sans-Serif" font-size="14.00" fill="#000000">mse = 0.014</text>
<text text-anchor="start" x="143" y="-111.8" font-family="Helvetica,sans-Serif" font-size="14.00" fill="#000000">samples = 206</text>
<text text-anchor="start" x="147" y="-96.8" font-family="Helvetica,sans-Serif" font-size="14.00" fill="#000000">value = 0.075</text>
</g>
<!-- 1&#45;&gt;2 -->
<g id="edge2" class="edge">
<title>1&#45;&gt;2</title>
<path fill="none" stroke="#000000" d="M344.7775,-195.9374C321.0934,-184.2081 293.964,-170.7727 269.4963,-158.6553"/>
<polygon fill="#000000" stroke="#000000" points="270.7765,-155.3837 260.2619,-154.0821 267.6699,-161.6566 270.7765,-155.3837"/>
</g>
<!-- 5 -->
<g id="node6" class="node">
<title>5</title>
<path fill="#e68641" stroke="#000000" d="M458,-157C458,-157 357,-157 357,-157 351,-157 345,-151 345,-145 345,-145 345,-101 345,-101 345,-95 351,-89 357,-89 357,-89 458,-89 458,-89 464,-89 470,-95 470,-101 470,-101 470,-145 470,-145 470,-151 464,-157 458,-157"/>
<text text-anchor="start" x="367" y="-141.8" font-family="Helvetica,sans-Serif" font-size="14.00" fill="#000000">X1 ≤ 0.102</text>
<text text-anchor="start" x="361" y="-126.8" font-family="Helvetica,sans-Serif" font-size="14.00" fill="#000000">mse = 0.014</text>
<text text-anchor="start" x="353" y="-111.8" font-family="Helvetica,sans-Serif" font-size="14.00" fill="#000000">samples = 408</text>
<text text-anchor="start" x="357" y="-96.8" font-family="Helvetica,sans-Serif" font-size="14.00" fill="#000000">value = 0.171</text>
</g>
<!-- 1&#45;&gt;5 -->
<g id="edge5" class="edge">
<title>1&#45;&gt;5</title>
<path fill="none" stroke="#000000" d="M407.5,-192.9465C407.5,-184.776 407.5,-175.9318 407.5,-167.3697"/>
<polygon fill="#000000" stroke="#000000" points="411.0001,-167.13 407.5,-157.13 404.0001,-167.13 411.0001,-167.13"/>
</g>
<!-- 3 -->
<g id="node4" class="node">
<title>3</title>
<path fill="#eda978" stroke="#000000" d="M105,-53C105,-53 12,-53 12,-53 6,-53 0,-47 0,-41 0,-41 0,-12 0,-12 0,-6 6,0 12,0 12,0 105,0 105,0 111,0 117,-6 117,-12 117,-12 117,-41 117,-41 117,-47 111,-53 105,-53"/>
<text text-anchor="start" x="12" y="-37.8" font-family="Helvetica,sans-Serif" font-size="14.00" fill="#000000">mse = 0.009</text>
<text text-anchor="start" x="8.5" y="-22.8" font-family="Helvetica,sans-Serif" font-size="14.00" fill="#000000">samples = 59</text>
<text text-anchor="start" x="8" y="-7.8" font-family="Helvetica,sans-Serif" font-size="14.00" fill="#000000">value = 0.024</text>
</g>
<!-- 2&#45;&gt;3 -->
<g id="edge3" class="edge">
<title>2&#45;&gt;3</title>
<path fill="none" stroke="#000000" d="M148.4938,-88.9777C134.5126,-79.2713 119.3162,-68.7213 105.4602,-59.1018"/>
<polygon fill="#000000" stroke="#000000" points="107.2394,-56.0763 97.0289,-53.2485 103.2474,-61.8264 107.2394,-56.0763"/>
</g>
<!-- 4 -->
<g id="node5" class="node">
<title>4</title>
<path fill="#ea985d" stroke="#000000" d="M248,-53C248,-53 147,-53 147,-53 141,-53 135,-47 135,-41 135,-41 135,-12 135,-12 135,-6 141,0 147,0 147,0 248,0 248,0 254,0 260,-6 260,-12 260,-12 260,-41 260,-41 260,-47 254,-53 248,-53"/>
<text text-anchor="start" x="151" y="-37.8" font-family="Helvetica,sans-Serif" font-size="14.00" fill="#000000">mse = 0.014</text>
<text text-anchor="start" x="143" y="-22.8" font-family="Helvetica,sans-Serif" font-size="14.00" fill="#000000">samples = 147</text>
<text text-anchor="start" x="147" y="-7.8" font-family="Helvetica,sans-Serif" font-size="14.00" fill="#000000">value = 0.096</text>
</g>
<!-- 2&#45;&gt;4 -->
<g id="edge4" class="edge">
<title>2&#45;&gt;4</title>
<path fill="none" stroke="#000000" d="M197.5,-88.9777C197.5,-80.7364 197.5,-71.887 197.5,-63.5153"/>
<polygon fill="#000000" stroke="#000000" points="201.0001,-63.2484 197.5,-53.2485 194.0001,-63.2485 201.0001,-63.2484"/>
</g>
<!-- 6 -->
<g id="node7" class="node">
<title>6</title>
<path fill="#eb9e67" stroke="#000000" d="M383,-53C383,-53 290,-53 290,-53 284,-53 278,-47 278,-41 278,-41 278,-12 278,-12 278,-6 284,0 290,0 290,0 383,0 383,0 389,0 395,-6 395,-12 395,-12 395,-41 395,-41 395,-47 389,-53 383,-53"/>
<text text-anchor="start" x="290" y="-37.8" font-family="Helvetica,sans-Serif" font-size="14.00" fill="#000000">mse = 0.008</text>
<text text-anchor="start" x="286.5" y="-22.8" font-family="Helvetica,sans-Serif" font-size="14.00" fill="#000000">samples = 69</text>
<text text-anchor="start" x="286" y="-7.8" font-family="Helvetica,sans-Serif" font-size="14.00" fill="#000000">value = 0.069</text>
</g>
<!-- 5&#45;&gt;6 -->
<g id="edge6" class="edge">
<title>5&#45;&gt;6</title>
<path fill="none" stroke="#000000" d="M382.4681,-88.9777C375.9329,-80.0954 368.878,-70.5067 362.3036,-61.5711"/>
<polygon fill="#000000" stroke="#000000" points="364.9257,-59.229 356.1802,-53.2485 359.2874,-63.3775 364.9257,-59.229"/>
</g>
<!-- 7 -->
<g id="node8" class="node">
<title>7</title>
<path fill="#e58139" stroke="#000000" d="M526,-53C526,-53 425,-53 425,-53 419,-53 413,-47 413,-41 413,-41 413,-12 413,-12 413,-6 419,0 425,0 425,0 526,0 526,0 532,0 538,-6 538,-12 538,-12 538,-41 538,-41 538,-47 532,-53 526,-53"/>
<text text-anchor="start" x="429" y="-37.8" font-family="Helvetica,sans-Serif" font-size="14.00" fill="#000000">mse = 0.013</text>
<text text-anchor="start" x="421" y="-22.8" font-family="Helvetica,sans-Serif" font-size="14.00" fill="#000000">samples = 339</text>
<text text-anchor="start" x="425" y="-7.8" font-family="Helvetica,sans-Serif" font-size="14.00" fill="#000000">value = 0.191</text>
</g>
<!-- 5&#45;&gt;7 -->
<g id="edge7" class="edge">
<title>5&#45;&gt;7</title>
<path fill="none" stroke="#000000" d="M431.4743,-88.9777C437.7333,-80.0954 444.4901,-70.5067 450.7867,-61.5711"/>
<polygon fill="#000000" stroke="#000000" points="453.7521,-63.4389 456.6513,-53.2485 448.0301,-59.4068 453.7521,-63.4389"/>
</g>
<!-- 9 -->
<g id="node10" class="node">
<title>9</title>
<path fill="#f0b68c" stroke="#000000" d="M739,-157C739,-157 638,-157 638,-157 632,-157 626,-151 626,-145 626,-145 626,-101 626,-101 626,-95 632,-89 638,-89 638,-89 739,-89 739,-89 745,-89 751,-95 751,-101 751,-101 751,-145 751,-145 751,-151 745,-157 739,-157"/>
<text text-anchor="start" x="648" y="-141.8" font-family="Helvetica,sans-Serif" font-size="14.00" fill="#000000">X1 ≤ 0.579</text>
<text text-anchor="start" x="646.5" y="-126.8" font-family="Helvetica,sans-Serif" font-size="14.00" fill="#000000">mse = 0.01</text>
<text text-anchor="start" x="634" y="-111.8" font-family="Helvetica,sans-Serif" font-size="14.00" fill="#000000">samples = 111</text>
<text text-anchor="start" x="635.5" y="-96.8" font-family="Helvetica,sans-Serif" font-size="14.00" fill="#000000">value = &#45;0.029</text>
</g>
<!-- 8&#45;&gt;9 -->
<g id="edge9" class="edge">
<title>8&#45;&gt;9</title>
<path fill="none" stroke="#000000" d="M688.5,-192.9465C688.5,-184.776 688.5,-175.9318 688.5,-167.3697"/>
<polygon fill="#000000" stroke="#000000" points="692.0001,-167.13 688.5,-157.13 685.0001,-167.13 692.0001,-167.13"/>
</g>
<!-- 12 -->
<g id="node13" class="node">
<title>12</title>
<path fill="#f7d9c3" stroke="#000000" d="M953,-157C953,-157 852,-157 852,-157 846,-157 840,-151 840,-145 840,-145 840,-101 840,-101 840,-95 846,-89 852,-89 852,-89 953,-89 953,-89 959,-89 965,-95 965,-101 965,-101 965,-145 965,-145 965,-151 959,-157 953,-157"/>
<text text-anchor="start" x="862" y="-141.8" font-family="Helvetica,sans-Serif" font-size="14.00" fill="#000000">X2 ≤ 0.369</text>
<text text-anchor="start" x="856" y="-126.8" font-family="Helvetica,sans-Serif" font-size="14.00" fill="#000000">mse = 0.014</text>
<text text-anchor="start" x="848" y="-111.8" font-family="Helvetica,sans-Serif" font-size="14.00" fill="#000000">samples = 275</text>
<text text-anchor="start" x="849.5" y="-96.8" font-family="Helvetica,sans-Serif" font-size="14.00" fill="#000000">value = &#45;0.172</text>
</g>
<!-- 8&#45;&gt;12 -->
<g id="edge12" class="edge">
<title>8&#45;&gt;12</title>
<path fill="none" stroke="#000000" d="M751.2611,-196.4993C776.0852,-184.4352 804.7651,-170.4973 830.4326,-158.0234"/>
<polygon fill="#000000" stroke="#000000" points="832.2757,-161.0192 839.74,-153.5002 829.216,-154.7233 832.2757,-161.0192"/>
</g>
<!-- 10 -->
<g id="node11" class="node">
<title>10</title>
<path fill="#ffffff" stroke="#000000" d="M666.5,-53C666.5,-53 568.5,-53 568.5,-53 562.5,-53 556.5,-47 556.5,-41 556.5,-41 556.5,-12 556.5,-12 556.5,-6 562.5,0 568.5,0 568.5,0 666.5,0 666.5,0 672.5,0 678.5,-6 678.5,-12 678.5,-12 678.5,-41 678.5,-41 678.5,-47 672.5,-53 666.5,-53"/>
<text text-anchor="start" x="580" y="-37.8" font-family="Helvetica,sans-Serif" font-size="14.00" fill="#000000">mse = 0.0</text>
<text text-anchor="start" x="572" y="-22.8" font-family="Helvetica,sans-Serif" font-size="14.00" fill="#000000">samples = 1</text>
<text text-anchor="start" x="564.5" y="-7.8" font-family="Helvetica,sans-Serif" font-size="14.00" fill="#000000">value = &#45;0.331</text>
</g>
<!-- 9&#45;&gt;10 -->
<g id="edge10" class="edge">
<title>9&#45;&gt;10</title>
<path fill="none" stroke="#000000" d="M663.4681,-88.9777C656.9329,-80.0954 649.878,-70.5067 643.3036,-61.5711"/>
<polygon fill="#000000" stroke="#000000" points="645.9257,-59.229 637.1802,-53.2485 640.2874,-63.3775 645.9257,-59.229"/>
</g>
<!-- 11 -->
<g id="node12" class="node">
<title>11</title>
<path fill="#f0b58b" stroke="#000000" d="M810,-53C810,-53 709,-53 709,-53 703,-53 697,-47 697,-41 697,-41 697,-12 697,-12 697,-6 703,0 709,0 709,0 810,0 810,0 816,0 822,-6 822,-12 822,-12 822,-41 822,-41 822,-47 816,-53 810,-53"/>
<text text-anchor="start" x="713" y="-37.8" font-family="Helvetica,sans-Serif" font-size="14.00" fill="#000000">mse = 0.009</text>
<text text-anchor="start" x="705" y="-22.8" font-family="Helvetica,sans-Serif" font-size="14.00" fill="#000000">samples = 110</text>
<text text-anchor="start" x="706.5" y="-7.8" font-family="Helvetica,sans-Serif" font-size="14.00" fill="#000000">value = &#45;0.026</text>
</g>
<!-- 9&#45;&gt;11 -->
<g id="edge11" class="edge">
<title>9&#45;&gt;11</title>
<path fill="none" stroke="#000000" d="M713.5319,-88.9777C720.0671,-80.0954 727.122,-70.5067 733.6964,-61.5711"/>
<polygon fill="#000000" stroke="#000000" points="736.7126,-63.3775 739.8198,-53.2485 731.0743,-59.229 736.7126,-63.3775"/>
</g>
<!-- 13 -->
<g id="node14" class="node">
<title>13</title>
<path fill="#f4c9aa" stroke="#000000" d="M953,-53C953,-53 852,-53 852,-53 846,-53 840,-47 840,-41 840,-41 840,-12 840,-12 840,-6 846,0 852,0 852,0 953,0 953,0 959,0 965,-6 965,-12 965,-12 965,-41 965,-41 965,-47 959,-53 953,-53"/>
<text text-anchor="start" x="856" y="-37.8" font-family="Helvetica,sans-Serif" font-size="14.00" fill="#000000">mse = 0.012</text>
<text text-anchor="start" x="848" y="-22.8" font-family="Helvetica,sans-Serif" font-size="14.00" fill="#000000">samples = 103</text>
<text text-anchor="start" x="849.5" y="-7.8" font-family="Helvetica,sans-Serif" font-size="14.00" fill="#000000">value = &#45;0.107</text>
</g>
<!-- 12&#45;&gt;13 -->
<g id="edge13" class="edge">
<title>12&#45;&gt;13</title>
<path fill="none" stroke="#000000" d="M902.5,-88.9777C902.5,-80.7364 902.5,-71.887 902.5,-63.5153"/>
<polygon fill="#000000" stroke="#000000" points="906.0001,-63.2484 902.5,-53.2485 899.0001,-63.2485 906.0001,-63.2484"/>
</g>
<!-- 14 -->
<g id="node15" class="node">
<title>14</title>
<path fill="#f9e2d1" stroke="#000000" d="M1096,-53C1096,-53 995,-53 995,-53 989,-53 983,-47 983,-41 983,-41 983,-12 983,-12 983,-6 989,0 995,0 995,0 1096,0 1096,0 1102,0 1108,-6 1108,-12 1108,-12 1108,-41 1108,-41 1108,-47 1102,-53 1096,-53"/>
<text text-anchor="start" x="999" y="-37.8" font-family="Helvetica,sans-Serif" font-size="14.00" fill="#000000">mse = 0.011</text>
<text text-anchor="start" x="991" y="-22.8" font-family="Helvetica,sans-Serif" font-size="14.00" fill="#000000">samples = 172</text>
<text text-anchor="start" x="992.5" y="-7.8" font-family="Helvetica,sans-Serif" font-size="14.00" fill="#000000">value = &#45;0.211</text>
</g>
<!-- 12&#45;&gt;14 -->
<g id="edge14" class="edge">
<title>12&#45;&gt;14</title>
<path fill="none" stroke="#000000" d="M952.9165,-88.9777C967.3,-79.2713 982.9337,-68.7213 997.1885,-59.1018"/>
<polygon fill="#000000" stroke="#000000" points="999.531,-61.7435 1005.8624,-53.2485 995.6154,-55.941 999.531,-61.7435"/>
</g>
</g>
</svg>
