<?xml version="1.0" encoding="UTF-8" standalone="no"?>
<!DOCTYPE svg PUBLIC "-//W3C//DTD SVG 1.1//EN"
 "http://www.w3.org/Graphics/SVG/1.1/DTD/svg11.dtd">
<!-- Generated by graphviz version 2.40.1 (20161225.0304)
 -->
<!-- Title: Tree Pages: 1 -->
<svg width="1116pt" height="373pt"
 viewBox="0.00 0.00 1116.00 373.00" xmlns="http://www.w3.org/2000/svg" xmlns:xlink="http://www.w3.org/1999/xlink">
<g id="graph0" class="graph" transform="scale(1 1) rotate(0) translate(4 369)">
<title>Tree</title>
<polygon fill="#ffffff" stroke="transparent" points="-4,4 -4,-369 1112,-369 1112,4 -4,4"/>
<!-- 0 -->
<g id="node1" class="node">
<title>0</title>
<path fill="#edaa79" stroke="#000000" d="M606.5,-365C606.5,-365 496.5,-365 496.5,-365 490.5,-365 484.5,-359 484.5,-353 484.5,-353 484.5,-309 484.5,-309 484.5,-303 490.5,-297 496.5,-297 496.5,-297 606.5,-297 606.5,-297 612.5,-297 618.5,-303 618.5,-309 618.5,-309 618.5,-353 618.5,-353 618.5,-359 612.5,-365 606.5,-365"/>
<text text-anchor="start" x="511" y="-349.8" font-family="Helvetica,sans-Serif" font-size="14.00" fill="#000000">X1 ≤ 0.666</text>
<text text-anchor="start" x="505" y="-334.8" font-family="Helvetica,sans-Serif" font-size="14.00" fill="#000000">mse = 0.032</text>
<text text-anchor="start" x="492.5" y="-319.8" font-family="Helvetica,sans-Serif" font-size="14.00" fill="#000000">samples = 1000</text>
<text text-anchor="start" x="501" y="-304.8" font-family="Helvetica,sans-Serif" font-size="14.00" fill="#000000">value = 0.037</text>
</g>
<!-- 1 -->
<g id="node2" class="node">
<title>1</title>
<path fill="#e88d4d" stroke="#000000" d="M464,-261C464,-261 363,-261 363,-261 357,-261 351,-255 351,-249 351,-249 351,-205 351,-205 351,-199 357,-193 363,-193 363,-193 464,-193 464,-193 470,-193 476,-199 476,-205 476,-205 476,-249 476,-249 476,-255 470,-261 464,-261"/>
<text text-anchor="start" x="373" y="-245.8" font-family="Helvetica,sans-Serif" font-size="14.00" fill="#000000">X1 ≤ 0.578</text>
<text text-anchor="start" x="367" y="-230.8" font-family="Helvetica,sans-Serif" font-size="14.00" fill="#000000">mse = 0.016</text>
<text text-anchor="start" x="359" y="-215.8" font-family="Helvetica,sans-Serif" font-size="14.00" fill="#000000">samples = 688</text>
<text text-anchor="start" x="363" y="-200.8" font-family="Helvetica,sans-Serif" font-size="14.00" fill="#000000">value = 0.123</text>
</g>
<!-- 0&#45;&gt;1 -->
<g id="edge1" class="edge">
<title>0&#45;&gt;1</title>
<path fill="none" stroke="#000000" d="M506.3136,-296.9465C493.685,-287.4293 479.8433,-276.9978 466.7932,-267.163"/>
<polygon fill="#000000" stroke="#000000" points="468.8805,-264.3534 458.7879,-261.13 464.6675,-269.9437 468.8805,-264.3534"/>
<text text-anchor="middle" x="462.2661" y="-282.1869" font-family="Helvetica,sans-Serif" font-size="14.00" fill="#000000">True</text>
</g>
<!-- 8 -->
<g id="node9" class="node">
<title>8</title>
<path fill="#fae8dc" stroke="#000000" d="M742,-261C742,-261 641,-261 641,-261 635,-261 629,-255 629,-249 629,-249 629,-205 629,-205 629,-199 635,-193 641,-193 641,-193 742,-193 742,-193 748,-193 754,-199 754,-205 754,-205 754,-249 754,-249 754,-255 748,-261 742,-261"/>
<text text-anchor="start" x="651" y="-245.8" font-family="Helvetica,sans-Serif" font-size="14.00" fill="#000000">X2 ≤ 0.324</text>
<text text-anchor="start" x="645" y="-230.8" font-family="Helvetica,sans-Serif" font-size="14.00" fill="#000000">mse = 0.015</text>
<text text-anchor="start" x="637" y="-215.8" font-family="Helvetica,sans-Serif" font-size="14.00" fill="#000000">samples = 312</text>
<text text-anchor="start" x="638.5" y="-200.8" font-family="Helvetica,sans-Serif" font-size="14.00" fill="#000000">value = &#45;0.153</text>
</g>
<!-- 0&#45;&gt;8 -->
<g id="edge8" class="edge">
<title>0&#45;&gt;8</title>
<path fill="none" stroke="#000000" d="M597.3412,-296.9465C610.1529,-287.4293 624.1952,-276.9978 637.4344,-267.163"/>
<polygon fill="#000000" stroke="#000000" points="639.6155,-269.9029 645.5558,-261.13 635.4412,-264.2837 639.6155,-269.9029"/>
<text text-anchor="middle" x="641.9068" y="-282.1623" font-family="Helvetica,sans-Serif" font-size="14.00" fill="#000000">False</text>
</g>
<!-- 2 -->
<g id="node3" class="node">
<title>2</title>
<path fill="#e78844" stroke="#000000" d="M256,-157C256,-157 155,-157 155,-157 149,-157 143,-151 143,-145 143,-145 143,-101 143,-101 143,-95 149,-89 155,-89 155,-89 256,-89 256,-89 262,-89 268,-95 268,-101 268,-101 268,-145 268,-145 268,-151 262,-157 256,-157"/>
<text text-anchor="start" x="165" y="-141.8" font-family="Helvetica,sans-Serif" font-size="14.00" fill="#000000">X1 ≤ 0.117</text>
<text text-anchor="start" x="159" y="-126.8" font-family="Helvetica,sans-Serif" font-size="14.00" fill="#000000">mse = 0.015</text>
<text text-anchor="start" x="151" y="-111.8" font-family="Helvetica,sans-Serif" font-size="14.00" fill="#000000">samples = 604</text>
<text text-anchor="start" x="155" y="-96.8" font-family="Helvetica,sans-Serif" font-size="14.00" fill="#000000">value = 0.138</text>
</g>
<!-- 1&#45;&gt;2 -->
<g id="edge2" class="edge">
<title>1&#45;&gt;2</title>
<path fill="none" stroke="#000000" d="M350.8111,-195.6555C327.5824,-184.0412 301.0706,-170.7853 277.1076,-158.8038"/>
<polygon fill="#000000" stroke="#000000" points="278.5701,-155.622 268.0605,-154.2803 275.4395,-161.883 278.5701,-155.622"/>
</g>
<!-- 5 -->
<g id="node6" class="node">
<title>5</title>
<path fill="#efb287" stroke="#000000" d="M460,-157C460,-157 367,-157 367,-157 361,-157 355,-151 355,-145 355,-145 355,-101 355,-101 355,-95 361,-89 367,-89 367,-89 460,-89 460,-89 466,-89 472,-95 472,-101 472,-101 472,-145 472,-145 472,-151 466,-157 460,-157"/>
<text text-anchor="start" x="377.5" y="-141.8" font-family="Helvetica,sans-Serif" font-size="14.00" fill="#000000">X2 ≤ 0.02</text>
<text text-anchor="start" x="371.5" y="-126.8" font-family="Helvetica,sans-Serif" font-size="14.00" fill="#000000">mse = 0.01</text>
<text text-anchor="start" x="363.5" y="-111.8" font-family="Helvetica,sans-Serif" font-size="14.00" fill="#000000">samples = 84</text>
<text text-anchor="start" x="363" y="-96.8" font-family="Helvetica,sans-Serif" font-size="14.00" fill="#000000">value = 0.011</text>
</g>
<!-- 1&#45;&gt;5 -->
<g id="edge5" class="edge">
<title>1&#45;&gt;5</title>
<path fill="none" stroke="#000000" d="M413.5,-192.9465C413.5,-184.776 413.5,-175.9318 413.5,-167.3697"/>
<polygon fill="#000000" stroke="#000000" points="417.0001,-167.13 413.5,-157.13 410.0001,-167.13 417.0001,-167.13"/>
</g>
<!-- 3 -->
<g id="node4" class="node">
<title>3</title>
<path fill="#eca26d" stroke="#000000" d="M113,-53C113,-53 12,-53 12,-53 6,-53 0,-47 0,-41 0,-41 0,-12 0,-12 0,-6 6,0 12,0 12,0 113,0 113,0 119,0 125,-6 125,-12 125,-12 125,-41 125,-41 125,-47 119,-53 113,-53"/>
<text text-anchor="start" x="16" y="-37.8" font-family="Helvetica,sans-Serif" font-size="14.00" fill="#000000">mse = 0.009</text>
<text text-anchor="start" x="8" y="-22.8" font-family="Helvetica,sans-Serif" font-size="14.00" fill="#000000">samples = 133</text>
<text text-anchor="start" x="16.5" y="-7.8" font-family="Helvetica,sans-Serif" font-size="14.00" fill="#000000">value = 0.06</text>
</g>
<!-- 2&#45;&gt;3 -->
<g id="edge3" class="edge">
<title>2&#45;&gt;3</title>
<path fill="none" stroke="#000000" d="M155.0835,-88.9777C140.7,-79.2713 125.0663,-68.7213 110.8115,-59.1018"/>
<polygon fill="#000000" stroke="#000000" points="112.3846,-55.941 102.1376,-53.2485 108.469,-61.7435 112.3846,-55.941"/>
</g>
<!-- 4 -->
<g id="node5" class="node">
<title>4</title>
<path fill="#e58139" stroke="#000000" d="M256,-53C256,-53 155,-53 155,-53 149,-53 143,-47 143,-41 143,-41 143,-12 143,-12 143,-6 149,0 155,0 155,0 256,0 256,0 262,0 268,-6 268,-12 268,-12 268,-41 268,-41 268,-47 262,-53 256,-53"/>
<text text-anchor="start" x="159" y="-37.8" font-family="Helvetica,sans-Serif" font-size="14.00" fill="#000000">mse = 0.014</text>
<text text-anchor="start" x="151" y="-22.8" font-family="Helvetica,sans-Serif" font-size="14.00" fill="#000000">samples = 471</text>
<text text-anchor="start" x="155" y="-7.8" font-family="Helvetica,sans-Serif" font-size="14.00" fill="#000000">value = 0.161</text>
</g>
<!-- 2&#45;&gt;4 -->
<g id="edge4" class="edge">
<title>2&#45;&gt;4</title>
<path fill="none" stroke="#000000" d="M205.5,-88.9777C205.5,-80.7364 205.5,-71.887 205.5,-63.5153"/>
<polygon fill="#000000" stroke="#000000" points="209.0001,-63.2484 205.5,-53.2485 202.0001,-63.2485 209.0001,-63.2484"/>
</g>
<!-- 6 -->
<g id="node7" class="node">
<title>6</title>
<path fill="#fae6d8" stroke="#000000" d="M396.5,-53C396.5,-53 298.5,-53 298.5,-53 292.5,-53 286.5,-47 286.5,-41 286.5,-41 286.5,-12 286.5,-12 286.5,-6 292.5,0 298.5,0 298.5,0 396.5,0 396.5,0 402.5,0 408.5,-6 408.5,-12 408.5,-12 408.5,-41 408.5,-41 408.5,-47 402.5,-53 396.5,-53"/>
<text text-anchor="start" x="301" y="-37.8" font-family="Helvetica,sans-Serif" font-size="14.00" fill="#000000">mse = 0.003</text>
<text text-anchor="start" x="302" y="-22.8" font-family="Helvetica,sans-Serif" font-size="14.00" fill="#000000">samples = 2</text>
<text text-anchor="start" x="294.5" y="-7.8" font-family="Helvetica,sans-Serif" font-size="14.00" fill="#000000">value = &#45;0.146</text>
</g>
<!-- 5&#45;&gt;6 -->
<g id="edge6" class="edge">
<title>5&#45;&gt;6</title>
<path fill="none" stroke="#000000" d="M390.2309,-88.9777C384.156,-80.0954 377.5979,-70.5067 371.4865,-61.5711"/>
<polygon fill="#000000" stroke="#000000" points="374.3286,-59.5267 365.7943,-53.2485 368.5507,-63.4785 374.3286,-59.5267"/>
</g>
<!-- 7 -->
<g id="node8" class="node">
<title>7</title>
<path fill="#efb185" stroke="#000000" d="M532,-53C532,-53 439,-53 439,-53 433,-53 427,-47 427,-41 427,-41 427,-12 427,-12 427,-6 433,0 439,0 439,0 532,0 532,0 538,0 544,-6 544,-12 544,-12 544,-41 544,-41 544,-47 538,-53 532,-53"/>
<text text-anchor="start" x="439" y="-37.8" font-family="Helvetica,sans-Serif" font-size="14.00" fill="#000000">mse = 0.009</text>
<text text-anchor="start" x="435.5" y="-22.8" font-family="Helvetica,sans-Serif" font-size="14.00" fill="#000000">samples = 82</text>
<text text-anchor="start" x="435" y="-7.8" font-family="Helvetica,sans-Serif" font-size="14.00" fill="#000000">value = 0.015</text>
</g>
<!-- 5&#45;&gt;7 -->
<g id="edge7" class="edge">
<title>5&#45;&gt;7</title>
<path fill="none" stroke="#000000" d="M438.8845,-88.9777C445.58,-80.0039 452.8135,-70.3089 459.539,-61.295"/>
<polygon fill="#000000" stroke="#000000" points="462.3677,-63.3565 465.5426,-53.2485 456.7573,-59.1704 462.3677,-63.3565"/>
</g>
<!-- 9 -->
<g id="node10" class="node">
<title>9</title>
<path fill="#f5d0b6" stroke="#000000" d="M742,-157C742,-157 641,-157 641,-157 635,-157 629,-151 629,-145 629,-145 629,-101 629,-101 629,-95 635,-89 641,-89 641,-89 742,-89 742,-89 748,-89 754,-95 754,-101 754,-101 754,-145 754,-145 754,-151 748,-157 742,-157"/>
<text text-anchor="start" x="651" y="-141.8" font-family="Helvetica,sans-Serif" font-size="14.00" fill="#000000">X1 ≤ 0.881</text>
<text text-anchor="start" x="645" y="-126.8" font-family="Helvetica,sans-Serif" font-size="14.00" fill="#000000">mse = 0.013</text>
<text text-anchor="start" x="637" y="-111.8" font-family="Helvetica,sans-Serif" font-size="14.00" fill="#000000">samples = 102</text>
<text text-anchor="start" x="643" y="-96.8" font-family="Helvetica,sans-Serif" font-size="14.00" fill="#000000">value = &#45;0.08</text>
</g>
<!-- 8&#45;&gt;9 -->
<g id="edge9" class="edge">
<title>8&#45;&gt;9</title>
<path fill="none" stroke="#000000" d="M691.5,-192.9465C691.5,-184.776 691.5,-175.9318 691.5,-167.3697"/>
<polygon fill="#000000" stroke="#000000" points="695.0001,-167.13 691.5,-157.13 688.0001,-167.13 695.0001,-167.13"/>
</g>
<!-- 12 -->
<g id="node13" class="node">
<title>12</title>
<path fill="#fdf4ee" stroke="#000000" d="M954,-157C954,-157 853,-157 853,-157 847,-157 841,-151 841,-145 841,-145 841,-101 841,-101 841,-95 847,-89 853,-89 853,-89 954,-89 954,-89 960,-89 966,-95 966,-101 966,-101 966,-145 966,-145 966,-151 960,-157 954,-157"/>
<text text-anchor="start" x="867.5" y="-141.8" font-family="Helvetica,sans-Serif" font-size="14.00" fill="#000000">X1 ≤ 0.76</text>
<text text-anchor="start" x="857" y="-126.8" font-family="Helvetica,sans-Serif" font-size="14.00" fill="#000000">mse = 0.012</text>
<text text-anchor="start" x="849" y="-111.8" font-family="Helvetica,sans-Serif" font-size="14.00" fill="#000000">samples = 210</text>
<text text-anchor="start" x="850.5" y="-96.8" font-family="Helvetica,sans-Serif" font-size="14.00" fill="#000000">value = &#45;0.188</text>
</g>
<!-- 8&#45;&gt;12 -->
<g id="edge12" class="edge">
<title>8&#45;&gt;12</title>
<path fill="none" stroke="#000000" d="M754.2465,-196.2187C778.6049,-184.2693 806.6414,-170.5156 831.7914,-158.1778"/>
<polygon fill="#000000" stroke="#000000" points="833.4781,-161.2489 840.9145,-153.7023 830.3951,-154.9644 833.4781,-161.2489"/>
</g>
<!-- 10 -->
<g id="node11" class="node">
<title>10</title>
<path fill="#f3c5a4" stroke="#000000" d="M672.5,-53C672.5,-53 574.5,-53 574.5,-53 568.5,-53 562.5,-47 562.5,-41 562.5,-41 562.5,-12 562.5,-12 562.5,-6 568.5,0 574.5,0 574.5,0 672.5,0 672.5,0 678.5,0 684.5,-6 684.5,-12 684.5,-12 684.5,-41 684.5,-41 684.5,-47 678.5,-53 672.5,-53"/>
<text text-anchor="start" x="581.5" y="-37.8" font-family="Helvetica,sans-Serif" font-size="14.00" fill="#000000">mse = 0.01</text>
<text text-anchor="start" x="573.5" y="-22.8" font-family="Helvetica,sans-Serif" font-size="14.00" fill="#000000">samples = 65</text>
<text text-anchor="start" x="570.5" y="-7.8" font-family="Helvetica,sans-Serif" font-size="14.00" fill="#000000">value = &#45;0.046</text>
</g>
<!-- 9&#45;&gt;10 -->
<g id="edge10" class="edge">
<title>9&#45;&gt;10</title>
<path fill="none" stroke="#000000" d="M667.5257,-88.9777C661.2667,-80.0954 654.5099,-70.5067 648.2133,-61.5711"/>
<polygon fill="#000000" stroke="#000000" points="650.9699,-59.4068 642.3487,-53.2485 645.2479,-63.4389 650.9699,-59.4068"/>
</g>
<!-- 11 -->
<g id="node12" class="node">
<title>11</title>
<path fill="#f9e4d4" stroke="#000000" d="M812.5,-53C812.5,-53 714.5,-53 714.5,-53 708.5,-53 702.5,-47 702.5,-41 702.5,-41 702.5,-12 702.5,-12 702.5,-6 708.5,0 714.5,0 714.5,0 812.5,0 812.5,0 818.5,0 824.5,-6 824.5,-12 824.5,-12 824.5,-41 824.5,-41 824.5,-47 818.5,-53 812.5,-53"/>
<text text-anchor="start" x="717" y="-37.8" font-family="Helvetica,sans-Serif" font-size="14.00" fill="#000000">mse = 0.014</text>
<text text-anchor="start" x="713.5" y="-22.8" font-family="Helvetica,sans-Serif" font-size="14.00" fill="#000000">samples = 37</text>
<text text-anchor="start" x="710.5" y="-7.8" font-family="Helvetica,sans-Serif" font-size="14.00" fill="#000000">value = &#45;0.139</text>
</g>
<!-- 9&#45;&gt;11 -->
<g id="edge11" class="edge">
<title>9&#45;&gt;11</title>
<path fill="none" stroke="#000000" d="M716.8845,-88.9777C723.58,-80.0039 730.8135,-70.3089 737.539,-61.295"/>
<polygon fill="#000000" stroke="#000000" points="740.3677,-63.3565 743.5426,-53.2485 734.7573,-59.1704 740.3677,-63.3565"/>
</g>
<!-- 13 -->
<g id="node14" class="node">
<title>13</title>
<path fill="#f8ddc9" stroke="#000000" d="M952.5,-53C952.5,-53 854.5,-53 854.5,-53 848.5,-53 842.5,-47 842.5,-41 842.5,-41 842.5,-12 842.5,-12 842.5,-6 848.5,0 854.5,0 854.5,0 952.5,0 952.5,0 958.5,0 964.5,-6 964.5,-12 964.5,-12 964.5,-41 964.5,-41 964.5,-47 958.5,-53 952.5,-53"/>
<text text-anchor="start" x="857" y="-37.8" font-family="Helvetica,sans-Serif" font-size="14.00" fill="#000000">mse = 0.012</text>
<text text-anchor="start" x="853.5" y="-22.8" font-family="Helvetica,sans-Serif" font-size="14.00" fill="#000000">samples = 66</text>
<text text-anchor="start" x="850.5" y="-7.8" font-family="Helvetica,sans-Serif" font-size="14.00" fill="#000000">value = &#45;0.117</text>
</g>
<!-- 12&#45;&gt;13 -->
<g id="edge13" class="edge">
<title>12&#45;&gt;13</title>
<path fill="none" stroke="#000000" d="M903.5,-88.9777C903.5,-80.7364 903.5,-71.887 903.5,-63.5153"/>
<polygon fill="#000000" stroke="#000000" points="907.0001,-63.2484 903.5,-53.2485 900.0001,-63.2485 907.0001,-63.2484"/>
</g>
<!-- 14 -->
<g id="node15" class="node">
<title>14</title>
<path fill="#ffffff" stroke="#000000" d="M1096,-53C1096,-53 995,-53 995,-53 989,-53 983,-47 983,-41 983,-41 983,-12 983,-12 983,-6 989,0 995,0 995,0 1096,0 1096,0 1102,0 1108,-6 1108,-12 1108,-12 1108,-41 1108,-41 1108,-47 1102,-53 1096,-53"/>
<text text-anchor="start" x="999" y="-37.8" font-family="Helvetica,sans-Serif" font-size="14.00" fill="#000000">mse = 0.009</text>
<text text-anchor="start" x="991" y="-22.8" font-family="Helvetica,sans-Serif" font-size="14.00" fill="#000000">samples = 144</text>
<text text-anchor="start" x="992.5" y="-7.8" font-family="Helvetica,sans-Serif" font-size="14.00" fill="#000000">value = &#45;0.221</text>
</g>
<!-- 12&#45;&gt;14 -->
<g id="edge14" class="edge">
<title>12&#45;&gt;14</title>
<path fill="none" stroke="#000000" d="M953.5639,-88.9777C967.8469,-79.2713 983.3713,-68.7213 997.5263,-59.1018"/>
<polygon fill="#000000" stroke="#000000" points="999.8359,-61.764 1006.1395,-53.2485 995.9014,-55.9744 999.8359,-61.764"/>
</g>
</g>
</svg>
