<?xml version="1.0" encoding="UTF-8" standalone="no"?>
<!DOCTYPE svg PUBLIC "-//W3C//DTD SVG 1.1//EN"
 "http://www.w3.org/Graphics/SVG/1.1/DTD/svg11.dtd">
<!-- Generated by graphviz version 2.40.1 (20161225.0304)
 -->
<!-- Title: Tree Pages: 1 -->
<svg width="1110pt" height="373pt"
 viewBox="0.00 0.00 1109.50 373.00" xmlns="http://www.w3.org/2000/svg" xmlns:xlink="http://www.w3.org/1999/xlink">
<g id="graph0" class="graph" transform="scale(1 1) rotate(0) translate(4 369)">
<title>Tree</title>
<polygon fill="#ffffff" stroke="transparent" points="-4,4 -4,-369 1105.5,-369 1105.5,4 -4,4"/>
<!-- 0 -->
<g id="node1" class="node">
<title>0</title>
<path fill="#eeae80" stroke="#000000" d="M599.5,-365C599.5,-365 489.5,-365 489.5,-365 483.5,-365 477.5,-359 477.5,-353 477.5,-353 477.5,-309 477.5,-309 477.5,-303 483.5,-297 489.5,-297 489.5,-297 599.5,-297 599.5,-297 605.5,-297 611.5,-303 611.5,-309 611.5,-309 611.5,-353 611.5,-353 611.5,-359 605.5,-365 599.5,-365"/>
<text text-anchor="start" x="504" y="-349.8" font-family="Helvetica,sans-Serif" font-size="14.00" fill="#000000">X1 ≤ 0.649</text>
<text text-anchor="start" x="498" y="-334.8" font-family="Helvetica,sans-Serif" font-size="14.00" fill="#000000">mse = 0.035</text>
<text text-anchor="start" x="485.5" y="-319.8" font-family="Helvetica,sans-Serif" font-size="14.00" fill="#000000">samples = 1000</text>
<text text-anchor="start" x="494" y="-304.8" font-family="Helvetica,sans-Serif" font-size="14.00" fill="#000000">value = 0.038</text>
</g>
<!-- 1 -->
<g id="node2" class="node">
<title>1</title>
<path fill="#e99559" stroke="#000000" d="M459,-261C459,-261 358,-261 358,-261 352,-261 346,-255 346,-249 346,-249 346,-205 346,-205 346,-199 352,-193 358,-193 358,-193 459,-193 459,-193 465,-193 471,-199 471,-205 471,-205 471,-249 471,-249 471,-255 465,-261 459,-261"/>
<text text-anchor="start" x="368" y="-245.8" font-family="Helvetica,sans-Serif" font-size="14.00" fill="#000000">X2 ≤ 0.529</text>
<text text-anchor="start" x="362" y="-230.8" font-family="Helvetica,sans-Serif" font-size="14.00" fill="#000000">mse = 0.018</text>
<text text-anchor="start" x="354" y="-215.8" font-family="Helvetica,sans-Serif" font-size="14.00" fill="#000000">samples = 678</text>
<text text-anchor="start" x="358" y="-200.8" font-family="Helvetica,sans-Serif" font-size="14.00" fill="#000000">value = 0.129</text>
</g>
<!-- 0&#45;&gt;1 -->
<g id="edge1" class="edge">
<title>0&#45;&gt;1</title>
<path fill="none" stroke="#000000" d="M499.9685,-296.9465C487.6403,-287.519 474.1391,-277.1946 461.385,-267.4415"/>
<polygon fill="#000000" stroke="#000000" points="463.2012,-264.4243 453.1315,-261.13 458.949,-269.9848 463.2012,-264.4243"/>
<text text-anchor="middle" x="456.4356" y="-282.2107" font-family="Helvetica,sans-Serif" font-size="14.00" fill="#000000">True</text>
</g>
<!-- 8 -->
<g id="node9" class="node">
<title>8</title>
<path fill="#f9e3d3" stroke="#000000" d="M736,-261C736,-261 635,-261 635,-261 629,-261 623,-255 623,-249 623,-249 623,-205 623,-205 623,-199 629,-193 635,-193 635,-193 736,-193 736,-193 742,-193 748,-199 748,-205 748,-205 748,-249 748,-249 748,-255 742,-261 736,-261"/>
<text text-anchor="start" x="649.5" y="-245.8" font-family="Helvetica,sans-Serif" font-size="14.00" fill="#000000">X2 ≤ 0.31</text>
<text text-anchor="start" x="639" y="-230.8" font-family="Helvetica,sans-Serif" font-size="14.00" fill="#000000">mse = 0.017</text>
<text text-anchor="start" x="631" y="-215.8" font-family="Helvetica,sans-Serif" font-size="14.00" fill="#000000">samples = 322</text>
<text text-anchor="start" x="632.5" y="-200.8" font-family="Helvetica,sans-Serif" font-size="14.00" fill="#000000">value = &#45;0.155</text>
</g>
<!-- 0&#45;&gt;8 -->
<g id="edge8" class="edge">
<title>0&#45;&gt;8</title>
<path fill="none" stroke="#000000" d="M590.6687,-296.9465C603.5719,-287.4293 617.7145,-276.9978 631.0483,-267.163"/>
<polygon fill="#000000" stroke="#000000" points="633.2575,-269.8826 639.2276,-261.13 629.1023,-264.2492 633.2575,-269.8826"/>
<text text-anchor="middle" x="635.4944" y="-282.1497" font-family="Helvetica,sans-Serif" font-size="14.00" fill="#000000">False</text>
</g>
<!-- 2 -->
<g id="node3" class="node">
<title>2</title>
<path fill="#eca26c" stroke="#000000" d="M252,-157C252,-157 151,-157 151,-157 145,-157 139,-151 139,-145 139,-145 139,-101 139,-101 139,-95 145,-89 151,-89 151,-89 252,-89 252,-89 258,-89 264,-95 264,-101 264,-101 264,-145 264,-145 264,-151 258,-157 252,-157"/>
<text text-anchor="start" x="161" y="-141.8" font-family="Helvetica,sans-Serif" font-size="14.00" fill="#000000">X1 ≤ 0.517</text>
<text text-anchor="start" x="155" y="-126.8" font-family="Helvetica,sans-Serif" font-size="14.00" fill="#000000">mse = 0.013</text>
<text text-anchor="start" x="147" y="-111.8" font-family="Helvetica,sans-Serif" font-size="14.00" fill="#000000">samples = 354</text>
<text text-anchor="start" x="151" y="-96.8" font-family="Helvetica,sans-Serif" font-size="14.00" fill="#000000">value = 0.084</text>
</g>
<!-- 1&#45;&gt;2 -->
<g id="edge2" class="edge">
<title>1&#45;&gt;2</title>
<path fill="none" stroke="#000000" d="M345.8314,-195.5143C323.0355,-184.0613 297.0924,-171.0271 273.5486,-159.1983"/>
<polygon fill="#000000" stroke="#000000" points="274.8194,-155.92 264.3125,-154.558 271.6768,-162.1749 274.8194,-155.92"/>
</g>
<!-- 5 -->
<g id="node6" class="node">
<title>5</title>
<path fill="#e68844" stroke="#000000" d="M459,-157C459,-157 358,-157 358,-157 352,-157 346,-151 346,-145 346,-145 346,-101 346,-101 346,-95 352,-89 358,-89 358,-89 459,-89 459,-89 465,-89 471,-95 471,-101 471,-101 471,-145 471,-145 471,-151 465,-157 459,-157"/>
<text text-anchor="start" x="372.5" y="-141.8" font-family="Helvetica,sans-Serif" font-size="14.00" fill="#000000">X1 ≤ 0.52</text>
<text text-anchor="start" x="362" y="-126.8" font-family="Helvetica,sans-Serif" font-size="14.00" fill="#000000">mse = 0.018</text>
<text text-anchor="start" x="354" y="-111.8" font-family="Helvetica,sans-Serif" font-size="14.00" fill="#000000">samples = 324</text>
<text text-anchor="start" x="358" y="-96.8" font-family="Helvetica,sans-Serif" font-size="14.00" fill="#000000">value = 0.179</text>
</g>
<!-- 1&#45;&gt;5 -->
<g id="edge5" class="edge">
<title>1&#45;&gt;5</title>
<path fill="none" stroke="#000000" d="M408.5,-192.9465C408.5,-184.776 408.5,-175.9318 408.5,-167.3697"/>
<polygon fill="#000000" stroke="#000000" points="412.0001,-167.13 408.5,-157.13 405.0001,-167.13 412.0001,-167.13"/>
</g>
<!-- 3 -->
<g id="node4" class="node">
<title>3</title>
<path fill="#eb9e66" stroke="#000000" d="M113,-53C113,-53 12,-53 12,-53 6,-53 0,-47 0,-41 0,-41 0,-12 0,-12 0,-6 6,0 12,0 12,0 113,0 113,0 119,0 125,-6 125,-12 125,-12 125,-41 125,-41 125,-47 119,-53 113,-53"/>
<text text-anchor="start" x="16" y="-37.8" font-family="Helvetica,sans-Serif" font-size="14.00" fill="#000000">mse = 0.013</text>
<text text-anchor="start" x="8" y="-22.8" font-family="Helvetica,sans-Serif" font-size="14.00" fill="#000000">samples = 271</text>
<text text-anchor="start" x="12" y="-7.8" font-family="Helvetica,sans-Serif" font-size="14.00" fill="#000000">value = 0.099</text>
</g>
<!-- 2&#45;&gt;3 -->
<g id="edge3" class="edge">
<title>2&#45;&gt;3</title>
<path fill="none" stroke="#000000" d="M152.4938,-88.9777C138.5126,-79.2713 123.3162,-68.7213 109.4602,-59.1018"/>
<polygon fill="#000000" stroke="#000000" points="111.2394,-56.0763 101.0289,-53.2485 107.2474,-61.8264 111.2394,-56.0763"/>
</g>
<!-- 4 -->
<g id="node5" class="node">
<title>4</title>
<path fill="#eeaf81" stroke="#000000" d="M248,-53C248,-53 155,-53 155,-53 149,-53 143,-47 143,-41 143,-41 143,-12 143,-12 143,-6 149,0 155,0 155,0 248,0 248,0 254,0 260,-6 260,-12 260,-12 260,-41 260,-41 260,-47 254,-53 248,-53"/>
<text text-anchor="start" x="159.5" y="-37.8" font-family="Helvetica,sans-Serif" font-size="14.00" fill="#000000">mse = 0.01</text>
<text text-anchor="start" x="151.5" y="-22.8" font-family="Helvetica,sans-Serif" font-size="14.00" fill="#000000">samples = 83</text>
<text text-anchor="start" x="151" y="-7.8" font-family="Helvetica,sans-Serif" font-size="14.00" fill="#000000">value = 0.036</text>
</g>
<!-- 2&#45;&gt;4 -->
<g id="edge4" class="edge">
<title>2&#45;&gt;4</title>
<path fill="none" stroke="#000000" d="M201.5,-88.9777C201.5,-80.7364 201.5,-71.887 201.5,-63.5153"/>
<polygon fill="#000000" stroke="#000000" points="205.0001,-63.2484 201.5,-53.2485 198.0001,-63.2485 205.0001,-63.2484"/>
</g>
<!-- 6 -->
<g id="node7" class="node">
<title>6</title>
<path fill="#e58139" stroke="#000000" d="M391,-53C391,-53 290,-53 290,-53 284,-53 278,-47 278,-41 278,-41 278,-12 278,-12 278,-6 284,0 290,0 290,0 391,0 391,0 397,0 403,-6 403,-12 403,-12 403,-41 403,-41 403,-47 397,-53 391,-53"/>
<text text-anchor="start" x="294" y="-37.8" font-family="Helvetica,sans-Serif" font-size="14.00" fill="#000000">mse = 0.015</text>
<text text-anchor="start" x="286" y="-22.8" font-family="Helvetica,sans-Serif" font-size="14.00" fill="#000000">samples = 275</text>
<text text-anchor="start" x="290" y="-7.8" font-family="Helvetica,sans-Serif" font-size="14.00" fill="#000000">value = 0.203</text>
</g>
<!-- 5&#45;&gt;6 -->
<g id="edge6" class="edge">
<title>5&#45;&gt;6</title>
<path fill="none" stroke="#000000" d="M384.5257,-88.9777C378.2667,-80.0954 371.5099,-70.5067 365.2133,-61.5711"/>
<polygon fill="#000000" stroke="#000000" points="367.9699,-59.4068 359.3487,-53.2485 362.2479,-63.4389 367.9699,-59.4068"/>
</g>
<!-- 7 -->
<g id="node8" class="node">
<title>7</title>
<path fill="#eead7f" stroke="#000000" d="M525.5,-53C525.5,-53 433.5,-53 433.5,-53 427.5,-53 421.5,-47 421.5,-41 421.5,-41 421.5,-12 421.5,-12 421.5,-6 427.5,0 433.5,0 433.5,0 525.5,0 525.5,0 531.5,0 537.5,-6 537.5,-12 537.5,-12 537.5,-41 537.5,-41 537.5,-47 531.5,-53 525.5,-53"/>
<text text-anchor="start" x="433" y="-37.8" font-family="Helvetica,sans-Serif" font-size="14.00" fill="#000000">mse = 0.012</text>
<text text-anchor="start" x="429.5" y="-22.8" font-family="Helvetica,sans-Serif" font-size="14.00" fill="#000000">samples = 49</text>
<text text-anchor="start" x="433.5" y="-7.8" font-family="Helvetica,sans-Serif" font-size="14.00" fill="#000000">value = 0.04</text>
</g>
<!-- 5&#45;&gt;7 -->
<g id="edge7" class="edge">
<title>5&#45;&gt;7</title>
<path fill="none" stroke="#000000" d="M433.5319,-88.9777C440.0671,-80.0954 447.122,-70.5067 453.6964,-61.5711"/>
<polygon fill="#000000" stroke="#000000" points="456.7126,-63.3775 459.8198,-53.2485 451.0743,-59.229 456.7126,-63.3775"/>
</g>
<!-- 9 -->
<g id="node10" class="node">
<title>9</title>
<path fill="#f5ceb2" stroke="#000000" d="M736,-157C736,-157 635,-157 635,-157 629,-157 623,-151 623,-145 623,-145 623,-101 623,-101 623,-95 629,-89 635,-89 635,-89 736,-89 736,-89 742,-89 748,-95 748,-101 748,-101 748,-145 748,-145 748,-151 742,-157 736,-157"/>
<text text-anchor="start" x="645" y="-141.8" font-family="Helvetica,sans-Serif" font-size="14.00" fill="#000000">X1 ≤ 0.924</text>
<text text-anchor="start" x="639" y="-126.8" font-family="Helvetica,sans-Serif" font-size="14.00" fill="#000000">mse = 0.013</text>
<text text-anchor="start" x="631" y="-111.8" font-family="Helvetica,sans-Serif" font-size="14.00" fill="#000000">samples = 107</text>
<text text-anchor="start" x="637" y="-96.8" font-family="Helvetica,sans-Serif" font-size="14.00" fill="#000000">value = &#45;0.08</text>
</g>
<!-- 8&#45;&gt;9 -->
<g id="edge9" class="edge">
<title>8&#45;&gt;9</title>
<path fill="none" stroke="#000000" d="M685.5,-192.9465C685.5,-184.776 685.5,-175.9318 685.5,-167.3697"/>
<polygon fill="#000000" stroke="#000000" points="689.0001,-167.13 685.5,-157.13 682.0001,-167.13 689.0001,-167.13"/>
</g>
<!-- 12 -->
<g id="node13" class="node">
<title>12</title>
<path fill="#fbede3" stroke="#000000" d="M949,-157C949,-157 848,-157 848,-157 842,-157 836,-151 836,-145 836,-145 836,-101 836,-101 836,-95 842,-89 848,-89 848,-89 949,-89 949,-89 955,-89 961,-95 961,-101 961,-101 961,-145 961,-145 961,-151 955,-157 949,-157"/>
<text text-anchor="start" x="858" y="-141.8" font-family="Helvetica,sans-Serif" font-size="14.00" fill="#000000">X1 ≤ 0.848</text>
<text text-anchor="start" x="852" y="-126.8" font-family="Helvetica,sans-Serif" font-size="14.00" fill="#000000">mse = 0.014</text>
<text text-anchor="start" x="844" y="-111.8" font-family="Helvetica,sans-Serif" font-size="14.00" fill="#000000">samples = 215</text>
<text text-anchor="start" x="845.5" y="-96.8" font-family="Helvetica,sans-Serif" font-size="14.00" fill="#000000">value = &#45;0.193</text>
</g>
<!-- 8&#45;&gt;12 -->
<g id="edge12" class="edge">
<title>8&#45;&gt;12</title>
<path fill="none" stroke="#000000" d="M748.255,-196.3591C772.8458,-184.3523 801.2027,-170.5067 826.6108,-158.1008"/>
<polygon fill="#000000" stroke="#000000" points="828.3754,-161.1342 835.8258,-153.6015 825.3041,-154.844 828.3754,-161.1342"/>
</g>
<!-- 10 -->
<g id="node11" class="node">
<title>10</title>
<path fill="#f4c9a9" stroke="#000000" d="M665.5,-53C665.5,-53 567.5,-53 567.5,-53 561.5,-53 555.5,-47 555.5,-41 555.5,-41 555.5,-12 555.5,-12 555.5,-6 561.5,0 567.5,0 567.5,0 665.5,0 665.5,0 671.5,0 677.5,-6 677.5,-12 677.5,-12 677.5,-41 677.5,-41 677.5,-47 671.5,-53 665.5,-53"/>
<text text-anchor="start" x="570" y="-37.8" font-family="Helvetica,sans-Serif" font-size="14.00" fill="#000000">mse = 0.011</text>
<text text-anchor="start" x="566.5" y="-22.8" font-family="Helvetica,sans-Serif" font-size="14.00" fill="#000000">samples = 81</text>
<text text-anchor="start" x="563.5" y="-7.8" font-family="Helvetica,sans-Serif" font-size="14.00" fill="#000000">value = &#45;0.059</text>
</g>
<!-- 9&#45;&gt;10 -->
<g id="edge10" class="edge">
<title>9&#45;&gt;10</title>
<path fill="none" stroke="#000000" d="M661.1732,-88.9777C654.8221,-80.0954 647.966,-70.5067 641.5768,-61.5711"/>
<polygon fill="#000000" stroke="#000000" points="644.2893,-59.3472 635.6259,-53.2485 638.5952,-63.4187 644.2893,-59.3472"/>
</g>
<!-- 11 -->
<g id="node12" class="node">
<title>11</title>
<path fill="#f9e0ce" stroke="#000000" d="M805.5,-53C805.5,-53 707.5,-53 707.5,-53 701.5,-53 695.5,-47 695.5,-41 695.5,-41 695.5,-12 695.5,-12 695.5,-6 701.5,0 707.5,0 707.5,0 805.5,0 805.5,0 811.5,0 817.5,-6 817.5,-12 817.5,-12 817.5,-41 817.5,-41 817.5,-47 811.5,-53 805.5,-53"/>
<text text-anchor="start" x="710" y="-37.8" font-family="Helvetica,sans-Serif" font-size="14.00" fill="#000000">mse = 0.011</text>
<text text-anchor="start" x="706.5" y="-22.8" font-family="Helvetica,sans-Serif" font-size="14.00" fill="#000000">samples = 26</text>
<text text-anchor="start" x="703.5" y="-7.8" font-family="Helvetica,sans-Serif" font-size="14.00" fill="#000000">value = &#45;0.144</text>
</g>
<!-- 9&#45;&gt;11 -->
<g id="edge11" class="edge">
<title>9&#45;&gt;11</title>
<path fill="none" stroke="#000000" d="M710.5319,-88.9777C717.0671,-80.0954 724.122,-70.5067 730.6964,-61.5711"/>
<polygon fill="#000000" stroke="#000000" points="733.7126,-63.3775 736.8198,-53.2485 728.0743,-59.229 733.7126,-63.3775"/>
</g>
<!-- 13 -->
<g id="node14" class="node">
<title>13</title>
<path fill="#f9e0cf" stroke="#000000" d="M949,-53C949,-53 848,-53 848,-53 842,-53 836,-47 836,-41 836,-41 836,-12 836,-12 836,-6 842,0 848,0 848,0 949,0 949,0 955,0 961,-6 961,-12 961,-12 961,-41 961,-41 961,-47 955,-53 949,-53"/>
<text text-anchor="start" x="852" y="-37.8" font-family="Helvetica,sans-Serif" font-size="14.00" fill="#000000">mse = 0.012</text>
<text text-anchor="start" x="844" y="-22.8" font-family="Helvetica,sans-Serif" font-size="14.00" fill="#000000">samples = 127</text>
<text text-anchor="start" x="845.5" y="-7.8" font-family="Helvetica,sans-Serif" font-size="14.00" fill="#000000">value = &#45;0.147</text>
</g>
<!-- 12&#45;&gt;13 -->
<g id="edge13" class="edge">
<title>12&#45;&gt;13</title>
<path fill="none" stroke="#000000" d="M898.5,-88.9777C898.5,-80.7364 898.5,-71.887 898.5,-63.5153"/>
<polygon fill="#000000" stroke="#000000" points="902.0001,-63.2484 898.5,-53.2485 895.0001,-63.2485 902.0001,-63.2484"/>
</g>
<!-- 14 -->
<g id="node15" class="node">
<title>14</title>
<path fill="#ffffff" stroke="#000000" d="M1089.5,-53C1089.5,-53 991.5,-53 991.5,-53 985.5,-53 979.5,-47 979.5,-41 979.5,-41 979.5,-12 979.5,-12 979.5,-6 985.5,0 991.5,0 991.5,0 1089.5,0 1089.5,0 1095.5,0 1101.5,-6 1101.5,-12 1101.5,-12 1101.5,-41 1101.5,-41 1101.5,-47 1095.5,-53 1089.5,-53"/>
<text text-anchor="start" x="998.5" y="-37.8" font-family="Helvetica,sans-Serif" font-size="14.00" fill="#000000">mse = 0.01</text>
<text text-anchor="start" x="990.5" y="-22.8" font-family="Helvetica,sans-Serif" font-size="14.00" fill="#000000">samples = 88</text>
<text text-anchor="start" x="987.5" y="-7.8" font-family="Helvetica,sans-Serif" font-size="14.00" fill="#000000">value = &#45;0.259</text>
</g>
<!-- 12&#45;&gt;14 -->
<g id="edge14" class="edge">
<title>12&#45;&gt;14</title>
<path fill="none" stroke="#000000" d="M948.5639,-88.9777C962.8469,-79.2713 978.3713,-68.7213 992.5263,-59.1018"/>
<polygon fill="#000000" stroke="#000000" points="994.8359,-61.764 1001.1395,-53.2485 990.9014,-55.9744 994.8359,-61.764"/>
</g>
</g>
</svg>
