<?xml version="1.0" encoding="UTF-8" standalone="no"?>
<!DOCTYPE svg PUBLIC "-//W3C//DTD SVG 1.1//EN"
 "http://www.w3.org/Graphics/SVG/1.1/DTD/svg11.dtd">
<!-- Generated by graphviz version 2.40.1 (20161225.0304)
 -->
<!-- Title: Tree Pages: 1 -->
<svg width="1115pt" height="373pt"
 viewBox="0.00 0.00 1115.00 373.00" xmlns="http://www.w3.org/2000/svg" xmlns:xlink="http://www.w3.org/1999/xlink">
<g id="graph0" class="graph" transform="scale(1 1) rotate(0) translate(4 369)">
<title>Tree</title>
<polygon fill="#ffffff" stroke="transparent" points="-4,4 -4,-369 1111,-369 1111,4 -4,4"/>
<!-- 0 -->
<g id="node1" class="node">
<title>0</title>
<path fill="#f0b48a" stroke="#000000" d="M605.5,-365C605.5,-365 495.5,-365 495.5,-365 489.5,-365 483.5,-359 483.5,-353 483.5,-353 483.5,-309 483.5,-309 483.5,-303 489.5,-297 495.5,-297 495.5,-297 605.5,-297 605.5,-297 611.5,-297 617.5,-303 617.5,-309 617.5,-309 617.5,-353 617.5,-353 617.5,-359 611.5,-365 605.5,-365"/>
<text text-anchor="start" x="510" y="-349.8" font-family="Helvetica,sans-Serif" font-size="14.00" fill="#000000">X1 ≤ 0.635</text>
<text text-anchor="start" x="504" y="-334.8" font-family="Helvetica,sans-Serif" font-size="14.00" fill="#000000">mse = 0.033</text>
<text text-anchor="start" x="491.5" y="-319.8" font-family="Helvetica,sans-Serif" font-size="14.00" fill="#000000">samples = 1000</text>
<text text-anchor="start" x="500" y="-304.8" font-family="Helvetica,sans-Serif" font-size="14.00" fill="#000000">value = 0.024</text>
</g>
<!-- 1 -->
<g id="node2" class="node">
<title>1</title>
<path fill="#e99559" stroke="#000000" d="M464,-261C464,-261 363,-261 363,-261 357,-261 351,-255 351,-249 351,-249 351,-205 351,-205 351,-199 357,-193 363,-193 363,-193 464,-193 464,-193 470,-193 476,-199 476,-205 476,-205 476,-249 476,-249 476,-255 470,-261 464,-261"/>
<text text-anchor="start" x="373" y="-245.8" font-family="Helvetica,sans-Serif" font-size="14.00" fill="#000000">X2 ≤ 0.477</text>
<text text-anchor="start" x="367" y="-230.8" font-family="Helvetica,sans-Serif" font-size="14.00" fill="#000000">mse = 0.016</text>
<text text-anchor="start" x="359" y="-215.8" font-family="Helvetica,sans-Serif" font-size="14.00" fill="#000000">samples = 625</text>
<text text-anchor="start" x="363" y="-200.8" font-family="Helvetica,sans-Serif" font-size="14.00" fill="#000000">value = 0.127</text>
</g>
<!-- 0&#45;&gt;1 -->
<g id="edge1" class="edge">
<title>0&#45;&gt;1</title>
<path fill="none" stroke="#000000" d="M505.6411,-296.9465C493.2222,-287.519 479.6217,-277.1946 466.7739,-267.4415"/>
<polygon fill="#000000" stroke="#000000" points="468.541,-264.3887 458.4597,-261.13 464.3085,-269.9642 468.541,-264.3887"/>
<text text-anchor="middle" x="461.8513" y="-282.1989" font-family="Helvetica,sans-Serif" font-size="14.00" fill="#000000">True</text>
</g>
<!-- 8 -->
<g id="node9" class="node">
<title>8</title>
<path fill="#fae8db" stroke="#000000" d="M741,-261C741,-261 640,-261 640,-261 634,-261 628,-255 628,-249 628,-249 628,-205 628,-205 628,-199 634,-193 640,-193 640,-193 741,-193 741,-193 747,-193 753,-199 753,-205 753,-205 753,-249 753,-249 753,-255 747,-261 741,-261"/>
<text text-anchor="start" x="650" y="-245.8" font-family="Helvetica,sans-Serif" font-size="14.00" fill="#000000">X1 ≤ 0.737</text>
<text text-anchor="start" x="644" y="-230.8" font-family="Helvetica,sans-Serif" font-size="14.00" fill="#000000">mse = 0.015</text>
<text text-anchor="start" x="636" y="-215.8" font-family="Helvetica,sans-Serif" font-size="14.00" fill="#000000">samples = 375</text>
<text text-anchor="start" x="637.5" y="-200.8" font-family="Helvetica,sans-Serif" font-size="14.00" fill="#000000">value = &#45;0.148</text>
</g>
<!-- 0&#45;&gt;8 -->
<g id="edge8" class="edge">
<title>0&#45;&gt;8</title>
<path fill="none" stroke="#000000" d="M596.3412,-296.9465C609.1529,-287.4293 623.1952,-276.9978 636.4344,-267.163"/>
<polygon fill="#000000" stroke="#000000" points="638.6155,-269.9029 644.5558,-261.13 634.4412,-264.2837 638.6155,-269.9029"/>
<text text-anchor="middle" x="640.9068" y="-282.1623" font-family="Helvetica,sans-Serif" font-size="14.00" fill="#000000">False</text>
</g>
<!-- 2 -->
<g id="node3" class="node">
<title>2</title>
<path fill="#eca36f" stroke="#000000" d="M256,-157C256,-157 155,-157 155,-157 149,-157 143,-151 143,-145 143,-145 143,-101 143,-101 143,-95 149,-89 155,-89 155,-89 256,-89 256,-89 262,-89 268,-95 268,-101 268,-101 268,-145 268,-145 268,-151 262,-157 256,-157"/>
<text text-anchor="start" x="165" y="-141.8" font-family="Helvetica,sans-Serif" font-size="14.00" fill="#000000">X2 ≤ 0.138</text>
<text text-anchor="start" x="159" y="-126.8" font-family="Helvetica,sans-Serif" font-size="14.00" fill="#000000">mse = 0.011</text>
<text text-anchor="start" x="151" y="-111.8" font-family="Helvetica,sans-Serif" font-size="14.00" fill="#000000">samples = 313</text>
<text text-anchor="start" x="155" y="-96.8" font-family="Helvetica,sans-Serif" font-size="14.00" fill="#000000">value = 0.082</text>
</g>
<!-- 1&#45;&gt;2 -->
<g id="edge2" class="edge">
<title>1&#45;&gt;2</title>
<path fill="none" stroke="#000000" d="M350.8111,-195.6555C327.5824,-184.0412 301.0706,-170.7853 277.1076,-158.8038"/>
<polygon fill="#000000" stroke="#000000" points="278.5701,-155.622 268.0605,-154.2803 275.4395,-161.883 278.5701,-155.622"/>
</g>
<!-- 5 -->
<g id="node6" class="node">
<title>5</title>
<path fill="#e68844" stroke="#000000" d="M464,-157C464,-157 363,-157 363,-157 357,-157 351,-151 351,-145 351,-145 351,-101 351,-101 351,-95 357,-89 363,-89 363,-89 464,-89 464,-89 470,-89 476,-95 476,-101 476,-101 476,-145 476,-145 476,-151 470,-157 464,-157"/>
<text text-anchor="start" x="373" y="-141.8" font-family="Helvetica,sans-Serif" font-size="14.00" fill="#000000">X1 ≤ 0.096</text>
<text text-anchor="start" x="367" y="-126.8" font-family="Helvetica,sans-Serif" font-size="14.00" fill="#000000">mse = 0.016</text>
<text text-anchor="start" x="359" y="-111.8" font-family="Helvetica,sans-Serif" font-size="14.00" fill="#000000">samples = 312</text>
<text text-anchor="start" x="363" y="-96.8" font-family="Helvetica,sans-Serif" font-size="14.00" fill="#000000">value = 0.172</text>
</g>
<!-- 1&#45;&gt;5 -->
<g id="edge5" class="edge">
<title>1&#45;&gt;5</title>
<path fill="none" stroke="#000000" d="M413.5,-192.9465C413.5,-184.776 413.5,-175.9318 413.5,-167.3697"/>
<polygon fill="#000000" stroke="#000000" points="417.0001,-167.13 413.5,-157.13 410.0001,-167.13 417.0001,-167.13"/>
</g>
<!-- 3 -->
<g id="node4" class="node">
<title>3</title>
<path fill="#efb184" stroke="#000000" d="M113,-53C113,-53 12,-53 12,-53 6,-53 0,-47 0,-41 0,-41 0,-12 0,-12 0,-6 6,0 12,0 12,0 113,0 113,0 119,0 125,-6 125,-12 125,-12 125,-41 125,-41 125,-47 119,-53 113,-53"/>
<text text-anchor="start" x="16" y="-37.8" font-family="Helvetica,sans-Serif" font-size="14.00" fill="#000000">mse = 0.008</text>
<text text-anchor="start" x="8" y="-22.8" font-family="Helvetica,sans-Serif" font-size="14.00" fill="#000000">samples = 102</text>
<text text-anchor="start" x="12" y="-7.8" font-family="Helvetica,sans-Serif" font-size="14.00" fill="#000000">value = 0.035</text>
</g>
<!-- 2&#45;&gt;3 -->
<g id="edge3" class="edge">
<title>2&#45;&gt;3</title>
<path fill="none" stroke="#000000" d="M155.0835,-88.9777C140.7,-79.2713 125.0663,-68.7213 110.8115,-59.1018"/>
<polygon fill="#000000" stroke="#000000" points="112.3846,-55.941 102.1376,-53.2485 108.469,-61.7435 112.3846,-55.941"/>
</g>
<!-- 4 -->
<g id="node5" class="node">
<title>4</title>
<path fill="#eb9c64" stroke="#000000" d="M256,-53C256,-53 155,-53 155,-53 149,-53 143,-47 143,-41 143,-41 143,-12 143,-12 143,-6 149,0 155,0 155,0 256,0 256,0 262,0 268,-6 268,-12 268,-12 268,-41 268,-41 268,-47 262,-53 256,-53"/>
<text text-anchor="start" x="159" y="-37.8" font-family="Helvetica,sans-Serif" font-size="14.00" fill="#000000">mse = 0.011</text>
<text text-anchor="start" x="151" y="-22.8" font-family="Helvetica,sans-Serif" font-size="14.00" fill="#000000">samples = 211</text>
<text text-anchor="start" x="155" y="-7.8" font-family="Helvetica,sans-Serif" font-size="14.00" fill="#000000">value = 0.104</text>
</g>
<!-- 2&#45;&gt;4 -->
<g id="edge4" class="edge">
<title>2&#45;&gt;4</title>
<path fill="none" stroke="#000000" d="M205.5,-88.9777C205.5,-80.7364 205.5,-71.887 205.5,-63.5153"/>
<polygon fill="#000000" stroke="#000000" points="209.0001,-63.2484 205.5,-53.2485 202.0001,-63.2485 209.0001,-63.2484"/>
</g>
<!-- 6 -->
<g id="node7" class="node">
<title>6</title>
<path fill="#eeac7d" stroke="#000000" d="M391,-53C391,-53 298,-53 298,-53 292,-53 286,-47 286,-41 286,-41 286,-12 286,-12 286,-6 292,0 298,0 298,0 391,0 391,0 397,0 403,-6 403,-12 403,-12 403,-41 403,-41 403,-47 397,-53 391,-53"/>
<text text-anchor="start" x="298" y="-37.8" font-family="Helvetica,sans-Serif" font-size="14.00" fill="#000000">mse = 0.011</text>
<text text-anchor="start" x="294.5" y="-22.8" font-family="Helvetica,sans-Serif" font-size="14.00" fill="#000000">samples = 49</text>
<text text-anchor="start" x="294" y="-7.8" font-family="Helvetica,sans-Serif" font-size="14.00" fill="#000000">value = 0.051</text>
</g>
<!-- 5&#45;&gt;6 -->
<g id="edge6" class="edge">
<title>5&#45;&gt;6</title>
<path fill="none" stroke="#000000" d="M389.1732,-88.9777C382.8221,-80.0954 375.966,-70.5067 369.5768,-61.5711"/>
<polygon fill="#000000" stroke="#000000" points="372.2893,-59.3472 363.6259,-53.2485 366.5952,-63.4187 372.2893,-59.3472"/>
</g>
<!-- 7 -->
<g id="node8" class="node">
<title>7</title>
<path fill="#e58139" stroke="#000000" d="M534,-53C534,-53 433,-53 433,-53 427,-53 421,-47 421,-41 421,-41 421,-12 421,-12 421,-6 427,0 433,0 433,0 534,0 534,0 540,0 546,-6 546,-12 546,-12 546,-41 546,-41 546,-47 540,-53 534,-53"/>
<text text-anchor="start" x="437" y="-37.8" font-family="Helvetica,sans-Serif" font-size="14.00" fill="#000000">mse = 0.013</text>
<text text-anchor="start" x="429" y="-22.8" font-family="Helvetica,sans-Serif" font-size="14.00" fill="#000000">samples = 263</text>
<text text-anchor="start" x="433" y="-7.8" font-family="Helvetica,sans-Serif" font-size="14.00" fill="#000000">value = 0.195</text>
</g>
<!-- 5&#45;&gt;7 -->
<g id="edge7" class="edge">
<title>5&#45;&gt;7</title>
<path fill="none" stroke="#000000" d="M438.1794,-88.9777C444.6225,-80.0954 451.578,-70.5067 458.0598,-61.5711"/>
<polygon fill="#000000" stroke="#000000" points="461.0583,-63.3982 464.097,-53.2485 455.3921,-59.288 461.0583,-63.3982"/>
</g>
<!-- 9 -->
<g id="node10" class="node">
<title>9</title>
<path fill="#f5cdb1" stroke="#000000" d="M739.5,-157C739.5,-157 641.5,-157 641.5,-157 635.5,-157 629.5,-151 629.5,-145 629.5,-145 629.5,-101 629.5,-101 629.5,-95 635.5,-89 641.5,-89 641.5,-89 739.5,-89 739.5,-89 745.5,-89 751.5,-95 751.5,-101 751.5,-101 751.5,-145 751.5,-145 751.5,-151 745.5,-157 739.5,-157"/>
<text text-anchor="start" x="650" y="-141.8" font-family="Helvetica,sans-Serif" font-size="14.00" fill="#000000">X2 ≤ 0.666</text>
<text text-anchor="start" x="644" y="-126.8" font-family="Helvetica,sans-Serif" font-size="14.00" fill="#000000">mse = 0.009</text>
<text text-anchor="start" x="640.5" y="-111.8" font-family="Helvetica,sans-Serif" font-size="14.00" fill="#000000">samples = 98</text>
<text text-anchor="start" x="637.5" y="-96.8" font-family="Helvetica,sans-Serif" font-size="14.00" fill="#000000">value = &#45;0.059</text>
</g>
<!-- 8&#45;&gt;9 -->
<g id="edge9" class="edge">
<title>8&#45;&gt;9</title>
<path fill="none" stroke="#000000" d="M690.5,-192.9465C690.5,-184.776 690.5,-175.9318 690.5,-167.3697"/>
<polygon fill="#000000" stroke="#000000" points="694.0001,-167.13 690.5,-157.13 687.0001,-167.13 694.0001,-167.13"/>
</g>
<!-- 12 -->
<g id="node13" class="node">
<title>12</title>
<path fill="#fcf1ea" stroke="#000000" d="M952,-157C952,-157 851,-157 851,-157 845,-157 839,-151 839,-145 839,-145 839,-101 839,-101 839,-95 845,-89 851,-89 851,-89 952,-89 952,-89 958,-89 964,-95 964,-101 964,-101 964,-145 964,-145 964,-151 958,-157 952,-157"/>
<text text-anchor="start" x="861" y="-141.8" font-family="Helvetica,sans-Serif" font-size="14.00" fill="#000000">X2 ≤ 0.459</text>
<text text-anchor="start" x="855" y="-126.8" font-family="Helvetica,sans-Serif" font-size="14.00" fill="#000000">mse = 0.014</text>
<text text-anchor="start" x="847" y="-111.8" font-family="Helvetica,sans-Serif" font-size="14.00" fill="#000000">samples = 277</text>
<text text-anchor="start" x="848.5" y="-96.8" font-family="Helvetica,sans-Serif" font-size="14.00" fill="#000000">value = &#45;0.179</text>
</g>
<!-- 8&#45;&gt;12 -->
<g id="edge12" class="edge">
<title>8&#45;&gt;12</title>
<path fill="none" stroke="#000000" d="M753.2357,-196.0782C777.2543,-184.2396 804.8326,-170.6465 829.6394,-158.4194"/>
<polygon fill="#000000" stroke="#000000" points="831.2194,-161.5428 838.6417,-153.9823 828.1247,-155.264 831.2194,-161.5428"/>
</g>
<!-- 10 -->
<g id="node11" class="node">
<title>10</title>
<path fill="#f4c8a8" stroke="#000000" d="M668.5,-53C668.5,-53 576.5,-53 576.5,-53 570.5,-53 564.5,-47 564.5,-41 564.5,-41 564.5,-12 564.5,-12 564.5,-6 570.5,0 576.5,0 576.5,0 668.5,0 668.5,0 674.5,0 680.5,-6 680.5,-12 680.5,-12 680.5,-41 680.5,-41 680.5,-47 674.5,-53 668.5,-53"/>
<text text-anchor="start" x="580.5" y="-37.8" font-family="Helvetica,sans-Serif" font-size="14.00" fill="#000000">mse = 0.01</text>
<text text-anchor="start" x="572.5" y="-22.8" font-family="Helvetica,sans-Serif" font-size="14.00" fill="#000000">samples = 63</text>
<text text-anchor="start" x="574" y="-7.8" font-family="Helvetica,sans-Serif" font-size="14.00" fill="#000000">value = &#45;0.04</text>
</g>
<!-- 9&#45;&gt;10 -->
<g id="edge10" class="edge">
<title>9&#45;&gt;10</title>
<path fill="none" stroke="#000000" d="M666.5257,-88.9777C660.2667,-80.0954 653.5099,-70.5067 647.2133,-61.5711"/>
<polygon fill="#000000" stroke="#000000" points="649.9699,-59.4068 641.3487,-53.2485 644.2479,-63.4389 649.9699,-59.4068"/>
</g>
<!-- 11 -->
<g id="node12" class="node">
<title>11</title>
<path fill="#f7d8c1" stroke="#000000" d="M808.5,-53C808.5,-53 710.5,-53 710.5,-53 704.5,-53 698.5,-47 698.5,-41 698.5,-41 698.5,-12 698.5,-12 698.5,-6 704.5,0 710.5,0 710.5,0 808.5,0 808.5,0 814.5,0 820.5,-6 820.5,-12 820.5,-12 820.5,-41 820.5,-41 820.5,-47 814.5,-53 808.5,-53"/>
<text text-anchor="start" x="713" y="-37.8" font-family="Helvetica,sans-Serif" font-size="14.00" fill="#000000">mse = 0.006</text>
<text text-anchor="start" x="709.5" y="-22.8" font-family="Helvetica,sans-Serif" font-size="14.00" fill="#000000">samples = 35</text>
<text text-anchor="start" x="706.5" y="-7.8" font-family="Helvetica,sans-Serif" font-size="14.00" fill="#000000">value = &#45;0.094</text>
</g>
<!-- 9&#45;&gt;11 -->
<g id="edge11" class="edge">
<title>9&#45;&gt;11</title>
<path fill="none" stroke="#000000" d="M714.8268,-88.9777C721.1779,-80.0954 728.034,-70.5067 734.4232,-61.5711"/>
<polygon fill="#000000" stroke="#000000" points="737.4048,-63.4187 740.3741,-53.2485 731.7107,-59.3472 737.4048,-63.4187"/>
</g>
<!-- 13 -->
<g id="node14" class="node">
<title>13</title>
<path fill="#f8dfcd" stroke="#000000" d="M952,-53C952,-53 851,-53 851,-53 845,-53 839,-47 839,-41 839,-41 839,-12 839,-12 839,-6 845,0 851,0 851,0 952,0 952,0 958,0 964,-6 964,-12 964,-12 964,-41 964,-41 964,-47 958,-53 952,-53"/>
<text text-anchor="start" x="859.5" y="-37.8" font-family="Helvetica,sans-Serif" font-size="14.00" fill="#000000">mse = 0.01</text>
<text text-anchor="start" x="847" y="-22.8" font-family="Helvetica,sans-Serif" font-size="14.00" fill="#000000">samples = 119</text>
<text text-anchor="start" x="848.5" y="-7.8" font-family="Helvetica,sans-Serif" font-size="14.00" fill="#000000">value = &#45;0.119</text>
</g>
<!-- 12&#45;&gt;13 -->
<g id="edge13" class="edge">
<title>12&#45;&gt;13</title>
<path fill="none" stroke="#000000" d="M901.5,-88.9777C901.5,-80.7364 901.5,-71.887 901.5,-63.5153"/>
<polygon fill="#000000" stroke="#000000" points="905.0001,-63.2484 901.5,-53.2485 898.0001,-63.2485 905.0001,-63.2484"/>
</g>
<!-- 14 -->
<g id="node15" class="node">
<title>14</title>
<path fill="#ffffff" stroke="#000000" d="M1095,-53C1095,-53 994,-53 994,-53 988,-53 982,-47 982,-41 982,-41 982,-12 982,-12 982,-6 988,0 994,0 994,0 1095,0 1095,0 1101,0 1107,-6 1107,-12 1107,-12 1107,-41 1107,-41 1107,-47 1101,-53 1095,-53"/>
<text text-anchor="start" x="998" y="-37.8" font-family="Helvetica,sans-Serif" font-size="14.00" fill="#000000">mse = 0.012</text>
<text text-anchor="start" x="990" y="-22.8" font-family="Helvetica,sans-Serif" font-size="14.00" fill="#000000">samples = 158</text>
<text text-anchor="start" x="991.5" y="-7.8" font-family="Helvetica,sans-Serif" font-size="14.00" fill="#000000">value = &#45;0.224</text>
</g>
<!-- 12&#45;&gt;14 -->
<g id="edge14" class="edge">
<title>12&#45;&gt;14</title>
<path fill="none" stroke="#000000" d="M951.9165,-88.9777C966.3,-79.2713 981.9337,-68.7213 996.1885,-59.1018"/>
<polygon fill="#000000" stroke="#000000" points="998.531,-61.7435 1004.8624,-53.2485 994.6154,-55.941 998.531,-61.7435"/>
</g>
</g>
</svg>
