<?xml version="1.0" encoding="UTF-8" standalone="no"?>
<!DOCTYPE svg PUBLIC "-//W3C//DTD SVG 1.1//EN"
 "http://www.w3.org/Graphics/SVG/1.1/DTD/svg11.dtd">
<!-- Generated by graphviz version 2.40.1 (20161225.0304)
 -->
<!-- Title: Tree Pages: 1 -->
<svg width="1121pt" height="373pt"
 viewBox="0.00 0.00 1121.00 373.00" xmlns="http://www.w3.org/2000/svg" xmlns:xlink="http://www.w3.org/1999/xlink">
<g id="graph0" class="graph" transform="scale(1 1) rotate(0) translate(4 369)">
<title>Tree</title>
<polygon fill="#ffffff" stroke="transparent" points="-4,4 -4,-369 1117,-369 1117,4 -4,4"/>
<!-- 0 -->
<g id="node1" class="node">
<title>0</title>
<path fill="#efb185" stroke="#000000" d="M608.5,-365C608.5,-365 498.5,-365 498.5,-365 492.5,-365 486.5,-359 486.5,-353 486.5,-353 486.5,-309 486.5,-309 486.5,-303 492.5,-297 498.5,-297 498.5,-297 608.5,-297 608.5,-297 614.5,-297 620.5,-303 620.5,-309 620.5,-309 620.5,-353 620.5,-353 620.5,-359 614.5,-365 608.5,-365"/>
<text text-anchor="start" x="513" y="-349.8" font-family="Helvetica,sans-Serif" font-size="14.00" fill="#000000">X1 ≤ 0.658</text>
<text text-anchor="start" x="507" y="-334.8" font-family="Helvetica,sans-Serif" font-size="14.00" fill="#000000">mse = 0.033</text>
<text text-anchor="start" x="494.5" y="-319.8" font-family="Helvetica,sans-Serif" font-size="14.00" fill="#000000">samples = 1000</text>
<text text-anchor="start" x="503" y="-304.8" font-family="Helvetica,sans-Serif" font-size="14.00" fill="#000000">value = 0.022</text>
</g>
<!-- 1 -->
<g id="node2" class="node">
<title>1</title>
<path fill="#ea975c" stroke="#000000" d="M466,-261C466,-261 365,-261 365,-261 359,-261 353,-255 353,-249 353,-249 353,-205 353,-205 353,-199 359,-193 365,-193 365,-193 466,-193 466,-193 472,-193 478,-199 478,-205 478,-205 478,-249 478,-249 478,-255 472,-261 466,-261"/>
<text text-anchor="start" x="375" y="-245.8" font-family="Helvetica,sans-Serif" font-size="14.00" fill="#000000">X1 ≤ 0.527</text>
<text text-anchor="start" x="369" y="-230.8" font-family="Helvetica,sans-Serif" font-size="14.00" fill="#000000">mse = 0.017</text>
<text text-anchor="start" x="361" y="-215.8" font-family="Helvetica,sans-Serif" font-size="14.00" fill="#000000">samples = 666</text>
<text text-anchor="start" x="365" y="-200.8" font-family="Helvetica,sans-Serif" font-size="14.00" fill="#000000">value = 0.112</text>
</g>
<!-- 0&#45;&gt;1 -->
<g id="edge1" class="edge">
<title>0&#45;&gt;1</title>
<path fill="none" stroke="#000000" d="M508.3136,-296.9465C495.685,-287.4293 481.8433,-276.9978 468.7932,-267.163"/>
<polygon fill="#000000" stroke="#000000" points="470.8805,-264.3534 460.7879,-261.13 466.6675,-269.9437 470.8805,-264.3534"/>
<text text-anchor="middle" x="464.2661" y="-282.1869" font-family="Helvetica,sans-Serif" font-size="14.00" fill="#000000">True</text>
</g>
<!-- 8 -->
<g id="node9" class="node">
<title>8</title>
<path fill="#fae6d7" stroke="#000000" d="M746,-261C746,-261 645,-261 645,-261 639,-261 633,-255 633,-249 633,-249 633,-205 633,-205 633,-199 639,-193 645,-193 645,-193 746,-193 746,-193 752,-193 758,-199 758,-205 758,-205 758,-249 758,-249 758,-255 752,-261 746,-261"/>
<text text-anchor="start" x="655" y="-245.8" font-family="Helvetica,sans-Serif" font-size="14.00" fill="#000000">X2 ≤ 0.272</text>
<text text-anchor="start" x="649" y="-230.8" font-family="Helvetica,sans-Serif" font-size="14.00" fill="#000000">mse = 0.016</text>
<text text-anchor="start" x="641" y="-215.8" font-family="Helvetica,sans-Serif" font-size="14.00" fill="#000000">samples = 334</text>
<text text-anchor="start" x="642.5" y="-200.8" font-family="Helvetica,sans-Serif" font-size="14.00" fill="#000000">value = &#45;0.157</text>
</g>
<!-- 0&#45;&gt;8 -->
<g id="edge8" class="edge">
<title>0&#45;&gt;8</title>
<path fill="none" stroke="#000000" d="M599.9961,-296.9465C612.9908,-287.4293 627.2337,-276.9978 640.6621,-267.163"/>
<polygon fill="#000000" stroke="#000000" points="642.8998,-269.8624 648.8994,-261.13 638.7637,-264.2151 642.8998,-269.8624"/>
<text text-anchor="middle" x="645.0829" y="-282.137" font-family="Helvetica,sans-Serif" font-size="14.00" fill="#000000">False</text>
</g>
<!-- 2 -->
<g id="node3" class="node">
<title>2</title>
<path fill="#e89152" stroke="#000000" d="M256,-157C256,-157 155,-157 155,-157 149,-157 143,-151 143,-145 143,-145 143,-101 143,-101 143,-95 149,-89 155,-89 155,-89 256,-89 256,-89 262,-89 268,-95 268,-101 268,-101 268,-145 268,-145 268,-151 262,-157 256,-157"/>
<text text-anchor="start" x="165" y="-141.8" font-family="Helvetica,sans-Serif" font-size="14.00" fill="#000000">X1 ≤ 0.095</text>
<text text-anchor="start" x="159" y="-126.8" font-family="Helvetica,sans-Serif" font-size="14.00" fill="#000000">mse = 0.016</text>
<text text-anchor="start" x="151" y="-111.8" font-family="Helvetica,sans-Serif" font-size="14.00" fill="#000000">samples = 539</text>
<text text-anchor="start" x="155" y="-96.8" font-family="Helvetica,sans-Serif" font-size="14.00" fill="#000000">value = 0.134</text>
</g>
<!-- 1&#45;&gt;2 -->
<g id="edge2" class="edge">
<title>1&#45;&gt;2</title>
<path fill="none" stroke="#000000" d="M352.7775,-195.9374C329.0934,-184.2081 301.964,-170.7727 277.4963,-158.6553"/>
<polygon fill="#000000" stroke="#000000" points="278.7765,-155.3837 268.2619,-154.0821 275.6699,-161.6566 278.7765,-155.3837"/>
</g>
<!-- 5 -->
<g id="node6" class="node">
<title>5</title>
<path fill="#efb287" stroke="#000000" d="M466,-157C466,-157 365,-157 365,-157 359,-157 353,-151 353,-145 353,-145 353,-101 353,-101 353,-95 359,-89 365,-89 365,-89 466,-89 466,-89 472,-89 478,-95 478,-101 478,-101 478,-145 478,-145 478,-151 472,-157 466,-157"/>
<text text-anchor="start" x="375" y="-141.8" font-family="Helvetica,sans-Serif" font-size="14.00" fill="#000000">X1 ≤ 0.656</text>
<text text-anchor="start" x="369" y="-126.8" font-family="Helvetica,sans-Serif" font-size="14.00" fill="#000000">mse = 0.011</text>
<text text-anchor="start" x="361" y="-111.8" font-family="Helvetica,sans-Serif" font-size="14.00" fill="#000000">samples = 127</text>
<text text-anchor="start" x="365" y="-96.8" font-family="Helvetica,sans-Serif" font-size="14.00" fill="#000000">value = 0.019</text>
</g>
<!-- 1&#45;&gt;5 -->
<g id="edge5" class="edge">
<title>1&#45;&gt;5</title>
<path fill="none" stroke="#000000" d="M415.5,-192.9465C415.5,-184.776 415.5,-175.9318 415.5,-167.3697"/>
<polygon fill="#000000" stroke="#000000" points="419.0001,-167.13 415.5,-157.13 412.0001,-167.13 419.0001,-167.13"/>
</g>
<!-- 3 -->
<g id="node4" class="node">
<title>3</title>
<path fill="#eeab7b" stroke="#000000" d="M113,-53C113,-53 12,-53 12,-53 6,-53 0,-47 0,-41 0,-41 0,-12 0,-12 0,-6 6,0 12,0 12,0 113,0 113,0 119,0 125,-6 125,-12 125,-12 125,-41 125,-41 125,-47 119,-53 113,-53"/>
<text text-anchor="start" x="16" y="-37.8" font-family="Helvetica,sans-Serif" font-size="14.00" fill="#000000">mse = 0.009</text>
<text text-anchor="start" x="8" y="-22.8" font-family="Helvetica,sans-Serif" font-size="14.00" fill="#000000">samples = 113</text>
<text text-anchor="start" x="12" y="-7.8" font-family="Helvetica,sans-Serif" font-size="14.00" fill="#000000">value = 0.044</text>
</g>
<!-- 2&#45;&gt;3 -->
<g id="edge3" class="edge">
<title>2&#45;&gt;3</title>
<path fill="none" stroke="#000000" d="M155.0835,-88.9777C140.7,-79.2713 125.0663,-68.7213 110.8115,-59.1018"/>
<polygon fill="#000000" stroke="#000000" points="112.3846,-55.941 102.1376,-53.2485 108.469,-61.7435 112.3846,-55.941"/>
</g>
<!-- 4 -->
<g id="node5" class="node">
<title>4</title>
<path fill="#e78a47" stroke="#000000" d="M256,-53C256,-53 155,-53 155,-53 149,-53 143,-47 143,-41 143,-41 143,-12 143,-12 143,-6 149,0 155,0 155,0 256,0 256,0 262,0 268,-6 268,-12 268,-12 268,-41 268,-41 268,-47 262,-53 256,-53"/>
<text text-anchor="start" x="159" y="-37.8" font-family="Helvetica,sans-Serif" font-size="14.00" fill="#000000">mse = 0.015</text>
<text text-anchor="start" x="151" y="-22.8" font-family="Helvetica,sans-Serif" font-size="14.00" fill="#000000">samples = 426</text>
<text text-anchor="start" x="155" y="-7.8" font-family="Helvetica,sans-Serif" font-size="14.00" fill="#000000">value = 0.158</text>
</g>
<!-- 2&#45;&gt;4 -->
<g id="edge4" class="edge">
<title>2&#45;&gt;4</title>
<path fill="none" stroke="#000000" d="M205.5,-88.9777C205.5,-80.7364 205.5,-71.887 205.5,-63.5153"/>
<polygon fill="#000000" stroke="#000000" points="209.0001,-63.2484 205.5,-53.2485 202.0001,-63.2485 209.0001,-63.2484"/>
</g>
<!-- 6 -->
<g id="node7" class="node">
<title>6</title>
<path fill="#efb388" stroke="#000000" d="M399,-53C399,-53 298,-53 298,-53 292,-53 286,-47 286,-41 286,-41 286,-12 286,-12 286,-6 292,0 298,0 298,0 399,0 399,0 405,0 411,-6 411,-12 411,-12 411,-41 411,-41 411,-47 405,-53 399,-53"/>
<text text-anchor="start" x="306.5" y="-37.8" font-family="Helvetica,sans-Serif" font-size="14.00" fill="#000000">mse = 0.01</text>
<text text-anchor="start" x="294" y="-22.8" font-family="Helvetica,sans-Serif" font-size="14.00" fill="#000000">samples = 125</text>
<text text-anchor="start" x="298" y="-7.8" font-family="Helvetica,sans-Serif" font-size="14.00" fill="#000000">value = 0.016</text>
</g>
<!-- 5&#45;&gt;6 -->
<g id="edge6" class="edge">
<title>5&#45;&gt;6</title>
<path fill="none" stroke="#000000" d="M391.8783,-88.9777C385.7113,-80.0954 379.0539,-70.5067 372.8499,-61.5711"/>
<polygon fill="#000000" stroke="#000000" points="375.6497,-59.4666 367.0715,-53.2485 369.8997,-63.4589 375.6497,-59.4666"/>
</g>
<!-- 7 -->
<g id="node8" class="node">
<title>7</title>
<path fill="#e58139" stroke="#000000" d="M534,-53C534,-53 441,-53 441,-53 435,-53 429,-47 429,-41 429,-41 429,-12 429,-12 429,-6 435,0 441,0 441,0 534,0 534,0 540,0 546,-6 546,-12 546,-12 546,-41 546,-41 546,-47 540,-53 534,-53"/>
<text text-anchor="start" x="441" y="-37.8" font-family="Helvetica,sans-Serif" font-size="14.00" fill="#000000">mse = 0.008</text>
<text text-anchor="start" x="442" y="-22.8" font-family="Helvetica,sans-Serif" font-size="14.00" fill="#000000">samples = 2</text>
<text text-anchor="start" x="437" y="-7.8" font-family="Helvetica,sans-Serif" font-size="14.00" fill="#000000">value = 0.188</text>
</g>
<!-- 5&#45;&gt;7 -->
<g id="edge7" class="edge">
<title>5&#45;&gt;7</title>
<path fill="none" stroke="#000000" d="M440.8845,-88.9777C447.58,-80.0039 454.8135,-70.3089 461.539,-61.295"/>
<polygon fill="#000000" stroke="#000000" points="464.3677,-63.3565 467.5426,-53.2485 458.7573,-59.1704 464.3677,-63.3565"/>
</g>
<!-- 9 -->
<g id="node10" class="node">
<title>9</title>
<path fill="#f4cbad" stroke="#000000" d="M744.5,-157C744.5,-157 646.5,-157 646.5,-157 640.5,-157 634.5,-151 634.5,-145 634.5,-145 634.5,-101 634.5,-101 634.5,-95 640.5,-89 646.5,-89 646.5,-89 744.5,-89 744.5,-89 750.5,-89 756.5,-95 756.5,-101 756.5,-101 756.5,-145 756.5,-145 756.5,-151 750.5,-157 744.5,-157"/>
<text text-anchor="start" x="655" y="-141.8" font-family="Helvetica,sans-Serif" font-size="14.00" fill="#000000">X2 ≤ 0.144</text>
<text text-anchor="start" x="653.5" y="-126.8" font-family="Helvetica,sans-Serif" font-size="14.00" fill="#000000">mse = 0.01</text>
<text text-anchor="start" x="645.5" y="-111.8" font-family="Helvetica,sans-Serif" font-size="14.00" fill="#000000">samples = 79</text>
<text text-anchor="start" x="642.5" y="-96.8" font-family="Helvetica,sans-Serif" font-size="14.00" fill="#000000">value = &#45;0.064</text>
</g>
<!-- 8&#45;&gt;9 -->
<g id="edge9" class="edge">
<title>8&#45;&gt;9</title>
<path fill="none" stroke="#000000" d="M695.5,-192.9465C695.5,-184.776 695.5,-175.9318 695.5,-167.3697"/>
<polygon fill="#000000" stroke="#000000" points="699.0001,-167.13 695.5,-157.13 692.0001,-167.13 699.0001,-167.13"/>
</g>
<!-- 12 -->
<g id="node13" class="node">
<title>12</title>
<path fill="#fbeee4" stroke="#000000" d="M958,-157C958,-157 857,-157 857,-157 851,-157 845,-151 845,-145 845,-145 845,-101 845,-101 845,-95 851,-89 857,-89 857,-89 958,-89 958,-89 964,-89 970,-95 970,-101 970,-101 970,-145 970,-145 970,-151 964,-157 958,-157"/>
<text text-anchor="start" x="871.5" y="-141.8" font-family="Helvetica,sans-Serif" font-size="14.00" fill="#000000">X1 ≤ 0.85</text>
<text text-anchor="start" x="861" y="-126.8" font-family="Helvetica,sans-Serif" font-size="14.00" fill="#000000">mse = 0.014</text>
<text text-anchor="start" x="853" y="-111.8" font-family="Helvetica,sans-Serif" font-size="14.00" fill="#000000">samples = 255</text>
<text text-anchor="start" x="854.5" y="-96.8" font-family="Helvetica,sans-Serif" font-size="14.00" fill="#000000">value = &#45;0.186</text>
</g>
<!-- 8&#45;&gt;12 -->
<g id="edge12" class="edge">
<title>8&#45;&gt;12</title>
<path fill="none" stroke="#000000" d="M758.2465,-196.2187C782.6049,-184.2693 810.6414,-170.5156 835.7914,-158.1778"/>
<polygon fill="#000000" stroke="#000000" points="837.4781,-161.2489 844.9145,-153.7023 834.3951,-154.9644 837.4781,-161.2489"/>
</g>
<!-- 10 -->
<g id="node11" class="node">
<title>10</title>
<path fill="#f3c3a1" stroke="#000000" d="M674.5,-53C674.5,-53 576.5,-53 576.5,-53 570.5,-53 564.5,-47 564.5,-41 564.5,-41 564.5,-12 564.5,-12 564.5,-6 570.5,0 576.5,0 576.5,0 674.5,0 674.5,0 680.5,0 686.5,-6 686.5,-12 686.5,-12 686.5,-41 686.5,-41 686.5,-47 680.5,-53 674.5,-53"/>
<text text-anchor="start" x="579" y="-37.8" font-family="Helvetica,sans-Serif" font-size="14.00" fill="#000000">mse = 0.008</text>
<text text-anchor="start" x="575.5" y="-22.8" font-family="Helvetica,sans-Serif" font-size="14.00" fill="#000000">samples = 45</text>
<text text-anchor="start" x="572.5" y="-7.8" font-family="Helvetica,sans-Serif" font-size="14.00" fill="#000000">value = &#45;0.039</text>
</g>
<!-- 9&#45;&gt;10 -->
<g id="edge10" class="edge">
<title>9&#45;&gt;10</title>
<path fill="none" stroke="#000000" d="M670.8206,-88.9777C664.3775,-80.0954 657.422,-70.5067 650.9402,-61.5711"/>
<polygon fill="#000000" stroke="#000000" points="653.6079,-59.288 644.903,-53.2485 647.9417,-63.3982 653.6079,-59.288"/>
</g>
<!-- 11 -->
<g id="node12" class="node">
<title>11</title>
<path fill="#f6d4bc" stroke="#000000" d="M814.5,-53C814.5,-53 716.5,-53 716.5,-53 710.5,-53 704.5,-47 704.5,-41 704.5,-41 704.5,-12 704.5,-12 704.5,-6 710.5,0 716.5,0 716.5,0 814.5,0 814.5,0 820.5,0 826.5,-6 826.5,-12 826.5,-12 826.5,-41 826.5,-41 826.5,-47 820.5,-53 814.5,-53"/>
<text text-anchor="start" x="719" y="-37.8" font-family="Helvetica,sans-Serif" font-size="14.00" fill="#000000">mse = 0.009</text>
<text text-anchor="start" x="715.5" y="-22.8" font-family="Helvetica,sans-Serif" font-size="14.00" fill="#000000">samples = 34</text>
<text text-anchor="start" x="712.5" y="-7.8" font-family="Helvetica,sans-Serif" font-size="14.00" fill="#000000">value = &#45;0.097</text>
</g>
<!-- 9&#45;&gt;11 -->
<g id="edge11" class="edge">
<title>9&#45;&gt;11</title>
<path fill="none" stroke="#000000" d="M720.1794,-88.9777C726.6225,-80.0954 733.578,-70.5067 740.0598,-61.5711"/>
<polygon fill="#000000" stroke="#000000" points="743.0583,-63.3982 746.097,-53.2485 737.3921,-59.288 743.0583,-63.3982"/>
</g>
<!-- 13 -->
<g id="node14" class="node">
<title>13</title>
<path fill="#f8ddca" stroke="#000000" d="M958,-53C958,-53 857,-53 857,-53 851,-53 845,-47 845,-41 845,-41 845,-12 845,-12 845,-6 851,0 857,0 857,0 958,0 958,0 964,0 970,-6 970,-12 970,-12 970,-41 970,-41 970,-47 964,-53 958,-53"/>
<text text-anchor="start" x="861" y="-37.8" font-family="Helvetica,sans-Serif" font-size="14.00" fill="#000000">mse = 0.011</text>
<text text-anchor="start" x="853" y="-22.8" font-family="Helvetica,sans-Serif" font-size="14.00" fill="#000000">samples = 128</text>
<text text-anchor="start" x="854.5" y="-7.8" font-family="Helvetica,sans-Serif" font-size="14.00" fill="#000000">value = &#45;0.128</text>
</g>
<!-- 12&#45;&gt;13 -->
<g id="edge13" class="edge">
<title>12&#45;&gt;13</title>
<path fill="none" stroke="#000000" d="M907.5,-88.9777C907.5,-80.7364 907.5,-71.887 907.5,-63.5153"/>
<polygon fill="#000000" stroke="#000000" points="911.0001,-63.2484 907.5,-53.2485 904.0001,-63.2485 911.0001,-63.2484"/>
</g>
<!-- 14 -->
<g id="node15" class="node">
<title>14</title>
<path fill="#ffffff" stroke="#000000" d="M1101,-53C1101,-53 1000,-53 1000,-53 994,-53 988,-47 988,-41 988,-41 988,-12 988,-12 988,-6 994,0 1000,0 1000,0 1101,0 1101,0 1107,0 1113,-6 1113,-12 1113,-12 1113,-41 1113,-41 1113,-47 1107,-53 1101,-53"/>
<text text-anchor="start" x="1004" y="-37.8" font-family="Helvetica,sans-Serif" font-size="14.00" fill="#000000">mse = 0.012</text>
<text text-anchor="start" x="996" y="-22.8" font-family="Helvetica,sans-Serif" font-size="14.00" fill="#000000">samples = 127</text>
<text text-anchor="start" x="997.5" y="-7.8" font-family="Helvetica,sans-Serif" font-size="14.00" fill="#000000">value = &#45;0.244</text>
</g>
<!-- 12&#45;&gt;14 -->
<g id="edge14" class="edge">
<title>12&#45;&gt;14</title>
<path fill="none" stroke="#000000" d="M957.9165,-88.9777C972.3,-79.2713 987.9337,-68.7213 1002.1885,-59.1018"/>
<polygon fill="#000000" stroke="#000000" points="1004.531,-61.7435 1010.8624,-53.2485 1000.6154,-55.941 1004.531,-61.7435"/>
</g>
</g>
</svg>
