<?xml version="1.0" encoding="UTF-8" standalone="no"?>
<!DOCTYPE svg PUBLIC "-//W3C//DTD SVG 1.1//EN"
 "http://www.w3.org/Graphics/SVG/1.1/DTD/svg11.dtd">
<!-- Generated by graphviz version 2.40.1 (20161225.0304)
 -->
<!-- Title: Tree Pages: 1 -->
<svg width="1110pt" height="373pt"
 viewBox="0.00 0.00 1110.00 373.00" xmlns="http://www.w3.org/2000/svg" xmlns:xlink="http://www.w3.org/1999/xlink">
<g id="graph0" class="graph" transform="scale(1 1) rotate(0) translate(4 369)">
<title>Tree</title>
<polygon fill="#ffffff" stroke="transparent" points="-4,4 -4,-369 1106,-369 1106,4 -4,4"/>
<!-- 0 -->
<g id="node1" class="node">
<title>0</title>
<path fill="#eeae80" stroke="#000000" d="M600.5,-365C600.5,-365 490.5,-365 490.5,-365 484.5,-365 478.5,-359 478.5,-353 478.5,-353 478.5,-309 478.5,-309 478.5,-303 484.5,-297 490.5,-297 490.5,-297 600.5,-297 600.5,-297 606.5,-297 612.5,-303 612.5,-309 612.5,-309 612.5,-353 612.5,-353 612.5,-359 606.5,-365 600.5,-365"/>
<text text-anchor="start" x="505" y="-349.8" font-family="Helvetica,sans-Serif" font-size="14.00" fill="#000000">X1 ≤ 0.629</text>
<text text-anchor="start" x="499" y="-334.8" font-family="Helvetica,sans-Serif" font-size="14.00" fill="#000000">mse = 0.033</text>
<text text-anchor="start" x="486.5" y="-319.8" font-family="Helvetica,sans-Serif" font-size="14.00" fill="#000000">samples = 1000</text>
<text text-anchor="start" x="495" y="-304.8" font-family="Helvetica,sans-Serif" font-size="14.00" fill="#000000">value = 0.034</text>
</g>
<!-- 1 -->
<g id="node2" class="node">
<title>1</title>
<path fill="#e89253" stroke="#000000" d="M462,-261C462,-261 361,-261 361,-261 355,-261 349,-255 349,-249 349,-249 349,-205 349,-205 349,-199 355,-193 361,-193 361,-193 462,-193 462,-193 468,-193 474,-199 474,-205 474,-205 474,-249 474,-249 474,-255 468,-261 462,-261"/>
<text text-anchor="start" x="371" y="-245.8" font-family="Helvetica,sans-Serif" font-size="14.00" fill="#000000">X1 ≤ 0.495</text>
<text text-anchor="start" x="365" y="-230.8" font-family="Helvetica,sans-Serif" font-size="14.00" fill="#000000">mse = 0.016</text>
<text text-anchor="start" x="357" y="-215.8" font-family="Helvetica,sans-Serif" font-size="14.00" fill="#000000">samples = 651</text>
<text text-anchor="start" x="361" y="-200.8" font-family="Helvetica,sans-Serif" font-size="14.00" fill="#000000">value = 0.127</text>
</g>
<!-- 0&#45;&gt;1 -->
<g id="edge1" class="edge">
<title>0&#45;&gt;1</title>
<path fill="none" stroke="#000000" d="M501.6234,-296.9465C489.4765,-287.519 476.1738,-277.1946 463.6073,-267.4415"/>
<polygon fill="#000000" stroke="#000000" points="465.521,-264.4963 455.4752,-261.13 461.2291,-270.0262 465.521,-264.4963"/>
<text text-anchor="middle" x="458.6017" y="-282.2337" font-family="Helvetica,sans-Serif" font-size="14.00" fill="#000000">True</text>
</g>
<!-- 8 -->
<g id="node9" class="node">
<title>8</title>
<path fill="#f9e4d4" stroke="#000000" d="M736,-261C736,-261 635,-261 635,-261 629,-261 623,-255 623,-249 623,-249 623,-205 623,-205 623,-199 629,-193 635,-193 635,-193 736,-193 736,-193 742,-193 748,-199 748,-205 748,-205 748,-249 748,-249 748,-255 742,-261 736,-261"/>
<text text-anchor="start" x="645" y="-245.8" font-family="Helvetica,sans-Serif" font-size="14.00" fill="#000000">X1 ≤ 0.753</text>
<text text-anchor="start" x="639" y="-230.8" font-family="Helvetica,sans-Serif" font-size="14.00" fill="#000000">mse = 0.019</text>
<text text-anchor="start" x="631" y="-215.8" font-family="Helvetica,sans-Serif" font-size="14.00" fill="#000000">samples = 349</text>
<text text-anchor="start" x="632.5" y="-200.8" font-family="Helvetica,sans-Serif" font-size="14.00" fill="#000000">value = &#45;0.139</text>
</g>
<!-- 0&#45;&gt;8 -->
<g id="edge8" class="edge">
<title>0&#45;&gt;8</title>
<path fill="none" stroke="#000000" d="M591.3412,-296.9465C604.1529,-287.4293 618.1952,-276.9978 631.4344,-267.163"/>
<polygon fill="#000000" stroke="#000000" points="633.6155,-269.9029 639.5558,-261.13 629.4412,-264.2837 633.6155,-269.9029"/>
<text text-anchor="middle" x="635.9068" y="-282.1623" font-family="Helvetica,sans-Serif" font-size="14.00" fill="#000000">False</text>
</g>
<!-- 2 -->
<g id="node3" class="node">
<title>2</title>
<path fill="#e78b49" stroke="#000000" d="M256,-157C256,-157 155,-157 155,-157 149,-157 143,-151 143,-145 143,-145 143,-101 143,-101 143,-95 149,-89 155,-89 155,-89 256,-89 256,-89 262,-89 268,-95 268,-101 268,-101 268,-145 268,-145 268,-151 262,-157 256,-157"/>
<text text-anchor="start" x="165" y="-141.8" font-family="Helvetica,sans-Serif" font-size="14.00" fill="#000000">X1 ≤ 0.138</text>
<text text-anchor="start" x="159" y="-126.8" font-family="Helvetica,sans-Serif" font-size="14.00" fill="#000000">mse = 0.016</text>
<text text-anchor="start" x="151" y="-111.8" font-family="Helvetica,sans-Serif" font-size="14.00" fill="#000000">samples = 515</text>
<text text-anchor="start" x="155" y="-96.8" font-family="Helvetica,sans-Serif" font-size="14.00" fill="#000000">value = 0.147</text>
</g>
<!-- 1&#45;&gt;2 -->
<g id="edge2" class="edge">
<title>1&#45;&gt;2</title>
<path fill="none" stroke="#000000" d="M348.8542,-195.373C326.2822,-183.9774 300.6389,-171.0313 277.3431,-159.2703"/>
<polygon fill="#000000" stroke="#000000" points="278.707,-156.0382 268.2027,-154.6557 275.5522,-162.287 278.707,-156.0382"/>
</g>
<!-- 5 -->
<g id="node6" class="node">
<title>5</title>
<path fill="#eda979" stroke="#000000" d="M462,-157C462,-157 361,-157 361,-157 355,-157 349,-151 349,-145 349,-145 349,-101 349,-101 349,-95 355,-89 361,-89 361,-89 462,-89 462,-89 468,-89 474,-95 474,-101 474,-101 474,-145 474,-145 474,-151 468,-157 462,-157"/>
<text text-anchor="start" x="371" y="-141.8" font-family="Helvetica,sans-Serif" font-size="14.00" fill="#000000">X1 ≤ 0.563</text>
<text text-anchor="start" x="365" y="-126.8" font-family="Helvetica,sans-Serif" font-size="14.00" fill="#000000">mse = 0.009</text>
<text text-anchor="start" x="357" y="-111.8" font-family="Helvetica,sans-Serif" font-size="14.00" fill="#000000">samples = 136</text>
<text text-anchor="start" x="361" y="-96.8" font-family="Helvetica,sans-Serif" font-size="14.00" fill="#000000">value = 0.049</text>
</g>
<!-- 1&#45;&gt;5 -->
<g id="edge5" class="edge">
<title>1&#45;&gt;5</title>
<path fill="none" stroke="#000000" d="M411.5,-192.9465C411.5,-184.776 411.5,-175.9318 411.5,-167.3697"/>
<polygon fill="#000000" stroke="#000000" points="415.0001,-167.13 411.5,-157.13 408.0001,-167.13 415.0001,-167.13"/>
</g>
<!-- 3 -->
<g id="node4" class="node">
<title>3</title>
<path fill="#eca470" stroke="#000000" d="M113,-53C113,-53 12,-53 12,-53 6,-53 0,-47 0,-41 0,-41 0,-12 0,-12 0,-6 6,0 12,0 12,0 113,0 113,0 119,0 125,-6 125,-12 125,-12 125,-41 125,-41 125,-47 119,-53 113,-53"/>
<text text-anchor="start" x="16" y="-37.8" font-family="Helvetica,sans-Serif" font-size="14.00" fill="#000000">mse = 0.011</text>
<text text-anchor="start" x="8" y="-22.8" font-family="Helvetica,sans-Serif" font-size="14.00" fill="#000000">samples = 153</text>
<text text-anchor="start" x="12" y="-7.8" font-family="Helvetica,sans-Serif" font-size="14.00" fill="#000000">value = 0.068</text>
</g>
<!-- 2&#45;&gt;3 -->
<g id="edge3" class="edge">
<title>2&#45;&gt;3</title>
<path fill="none" stroke="#000000" d="M155.0835,-88.9777C140.7,-79.2713 125.0663,-68.7213 110.8115,-59.1018"/>
<polygon fill="#000000" stroke="#000000" points="112.3846,-55.941 102.1376,-53.2485 108.469,-61.7435 112.3846,-55.941"/>
</g>
<!-- 4 -->
<g id="node5" class="node">
<title>4</title>
<path fill="#e58139" stroke="#000000" d="M256,-53C256,-53 155,-53 155,-53 149,-53 143,-47 143,-41 143,-41 143,-12 143,-12 143,-6 149,0 155,0 155,0 256,0 256,0 262,0 268,-6 268,-12 268,-12 268,-41 268,-41 268,-47 262,-53 256,-53"/>
<text text-anchor="start" x="159" y="-37.8" font-family="Helvetica,sans-Serif" font-size="14.00" fill="#000000">mse = 0.015</text>
<text text-anchor="start" x="151" y="-22.8" font-family="Helvetica,sans-Serif" font-size="14.00" fill="#000000">samples = 362</text>
<text text-anchor="start" x="155" y="-7.8" font-family="Helvetica,sans-Serif" font-size="14.00" fill="#000000">value = 0.181</text>
</g>
<!-- 2&#45;&gt;4 -->
<g id="edge4" class="edge">
<title>2&#45;&gt;4</title>
<path fill="none" stroke="#000000" d="M205.5,-88.9777C205.5,-80.7364 205.5,-71.887 205.5,-63.5153"/>
<polygon fill="#000000" stroke="#000000" points="209.0001,-63.2484 205.5,-53.2485 202.0001,-63.2485 209.0001,-63.2484"/>
</g>
<!-- 6 -->
<g id="node7" class="node">
<title>6</title>
<path fill="#eb9e66" stroke="#000000" d="M391,-53C391,-53 298,-53 298,-53 292,-53 286,-47 286,-41 286,-41 286,-12 286,-12 286,-6 292,0 298,0 298,0 391,0 391,0 397,0 403,-6 403,-12 403,-12 403,-41 403,-41 403,-47 397,-53 391,-53"/>
<text text-anchor="start" x="302.5" y="-37.8" font-family="Helvetica,sans-Serif" font-size="14.00" fill="#000000">mse = 0.01</text>
<text text-anchor="start" x="294.5" y="-22.8" font-family="Helvetica,sans-Serif" font-size="14.00" fill="#000000">samples = 62</text>
<text text-anchor="start" x="294" y="-7.8" font-family="Helvetica,sans-Serif" font-size="14.00" fill="#000000">value = 0.087</text>
</g>
<!-- 5&#45;&gt;6 -->
<g id="edge6" class="edge">
<title>5&#45;&gt;6</title>
<path fill="none" stroke="#000000" d="M387.8783,-88.9777C381.7113,-80.0954 375.0539,-70.5067 368.8499,-61.5711"/>
<polygon fill="#000000" stroke="#000000" points="371.6497,-59.4666 363.0715,-53.2485 365.8997,-63.4589 371.6497,-59.4666"/>
</g>
<!-- 7 -->
<g id="node8" class="node">
<title>7</title>
<path fill="#efb388" stroke="#000000" d="M526,-53C526,-53 433,-53 433,-53 427,-53 421,-47 421,-41 421,-41 421,-12 421,-12 421,-6 427,0 433,0 433,0 526,0 526,0 532,0 538,-6 538,-12 538,-12 538,-41 538,-41 538,-47 532,-53 526,-53"/>
<text text-anchor="start" x="433" y="-37.8" font-family="Helvetica,sans-Serif" font-size="14.00" fill="#000000">mse = 0.006</text>
<text text-anchor="start" x="429.5" y="-22.8" font-family="Helvetica,sans-Serif" font-size="14.00" fill="#000000">samples = 74</text>
<text text-anchor="start" x="429" y="-7.8" font-family="Helvetica,sans-Serif" font-size="14.00" fill="#000000">value = 0.018</text>
</g>
<!-- 5&#45;&gt;7 -->
<g id="edge7" class="edge">
<title>5&#45;&gt;7</title>
<path fill="none" stroke="#000000" d="M435.4743,-88.9777C441.7333,-80.0954 448.4901,-70.5067 454.7867,-61.5711"/>
<polygon fill="#000000" stroke="#000000" points="457.7521,-63.4389 460.6513,-53.2485 452.0301,-59.4068 457.7521,-63.4389"/>
</g>
<!-- 9 -->
<g id="node10" class="node">
<title>9</title>
<path fill="#f4cbae" stroke="#000000" d="M736,-157C736,-157 635,-157 635,-157 629,-157 623,-151 623,-145 623,-145 623,-101 623,-101 623,-95 629,-89 635,-89 635,-89 736,-89 736,-89 742,-89 748,-95 748,-101 748,-101 748,-145 748,-145 748,-151 742,-157 736,-157"/>
<text text-anchor="start" x="645" y="-141.8" font-family="Helvetica,sans-Serif" font-size="14.00" fill="#000000">X1 ≤ 0.691</text>
<text text-anchor="start" x="639" y="-126.8" font-family="Helvetica,sans-Serif" font-size="14.00" fill="#000000">mse = 0.011</text>
<text text-anchor="start" x="631" y="-111.8" font-family="Helvetica,sans-Serif" font-size="14.00" fill="#000000">samples = 119</text>
<text text-anchor="start" x="637" y="-96.8" font-family="Helvetica,sans-Serif" font-size="14.00" fill="#000000">value = &#45;0.06</text>
</g>
<!-- 8&#45;&gt;9 -->
<g id="edge9" class="edge">
<title>8&#45;&gt;9</title>
<path fill="none" stroke="#000000" d="M685.5,-192.9465C685.5,-184.776 685.5,-175.9318 685.5,-167.3697"/>
<polygon fill="#000000" stroke="#000000" points="689.0001,-167.13 685.5,-157.13 682.0001,-167.13 689.0001,-167.13"/>
</g>
<!-- 12 -->
<g id="node13" class="node">
<title>12</title>
<path fill="#fcf0e8" stroke="#000000" d="M948,-157C948,-157 847,-157 847,-157 841,-157 835,-151 835,-145 835,-145 835,-101 835,-101 835,-95 841,-89 847,-89 847,-89 948,-89 948,-89 954,-89 960,-95 960,-101 960,-101 960,-145 960,-145 960,-151 954,-157 948,-157"/>
<text text-anchor="start" x="861.5" y="-141.8" font-family="Helvetica,sans-Serif" font-size="14.00" fill="#000000">X2 ≤ 0.31</text>
<text text-anchor="start" x="851" y="-126.8" font-family="Helvetica,sans-Serif" font-size="14.00" fill="#000000">mse = 0.018</text>
<text text-anchor="start" x="843" y="-111.8" font-family="Helvetica,sans-Serif" font-size="14.00" fill="#000000">samples = 230</text>
<text text-anchor="start" x="849" y="-96.8" font-family="Helvetica,sans-Serif" font-size="14.00" fill="#000000">value = &#45;0.18</text>
</g>
<!-- 8&#45;&gt;12 -->
<g id="edge12" class="edge">
<title>8&#45;&gt;12</title>
<path fill="none" stroke="#000000" d="M748.2465,-196.2187C772.6049,-184.2693 800.6414,-170.5156 825.7914,-158.1778"/>
<polygon fill="#000000" stroke="#000000" points="827.4781,-161.2489 834.9145,-153.7023 824.3951,-154.9644 827.4781,-161.2489"/>
</g>
<!-- 10 -->
<g id="node11" class="node">
<title>10</title>
<path fill="#f2c19e" stroke="#000000" d="M666.5,-53C666.5,-53 568.5,-53 568.5,-53 562.5,-53 556.5,-47 556.5,-41 556.5,-41 556.5,-12 556.5,-12 556.5,-6 562.5,0 568.5,0 568.5,0 666.5,0 666.5,0 672.5,0 678.5,-6 678.5,-12 678.5,-12 678.5,-41 678.5,-41 678.5,-47 672.5,-53 666.5,-53"/>
<text text-anchor="start" x="575.5" y="-37.8" font-family="Helvetica,sans-Serif" font-size="14.00" fill="#000000">mse = 0.01</text>
<text text-anchor="start" x="567.5" y="-22.8" font-family="Helvetica,sans-Serif" font-size="14.00" fill="#000000">samples = 54</text>
<text text-anchor="start" x="564.5" y="-7.8" font-family="Helvetica,sans-Serif" font-size="14.00" fill="#000000">value = &#45;0.027</text>
</g>
<!-- 9&#45;&gt;10 -->
<g id="edge10" class="edge">
<title>9&#45;&gt;10</title>
<path fill="none" stroke="#000000" d="M661.5257,-88.9777C655.2667,-80.0954 648.5099,-70.5067 642.2133,-61.5711"/>
<polygon fill="#000000" stroke="#000000" points="644.9699,-59.4068 636.3487,-53.2485 639.2479,-63.4389 644.9699,-59.4068"/>
</g>
<!-- 11 -->
<g id="node12" class="node">
<title>11</title>
<path fill="#f6d4bb" stroke="#000000" d="M806.5,-53C806.5,-53 708.5,-53 708.5,-53 702.5,-53 696.5,-47 696.5,-41 696.5,-41 696.5,-12 696.5,-12 696.5,-6 702.5,0 708.5,0 708.5,0 806.5,0 806.5,0 812.5,0 818.5,-6 818.5,-12 818.5,-12 818.5,-41 818.5,-41 818.5,-47 812.5,-53 806.5,-53"/>
<text text-anchor="start" x="715.5" y="-37.8" font-family="Helvetica,sans-Serif" font-size="14.00" fill="#000000">mse = 0.01</text>
<text text-anchor="start" x="707.5" y="-22.8" font-family="Helvetica,sans-Serif" font-size="14.00" fill="#000000">samples = 65</text>
<text text-anchor="start" x="704.5" y="-7.8" font-family="Helvetica,sans-Serif" font-size="14.00" fill="#000000">value = &#45;0.088</text>
</g>
<!-- 9&#45;&gt;11 -->
<g id="edge11" class="edge">
<title>9&#45;&gt;11</title>
<path fill="none" stroke="#000000" d="M710.8845,-88.9777C717.58,-80.0039 724.8135,-70.3089 731.539,-61.295"/>
<polygon fill="#000000" stroke="#000000" points="734.3677,-63.3565 737.5426,-53.2485 728.7573,-59.1704 734.3677,-63.3565"/>
</g>
<!-- 13 -->
<g id="node14" class="node">
<title>13</title>
<path fill="#f6d1b7" stroke="#000000" d="M946.5,-53C946.5,-53 848.5,-53 848.5,-53 842.5,-53 836.5,-47 836.5,-41 836.5,-41 836.5,-12 836.5,-12 836.5,-6 842.5,0 848.5,0 848.5,0 946.5,0 946.5,0 952.5,0 958.5,-6 958.5,-12 958.5,-12 958.5,-41 958.5,-41 958.5,-47 952.5,-53 946.5,-53"/>
<text text-anchor="start" x="851" y="-37.8" font-family="Helvetica,sans-Serif" font-size="14.00" fill="#000000">mse = 0.017</text>
<text text-anchor="start" x="847.5" y="-22.8" font-family="Helvetica,sans-Serif" font-size="14.00" fill="#000000">samples = 74</text>
<text text-anchor="start" x="844.5" y="-7.8" font-family="Helvetica,sans-Serif" font-size="14.00" fill="#000000">value = &#45;0.079</text>
</g>
<!-- 12&#45;&gt;13 -->
<g id="edge13" class="edge">
<title>12&#45;&gt;13</title>
<path fill="none" stroke="#000000" d="M897.5,-88.9777C897.5,-80.7364 897.5,-71.887 897.5,-63.5153"/>
<polygon fill="#000000" stroke="#000000" points="901.0001,-63.2484 897.5,-53.2485 894.0001,-63.2485 901.0001,-63.2484"/>
</g>
<!-- 14 -->
<g id="node15" class="node">
<title>14</title>
<path fill="#ffffff" stroke="#000000" d="M1090,-53C1090,-53 989,-53 989,-53 983,-53 977,-47 977,-41 977,-41 977,-12 977,-12 977,-6 983,0 989,0 989,0 1090,0 1090,0 1096,0 1102,-6 1102,-12 1102,-12 1102,-41 1102,-41 1102,-47 1096,-53 1090,-53"/>
<text text-anchor="start" x="993" y="-37.8" font-family="Helvetica,sans-Serif" font-size="14.00" fill="#000000">mse = 0.011</text>
<text text-anchor="start" x="985" y="-22.8" font-family="Helvetica,sans-Serif" font-size="14.00" fill="#000000">samples = 156</text>
<text text-anchor="start" x="986.5" y="-7.8" font-family="Helvetica,sans-Serif" font-size="14.00" fill="#000000">value = &#45;0.228</text>
</g>
<!-- 12&#45;&gt;14 -->
<g id="edge14" class="edge">
<title>12&#45;&gt;14</title>
<path fill="none" stroke="#000000" d="M947.5639,-88.9777C961.8469,-79.2713 977.3713,-68.7213 991.5263,-59.1018"/>
<polygon fill="#000000" stroke="#000000" points="993.8359,-61.764 1000.1395,-53.2485 989.9014,-55.9744 993.8359,-61.764"/>
</g>
</g>
</svg>
