<?xml version="1.0" encoding="UTF-8" standalone="no"?>
<!DOCTYPE svg PUBLIC "-//W3C//DTD SVG 1.1//EN"
 "http://www.w3.org/Graphics/SVG/1.1/DTD/svg11.dtd">
<!-- Generated by graphviz version 2.40.1 (20161225.0304)
 -->
<!-- Title: Tree Pages: 1 -->
<svg width="1120pt" height="373pt"
 viewBox="0.00 0.00 1119.50 373.00" xmlns="http://www.w3.org/2000/svg" xmlns:xlink="http://www.w3.org/1999/xlink">
<g id="graph0" class="graph" transform="scale(1 1) rotate(0) translate(4 369)">
<title>Tree</title>
<polygon fill="#ffffff" stroke="transparent" points="-4,4 -4,-369 1115.5,-369 1115.5,4 -4,4"/>
<!-- 0 -->
<g id="node1" class="node">
<title>0</title>
<path fill="#efb083" stroke="#000000" d="M606,-365C606,-365 496,-365 496,-365 490,-365 484,-359 484,-353 484,-353 484,-309 484,-309 484,-303 490,-297 496,-297 496,-297 606,-297 606,-297 612,-297 618,-303 618,-309 618,-309 618,-353 618,-353 618,-359 612,-365 606,-365"/>
<text text-anchor="start" x="510.5" y="-349.8" font-family="Helvetica,sans-Serif" font-size="14.00" fill="#000000">X1 ≤ 0.646</text>
<text text-anchor="start" x="504.5" y="-334.8" font-family="Helvetica,sans-Serif" font-size="14.00" fill="#000000">mse = 0.035</text>
<text text-anchor="start" x="492" y="-319.8" font-family="Helvetica,sans-Serif" font-size="14.00" fill="#000000">samples = 1000</text>
<text text-anchor="start" x="500.5" y="-304.8" font-family="Helvetica,sans-Serif" font-size="14.00" fill="#000000">value = 0.025</text>
</g>
<!-- 1 -->
<g id="node2" class="node">
<title>1</title>
<path fill="#e89153" stroke="#000000" d="M463.5,-261C463.5,-261 362.5,-261 362.5,-261 356.5,-261 350.5,-255 350.5,-249 350.5,-249 350.5,-205 350.5,-205 350.5,-199 356.5,-193 362.5,-193 362.5,-193 463.5,-193 463.5,-193 469.5,-193 475.5,-199 475.5,-205 475.5,-205 475.5,-249 475.5,-249 475.5,-255 469.5,-261 463.5,-261"/>
<text text-anchor="start" x="372.5" y="-245.8" font-family="Helvetica,sans-Serif" font-size="14.00" fill="#000000">X2 ≤ 0.378</text>
<text text-anchor="start" x="366.5" y="-230.8" font-family="Helvetica,sans-Serif" font-size="14.00" fill="#000000">mse = 0.017</text>
<text text-anchor="start" x="358.5" y="-215.8" font-family="Helvetica,sans-Serif" font-size="14.00" fill="#000000">samples = 643</text>
<text text-anchor="start" x="362.5" y="-200.8" font-family="Helvetica,sans-Serif" font-size="14.00" fill="#000000">value = 0.127</text>
</g>
<!-- 0&#45;&gt;1 -->
<g id="edge1" class="edge">
<title>0&#45;&gt;1</title>
<path fill="none" stroke="#000000" d="M505.8136,-296.9465C493.185,-287.4293 479.3433,-276.9978 466.2932,-267.163"/>
<polygon fill="#000000" stroke="#000000" points="468.3805,-264.3534 458.2879,-261.13 464.1675,-269.9437 468.3805,-264.3534"/>
<text text-anchor="middle" x="461.7661" y="-282.1869" font-family="Helvetica,sans-Serif" font-size="14.00" fill="#000000">True</text>
</g>
<!-- 8 -->
<g id="node9" class="node">
<title>8</title>
<path fill="#fae8db" stroke="#000000" d="M743.5,-261C743.5,-261 642.5,-261 642.5,-261 636.5,-261 630.5,-255 630.5,-249 630.5,-249 630.5,-205 630.5,-205 630.5,-199 636.5,-193 642.5,-193 642.5,-193 743.5,-193 743.5,-193 749.5,-193 755.5,-199 755.5,-205 755.5,-205 755.5,-249 755.5,-249 755.5,-255 749.5,-261 743.5,-261"/>
<text text-anchor="start" x="652.5" y="-245.8" font-family="Helvetica,sans-Serif" font-size="14.00" fill="#000000">X1 ≤ 0.809</text>
<text text-anchor="start" x="646.5" y="-230.8" font-family="Helvetica,sans-Serif" font-size="14.00" fill="#000000">mse = 0.014</text>
<text text-anchor="start" x="638.5" y="-215.8" font-family="Helvetica,sans-Serif" font-size="14.00" fill="#000000">samples = 357</text>
<text text-anchor="start" x="640" y="-200.8" font-family="Helvetica,sans-Serif" font-size="14.00" fill="#000000">value = &#45;0.158</text>
</g>
<!-- 0&#45;&gt;8 -->
<g id="edge8" class="edge">
<title>0&#45;&gt;8</title>
<path fill="none" stroke="#000000" d="M597.4961,-296.9465C610.4908,-287.4293 624.7337,-276.9978 638.1621,-267.163"/>
<polygon fill="#000000" stroke="#000000" points="640.3998,-269.8624 646.3994,-261.13 636.2637,-264.2151 640.3998,-269.8624"/>
<text text-anchor="middle" x="642.5829" y="-282.137" font-family="Helvetica,sans-Serif" font-size="14.00" fill="#000000">False</text>
</g>
<!-- 2 -->
<g id="node3" class="node">
<title>2</title>
<path fill="#eca26c" stroke="#000000" d="M253.5,-157C253.5,-157 152.5,-157 152.5,-157 146.5,-157 140.5,-151 140.5,-145 140.5,-145 140.5,-101 140.5,-101 140.5,-95 146.5,-89 152.5,-89 152.5,-89 253.5,-89 253.5,-89 259.5,-89 265.5,-95 265.5,-101 265.5,-101 265.5,-145 265.5,-145 265.5,-151 259.5,-157 253.5,-157"/>
<text text-anchor="start" x="167" y="-141.8" font-family="Helvetica,sans-Serif" font-size="14.00" fill="#000000">X1 ≤ 0.03</text>
<text text-anchor="start" x="156.5" y="-126.8" font-family="Helvetica,sans-Serif" font-size="14.00" fill="#000000">mse = 0.013</text>
<text text-anchor="start" x="148.5" y="-111.8" font-family="Helvetica,sans-Serif" font-size="14.00" fill="#000000">samples = 248</text>
<text text-anchor="start" x="152.5" y="-96.8" font-family="Helvetica,sans-Serif" font-size="14.00" fill="#000000">value = 0.074</text>
</g>
<!-- 1&#45;&gt;2 -->
<g id="edge2" class="edge">
<title>1&#45;&gt;2</title>
<path fill="none" stroke="#000000" d="M350.2775,-195.9374C326.5934,-184.2081 299.464,-170.7727 274.9963,-158.6553"/>
<polygon fill="#000000" stroke="#000000" points="276.2765,-155.3837 265.7619,-154.0821 273.1699,-161.6566 276.2765,-155.3837"/>
</g>
<!-- 5 -->
<g id="node6" class="node">
<title>5</title>
<path fill="#e68743" stroke="#000000" d="M463.5,-157C463.5,-157 362.5,-157 362.5,-157 356.5,-157 350.5,-151 350.5,-145 350.5,-145 350.5,-101 350.5,-101 350.5,-95 356.5,-89 362.5,-89 362.5,-89 463.5,-89 463.5,-89 469.5,-89 475.5,-95 475.5,-101 475.5,-101 475.5,-145 475.5,-145 475.5,-151 469.5,-157 463.5,-157"/>
<text text-anchor="start" x="372.5" y="-141.8" font-family="Helvetica,sans-Serif" font-size="14.00" fill="#000000">X1 ≤ 0.545</text>
<text text-anchor="start" x="366.5" y="-126.8" font-family="Helvetica,sans-Serif" font-size="14.00" fill="#000000">mse = 0.016</text>
<text text-anchor="start" x="358.5" y="-111.8" font-family="Helvetica,sans-Serif" font-size="14.00" fill="#000000">samples = 395</text>
<text text-anchor="start" x="362.5" y="-96.8" font-family="Helvetica,sans-Serif" font-size="14.00" fill="#000000">value = 0.161</text>
</g>
<!-- 1&#45;&gt;5 -->
<g id="edge5" class="edge">
<title>1&#45;&gt;5</title>
<path fill="none" stroke="#000000" d="M413,-192.9465C413,-184.776 413,-175.9318 413,-167.3697"/>
<polygon fill="#000000" stroke="#000000" points="416.5001,-167.13 413,-157.13 409.5001,-167.13 416.5001,-167.13"/>
</g>
<!-- 3 -->
<g id="node4" class="node">
<title>3</title>
<path fill="#f2c29f" stroke="#000000" d="M110,-53C110,-53 12,-53 12,-53 6,-53 0,-47 0,-41 0,-41 0,-12 0,-12 0,-6 6,0 12,0 12,0 110,0 110,0 116,0 122,-6 122,-12 122,-12 122,-41 122,-41 122,-47 116,-53 110,-53"/>
<text text-anchor="start" x="14.5" y="-37.8" font-family="Helvetica,sans-Serif" font-size="14.00" fill="#000000">mse = 0.006</text>
<text text-anchor="start" x="11" y="-22.8" font-family="Helvetica,sans-Serif" font-size="14.00" fill="#000000">samples = 18</text>
<text text-anchor="start" x="8" y="-7.8" font-family="Helvetica,sans-Serif" font-size="14.00" fill="#000000">value = &#45;0.033</text>
</g>
<!-- 2&#45;&gt;3 -->
<g id="edge3" class="edge">
<title>2&#45;&gt;3</title>
<path fill="none" stroke="#000000" d="M152.9361,-88.9777C138.6531,-79.2713 123.1287,-68.7213 108.9737,-59.1018"/>
<polygon fill="#000000" stroke="#000000" points="110.5986,-55.9744 100.3605,-53.2485 106.6641,-61.764 110.5986,-55.9744"/>
</g>
<!-- 4 -->
<g id="node5" class="node">
<title>4</title>
<path fill="#eb9f68" stroke="#000000" d="M253.5,-53C253.5,-53 152.5,-53 152.5,-53 146.5,-53 140.5,-47 140.5,-41 140.5,-41 140.5,-12 140.5,-12 140.5,-6 146.5,0 152.5,0 152.5,0 253.5,0 253.5,0 259.5,0 265.5,-6 265.5,-12 265.5,-12 265.5,-41 265.5,-41 265.5,-47 259.5,-53 253.5,-53"/>
<text text-anchor="start" x="156.5" y="-37.8" font-family="Helvetica,sans-Serif" font-size="14.00" fill="#000000">mse = 0.013</text>
<text text-anchor="start" x="148.5" y="-22.8" font-family="Helvetica,sans-Serif" font-size="14.00" fill="#000000">samples = 230</text>
<text text-anchor="start" x="152.5" y="-7.8" font-family="Helvetica,sans-Serif" font-size="14.00" fill="#000000">value = 0.082</text>
</g>
<!-- 2&#45;&gt;4 -->
<g id="edge4" class="edge">
<title>2&#45;&gt;4</title>
<path fill="none" stroke="#000000" d="M203,-88.9777C203,-80.7364 203,-71.887 203,-63.5153"/>
<polygon fill="#000000" stroke="#000000" points="206.5001,-63.2484 203,-53.2485 199.5001,-63.2485 206.5001,-63.2484"/>
</g>
<!-- 6 -->
<g id="node7" class="node">
<title>6</title>
<path fill="#e58139" stroke="#000000" d="M396.5,-53C396.5,-53 295.5,-53 295.5,-53 289.5,-53 283.5,-47 283.5,-41 283.5,-41 283.5,-12 283.5,-12 283.5,-6 289.5,0 295.5,0 295.5,0 396.5,0 396.5,0 402.5,0 408.5,-6 408.5,-12 408.5,-12 408.5,-41 408.5,-41 408.5,-47 402.5,-53 396.5,-53"/>
<text text-anchor="start" x="299.5" y="-37.8" font-family="Helvetica,sans-Serif" font-size="14.00" fill="#000000">mse = 0.014</text>
<text text-anchor="start" x="291.5" y="-22.8" font-family="Helvetica,sans-Serif" font-size="14.00" fill="#000000">samples = 334</text>
<text text-anchor="start" x="295.5" y="-7.8" font-family="Helvetica,sans-Serif" font-size="14.00" fill="#000000">value = 0.181</text>
</g>
<!-- 5&#45;&gt;6 -->
<g id="edge6" class="edge">
<title>5&#45;&gt;6</title>
<path fill="none" stroke="#000000" d="M389.3783,-88.9777C383.2113,-80.0954 376.5539,-70.5067 370.3499,-61.5711"/>
<polygon fill="#000000" stroke="#000000" points="373.1497,-59.4666 364.5715,-53.2485 367.3997,-63.4589 373.1497,-59.4666"/>
</g>
<!-- 7 -->
<g id="node8" class="node">
<title>7</title>
<path fill="#eda978" stroke="#000000" d="M531.5,-53C531.5,-53 438.5,-53 438.5,-53 432.5,-53 426.5,-47 426.5,-41 426.5,-41 426.5,-12 426.5,-12 426.5,-6 432.5,0 438.5,0 438.5,0 531.5,0 531.5,0 537.5,0 543.5,-6 543.5,-12 543.5,-12 543.5,-41 543.5,-41 543.5,-47 537.5,-53 531.5,-53"/>
<text text-anchor="start" x="438.5" y="-37.8" font-family="Helvetica,sans-Serif" font-size="14.00" fill="#000000">mse = 0.011</text>
<text text-anchor="start" x="435" y="-22.8" font-family="Helvetica,sans-Serif" font-size="14.00" fill="#000000">samples = 61</text>
<text text-anchor="start" x="434.5" y="-7.8" font-family="Helvetica,sans-Serif" font-size="14.00" fill="#000000">value = 0.049</text>
</g>
<!-- 5&#45;&gt;7 -->
<g id="edge7" class="edge">
<title>5&#45;&gt;7</title>
<path fill="none" stroke="#000000" d="M438.3845,-88.9777C445.08,-80.0039 452.3135,-70.3089 459.039,-61.295"/>
<polygon fill="#000000" stroke="#000000" points="461.8677,-63.3565 465.0426,-53.2485 456.2573,-59.1704 461.8677,-63.3565"/>
</g>
<!-- 9 -->
<g id="node10" class="node">
<title>9</title>
<path fill="#f6d4bc" stroke="#000000" d="M743.5,-157C743.5,-157 642.5,-157 642.5,-157 636.5,-157 630.5,-151 630.5,-145 630.5,-145 630.5,-101 630.5,-101 630.5,-95 636.5,-89 642.5,-89 642.5,-89 743.5,-89 743.5,-89 749.5,-89 755.5,-95 755.5,-101 755.5,-101 755.5,-145 755.5,-145 755.5,-151 749.5,-157 743.5,-157"/>
<text text-anchor="start" x="652.5" y="-141.8" font-family="Helvetica,sans-Serif" font-size="14.00" fill="#000000">X1 ≤ 0.695</text>
<text text-anchor="start" x="646.5" y="-126.8" font-family="Helvetica,sans-Serif" font-size="14.00" fill="#000000">mse = 0.012</text>
<text text-anchor="start" x="638.5" y="-111.8" font-family="Helvetica,sans-Serif" font-size="14.00" fill="#000000">samples = 156</text>
<text text-anchor="start" x="640" y="-96.8" font-family="Helvetica,sans-Serif" font-size="14.00" fill="#000000">value = &#45;0.092</text>
</g>
<!-- 8&#45;&gt;9 -->
<g id="edge9" class="edge">
<title>8&#45;&gt;9</title>
<path fill="none" stroke="#000000" d="M693,-192.9465C693,-184.776 693,-175.9318 693,-167.3697"/>
<polygon fill="#000000" stroke="#000000" points="696.5001,-167.13 693,-157.13 689.5001,-167.13 696.5001,-167.13"/>
</g>
<!-- 12 -->
<g id="node13" class="node">
<title>12</title>
<path fill="#fdf7f3" stroke="#000000" d="M957.5,-157C957.5,-157 856.5,-157 856.5,-157 850.5,-157 844.5,-151 844.5,-145 844.5,-145 844.5,-101 844.5,-101 844.5,-95 850.5,-89 856.5,-89 856.5,-89 957.5,-89 957.5,-89 963.5,-89 969.5,-95 969.5,-101 969.5,-101 969.5,-145 969.5,-145 969.5,-151 963.5,-157 957.5,-157"/>
<text text-anchor="start" x="866.5" y="-141.8" font-family="Helvetica,sans-Serif" font-size="14.00" fill="#000000">X2 ≤ 0.292</text>
<text text-anchor="start" x="860.5" y="-126.8" font-family="Helvetica,sans-Serif" font-size="14.00" fill="#000000">mse = 0.011</text>
<text text-anchor="start" x="852.5" y="-111.8" font-family="Helvetica,sans-Serif" font-size="14.00" fill="#000000">samples = 201</text>
<text text-anchor="start" x="854" y="-96.8" font-family="Helvetica,sans-Serif" font-size="14.00" fill="#000000">value = &#45;0.209</text>
</g>
<!-- 8&#45;&gt;12 -->
<g id="edge12" class="edge">
<title>8&#45;&gt;12</title>
<path fill="none" stroke="#000000" d="M755.7611,-196.4993C780.5852,-184.4352 809.2651,-170.4973 834.9326,-158.0234"/>
<polygon fill="#000000" stroke="#000000" points="836.7757,-161.0192 844.24,-153.5002 833.716,-154.7233 836.7757,-161.0192"/>
</g>
<!-- 10 -->
<g id="node11" class="node">
<title>10</title>
<path fill="#f3c5a3" stroke="#000000" d="M672,-53C672,-53 574,-53 574,-53 568,-53 562,-47 562,-41 562,-41 562,-12 562,-12 562,-6 568,0 574,0 574,0 672,0 672,0 678,0 684,-6 684,-12 684,-12 684,-41 684,-41 684,-47 678,-53 672,-53"/>
<text text-anchor="start" x="576.5" y="-37.8" font-family="Helvetica,sans-Serif" font-size="14.00" fill="#000000">mse = 0.009</text>
<text text-anchor="start" x="573" y="-22.8" font-family="Helvetica,sans-Serif" font-size="14.00" fill="#000000">samples = 51</text>
<text text-anchor="start" x="570" y="-7.8" font-family="Helvetica,sans-Serif" font-size="14.00" fill="#000000">value = &#45;0.041</text>
</g>
<!-- 9&#45;&gt;10 -->
<g id="edge10" class="edge">
<title>9&#45;&gt;10</title>
<path fill="none" stroke="#000000" d="M668.3206,-88.9777C661.8775,-80.0954 654.922,-70.5067 648.4402,-61.5711"/>
<polygon fill="#000000" stroke="#000000" points="651.1079,-59.288 642.403,-53.2485 645.4417,-63.3982 651.1079,-59.288"/>
</g>
<!-- 11 -->
<g id="node12" class="node">
<title>11</title>
<path fill="#f8dcc8" stroke="#000000" d="M815.5,-53C815.5,-53 714.5,-53 714.5,-53 708.5,-53 702.5,-47 702.5,-41 702.5,-41 702.5,-12 702.5,-12 702.5,-6 708.5,0 714.5,0 714.5,0 815.5,0 815.5,0 821.5,0 827.5,-6 827.5,-12 827.5,-12 827.5,-41 827.5,-41 827.5,-47 821.5,-53 815.5,-53"/>
<text text-anchor="start" x="718.5" y="-37.8" font-family="Helvetica,sans-Serif" font-size="14.00" fill="#000000">mse = 0.011</text>
<text text-anchor="start" x="710.5" y="-22.8" font-family="Helvetica,sans-Serif" font-size="14.00" fill="#000000">samples = 105</text>
<text text-anchor="start" x="712" y="-7.8" font-family="Helvetica,sans-Serif" font-size="14.00" fill="#000000">value = &#45;0.117</text>
</g>
<!-- 9&#45;&gt;11 -->
<g id="edge11" class="edge">
<title>9&#45;&gt;11</title>
<path fill="none" stroke="#000000" d="M718.3845,-88.9777C725.08,-80.0039 732.3135,-70.3089 739.039,-61.295"/>
<polygon fill="#000000" stroke="#000000" points="741.8677,-63.3565 745.0426,-53.2485 736.2573,-59.1704 741.8677,-63.3565"/>
</g>
<!-- 13 -->
<g id="node14" class="node">
<title>13</title>
<path fill="#f8ddca" stroke="#000000" d="M956,-53C956,-53 858,-53 858,-53 852,-53 846,-47 846,-41 846,-41 846,-12 846,-12 846,-6 852,0 858,0 858,0 956,0 956,0 962,0 968,-6 968,-12 968,-12 968,-41 968,-41 968,-47 962,-53 956,-53"/>
<text text-anchor="start" x="860.5" y="-37.8" font-family="Helvetica,sans-Serif" font-size="14.00" fill="#000000">mse = 0.006</text>
<text text-anchor="start" x="857" y="-22.8" font-family="Helvetica,sans-Serif" font-size="14.00" fill="#000000">samples = 45</text>
<text text-anchor="start" x="854" y="-7.8" font-family="Helvetica,sans-Serif" font-size="14.00" fill="#000000">value = &#45;0.123</text>
</g>
<!-- 12&#45;&gt;13 -->
<g id="edge13" class="edge">
<title>12&#45;&gt;13</title>
<path fill="none" stroke="#000000" d="M907,-88.9777C907,-80.7364 907,-71.887 907,-63.5153"/>
<polygon fill="#000000" stroke="#000000" points="910.5001,-63.2484 907,-53.2485 903.5001,-63.2485 910.5001,-63.2484"/>
</g>
<!-- 14 -->
<g id="node15" class="node">
<title>14</title>
<path fill="#ffffff" stroke="#000000" d="M1099.5,-53C1099.5,-53 998.5,-53 998.5,-53 992.5,-53 986.5,-47 986.5,-41 986.5,-41 986.5,-12 986.5,-12 986.5,-6 992.5,0 998.5,0 998.5,0 1099.5,0 1099.5,0 1105.5,0 1111.5,-6 1111.5,-12 1111.5,-12 1111.5,-41 1111.5,-41 1111.5,-47 1105.5,-53 1099.5,-53"/>
<text text-anchor="start" x="1002.5" y="-37.8" font-family="Helvetica,sans-Serif" font-size="14.00" fill="#000000">mse = 0.009</text>
<text text-anchor="start" x="994.5" y="-22.8" font-family="Helvetica,sans-Serif" font-size="14.00" fill="#000000">samples = 156</text>
<text text-anchor="start" x="996" y="-7.8" font-family="Helvetica,sans-Serif" font-size="14.00" fill="#000000">value = &#45;0.233</text>
</g>
<!-- 12&#45;&gt;14 -->
<g id="edge14" class="edge">
<title>12&#45;&gt;14</title>
<path fill="none" stroke="#000000" d="M957.0639,-88.9777C971.3469,-79.2713 986.8713,-68.7213 1001.0263,-59.1018"/>
<polygon fill="#000000" stroke="#000000" points="1003.3359,-61.764 1009.6395,-53.2485 999.4014,-55.9744 1003.3359,-61.764"/>
</g>
</g>
</svg>
