<?xml version="1.0" encoding="UTF-8" standalone="no"?>
<!DOCTYPE svg PUBLIC "-//W3C//DTD SVG 1.1//EN"
 "http://www.w3.org/Graphics/SVG/1.1/DTD/svg11.dtd">
<!-- Generated by graphviz version 2.40.1 (20161225.0304)
 -->
<!-- Title: Tree Pages: 1 -->
<svg width="1108pt" height="373pt"
 viewBox="0.00 0.00 1107.50 373.00" xmlns="http://www.w3.org/2000/svg" xmlns:xlink="http://www.w3.org/1999/xlink">
<g id="graph0" class="graph" transform="scale(1 1) rotate(0) translate(4 369)">
<title>Tree</title>
<polygon fill="#ffffff" stroke="transparent" points="-4,4 -4,-369 1103.5,-369 1103.5,4 -4,4"/>
<!-- 0 -->
<g id="node1" class="node">
<title>0</title>
<path fill="#efaf82" stroke="#000000" d="M600,-365C600,-365 490,-365 490,-365 484,-365 478,-359 478,-353 478,-353 478,-309 478,-309 478,-303 484,-297 490,-297 490,-297 600,-297 600,-297 606,-297 612,-303 612,-309 612,-309 612,-353 612,-353 612,-359 606,-365 600,-365"/>
<text text-anchor="start" x="509" y="-349.8" font-family="Helvetica,sans-Serif" font-size="14.00" fill="#000000">X1 ≤ 0.63</text>
<text text-anchor="start" x="498.5" y="-334.8" font-family="Helvetica,sans-Serif" font-size="14.00" fill="#000000">mse = 0.034</text>
<text text-anchor="start" x="486" y="-319.8" font-family="Helvetica,sans-Serif" font-size="14.00" fill="#000000">samples = 1000</text>
<text text-anchor="start" x="494.5" y="-304.8" font-family="Helvetica,sans-Serif" font-size="14.00" fill="#000000">value = 0.025</text>
</g>
<!-- 1 -->
<g id="node2" class="node">
<title>1</title>
<path fill="#e88d4d" stroke="#000000" d="M453.5,-261C453.5,-261 352.5,-261 352.5,-261 346.5,-261 340.5,-255 340.5,-249 340.5,-249 340.5,-205 340.5,-205 340.5,-199 346.5,-193 352.5,-193 352.5,-193 453.5,-193 453.5,-193 459.5,-193 465.5,-199 465.5,-205 465.5,-205 465.5,-249 465.5,-249 465.5,-255 459.5,-261 453.5,-261"/>
<text text-anchor="start" x="362.5" y="-245.8" font-family="Helvetica,sans-Serif" font-size="14.00" fill="#000000">X1 ≤ 0.071</text>
<text text-anchor="start" x="356.5" y="-230.8" font-family="Helvetica,sans-Serif" font-size="14.00" fill="#000000">mse = 0.016</text>
<text text-anchor="start" x="348.5" y="-215.8" font-family="Helvetica,sans-Serif" font-size="14.00" fill="#000000">samples = 619</text>
<text text-anchor="start" x="352.5" y="-200.8" font-family="Helvetica,sans-Serif" font-size="14.00" fill="#000000">value = 0.131</text>
</g>
<!-- 0&#45;&gt;1 -->
<g id="edge1" class="edge">
<title>0&#45;&gt;1</title>
<path fill="none" stroke="#000000" d="M498.5039,-296.9465C485.5092,-287.4293 471.2663,-276.9978 457.8379,-267.163"/>
<polygon fill="#000000" stroke="#000000" points="459.7363,-264.2151 449.6006,-261.13 455.6002,-269.8624 459.7363,-264.2151"/>
<text text-anchor="middle" x="453.4171" y="-282.137" font-family="Helvetica,sans-Serif" font-size="14.00" fill="#000000">True</text>
</g>
<!-- 8 -->
<g id="node9" class="node">
<title>8</title>
<path fill="#fae6d8" stroke="#000000" d="M736.5,-261C736.5,-261 635.5,-261 635.5,-261 629.5,-261 623.5,-255 623.5,-249 623.5,-249 623.5,-205 623.5,-205 623.5,-199 629.5,-193 635.5,-193 635.5,-193 736.5,-193 736.5,-193 742.5,-193 748.5,-199 748.5,-205 748.5,-205 748.5,-249 748.5,-249 748.5,-255 742.5,-261 736.5,-261"/>
<text text-anchor="start" x="645.5" y="-245.8" font-family="Helvetica,sans-Serif" font-size="14.00" fill="#000000">X1 ≤ 0.789</text>
<text text-anchor="start" x="639.5" y="-230.8" font-family="Helvetica,sans-Serif" font-size="14.00" fill="#000000">mse = 0.017</text>
<text text-anchor="start" x="631.5" y="-215.8" font-family="Helvetica,sans-Serif" font-size="14.00" fill="#000000">samples = 381</text>
<text text-anchor="start" x="633" y="-200.8" font-family="Helvetica,sans-Serif" font-size="14.00" fill="#000000">value = &#45;0.147</text>
</g>
<!-- 0&#45;&gt;8 -->
<g id="edge8" class="edge">
<title>0&#45;&gt;8</title>
<path fill="none" stroke="#000000" d="M591.1687,-296.9465C604.0719,-287.4293 618.2145,-276.9978 631.5483,-267.163"/>
<polygon fill="#000000" stroke="#000000" points="633.7575,-269.8826 639.7276,-261.13 629.6023,-264.2492 633.7575,-269.8826"/>
<text text-anchor="middle" x="635.9944" y="-282.1497" font-family="Helvetica,sans-Serif" font-size="14.00" fill="#000000">False</text>
</g>
<!-- 2 -->
<g id="node3" class="node">
<title>2</title>
<path fill="#efaf82" stroke="#000000" d="M239.5,-157C239.5,-157 146.5,-157 146.5,-157 140.5,-157 134.5,-151 134.5,-145 134.5,-145 134.5,-101 134.5,-101 134.5,-95 140.5,-89 146.5,-89 146.5,-89 239.5,-89 239.5,-89 245.5,-89 251.5,-95 251.5,-101 251.5,-101 251.5,-145 251.5,-145 251.5,-151 245.5,-157 239.5,-157"/>
<text text-anchor="start" x="152.5" y="-141.8" font-family="Helvetica,sans-Serif" font-size="14.00" fill="#000000">X1 ≤ 0.034</text>
<text text-anchor="start" x="146.5" y="-126.8" font-family="Helvetica,sans-Serif" font-size="14.00" fill="#000000">mse = 0.009</text>
<text text-anchor="start" x="143" y="-111.8" font-family="Helvetica,sans-Serif" font-size="14.00" fill="#000000">samples = 79</text>
<text text-anchor="start" x="142.5" y="-96.8" font-family="Helvetica,sans-Serif" font-size="14.00" fill="#000000">value = 0.026</text>
</g>
<!-- 1&#45;&gt;2 -->
<g id="edge2" class="edge">
<title>1&#45;&gt;2</title>
<path fill="none" stroke="#000000" d="M340.2775,-195.9374C315.305,-183.5701 286.5023,-169.3059 261.0279,-156.69"/>
<polygon fill="#000000" stroke="#000000" points="262.3211,-153.4248 251.8065,-152.1232 259.2145,-159.6977 262.3211,-153.4248"/>
</g>
<!-- 5 -->
<g id="node6" class="node">
<title>5</title>
<path fill="#e78845" stroke="#000000" d="M453.5,-157C453.5,-157 352.5,-157 352.5,-157 346.5,-157 340.5,-151 340.5,-145 340.5,-145 340.5,-101 340.5,-101 340.5,-95 346.5,-89 352.5,-89 352.5,-89 453.5,-89 453.5,-89 459.5,-89 465.5,-95 465.5,-101 465.5,-101 465.5,-145 465.5,-145 465.5,-151 459.5,-157 453.5,-157"/>
<text text-anchor="start" x="362.5" y="-141.8" font-family="Helvetica,sans-Serif" font-size="14.00" fill="#000000">X1 ≤ 0.526</text>
<text text-anchor="start" x="356.5" y="-126.8" font-family="Helvetica,sans-Serif" font-size="14.00" fill="#000000">mse = 0.015</text>
<text text-anchor="start" x="348.5" y="-111.8" font-family="Helvetica,sans-Serif" font-size="14.00" fill="#000000">samples = 540</text>
<text text-anchor="start" x="352.5" y="-96.8" font-family="Helvetica,sans-Serif" font-size="14.00" fill="#000000">value = 0.147</text>
</g>
<!-- 1&#45;&gt;5 -->
<g id="edge5" class="edge">
<title>1&#45;&gt;5</title>
<path fill="none" stroke="#000000" d="M403,-192.9465C403,-184.776 403,-175.9318 403,-167.3697"/>
<polygon fill="#000000" stroke="#000000" points="406.5001,-167.13 403,-157.13 399.5001,-167.13 406.5001,-167.13"/>
</g>
<!-- 3 -->
<g id="node4" class="node">
<title>3</title>
<path fill="#f0b78f" stroke="#000000" d="M104,-53C104,-53 12,-53 12,-53 6,-53 0,-47 0,-41 0,-41 0,-12 0,-12 0,-6 6,0 12,0 12,0 104,0 104,0 110,0 116,-6 116,-12 116,-12 116,-41 116,-41 116,-47 110,-53 104,-53"/>
<text text-anchor="start" x="11.5" y="-37.8" font-family="Helvetica,sans-Serif" font-size="14.00" fill="#000000">mse = 0.008</text>
<text text-anchor="start" x="8" y="-22.8" font-family="Helvetica,sans-Serif" font-size="14.00" fill="#000000">samples = 41</text>
<text text-anchor="start" x="14" y="-7.8" font-family="Helvetica,sans-Serif" font-size="14.00" fill="#000000">value = &#45;0.0</text>
</g>
<!-- 2&#45;&gt;3 -->
<g id="edge3" class="edge">
<title>2&#45;&gt;3</title>
<path fill="none" stroke="#000000" d="M145.4041,-88.9777C131.8252,-79.2713 117.0661,-68.7213 103.6088,-59.1018"/>
<polygon fill="#000000" stroke="#000000" points="105.5908,-56.2164 95.4202,-53.2485 101.5201,-61.9111 105.5908,-56.2164"/>
</g>
<!-- 4 -->
<g id="node5" class="node">
<title>4</title>
<path fill="#eda674" stroke="#000000" d="M239.5,-53C239.5,-53 146.5,-53 146.5,-53 140.5,-53 134.5,-47 134.5,-41 134.5,-41 134.5,-12 134.5,-12 134.5,-6 140.5,0 146.5,0 146.5,0 239.5,0 239.5,0 245.5,0 251.5,-6 251.5,-12 251.5,-12 251.5,-41 251.5,-41 251.5,-47 245.5,-53 239.5,-53"/>
<text text-anchor="start" x="146.5" y="-37.8" font-family="Helvetica,sans-Serif" font-size="14.00" fill="#000000">mse = 0.009</text>
<text text-anchor="start" x="143" y="-22.8" font-family="Helvetica,sans-Serif" font-size="14.00" fill="#000000">samples = 38</text>
<text text-anchor="start" x="142.5" y="-7.8" font-family="Helvetica,sans-Serif" font-size="14.00" fill="#000000">value = 0.053</text>
</g>
<!-- 2&#45;&gt;4 -->
<g id="edge4" class="edge">
<title>2&#45;&gt;4</title>
<path fill="none" stroke="#000000" d="M193,-88.9777C193,-80.7364 193,-71.887 193,-63.5153"/>
<polygon fill="#000000" stroke="#000000" points="196.5001,-63.2484 193,-53.2485 189.5001,-63.2485 196.5001,-63.2484"/>
</g>
<!-- 6 -->
<g id="node7" class="node">
<title>6</title>
<path fill="#e58139" stroke="#000000" d="M382.5,-53C382.5,-53 281.5,-53 281.5,-53 275.5,-53 269.5,-47 269.5,-41 269.5,-41 269.5,-12 269.5,-12 269.5,-6 275.5,0 281.5,0 281.5,0 382.5,0 382.5,0 388.5,0 394.5,-6 394.5,-12 394.5,-12 394.5,-41 394.5,-41 394.5,-47 388.5,-53 382.5,-53"/>
<text text-anchor="start" x="285.5" y="-37.8" font-family="Helvetica,sans-Serif" font-size="14.00" fill="#000000">mse = 0.012</text>
<text text-anchor="start" x="277.5" y="-22.8" font-family="Helvetica,sans-Serif" font-size="14.00" fill="#000000">samples = 428</text>
<text text-anchor="start" x="286" y="-7.8" font-family="Helvetica,sans-Serif" font-size="14.00" fill="#000000">value = 0.17</text>
</g>
<!-- 5&#45;&gt;6 -->
<g id="edge6" class="edge">
<title>5&#45;&gt;6</title>
<path fill="none" stroke="#000000" d="M377.9681,-88.9777C371.4329,-80.0954 364.378,-70.5067 357.8036,-61.5711"/>
<polygon fill="#000000" stroke="#000000" points="360.4257,-59.229 351.6802,-53.2485 354.7874,-63.3775 360.4257,-59.229"/>
</g>
<!-- 7 -->
<g id="node8" class="node">
<title>7</title>
<path fill="#eca572" stroke="#000000" d="M525.5,-53C525.5,-53 424.5,-53 424.5,-53 418.5,-53 412.5,-47 412.5,-41 412.5,-41 412.5,-12 412.5,-12 412.5,-6 418.5,0 424.5,0 424.5,0 525.5,0 525.5,0 531.5,0 537.5,-6 537.5,-12 537.5,-12 537.5,-41 537.5,-41 537.5,-47 531.5,-53 525.5,-53"/>
<text text-anchor="start" x="428.5" y="-37.8" font-family="Helvetica,sans-Serif" font-size="14.00" fill="#000000">mse = 0.013</text>
<text text-anchor="start" x="420.5" y="-22.8" font-family="Helvetica,sans-Serif" font-size="14.00" fill="#000000">samples = 112</text>
<text text-anchor="start" x="424.5" y="-7.8" font-family="Helvetica,sans-Serif" font-size="14.00" fill="#000000">value = 0.057</text>
</g>
<!-- 5&#45;&gt;7 -->
<g id="edge7" class="edge">
<title>5&#45;&gt;7</title>
<path fill="none" stroke="#000000" d="M428.3845,-88.9777C435.08,-80.0039 442.3135,-70.3089 449.039,-61.295"/>
<polygon fill="#000000" stroke="#000000" points="451.8677,-63.3565 455.0426,-53.2485 446.2573,-59.1704 451.8677,-63.3565"/>
</g>
<!-- 9 -->
<g id="node10" class="node">
<title>9</title>
<path fill="#f5cfb3" stroke="#000000" d="M736.5,-157C736.5,-157 635.5,-157 635.5,-157 629.5,-157 623.5,-151 623.5,-145 623.5,-145 623.5,-101 623.5,-101 623.5,-95 629.5,-89 635.5,-89 635.5,-89 736.5,-89 736.5,-89 742.5,-89 748.5,-95 748.5,-101 748.5,-101 748.5,-145 748.5,-145 748.5,-151 742.5,-157 736.5,-157"/>
<text text-anchor="start" x="645.5" y="-141.8" font-family="Helvetica,sans-Serif" font-size="14.00" fill="#000000">X2 ≤ 0.286</text>
<text text-anchor="start" x="639.5" y="-126.8" font-family="Helvetica,sans-Serif" font-size="14.00" fill="#000000">mse = 0.011</text>
<text text-anchor="start" x="631.5" y="-111.8" font-family="Helvetica,sans-Serif" font-size="14.00" fill="#000000">samples = 158</text>
<text text-anchor="start" x="633" y="-96.8" font-family="Helvetica,sans-Serif" font-size="14.00" fill="#000000">value = &#45;0.073</text>
</g>
<!-- 8&#45;&gt;9 -->
<g id="edge9" class="edge">
<title>8&#45;&gt;9</title>
<path fill="none" stroke="#000000" d="M686,-192.9465C686,-184.776 686,-175.9318 686,-167.3697"/>
<polygon fill="#000000" stroke="#000000" points="689.5001,-167.13 686,-157.13 682.5001,-167.13 689.5001,-167.13"/>
</g>
<!-- 12 -->
<g id="node13" class="node">
<title>12</title>
<path fill="#fdf7f3" stroke="#000000" d="M948.5,-157C948.5,-157 847.5,-157 847.5,-157 841.5,-157 835.5,-151 835.5,-145 835.5,-145 835.5,-101 835.5,-101 835.5,-95 841.5,-89 847.5,-89 847.5,-89 948.5,-89 948.5,-89 954.5,-89 960.5,-95 960.5,-101 960.5,-101 960.5,-145 960.5,-145 960.5,-151 954.5,-157 948.5,-157"/>
<text text-anchor="start" x="862" y="-141.8" font-family="Helvetica,sans-Serif" font-size="14.00" fill="#000000">X2 ≤ 0.22</text>
<text text-anchor="start" x="851.5" y="-126.8" font-family="Helvetica,sans-Serif" font-size="14.00" fill="#000000">mse = 0.014</text>
<text text-anchor="start" x="843.5" y="-111.8" font-family="Helvetica,sans-Serif" font-size="14.00" fill="#000000">samples = 223</text>
<text text-anchor="start" x="854" y="-96.8" font-family="Helvetica,sans-Serif" font-size="14.00" fill="#000000">value = &#45;0.2</text>
</g>
<!-- 8&#45;&gt;12 -->
<g id="edge12" class="edge">
<title>8&#45;&gt;12</title>
<path fill="none" stroke="#000000" d="M748.7465,-196.2187C773.1049,-184.2693 801.1414,-170.5156 826.2914,-158.1778"/>
<polygon fill="#000000" stroke="#000000" points="827.9781,-161.2489 835.4145,-153.7023 824.8951,-154.9644 827.9781,-161.2489"/>
</g>
<!-- 10 -->
<g id="node11" class="node">
<title>10</title>
<path fill="#f1b992" stroke="#000000" d="M666,-53C666,-53 568,-53 568,-53 562,-53 556,-47 556,-41 556,-41 556,-12 556,-12 556,-6 562,0 568,0 568,0 666,0 666,0 672,0 678,-6 678,-12 678,-12 678,-41 678,-41 678,-47 672,-53 666,-53"/>
<text text-anchor="start" x="570.5" y="-37.8" font-family="Helvetica,sans-Serif" font-size="14.00" fill="#000000">mse = 0.009</text>
<text text-anchor="start" x="567" y="-22.8" font-family="Helvetica,sans-Serif" font-size="14.00" fill="#000000">samples = 44</text>
<text text-anchor="start" x="564" y="-7.8" font-family="Helvetica,sans-Serif" font-size="14.00" fill="#000000">value = &#45;0.007</text>
</g>
<!-- 9&#45;&gt;10 -->
<g id="edge10" class="edge">
<title>9&#45;&gt;10</title>
<path fill="none" stroke="#000000" d="M661.6732,-88.9777C655.3221,-80.0954 648.466,-70.5067 642.0768,-61.5711"/>
<polygon fill="#000000" stroke="#000000" points="644.7893,-59.3472 636.1259,-53.2485 639.0952,-63.4187 644.7893,-59.3472"/>
</g>
<!-- 11 -->
<g id="node12" class="node">
<title>11</title>
<path fill="#f7d7c0" stroke="#000000" d="M809.5,-53C809.5,-53 708.5,-53 708.5,-53 702.5,-53 696.5,-47 696.5,-41 696.5,-41 696.5,-12 696.5,-12 696.5,-6 702.5,0 708.5,0 708.5,0 809.5,0 809.5,0 815.5,0 821.5,-6 821.5,-12 821.5,-12 821.5,-41 821.5,-41 821.5,-47 815.5,-53 809.5,-53"/>
<text text-anchor="start" x="712.5" y="-37.8" font-family="Helvetica,sans-Serif" font-size="14.00" fill="#000000">mse = 0.009</text>
<text text-anchor="start" x="704.5" y="-22.8" font-family="Helvetica,sans-Serif" font-size="14.00" fill="#000000">samples = 114</text>
<text text-anchor="start" x="706" y="-7.8" font-family="Helvetica,sans-Serif" font-size="14.00" fill="#000000">value = &#45;0.099</text>
</g>
<!-- 9&#45;&gt;11 -->
<g id="edge11" class="edge">
<title>9&#45;&gt;11</title>
<path fill="none" stroke="#000000" d="M711.7371,-88.9777C718.5256,-80.0039 725.8596,-70.3089 732.6784,-61.295"/>
<polygon fill="#000000" stroke="#000000" points="735.5237,-63.3352 738.7654,-53.2485 729.941,-59.1121 735.5237,-63.3352"/>
</g>
<!-- 13 -->
<g id="node14" class="node">
<title>13</title>
<path fill="#f6d4bb" stroke="#000000" d="M944,-53C944,-53 852,-53 852,-53 846,-53 840,-47 840,-41 840,-41 840,-12 840,-12 840,-6 846,0 852,0 852,0 944,0 944,0 950,0 956,-6 956,-12 956,-12 956,-41 956,-41 956,-47 950,-53 944,-53"/>
<text text-anchor="start" x="856" y="-37.8" font-family="Helvetica,sans-Serif" font-size="14.00" fill="#000000">mse = 0.01</text>
<text text-anchor="start" x="848" y="-22.8" font-family="Helvetica,sans-Serif" font-size="14.00" fill="#000000">samples = 41</text>
<text text-anchor="start" x="849.5" y="-7.8" font-family="Helvetica,sans-Serif" font-size="14.00" fill="#000000">value = &#45;0.09</text>
</g>
<!-- 12&#45;&gt;13 -->
<g id="edge13" class="edge">
<title>12&#45;&gt;13</title>
<path fill="none" stroke="#000000" d="M898,-88.9777C898,-80.7364 898,-71.887 898,-63.5153"/>
<polygon fill="#000000" stroke="#000000" points="901.5001,-63.2484 898,-53.2485 894.5001,-63.2485 901.5001,-63.2484"/>
</g>
<!-- 14 -->
<g id="node15" class="node">
<title>14</title>
<path fill="#ffffff" stroke="#000000" d="M1087.5,-53C1087.5,-53 986.5,-53 986.5,-53 980.5,-53 974.5,-47 974.5,-41 974.5,-41 974.5,-12 974.5,-12 974.5,-6 980.5,0 986.5,0 986.5,0 1087.5,0 1087.5,0 1093.5,0 1099.5,-6 1099.5,-12 1099.5,-12 1099.5,-41 1099.5,-41 1099.5,-47 1093.5,-53 1087.5,-53"/>
<text text-anchor="start" x="990.5" y="-37.8" font-family="Helvetica,sans-Serif" font-size="14.00" fill="#000000">mse = 0.012</text>
<text text-anchor="start" x="982.5" y="-22.8" font-family="Helvetica,sans-Serif" font-size="14.00" fill="#000000">samples = 182</text>
<text text-anchor="start" x="984" y="-7.8" font-family="Helvetica,sans-Serif" font-size="14.00" fill="#000000">value = &#45;0.224</text>
</g>
<!-- 12&#45;&gt;14 -->
<g id="edge14" class="edge">
<title>12&#45;&gt;14</title>
<path fill="none" stroke="#000000" d="M947.0062,-88.9777C960.9874,-79.2713 976.1838,-68.7213 990.0398,-59.1018"/>
<polygon fill="#000000" stroke="#000000" points="992.2526,-61.8264 998.4711,-53.2485 988.2606,-56.0763 992.2526,-61.8264"/>
</g>
</g>
</svg>
