<?xml version="1.0" encoding="UTF-8" standalone="no"?>
<!DOCTYPE svg PUBLIC "-//W3C//DTD SVG 1.1//EN"
 "http://www.w3.org/Graphics/SVG/1.1/DTD/svg11.dtd">
<!-- Generated by graphviz version 2.40.1 (20161225.0304)
 -->
<!-- Title: Tree Pages: 1 -->
<svg width="1105pt" height="373pt"
 viewBox="0.00 0.00 1105.00 373.00" xmlns="http://www.w3.org/2000/svg" xmlns:xlink="http://www.w3.org/1999/xlink">
<g id="graph0" class="graph" transform="scale(1 1) rotate(0) translate(4 369)">
<title>Tree</title>
<polygon fill="#ffffff" stroke="transparent" points="-4,4 -4,-369 1101,-369 1101,4 -4,4"/>
<!-- 0 -->
<g id="node1" class="node">
<title>0</title>
<path fill="#f0b78e" stroke="#000000" d="M597.5,-365C597.5,-365 487.5,-365 487.5,-365 481.5,-365 475.5,-359 475.5,-353 475.5,-353 475.5,-309 475.5,-309 475.5,-303 481.5,-297 487.5,-297 487.5,-297 597.5,-297 597.5,-297 603.5,-297 609.5,-303 609.5,-309 609.5,-309 609.5,-353 609.5,-353 609.5,-359 603.5,-365 597.5,-365"/>
<text text-anchor="start" x="502" y="-349.8" font-family="Helvetica,sans-Serif" font-size="14.00" fill="#000000">X1 ≤ 0.564</text>
<text text-anchor="start" x="496" y="-334.8" font-family="Helvetica,sans-Serif" font-size="14.00" fill="#000000">mse = 0.034</text>
<text text-anchor="start" x="483.5" y="-319.8" font-family="Helvetica,sans-Serif" font-size="14.00" fill="#000000">samples = 1000</text>
<text text-anchor="start" x="492" y="-304.8" font-family="Helvetica,sans-Serif" font-size="14.00" fill="#000000">value = 0.026</text>
</g>
<!-- 1 -->
<g id="node2" class="node">
<title>1</title>
<path fill="#e99355" stroke="#000000" d="M454,-261C454,-261 353,-261 353,-261 347,-261 341,-255 341,-249 341,-249 341,-205 341,-205 341,-199 347,-193 353,-193 353,-193 454,-193 454,-193 460,-193 466,-199 466,-205 466,-205 466,-249 466,-249 466,-255 460,-261 454,-261"/>
<text text-anchor="start" x="367.5" y="-245.8" font-family="Helvetica,sans-Serif" font-size="14.00" fill="#000000">X1 ≤ 0.11</text>
<text text-anchor="start" x="357" y="-230.8" font-family="Helvetica,sans-Serif" font-size="14.00" fill="#000000">mse = 0.015</text>
<text text-anchor="start" x="349" y="-215.8" font-family="Helvetica,sans-Serif" font-size="14.00" fill="#000000">samples = 550</text>
<text text-anchor="start" x="353" y="-200.8" font-family="Helvetica,sans-Serif" font-size="14.00" fill="#000000">value = 0.146</text>
</g>
<!-- 0&#45;&gt;1 -->
<g id="edge1" class="edge">
<title>0&#45;&gt;1</title>
<path fill="none" stroke="#000000" d="M496.9862,-296.9465C484.266,-287.4293 470.324,-276.9978 457.1794,-267.163"/>
<polygon fill="#000000" stroke="#000000" points="459.2198,-264.3184 449.1161,-261.13 455.0262,-269.9232 459.2198,-264.3184"/>
<text text-anchor="middle" x="452.6801" y="-282.1746" font-family="Helvetica,sans-Serif" font-size="14.00" fill="#000000">True</text>
</g>
<!-- 8 -->
<g id="node9" class="node">
<title>8</title>
<path fill="#f9e4d5" stroke="#000000" d="M732,-261C732,-261 631,-261 631,-261 625,-261 619,-255 619,-249 619,-249 619,-205 619,-205 619,-199 625,-193 631,-193 631,-193 732,-193 732,-193 738,-193 744,-199 744,-205 744,-205 744,-249 744,-249 744,-255 738,-261 732,-261"/>
<text text-anchor="start" x="641" y="-245.8" font-family="Helvetica,sans-Serif" font-size="14.00" fill="#000000">X1 ≤ 0.752</text>
<text text-anchor="start" x="635" y="-230.8" font-family="Helvetica,sans-Serif" font-size="14.00" fill="#000000">mse = 0.018</text>
<text text-anchor="start" x="627" y="-215.8" font-family="Helvetica,sans-Serif" font-size="14.00" fill="#000000">samples = 450</text>
<text text-anchor="start" x="633" y="-200.8" font-family="Helvetica,sans-Serif" font-size="14.00" fill="#000000">value = &#45;0.12</text>
</g>
<!-- 0&#45;&gt;8 -->
<g id="edge8" class="edge">
<title>0&#45;&gt;8</title>
<path fill="none" stroke="#000000" d="M588.0138,-296.9465C600.734,-287.4293 614.676,-276.9978 627.8206,-267.163"/>
<polygon fill="#000000" stroke="#000000" points="629.9738,-269.9232 635.8839,-261.13 625.7802,-264.3184 629.9738,-269.9232"/>
<text text-anchor="middle" x="632.3199" y="-282.1746" font-family="Helvetica,sans-Serif" font-size="14.00" fill="#000000">False</text>
</g>
<!-- 2 -->
<g id="node3" class="node">
<title>2</title>
<path fill="#efb286" stroke="#000000" d="M244,-157C244,-157 143,-157 143,-157 137,-157 131,-151 131,-145 131,-145 131,-101 131,-101 131,-95 137,-89 143,-89 143,-89 244,-89 244,-89 250,-89 256,-95 256,-101 256,-101 256,-145 256,-145 256,-151 250,-157 244,-157"/>
<text text-anchor="start" x="153" y="-141.8" font-family="Helvetica,sans-Serif" font-size="14.00" fill="#000000">X1 ≤ 0.061</text>
<text text-anchor="start" x="147" y="-126.8" font-family="Helvetica,sans-Serif" font-size="14.00" fill="#000000">mse = 0.008</text>
<text text-anchor="start" x="139" y="-111.8" font-family="Helvetica,sans-Serif" font-size="14.00" fill="#000000">samples = 111</text>
<text text-anchor="start" x="143" y="-96.8" font-family="Helvetica,sans-Serif" font-size="14.00" fill="#000000">value = 0.043</text>
</g>
<!-- 1&#45;&gt;2 -->
<g id="edge2" class="edge">
<title>1&#45;&gt;2</title>
<path fill="none" stroke="#000000" d="M340.7775,-195.9374C317.0934,-184.2081 289.964,-170.7727 265.4963,-158.6553"/>
<polygon fill="#000000" stroke="#000000" points="266.7765,-155.3837 256.2619,-154.0821 263.6699,-161.6566 266.7765,-155.3837"/>
</g>
<!-- 5 -->
<g id="node6" class="node">
<title>5</title>
<path fill="#e78b48" stroke="#000000" d="M454,-157C454,-157 353,-157 353,-157 347,-157 341,-151 341,-145 341,-145 341,-101 341,-101 341,-95 347,-89 353,-89 353,-89 454,-89 454,-89 460,-89 466,-95 466,-101 466,-101 466,-145 466,-145 466,-151 460,-157 454,-157"/>
<text text-anchor="start" x="363" y="-141.8" font-family="Helvetica,sans-Serif" font-size="14.00" fill="#000000">X2 ≤ 0.301</text>
<text text-anchor="start" x="357" y="-126.8" font-family="Helvetica,sans-Serif" font-size="14.00" fill="#000000">mse = 0.014</text>
<text text-anchor="start" x="349" y="-111.8" font-family="Helvetica,sans-Serif" font-size="14.00" fill="#000000">samples = 439</text>
<text text-anchor="start" x="353" y="-96.8" font-family="Helvetica,sans-Serif" font-size="14.00" fill="#000000">value = 0.172</text>
</g>
<!-- 1&#45;&gt;5 -->
<g id="edge5" class="edge">
<title>1&#45;&gt;5</title>
<path fill="none" stroke="#000000" d="M403.5,-192.9465C403.5,-184.776 403.5,-175.9318 403.5,-167.3697"/>
<polygon fill="#000000" stroke="#000000" points="407.0001,-167.13 403.5,-157.13 400.0001,-167.13 407.0001,-167.13"/>
</g>
<!-- 3 -->
<g id="node4" class="node">
<title>3</title>
<path fill="#f0b88f" stroke="#000000" d="M105,-53C105,-53 12,-53 12,-53 6,-53 0,-47 0,-41 0,-41 0,-12 0,-12 0,-6 6,0 12,0 12,0 105,0 105,0 111,0 117,-6 117,-12 117,-12 117,-41 117,-41 117,-47 111,-53 105,-53"/>
<text text-anchor="start" x="12" y="-37.8" font-family="Helvetica,sans-Serif" font-size="14.00" fill="#000000">mse = 0.006</text>
<text text-anchor="start" x="8.5" y="-22.8" font-family="Helvetica,sans-Serif" font-size="14.00" fill="#000000">samples = 62</text>
<text text-anchor="start" x="8" y="-7.8" font-family="Helvetica,sans-Serif" font-size="14.00" fill="#000000">value = 0.024</text>
</g>
<!-- 2&#45;&gt;3 -->
<g id="edge3" class="edge">
<title>2&#45;&gt;3</title>
<path fill="none" stroke="#000000" d="M145.9041,-88.9777C132.3252,-79.2713 117.5661,-68.7213 104.1088,-59.1018"/>
<polygon fill="#000000" stroke="#000000" points="106.0908,-56.2164 95.9202,-53.2485 102.0201,-61.9111 106.0908,-56.2164"/>
</g>
<!-- 4 -->
<g id="node5" class="node">
<title>4</title>
<path fill="#eeab7b" stroke="#000000" d="M240,-53C240,-53 147,-53 147,-53 141,-53 135,-47 135,-41 135,-41 135,-12 135,-12 135,-6 141,0 147,0 147,0 240,0 240,0 246,0 252,-6 252,-12 252,-12 252,-41 252,-41 252,-47 246,-53 240,-53"/>
<text text-anchor="start" x="147" y="-37.8" font-family="Helvetica,sans-Serif" font-size="14.00" fill="#000000">mse = 0.009</text>
<text text-anchor="start" x="143.5" y="-22.8" font-family="Helvetica,sans-Serif" font-size="14.00" fill="#000000">samples = 49</text>
<text text-anchor="start" x="143" y="-7.8" font-family="Helvetica,sans-Serif" font-size="14.00" fill="#000000">value = 0.066</text>
</g>
<!-- 2&#45;&gt;4 -->
<g id="edge4" class="edge">
<title>2&#45;&gt;4</title>
<path fill="none" stroke="#000000" d="M193.5,-88.9777C193.5,-80.7364 193.5,-71.887 193.5,-63.5153"/>
<polygon fill="#000000" stroke="#000000" points="197.0001,-63.2484 193.5,-53.2485 190.0001,-63.2485 197.0001,-63.2484"/>
</g>
<!-- 6 -->
<g id="node7" class="node">
<title>6</title>
<path fill="#eca471" stroke="#000000" d="M383,-53C383,-53 282,-53 282,-53 276,-53 270,-47 270,-41 270,-41 270,-12 270,-12 270,-6 276,0 282,0 282,0 383,0 383,0 389,0 395,-6 395,-12 395,-12 395,-41 395,-41 395,-47 389,-53 383,-53"/>
<text text-anchor="start" x="286" y="-37.8" font-family="Helvetica,sans-Serif" font-size="14.00" fill="#000000">mse = 0.012</text>
<text text-anchor="start" x="278" y="-22.8" font-family="Helvetica,sans-Serif" font-size="14.00" fill="#000000">samples = 120</text>
<text text-anchor="start" x="282" y="-7.8" font-family="Helvetica,sans-Serif" font-size="14.00" fill="#000000">value = 0.088</text>
</g>
<!-- 5&#45;&gt;6 -->
<g id="edge6" class="edge">
<title>5&#45;&gt;6</title>
<path fill="none" stroke="#000000" d="M378.4681,-88.9777C371.9329,-80.0954 364.878,-70.5067 358.3036,-61.5711"/>
<polygon fill="#000000" stroke="#000000" points="360.9257,-59.229 352.1802,-53.2485 355.2874,-63.3775 360.9257,-59.229"/>
</g>
<!-- 7 -->
<g id="node8" class="node">
<title>7</title>
<path fill="#e58139" stroke="#000000" d="M526,-53C526,-53 425,-53 425,-53 419,-53 413,-47 413,-41 413,-41 413,-12 413,-12 413,-6 419,0 425,0 425,0 526,0 526,0 532,0 538,-6 538,-12 538,-12 538,-41 538,-41 538,-47 532,-53 526,-53"/>
<text text-anchor="start" x="429" y="-37.8" font-family="Helvetica,sans-Serif" font-size="14.00" fill="#000000">mse = 0.011</text>
<text text-anchor="start" x="421" y="-22.8" font-family="Helvetica,sans-Serif" font-size="14.00" fill="#000000">samples = 319</text>
<text text-anchor="start" x="425" y="-7.8" font-family="Helvetica,sans-Serif" font-size="14.00" fill="#000000">value = 0.204</text>
</g>
<!-- 5&#45;&gt;7 -->
<g id="edge7" class="edge">
<title>5&#45;&gt;7</title>
<path fill="none" stroke="#000000" d="M428.8845,-88.9777C435.58,-80.0039 442.8135,-70.3089 449.539,-61.295"/>
<polygon fill="#000000" stroke="#000000" points="452.3677,-63.3565 455.5426,-53.2485 446.7573,-59.1704 452.3677,-63.3565"/>
</g>
<!-- 9 -->
<g id="node10" class="node">
<title>9</title>
<path fill="#f5cdb1" stroke="#000000" d="M732,-157C732,-157 631,-157 631,-157 625,-157 619,-151 619,-145 619,-145 619,-101 619,-101 619,-95 625,-89 631,-89 631,-89 732,-89 732,-89 738,-89 744,-95 744,-101 744,-101 744,-145 744,-145 744,-151 738,-157 732,-157"/>
<text text-anchor="start" x="645.5" y="-141.8" font-family="Helvetica,sans-Serif" font-size="14.00" fill="#000000">X1 ≤ 0.65</text>
<text text-anchor="start" x="635" y="-126.8" font-family="Helvetica,sans-Serif" font-size="14.00" fill="#000000">mse = 0.014</text>
<text text-anchor="start" x="627" y="-111.8" font-family="Helvetica,sans-Serif" font-size="14.00" fill="#000000">samples = 183</text>
<text text-anchor="start" x="628.5" y="-96.8" font-family="Helvetica,sans-Serif" font-size="14.00" fill="#000000">value = &#45;0.045</text>
</g>
<!-- 8&#45;&gt;9 -->
<g id="edge9" class="edge">
<title>8&#45;&gt;9</title>
<path fill="none" stroke="#000000" d="M681.5,-192.9465C681.5,-184.776 681.5,-175.9318 681.5,-167.3697"/>
<polygon fill="#000000" stroke="#000000" points="685.0001,-167.13 681.5,-157.13 678.0001,-167.13 685.0001,-167.13"/>
</g>
<!-- 12 -->
<g id="node13" class="node">
<title>12</title>
<path fill="#fdf4ed" stroke="#000000" d="M943,-157C943,-157 842,-157 842,-157 836,-157 830,-151 830,-145 830,-145 830,-101 830,-101 830,-95 836,-89 842,-89 842,-89 943,-89 943,-89 949,-89 955,-95 955,-101 955,-101 955,-145 955,-145 955,-151 949,-157 943,-157"/>
<text text-anchor="start" x="856.5" y="-141.8" font-family="Helvetica,sans-Serif" font-size="14.00" fill="#000000">X2 ≤ 0.26</text>
<text text-anchor="start" x="846" y="-126.8" font-family="Helvetica,sans-Serif" font-size="14.00" fill="#000000">mse = 0.014</text>
<text text-anchor="start" x="838" y="-111.8" font-family="Helvetica,sans-Serif" font-size="14.00" fill="#000000">samples = 267</text>
<text text-anchor="start" x="839.5" y="-96.8" font-family="Helvetica,sans-Serif" font-size="14.00" fill="#000000">value = &#45;0.172</text>
</g>
<!-- 8&#45;&gt;12 -->
<g id="edge12" class="edge">
<title>8&#45;&gt;12</title>
<path fill="none" stroke="#000000" d="M744.2357,-196.0782C768.2543,-184.2396 795.8326,-170.6465 820.6394,-158.4194"/>
<polygon fill="#000000" stroke="#000000" points="822.2194,-161.5428 829.6417,-153.9823 819.1247,-155.264 822.2194,-161.5428"/>
</g>
<!-- 10 -->
<g id="node11" class="node">
<title>10</title>
<path fill="#f2bf9b" stroke="#000000" d="M661,-53C661,-53 568,-53 568,-53 562,-53 556,-47 556,-41 556,-41 556,-12 556,-12 556,-6 562,0 568,0 568,0 661,0 661,0 667,0 673,-6 673,-12 673,-12 673,-41 673,-41 673,-47 667,-53 661,-53"/>
<text text-anchor="start" x="568" y="-37.8" font-family="Helvetica,sans-Serif" font-size="14.00" fill="#000000">mse = 0.011</text>
<text text-anchor="start" x="564.5" y="-22.8" font-family="Helvetica,sans-Serif" font-size="14.00" fill="#000000">samples = 85</text>
<text text-anchor="start" x="564" y="-7.8" font-family="Helvetica,sans-Serif" font-size="14.00" fill="#000000">value = 0.001</text>
</g>
<!-- 9&#45;&gt;10 -->
<g id="edge10" class="edge">
<title>9&#45;&gt;10</title>
<path fill="none" stroke="#000000" d="M657.8783,-88.9777C651.7113,-80.0954 645.0539,-70.5067 638.8499,-61.5711"/>
<polygon fill="#000000" stroke="#000000" points="641.6497,-59.4666 633.0715,-53.2485 635.8997,-63.4589 641.6497,-59.4666"/>
</g>
<!-- 11 -->
<g id="node12" class="node">
<title>11</title>
<path fill="#f7d9c4" stroke="#000000" d="M801.5,-53C801.5,-53 703.5,-53 703.5,-53 697.5,-53 691.5,-47 691.5,-41 691.5,-41 691.5,-12 691.5,-12 691.5,-6 697.5,0 703.5,0 703.5,0 801.5,0 801.5,0 807.5,0 813.5,-6 813.5,-12 813.5,-12 813.5,-41 813.5,-41 813.5,-47 807.5,-53 801.5,-53"/>
<text text-anchor="start" x="706" y="-37.8" font-family="Helvetica,sans-Serif" font-size="14.00" fill="#000000">mse = 0.013</text>
<text text-anchor="start" x="702.5" y="-22.8" font-family="Helvetica,sans-Serif" font-size="14.00" fill="#000000">samples = 98</text>
<text text-anchor="start" x="699.5" y="-7.8" font-family="Helvetica,sans-Serif" font-size="14.00" fill="#000000">value = &#45;0.085</text>
</g>
<!-- 9&#45;&gt;11 -->
<g id="edge11" class="edge">
<title>9&#45;&gt;11</title>
<path fill="none" stroke="#000000" d="M706.5319,-88.9777C713.0671,-80.0954 720.122,-70.5067 726.6964,-61.5711"/>
<polygon fill="#000000" stroke="#000000" points="729.7126,-63.3775 732.8198,-53.2485 724.0743,-59.229 729.7126,-63.3775"/>
</g>
<!-- 13 -->
<g id="node14" class="node">
<title>13</title>
<path fill="#f7d6bf" stroke="#000000" d="M941.5,-53C941.5,-53 843.5,-53 843.5,-53 837.5,-53 831.5,-47 831.5,-41 831.5,-41 831.5,-12 831.5,-12 831.5,-6 837.5,0 843.5,0 843.5,0 941.5,0 941.5,0 947.5,0 953.5,-6 953.5,-12 953.5,-12 953.5,-41 953.5,-41 953.5,-47 947.5,-53 941.5,-53"/>
<text text-anchor="start" x="850.5" y="-37.8" font-family="Helvetica,sans-Serif" font-size="14.00" fill="#000000">mse = 0.01</text>
<text text-anchor="start" x="842.5" y="-22.8" font-family="Helvetica,sans-Serif" font-size="14.00" fill="#000000">samples = 73</text>
<text text-anchor="start" x="839.5" y="-7.8" font-family="Helvetica,sans-Serif" font-size="14.00" fill="#000000">value = &#45;0.075</text>
</g>
<!-- 12&#45;&gt;13 -->
<g id="edge13" class="edge">
<title>12&#45;&gt;13</title>
<path fill="none" stroke="#000000" d="M892.5,-88.9777C892.5,-80.7364 892.5,-71.887 892.5,-63.5153"/>
<polygon fill="#000000" stroke="#000000" points="896.0001,-63.2484 892.5,-53.2485 889.0001,-63.2485 896.0001,-63.2484"/>
</g>
<!-- 14 -->
<g id="node15" class="node">
<title>14</title>
<path fill="#ffffff" stroke="#000000" d="M1085,-53C1085,-53 984,-53 984,-53 978,-53 972,-47 972,-41 972,-41 972,-12 972,-12 972,-6 978,0 984,0 984,0 1085,0 1085,0 1091,0 1097,-6 1097,-12 1097,-12 1097,-41 1097,-41 1097,-47 1091,-53 1085,-53"/>
<text text-anchor="start" x="988" y="-37.8" font-family="Helvetica,sans-Serif" font-size="14.00" fill="#000000">mse = 0.011</text>
<text text-anchor="start" x="980" y="-22.8" font-family="Helvetica,sans-Serif" font-size="14.00" fill="#000000">samples = 194</text>
<text text-anchor="start" x="981.5" y="-7.8" font-family="Helvetica,sans-Serif" font-size="14.00" fill="#000000">value = &#45;0.208</text>
</g>
<!-- 12&#45;&gt;14 -->
<g id="edge14" class="edge">
<title>12&#45;&gt;14</title>
<path fill="none" stroke="#000000" d="M942.5639,-88.9777C956.8469,-79.2713 972.3713,-68.7213 986.5263,-59.1018"/>
<polygon fill="#000000" stroke="#000000" points="988.8359,-61.764 995.1395,-53.2485 984.9014,-55.9744 988.8359,-61.764"/>
</g>
</g>
</svg>
