<?xml version="1.0" encoding="UTF-8" standalone="no"?>
<!DOCTYPE svg PUBLIC "-//W3C//DTD SVG 1.1//EN"
 "http://www.w3.org/Graphics/SVG/1.1/DTD/svg11.dtd">
<!-- Generated by graphviz version 2.40.1 (20161225.0304)
 -->
<!-- Title: Tree Pages: 1 -->
<svg width="1111pt" height="373pt"
 viewBox="0.00 0.00 1110.50 373.00" xmlns="http://www.w3.org/2000/svg" xmlns:xlink="http://www.w3.org/1999/xlink">
<g id="graph0" class="graph" transform="scale(1 1) rotate(0) translate(4 369)">
<title>Tree</title>
<polygon fill="#ffffff" stroke="transparent" points="-4,4 -4,-369 1106.5,-369 1106.5,4 -4,4"/>
<!-- 0 -->
<g id="node1" class="node">
<title>0</title>
<path fill="#eeab7b" stroke="#000000" d="M599,-365C599,-365 489,-365 489,-365 483,-365 477,-359 477,-353 477,-353 477,-309 477,-309 477,-303 483,-297 489,-297 489,-297 599,-297 599,-297 605,-297 611,-303 611,-309 611,-309 611,-353 611,-353 611,-359 605,-365 599,-365"/>
<text text-anchor="start" x="503.5" y="-349.8" font-family="Helvetica,sans-Serif" font-size="14.00" fill="#000000">X1 ≤ 0.622</text>
<text text-anchor="start" x="497.5" y="-334.8" font-family="Helvetica,sans-Serif" font-size="14.00" fill="#000000">mse = 0.034</text>
<text text-anchor="start" x="485" y="-319.8" font-family="Helvetica,sans-Serif" font-size="14.00" fill="#000000">samples = 1000</text>
<text text-anchor="start" x="493.5" y="-304.8" font-family="Helvetica,sans-Serif" font-size="14.00" fill="#000000">value = 0.034</text>
</g>
<!-- 1 -->
<g id="node2" class="node">
<title>1</title>
<path fill="#e78c4a" stroke="#000000" d="M455.5,-261C455.5,-261 354.5,-261 354.5,-261 348.5,-261 342.5,-255 342.5,-249 342.5,-249 342.5,-205 342.5,-205 342.5,-199 348.5,-193 354.5,-193 354.5,-193 455.5,-193 455.5,-193 461.5,-193 467.5,-199 467.5,-205 467.5,-205 467.5,-249 467.5,-249 467.5,-255 461.5,-261 455.5,-261"/>
<text text-anchor="start" x="364.5" y="-245.8" font-family="Helvetica,sans-Serif" font-size="14.00" fill="#000000">X1 ≤ 0.086</text>
<text text-anchor="start" x="358.5" y="-230.8" font-family="Helvetica,sans-Serif" font-size="14.00" fill="#000000">mse = 0.016</text>
<text text-anchor="start" x="350.5" y="-215.8" font-family="Helvetica,sans-Serif" font-size="14.00" fill="#000000">samples = 618</text>
<text text-anchor="start" x="354.5" y="-200.8" font-family="Helvetica,sans-Serif" font-size="14.00" fill="#000000">value = 0.139</text>
</g>
<!-- 0&#45;&gt;1 -->
<g id="edge1" class="edge">
<title>0&#45;&gt;1</title>
<path fill="none" stroke="#000000" d="M498.4862,-296.9465C485.766,-287.4293 471.824,-276.9978 458.6794,-267.163"/>
<polygon fill="#000000" stroke="#000000" points="460.7198,-264.3184 450.6161,-261.13 456.5262,-269.9232 460.7198,-264.3184"/>
<text text-anchor="middle" x="454.1801" y="-282.1746" font-family="Helvetica,sans-Serif" font-size="14.00" fill="#000000">True</text>
</g>
<!-- 8 -->
<g id="node9" class="node">
<title>8</title>
<path fill="#f8decb" stroke="#000000" d="M735.5,-261C735.5,-261 634.5,-261 634.5,-261 628.5,-261 622.5,-255 622.5,-249 622.5,-249 622.5,-205 622.5,-205 622.5,-199 628.5,-193 634.5,-193 634.5,-193 735.5,-193 735.5,-193 741.5,-193 747.5,-199 747.5,-205 747.5,-205 747.5,-249 747.5,-249 747.5,-255 741.5,-261 735.5,-261"/>
<text text-anchor="start" x="644.5" y="-245.8" font-family="Helvetica,sans-Serif" font-size="14.00" fill="#000000">X1 ≤ 0.814</text>
<text text-anchor="start" x="638.5" y="-230.8" font-family="Helvetica,sans-Serif" font-size="14.00" fill="#000000">mse = 0.016</text>
<text text-anchor="start" x="630.5" y="-215.8" font-family="Helvetica,sans-Serif" font-size="14.00" fill="#000000">samples = 382</text>
<text text-anchor="start" x="632" y="-200.8" font-family="Helvetica,sans-Serif" font-size="14.00" fill="#000000">value = &#45;0.136</text>
</g>
<!-- 0&#45;&gt;8 -->
<g id="edge8" class="edge">
<title>0&#45;&gt;8</title>
<path fill="none" stroke="#000000" d="M590.1687,-296.9465C603.0719,-287.4293 617.2145,-276.9978 630.5483,-267.163"/>
<polygon fill="#000000" stroke="#000000" points="632.7575,-269.8826 638.7276,-261.13 628.6023,-264.2492 632.7575,-269.8826"/>
<text text-anchor="middle" x="634.9944" y="-282.1497" font-family="Helvetica,sans-Serif" font-size="14.00" fill="#000000">False</text>
</g>
<!-- 2 -->
<g id="node3" class="node">
<title>2</title>
<path fill="#eead7e" stroke="#000000" d="M245.5,-157C245.5,-157 152.5,-157 152.5,-157 146.5,-157 140.5,-151 140.5,-145 140.5,-145 140.5,-101 140.5,-101 140.5,-95 146.5,-89 152.5,-89 152.5,-89 245.5,-89 245.5,-89 251.5,-89 257.5,-95 257.5,-101 257.5,-101 257.5,-145 257.5,-145 257.5,-151 251.5,-157 245.5,-157"/>
<text text-anchor="start" x="163" y="-141.8" font-family="Helvetica,sans-Serif" font-size="14.00" fill="#000000">X2 ≤ 0.57</text>
<text text-anchor="start" x="152.5" y="-126.8" font-family="Helvetica,sans-Serif" font-size="14.00" fill="#000000">mse = 0.011</text>
<text text-anchor="start" x="149" y="-111.8" font-family="Helvetica,sans-Serif" font-size="14.00" fill="#000000">samples = 88</text>
<text text-anchor="start" x="148.5" y="-96.8" font-family="Helvetica,sans-Serif" font-size="14.00" fill="#000000">value = 0.028</text>
</g>
<!-- 1&#45;&gt;2 -->
<g id="edge2" class="edge">
<title>1&#45;&gt;2</title>
<path fill="none" stroke="#000000" d="M342.3542,-195.373C318.5277,-183.3441 291.2791,-169.5875 266.9817,-157.3209"/>
<polygon fill="#000000" stroke="#000000" points="268.3315,-154.0816 257.8272,-152.6992 265.1767,-160.3304 268.3315,-154.0816"/>
</g>
<!-- 5 -->
<g id="node6" class="node">
<title>5</title>
<path fill="#e68641" stroke="#000000" d="M455.5,-157C455.5,-157 354.5,-157 354.5,-157 348.5,-157 342.5,-151 342.5,-145 342.5,-145 342.5,-101 342.5,-101 342.5,-95 348.5,-89 354.5,-89 354.5,-89 455.5,-89 455.5,-89 461.5,-89 467.5,-95 467.5,-101 467.5,-101 467.5,-145 467.5,-145 467.5,-151 461.5,-157 455.5,-157"/>
<text text-anchor="start" x="364.5" y="-141.8" font-family="Helvetica,sans-Serif" font-size="14.00" fill="#000000">X1 ≤ 0.545</text>
<text text-anchor="start" x="358.5" y="-126.8" font-family="Helvetica,sans-Serif" font-size="14.00" fill="#000000">mse = 0.014</text>
<text text-anchor="start" x="350.5" y="-111.8" font-family="Helvetica,sans-Serif" font-size="14.00" fill="#000000">samples = 530</text>
<text text-anchor="start" x="354.5" y="-96.8" font-family="Helvetica,sans-Serif" font-size="14.00" fill="#000000">value = 0.157</text>
</g>
<!-- 1&#45;&gt;5 -->
<g id="edge5" class="edge">
<title>1&#45;&gt;5</title>
<path fill="none" stroke="#000000" d="M405,-192.9465C405,-184.776 405,-175.9318 405,-167.3697"/>
<polygon fill="#000000" stroke="#000000" points="408.5001,-167.13 405,-157.13 401.5001,-167.13 408.5001,-167.13"/>
</g>
<!-- 3 -->
<g id="node4" class="node">
<title>3</title>
<path fill="#f0b68c" stroke="#000000" d="M110,-53C110,-53 12,-53 12,-53 6,-53 0,-47 0,-41 0,-41 0,-12 0,-12 0,-6 6,0 12,0 12,0 110,0 110,0 116,0 122,-6 122,-12 122,-12 122,-41 122,-41 122,-47 116,-53 110,-53"/>
<text text-anchor="start" x="14.5" y="-37.8" font-family="Helvetica,sans-Serif" font-size="14.00" fill="#000000">mse = 0.007</text>
<text text-anchor="start" x="11" y="-22.8" font-family="Helvetica,sans-Serif" font-size="14.00" fill="#000000">samples = 57</text>
<text text-anchor="start" x="8" y="-7.8" font-family="Helvetica,sans-Serif" font-size="14.00" fill="#000000">value = &#45;0.001</text>
</g>
<!-- 2&#45;&gt;3 -->
<g id="edge3" class="edge">
<title>2&#45;&gt;3</title>
<path fill="none" stroke="#000000" d="M150.3464,-88.9777C136.4657,-79.2713 121.3786,-68.7213 107.6223,-59.1018"/>
<polygon fill="#000000" stroke="#000000" points="109.4526,-56.1109 99.2517,-53.2485 105.4411,-61.8475 109.4526,-56.1109"/>
</g>
<!-- 4 -->
<g id="node5" class="node">
<title>4</title>
<path fill="#eb9c64" stroke="#000000" d="M245.5,-53C245.5,-53 152.5,-53 152.5,-53 146.5,-53 140.5,-47 140.5,-41 140.5,-41 140.5,-12 140.5,-12 140.5,-6 146.5,0 152.5,0 152.5,0 245.5,0 245.5,0 251.5,0 257.5,-6 257.5,-12 257.5,-12 257.5,-41 257.5,-41 257.5,-47 251.5,-53 245.5,-53"/>
<text text-anchor="start" x="152.5" y="-37.8" font-family="Helvetica,sans-Serif" font-size="14.00" fill="#000000">mse = 0.012</text>
<text text-anchor="start" x="149" y="-22.8" font-family="Helvetica,sans-Serif" font-size="14.00" fill="#000000">samples = 31</text>
<text text-anchor="start" x="148.5" y="-7.8" font-family="Helvetica,sans-Serif" font-size="14.00" fill="#000000">value = 0.083</text>
</g>
<!-- 2&#45;&gt;4 -->
<g id="edge4" class="edge">
<title>2&#45;&gt;4</title>
<path fill="none" stroke="#000000" d="M199,-88.9777C199,-80.7364 199,-71.887 199,-63.5153"/>
<polygon fill="#000000" stroke="#000000" points="202.5001,-63.2484 199,-53.2485 195.5001,-63.2485 202.5001,-63.2484"/>
</g>
<!-- 6 -->
<g id="node7" class="node">
<title>6</title>
<path fill="#e58139" stroke="#000000" d="M388.5,-53C388.5,-53 287.5,-53 287.5,-53 281.5,-53 275.5,-47 275.5,-41 275.5,-41 275.5,-12 275.5,-12 275.5,-6 281.5,0 287.5,0 287.5,0 388.5,0 388.5,0 394.5,0 400.5,-6 400.5,-12 400.5,-12 400.5,-41 400.5,-41 400.5,-47 394.5,-53 388.5,-53"/>
<text text-anchor="start" x="291.5" y="-37.8" font-family="Helvetica,sans-Serif" font-size="14.00" fill="#000000">mse = 0.014</text>
<text text-anchor="start" x="283.5" y="-22.8" font-family="Helvetica,sans-Serif" font-size="14.00" fill="#000000">samples = 443</text>
<text text-anchor="start" x="287.5" y="-7.8" font-family="Helvetica,sans-Serif" font-size="14.00" fill="#000000">value = 0.175</text>
</g>
<!-- 5&#45;&gt;6 -->
<g id="edge6" class="edge">
<title>5&#45;&gt;6</title>
<path fill="none" stroke="#000000" d="M381.3783,-88.9777C375.2113,-80.0954 368.5539,-70.5067 362.3499,-61.5711"/>
<polygon fill="#000000" stroke="#000000" points="365.1497,-59.4666 356.5715,-53.2485 359.3997,-63.4589 365.1497,-59.4666"/>
</g>
<!-- 7 -->
<g id="node8" class="node">
<title>7</title>
<path fill="#eba06a" stroke="#000000" d="M523,-53C523,-53 431,-53 431,-53 425,-53 419,-47 419,-41 419,-41 419,-12 419,-12 419,-6 425,0 431,0 431,0 523,0 523,0 529,0 535,-6 535,-12 535,-12 535,-41 535,-41 535,-47 529,-53 523,-53"/>
<text text-anchor="start" x="435" y="-37.8" font-family="Helvetica,sans-Serif" font-size="14.00" fill="#000000">mse = 0.01</text>
<text text-anchor="start" x="427" y="-22.8" font-family="Helvetica,sans-Serif" font-size="14.00" fill="#000000">samples = 87</text>
<text text-anchor="start" x="431" y="-7.8" font-family="Helvetica,sans-Serif" font-size="14.00" fill="#000000">value = 0.07</text>
</g>
<!-- 5&#45;&gt;7 -->
<g id="edge7" class="edge">
<title>5&#45;&gt;7</title>
<path fill="none" stroke="#000000" d="M430.3845,-88.9777C437.08,-80.0039 444.3135,-70.3089 451.039,-61.295"/>
<polygon fill="#000000" stroke="#000000" points="453.8677,-63.3565 457.0426,-53.2485 448.2573,-59.1704 453.8677,-63.3565"/>
</g>
<!-- 9 -->
<g id="node10" class="node">
<title>9</title>
<path fill="#f5cdb1" stroke="#000000" d="M735.5,-157C735.5,-157 634.5,-157 634.5,-157 628.5,-157 622.5,-151 622.5,-145 622.5,-145 622.5,-101 622.5,-101 622.5,-95 628.5,-89 634.5,-89 634.5,-89 735.5,-89 735.5,-89 741.5,-89 747.5,-95 747.5,-101 747.5,-101 747.5,-145 747.5,-145 747.5,-151 741.5,-157 735.5,-157"/>
<text text-anchor="start" x="644.5" y="-141.8" font-family="Helvetica,sans-Serif" font-size="14.00" fill="#000000">X1 ≤ 0.714</text>
<text text-anchor="start" x="638.5" y="-126.8" font-family="Helvetica,sans-Serif" font-size="14.00" fill="#000000">mse = 0.012</text>
<text text-anchor="start" x="630.5" y="-111.8" font-family="Helvetica,sans-Serif" font-size="14.00" fill="#000000">samples = 193</text>
<text text-anchor="start" x="632" y="-96.8" font-family="Helvetica,sans-Serif" font-size="14.00" fill="#000000">value = &#45;0.081</text>
</g>
<!-- 8&#45;&gt;9 -->
<g id="edge9" class="edge">
<title>8&#45;&gt;9</title>
<path fill="none" stroke="#000000" d="M685,-192.9465C685,-184.776 685,-175.9318 685,-167.3697"/>
<polygon fill="#000000" stroke="#000000" points="688.5001,-167.13 685,-157.13 681.5001,-167.13 688.5001,-167.13"/>
</g>
<!-- 12 -->
<g id="node13" class="node">
<title>12</title>
<path fill="#fcefe5" stroke="#000000" d="M948.5,-157C948.5,-157 847.5,-157 847.5,-157 841.5,-157 835.5,-151 835.5,-145 835.5,-145 835.5,-101 835.5,-101 835.5,-95 841.5,-89 847.5,-89 847.5,-89 948.5,-89 948.5,-89 954.5,-89 960.5,-95 960.5,-101 960.5,-101 960.5,-145 960.5,-145 960.5,-151 954.5,-157 948.5,-157"/>
<text text-anchor="start" x="857.5" y="-141.8" font-family="Helvetica,sans-Serif" font-size="14.00" fill="#000000">X2 ≤ 0.453</text>
<text text-anchor="start" x="851.5" y="-126.8" font-family="Helvetica,sans-Serif" font-size="14.00" fill="#000000">mse = 0.014</text>
<text text-anchor="start" x="843.5" y="-111.8" font-family="Helvetica,sans-Serif" font-size="14.00" fill="#000000">samples = 189</text>
<text text-anchor="start" x="845" y="-96.8" font-family="Helvetica,sans-Serif" font-size="14.00" fill="#000000">value = &#45;0.191</text>
</g>
<!-- 8&#45;&gt;12 -->
<g id="edge12" class="edge">
<title>8&#45;&gt;12</title>
<path fill="none" stroke="#000000" d="M747.755,-196.3591C772.3458,-184.3523 800.7027,-170.5067 826.1108,-158.1008"/>
<polygon fill="#000000" stroke="#000000" points="827.8754,-161.1342 835.3258,-153.6015 824.8041,-154.844 827.8754,-161.1342"/>
</g>
<!-- 10 -->
<g id="node11" class="node">
<title>10</title>
<path fill="#f3c4a2" stroke="#000000" d="M666.5,-53C666.5,-53 565.5,-53 565.5,-53 559.5,-53 553.5,-47 553.5,-41 553.5,-41 553.5,-12 553.5,-12 553.5,-6 559.5,0 565.5,0 565.5,0 666.5,0 666.5,0 672.5,0 678.5,-6 678.5,-12 678.5,-12 678.5,-41 678.5,-41 678.5,-47 672.5,-53 666.5,-53"/>
<text text-anchor="start" x="569.5" y="-37.8" font-family="Helvetica,sans-Serif" font-size="14.00" fill="#000000">mse = 0.009</text>
<text text-anchor="start" x="561.5" y="-22.8" font-family="Helvetica,sans-Serif" font-size="14.00" fill="#000000">samples = 101</text>
<text text-anchor="start" x="563" y="-7.8" font-family="Helvetica,sans-Serif" font-size="14.00" fill="#000000">value = &#45;0.048</text>
</g>
<!-- 9&#45;&gt;10 -->
<g id="edge10" class="edge">
<title>9&#45;&gt;10</title>
<path fill="none" stroke="#000000" d="M660.6732,-88.9777C654.3221,-80.0954 647.466,-70.5067 641.0768,-61.5711"/>
<polygon fill="#000000" stroke="#000000" points="643.7893,-59.3472 635.1259,-53.2485 638.0952,-63.4187 643.7893,-59.3472"/>
</g>
<!-- 11 -->
<g id="node12" class="node">
<title>11</title>
<path fill="#f7d8c2" stroke="#000000" d="M807,-53C807,-53 709,-53 709,-53 703,-53 697,-47 697,-41 697,-41 697,-12 697,-12 697,-6 703,0 709,0 709,0 807,0 807,0 813,0 819,-6 819,-12 819,-12 819,-41 819,-41 819,-47 813,-53 807,-53"/>
<text text-anchor="start" x="711.5" y="-37.8" font-family="Helvetica,sans-Serif" font-size="14.00" fill="#000000">mse = 0.013</text>
<text text-anchor="start" x="708" y="-22.8" font-family="Helvetica,sans-Serif" font-size="14.00" fill="#000000">samples = 92</text>
<text text-anchor="start" x="705" y="-7.8" font-family="Helvetica,sans-Serif" font-size="14.00" fill="#000000">value = &#45;0.116</text>
</g>
<!-- 9&#45;&gt;11 -->
<g id="edge11" class="edge">
<title>9&#45;&gt;11</title>
<path fill="none" stroke="#000000" d="M710.7371,-88.9777C717.5256,-80.0039 724.8596,-70.3089 731.6784,-61.295"/>
<polygon fill="#000000" stroke="#000000" points="734.5237,-63.3352 737.7654,-53.2485 728.941,-59.1121 734.5237,-63.3352"/>
</g>
<!-- 13 -->
<g id="node14" class="node">
<title>13</title>
<path fill="#f7dac4" stroke="#000000" d="M947,-53C947,-53 849,-53 849,-53 843,-53 837,-47 837,-41 837,-41 837,-12 837,-12 837,-6 843,0 849,0 849,0 947,0 947,0 953,0 959,-6 959,-12 959,-12 959,-41 959,-41 959,-47 953,-53 947,-53"/>
<text text-anchor="start" x="856" y="-37.8" font-family="Helvetica,sans-Serif" font-size="14.00" fill="#000000">mse = 0.01</text>
<text text-anchor="start" x="848" y="-22.8" font-family="Helvetica,sans-Serif" font-size="14.00" fill="#000000">samples = 83</text>
<text text-anchor="start" x="845" y="-7.8" font-family="Helvetica,sans-Serif" font-size="14.00" fill="#000000">value = &#45;0.121</text>
</g>
<!-- 12&#45;&gt;13 -->
<g id="edge13" class="edge">
<title>12&#45;&gt;13</title>
<path fill="none" stroke="#000000" d="M898,-88.9777C898,-80.7364 898,-71.887 898,-63.5153"/>
<polygon fill="#000000" stroke="#000000" points="901.5001,-63.2484 898,-53.2485 894.5001,-63.2485 901.5001,-63.2484"/>
</g>
<!-- 14 -->
<g id="node15" class="node">
<title>14</title>
<path fill="#ffffff" stroke="#000000" d="M1090.5,-53C1090.5,-53 989.5,-53 989.5,-53 983.5,-53 977.5,-47 977.5,-41 977.5,-41 977.5,-12 977.5,-12 977.5,-6 983.5,0 989.5,0 989.5,0 1090.5,0 1090.5,0 1096.5,0 1102.5,-6 1102.5,-12 1102.5,-12 1102.5,-41 1102.5,-41 1102.5,-47 1096.5,-53 1090.5,-53"/>
<text text-anchor="start" x="998" y="-37.8" font-family="Helvetica,sans-Serif" font-size="14.00" fill="#000000">mse = 0.01</text>
<text text-anchor="start" x="985.5" y="-22.8" font-family="Helvetica,sans-Serif" font-size="14.00" fill="#000000">samples = 106</text>
<text text-anchor="start" x="987" y="-7.8" font-family="Helvetica,sans-Serif" font-size="14.00" fill="#000000">value = &#45;0.246</text>
</g>
<!-- 12&#45;&gt;14 -->
<g id="edge14" class="edge">
<title>12&#45;&gt;14</title>
<path fill="none" stroke="#000000" d="M948.0639,-88.9777C962.3469,-79.2713 977.8713,-68.7213 992.0263,-59.1018"/>
<polygon fill="#000000" stroke="#000000" points="994.3359,-61.764 1000.6395,-53.2485 990.4014,-55.9744 994.3359,-61.764"/>
</g>
</g>
</svg>
