<?xml version="1.0" encoding="UTF-8" standalone="no"?>
<!DOCTYPE svg PUBLIC "-//W3C//DTD SVG 1.1//EN"
 "http://www.w3.org/Graphics/SVG/1.1/DTD/svg11.dtd">
<!-- Generated by graphviz version 2.40.1 (20161225.0304)
 -->
<!-- Title: Tree Pages: 1 -->
<svg width="1116pt" height="373pt"
 viewBox="0.00 0.00 1115.50 373.00" xmlns="http://www.w3.org/2000/svg" xmlns:xlink="http://www.w3.org/1999/xlink">
<g id="graph0" class="graph" transform="scale(1 1) rotate(0) translate(4 369)">
<title>Tree</title>
<polygon fill="#ffffff" stroke="transparent" points="-4,4 -4,-369 1111.5,-369 1111.5,4 -4,4"/>
<!-- 0 -->
<g id="node1" class="node">
<title>0</title>
<path fill="#efaf81" stroke="#000000" d="M605,-365C605,-365 495,-365 495,-365 489,-365 483,-359 483,-353 483,-353 483,-309 483,-309 483,-303 489,-297 495,-297 495,-297 605,-297 605,-297 611,-297 617,-303 617,-309 617,-309 617,-353 617,-353 617,-359 611,-365 605,-365"/>
<text text-anchor="start" x="509.5" y="-349.8" font-family="Helvetica,sans-Serif" font-size="14.00" fill="#000000">X1 ≤ 0.631</text>
<text text-anchor="start" x="503.5" y="-334.8" font-family="Helvetica,sans-Serif" font-size="14.00" fill="#000000">mse = 0.033</text>
<text text-anchor="start" x="491" y="-319.8" font-family="Helvetica,sans-Serif" font-size="14.00" fill="#000000">samples = 1000</text>
<text text-anchor="start" x="499.5" y="-304.8" font-family="Helvetica,sans-Serif" font-size="14.00" fill="#000000">value = 0.035</text>
</g>
<!-- 1 -->
<g id="node2" class="node">
<title>1</title>
<path fill="#e99254" stroke="#000000" d="M459.5,-261C459.5,-261 358.5,-261 358.5,-261 352.5,-261 346.5,-255 346.5,-249 346.5,-249 346.5,-205 346.5,-205 346.5,-199 352.5,-193 358.5,-193 358.5,-193 459.5,-193 459.5,-193 465.5,-193 471.5,-199 471.5,-205 471.5,-205 471.5,-249 471.5,-249 471.5,-255 465.5,-261 459.5,-261"/>
<text text-anchor="start" x="368.5" y="-245.8" font-family="Helvetica,sans-Serif" font-size="14.00" fill="#000000">X1 ≤ 0.121</text>
<text text-anchor="start" x="362.5" y="-230.8" font-family="Helvetica,sans-Serif" font-size="14.00" fill="#000000">mse = 0.016</text>
<text text-anchor="start" x="354.5" y="-215.8" font-family="Helvetica,sans-Serif" font-size="14.00" fill="#000000">samples = 643</text>
<text text-anchor="start" x="358.5" y="-200.8" font-family="Helvetica,sans-Serif" font-size="14.00" fill="#000000">value = 0.134</text>
</g>
<!-- 0&#45;&gt;1 -->
<g id="edge1" class="edge">
<title>0&#45;&gt;1</title>
<path fill="none" stroke="#000000" d="M503.8313,-296.9465C490.9281,-287.4293 476.7855,-276.9978 463.4517,-267.163"/>
<polygon fill="#000000" stroke="#000000" points="465.3977,-264.2492 455.2724,-261.13 461.2425,-269.8826 465.3977,-264.2492"/>
<text text-anchor="middle" x="459.0056" y="-282.1497" font-family="Helvetica,sans-Serif" font-size="14.00" fill="#000000">True</text>
</g>
<!-- 8 -->
<g id="node9" class="node">
<title>8</title>
<path fill="#f9e3d3" stroke="#000000" d="M741.5,-261C741.5,-261 640.5,-261 640.5,-261 634.5,-261 628.5,-255 628.5,-249 628.5,-249 628.5,-205 628.5,-205 628.5,-199 634.5,-193 640.5,-193 640.5,-193 741.5,-193 741.5,-193 747.5,-193 753.5,-199 753.5,-205 753.5,-205 753.5,-249 753.5,-249 753.5,-255 747.5,-261 741.5,-261"/>
<text text-anchor="start" x="650.5" y="-245.8" font-family="Helvetica,sans-Serif" font-size="14.00" fill="#000000">X1 ≤ 0.814</text>
<text text-anchor="start" x="644.5" y="-230.8" font-family="Helvetica,sans-Serif" font-size="14.00" fill="#000000">mse = 0.015</text>
<text text-anchor="start" x="636.5" y="-215.8" font-family="Helvetica,sans-Serif" font-size="14.00" fill="#000000">samples = 357</text>
<text text-anchor="start" x="638" y="-200.8" font-family="Helvetica,sans-Serif" font-size="14.00" fill="#000000">value = &#45;0.144</text>
</g>
<!-- 0&#45;&gt;8 -->
<g id="edge8" class="edge">
<title>0&#45;&gt;8</title>
<path fill="none" stroke="#000000" d="M596.1687,-296.9465C609.0719,-287.4293 623.2145,-276.9978 636.5483,-267.163"/>
<polygon fill="#000000" stroke="#000000" points="638.7575,-269.8826 644.7276,-261.13 634.6023,-264.2492 638.7575,-269.8826"/>
<text text-anchor="middle" x="640.9944" y="-282.1497" font-family="Helvetica,sans-Serif" font-size="14.00" fill="#000000">False</text>
</g>
<!-- 2 -->
<g id="node3" class="node">
<title>2</title>
<path fill="#eda876" stroke="#000000" d="M247.5,-157C247.5,-157 146.5,-157 146.5,-157 140.5,-157 134.5,-151 134.5,-145 134.5,-145 134.5,-101 134.5,-101 134.5,-95 140.5,-89 146.5,-89 146.5,-89 247.5,-89 247.5,-89 253.5,-89 259.5,-95 259.5,-101 259.5,-101 259.5,-145 259.5,-145 259.5,-151 253.5,-157 247.5,-157"/>
<text text-anchor="start" x="161" y="-141.8" font-family="Helvetica,sans-Serif" font-size="14.00" fill="#000000">X1 ≤ 0.03</text>
<text text-anchor="start" x="150.5" y="-126.8" font-family="Helvetica,sans-Serif" font-size="14.00" fill="#000000">mse = 0.011</text>
<text text-anchor="start" x="142.5" y="-111.8" font-family="Helvetica,sans-Serif" font-size="14.00" fill="#000000">samples = 146</text>
<text text-anchor="start" x="151" y="-96.8" font-family="Helvetica,sans-Serif" font-size="14.00" fill="#000000">value = 0.06</text>
</g>
<!-- 1&#45;&gt;2 -->
<g id="edge2" class="edge">
<title>1&#45;&gt;2</title>
<path fill="none" stroke="#000000" d="M346.2535,-196.2187C321.8951,-184.2693 293.8586,-170.5156 268.7086,-158.1778"/>
<polygon fill="#000000" stroke="#000000" points="270.1049,-154.9644 259.5855,-153.7023 267.0219,-161.2489 270.1049,-154.9644"/>
</g>
<!-- 5 -->
<g id="node6" class="node">
<title>5</title>
<path fill="#e78c4a" stroke="#000000" d="M459.5,-157C459.5,-157 358.5,-157 358.5,-157 352.5,-157 346.5,-151 346.5,-145 346.5,-145 346.5,-101 346.5,-101 346.5,-95 352.5,-89 358.5,-89 358.5,-89 459.5,-89 459.5,-89 465.5,-89 471.5,-95 471.5,-101 471.5,-101 471.5,-145 471.5,-145 471.5,-151 465.5,-157 459.5,-157"/>
<text text-anchor="start" x="368.5" y="-141.8" font-family="Helvetica,sans-Serif" font-size="14.00" fill="#000000">X1 ≤ 0.455</text>
<text text-anchor="start" x="362.5" y="-126.8" font-family="Helvetica,sans-Serif" font-size="14.00" fill="#000000">mse = 0.015</text>
<text text-anchor="start" x="354.5" y="-111.8" font-family="Helvetica,sans-Serif" font-size="14.00" fill="#000000">samples = 497</text>
<text text-anchor="start" x="358.5" y="-96.8" font-family="Helvetica,sans-Serif" font-size="14.00" fill="#000000">value = 0.156</text>
</g>
<!-- 1&#45;&gt;5 -->
<g id="edge5" class="edge">
<title>1&#45;&gt;5</title>
<path fill="none" stroke="#000000" d="M409,-192.9465C409,-184.776 409,-175.9318 409,-167.3697"/>
<polygon fill="#000000" stroke="#000000" points="412.5001,-167.13 409,-157.13 405.5001,-167.13 412.5001,-167.13"/>
</g>
<!-- 3 -->
<g id="node4" class="node">
<title>3</title>
<path fill="#f1b991" stroke="#000000" d="M104,-53C104,-53 12,-53 12,-53 6,-53 0,-47 0,-41 0,-41 0,-12 0,-12 0,-6 6,0 12,0 12,0 104,0 104,0 110,0 116,-6 116,-12 116,-12 116,-41 116,-41 116,-47 110,-53 104,-53"/>
<text text-anchor="start" x="11.5" y="-37.8" font-family="Helvetica,sans-Serif" font-size="14.00" fill="#000000">mse = 0.011</text>
<text text-anchor="start" x="8" y="-22.8" font-family="Helvetica,sans-Serif" font-size="14.00" fill="#000000">samples = 28</text>
<text text-anchor="start" x="14" y="-7.8" font-family="Helvetica,sans-Serif" font-size="14.00" fill="#000000">value = &#45;0.0</text>
</g>
<!-- 2&#45;&gt;3 -->
<g id="edge3" class="edge">
<title>2&#45;&gt;3</title>
<path fill="none" stroke="#000000" d="M147.9938,-88.9777C134.0126,-79.2713 118.8162,-68.7213 104.9602,-59.1018"/>
<polygon fill="#000000" stroke="#000000" points="106.7394,-56.0763 96.5289,-53.2485 102.7474,-61.8264 106.7394,-56.0763"/>
</g>
<!-- 4 -->
<g id="node5" class="node">
<title>4</title>
<path fill="#eca36f" stroke="#000000" d="M247.5,-53C247.5,-53 146.5,-53 146.5,-53 140.5,-53 134.5,-47 134.5,-41 134.5,-41 134.5,-12 134.5,-12 134.5,-6 140.5,0 146.5,0 146.5,0 247.5,0 247.5,0 253.5,0 259.5,-6 259.5,-12 259.5,-12 259.5,-41 259.5,-41 259.5,-47 253.5,-53 247.5,-53"/>
<text text-anchor="start" x="150.5" y="-37.8" font-family="Helvetica,sans-Serif" font-size="14.00" fill="#000000">mse = 0.011</text>
<text text-anchor="start" x="142.5" y="-22.8" font-family="Helvetica,sans-Serif" font-size="14.00" fill="#000000">samples = 118</text>
<text text-anchor="start" x="146.5" y="-7.8" font-family="Helvetica,sans-Serif" font-size="14.00" fill="#000000">value = 0.075</text>
</g>
<!-- 2&#45;&gt;4 -->
<g id="edge4" class="edge">
<title>2&#45;&gt;4</title>
<path fill="none" stroke="#000000" d="M197,-88.9777C197,-80.7364 197,-71.887 197,-63.5153"/>
<polygon fill="#000000" stroke="#000000" points="200.5001,-63.2484 197,-53.2485 193.5001,-63.2485 200.5001,-63.2484"/>
</g>
<!-- 6 -->
<g id="node7" class="node">
<title>6</title>
<path fill="#e58139" stroke="#000000" d="M390.5,-53C390.5,-53 289.5,-53 289.5,-53 283.5,-53 277.5,-47 277.5,-41 277.5,-41 277.5,-12 277.5,-12 277.5,-6 283.5,0 289.5,0 289.5,0 390.5,0 390.5,0 396.5,0 402.5,-6 402.5,-12 402.5,-12 402.5,-41 402.5,-41 402.5,-47 396.5,-53 390.5,-53"/>
<text text-anchor="start" x="293.5" y="-37.8" font-family="Helvetica,sans-Serif" font-size="14.00" fill="#000000">mse = 0.013</text>
<text text-anchor="start" x="285.5" y="-22.8" font-family="Helvetica,sans-Serif" font-size="14.00" fill="#000000">samples = 321</text>
<text text-anchor="start" x="289.5" y="-7.8" font-family="Helvetica,sans-Serif" font-size="14.00" fill="#000000">value = 0.194</text>
</g>
<!-- 5&#45;&gt;6 -->
<g id="edge6" class="edge">
<title>5&#45;&gt;6</title>
<path fill="none" stroke="#000000" d="M384.6732,-88.9777C378.3221,-80.0954 371.466,-70.5067 365.0768,-61.5711"/>
<polygon fill="#000000" stroke="#000000" points="367.7893,-59.3472 359.1259,-53.2485 362.0952,-63.4187 367.7893,-59.3472"/>
</g>
<!-- 7 -->
<g id="node8" class="node">
<title>7</title>
<path fill="#eba06a" stroke="#000000" d="M533.5,-53C533.5,-53 432.5,-53 432.5,-53 426.5,-53 420.5,-47 420.5,-41 420.5,-41 420.5,-12 420.5,-12 420.5,-6 426.5,0 432.5,0 432.5,0 533.5,0 533.5,0 539.5,0 545.5,-6 545.5,-12 545.5,-12 545.5,-41 545.5,-41 545.5,-47 539.5,-53 533.5,-53"/>
<text text-anchor="start" x="436.5" y="-37.8" font-family="Helvetica,sans-Serif" font-size="14.00" fill="#000000">mse = 0.012</text>
<text text-anchor="start" x="428.5" y="-22.8" font-family="Helvetica,sans-Serif" font-size="14.00" fill="#000000">samples = 176</text>
<text text-anchor="start" x="432.5" y="-7.8" font-family="Helvetica,sans-Serif" font-size="14.00" fill="#000000">value = 0.087</text>
</g>
<!-- 5&#45;&gt;7 -->
<g id="edge7" class="edge">
<title>5&#45;&gt;7</title>
<path fill="none" stroke="#000000" d="M435.0896,-88.9777C441.9711,-80.0039 449.4056,-70.3089 456.3178,-61.295"/>
<polygon fill="#000000" stroke="#000000" points="459.1804,-63.3137 462.4882,-53.2485 453.6256,-59.0541 459.1804,-63.3137"/>
</g>
<!-- 9 -->
<g id="node10" class="node">
<title>9</title>
<path fill="#f6d3ba" stroke="#000000" d="M741.5,-157C741.5,-157 640.5,-157 640.5,-157 634.5,-157 628.5,-151 628.5,-145 628.5,-145 628.5,-101 628.5,-101 628.5,-95 634.5,-89 640.5,-89 640.5,-89 741.5,-89 741.5,-89 747.5,-89 753.5,-95 753.5,-101 753.5,-101 753.5,-145 753.5,-145 753.5,-151 747.5,-157 741.5,-157"/>
<text text-anchor="start" x="650.5" y="-141.8" font-family="Helvetica,sans-Serif" font-size="14.00" fill="#000000">X1 ≤ 0.721</text>
<text text-anchor="start" x="644.5" y="-126.8" font-family="Helvetica,sans-Serif" font-size="14.00" fill="#000000">mse = 0.011</text>
<text text-anchor="start" x="636.5" y="-111.8" font-family="Helvetica,sans-Serif" font-size="14.00" fill="#000000">samples = 192</text>
<text text-anchor="start" x="642.5" y="-96.8" font-family="Helvetica,sans-Serif" font-size="14.00" fill="#000000">value = &#45;0.09</text>
</g>
<!-- 8&#45;&gt;9 -->
<g id="edge9" class="edge">
<title>8&#45;&gt;9</title>
<path fill="none" stroke="#000000" d="M691,-192.9465C691,-184.776 691,-175.9318 691,-167.3697"/>
<polygon fill="#000000" stroke="#000000" points="694.5001,-167.13 691,-157.13 687.5001,-167.13 694.5001,-167.13"/>
</g>
<!-- 12 -->
<g id="node13" class="node">
<title>12</title>
<path fill="#fdf5ef" stroke="#000000" d="M953.5,-157C953.5,-157 852.5,-157 852.5,-157 846.5,-157 840.5,-151 840.5,-145 840.5,-145 840.5,-101 840.5,-101 840.5,-95 846.5,-89 852.5,-89 852.5,-89 953.5,-89 953.5,-89 959.5,-89 965.5,-95 965.5,-101 965.5,-101 965.5,-145 965.5,-145 965.5,-151 959.5,-157 953.5,-157"/>
<text text-anchor="start" x="862.5" y="-141.8" font-family="Helvetica,sans-Serif" font-size="14.00" fill="#000000">X2 ≤ 0.206</text>
<text text-anchor="start" x="856.5" y="-126.8" font-family="Helvetica,sans-Serif" font-size="14.00" fill="#000000">mse = 0.013</text>
<text text-anchor="start" x="848.5" y="-111.8" font-family="Helvetica,sans-Serif" font-size="14.00" fill="#000000">samples = 165</text>
<text text-anchor="start" x="850" y="-96.8" font-family="Helvetica,sans-Serif" font-size="14.00" fill="#000000">value = &#45;0.206</text>
</g>
<!-- 8&#45;&gt;12 -->
<g id="edge12" class="edge">
<title>8&#45;&gt;12</title>
<path fill="none" stroke="#000000" d="M753.7465,-196.2187C778.1049,-184.2693 806.1414,-170.5156 831.2914,-158.1778"/>
<polygon fill="#000000" stroke="#000000" points="832.9781,-161.2489 840.4145,-153.7023 829.8951,-154.9644 832.9781,-161.2489"/>
</g>
<!-- 10 -->
<g id="node11" class="node">
<title>10</title>
<path fill="#f4c8a8" stroke="#000000" d="M668,-53C668,-53 576,-53 576,-53 570,-53 564,-47 564,-41 564,-41 564,-12 564,-12 564,-6 570,0 576,0 576,0 668,0 668,0 674,0 680,-6 680,-12 680,-12 680,-41 680,-41 680,-47 674,-53 668,-53"/>
<text text-anchor="start" x="580" y="-37.8" font-family="Helvetica,sans-Serif" font-size="14.00" fill="#000000">mse = 0.01</text>
<text text-anchor="start" x="572" y="-22.8" font-family="Helvetica,sans-Serif" font-size="14.00" fill="#000000">samples = 88</text>
<text text-anchor="start" x="573.5" y="-7.8" font-family="Helvetica,sans-Serif" font-size="14.00" fill="#000000">value = &#45;0.05</text>
</g>
<!-- 9&#45;&gt;10 -->
<g id="edge10" class="edge">
<title>9&#45;&gt;10</title>
<path fill="none" stroke="#000000" d="M666.6732,-88.9777C660.3221,-80.0954 653.466,-70.5067 647.0768,-61.5711"/>
<polygon fill="#000000" stroke="#000000" points="649.7893,-59.3472 641.1259,-53.2485 644.0952,-63.4187 649.7893,-59.3472"/>
</g>
<!-- 11 -->
<g id="node12" class="node">
<title>11</title>
<path fill="#f8ddca" stroke="#000000" d="M811.5,-53C811.5,-53 710.5,-53 710.5,-53 704.5,-53 698.5,-47 698.5,-41 698.5,-41 698.5,-12 698.5,-12 698.5,-6 704.5,0 710.5,0 710.5,0 811.5,0 811.5,0 817.5,0 823.5,-6 823.5,-12 823.5,-12 823.5,-41 823.5,-41 823.5,-47 817.5,-53 811.5,-53"/>
<text text-anchor="start" x="714.5" y="-37.8" font-family="Helvetica,sans-Serif" font-size="14.00" fill="#000000">mse = 0.009</text>
<text text-anchor="start" x="706.5" y="-22.8" font-family="Helvetica,sans-Serif" font-size="14.00" fill="#000000">samples = 104</text>
<text text-anchor="start" x="708" y="-7.8" font-family="Helvetica,sans-Serif" font-size="14.00" fill="#000000">value = &#45;0.124</text>
</g>
<!-- 9&#45;&gt;11 -->
<g id="edge11" class="edge">
<title>9&#45;&gt;11</title>
<path fill="none" stroke="#000000" d="M715.6794,-88.9777C722.1225,-80.0954 729.078,-70.5067 735.5598,-61.5711"/>
<polygon fill="#000000" stroke="#000000" points="738.5583,-63.3982 741.597,-53.2485 732.8921,-59.288 738.5583,-63.3982"/>
</g>
<!-- 13 -->
<g id="node14" class="node">
<title>13</title>
<path fill="#f5cfb4" stroke="#000000" d="M952,-53C952,-53 854,-53 854,-53 848,-53 842,-47 842,-41 842,-41 842,-12 842,-12 842,-6 848,0 854,0 854,0 952,0 952,0 958,0 964,-6 964,-12 964,-12 964,-41 964,-41 964,-47 958,-53 952,-53"/>
<text text-anchor="start" x="856.5" y="-37.8" font-family="Helvetica,sans-Serif" font-size="14.00" fill="#000000">mse = 0.008</text>
<text text-anchor="start" x="853" y="-22.8" font-family="Helvetica,sans-Serif" font-size="14.00" fill="#000000">samples = 35</text>
<text text-anchor="start" x="850" y="-7.8" font-family="Helvetica,sans-Serif" font-size="14.00" fill="#000000">value = &#45;0.076</text>
</g>
<!-- 12&#45;&gt;13 -->
<g id="edge13" class="edge">
<title>12&#45;&gt;13</title>
<path fill="none" stroke="#000000" d="M903,-88.9777C903,-80.7364 903,-71.887 903,-63.5153"/>
<polygon fill="#000000" stroke="#000000" points="906.5001,-63.2484 903,-53.2485 899.5001,-63.2485 906.5001,-63.2484"/>
</g>
<!-- 14 -->
<g id="node15" class="node">
<title>14</title>
<path fill="#ffffff" stroke="#000000" d="M1095.5,-53C1095.5,-53 994.5,-53 994.5,-53 988.5,-53 982.5,-47 982.5,-41 982.5,-41 982.5,-12 982.5,-12 982.5,-6 988.5,0 994.5,0 994.5,0 1095.5,0 1095.5,0 1101.5,0 1107.5,-6 1107.5,-12 1107.5,-12 1107.5,-41 1107.5,-41 1107.5,-47 1101.5,-53 1095.5,-53"/>
<text text-anchor="start" x="998.5" y="-37.8" font-family="Helvetica,sans-Serif" font-size="14.00" fill="#000000">mse = 0.008</text>
<text text-anchor="start" x="990.5" y="-22.8" font-family="Helvetica,sans-Serif" font-size="14.00" fill="#000000">samples = 130</text>
<text text-anchor="start" x="992" y="-7.8" font-family="Helvetica,sans-Serif" font-size="14.00" fill="#000000">value = &#45;0.241</text>
</g>
<!-- 12&#45;&gt;14 -->
<g id="edge14" class="edge">
<title>12&#45;&gt;14</title>
<path fill="none" stroke="#000000" d="M953.0639,-88.9777C967.3469,-79.2713 982.8713,-68.7213 997.0263,-59.1018"/>
<polygon fill="#000000" stroke="#000000" points="999.3359,-61.764 1005.6395,-53.2485 995.4014,-55.9744 999.3359,-61.764"/>
</g>
</g>
</svg>
