<?xml version="1.0" encoding="UTF-8" standalone="no"?>
<!DOCTYPE svg PUBLIC "-//W3C//DTD SVG 1.1//EN"
 "http://www.w3.org/Graphics/SVG/1.1/DTD/svg11.dtd">
<!-- Generated by graphviz version 2.40.1 (20161225.0304)
 -->
<!-- Title: Tree Pages: 1 -->
<svg width="1113pt" height="373pt"
 viewBox="0.00 0.00 1113.00 373.00" xmlns="http://www.w3.org/2000/svg" xmlns:xlink="http://www.w3.org/1999/xlink">
<g id="graph0" class="graph" transform="scale(1 1) rotate(0) translate(4 369)">
<title>Tree</title>
<polygon fill="#ffffff" stroke="transparent" points="-4,4 -4,-369 1109,-369 1109,4 -4,4"/>
<!-- 0 -->
<g id="node1" class="node">
<title>0</title>
<path fill="#efb184" stroke="#000000" d="M600.5,-365C600.5,-365 490.5,-365 490.5,-365 484.5,-365 478.5,-359 478.5,-353 478.5,-353 478.5,-309 478.5,-309 478.5,-303 484.5,-297 490.5,-297 490.5,-297 600.5,-297 600.5,-297 606.5,-297 612.5,-303 612.5,-309 612.5,-309 612.5,-353 612.5,-353 612.5,-359 606.5,-365 600.5,-365"/>
<text text-anchor="start" x="505" y="-349.8" font-family="Helvetica,sans-Serif" font-size="14.00" fill="#000000">X1 ≤ 0.636</text>
<text text-anchor="start" x="499" y="-334.8" font-family="Helvetica,sans-Serif" font-size="14.00" fill="#000000">mse = 0.036</text>
<text text-anchor="start" x="486.5" y="-319.8" font-family="Helvetica,sans-Serif" font-size="14.00" fill="#000000">samples = 1000</text>
<text text-anchor="start" x="499.5" y="-304.8" font-family="Helvetica,sans-Serif" font-size="14.00" fill="#000000">value = 0.03</text>
</g>
<!-- 1 -->
<g id="node2" class="node">
<title>1</title>
<path fill="#e99355" stroke="#000000" d="M456,-261C456,-261 355,-261 355,-261 349,-261 343,-255 343,-249 343,-249 343,-205 343,-205 343,-199 349,-193 355,-193 355,-193 456,-193 456,-193 462,-193 468,-199 468,-205 468,-205 468,-249 468,-249 468,-255 462,-261 456,-261"/>
<text text-anchor="start" x="365" y="-245.8" font-family="Helvetica,sans-Serif" font-size="14.00" fill="#000000">X1 ≤ 0.112</text>
<text text-anchor="start" x="359" y="-230.8" font-family="Helvetica,sans-Serif" font-size="14.00" fill="#000000">mse = 0.017</text>
<text text-anchor="start" x="351" y="-215.8" font-family="Helvetica,sans-Serif" font-size="14.00" fill="#000000">samples = 634</text>
<text text-anchor="start" x="355" y="-200.8" font-family="Helvetica,sans-Serif" font-size="14.00" fill="#000000">value = 0.134</text>
</g>
<!-- 0&#45;&gt;1 -->
<g id="edge1" class="edge">
<title>0&#45;&gt;1</title>
<path fill="none" stroke="#000000" d="M499.6588,-296.9465C486.8471,-287.4293 472.8048,-276.9978 459.5656,-267.163"/>
<polygon fill="#000000" stroke="#000000" points="461.5588,-264.2837 451.4442,-261.13 457.3845,-269.9029 461.5588,-264.2837"/>
<text text-anchor="middle" x="455.0932" y="-282.1623" font-family="Helvetica,sans-Serif" font-size="14.00" fill="#000000">True</text>
</g>
<!-- 8 -->
<g id="node9" class="node">
<title>8</title>
<path fill="#fae5d6" stroke="#000000" d="M737,-261C737,-261 636,-261 636,-261 630,-261 624,-255 624,-249 624,-249 624,-205 624,-205 624,-199 630,-193 636,-193 636,-193 737,-193 737,-193 743,-193 749,-199 749,-205 749,-205 749,-249 749,-249 749,-255 743,-261 737,-261"/>
<text text-anchor="start" x="646" y="-245.8" font-family="Helvetica,sans-Serif" font-size="14.00" fill="#000000">X2 ≤ 0.292</text>
<text text-anchor="start" x="640" y="-230.8" font-family="Helvetica,sans-Serif" font-size="14.00" fill="#000000">mse = 0.017</text>
<text text-anchor="start" x="632" y="-215.8" font-family="Helvetica,sans-Serif" font-size="14.00" fill="#000000">samples = 366</text>
<text text-anchor="start" x="638" y="-200.8" font-family="Helvetica,sans-Serif" font-size="14.00" fill="#000000">value = &#45;0.15</text>
</g>
<!-- 0&#45;&gt;8 -->
<g id="edge8" class="edge">
<title>0&#45;&gt;8</title>
<path fill="none" stroke="#000000" d="M591.6687,-296.9465C604.5719,-287.4293 618.7145,-276.9978 632.0483,-267.163"/>
<polygon fill="#000000" stroke="#000000" points="634.2575,-269.8826 640.2276,-261.13 630.1023,-264.2492 634.2575,-269.8826"/>
<text text-anchor="middle" x="636.4944" y="-282.1497" font-family="Helvetica,sans-Serif" font-size="14.00" fill="#000000">False</text>
</g>
<!-- 2 -->
<g id="node3" class="node">
<title>2</title>
<path fill="#eeaf81" stroke="#000000" d="M244,-157C244,-157 143,-157 143,-157 137,-157 131,-151 131,-145 131,-145 131,-101 131,-101 131,-95 137,-89 143,-89 143,-89 244,-89 244,-89 250,-89 256,-95 256,-101 256,-101 256,-145 256,-145 256,-151 250,-157 244,-157"/>
<text text-anchor="start" x="153" y="-141.8" font-family="Helvetica,sans-Serif" font-size="14.00" fill="#000000">X1 ≤ 0.068</text>
<text text-anchor="start" x="147" y="-126.8" font-family="Helvetica,sans-Serif" font-size="14.00" fill="#000000">mse = 0.013</text>
<text text-anchor="start" x="139" y="-111.8" font-family="Helvetica,sans-Serif" font-size="14.00" fill="#000000">samples = 120</text>
<text text-anchor="start" x="143" y="-96.8" font-family="Helvetica,sans-Serif" font-size="14.00" fill="#000000">value = 0.037</text>
</g>
<!-- 1&#45;&gt;2 -->
<g id="edge2" class="edge">
<title>1&#45;&gt;2</title>
<path fill="none" stroke="#000000" d="M342.7535,-196.2187C318.3951,-184.2693 290.3586,-170.5156 265.2086,-158.1778"/>
<polygon fill="#000000" stroke="#000000" points="266.6049,-154.9644 256.0855,-153.7023 263.5219,-161.2489 266.6049,-154.9644"/>
</g>
<!-- 5 -->
<g id="node6" class="node">
<title>5</title>
<path fill="#e78c4b" stroke="#000000" d="M456,-157C456,-157 355,-157 355,-157 349,-157 343,-151 343,-145 343,-145 343,-101 343,-101 343,-95 349,-89 355,-89 355,-89 456,-89 456,-89 462,-89 468,-95 468,-101 468,-101 468,-145 468,-145 468,-151 462,-157 456,-157"/>
<text text-anchor="start" x="365" y="-141.8" font-family="Helvetica,sans-Serif" font-size="14.00" fill="#000000">X2 ≤ 0.381</text>
<text text-anchor="start" x="359" y="-126.8" font-family="Helvetica,sans-Serif" font-size="14.00" fill="#000000">mse = 0.015</text>
<text text-anchor="start" x="351" y="-111.8" font-family="Helvetica,sans-Serif" font-size="14.00" fill="#000000">samples = 514</text>
<text text-anchor="start" x="355" y="-96.8" font-family="Helvetica,sans-Serif" font-size="14.00" fill="#000000">value = 0.157</text>
</g>
<!-- 1&#45;&gt;5 -->
<g id="edge5" class="edge">
<title>1&#45;&gt;5</title>
<path fill="none" stroke="#000000" d="M405.5,-192.9465C405.5,-184.776 405.5,-175.9318 405.5,-167.3697"/>
<polygon fill="#000000" stroke="#000000" points="409.0001,-167.13 405.5,-157.13 402.0001,-167.13 409.0001,-167.13"/>
</g>
<!-- 3 -->
<g id="node4" class="node">
<title>3</title>
<path fill="#f0b88f" stroke="#000000" d="M105,-53C105,-53 12,-53 12,-53 6,-53 0,-47 0,-41 0,-41 0,-12 0,-12 0,-6 6,0 12,0 12,0 105,0 105,0 111,0 117,-6 117,-12 117,-12 117,-41 117,-41 117,-47 111,-53 105,-53"/>
<text text-anchor="start" x="12" y="-37.8" font-family="Helvetica,sans-Serif" font-size="14.00" fill="#000000">mse = 0.011</text>
<text text-anchor="start" x="8.5" y="-22.8" font-family="Helvetica,sans-Serif" font-size="14.00" fill="#000000">samples = 68</text>
<text text-anchor="start" x="8" y="-7.8" font-family="Helvetica,sans-Serif" font-size="14.00" fill="#000000">value = 0.006</text>
</g>
<!-- 2&#45;&gt;3 -->
<g id="edge3" class="edge">
<title>2&#45;&gt;3</title>
<path fill="none" stroke="#000000" d="M145.9041,-88.9777C132.3252,-79.2713 117.5661,-68.7213 104.1088,-59.1018"/>
<polygon fill="#000000" stroke="#000000" points="106.0908,-56.2164 95.9202,-53.2485 102.0201,-61.9111 106.0908,-56.2164"/>
</g>
<!-- 4 -->
<g id="node5" class="node">
<title>4</title>
<path fill="#eca36e" stroke="#000000" d="M240,-53C240,-53 147,-53 147,-53 141,-53 135,-47 135,-41 135,-41 135,-12 135,-12 135,-6 141,0 147,0 147,0 240,0 240,0 246,0 252,-6 252,-12 252,-12 252,-41 252,-41 252,-47 246,-53 240,-53"/>
<text text-anchor="start" x="147" y="-37.8" font-family="Helvetica,sans-Serif" font-size="14.00" fill="#000000">mse = 0.012</text>
<text text-anchor="start" x="143.5" y="-22.8" font-family="Helvetica,sans-Serif" font-size="14.00" fill="#000000">samples = 52</text>
<text text-anchor="start" x="143" y="-7.8" font-family="Helvetica,sans-Serif" font-size="14.00" fill="#000000">value = 0.078</text>
</g>
<!-- 2&#45;&gt;4 -->
<g id="edge4" class="edge">
<title>2&#45;&gt;4</title>
<path fill="none" stroke="#000000" d="M193.5,-88.9777C193.5,-80.7364 193.5,-71.887 193.5,-63.5153"/>
<polygon fill="#000000" stroke="#000000" points="197.0001,-63.2484 193.5,-53.2485 190.0001,-63.2485 197.0001,-63.2484"/>
</g>
<!-- 6 -->
<g id="node7" class="node">
<title>6</title>
<path fill="#eba069" stroke="#000000" d="M383,-53C383,-53 282,-53 282,-53 276,-53 270,-47 270,-41 270,-41 270,-12 270,-12 270,-6 276,0 282,0 282,0 383,0 383,0 389,0 395,-6 395,-12 395,-12 395,-41 395,-41 395,-47 389,-53 383,-53"/>
<text text-anchor="start" x="286" y="-37.8" font-family="Helvetica,sans-Serif" font-size="14.00" fill="#000000">mse = 0.011</text>
<text text-anchor="start" x="278" y="-22.8" font-family="Helvetica,sans-Serif" font-size="14.00" fill="#000000">samples = 188</text>
<text text-anchor="start" x="282" y="-7.8" font-family="Helvetica,sans-Serif" font-size="14.00" fill="#000000">value = 0.089</text>
</g>
<!-- 5&#45;&gt;6 -->
<g id="edge6" class="edge">
<title>5&#45;&gt;6</title>
<path fill="none" stroke="#000000" d="M379.7629,-88.9777C372.9744,-80.0039 365.6404,-70.3089 358.8216,-61.295"/>
<polygon fill="#000000" stroke="#000000" points="361.559,-59.1121 352.7346,-53.2485 355.9763,-63.3352 361.559,-59.1121"/>
</g>
<!-- 7 -->
<g id="node8" class="node">
<title>7</title>
<path fill="#e58139" stroke="#000000" d="M526,-53C526,-53 425,-53 425,-53 419,-53 413,-47 413,-41 413,-41 413,-12 413,-12 413,-6 419,0 425,0 425,0 526,0 526,0 532,0 538,-6 538,-12 538,-12 538,-41 538,-41 538,-47 532,-53 526,-53"/>
<text text-anchor="start" x="429" y="-37.8" font-family="Helvetica,sans-Serif" font-size="14.00" fill="#000000">mse = 0.013</text>
<text text-anchor="start" x="421" y="-22.8" font-family="Helvetica,sans-Serif" font-size="14.00" fill="#000000">samples = 326</text>
<text text-anchor="start" x="425" y="-7.8" font-family="Helvetica,sans-Serif" font-size="14.00" fill="#000000">value = 0.195</text>
</g>
<!-- 5&#45;&gt;7 -->
<g id="edge7" class="edge">
<title>5&#45;&gt;7</title>
<path fill="none" stroke="#000000" d="M430.1794,-88.9777C436.6225,-80.0954 443.578,-70.5067 450.0598,-61.5711"/>
<polygon fill="#000000" stroke="#000000" points="453.0583,-63.3982 456.097,-53.2485 447.3921,-59.288 453.0583,-63.3982"/>
</g>
<!-- 9 -->
<g id="node10" class="node">
<title>9</title>
<path fill="#f4c8a9" stroke="#000000" d="M737,-157C737,-157 636,-157 636,-157 630,-157 624,-151 624,-145 624,-145 624,-101 624,-101 624,-95 630,-89 636,-89 636,-89 737,-89 737,-89 743,-89 749,-95 749,-101 749,-101 749,-145 749,-145 749,-151 743,-157 737,-157"/>
<text text-anchor="start" x="646" y="-141.8" font-family="Helvetica,sans-Serif" font-size="14.00" fill="#000000">X2 ≤ 0.075</text>
<text text-anchor="start" x="640" y="-126.8" font-family="Helvetica,sans-Serif" font-size="14.00" fill="#000000">mse = 0.012</text>
<text text-anchor="start" x="632" y="-111.8" font-family="Helvetica,sans-Serif" font-size="14.00" fill="#000000">samples = 100</text>
<text text-anchor="start" x="633.5" y="-96.8" font-family="Helvetica,sans-Serif" font-size="14.00" fill="#000000">value = &#45;0.051</text>
</g>
<!-- 8&#45;&gt;9 -->
<g id="edge9" class="edge">
<title>8&#45;&gt;9</title>
<path fill="none" stroke="#000000" d="M686.5,-192.9465C686.5,-184.776 686.5,-175.9318 686.5,-167.3697"/>
<polygon fill="#000000" stroke="#000000" points="690.0001,-167.13 686.5,-157.13 683.0001,-167.13 690.0001,-167.13"/>
</g>
<!-- 12 -->
<g id="node13" class="node">
<title>12</title>
<path fill="#fcf0e7" stroke="#000000" d="M950,-157C950,-157 849,-157 849,-157 843,-157 837,-151 837,-145 837,-145 837,-101 837,-101 837,-95 843,-89 849,-89 849,-89 950,-89 950,-89 956,-89 962,-95 962,-101 962,-101 962,-145 962,-145 962,-151 956,-157 950,-157"/>
<text text-anchor="start" x="859" y="-141.8" font-family="Helvetica,sans-Serif" font-size="14.00" fill="#000000">X1 ≤ 0.793</text>
<text text-anchor="start" x="853" y="-126.8" font-family="Helvetica,sans-Serif" font-size="14.00" fill="#000000">mse = 0.013</text>
<text text-anchor="start" x="845" y="-111.8" font-family="Helvetica,sans-Serif" font-size="14.00" fill="#000000">samples = 266</text>
<text text-anchor="start" x="846.5" y="-96.8" font-family="Helvetica,sans-Serif" font-size="14.00" fill="#000000">value = &#45;0.187</text>
</g>
<!-- 8&#45;&gt;12 -->
<g id="edge12" class="edge">
<title>8&#45;&gt;12</title>
<path fill="none" stroke="#000000" d="M749.255,-196.3591C773.8458,-184.3523 802.2027,-170.5067 827.6108,-158.1008"/>
<polygon fill="#000000" stroke="#000000" points="829.3754,-161.1342 836.8258,-153.6015 826.3041,-154.844 829.3754,-161.1342"/>
</g>
<!-- 10 -->
<g id="node11" class="node">
<title>10</title>
<path fill="#f1bc95" stroke="#000000" d="M666.5,-53C666.5,-53 568.5,-53 568.5,-53 562.5,-53 556.5,-47 556.5,-41 556.5,-41 556.5,-12 556.5,-12 556.5,-6 562.5,0 568.5,0 568.5,0 666.5,0 666.5,0 672.5,0 678.5,-6 678.5,-12 678.5,-12 678.5,-41 678.5,-41 678.5,-47 672.5,-53 666.5,-53"/>
<text text-anchor="start" x="571" y="-37.8" font-family="Helvetica,sans-Serif" font-size="14.00" fill="#000000">mse = 0.008</text>
<text text-anchor="start" x="567.5" y="-22.8" font-family="Helvetica,sans-Serif" font-size="14.00" fill="#000000">samples = 36</text>
<text text-anchor="start" x="564.5" y="-7.8" font-family="Helvetica,sans-Serif" font-size="14.00" fill="#000000">value = &#45;0.008</text>
</g>
<!-- 9&#45;&gt;10 -->
<g id="edge10" class="edge">
<title>9&#45;&gt;10</title>
<path fill="none" stroke="#000000" d="M662.1732,-88.9777C655.8221,-80.0954 648.966,-70.5067 642.5768,-61.5711"/>
<polygon fill="#000000" stroke="#000000" points="645.2893,-59.3472 636.6259,-53.2485 639.5952,-63.4187 645.2893,-59.3472"/>
</g>
<!-- 11 -->
<g id="node12" class="node">
<title>11</title>
<path fill="#f5d0b4" stroke="#000000" d="M806.5,-53C806.5,-53 708.5,-53 708.5,-53 702.5,-53 696.5,-47 696.5,-41 696.5,-41 696.5,-12 696.5,-12 696.5,-6 702.5,0 708.5,0 708.5,0 806.5,0 806.5,0 812.5,0 818.5,-6 818.5,-12 818.5,-12 818.5,-41 818.5,-41 818.5,-47 812.5,-53 806.5,-53"/>
<text text-anchor="start" x="711" y="-37.8" font-family="Helvetica,sans-Serif" font-size="14.00" fill="#000000">mse = 0.012</text>
<text text-anchor="start" x="707.5" y="-22.8" font-family="Helvetica,sans-Serif" font-size="14.00" fill="#000000">samples = 64</text>
<text text-anchor="start" x="704.5" y="-7.8" font-family="Helvetica,sans-Serif" font-size="14.00" fill="#000000">value = &#45;0.076</text>
</g>
<!-- 9&#45;&gt;11 -->
<g id="edge11" class="edge">
<title>9&#45;&gt;11</title>
<path fill="none" stroke="#000000" d="M711.5319,-88.9777C718.0671,-80.0954 725.122,-70.5067 731.6964,-61.5711"/>
<polygon fill="#000000" stroke="#000000" points="734.7126,-63.3775 737.8198,-53.2485 729.0743,-59.229 734.7126,-63.3775"/>
</g>
<!-- 13 -->
<g id="node14" class="node">
<title>13</title>
<path fill="#f7d9c4" stroke="#000000" d="M950,-53C950,-53 849,-53 849,-53 843,-53 837,-47 837,-41 837,-41 837,-12 837,-12 837,-6 843,0 849,0 849,0 950,0 950,0 956,0 962,-6 962,-12 962,-12 962,-41 962,-41 962,-47 956,-53 950,-53"/>
<text text-anchor="start" x="857.5" y="-37.8" font-family="Helvetica,sans-Serif" font-size="14.00" fill="#000000">mse = 0.01</text>
<text text-anchor="start" x="845" y="-22.8" font-family="Helvetica,sans-Serif" font-size="14.00" fill="#000000">samples = 109</text>
<text text-anchor="start" x="851" y="-7.8" font-family="Helvetica,sans-Serif" font-size="14.00" fill="#000000">value = &#45;0.11</text>
</g>
<!-- 12&#45;&gt;13 -->
<g id="edge13" class="edge">
<title>12&#45;&gt;13</title>
<path fill="none" stroke="#000000" d="M899.5,-88.9777C899.5,-80.7364 899.5,-71.887 899.5,-63.5153"/>
<polygon fill="#000000" stroke="#000000" points="903.0001,-63.2484 899.5,-53.2485 896.0001,-63.2485 903.0001,-63.2484"/>
</g>
<!-- 14 -->
<g id="node15" class="node">
<title>14</title>
<path fill="#ffffff" stroke="#000000" d="M1093,-53C1093,-53 992,-53 992,-53 986,-53 980,-47 980,-41 980,-41 980,-12 980,-12 980,-6 986,0 992,0 992,0 1093,0 1093,0 1099,0 1105,-6 1105,-12 1105,-12 1105,-41 1105,-41 1105,-47 1099,-53 1093,-53"/>
<text text-anchor="start" x="996" y="-37.8" font-family="Helvetica,sans-Serif" font-size="14.00" fill="#000000">mse = 0.009</text>
<text text-anchor="start" x="988" y="-22.8" font-family="Helvetica,sans-Serif" font-size="14.00" fill="#000000">samples = 157</text>
<text text-anchor="start" x="994" y="-7.8" font-family="Helvetica,sans-Serif" font-size="14.00" fill="#000000">value = &#45;0.24</text>
</g>
<!-- 12&#45;&gt;14 -->
<g id="edge14" class="edge">
<title>12&#45;&gt;14</title>
<path fill="none" stroke="#000000" d="M949.9165,-88.9777C964.3,-79.2713 979.9337,-68.7213 994.1885,-59.1018"/>
<polygon fill="#000000" stroke="#000000" points="996.531,-61.7435 1002.8624,-53.2485 992.6154,-55.941 996.531,-61.7435"/>
</g>
</g>
</svg>
