<?xml version="1.0" encoding="UTF-8" standalone="no"?>
<!DOCTYPE svg PUBLIC "-//W3C//DTD SVG 1.1//EN"
 "http://www.w3.org/Graphics/SVG/1.1/DTD/svg11.dtd">
<!-- Generated by graphviz version 2.40.1 (20161225.0304)
 -->
<!-- Title: Tree Pages: 1 -->
<svg width="1113pt" height="373pt"
 viewBox="0.00 0.00 1113.00 373.00" xmlns="http://www.w3.org/2000/svg" xmlns:xlink="http://www.w3.org/1999/xlink">
<g id="graph0" class="graph" transform="scale(1 1) rotate(0) translate(4 369)">
<title>Tree</title>
<polygon fill="#ffffff" stroke="transparent" points="-4,4 -4,-369 1109,-369 1109,4 -4,4"/>
<!-- 0 -->
<g id="node1" class="node">
<title>0</title>
<path fill="#efb185" stroke="#000000" d="M600.5,-365C600.5,-365 490.5,-365 490.5,-365 484.5,-365 478.5,-359 478.5,-353 478.5,-353 478.5,-309 478.5,-309 478.5,-303 484.5,-297 490.5,-297 490.5,-297 600.5,-297 600.5,-297 606.5,-297 612.5,-303 612.5,-309 612.5,-309 612.5,-353 612.5,-353 612.5,-359 606.5,-365 600.5,-365"/>
<text text-anchor="start" x="505" y="-349.8" font-family="Helvetica,sans-Serif" font-size="14.00" fill="#000000">X1 ≤ 0.634</text>
<text text-anchor="start" x="499" y="-334.8" font-family="Helvetica,sans-Serif" font-size="14.00" fill="#000000">mse = 0.033</text>
<text text-anchor="start" x="486.5" y="-319.8" font-family="Helvetica,sans-Serif" font-size="14.00" fill="#000000">samples = 1000</text>
<text text-anchor="start" x="495" y="-304.8" font-family="Helvetica,sans-Serif" font-size="14.00" fill="#000000">value = 0.028</text>
</g>
<!-- 1 -->
<g id="node2" class="node">
<title>1</title>
<path fill="#e99355" stroke="#000000" d="M460,-261C460,-261 359,-261 359,-261 353,-261 347,-255 347,-249 347,-249 347,-205 347,-205 347,-199 353,-193 359,-193 359,-193 460,-193 460,-193 466,-193 472,-199 472,-205 472,-205 472,-249 472,-249 472,-255 466,-261 460,-261"/>
<text text-anchor="start" x="369" y="-245.8" font-family="Helvetica,sans-Serif" font-size="14.00" fill="#000000">X2 ≤ 0.338</text>
<text text-anchor="start" x="363" y="-230.8" font-family="Helvetica,sans-Serif" font-size="14.00" fill="#000000">mse = 0.018</text>
<text text-anchor="start" x="355" y="-215.8" font-family="Helvetica,sans-Serif" font-size="14.00" fill="#000000">samples = 632</text>
<text text-anchor="start" x="359" y="-200.8" font-family="Helvetica,sans-Serif" font-size="14.00" fill="#000000">value = 0.126</text>
</g>
<!-- 0&#45;&gt;1 -->
<g id="edge1" class="edge">
<title>0&#45;&gt;1</title>
<path fill="none" stroke="#000000" d="M500.9685,-296.9465C488.6403,-287.519 475.1391,-277.1946 462.385,-267.4415"/>
<polygon fill="#000000" stroke="#000000" points="464.2012,-264.4243 454.1315,-261.13 459.949,-269.9848 464.2012,-264.4243"/>
<text text-anchor="middle" x="457.4356" y="-282.2107" font-family="Helvetica,sans-Serif" font-size="14.00" fill="#000000">True</text>
</g>
<!-- 8 -->
<g id="node9" class="node">
<title>8</title>
<path fill="#fae6d7" stroke="#000000" d="M737,-261C737,-261 636,-261 636,-261 630,-261 624,-255 624,-249 624,-249 624,-205 624,-205 624,-199 630,-193 636,-193 636,-193 737,-193 737,-193 743,-193 749,-199 749,-205 749,-205 749,-249 749,-249 749,-255 743,-261 737,-261"/>
<text text-anchor="start" x="646" y="-245.8" font-family="Helvetica,sans-Serif" font-size="14.00" fill="#000000">X1 ≤ 0.731</text>
<text text-anchor="start" x="640" y="-230.8" font-family="Helvetica,sans-Serif" font-size="14.00" fill="#000000">mse = 0.015</text>
<text text-anchor="start" x="632" y="-215.8" font-family="Helvetica,sans-Serif" font-size="14.00" fill="#000000">samples = 368</text>
<text text-anchor="start" x="633.5" y="-200.8" font-family="Helvetica,sans-Serif" font-size="14.00" fill="#000000">value = &#45;0.141</text>
</g>
<!-- 0&#45;&gt;8 -->
<g id="edge8" class="edge">
<title>0&#45;&gt;8</title>
<path fill="none" stroke="#000000" d="M591.6687,-296.9465C604.5719,-287.4293 618.7145,-276.9978 632.0483,-267.163"/>
<polygon fill="#000000" stroke="#000000" points="634.2575,-269.8826 640.2276,-261.13 630.1023,-264.2492 634.2575,-269.8826"/>
<text text-anchor="middle" x="636.4944" y="-282.1497" font-family="Helvetica,sans-Serif" font-size="14.00" fill="#000000">False</text>
</g>
<!-- 2 -->
<g id="node3" class="node">
<title>2</title>
<path fill="#eeab7a" stroke="#000000" d="M252,-157C252,-157 151,-157 151,-157 145,-157 139,-151 139,-145 139,-145 139,-101 139,-101 139,-95 145,-89 151,-89 151,-89 252,-89 252,-89 258,-89 264,-95 264,-101 264,-101 264,-145 264,-145 264,-151 258,-157 252,-157"/>
<text text-anchor="start" x="161" y="-141.8" font-family="Helvetica,sans-Serif" font-size="14.00" fill="#000000">X2 ≤ 0.189</text>
<text text-anchor="start" x="155" y="-126.8" font-family="Helvetica,sans-Serif" font-size="14.00" fill="#000000">mse = 0.014</text>
<text text-anchor="start" x="147" y="-111.8" font-family="Helvetica,sans-Serif" font-size="14.00" fill="#000000">samples = 194</text>
<text text-anchor="start" x="155.5" y="-96.8" font-family="Helvetica,sans-Serif" font-size="14.00" fill="#000000">value = 0.05</text>
</g>
<!-- 1&#45;&gt;2 -->
<g id="edge2" class="edge">
<title>1&#45;&gt;2</title>
<path fill="none" stroke="#000000" d="M346.8111,-195.6555C323.5824,-184.0412 297.0706,-170.7853 273.1076,-158.8038"/>
<polygon fill="#000000" stroke="#000000" points="274.5701,-155.622 264.0605,-154.2803 271.4395,-161.883 274.5701,-155.622"/>
</g>
<!-- 5 -->
<g id="node6" class="node">
<title>5</title>
<path fill="#e78945" stroke="#000000" d="M460,-157C460,-157 359,-157 359,-157 353,-157 347,-151 347,-145 347,-145 347,-101 347,-101 347,-95 353,-89 359,-89 359,-89 460,-89 460,-89 466,-89 472,-95 472,-101 472,-101 472,-145 472,-145 472,-151 466,-157 460,-157"/>
<text text-anchor="start" x="369" y="-141.8" font-family="Helvetica,sans-Serif" font-size="14.00" fill="#000000">X1 ≤ 0.099</text>
<text text-anchor="start" x="363" y="-126.8" font-family="Helvetica,sans-Serif" font-size="14.00" fill="#000000">mse = 0.016</text>
<text text-anchor="start" x="355" y="-111.8" font-family="Helvetica,sans-Serif" font-size="14.00" fill="#000000">samples = 438</text>
<text text-anchor="start" x="359" y="-96.8" font-family="Helvetica,sans-Serif" font-size="14.00" fill="#000000">value = 0.159</text>
</g>
<!-- 1&#45;&gt;5 -->
<g id="edge5" class="edge">
<title>1&#45;&gt;5</title>
<path fill="none" stroke="#000000" d="M409.5,-192.9465C409.5,-184.776 409.5,-175.9318 409.5,-167.3697"/>
<polygon fill="#000000" stroke="#000000" points="413.0001,-167.13 409.5,-157.13 406.0001,-167.13 413.0001,-167.13"/>
</g>
<!-- 3 -->
<g id="node4" class="node">
<title>3</title>
<path fill="#f0b48a" stroke="#000000" d="M113,-53C113,-53 12,-53 12,-53 6,-53 0,-47 0,-41 0,-41 0,-12 0,-12 0,-6 6,0 12,0 12,0 113,0 113,0 119,0 125,-6 125,-12 125,-12 125,-41 125,-41 125,-47 119,-53 113,-53"/>
<text text-anchor="start" x="16" y="-37.8" font-family="Helvetica,sans-Serif" font-size="14.00" fill="#000000">mse = 0.012</text>
<text text-anchor="start" x="8" y="-22.8" font-family="Helvetica,sans-Serif" font-size="14.00" fill="#000000">samples = 112</text>
<text text-anchor="start" x="12" y="-7.8" font-family="Helvetica,sans-Serif" font-size="14.00" fill="#000000">value = 0.018</text>
</g>
<!-- 2&#45;&gt;3 -->
<g id="edge3" class="edge">
<title>2&#45;&gt;3</title>
<path fill="none" stroke="#000000" d="M152.4938,-88.9777C138.5126,-79.2713 123.3162,-68.7213 109.4602,-59.1018"/>
<polygon fill="#000000" stroke="#000000" points="111.2394,-56.0763 101.0289,-53.2485 107.2474,-61.8264 111.2394,-56.0763"/>
</g>
<!-- 4 -->
<g id="node5" class="node">
<title>4</title>
<path fill="#eb9d65" stroke="#000000" d="M248,-53C248,-53 155,-53 155,-53 149,-53 143,-47 143,-41 143,-41 143,-12 143,-12 143,-6 149,0 155,0 155,0 248,0 248,0 254,0 260,-6 260,-12 260,-12 260,-41 260,-41 260,-47 254,-53 248,-53"/>
<text text-anchor="start" x="155" y="-37.8" font-family="Helvetica,sans-Serif" font-size="14.00" fill="#000000">mse = 0.013</text>
<text text-anchor="start" x="151.5" y="-22.8" font-family="Helvetica,sans-Serif" font-size="14.00" fill="#000000">samples = 82</text>
<text text-anchor="start" x="151" y="-7.8" font-family="Helvetica,sans-Serif" font-size="14.00" fill="#000000">value = 0.094</text>
</g>
<!-- 2&#45;&gt;4 -->
<g id="edge4" class="edge">
<title>2&#45;&gt;4</title>
<path fill="none" stroke="#000000" d="M201.5,-88.9777C201.5,-80.7364 201.5,-71.887 201.5,-63.5153"/>
<polygon fill="#000000" stroke="#000000" points="205.0001,-63.2484 201.5,-53.2485 198.0001,-63.2485 205.0001,-63.2484"/>
</g>
<!-- 6 -->
<g id="node7" class="node">
<title>6</title>
<path fill="#eeac7d" stroke="#000000" d="M383,-53C383,-53 290,-53 290,-53 284,-53 278,-47 278,-41 278,-41 278,-12 278,-12 278,-6 284,0 290,0 290,0 383,0 383,0 389,0 395,-6 395,-12 395,-12 395,-41 395,-41 395,-47 389,-53 383,-53"/>
<text text-anchor="start" x="294.5" y="-37.8" font-family="Helvetica,sans-Serif" font-size="14.00" fill="#000000">mse = 0.01</text>
<text text-anchor="start" x="286.5" y="-22.8" font-family="Helvetica,sans-Serif" font-size="14.00" fill="#000000">samples = 77</text>
<text text-anchor="start" x="286" y="-7.8" font-family="Helvetica,sans-Serif" font-size="14.00" fill="#000000">value = 0.045</text>
</g>
<!-- 5&#45;&gt;6 -->
<g id="edge6" class="edge">
<title>5&#45;&gt;6</title>
<path fill="none" stroke="#000000" d="M383.7629,-88.9777C376.9744,-80.0039 369.6404,-70.3089 362.8216,-61.295"/>
<polygon fill="#000000" stroke="#000000" points="365.559,-59.1121 356.7346,-53.2485 359.9763,-63.3352 365.559,-59.1121"/>
</g>
<!-- 7 -->
<g id="node8" class="node">
<title>7</title>
<path fill="#e58139" stroke="#000000" d="M526,-53C526,-53 425,-53 425,-53 419,-53 413,-47 413,-41 413,-41 413,-12 413,-12 413,-6 419,0 425,0 425,0 526,0 526,0 532,0 538,-6 538,-12 538,-12 538,-41 538,-41 538,-47 532,-53 526,-53"/>
<text text-anchor="start" x="429" y="-37.8" font-family="Helvetica,sans-Serif" font-size="14.00" fill="#000000">mse = 0.014</text>
<text text-anchor="start" x="421" y="-22.8" font-family="Helvetica,sans-Serif" font-size="14.00" fill="#000000">samples = 361</text>
<text text-anchor="start" x="425" y="-7.8" font-family="Helvetica,sans-Serif" font-size="14.00" fill="#000000">value = 0.184</text>
</g>
<!-- 5&#45;&gt;7 -->
<g id="edge7" class="edge">
<title>5&#45;&gt;7</title>
<path fill="none" stroke="#000000" d="M432.7691,-88.9777C438.844,-80.0954 445.4021,-70.5067 451.5135,-61.5711"/>
<polygon fill="#000000" stroke="#000000" points="454.4493,-63.4785 457.2057,-53.2485 448.6714,-59.5267 454.4493,-63.4785"/>
</g>
<!-- 9 -->
<g id="node10" class="node">
<title>9</title>
<path fill="#f5cdb0" stroke="#000000" d="M737,-157C737,-157 636,-157 636,-157 630,-157 624,-151 624,-145 624,-145 624,-101 624,-101 624,-95 630,-89 636,-89 636,-89 737,-89 737,-89 743,-89 749,-95 749,-101 749,-101 749,-145 749,-145 749,-151 743,-157 737,-157"/>
<text text-anchor="start" x="646" y="-141.8" font-family="Helvetica,sans-Serif" font-size="14.00" fill="#000000">X2 ≤ 0.201</text>
<text text-anchor="start" x="640" y="-126.8" font-family="Helvetica,sans-Serif" font-size="14.00" fill="#000000">mse = 0.011</text>
<text text-anchor="start" x="632" y="-111.8" font-family="Helvetica,sans-Serif" font-size="14.00" fill="#000000">samples = 103</text>
<text text-anchor="start" x="638" y="-96.8" font-family="Helvetica,sans-Serif" font-size="14.00" fill="#000000">value = &#45;0.06</text>
</g>
<!-- 8&#45;&gt;9 -->
<g id="edge9" class="edge">
<title>8&#45;&gt;9</title>
<path fill="none" stroke="#000000" d="M686.5,-192.9465C686.5,-184.776 686.5,-175.9318 686.5,-167.3697"/>
<polygon fill="#000000" stroke="#000000" points="690.0001,-167.13 686.5,-157.13 683.0001,-167.13 690.0001,-167.13"/>
</g>
<!-- 12 -->
<g id="node13" class="node">
<title>12</title>
<path fill="#fcefe7" stroke="#000000" d="M950,-157C950,-157 849,-157 849,-157 843,-157 837,-151 837,-145 837,-145 837,-101 837,-101 837,-95 843,-89 849,-89 849,-89 950,-89 950,-89 956,-89 962,-95 962,-101 962,-101 962,-145 962,-145 962,-151 956,-157 950,-157"/>
<text text-anchor="start" x="859" y="-141.8" font-family="Helvetica,sans-Serif" font-size="14.00" fill="#000000">X2 ≤ 0.447</text>
<text text-anchor="start" x="853" y="-126.8" font-family="Helvetica,sans-Serif" font-size="14.00" fill="#000000">mse = 0.014</text>
<text text-anchor="start" x="845" y="-111.8" font-family="Helvetica,sans-Serif" font-size="14.00" fill="#000000">samples = 265</text>
<text text-anchor="start" x="846.5" y="-96.8" font-family="Helvetica,sans-Serif" font-size="14.00" fill="#000000">value = &#45;0.172</text>
</g>
<!-- 8&#45;&gt;12 -->
<g id="edge12" class="edge">
<title>8&#45;&gt;12</title>
<path fill="none" stroke="#000000" d="M749.255,-196.3591C773.8458,-184.3523 802.2027,-170.5067 827.6108,-158.1008"/>
<polygon fill="#000000" stroke="#000000" points="829.3754,-161.1342 836.8258,-153.6015 826.3041,-154.844 829.3754,-161.1342"/>
</g>
<!-- 10 -->
<g id="node11" class="node">
<title>10</title>
<path fill="#f2be99" stroke="#000000" d="M666.5,-53C666.5,-53 568.5,-53 568.5,-53 562.5,-53 556.5,-47 556.5,-41 556.5,-41 556.5,-12 556.5,-12 556.5,-6 562.5,0 568.5,0 568.5,0 666.5,0 666.5,0 672.5,0 678.5,-6 678.5,-12 678.5,-12 678.5,-41 678.5,-41 678.5,-47 672.5,-53 666.5,-53"/>
<text text-anchor="start" x="571" y="-37.8" font-family="Helvetica,sans-Serif" font-size="14.00" fill="#000000">mse = 0.006</text>
<text text-anchor="start" x="567.5" y="-22.8" font-family="Helvetica,sans-Serif" font-size="14.00" fill="#000000">samples = 25</text>
<text text-anchor="start" x="564.5" y="-7.8" font-family="Helvetica,sans-Serif" font-size="14.00" fill="#000000">value = &#45;0.012</text>
</g>
<!-- 9&#45;&gt;10 -->
<g id="edge10" class="edge">
<title>9&#45;&gt;10</title>
<path fill="none" stroke="#000000" d="M662.1732,-88.9777C655.8221,-80.0954 648.966,-70.5067 642.5768,-61.5711"/>
<polygon fill="#000000" stroke="#000000" points="645.2893,-59.3472 636.6259,-53.2485 639.5952,-63.4187 645.2893,-59.3472"/>
</g>
<!-- 11 -->
<g id="node12" class="node">
<title>11</title>
<path fill="#f6d2b8" stroke="#000000" d="M806.5,-53C806.5,-53 708.5,-53 708.5,-53 702.5,-53 696.5,-47 696.5,-41 696.5,-41 696.5,-12 696.5,-12 696.5,-6 702.5,0 708.5,0 708.5,0 806.5,0 806.5,0 812.5,0 818.5,-6 818.5,-12 818.5,-12 818.5,-41 818.5,-41 818.5,-47 812.5,-53 806.5,-53"/>
<text text-anchor="start" x="711" y="-37.8" font-family="Helvetica,sans-Serif" font-size="14.00" fill="#000000">mse = 0.011</text>
<text text-anchor="start" x="707.5" y="-22.8" font-family="Helvetica,sans-Serif" font-size="14.00" fill="#000000">samples = 78</text>
<text text-anchor="start" x="704.5" y="-7.8" font-family="Helvetica,sans-Serif" font-size="14.00" fill="#000000">value = &#45;0.076</text>
</g>
<!-- 9&#45;&gt;11 -->
<g id="edge11" class="edge">
<title>9&#45;&gt;11</title>
<path fill="none" stroke="#000000" d="M711.5319,-88.9777C718.0671,-80.0954 725.122,-70.5067 731.6964,-61.5711"/>
<polygon fill="#000000" stroke="#000000" points="734.7126,-63.3775 737.8198,-53.2485 729.0743,-59.229 734.7126,-63.3775"/>
</g>
<!-- 13 -->
<g id="node14" class="node">
<title>13</title>
<path fill="#f8ddc9" stroke="#000000" d="M950,-53C950,-53 849,-53 849,-53 843,-53 837,-47 837,-41 837,-41 837,-12 837,-12 837,-6 843,0 849,0 849,0 950,0 950,0 956,0 962,-6 962,-12 962,-12 962,-41 962,-41 962,-47 956,-53 950,-53"/>
<text text-anchor="start" x="853" y="-37.8" font-family="Helvetica,sans-Serif" font-size="14.00" fill="#000000">mse = 0.011</text>
<text text-anchor="start" x="845" y="-22.8" font-family="Helvetica,sans-Serif" font-size="14.00" fill="#000000">samples = 120</text>
<text text-anchor="start" x="846.5" y="-7.8" font-family="Helvetica,sans-Serif" font-size="14.00" fill="#000000">value = &#45;0.111</text>
</g>
<!-- 12&#45;&gt;13 -->
<g id="edge13" class="edge">
<title>12&#45;&gt;13</title>
<path fill="none" stroke="#000000" d="M899.5,-88.9777C899.5,-80.7364 899.5,-71.887 899.5,-63.5153"/>
<polygon fill="#000000" stroke="#000000" points="903.0001,-63.2484 899.5,-53.2485 896.0001,-63.2485 903.0001,-63.2484"/>
</g>
<!-- 14 -->
<g id="node15" class="node">
<title>14</title>
<path fill="#ffffff" stroke="#000000" d="M1093,-53C1093,-53 992,-53 992,-53 986,-53 980,-47 980,-41 980,-41 980,-12 980,-12 980,-6 986,0 992,0 992,0 1093,0 1093,0 1099,0 1105,-6 1105,-12 1105,-12 1105,-41 1105,-41 1105,-47 1099,-53 1093,-53"/>
<text text-anchor="start" x="1000.5" y="-37.8" font-family="Helvetica,sans-Serif" font-size="14.00" fill="#000000">mse = 0.01</text>
<text text-anchor="start" x="988" y="-22.8" font-family="Helvetica,sans-Serif" font-size="14.00" fill="#000000">samples = 145</text>
<text text-anchor="start" x="989.5" y="-7.8" font-family="Helvetica,sans-Serif" font-size="14.00" fill="#000000">value = &#45;0.222</text>
</g>
<!-- 12&#45;&gt;14 -->
<g id="edge14" class="edge">
<title>12&#45;&gt;14</title>
<path fill="none" stroke="#000000" d="M949.9165,-88.9777C964.3,-79.2713 979.9337,-68.7213 994.1885,-59.1018"/>
<polygon fill="#000000" stroke="#000000" points="996.531,-61.7435 1002.8624,-53.2485 992.6154,-55.941 996.531,-61.7435"/>
</g>
</g>
</svg>
