<?xml version="1.0" encoding="UTF-8" standalone="no"?>
<!DOCTYPE svg PUBLIC "-//W3C//DTD SVG 1.1//EN"
 "http://www.w3.org/Graphics/SVG/1.1/DTD/svg11.dtd">
<!-- Generated by graphviz version 2.40.1 (20161225.0304)
 -->
<!-- Title: Tree Pages: 1 -->
<svg width="1096pt" height="373pt"
 viewBox="0.00 0.00 1096.00 373.00" xmlns="http://www.w3.org/2000/svg" xmlns:xlink="http://www.w3.org/1999/xlink">
<g id="graph0" class="graph" transform="scale(1 1) rotate(0) translate(4 369)">
<title>Tree</title>
<polygon fill="#ffffff" stroke="transparent" points="-4,4 -4,-369 1092,-369 1092,4 -4,4"/>
<!-- 0 -->
<g id="node1" class="node">
<title>0</title>
<path fill="#eeae7f" stroke="#000000" d="M592.5,-365C592.5,-365 482.5,-365 482.5,-365 476.5,-365 470.5,-359 470.5,-353 470.5,-353 470.5,-309 470.5,-309 470.5,-303 476.5,-297 482.5,-297 482.5,-297 592.5,-297 592.5,-297 598.5,-297 604.5,-303 604.5,-309 604.5,-309 604.5,-353 604.5,-353 604.5,-359 598.5,-365 592.5,-365"/>
<text text-anchor="start" x="497" y="-349.8" font-family="Helvetica,sans-Serif" font-size="14.00" fill="#000000">X1 ≤ 0.629</text>
<text text-anchor="start" x="491" y="-334.8" font-family="Helvetica,sans-Serif" font-size="14.00" fill="#000000">mse = 0.035</text>
<text text-anchor="start" x="478.5" y="-319.8" font-family="Helvetica,sans-Serif" font-size="14.00" fill="#000000">samples = 1000</text>
<text text-anchor="start" x="487" y="-304.8" font-family="Helvetica,sans-Serif" font-size="14.00" fill="#000000">value = 0.036</text>
</g>
<!-- 1 -->
<g id="node2" class="node">
<title>1</title>
<path fill="#e88f4f" stroke="#000000" d="M454,-261C454,-261 353,-261 353,-261 347,-261 341,-255 341,-249 341,-249 341,-205 341,-205 341,-199 347,-193 353,-193 353,-193 454,-193 454,-193 460,-193 466,-199 466,-205 466,-205 466,-249 466,-249 466,-255 460,-261 454,-261"/>
<text text-anchor="start" x="363" y="-245.8" font-family="Helvetica,sans-Serif" font-size="14.00" fill="#000000">X1 ≤ 0.525</text>
<text text-anchor="start" x="357" y="-230.8" font-family="Helvetica,sans-Serif" font-size="14.00" fill="#000000">mse = 0.017</text>
<text text-anchor="start" x="349" y="-215.8" font-family="Helvetica,sans-Serif" font-size="14.00" fill="#000000">samples = 641</text>
<text text-anchor="start" x="353" y="-200.8" font-family="Helvetica,sans-Serif" font-size="14.00" fill="#000000">value = 0.135</text>
</g>
<!-- 0&#45;&gt;1 -->
<g id="edge1" class="edge">
<title>0&#45;&gt;1</title>
<path fill="none" stroke="#000000" d="M493.6234,-296.9465C481.4765,-287.519 468.1738,-277.1946 455.6073,-267.4415"/>
<polygon fill="#000000" stroke="#000000" points="457.521,-264.4963 447.4752,-261.13 453.2291,-270.0262 457.521,-264.4963"/>
<text text-anchor="middle" x="450.6017" y="-282.2337" font-family="Helvetica,sans-Serif" font-size="14.00" fill="#000000">True</text>
</g>
<!-- 8 -->
<g id="node9" class="node">
<title>8</title>
<path fill="#fae5d5" stroke="#000000" d="M727,-261C727,-261 626,-261 626,-261 620,-261 614,-255 614,-249 614,-249 614,-205 614,-205 614,-199 620,-193 626,-193 626,-193 727,-193 727,-193 733,-193 739,-199 739,-205 739,-205 739,-249 739,-249 739,-255 733,-261 727,-261"/>
<text text-anchor="start" x="640.5" y="-245.8" font-family="Helvetica,sans-Serif" font-size="14.00" fill="#000000">X1 ≤ 0.77</text>
<text text-anchor="start" x="630" y="-230.8" font-family="Helvetica,sans-Serif" font-size="14.00" fill="#000000">mse = 0.019</text>
<text text-anchor="start" x="622" y="-215.8" font-family="Helvetica,sans-Serif" font-size="14.00" fill="#000000">samples = 359</text>
<text text-anchor="start" x="623.5" y="-200.8" font-family="Helvetica,sans-Serif" font-size="14.00" fill="#000000">value = &#45;0.141</text>
</g>
<!-- 0&#45;&gt;8 -->
<g id="edge8" class="edge">
<title>0&#45;&gt;8</title>
<path fill="none" stroke="#000000" d="M583.0138,-296.9465C595.734,-287.4293 609.676,-276.9978 622.8206,-267.163"/>
<polygon fill="#000000" stroke="#000000" points="624.9738,-269.9232 630.8839,-261.13 620.7802,-264.3184 624.9738,-269.9232"/>
<text text-anchor="middle" x="627.3199" y="-282.1746" font-family="Helvetica,sans-Serif" font-size="14.00" fill="#000000">False</text>
</g>
<!-- 2 -->
<g id="node3" class="node">
<title>2</title>
<path fill="#e78845" stroke="#000000" d="M248,-157C248,-157 147,-157 147,-157 141,-157 135,-151 135,-145 135,-145 135,-101 135,-101 135,-95 141,-89 147,-89 147,-89 248,-89 248,-89 254,-89 260,-95 260,-101 260,-101 260,-145 260,-145 260,-151 254,-157 248,-157"/>
<text text-anchor="start" x="157" y="-141.8" font-family="Helvetica,sans-Serif" font-size="14.00" fill="#000000">X1 ≤ 0.103</text>
<text text-anchor="start" x="151" y="-126.8" font-family="Helvetica,sans-Serif" font-size="14.00" fill="#000000">mse = 0.017</text>
<text text-anchor="start" x="143" y="-111.8" font-family="Helvetica,sans-Serif" font-size="14.00" fill="#000000">samples = 522</text>
<text text-anchor="start" x="147" y="-96.8" font-family="Helvetica,sans-Serif" font-size="14.00" fill="#000000">value = 0.155</text>
</g>
<!-- 1&#45;&gt;2 -->
<g id="edge2" class="edge">
<title>1&#45;&gt;2</title>
<path fill="none" stroke="#000000" d="M340.8542,-195.373C318.2822,-183.9774 292.6389,-171.0313 269.3431,-159.2703"/>
<polygon fill="#000000" stroke="#000000" points="270.707,-156.0382 260.2027,-154.6557 267.5522,-162.287 270.707,-156.0382"/>
</g>
<!-- 5 -->
<g id="node6" class="node">
<title>5</title>
<path fill="#eeab7a" stroke="#000000" d="M454,-157C454,-157 353,-157 353,-157 347,-157 341,-151 341,-145 341,-145 341,-101 341,-101 341,-95 347,-89 353,-89 353,-89 454,-89 454,-89 460,-89 466,-95 466,-101 466,-101 466,-145 466,-145 466,-151 460,-157 454,-157"/>
<text text-anchor="start" x="363" y="-141.8" font-family="Helvetica,sans-Serif" font-size="14.00" fill="#000000">X2 ≤ 0.419</text>
<text text-anchor="start" x="361.5" y="-126.8" font-family="Helvetica,sans-Serif" font-size="14.00" fill="#000000">mse = 0.01</text>
<text text-anchor="start" x="349" y="-111.8" font-family="Helvetica,sans-Serif" font-size="14.00" fill="#000000">samples = 119</text>
<text text-anchor="start" x="353" y="-96.8" font-family="Helvetica,sans-Serif" font-size="14.00" fill="#000000">value = 0.045</text>
</g>
<!-- 1&#45;&gt;5 -->
<g id="edge5" class="edge">
<title>1&#45;&gt;5</title>
<path fill="none" stroke="#000000" d="M403.5,-192.9465C403.5,-184.776 403.5,-175.9318 403.5,-167.3697"/>
<polygon fill="#000000" stroke="#000000" points="407.0001,-167.13 403.5,-157.13 400.0001,-167.13 407.0001,-167.13"/>
</g>
<!-- 3 -->
<g id="node4" class="node">
<title>3</title>
<path fill="#eeac7c" stroke="#000000" d="M105,-53C105,-53 12,-53 12,-53 6,-53 0,-47 0,-41 0,-41 0,-12 0,-12 0,-6 6,0 12,0 12,0 105,0 105,0 111,0 117,-6 117,-12 117,-12 117,-41 117,-41 117,-47 111,-53 105,-53"/>
<text text-anchor="start" x="16.5" y="-37.8" font-family="Helvetica,sans-Serif" font-size="14.00" fill="#000000">mse = 0.01</text>
<text text-anchor="start" x="8.5" y="-22.8" font-family="Helvetica,sans-Serif" font-size="14.00" fill="#000000">samples = 90</text>
<text text-anchor="start" x="8" y="-7.8" font-family="Helvetica,sans-Serif" font-size="14.00" fill="#000000">value = 0.041</text>
</g>
<!-- 2&#45;&gt;3 -->
<g id="edge3" class="edge">
<title>2&#45;&gt;3</title>
<path fill="none" stroke="#000000" d="M148.4938,-88.9777C134.5126,-79.2713 119.3162,-68.7213 105.4602,-59.1018"/>
<polygon fill="#000000" stroke="#000000" points="107.2394,-56.0763 97.0289,-53.2485 103.2474,-61.8264 107.2394,-56.0763"/>
</g>
<!-- 4 -->
<g id="node5" class="node">
<title>4</title>
<path fill="#e58139" stroke="#000000" d="M248,-53C248,-53 147,-53 147,-53 141,-53 135,-47 135,-41 135,-41 135,-12 135,-12 135,-6 141,0 147,0 147,0 248,0 248,0 254,0 260,-6 260,-12 260,-12 260,-41 260,-41 260,-47 254,-53 248,-53"/>
<text text-anchor="start" x="151" y="-37.8" font-family="Helvetica,sans-Serif" font-size="14.00" fill="#000000">mse = 0.015</text>
<text text-anchor="start" x="143" y="-22.8" font-family="Helvetica,sans-Serif" font-size="14.00" fill="#000000">samples = 432</text>
<text text-anchor="start" x="147" y="-7.8" font-family="Helvetica,sans-Serif" font-size="14.00" fill="#000000">value = 0.179</text>
</g>
<!-- 2&#45;&gt;4 -->
<g id="edge4" class="edge">
<title>2&#45;&gt;4</title>
<path fill="none" stroke="#000000" d="M197.5,-88.9777C197.5,-80.7364 197.5,-71.887 197.5,-63.5153"/>
<polygon fill="#000000" stroke="#000000" points="201.0001,-63.2484 197.5,-53.2485 194.0001,-63.2485 201.0001,-63.2484"/>
</g>
<!-- 6 -->
<g id="node7" class="node">
<title>6</title>
<path fill="#efb286" stroke="#000000" d="M382.5,-53C382.5,-53 290.5,-53 290.5,-53 284.5,-53 278.5,-47 278.5,-41 278.5,-41 278.5,-12 278.5,-12 278.5,-6 284.5,0 290.5,0 290.5,0 382.5,0 382.5,0 388.5,0 394.5,-6 394.5,-12 394.5,-12 394.5,-41 394.5,-41 394.5,-47 388.5,-53 382.5,-53"/>
<text text-anchor="start" x="290" y="-37.8" font-family="Helvetica,sans-Serif" font-size="14.00" fill="#000000">mse = 0.008</text>
<text text-anchor="start" x="286.5" y="-22.8" font-family="Helvetica,sans-Serif" font-size="14.00" fill="#000000">samples = 42</text>
<text text-anchor="start" x="290.5" y="-7.8" font-family="Helvetica,sans-Serif" font-size="14.00" fill="#000000">value = 0.02</text>
</g>
<!-- 5&#45;&gt;6 -->
<g id="edge6" class="edge">
<title>5&#45;&gt;6</title>
<path fill="none" stroke="#000000" d="M379.8783,-88.9777C373.7113,-80.0954 367.0539,-70.5067 360.8499,-61.5711"/>
<polygon fill="#000000" stroke="#000000" points="363.6497,-59.4666 355.0715,-53.2485 357.8997,-63.4589 363.6497,-59.4666"/>
</g>
<!-- 7 -->
<g id="node8" class="node">
<title>7</title>
<path fill="#eda674" stroke="#000000" d="M518,-53C518,-53 425,-53 425,-53 419,-53 413,-47 413,-41 413,-41 413,-12 413,-12 413,-6 419,0 425,0 425,0 518,0 518,0 524,0 530,-6 530,-12 530,-12 530,-41 530,-41 530,-47 524,-53 518,-53"/>
<text text-anchor="start" x="425" y="-37.8" font-family="Helvetica,sans-Serif" font-size="14.00" fill="#000000">mse = 0.011</text>
<text text-anchor="start" x="421.5" y="-22.8" font-family="Helvetica,sans-Serif" font-size="14.00" fill="#000000">samples = 77</text>
<text text-anchor="start" x="421" y="-7.8" font-family="Helvetica,sans-Serif" font-size="14.00" fill="#000000">value = 0.058</text>
</g>
<!-- 5&#45;&gt;7 -->
<g id="edge7" class="edge">
<title>5&#45;&gt;7</title>
<path fill="none" stroke="#000000" d="M427.4743,-88.9777C433.7333,-80.0954 440.4901,-70.5067 446.7867,-61.5711"/>
<polygon fill="#000000" stroke="#000000" points="449.7521,-63.4389 452.6513,-53.2485 444.0301,-59.4068 449.7521,-63.4389"/>
</g>
<!-- 9 -->
<g id="node10" class="node">
<title>9</title>
<path fill="#f4caab" stroke="#000000" d="M727,-157C727,-157 626,-157 626,-157 620,-157 614,-151 614,-145 614,-145 614,-101 614,-101 614,-95 620,-89 626,-89 626,-89 727,-89 727,-89 733,-89 739,-95 739,-101 739,-101 739,-145 739,-145 739,-151 733,-157 727,-157"/>
<text text-anchor="start" x="636" y="-141.8" font-family="Helvetica,sans-Serif" font-size="14.00" fill="#000000">X2 ≤ 0.647</text>
<text text-anchor="start" x="630" y="-126.8" font-family="Helvetica,sans-Serif" font-size="14.00" fill="#000000">mse = 0.015</text>
<text text-anchor="start" x="622" y="-111.8" font-family="Helvetica,sans-Serif" font-size="14.00" fill="#000000">samples = 134</text>
<text text-anchor="start" x="623.5" y="-96.8" font-family="Helvetica,sans-Serif" font-size="14.00" fill="#000000">value = &#45;0.055</text>
</g>
<!-- 8&#45;&gt;9 -->
<g id="edge9" class="edge">
<title>8&#45;&gt;9</title>
<path fill="none" stroke="#000000" d="M676.5,-192.9465C676.5,-184.776 676.5,-175.9318 676.5,-167.3697"/>
<polygon fill="#000000" stroke="#000000" points="680.0001,-167.13 676.5,-157.13 673.0001,-167.13 680.0001,-167.13"/>
</g>
<!-- 12 -->
<g id="node13" class="node">
<title>12</title>
<path fill="#fdf4ee" stroke="#000000" d="M937,-157C937,-157 836,-157 836,-157 830,-157 824,-151 824,-145 824,-145 824,-101 824,-101 824,-95 830,-89 836,-89 836,-89 937,-89 937,-89 943,-89 949,-95 949,-101 949,-101 949,-145 949,-145 949,-151 943,-157 937,-157"/>
<text text-anchor="start" x="846" y="-141.8" font-family="Helvetica,sans-Serif" font-size="14.00" fill="#000000">X2 ≤ 0.229</text>
<text text-anchor="start" x="840" y="-126.8" font-family="Helvetica,sans-Serif" font-size="14.00" fill="#000000">mse = 0.014</text>
<text text-anchor="start" x="832" y="-111.8" font-family="Helvetica,sans-Serif" font-size="14.00" fill="#000000">samples = 225</text>
<text text-anchor="start" x="833.5" y="-96.8" font-family="Helvetica,sans-Serif" font-size="14.00" fill="#000000">value = &#45;0.192</text>
</g>
<!-- 8&#45;&gt;12 -->
<g id="edge12" class="edge">
<title>8&#45;&gt;12</title>
<path fill="none" stroke="#000000" d="M739.2225,-195.9374C762.9066,-184.2081 790.036,-170.7727 814.5037,-158.6553"/>
<polygon fill="#000000" stroke="#000000" points="816.3301,-161.6566 823.7381,-154.0821 813.2235,-155.3837 816.3301,-161.6566"/>
</g>
<!-- 10 -->
<g id="node11" class="node">
<title>10</title>
<path fill="#f2bf9b" stroke="#000000" d="M658.5,-53C658.5,-53 560.5,-53 560.5,-53 554.5,-53 548.5,-47 548.5,-41 548.5,-41 548.5,-12 548.5,-12 548.5,-6 554.5,0 560.5,0 560.5,0 658.5,0 658.5,0 664.5,0 670.5,-6 670.5,-12 670.5,-12 670.5,-41 670.5,-41 670.5,-47 664.5,-53 658.5,-53"/>
<text text-anchor="start" x="563" y="-37.8" font-family="Helvetica,sans-Serif" font-size="14.00" fill="#000000">mse = 0.013</text>
<text text-anchor="start" x="559.5" y="-22.8" font-family="Helvetica,sans-Serif" font-size="14.00" fill="#000000">samples = 85</text>
<text text-anchor="start" x="556.5" y="-7.8" font-family="Helvetica,sans-Serif" font-size="14.00" fill="#000000">value = &#45;0.022</text>
</g>
<!-- 9&#45;&gt;10 -->
<g id="edge10" class="edge">
<title>9&#45;&gt;10</title>
<path fill="none" stroke="#000000" d="M652.8783,-88.9777C646.7113,-80.0954 640.0539,-70.5067 633.8499,-61.5711"/>
<polygon fill="#000000" stroke="#000000" points="636.6497,-59.4666 628.0715,-53.2485 630.8997,-63.4589 636.6497,-59.4666"/>
</g>
<!-- 11 -->
<g id="node12" class="node">
<title>11</title>
<path fill="#f8dcc8" stroke="#000000" d="M798.5,-53C798.5,-53 700.5,-53 700.5,-53 694.5,-53 688.5,-47 688.5,-41 688.5,-41 688.5,-12 688.5,-12 688.5,-6 694.5,0 700.5,0 700.5,0 798.5,0 798.5,0 804.5,0 810.5,-6 810.5,-12 810.5,-12 810.5,-41 810.5,-41 810.5,-47 804.5,-53 798.5,-53"/>
<text text-anchor="start" x="703" y="-37.8" font-family="Helvetica,sans-Serif" font-size="14.00" fill="#000000">mse = 0.012</text>
<text text-anchor="start" x="699.5" y="-22.8" font-family="Helvetica,sans-Serif" font-size="14.00" fill="#000000">samples = 49</text>
<text text-anchor="start" x="696.5" y="-7.8" font-family="Helvetica,sans-Serif" font-size="14.00" fill="#000000">value = &#45;0.113</text>
</g>
<!-- 9&#45;&gt;11 -->
<g id="edge11" class="edge">
<title>9&#45;&gt;11</title>
<path fill="none" stroke="#000000" d="M702.2371,-88.9777C709.0256,-80.0039 716.3596,-70.3089 723.1784,-61.295"/>
<polygon fill="#000000" stroke="#000000" points="726.0237,-63.3352 729.2654,-53.2485 720.441,-59.1121 726.0237,-63.3352"/>
</g>
<!-- 13 -->
<g id="node14" class="node">
<title>13</title>
<path fill="#f3c5a4" stroke="#000000" d="M932.5,-53C932.5,-53 840.5,-53 840.5,-53 834.5,-53 828.5,-47 828.5,-41 828.5,-41 828.5,-12 828.5,-12 828.5,-6 834.5,0 840.5,0 840.5,0 932.5,0 932.5,0 938.5,0 944.5,-6 944.5,-12 944.5,-12 944.5,-41 944.5,-41 944.5,-47 938.5,-53 932.5,-53"/>
<text text-anchor="start" x="840" y="-37.8" font-family="Helvetica,sans-Serif" font-size="14.00" fill="#000000">mse = 0.005</text>
<text text-anchor="start" x="836.5" y="-22.8" font-family="Helvetica,sans-Serif" font-size="14.00" fill="#000000">samples = 41</text>
<text text-anchor="start" x="838" y="-7.8" font-family="Helvetica,sans-Serif" font-size="14.00" fill="#000000">value = &#45;0.04</text>
</g>
<!-- 12&#45;&gt;13 -->
<g id="edge13" class="edge">
<title>12&#45;&gt;13</title>
<path fill="none" stroke="#000000" d="M886.5,-88.9777C886.5,-80.7364 886.5,-71.887 886.5,-63.5153"/>
<polygon fill="#000000" stroke="#000000" points="890.0001,-63.2484 886.5,-53.2485 883.0001,-63.2485 890.0001,-63.2484"/>
</g>
<!-- 14 -->
<g id="node15" class="node">
<title>14</title>
<path fill="#ffffff" stroke="#000000" d="M1076,-53C1076,-53 975,-53 975,-53 969,-53 963,-47 963,-41 963,-41 963,-12 963,-12 963,-6 969,0 975,0 975,0 1076,0 1076,0 1082,0 1088,-6 1088,-12 1088,-12 1088,-41 1088,-41 1088,-47 1082,-53 1076,-53"/>
<text text-anchor="start" x="983.5" y="-37.8" font-family="Helvetica,sans-Serif" font-size="14.00" fill="#000000">mse = 0.01</text>
<text text-anchor="start" x="971" y="-22.8" font-family="Helvetica,sans-Serif" font-size="14.00" fill="#000000">samples = 184</text>
<text text-anchor="start" x="972.5" y="-7.8" font-family="Helvetica,sans-Serif" font-size="14.00" fill="#000000">value = &#45;0.226</text>
</g>
<!-- 12&#45;&gt;14 -->
<g id="edge14" class="edge">
<title>12&#45;&gt;14</title>
<path fill="none" stroke="#000000" d="M935.5062,-88.9777C949.4874,-79.2713 964.6838,-68.7213 978.5398,-59.1018"/>
<polygon fill="#000000" stroke="#000000" points="980.7526,-61.8264 986.9711,-53.2485 976.7606,-56.0763 980.7526,-61.8264"/>
</g>
</g>
</svg>
