<?xml version="1.0" encoding="UTF-8" standalone="no"?>
<!DOCTYPE svg PUBLIC "-//W3C//DTD SVG 1.1//EN"
 "http://www.w3.org/Graphics/SVG/1.1/DTD/svg11.dtd">
<!-- Generated by graphviz version 2.40.1 (20161225.0304)
 -->
<!-- Title: Tree Pages: 1 -->
<svg width="1114pt" height="373pt"
 viewBox="0.00 0.00 1114.00 373.00" xmlns="http://www.w3.org/2000/svg" xmlns:xlink="http://www.w3.org/1999/xlink">
<g id="graph0" class="graph" transform="scale(1 1) rotate(0) translate(4 369)">
<title>Tree</title>
<polygon fill="#ffffff" stroke="transparent" points="-4,4 -4,-369 1110,-369 1110,4 -4,4"/>
<!-- 0 -->
<g id="node1" class="node">
<title>0</title>
<path fill="#f0b68c" stroke="#000000" d="M600.5,-365C600.5,-365 490.5,-365 490.5,-365 484.5,-365 478.5,-359 478.5,-353 478.5,-353 478.5,-309 478.5,-309 478.5,-303 484.5,-297 490.5,-297 490.5,-297 600.5,-297 600.5,-297 606.5,-297 612.5,-303 612.5,-309 612.5,-309 612.5,-353 612.5,-353 612.5,-359 606.5,-365 600.5,-365"/>
<text text-anchor="start" x="505" y="-349.8" font-family="Helvetica,sans-Serif" font-size="14.00" fill="#000000">X1 ≤ 0.602</text>
<text text-anchor="start" x="499" y="-334.8" font-family="Helvetica,sans-Serif" font-size="14.00" fill="#000000">mse = 0.037</text>
<text text-anchor="start" x="486.5" y="-319.8" font-family="Helvetica,sans-Serif" font-size="14.00" fill="#000000">samples = 1000</text>
<text text-anchor="start" x="495" y="-304.8" font-family="Helvetica,sans-Serif" font-size="14.00" fill="#000000">value = 0.017</text>
</g>
<!-- 1 -->
<g id="node2" class="node">
<title>1</title>
<path fill="#e99558" stroke="#000000" d="M458,-261C458,-261 357,-261 357,-261 351,-261 345,-255 345,-249 345,-249 345,-205 345,-205 345,-199 351,-193 357,-193 357,-193 458,-193 458,-193 464,-193 470,-199 470,-205 470,-205 470,-249 470,-249 470,-255 464,-261 458,-261"/>
<text text-anchor="start" x="367" y="-245.8" font-family="Helvetica,sans-Serif" font-size="14.00" fill="#000000">X2 ≤ 0.367</text>
<text text-anchor="start" x="361" y="-230.8" font-family="Helvetica,sans-Serif" font-size="14.00" fill="#000000">mse = 0.016</text>
<text text-anchor="start" x="353" y="-215.8" font-family="Helvetica,sans-Serif" font-size="14.00" fill="#000000">samples = 593</text>
<text text-anchor="start" x="357" y="-200.8" font-family="Helvetica,sans-Serif" font-size="14.00" fill="#000000">value = 0.134</text>
</g>
<!-- 0&#45;&gt;1 -->
<g id="edge1" class="edge">
<title>0&#45;&gt;1</title>
<path fill="none" stroke="#000000" d="M500.3136,-296.9465C487.685,-287.4293 473.8433,-276.9978 460.7932,-267.163"/>
<polygon fill="#000000" stroke="#000000" points="462.8805,-264.3534 452.7879,-261.13 458.6675,-269.9437 462.8805,-264.3534"/>
<text text-anchor="middle" x="456.2661" y="-282.1869" font-family="Helvetica,sans-Serif" font-size="14.00" fill="#000000">True</text>
</g>
<!-- 8 -->
<g id="node9" class="node">
<title>8</title>
<path fill="#fae6d7" stroke="#000000" d="M738,-261C738,-261 637,-261 637,-261 631,-261 625,-255 625,-249 625,-249 625,-205 625,-205 625,-199 631,-193 637,-193 637,-193 738,-193 738,-193 744,-193 750,-199 750,-205 750,-205 750,-249 750,-249 750,-255 744,-261 738,-261"/>
<text text-anchor="start" x="647" y="-245.8" font-family="Helvetica,sans-Serif" font-size="14.00" fill="#000000">X1 ≤ 0.809</text>
<text text-anchor="start" x="641" y="-230.8" font-family="Helvetica,sans-Serif" font-size="14.00" fill="#000000">mse = 0.019</text>
<text text-anchor="start" x="633" y="-215.8" font-family="Helvetica,sans-Serif" font-size="14.00" fill="#000000">samples = 407</text>
<text text-anchor="start" x="634.5" y="-200.8" font-family="Helvetica,sans-Serif" font-size="14.00" fill="#000000">value = &#45;0.154</text>
</g>
<!-- 0&#45;&gt;8 -->
<g id="edge8" class="edge">
<title>0&#45;&gt;8</title>
<path fill="none" stroke="#000000" d="M591.9961,-296.9465C604.9908,-287.4293 619.2337,-276.9978 632.6621,-267.163"/>
<polygon fill="#000000" stroke="#000000" points="634.8998,-269.8624 640.8994,-261.13 630.7637,-264.2151 634.8998,-269.8624"/>
<text text-anchor="middle" x="637.0829" y="-282.137" font-family="Helvetica,sans-Serif" font-size="14.00" fill="#000000">False</text>
</g>
<!-- 2 -->
<g id="node3" class="node">
<title>2</title>
<path fill="#eda775" stroke="#000000" d="M248,-157C248,-157 147,-157 147,-157 141,-157 135,-151 135,-145 135,-145 135,-101 135,-101 135,-95 141,-89 147,-89 147,-89 248,-89 248,-89 254,-89 260,-95 260,-101 260,-101 260,-145 260,-145 260,-151 254,-157 248,-157"/>
<text text-anchor="start" x="157" y="-141.8" font-family="Helvetica,sans-Serif" font-size="14.00" fill="#000000">X2 ≤ 0.072</text>
<text text-anchor="start" x="155.5" y="-126.8" font-family="Helvetica,sans-Serif" font-size="14.00" fill="#000000">mse = 0.01</text>
<text text-anchor="start" x="143" y="-111.8" font-family="Helvetica,sans-Serif" font-size="14.00" fill="#000000">samples = 214</text>
<text text-anchor="start" x="147" y="-96.8" font-family="Helvetica,sans-Serif" font-size="14.00" fill="#000000">value = 0.068</text>
</g>
<!-- 1&#45;&gt;2 -->
<g id="edge2" class="edge">
<title>1&#45;&gt;2</title>
<path fill="none" stroke="#000000" d="M344.7775,-195.9374C321.0934,-184.2081 293.964,-170.7727 269.4963,-158.6553"/>
<polygon fill="#000000" stroke="#000000" points="270.7765,-155.3837 260.2619,-154.0821 267.6699,-161.6566 270.7765,-155.3837"/>
</g>
<!-- 5 -->
<g id="node6" class="node">
<title>5</title>
<path fill="#e78a47" stroke="#000000" d="M458,-157C458,-157 357,-157 357,-157 351,-157 345,-151 345,-145 345,-145 345,-101 345,-101 345,-95 351,-89 357,-89 357,-89 458,-89 458,-89 464,-89 470,-95 470,-101 470,-101 470,-145 470,-145 470,-151 464,-157 458,-157"/>
<text text-anchor="start" x="371.5" y="-141.8" font-family="Helvetica,sans-Serif" font-size="14.00" fill="#000000">X1 ≤ 0.15</text>
<text text-anchor="start" x="361" y="-126.8" font-family="Helvetica,sans-Serif" font-size="14.00" fill="#000000">mse = 0.015</text>
<text text-anchor="start" x="353" y="-111.8" font-family="Helvetica,sans-Serif" font-size="14.00" fill="#000000">samples = 379</text>
<text text-anchor="start" x="357" y="-96.8" font-family="Helvetica,sans-Serif" font-size="14.00" fill="#000000">value = 0.171</text>
</g>
<!-- 1&#45;&gt;5 -->
<g id="edge5" class="edge">
<title>1&#45;&gt;5</title>
<path fill="none" stroke="#000000" d="M407.5,-192.9465C407.5,-184.776 407.5,-175.9318 407.5,-167.3697"/>
<polygon fill="#000000" stroke="#000000" points="411.0001,-167.13 407.5,-157.13 404.0001,-167.13 411.0001,-167.13"/>
</g>
<!-- 3 -->
<g id="node4" class="node">
<title>3</title>
<path fill="#f1ba93" stroke="#000000" d="M105,-53C105,-53 12,-53 12,-53 6,-53 0,-47 0,-41 0,-41 0,-12 0,-12 0,-6 6,0 12,0 12,0 105,0 105,0 111,0 117,-6 117,-12 117,-12 117,-41 117,-41 117,-47 111,-53 105,-53"/>
<text text-anchor="start" x="12" y="-37.8" font-family="Helvetica,sans-Serif" font-size="14.00" fill="#000000">mse = 0.006</text>
<text text-anchor="start" x="8.5" y="-22.8" font-family="Helvetica,sans-Serif" font-size="14.00" fill="#000000">samples = 40</text>
<text text-anchor="start" x="8" y="-7.8" font-family="Helvetica,sans-Serif" font-size="14.00" fill="#000000">value = 0.001</text>
</g>
<!-- 2&#45;&gt;3 -->
<g id="edge3" class="edge">
<title>2&#45;&gt;3</title>
<path fill="none" stroke="#000000" d="M148.4938,-88.9777C134.5126,-79.2713 119.3162,-68.7213 105.4602,-59.1018"/>
<polygon fill="#000000" stroke="#000000" points="107.2394,-56.0763 97.0289,-53.2485 103.2474,-61.8264 107.2394,-56.0763"/>
</g>
<!-- 4 -->
<g id="node5" class="node">
<title>4</title>
<path fill="#eca36e" stroke="#000000" d="M248,-53C248,-53 147,-53 147,-53 141,-53 135,-47 135,-41 135,-41 135,-12 135,-12 135,-6 141,0 147,0 147,0 248,0 248,0 254,0 260,-6 260,-12 260,-12 260,-41 260,-41 260,-47 254,-53 248,-53"/>
<text text-anchor="start" x="155.5" y="-37.8" font-family="Helvetica,sans-Serif" font-size="14.00" fill="#000000">mse = 0.01</text>
<text text-anchor="start" x="143" y="-22.8" font-family="Helvetica,sans-Serif" font-size="14.00" fill="#000000">samples = 174</text>
<text text-anchor="start" x="147" y="-7.8" font-family="Helvetica,sans-Serif" font-size="14.00" fill="#000000">value = 0.083</text>
</g>
<!-- 2&#45;&gt;4 -->
<g id="edge4" class="edge">
<title>2&#45;&gt;4</title>
<path fill="none" stroke="#000000" d="M197.5,-88.9777C197.5,-80.7364 197.5,-71.887 197.5,-63.5153"/>
<polygon fill="#000000" stroke="#000000" points="201.0001,-63.2484 197.5,-53.2485 194.0001,-63.2485 201.0001,-63.2484"/>
</g>
<!-- 6 -->
<g id="node7" class="node">
<title>6</title>
<path fill="#eca470" stroke="#000000" d="M383,-53C383,-53 290,-53 290,-53 284,-53 278,-47 278,-41 278,-41 278,-12 278,-12 278,-6 284,0 290,0 290,0 383,0 383,0 389,0 395,-6 395,-12 395,-12 395,-41 395,-41 395,-47 389,-53 383,-53"/>
<text text-anchor="start" x="290" y="-37.8" font-family="Helvetica,sans-Serif" font-size="14.00" fill="#000000">mse = 0.009</text>
<text text-anchor="start" x="286.5" y="-22.8" font-family="Helvetica,sans-Serif" font-size="14.00" fill="#000000">samples = 98</text>
<text text-anchor="start" x="286" y="-7.8" font-family="Helvetica,sans-Serif" font-size="14.00" fill="#000000">value = 0.079</text>
</g>
<!-- 5&#45;&gt;6 -->
<g id="edge6" class="edge">
<title>5&#45;&gt;6</title>
<path fill="none" stroke="#000000" d="M382.4681,-88.9777C375.9329,-80.0954 368.878,-70.5067 362.3036,-61.5711"/>
<polygon fill="#000000" stroke="#000000" points="364.9257,-59.229 356.1802,-53.2485 359.2874,-63.3775 364.9257,-59.229"/>
</g>
<!-- 7 -->
<g id="node8" class="node">
<title>7</title>
<path fill="#e58139" stroke="#000000" d="M526,-53C526,-53 425,-53 425,-53 419,-53 413,-47 413,-41 413,-41 413,-12 413,-12 413,-6 419,0 425,0 425,0 526,0 526,0 532,0 538,-6 538,-12 538,-12 538,-41 538,-41 538,-47 532,-53 526,-53"/>
<text text-anchor="start" x="429" y="-37.8" font-family="Helvetica,sans-Serif" font-size="14.00" fill="#000000">mse = 0.014</text>
<text text-anchor="start" x="421" y="-22.8" font-family="Helvetica,sans-Serif" font-size="14.00" fill="#000000">samples = 281</text>
<text text-anchor="start" x="425" y="-7.8" font-family="Helvetica,sans-Serif" font-size="14.00" fill="#000000">value = 0.203</text>
</g>
<!-- 5&#45;&gt;7 -->
<g id="edge7" class="edge">
<title>5&#45;&gt;7</title>
<path fill="none" stroke="#000000" d="M431.4743,-88.9777C437.7333,-80.0954 444.4901,-70.5067 450.7867,-61.5711"/>
<polygon fill="#000000" stroke="#000000" points="453.7521,-63.4389 456.6513,-53.2485 448.0301,-59.4068 453.7521,-63.4389"/>
</g>
<!-- 9 -->
<g id="node10" class="node">
<title>9</title>
<path fill="#f5d1b6" stroke="#000000" d="M738,-157C738,-157 637,-157 637,-157 631,-157 625,-151 625,-145 625,-145 625,-101 625,-101 625,-95 631,-89 637,-89 637,-89 738,-89 738,-89 744,-89 750,-95 750,-101 750,-101 750,-145 750,-145 750,-151 744,-157 738,-157"/>
<text text-anchor="start" x="647" y="-141.8" font-family="Helvetica,sans-Serif" font-size="14.00" fill="#000000">X1 ≤ 0.672</text>
<text text-anchor="start" x="641" y="-126.8" font-family="Helvetica,sans-Serif" font-size="14.00" fill="#000000">mse = 0.013</text>
<text text-anchor="start" x="633" y="-111.8" font-family="Helvetica,sans-Serif" font-size="14.00" fill="#000000">samples = 192</text>
<text text-anchor="start" x="639" y="-96.8" font-family="Helvetica,sans-Serif" font-size="14.00" fill="#000000">value = &#45;0.08</text>
</g>
<!-- 8&#45;&gt;9 -->
<g id="edge9" class="edge">
<title>8&#45;&gt;9</title>
<path fill="none" stroke="#000000" d="M687.5,-192.9465C687.5,-184.776 687.5,-175.9318 687.5,-167.3697"/>
<polygon fill="#000000" stroke="#000000" points="691.0001,-167.13 687.5,-157.13 684.0001,-167.13 691.0001,-167.13"/>
</g>
<!-- 12 -->
<g id="node13" class="node">
<title>12</title>
<path fill="#fef8f5" stroke="#000000" d="M952,-157C952,-157 851,-157 851,-157 845,-157 839,-151 839,-145 839,-145 839,-101 839,-101 839,-95 845,-89 851,-89 851,-89 952,-89 952,-89 958,-89 964,-95 964,-101 964,-101 964,-145 964,-145 964,-151 958,-157 952,-157"/>
<text text-anchor="start" x="861" y="-141.8" font-family="Helvetica,sans-Serif" font-size="14.00" fill="#000000">X2 ≤ 0.195</text>
<text text-anchor="start" x="855" y="-126.8" font-family="Helvetica,sans-Serif" font-size="14.00" fill="#000000">mse = 0.015</text>
<text text-anchor="start" x="847" y="-111.8" font-family="Helvetica,sans-Serif" font-size="14.00" fill="#000000">samples = 215</text>
<text text-anchor="start" x="853" y="-96.8" font-family="Helvetica,sans-Serif" font-size="14.00" fill="#000000">value = &#45;0.22</text>
</g>
<!-- 8&#45;&gt;12 -->
<g id="edge12" class="edge">
<title>8&#45;&gt;12</title>
<path fill="none" stroke="#000000" d="M750.2611,-196.4993C775.0852,-184.4352 803.7651,-170.4973 829.4326,-158.0234"/>
<polygon fill="#000000" stroke="#000000" points="831.2757,-161.0192 838.74,-153.5002 828.216,-154.7233 831.2757,-161.0192"/>
</g>
<!-- 10 -->
<g id="node11" class="node">
<title>10</title>
<path fill="#f2c09d" stroke="#000000" d="M666.5,-53C666.5,-53 568.5,-53 568.5,-53 562.5,-53 556.5,-47 556.5,-41 556.5,-41 556.5,-12 556.5,-12 556.5,-6 562.5,0 568.5,0 568.5,0 666.5,0 666.5,0 672.5,0 678.5,-6 678.5,-12 678.5,-12 678.5,-41 678.5,-41 678.5,-47 672.5,-53 666.5,-53"/>
<text text-anchor="start" x="575.5" y="-37.8" font-family="Helvetica,sans-Serif" font-size="14.00" fill="#000000">mse = 0.01</text>
<text text-anchor="start" x="567.5" y="-22.8" font-family="Helvetica,sans-Serif" font-size="14.00" fill="#000000">samples = 61</text>
<text text-anchor="start" x="564.5" y="-7.8" font-family="Helvetica,sans-Serif" font-size="14.00" fill="#000000">value = &#45;0.022</text>
</g>
<!-- 9&#45;&gt;10 -->
<g id="edge10" class="edge">
<title>9&#45;&gt;10</title>
<path fill="none" stroke="#000000" d="M662.8206,-88.9777C656.3775,-80.0954 649.422,-70.5067 642.9402,-61.5711"/>
<polygon fill="#000000" stroke="#000000" points="645.6079,-59.288 636.903,-53.2485 639.9417,-63.3982 645.6079,-59.288"/>
</g>
<!-- 11 -->
<g id="node12" class="node">
<title>11</title>
<path fill="#f7d8c2" stroke="#000000" d="M810,-53C810,-53 709,-53 709,-53 703,-53 697,-47 697,-41 697,-41 697,-12 697,-12 697,-6 703,0 709,0 709,0 810,0 810,0 816,0 822,-6 822,-12 822,-12 822,-41 822,-41 822,-47 816,-53 810,-53"/>
<text text-anchor="start" x="713" y="-37.8" font-family="Helvetica,sans-Serif" font-size="14.00" fill="#000000">mse = 0.011</text>
<text text-anchor="start" x="705" y="-22.8" font-family="Helvetica,sans-Serif" font-size="14.00" fill="#000000">samples = 131</text>
<text text-anchor="start" x="706.5" y="-7.8" font-family="Helvetica,sans-Serif" font-size="14.00" fill="#000000">value = &#45;0.107</text>
</g>
<!-- 9&#45;&gt;11 -->
<g id="edge11" class="edge">
<title>9&#45;&gt;11</title>
<path fill="none" stroke="#000000" d="M712.8845,-88.9777C719.58,-80.0039 726.8135,-70.3089 733.539,-61.295"/>
<polygon fill="#000000" stroke="#000000" points="736.3677,-63.3565 739.5426,-53.2485 730.7573,-59.1704 736.3677,-63.3565"/>
</g>
<!-- 13 -->
<g id="node14" class="node">
<title>13</title>
<path fill="#f6d2b9" stroke="#000000" d="M950.5,-53C950.5,-53 852.5,-53 852.5,-53 846.5,-53 840.5,-47 840.5,-41 840.5,-41 840.5,-12 840.5,-12 840.5,-6 846.5,0 852.5,0 852.5,0 950.5,0 950.5,0 956.5,0 962.5,-6 962.5,-12 962.5,-12 962.5,-41 962.5,-41 962.5,-47 956.5,-53 950.5,-53"/>
<text text-anchor="start" x="855" y="-37.8" font-family="Helvetica,sans-Serif" font-size="14.00" fill="#000000">mse = 0.014</text>
<text text-anchor="start" x="851.5" y="-22.8" font-family="Helvetica,sans-Serif" font-size="14.00" fill="#000000">samples = 32</text>
<text text-anchor="start" x="848.5" y="-7.8" font-family="Helvetica,sans-Serif" font-size="14.00" fill="#000000">value = &#45;0.085</text>
</g>
<!-- 12&#45;&gt;13 -->
<g id="edge13" class="edge">
<title>12&#45;&gt;13</title>
<path fill="none" stroke="#000000" d="M901.5,-88.9777C901.5,-80.7364 901.5,-71.887 901.5,-63.5153"/>
<polygon fill="#000000" stroke="#000000" points="905.0001,-63.2484 901.5,-53.2485 898.0001,-63.2485 905.0001,-63.2484"/>
</g>
<!-- 14 -->
<g id="node15" class="node">
<title>14</title>
<path fill="#ffffff" stroke="#000000" d="M1094,-53C1094,-53 993,-53 993,-53 987,-53 981,-47 981,-41 981,-41 981,-12 981,-12 981,-6 987,0 993,0 993,0 1094,0 1094,0 1100,0 1106,-6 1106,-12 1106,-12 1106,-41 1106,-41 1106,-47 1100,-53 1094,-53"/>
<text text-anchor="start" x="997" y="-37.8" font-family="Helvetica,sans-Serif" font-size="14.00" fill="#000000">mse = 0.012</text>
<text text-anchor="start" x="989" y="-22.8" font-family="Helvetica,sans-Serif" font-size="14.00" fill="#000000">samples = 183</text>
<text text-anchor="start" x="990.5" y="-7.8" font-family="Helvetica,sans-Serif" font-size="14.00" fill="#000000">value = &#45;0.244</text>
</g>
<!-- 12&#45;&gt;14 -->
<g id="edge14" class="edge">
<title>12&#45;&gt;14</title>
<path fill="none" stroke="#000000" d="M951.5639,-88.9777C965.8469,-79.2713 981.3713,-68.7213 995.5263,-59.1018"/>
<polygon fill="#000000" stroke="#000000" points="997.8359,-61.764 1004.1395,-53.2485 993.9014,-55.9744 997.8359,-61.764"/>
</g>
</g>
</svg>
