<?xml version="1.0" encoding="UTF-8" standalone="no"?>
<!DOCTYPE svg PUBLIC "-//W3C//DTD SVG 1.1//EN"
 "http://www.w3.org/Graphics/SVG/1.1/DTD/svg11.dtd">
<!-- Generated by graphviz version 2.40.1 (20161225.0304)
 -->
<!-- Title: Tree Pages: 1 -->
<svg width="1112pt" height="373pt"
 viewBox="0.00 0.00 1111.50 373.00" xmlns="http://www.w3.org/2000/svg" xmlns:xlink="http://www.w3.org/1999/xlink">
<g id="graph0" class="graph" transform="scale(1 1) rotate(0) translate(4 369)">
<title>Tree</title>
<polygon fill="#ffffff" stroke="transparent" points="-4,4 -4,-369 1107.5,-369 1107.5,4 -4,4"/>
<!-- 0 -->
<g id="node1" class="node">
<title>0</title>
<path fill="#eeaf81" stroke="#000000" d="M598,-365C598,-365 488,-365 488,-365 482,-365 476,-359 476,-353 476,-353 476,-309 476,-309 476,-303 482,-297 488,-297 488,-297 598,-297 598,-297 604,-297 610,-303 610,-309 610,-309 610,-353 610,-353 610,-359 604,-365 598,-365"/>
<text text-anchor="start" x="502.5" y="-349.8" font-family="Helvetica,sans-Serif" font-size="14.00" fill="#000000">X1 ≤ 0.612</text>
<text text-anchor="start" x="496.5" y="-334.8" font-family="Helvetica,sans-Serif" font-size="14.00" fill="#000000">mse = 0.034</text>
<text text-anchor="start" x="484" y="-319.8" font-family="Helvetica,sans-Serif" font-size="14.00" fill="#000000">samples = 1000</text>
<text text-anchor="start" x="492.5" y="-304.8" font-family="Helvetica,sans-Serif" font-size="14.00" fill="#000000">value = 0.019</text>
</g>
<!-- 1 -->
<g id="node2" class="node">
<title>1</title>
<path fill="#e78b49" stroke="#000000" d="M457.5,-261C457.5,-261 356.5,-261 356.5,-261 350.5,-261 344.5,-255 344.5,-249 344.5,-249 344.5,-205 344.5,-205 344.5,-199 350.5,-193 356.5,-193 356.5,-193 457.5,-193 457.5,-193 463.5,-193 469.5,-199 469.5,-205 469.5,-205 469.5,-249 469.5,-249 469.5,-255 463.5,-261 457.5,-261"/>
<text text-anchor="start" x="371" y="-245.8" font-family="Helvetica,sans-Serif" font-size="14.00" fill="#000000">X2 ≤ 0.19</text>
<text text-anchor="start" x="360.5" y="-230.8" font-family="Helvetica,sans-Serif" font-size="14.00" fill="#000000">mse = 0.015</text>
<text text-anchor="start" x="352.5" y="-215.8" font-family="Helvetica,sans-Serif" font-size="14.00" fill="#000000">samples = 586</text>
<text text-anchor="start" x="356.5" y="-200.8" font-family="Helvetica,sans-Serif" font-size="14.00" fill="#000000">value = 0.133</text>
</g>
<!-- 0&#45;&gt;1 -->
<g id="edge1" class="edge">
<title>0&#45;&gt;1</title>
<path fill="none" stroke="#000000" d="M498.4685,-296.9465C486.1403,-287.519 472.6391,-277.1946 459.885,-267.4415"/>
<polygon fill="#000000" stroke="#000000" points="461.7012,-264.4243 451.6315,-261.13 457.449,-269.9848 461.7012,-264.4243"/>
<text text-anchor="middle" x="454.9356" y="-282.2107" font-family="Helvetica,sans-Serif" font-size="14.00" fill="#000000">True</text>
</g>
<!-- 8 -->
<g id="node9" class="node">
<title>8</title>
<path fill="#f9e2d2" stroke="#000000" d="M735.5,-261C735.5,-261 634.5,-261 634.5,-261 628.5,-261 622.5,-255 622.5,-249 622.5,-249 622.5,-205 622.5,-205 622.5,-199 628.5,-193 634.5,-193 634.5,-193 735.5,-193 735.5,-193 741.5,-193 747.5,-199 747.5,-205 747.5,-205 747.5,-249 747.5,-249 747.5,-255 741.5,-261 735.5,-261"/>
<text text-anchor="start" x="644.5" y="-245.8" font-family="Helvetica,sans-Serif" font-size="14.00" fill="#000000">X1 ≤ 0.775</text>
<text text-anchor="start" x="638.5" y="-230.8" font-family="Helvetica,sans-Serif" font-size="14.00" fill="#000000">mse = 0.017</text>
<text text-anchor="start" x="630.5" y="-215.8" font-family="Helvetica,sans-Serif" font-size="14.00" fill="#000000">samples = 414</text>
<text text-anchor="start" x="632" y="-200.8" font-family="Helvetica,sans-Serif" font-size="14.00" fill="#000000">value = &#45;0.141</text>
</g>
<!-- 0&#45;&gt;8 -->
<g id="edge8" class="edge">
<title>0&#45;&gt;8</title>
<path fill="none" stroke="#000000" d="M589.4961,-296.9465C602.4908,-287.4293 616.7337,-276.9978 630.1621,-267.163"/>
<polygon fill="#000000" stroke="#000000" points="632.3998,-269.8624 638.3994,-261.13 628.2637,-264.2151 632.3998,-269.8624"/>
<text text-anchor="middle" x="634.5829" y="-282.137" font-family="Helvetica,sans-Serif" font-size="14.00" fill="#000000">False</text>
</g>
<!-- 2 -->
<g id="node3" class="node">
<title>2</title>
<path fill="#eca471" stroke="#000000" d="M249.5,-157C249.5,-157 148.5,-157 148.5,-157 142.5,-157 136.5,-151 136.5,-145 136.5,-145 136.5,-101 136.5,-101 136.5,-95 142.5,-89 148.5,-89 148.5,-89 249.5,-89 249.5,-89 255.5,-89 261.5,-95 261.5,-101 261.5,-101 261.5,-145 261.5,-145 261.5,-151 255.5,-157 249.5,-157"/>
<text text-anchor="start" x="158.5" y="-141.8" font-family="Helvetica,sans-Serif" font-size="14.00" fill="#000000">X2 ≤ 0.032</text>
<text text-anchor="start" x="152.5" y="-126.8" font-family="Helvetica,sans-Serif" font-size="14.00" fill="#000000">mse = 0.014</text>
<text text-anchor="start" x="144.5" y="-111.8" font-family="Helvetica,sans-Serif" font-size="14.00" fill="#000000">samples = 107</text>
<text text-anchor="start" x="148.5" y="-96.8" font-family="Helvetica,sans-Serif" font-size="14.00" fill="#000000">value = 0.053</text>
</g>
<!-- 1&#45;&gt;2 -->
<g id="edge2" class="edge">
<title>1&#45;&gt;2</title>
<path fill="none" stroke="#000000" d="M344.3111,-195.6555C321.0824,-184.0412 294.5706,-170.7853 270.6076,-158.8038"/>
<polygon fill="#000000" stroke="#000000" points="272.0701,-155.622 261.5605,-154.2803 268.9395,-161.883 272.0701,-155.622"/>
</g>
<!-- 5 -->
<g id="node6" class="node">
<title>5</title>
<path fill="#e68540" stroke="#000000" d="M457.5,-157C457.5,-157 356.5,-157 356.5,-157 350.5,-157 344.5,-151 344.5,-145 344.5,-145 344.5,-101 344.5,-101 344.5,-95 350.5,-89 356.5,-89 356.5,-89 457.5,-89 457.5,-89 463.5,-89 469.5,-95 469.5,-101 469.5,-101 469.5,-145 469.5,-145 469.5,-151 463.5,-157 457.5,-157"/>
<text text-anchor="start" x="366.5" y="-141.8" font-family="Helvetica,sans-Serif" font-size="14.00" fill="#000000">X1 ≤ 0.541</text>
<text text-anchor="start" x="360.5" y="-126.8" font-family="Helvetica,sans-Serif" font-size="14.00" fill="#000000">mse = 0.013</text>
<text text-anchor="start" x="352.5" y="-111.8" font-family="Helvetica,sans-Serif" font-size="14.00" fill="#000000">samples = 479</text>
<text text-anchor="start" x="356.5" y="-96.8" font-family="Helvetica,sans-Serif" font-size="14.00" fill="#000000">value = 0.151</text>
</g>
<!-- 1&#45;&gt;5 -->
<g id="edge5" class="edge">
<title>1&#45;&gt;5</title>
<path fill="none" stroke="#000000" d="M407,-192.9465C407,-184.776 407,-175.9318 407,-167.3697"/>
<polygon fill="#000000" stroke="#000000" points="410.5001,-167.13 407,-157.13 403.5001,-167.13 410.5001,-167.13"/>
</g>
<!-- 3 -->
<g id="node4" class="node">
<title>3</title>
<path fill="#f3c4a3" stroke="#000000" d="M110,-53C110,-53 12,-53 12,-53 6,-53 0,-47 0,-41 0,-41 0,-12 0,-12 0,-6 6,0 12,0 12,0 110,0 110,0 116,0 122,-6 122,-12 122,-12 122,-41 122,-41 122,-47 116,-53 110,-53"/>
<text text-anchor="start" x="14.5" y="-37.8" font-family="Helvetica,sans-Serif" font-size="14.00" fill="#000000">mse = 0.013</text>
<text text-anchor="start" x="11" y="-22.8" font-family="Helvetica,sans-Serif" font-size="14.00" fill="#000000">samples = 16</text>
<text text-anchor="start" x="8" y="-7.8" font-family="Helvetica,sans-Serif" font-size="14.00" fill="#000000">value = &#45;0.048</text>
</g>
<!-- 2&#45;&gt;3 -->
<g id="edge3" class="edge">
<title>2&#45;&gt;3</title>
<path fill="none" stroke="#000000" d="M150.3464,-88.9777C136.4657,-79.2713 121.3786,-68.7213 107.6223,-59.1018"/>
<polygon fill="#000000" stroke="#000000" points="109.4526,-56.1109 99.2517,-53.2485 105.4411,-61.8475 109.4526,-56.1109"/>
</g>
<!-- 4 -->
<g id="node5" class="node">
<title>4</title>
<path fill="#eb9f68" stroke="#000000" d="M245.5,-53C245.5,-53 152.5,-53 152.5,-53 146.5,-53 140.5,-47 140.5,-41 140.5,-41 140.5,-12 140.5,-12 140.5,-6 146.5,0 152.5,0 152.5,0 245.5,0 245.5,0 251.5,0 257.5,-6 257.5,-12 257.5,-12 257.5,-41 257.5,-41 257.5,-47 251.5,-53 245.5,-53"/>
<text text-anchor="start" x="152.5" y="-37.8" font-family="Helvetica,sans-Serif" font-size="14.00" fill="#000000">mse = 0.012</text>
<text text-anchor="start" x="149" y="-22.8" font-family="Helvetica,sans-Serif" font-size="14.00" fill="#000000">samples = 91</text>
<text text-anchor="start" x="148.5" y="-7.8" font-family="Helvetica,sans-Serif" font-size="14.00" fill="#000000">value = 0.071</text>
</g>
<!-- 2&#45;&gt;4 -->
<g id="edge4" class="edge">
<title>2&#45;&gt;4</title>
<path fill="none" stroke="#000000" d="M199,-88.9777C199,-80.7364 199,-71.887 199,-63.5153"/>
<polygon fill="#000000" stroke="#000000" points="202.5001,-63.2484 199,-53.2485 195.5001,-63.2485 202.5001,-63.2484"/>
</g>
<!-- 6 -->
<g id="node7" class="node">
<title>6</title>
<path fill="#e58139" stroke="#000000" d="M388.5,-53C388.5,-53 287.5,-53 287.5,-53 281.5,-53 275.5,-47 275.5,-41 275.5,-41 275.5,-12 275.5,-12 275.5,-6 281.5,0 287.5,0 287.5,0 388.5,0 388.5,0 394.5,0 400.5,-6 400.5,-12 400.5,-12 400.5,-41 400.5,-41 400.5,-47 394.5,-53 388.5,-53"/>
<text text-anchor="start" x="291.5" y="-37.8" font-family="Helvetica,sans-Serif" font-size="14.00" fill="#000000">mse = 0.012</text>
<text text-anchor="start" x="283.5" y="-22.8" font-family="Helvetica,sans-Serif" font-size="14.00" fill="#000000">samples = 427</text>
<text text-anchor="start" x="287.5" y="-7.8" font-family="Helvetica,sans-Serif" font-size="14.00" fill="#000000">value = 0.164</text>
</g>
<!-- 5&#45;&gt;6 -->
<g id="edge6" class="edge">
<title>5&#45;&gt;6</title>
<path fill="none" stroke="#000000" d="M382.6732,-88.9777C376.3221,-80.0954 369.466,-70.5067 363.0768,-61.5711"/>
<polygon fill="#000000" stroke="#000000" points="365.7893,-59.3472 357.1259,-53.2485 360.0952,-63.4187 365.7893,-59.3472"/>
</g>
<!-- 7 -->
<g id="node8" class="node">
<title>7</title>
<path fill="#eda876" stroke="#000000" d="M523.5,-53C523.5,-53 430.5,-53 430.5,-53 424.5,-53 418.5,-47 418.5,-41 418.5,-41 418.5,-12 418.5,-12 418.5,-6 424.5,0 430.5,0 430.5,0 523.5,0 523.5,0 529.5,0 535.5,-6 535.5,-12 535.5,-12 535.5,-41 535.5,-41 535.5,-47 529.5,-53 523.5,-53"/>
<text text-anchor="start" x="430.5" y="-37.8" font-family="Helvetica,sans-Serif" font-size="14.00" fill="#000000">mse = 0.008</text>
<text text-anchor="start" x="427" y="-22.8" font-family="Helvetica,sans-Serif" font-size="14.00" fill="#000000">samples = 52</text>
<text text-anchor="start" x="426.5" y="-7.8" font-family="Helvetica,sans-Serif" font-size="14.00" fill="#000000">value = 0.042</text>
</g>
<!-- 5&#45;&gt;7 -->
<g id="edge7" class="edge">
<title>5&#45;&gt;7</title>
<path fill="none" stroke="#000000" d="M431.6794,-88.9777C438.1225,-80.0954 445.078,-70.5067 451.5598,-61.5711"/>
<polygon fill="#000000" stroke="#000000" points="454.5583,-63.3982 457.597,-53.2485 448.8921,-59.288 454.5583,-63.3982"/>
</g>
<!-- 9 -->
<g id="node10" class="node">
<title>9</title>
<path fill="#f4cbad" stroke="#000000" d="M735.5,-157C735.5,-157 634.5,-157 634.5,-157 628.5,-157 622.5,-151 622.5,-145 622.5,-145 622.5,-101 622.5,-101 622.5,-95 628.5,-89 634.5,-89 634.5,-89 735.5,-89 735.5,-89 741.5,-89 747.5,-95 747.5,-101 747.5,-101 747.5,-145 747.5,-145 747.5,-151 741.5,-157 735.5,-157"/>
<text text-anchor="start" x="644.5" y="-141.8" font-family="Helvetica,sans-Serif" font-size="14.00" fill="#000000">X1 ≤ 0.658</text>
<text text-anchor="start" x="638.5" y="-126.8" font-family="Helvetica,sans-Serif" font-size="14.00" fill="#000000">mse = 0.011</text>
<text text-anchor="start" x="630.5" y="-111.8" font-family="Helvetica,sans-Serif" font-size="14.00" fill="#000000">samples = 167</text>
<text text-anchor="start" x="632" y="-96.8" font-family="Helvetica,sans-Serif" font-size="14.00" fill="#000000">value = &#45;0.068</text>
</g>
<!-- 8&#45;&gt;9 -->
<g id="edge9" class="edge">
<title>8&#45;&gt;9</title>
<path fill="none" stroke="#000000" d="M685,-192.9465C685,-184.776 685,-175.9318 685,-167.3697"/>
<polygon fill="#000000" stroke="#000000" points="688.5001,-167.13 685,-157.13 681.5001,-167.13 688.5001,-167.13"/>
</g>
<!-- 12 -->
<g id="node13" class="node">
<title>12</title>
<path fill="#fcf2ea" stroke="#000000" d="M949.5,-157C949.5,-157 848.5,-157 848.5,-157 842.5,-157 836.5,-151 836.5,-145 836.5,-145 836.5,-101 836.5,-101 836.5,-95 842.5,-89 848.5,-89 848.5,-89 949.5,-89 949.5,-89 955.5,-89 961.5,-95 961.5,-101 961.5,-101 961.5,-145 961.5,-145 961.5,-151 955.5,-157 949.5,-157"/>
<text text-anchor="start" x="867.5" y="-141.8" font-family="Helvetica,sans-Serif" font-size="14.00" fill="#000000">X2 ≤ 0.3</text>
<text text-anchor="start" x="852.5" y="-126.8" font-family="Helvetica,sans-Serif" font-size="14.00" fill="#000000">mse = 0.015</text>
<text text-anchor="start" x="844.5" y="-111.8" font-family="Helvetica,sans-Serif" font-size="14.00" fill="#000000">samples = 247</text>
<text text-anchor="start" x="846" y="-96.8" font-family="Helvetica,sans-Serif" font-size="14.00" fill="#000000">value = &#45;0.191</text>
</g>
<!-- 8&#45;&gt;12 -->
<g id="edge12" class="edge">
<title>8&#45;&gt;12</title>
<path fill="none" stroke="#000000" d="M747.7611,-196.4993C772.5852,-184.4352 801.2651,-170.4973 826.9326,-158.0234"/>
<polygon fill="#000000" stroke="#000000" points="828.7757,-161.0192 836.24,-153.5002 825.716,-154.7233 828.7757,-161.0192"/>
</g>
<!-- 10 -->
<g id="node11" class="node">
<title>10</title>
<path fill="#f2bf9b" stroke="#000000" d="M664,-53C664,-53 566,-53 566,-53 560,-53 554,-47 554,-41 554,-41 554,-12 554,-12 554,-6 560,0 566,0 566,0 664,0 664,0 670,0 676,-6 676,-12 676,-12 676,-41 676,-41 676,-47 670,-53 664,-53"/>
<text text-anchor="start" x="568.5" y="-37.8" font-family="Helvetica,sans-Serif" font-size="14.00" fill="#000000">mse = 0.009</text>
<text text-anchor="start" x="565" y="-22.8" font-family="Helvetica,sans-Serif" font-size="14.00" fill="#000000">samples = 51</text>
<text text-anchor="start" x="562" y="-7.8" font-family="Helvetica,sans-Serif" font-size="14.00" fill="#000000">value = &#45;0.032</text>
</g>
<!-- 9&#45;&gt;10 -->
<g id="edge10" class="edge">
<title>9&#45;&gt;10</title>
<path fill="none" stroke="#000000" d="M660.3206,-88.9777C653.8775,-80.0954 646.922,-70.5067 640.4402,-61.5711"/>
<polygon fill="#000000" stroke="#000000" points="643.1079,-59.288 634.403,-53.2485 637.4417,-63.3982 643.1079,-59.288"/>
</g>
<!-- 11 -->
<g id="node12" class="node">
<title>11</title>
<path fill="#f5d0b5" stroke="#000000" d="M807.5,-53C807.5,-53 706.5,-53 706.5,-53 700.5,-53 694.5,-47 694.5,-41 694.5,-41 694.5,-12 694.5,-12 694.5,-6 700.5,0 706.5,0 706.5,0 807.5,0 807.5,0 813.5,0 819.5,-6 819.5,-12 819.5,-12 819.5,-41 819.5,-41 819.5,-47 813.5,-53 807.5,-53"/>
<text text-anchor="start" x="710.5" y="-37.8" font-family="Helvetica,sans-Serif" font-size="14.00" fill="#000000">mse = 0.011</text>
<text text-anchor="start" x="702.5" y="-22.8" font-family="Helvetica,sans-Serif" font-size="14.00" fill="#000000">samples = 116</text>
<text text-anchor="start" x="704" y="-7.8" font-family="Helvetica,sans-Serif" font-size="14.00" fill="#000000">value = &#45;0.084</text>
</g>
<!-- 9&#45;&gt;11 -->
<g id="edge11" class="edge">
<title>9&#45;&gt;11</title>
<path fill="none" stroke="#000000" d="M710.3845,-88.9777C717.08,-80.0039 724.3135,-70.3089 731.039,-61.295"/>
<polygon fill="#000000" stroke="#000000" points="733.8677,-63.3565 737.0426,-53.2485 728.2573,-59.1704 733.8677,-63.3565"/>
</g>
<!-- 13 -->
<g id="node14" class="node">
<title>13</title>
<path fill="#f6d5bc" stroke="#000000" d="M948,-53C948,-53 850,-53 850,-53 844,-53 838,-47 838,-41 838,-41 838,-12 838,-12 838,-6 844,0 850,0 850,0 948,0 948,0 954,0 960,-6 960,-12 960,-12 960,-41 960,-41 960,-47 954,-53 948,-53"/>
<text text-anchor="start" x="857" y="-37.8" font-family="Helvetica,sans-Serif" font-size="14.00" fill="#000000">mse = 0.01</text>
<text text-anchor="start" x="849" y="-22.8" font-family="Helvetica,sans-Serif" font-size="14.00" fill="#000000">samples = 77</text>
<text text-anchor="start" x="846" y="-7.8" font-family="Helvetica,sans-Serif" font-size="14.00" fill="#000000">value = &#45;0.099</text>
</g>
<!-- 12&#45;&gt;13 -->
<g id="edge13" class="edge">
<title>12&#45;&gt;13</title>
<path fill="none" stroke="#000000" d="M899,-88.9777C899,-80.7364 899,-71.887 899,-63.5153"/>
<polygon fill="#000000" stroke="#000000" points="902.5001,-63.2484 899,-53.2485 895.5001,-63.2485 902.5001,-63.2484"/>
</g>
<!-- 14 -->
<g id="node15" class="node">
<title>14</title>
<path fill="#ffffff" stroke="#000000" d="M1091.5,-53C1091.5,-53 990.5,-53 990.5,-53 984.5,-53 978.5,-47 978.5,-41 978.5,-41 978.5,-12 978.5,-12 978.5,-6 984.5,0 990.5,0 990.5,0 1091.5,0 1091.5,0 1097.5,0 1103.5,-6 1103.5,-12 1103.5,-12 1103.5,-41 1103.5,-41 1103.5,-47 1097.5,-53 1091.5,-53"/>
<text text-anchor="start" x="994.5" y="-37.8" font-family="Helvetica,sans-Serif" font-size="14.00" fill="#000000">mse = 0.012</text>
<text text-anchor="start" x="986.5" y="-22.8" font-family="Helvetica,sans-Serif" font-size="14.00" fill="#000000">samples = 170</text>
<text text-anchor="start" x="988" y="-7.8" font-family="Helvetica,sans-Serif" font-size="14.00" fill="#000000">value = &#45;0.233</text>
</g>
<!-- 12&#45;&gt;14 -->
<g id="edge14" class="edge">
<title>12&#45;&gt;14</title>
<path fill="none" stroke="#000000" d="M949.0639,-88.9777C963.3469,-79.2713 978.8713,-68.7213 993.0263,-59.1018"/>
<polygon fill="#000000" stroke="#000000" points="995.3359,-61.764 1001.6395,-53.2485 991.4014,-55.9744 995.3359,-61.764"/>
</g>
</g>
</svg>
