<?xml version="1.0" encoding="UTF-8" standalone="no"?>
<!DOCTYPE svg PUBLIC "-//W3C//DTD SVG 1.1//EN"
 "http://www.w3.org/Graphics/SVG/1.1/DTD/svg11.dtd">
<!-- Generated by graphviz version 2.40.1 (20161225.0304)
 -->
<!-- Title: Tree Pages: 1 -->
<svg width="1112pt" height="373pt"
 viewBox="0.00 0.00 1112.00 373.00" xmlns="http://www.w3.org/2000/svg" xmlns:xlink="http://www.w3.org/1999/xlink">
<g id="graph0" class="graph" transform="scale(1 1) rotate(0) translate(4 369)">
<title>Tree</title>
<polygon fill="#ffffff" stroke="transparent" points="-4,4 -4,-369 1108,-369 1108,4 -4,4"/>
<!-- 0 -->
<g id="node1" class="node">
<title>0</title>
<path fill="#eeae80" stroke="#000000" d="M608.5,-365C608.5,-365 498.5,-365 498.5,-365 492.5,-365 486.5,-359 486.5,-353 486.5,-353 486.5,-309 486.5,-309 486.5,-303 492.5,-297 498.5,-297 498.5,-297 608.5,-297 608.5,-297 614.5,-297 620.5,-303 620.5,-309 620.5,-309 620.5,-353 620.5,-353 620.5,-359 614.5,-365 608.5,-365"/>
<text text-anchor="start" x="513" y="-349.8" font-family="Helvetica,sans-Serif" font-size="14.00" fill="#000000">X1 ≤ 0.642</text>
<text text-anchor="start" x="507" y="-334.8" font-family="Helvetica,sans-Serif" font-size="14.00" fill="#000000">mse = 0.034</text>
<text text-anchor="start" x="494.5" y="-319.8" font-family="Helvetica,sans-Serif" font-size="14.00" fill="#000000">samples = 1000</text>
<text text-anchor="start" x="503" y="-304.8" font-family="Helvetica,sans-Serif" font-size="14.00" fill="#000000">value = 0.032</text>
</g>
<!-- 1 -->
<g id="node2" class="node">
<title>1</title>
<path fill="#e89153" stroke="#000000" d="M462,-261C462,-261 361,-261 361,-261 355,-261 349,-255 349,-249 349,-249 349,-205 349,-205 349,-199 355,-193 361,-193 361,-193 462,-193 462,-193 468,-193 474,-199 474,-205 474,-205 474,-249 474,-249 474,-255 468,-261 462,-261"/>
<text text-anchor="start" x="371" y="-245.8" font-family="Helvetica,sans-Serif" font-size="14.00" fill="#000000">X2 ≤ 0.284</text>
<text text-anchor="start" x="365" y="-230.8" font-family="Helvetica,sans-Serif" font-size="14.00" fill="#000000">mse = 0.016</text>
<text text-anchor="start" x="357" y="-215.8" font-family="Helvetica,sans-Serif" font-size="14.00" fill="#000000">samples = 661</text>
<text text-anchor="start" x="361" y="-200.8" font-family="Helvetica,sans-Serif" font-size="14.00" fill="#000000">value = 0.128</text>
</g>
<!-- 0&#45;&gt;1 -->
<g id="edge1" class="edge">
<title>0&#45;&gt;1</title>
<path fill="none" stroke="#000000" d="M507.0039,-296.9465C494.0092,-287.4293 479.7663,-276.9978 466.3379,-267.163"/>
<polygon fill="#000000" stroke="#000000" points="468.2363,-264.2151 458.1006,-261.13 464.1002,-269.8624 468.2363,-264.2151"/>
<text text-anchor="middle" x="461.9171" y="-282.137" font-family="Helvetica,sans-Serif" font-size="14.00" fill="#000000">True</text>
</g>
<!-- 8 -->
<g id="node9" class="node">
<title>8</title>
<path fill="#fae7d9" stroke="#000000" d="M741,-261C741,-261 640,-261 640,-261 634,-261 628,-255 628,-249 628,-249 628,-205 628,-205 628,-199 634,-193 640,-193 640,-193 741,-193 741,-193 747,-193 753,-199 753,-205 753,-205 753,-249 753,-249 753,-255 747,-261 741,-261"/>
<text text-anchor="start" x="654.5" y="-245.8" font-family="Helvetica,sans-Serif" font-size="14.00" fill="#000000">X1 ≤ 0.76</text>
<text text-anchor="start" x="644" y="-230.8" font-family="Helvetica,sans-Serif" font-size="14.00" fill="#000000">mse = 0.017</text>
<text text-anchor="start" x="636" y="-215.8" font-family="Helvetica,sans-Serif" font-size="14.00" fill="#000000">samples = 339</text>
<text text-anchor="start" x="637.5" y="-200.8" font-family="Helvetica,sans-Serif" font-size="14.00" fill="#000000">value = &#45;0.156</text>
</g>
<!-- 0&#45;&gt;8 -->
<g id="edge8" class="edge">
<title>0&#45;&gt;8</title>
<path fill="none" stroke="#000000" d="M598.3589,-296.9465C610.7778,-287.519 624.3783,-277.1946 637.2261,-267.4415"/>
<polygon fill="#000000" stroke="#000000" points="639.6915,-269.9642 645.5403,-261.13 635.459,-264.3887 639.6915,-269.9642"/>
<text text-anchor="middle" x="642.1487" y="-282.1989" font-family="Helvetica,sans-Serif" font-size="14.00" fill="#000000">False</text>
</g>
<!-- 2 -->
<g id="node3" class="node">
<title>2</title>
<path fill="#eda673" stroke="#000000" d="M248,-157C248,-157 147,-157 147,-157 141,-157 135,-151 135,-145 135,-145 135,-101 135,-101 135,-95 141,-89 147,-89 147,-89 248,-89 248,-89 254,-89 260,-95 260,-101 260,-101 260,-145 260,-145 260,-151 254,-157 248,-157"/>
<text text-anchor="start" x="161.5" y="-141.8" font-family="Helvetica,sans-Serif" font-size="14.00" fill="#000000">X1 ≤ 0.18</text>
<text text-anchor="start" x="151" y="-126.8" font-family="Helvetica,sans-Serif" font-size="14.00" fill="#000000">mse = 0.012</text>
<text text-anchor="start" x="143" y="-111.8" font-family="Helvetica,sans-Serif" font-size="14.00" fill="#000000">samples = 185</text>
<text text-anchor="start" x="151.5" y="-96.8" font-family="Helvetica,sans-Serif" font-size="14.00" fill="#000000">value = 0.06</text>
</g>
<!-- 1&#45;&gt;2 -->
<g id="edge2" class="edge">
<title>1&#45;&gt;2</title>
<path fill="none" stroke="#000000" d="M348.7389,-196.4993C323.9148,-184.4352 295.2349,-170.4973 269.5674,-158.0234"/>
<polygon fill="#000000" stroke="#000000" points="270.784,-154.7233 260.26,-153.5002 267.7243,-161.0192 270.784,-154.7233"/>
</g>
<!-- 5 -->
<g id="node6" class="node">
<title>5</title>
<path fill="#e78a46" stroke="#000000" d="M462,-157C462,-157 361,-157 361,-157 355,-157 349,-151 349,-145 349,-145 349,-101 349,-101 349,-95 355,-89 361,-89 361,-89 462,-89 462,-89 468,-89 474,-95 474,-101 474,-101 474,-145 474,-145 474,-151 468,-157 462,-157"/>
<text text-anchor="start" x="371" y="-141.8" font-family="Helvetica,sans-Serif" font-size="14.00" fill="#000000">X1 ≤ 0.481</text>
<text text-anchor="start" x="365" y="-126.8" font-family="Helvetica,sans-Serif" font-size="14.00" fill="#000000">mse = 0.015</text>
<text text-anchor="start" x="357" y="-111.8" font-family="Helvetica,sans-Serif" font-size="14.00" fill="#000000">samples = 476</text>
<text text-anchor="start" x="361" y="-96.8" font-family="Helvetica,sans-Serif" font-size="14.00" fill="#000000">value = 0.154</text>
</g>
<!-- 1&#45;&gt;5 -->
<g id="edge5" class="edge">
<title>1&#45;&gt;5</title>
<path fill="none" stroke="#000000" d="M411.5,-192.9465C411.5,-184.776 411.5,-175.9318 411.5,-167.3697"/>
<polygon fill="#000000" stroke="#000000" points="415.0001,-167.13 411.5,-157.13 408.0001,-167.13 415.0001,-167.13"/>
</g>
<!-- 3 -->
<g id="node4" class="node">
<title>3</title>
<path fill="#efb387" stroke="#000000" d="M105,-53C105,-53 12,-53 12,-53 6,-53 0,-47 0,-41 0,-41 0,-12 0,-12 0,-6 6,0 12,0 12,0 105,0 105,0 111,0 117,-6 117,-12 117,-12 117,-41 117,-41 117,-47 111,-53 105,-53"/>
<text text-anchor="start" x="12" y="-37.8" font-family="Helvetica,sans-Serif" font-size="14.00" fill="#000000">mse = 0.012</text>
<text text-anchor="start" x="8.5" y="-22.8" font-family="Helvetica,sans-Serif" font-size="14.00" fill="#000000">samples = 53</text>
<text text-anchor="start" x="8" y="-7.8" font-family="Helvetica,sans-Serif" font-size="14.00" fill="#000000">value = 0.017</text>
</g>
<!-- 2&#45;&gt;3 -->
<g id="edge3" class="edge">
<title>2&#45;&gt;3</title>
<path fill="none" stroke="#000000" d="M148.4938,-88.9777C134.5126,-79.2713 119.3162,-68.7213 105.4602,-59.1018"/>
<polygon fill="#000000" stroke="#000000" points="107.2394,-56.0763 97.0289,-53.2485 103.2474,-61.8264 107.2394,-56.0763"/>
</g>
<!-- 4 -->
<g id="node5" class="node">
<title>4</title>
<path fill="#eba06a" stroke="#000000" d="M248,-53C248,-53 147,-53 147,-53 141,-53 135,-47 135,-41 135,-41 135,-12 135,-12 135,-6 141,0 147,0 147,0 248,0 248,0 254,0 260,-6 260,-12 260,-12 260,-41 260,-41 260,-47 254,-53 248,-53"/>
<text text-anchor="start" x="151" y="-37.8" font-family="Helvetica,sans-Serif" font-size="14.00" fill="#000000">mse = 0.011</text>
<text text-anchor="start" x="143" y="-22.8" font-family="Helvetica,sans-Serif" font-size="14.00" fill="#000000">samples = 132</text>
<text text-anchor="start" x="147" y="-7.8" font-family="Helvetica,sans-Serif" font-size="14.00" fill="#000000">value = 0.078</text>
</g>
<!-- 2&#45;&gt;4 -->
<g id="edge4" class="edge">
<title>2&#45;&gt;4</title>
<path fill="none" stroke="#000000" d="M197.5,-88.9777C197.5,-80.7364 197.5,-71.887 197.5,-63.5153"/>
<polygon fill="#000000" stroke="#000000" points="201.0001,-63.2484 197.5,-53.2485 194.0001,-63.2485 201.0001,-63.2484"/>
</g>
<!-- 6 -->
<g id="node7" class="node">
<title>6</title>
<path fill="#e58139" stroke="#000000" d="M391,-53C391,-53 290,-53 290,-53 284,-53 278,-47 278,-41 278,-41 278,-12 278,-12 278,-6 284,0 290,0 290,0 391,0 391,0 397,0 403,-6 403,-12 403,-12 403,-41 403,-41 403,-47 397,-53 391,-53"/>
<text text-anchor="start" x="294" y="-37.8" font-family="Helvetica,sans-Serif" font-size="14.00" fill="#000000">mse = 0.012</text>
<text text-anchor="start" x="286" y="-22.8" font-family="Helvetica,sans-Serif" font-size="14.00" fill="#000000">samples = 367</text>
<text text-anchor="start" x="290" y="-7.8" font-family="Helvetica,sans-Serif" font-size="14.00" fill="#000000">value = 0.183</text>
</g>
<!-- 5&#45;&gt;6 -->
<g id="edge6" class="edge">
<title>5&#45;&gt;6</title>
<path fill="none" stroke="#000000" d="M386.4681,-88.9777C379.9329,-80.0954 372.878,-70.5067 366.3036,-61.5711"/>
<polygon fill="#000000" stroke="#000000" points="368.9257,-59.229 360.1802,-53.2485 363.2874,-63.3775 368.9257,-59.229"/>
</g>
<!-- 7 -->
<g id="node8" class="node">
<title>7</title>
<path fill="#eda674" stroke="#000000" d="M534,-53C534,-53 433,-53 433,-53 427,-53 421,-47 421,-41 421,-41 421,-12 421,-12 421,-6 427,0 433,0 433,0 534,0 534,0 540,0 546,-6 546,-12 546,-12 546,-41 546,-41 546,-47 540,-53 534,-53"/>
<text text-anchor="start" x="437" y="-37.8" font-family="Helvetica,sans-Serif" font-size="14.00" fill="#000000">mse = 0.012</text>
<text text-anchor="start" x="429" y="-22.8" font-family="Helvetica,sans-Serif" font-size="14.00" fill="#000000">samples = 109</text>
<text text-anchor="start" x="433" y="-7.8" font-family="Helvetica,sans-Serif" font-size="14.00" fill="#000000">value = 0.059</text>
</g>
<!-- 5&#45;&gt;7 -->
<g id="edge7" class="edge">
<title>5&#45;&gt;7</title>
<path fill="none" stroke="#000000" d="M436.8845,-88.9777C443.58,-80.0039 450.8135,-70.3089 457.539,-61.295"/>
<polygon fill="#000000" stroke="#000000" points="460.3677,-63.3565 463.5426,-53.2485 454.7573,-59.1704 460.3677,-63.3565"/>
</g>
<!-- 9 -->
<g id="node10" class="node">
<title>9</title>
<path fill="#f5cdb1" stroke="#000000" d="M741,-157C741,-157 640,-157 640,-157 634,-157 628,-151 628,-145 628,-145 628,-101 628,-101 628,-95 634,-89 640,-89 640,-89 741,-89 741,-89 747,-89 753,-95 753,-101 753,-101 753,-145 753,-145 753,-151 747,-157 741,-157"/>
<text text-anchor="start" x="650" y="-141.8" font-family="Helvetica,sans-Serif" font-size="14.00" fill="#000000">X1 ≤ 0.693</text>
<text text-anchor="start" x="644" y="-126.8" font-family="Helvetica,sans-Serif" font-size="14.00" fill="#000000">mse = 0.009</text>
<text text-anchor="start" x="636" y="-111.8" font-family="Helvetica,sans-Serif" font-size="14.00" fill="#000000">samples = 105</text>
<text text-anchor="start" x="637.5" y="-96.8" font-family="Helvetica,sans-Serif" font-size="14.00" fill="#000000">value = &#45;0.071</text>
</g>
<!-- 8&#45;&gt;9 -->
<g id="edge9" class="edge">
<title>8&#45;&gt;9</title>
<path fill="none" stroke="#000000" d="M690.5,-192.9465C690.5,-184.776 690.5,-175.9318 690.5,-167.3697"/>
<polygon fill="#000000" stroke="#000000" points="694.0001,-167.13 690.5,-157.13 687.0001,-167.13 694.0001,-167.13"/>
</g>
<!-- 12 -->
<g id="node13" class="node">
<title>12</title>
<path fill="#fcf2eb" stroke="#000000" d="M950,-157C950,-157 849,-157 849,-157 843,-157 837,-151 837,-145 837,-145 837,-101 837,-101 837,-95 843,-89 849,-89 849,-89 950,-89 950,-89 956,-89 962,-95 962,-101 962,-101 962,-145 962,-145 962,-151 956,-157 950,-157"/>
<text text-anchor="start" x="859" y="-141.8" font-family="Helvetica,sans-Serif" font-size="14.00" fill="#000000">X2 ≤ 0.393</text>
<text text-anchor="start" x="853" y="-126.8" font-family="Helvetica,sans-Serif" font-size="14.00" fill="#000000">mse = 0.015</text>
<text text-anchor="start" x="845" y="-111.8" font-family="Helvetica,sans-Serif" font-size="14.00" fill="#000000">samples = 234</text>
<text text-anchor="start" x="846.5" y="-96.8" font-family="Helvetica,sans-Serif" font-size="14.00" fill="#000000">value = &#45;0.194</text>
</g>
<!-- 8&#45;&gt;12 -->
<g id="edge12" class="edge">
<title>8&#45;&gt;12</title>
<path fill="none" stroke="#000000" d="M753.2069,-195.7966C776.6628,-184.1247 803.4822,-170.7792 827.6968,-158.7298"/>
<polygon fill="#000000" stroke="#000000" points="829.4438,-161.7699 836.8374,-154.1814 826.3253,-155.503 829.4438,-161.7699"/>
</g>
<!-- 10 -->
<g id="node11" class="node">
<title>10</title>
<path fill="#f3c3a0" stroke="#000000" d="M674.5,-53C674.5,-53 576.5,-53 576.5,-53 570.5,-53 564.5,-47 564.5,-41 564.5,-41 564.5,-12 564.5,-12 564.5,-6 570.5,0 576.5,0 576.5,0 674.5,0 674.5,0 680.5,0 686.5,-6 686.5,-12 686.5,-12 686.5,-41 686.5,-41 686.5,-47 680.5,-53 674.5,-53"/>
<text text-anchor="start" x="579" y="-37.8" font-family="Helvetica,sans-Serif" font-size="14.00" fill="#000000">mse = 0.009</text>
<text text-anchor="start" x="575.5" y="-22.8" font-family="Helvetica,sans-Serif" font-size="14.00" fill="#000000">samples = 47</text>
<text text-anchor="start" x="572.5" y="-7.8" font-family="Helvetica,sans-Serif" font-size="14.00" fill="#000000">value = &#45;0.036</text>
</g>
<!-- 9&#45;&gt;10 -->
<g id="edge10" class="edge">
<title>9&#45;&gt;10</title>
<path fill="none" stroke="#000000" d="M667.5834,-88.9777C661.6006,-80.0954 655.1418,-70.5067 649.123,-61.5711"/>
<polygon fill="#000000" stroke="#000000" points="652.0067,-59.5871 643.5171,-53.2485 646.2009,-63.4978 652.0067,-59.5871"/>
</g>
<!-- 11 -->
<g id="node12" class="node">
<title>11</title>
<path fill="#f7d6be" stroke="#000000" d="M808.5,-53C808.5,-53 716.5,-53 716.5,-53 710.5,-53 704.5,-47 704.5,-41 704.5,-41 704.5,-12 704.5,-12 704.5,-6 710.5,0 716.5,0 716.5,0 808.5,0 808.5,0 814.5,0 820.5,-6 820.5,-12 820.5,-12 820.5,-41 820.5,-41 820.5,-47 814.5,-53 808.5,-53"/>
<text text-anchor="start" x="716" y="-37.8" font-family="Helvetica,sans-Serif" font-size="14.00" fill="#000000">mse = 0.008</text>
<text text-anchor="start" x="712.5" y="-22.8" font-family="Helvetica,sans-Serif" font-size="14.00" fill="#000000">samples = 58</text>
<text text-anchor="start" x="718.5" y="-7.8" font-family="Helvetica,sans-Serif" font-size="14.00" fill="#000000">value = &#45;0.1</text>
</g>
<!-- 9&#45;&gt;11 -->
<g id="edge11" class="edge">
<title>9&#45;&gt;11</title>
<path fill="none" stroke="#000000" d="M715.8845,-88.9777C722.58,-80.0039 729.8135,-70.3089 736.539,-61.295"/>
<polygon fill="#000000" stroke="#000000" points="739.3677,-63.3565 742.5426,-53.2485 733.7573,-59.1704 739.3677,-63.3565"/>
</g>
<!-- 13 -->
<g id="node14" class="node">
<title>13</title>
<path fill="#f8dbc6" stroke="#000000" d="M948.5,-53C948.5,-53 850.5,-53 850.5,-53 844.5,-53 838.5,-47 838.5,-41 838.5,-41 838.5,-12 838.5,-12 838.5,-6 844.5,0 850.5,0 850.5,0 948.5,0 948.5,0 954.5,0 960.5,-6 960.5,-12 960.5,-12 960.5,-41 960.5,-41 960.5,-47 954.5,-53 948.5,-53"/>
<text text-anchor="start" x="853" y="-37.8" font-family="Helvetica,sans-Serif" font-size="14.00" fill="#000000">mse = 0.012</text>
<text text-anchor="start" x="849.5" y="-22.8" font-family="Helvetica,sans-Serif" font-size="14.00" fill="#000000">samples = 84</text>
<text text-anchor="start" x="846.5" y="-7.8" font-family="Helvetica,sans-Serif" font-size="14.00" fill="#000000">value = &#45;0.116</text>
</g>
<!-- 12&#45;&gt;13 -->
<g id="edge13" class="edge">
<title>12&#45;&gt;13</title>
<path fill="none" stroke="#000000" d="M899.5,-88.9777C899.5,-80.7364 899.5,-71.887 899.5,-63.5153"/>
<polygon fill="#000000" stroke="#000000" points="903.0001,-63.2484 899.5,-53.2485 896.0001,-63.2485 903.0001,-63.2484"/>
</g>
<!-- 14 -->
<g id="node15" class="node">
<title>14</title>
<path fill="#ffffff" stroke="#000000" d="M1092,-53C1092,-53 991,-53 991,-53 985,-53 979,-47 979,-41 979,-41 979,-12 979,-12 979,-6 985,0 991,0 991,0 1092,0 1092,0 1098,0 1104,-6 1104,-12 1104,-12 1104,-41 1104,-41 1104,-47 1098,-53 1092,-53"/>
<text text-anchor="start" x="995" y="-37.8" font-family="Helvetica,sans-Serif" font-size="14.00" fill="#000000">mse = 0.012</text>
<text text-anchor="start" x="987" y="-22.8" font-family="Helvetica,sans-Serif" font-size="14.00" fill="#000000">samples = 150</text>
<text text-anchor="start" x="988.5" y="-7.8" font-family="Helvetica,sans-Serif" font-size="14.00" fill="#000000">value = &#45;0.237</text>
</g>
<!-- 12&#45;&gt;14 -->
<g id="edge14" class="edge">
<title>12&#45;&gt;14</title>
<path fill="none" stroke="#000000" d="M949.5639,-88.9777C963.8469,-79.2713 979.3713,-68.7213 993.5263,-59.1018"/>
<polygon fill="#000000" stroke="#000000" points="995.8359,-61.764 1002.1395,-53.2485 991.9014,-55.9744 995.8359,-61.764"/>
</g>
</g>
</svg>
