<?xml version="1.0" encoding="UTF-8" standalone="no"?>
<!DOCTYPE svg PUBLIC "-//W3C//DTD SVG 1.1//EN"
 "http://www.w3.org/Graphics/SVG/1.1/DTD/svg11.dtd">
<!-- Generated by graphviz version 2.40.1 (20161225.0304)
 -->
<!-- Title: Tree Pages: 1 -->
<svg width="1100pt" height="373pt"
 viewBox="0.00 0.00 1100.00 373.00" xmlns="http://www.w3.org/2000/svg" xmlns:xlink="http://www.w3.org/1999/xlink">
<g id="graph0" class="graph" transform="scale(1 1) rotate(0) translate(4 369)">
<title>Tree</title>
<polygon fill="#ffffff" stroke="transparent" points="-4,4 -4,-369 1096,-369 1096,4 -4,4"/>
<!-- 0 -->
<g id="node1" class="node">
<title>0</title>
<path fill="#efb083" stroke="#000000" d="M600.5,-365C600.5,-365 490.5,-365 490.5,-365 484.5,-365 478.5,-359 478.5,-353 478.5,-353 478.5,-309 478.5,-309 478.5,-303 484.5,-297 490.5,-297 490.5,-297 600.5,-297 600.5,-297 606.5,-297 612.5,-303 612.5,-309 612.5,-309 612.5,-353 612.5,-353 612.5,-359 606.5,-365 600.5,-365"/>
<text text-anchor="start" x="505" y="-349.8" font-family="Helvetica,sans-Serif" font-size="14.00" fill="#000000">X1 ≤ 0.666</text>
<text text-anchor="start" x="499" y="-334.8" font-family="Helvetica,sans-Serif" font-size="14.00" fill="#000000">mse = 0.033</text>
<text text-anchor="start" x="486.5" y="-319.8" font-family="Helvetica,sans-Serif" font-size="14.00" fill="#000000">samples = 1000</text>
<text text-anchor="start" x="495" y="-304.8" font-family="Helvetica,sans-Serif" font-size="14.00" fill="#000000">value = 0.035</text>
</g>
<!-- 1 -->
<g id="node2" class="node">
<title>1</title>
<path fill="#e89253" stroke="#000000" d="M462,-261C462,-261 361,-261 361,-261 355,-261 349,-255 349,-249 349,-249 349,-205 349,-205 349,-199 355,-193 361,-193 361,-193 462,-193 462,-193 468,-193 474,-199 474,-205 474,-205 474,-249 474,-249 474,-255 468,-261 462,-261"/>
<text text-anchor="start" x="371" y="-245.8" font-family="Helvetica,sans-Serif" font-size="14.00" fill="#000000">X1 ≤ 0.557</text>
<text text-anchor="start" x="365" y="-230.8" font-family="Helvetica,sans-Serif" font-size="14.00" fill="#000000">mse = 0.016</text>
<text text-anchor="start" x="357" y="-215.8" font-family="Helvetica,sans-Serif" font-size="14.00" fill="#000000">samples = 675</text>
<text text-anchor="start" x="361" y="-200.8" font-family="Helvetica,sans-Serif" font-size="14.00" fill="#000000">value = 0.128</text>
</g>
<!-- 0&#45;&gt;1 -->
<g id="edge1" class="edge">
<title>0&#45;&gt;1</title>
<path fill="none" stroke="#000000" d="M501.6234,-296.9465C489.4765,-287.519 476.1738,-277.1946 463.6073,-267.4415"/>
<polygon fill="#000000" stroke="#000000" points="465.521,-264.4963 455.4752,-261.13 461.2291,-270.0262 465.521,-264.4963"/>
<text text-anchor="middle" x="458.6017" y="-282.2337" font-family="Helvetica,sans-Serif" font-size="14.00" fill="#000000">True</text>
</g>
<!-- 8 -->
<g id="node9" class="node">
<title>8</title>
<path fill="#fcefe6" stroke="#000000" d="M733,-261C733,-261 632,-261 632,-261 626,-261 620,-255 620,-249 620,-249 620,-205 620,-205 620,-199 626,-193 632,-193 632,-193 733,-193 733,-193 739,-193 745,-199 745,-205 745,-205 745,-249 745,-249 745,-255 739,-261 733,-261"/>
<text text-anchor="start" x="642" y="-245.8" font-family="Helvetica,sans-Serif" font-size="14.00" fill="#000000">X2 ≤ 0.152</text>
<text text-anchor="start" x="636" y="-230.8" font-family="Helvetica,sans-Serif" font-size="14.00" fill="#000000">mse = 0.014</text>
<text text-anchor="start" x="628" y="-215.8" font-family="Helvetica,sans-Serif" font-size="14.00" fill="#000000">samples = 325</text>
<text text-anchor="start" x="629.5" y="-200.8" font-family="Helvetica,sans-Serif" font-size="14.00" fill="#000000">value = &#45;0.157</text>
</g>
<!-- 0&#45;&gt;8 -->
<g id="edge8" class="edge">
<title>0&#45;&gt;8</title>
<path fill="none" stroke="#000000" d="M590.3589,-296.9465C602.7778,-287.519 616.3783,-277.1946 629.2261,-267.4415"/>
<polygon fill="#000000" stroke="#000000" points="631.6915,-269.9642 637.5403,-261.13 627.459,-264.3887 631.6915,-269.9642"/>
<text text-anchor="middle" x="634.1487" y="-282.1989" font-family="Helvetica,sans-Serif" font-size="14.00" fill="#000000">False</text>
</g>
<!-- 2 -->
<g id="node3" class="node">
<title>2</title>
<path fill="#e78c4a" stroke="#000000" d="M256,-157C256,-157 155,-157 155,-157 149,-157 143,-151 143,-145 143,-145 143,-101 143,-101 143,-95 149,-89 155,-89 155,-89 256,-89 256,-89 262,-89 268,-95 268,-101 268,-101 268,-145 268,-145 268,-151 262,-157 256,-157"/>
<text text-anchor="start" x="165" y="-141.8" font-family="Helvetica,sans-Serif" font-size="14.00" fill="#000000">X1 ≤ 0.169</text>
<text text-anchor="start" x="159" y="-126.8" font-family="Helvetica,sans-Serif" font-size="14.00" fill="#000000">mse = 0.014</text>
<text text-anchor="start" x="151" y="-111.8" font-family="Helvetica,sans-Serif" font-size="14.00" fill="#000000">samples = 566</text>
<text text-anchor="start" x="155" y="-96.8" font-family="Helvetica,sans-Serif" font-size="14.00" fill="#000000">value = 0.146</text>
</g>
<!-- 1&#45;&gt;2 -->
<g id="edge2" class="edge">
<title>1&#45;&gt;2</title>
<path fill="none" stroke="#000000" d="M348.8542,-195.373C326.2822,-183.9774 300.6389,-171.0313 277.3431,-159.2703"/>
<polygon fill="#000000" stroke="#000000" points="278.707,-156.0382 268.2027,-154.6557 275.5522,-162.287 278.707,-156.0382"/>
</g>
<!-- 5 -->
<g id="node6" class="node">
<title>5</title>
<path fill="#efb286" stroke="#000000" d="M462,-157C462,-157 361,-157 361,-157 355,-157 349,-151 349,-145 349,-145 349,-101 349,-101 349,-95 355,-89 361,-89 361,-89 462,-89 462,-89 468,-89 474,-95 474,-101 474,-101 474,-145 474,-145 474,-151 468,-157 462,-157"/>
<text text-anchor="start" x="371" y="-141.8" font-family="Helvetica,sans-Serif" font-size="14.00" fill="#000000">X1 ≤ 0.607</text>
<text text-anchor="start" x="365" y="-126.8" font-family="Helvetica,sans-Serif" font-size="14.00" fill="#000000">mse = 0.011</text>
<text text-anchor="start" x="357" y="-111.8" font-family="Helvetica,sans-Serif" font-size="14.00" fill="#000000">samples = 109</text>
<text text-anchor="start" x="361" y="-96.8" font-family="Helvetica,sans-Serif" font-size="14.00" fill="#000000">value = 0.029</text>
</g>
<!-- 1&#45;&gt;5 -->
<g id="edge5" class="edge">
<title>1&#45;&gt;5</title>
<path fill="none" stroke="#000000" d="M411.5,-192.9465C411.5,-184.776 411.5,-175.9318 411.5,-167.3697"/>
<polygon fill="#000000" stroke="#000000" points="415.0001,-167.13 411.5,-157.13 408.0001,-167.13 415.0001,-167.13"/>
</g>
<!-- 3 -->
<g id="node4" class="node">
<title>3</title>
<path fill="#eca36f" stroke="#000000" d="M113,-53C113,-53 12,-53 12,-53 6,-53 0,-47 0,-41 0,-41 0,-12 0,-12 0,-6 6,0 12,0 12,0 113,0 113,0 119,0 125,-6 125,-12 125,-12 125,-41 125,-41 125,-47 119,-53 113,-53"/>
<text text-anchor="start" x="16" y="-37.8" font-family="Helvetica,sans-Serif" font-size="14.00" fill="#000000">mse = 0.011</text>
<text text-anchor="start" x="8" y="-22.8" font-family="Helvetica,sans-Serif" font-size="14.00" fill="#000000">samples = 176</text>
<text text-anchor="start" x="12" y="-7.8" font-family="Helvetica,sans-Serif" font-size="14.00" fill="#000000">value = 0.075</text>
</g>
<!-- 2&#45;&gt;3 -->
<g id="edge3" class="edge">
<title>2&#45;&gt;3</title>
<path fill="none" stroke="#000000" d="M155.0835,-88.9777C140.7,-79.2713 125.0663,-68.7213 110.8115,-59.1018"/>
<polygon fill="#000000" stroke="#000000" points="112.3846,-55.941 102.1376,-53.2485 108.469,-61.7435 112.3846,-55.941"/>
</g>
<!-- 4 -->
<g id="node5" class="node">
<title>4</title>
<path fill="#e58139" stroke="#000000" d="M256,-53C256,-53 155,-53 155,-53 149,-53 143,-47 143,-41 143,-41 143,-12 143,-12 143,-6 149,0 155,0 155,0 256,0 256,0 262,0 268,-6 268,-12 268,-12 268,-41 268,-41 268,-47 262,-53 256,-53"/>
<text text-anchor="start" x="159" y="-37.8" font-family="Helvetica,sans-Serif" font-size="14.00" fill="#000000">mse = 0.013</text>
<text text-anchor="start" x="151" y="-22.8" font-family="Helvetica,sans-Serif" font-size="14.00" fill="#000000">samples = 390</text>
<text text-anchor="start" x="155" y="-7.8" font-family="Helvetica,sans-Serif" font-size="14.00" fill="#000000">value = 0.179</text>
</g>
<!-- 2&#45;&gt;4 -->
<g id="edge4" class="edge">
<title>2&#45;&gt;4</title>
<path fill="none" stroke="#000000" d="M205.5,-88.9777C205.5,-80.7364 205.5,-71.887 205.5,-63.5153"/>
<polygon fill="#000000" stroke="#000000" points="209.0001,-63.2484 205.5,-53.2485 202.0001,-63.2485 209.0001,-63.2484"/>
</g>
<!-- 6 -->
<g id="node7" class="node">
<title>6</title>
<path fill="#eda876" stroke="#000000" d="M390.5,-53C390.5,-53 298.5,-53 298.5,-53 292.5,-53 286.5,-47 286.5,-41 286.5,-41 286.5,-12 286.5,-12 286.5,-6 292.5,0 298.5,0 298.5,0 390.5,0 390.5,0 396.5,0 402.5,-6 402.5,-12 402.5,-12 402.5,-41 402.5,-41 402.5,-47 396.5,-53 390.5,-53"/>
<text text-anchor="start" x="302.5" y="-37.8" font-family="Helvetica,sans-Serif" font-size="14.00" fill="#000000">mse = 0.01</text>
<text text-anchor="start" x="294.5" y="-22.8" font-family="Helvetica,sans-Serif" font-size="14.00" fill="#000000">samples = 49</text>
<text text-anchor="start" x="298.5" y="-7.8" font-family="Helvetica,sans-Serif" font-size="14.00" fill="#000000">value = 0.06</text>
</g>
<!-- 5&#45;&gt;6 -->
<g id="edge6" class="edge">
<title>5&#45;&gt;6</title>
<path fill="none" stroke="#000000" d="M387.8783,-88.9777C381.7113,-80.0954 375.0539,-70.5067 368.8499,-61.5711"/>
<polygon fill="#000000" stroke="#000000" points="371.6497,-59.4666 363.0715,-53.2485 365.8997,-63.4589 371.6497,-59.4666"/>
</g>
<!-- 7 -->
<g id="node8" class="node">
<title>7</title>
<path fill="#f1ba92" stroke="#000000" d="M526,-53C526,-53 433,-53 433,-53 427,-53 421,-47 421,-41 421,-41 421,-12 421,-12 421,-6 427,0 433,0 433,0 526,0 526,0 532,0 538,-6 538,-12 538,-12 538,-41 538,-41 538,-47 532,-53 526,-53"/>
<text text-anchor="start" x="433" y="-37.8" font-family="Helvetica,sans-Serif" font-size="14.00" fill="#000000">mse = 0.011</text>
<text text-anchor="start" x="429.5" y="-22.8" font-family="Helvetica,sans-Serif" font-size="14.00" fill="#000000">samples = 60</text>
<text text-anchor="start" x="429" y="-7.8" font-family="Helvetica,sans-Serif" font-size="14.00" fill="#000000">value = 0.005</text>
</g>
<!-- 5&#45;&gt;7 -->
<g id="edge7" class="edge">
<title>5&#45;&gt;7</title>
<path fill="none" stroke="#000000" d="M435.4743,-88.9777C441.7333,-80.0954 448.4901,-70.5067 454.7867,-61.5711"/>
<polygon fill="#000000" stroke="#000000" points="457.7521,-63.4389 460.6513,-53.2485 452.0301,-59.4068 457.7521,-63.4389"/>
</g>
<!-- 9 -->
<g id="node10" class="node">
<title>9</title>
<path fill="#f5d0b5" stroke="#000000" d="M731.5,-157C731.5,-157 633.5,-157 633.5,-157 627.5,-157 621.5,-151 621.5,-145 621.5,-145 621.5,-101 621.5,-101 621.5,-95 627.5,-89 633.5,-89 633.5,-89 731.5,-89 731.5,-89 737.5,-89 743.5,-95 743.5,-101 743.5,-101 743.5,-145 743.5,-145 743.5,-151 737.5,-157 731.5,-157"/>
<text text-anchor="start" x="642" y="-141.8" font-family="Helvetica,sans-Serif" font-size="14.00" fill="#000000">X1 ≤ 0.963</text>
<text text-anchor="start" x="636" y="-126.8" font-family="Helvetica,sans-Serif" font-size="14.00" fill="#000000">mse = 0.007</text>
<text text-anchor="start" x="632.5" y="-111.8" font-family="Helvetica,sans-Serif" font-size="14.00" fill="#000000">samples = 56</text>
<text text-anchor="start" x="629.5" y="-96.8" font-family="Helvetica,sans-Serif" font-size="14.00" fill="#000000">value = &#45;0.063</text>
</g>
<!-- 8&#45;&gt;9 -->
<g id="edge9" class="edge">
<title>8&#45;&gt;9</title>
<path fill="none" stroke="#000000" d="M682.5,-192.9465C682.5,-184.776 682.5,-175.9318 682.5,-167.3697"/>
<polygon fill="#000000" stroke="#000000" points="686.0001,-167.13 682.5,-157.13 679.0001,-167.13 686.0001,-167.13"/>
</g>
<!-- 12 -->
<g id="node13" class="node">
<title>12</title>
<path fill="#fdf5f0" stroke="#000000" d="M941,-157C941,-157 840,-157 840,-157 834,-157 828,-151 828,-145 828,-145 828,-101 828,-101 828,-95 834,-89 840,-89 840,-89 941,-89 941,-89 947,-89 953,-95 953,-101 953,-101 953,-145 953,-145 953,-151 947,-157 941,-157"/>
<text text-anchor="start" x="850" y="-141.8" font-family="Helvetica,sans-Serif" font-size="14.00" fill="#000000">X1 ≤ 0.756</text>
<text text-anchor="start" x="844" y="-126.8" font-family="Helvetica,sans-Serif" font-size="14.00" fill="#000000">mse = 0.013</text>
<text text-anchor="start" x="836" y="-111.8" font-family="Helvetica,sans-Serif" font-size="14.00" fill="#000000">samples = 269</text>
<text text-anchor="start" x="837.5" y="-96.8" font-family="Helvetica,sans-Serif" font-size="14.00" fill="#000000">value = &#45;0.176</text>
</g>
<!-- 8&#45;&gt;12 -->
<g id="edge12" class="edge">
<title>8&#45;&gt;12</title>
<path fill="none" stroke="#000000" d="M745.1889,-195.6555C768.4176,-184.0412 794.9294,-170.7853 818.8924,-158.8038"/>
<polygon fill="#000000" stroke="#000000" points="820.5605,-161.883 827.9395,-154.2803 817.4299,-155.622 820.5605,-161.883"/>
</g>
<!-- 10 -->
<g id="node11" class="node">
<title>10</title>
<path fill="#f6d3bb" stroke="#000000" d="M666.5,-53C666.5,-53 568.5,-53 568.5,-53 562.5,-53 556.5,-47 556.5,-41 556.5,-41 556.5,-12 556.5,-12 556.5,-6 562.5,0 568.5,0 568.5,0 666.5,0 666.5,0 672.5,0 678.5,-6 678.5,-12 678.5,-12 678.5,-41 678.5,-41 678.5,-47 672.5,-53 666.5,-53"/>
<text text-anchor="start" x="571" y="-37.8" font-family="Helvetica,sans-Serif" font-size="14.00" fill="#000000">mse = 0.006</text>
<text text-anchor="start" x="567.5" y="-22.8" font-family="Helvetica,sans-Serif" font-size="14.00" fill="#000000">samples = 51</text>
<text text-anchor="start" x="564.5" y="-7.8" font-family="Helvetica,sans-Serif" font-size="14.00" fill="#000000">value = &#45;0.073</text>
</g>
<!-- 9&#45;&gt;10 -->
<g id="edge10" class="edge">
<title>9&#45;&gt;10</title>
<path fill="none" stroke="#000000" d="M659.5834,-88.9777C653.6006,-80.0954 647.1418,-70.5067 641.123,-61.5711"/>
<polygon fill="#000000" stroke="#000000" points="644.0067,-59.5871 635.5171,-53.2485 638.2009,-63.4978 644.0067,-59.5871"/>
</g>
<!-- 11 -->
<g id="node12" class="node">
<title>11</title>
<path fill="#eead7f" stroke="#000000" d="M802,-53C802,-53 709,-53 709,-53 703,-53 697,-47 697,-41 697,-41 697,-12 697,-12 697,-6 703,0 709,0 709,0 802,0 802,0 808,0 814,-6 814,-12 814,-12 814,-41 814,-41 814,-47 808,-53 802,-53"/>
<text text-anchor="start" x="713.5" y="-37.8" font-family="Helvetica,sans-Serif" font-size="14.00" fill="#000000">mse = 0.01</text>
<text text-anchor="start" x="710" y="-22.8" font-family="Helvetica,sans-Serif" font-size="14.00" fill="#000000">samples = 5</text>
<text text-anchor="start" x="705" y="-7.8" font-family="Helvetica,sans-Serif" font-size="14.00" fill="#000000">value = 0.043</text>
</g>
<!-- 9&#45;&gt;11 -->
<g id="edge11" class="edge">
<title>9&#45;&gt;11</title>
<path fill="none" stroke="#000000" d="M708.2371,-88.9777C715.0256,-80.0039 722.3596,-70.3089 729.1784,-61.295"/>
<polygon fill="#000000" stroke="#000000" points="732.0237,-63.3352 735.2654,-53.2485 726.441,-59.1121 732.0237,-63.3352"/>
</g>
<!-- 13 -->
<g id="node14" class="node">
<title>13</title>
<path fill="#f8dcc8" stroke="#000000" d="M936.5,-53C936.5,-53 844.5,-53 844.5,-53 838.5,-53 832.5,-47 832.5,-41 832.5,-41 832.5,-12 832.5,-12 832.5,-6 838.5,0 844.5,0 844.5,0 936.5,0 936.5,0 942.5,0 948.5,-6 948.5,-12 948.5,-12 948.5,-41 948.5,-41 948.5,-47 942.5,-53 936.5,-53"/>
<text text-anchor="start" x="844" y="-37.8" font-family="Helvetica,sans-Serif" font-size="14.00" fill="#000000">mse = 0.012</text>
<text text-anchor="start" x="840.5" y="-22.8" font-family="Helvetica,sans-Serif" font-size="14.00" fill="#000000">samples = 76</text>
<text text-anchor="start" x="846.5" y="-7.8" font-family="Helvetica,sans-Serif" font-size="14.00" fill="#000000">value = &#45;0.1</text>
</g>
<!-- 12&#45;&gt;13 -->
<g id="edge13" class="edge">
<title>12&#45;&gt;13</title>
<path fill="none" stroke="#000000" d="M890.5,-88.9777C890.5,-80.7364 890.5,-71.887 890.5,-63.5153"/>
<polygon fill="#000000" stroke="#000000" points="894.0001,-63.2484 890.5,-53.2485 887.0001,-63.2485 894.0001,-63.2484"/>
</g>
<!-- 14 -->
<g id="node15" class="node">
<title>14</title>
<path fill="#ffffff" stroke="#000000" d="M1080,-53C1080,-53 979,-53 979,-53 973,-53 967,-47 967,-41 967,-41 967,-12 967,-12 967,-6 973,0 979,0 979,0 1080,0 1080,0 1086,0 1092,-6 1092,-12 1092,-12 1092,-41 1092,-41 1092,-47 1086,-53 1080,-53"/>
<text text-anchor="start" x="983" y="-37.8" font-family="Helvetica,sans-Serif" font-size="14.00" fill="#000000">mse = 0.011</text>
<text text-anchor="start" x="975" y="-22.8" font-family="Helvetica,sans-Serif" font-size="14.00" fill="#000000">samples = 193</text>
<text text-anchor="start" x="976.5" y="-7.8" font-family="Helvetica,sans-Serif" font-size="14.00" fill="#000000">value = &#45;0.206</text>
</g>
<!-- 12&#45;&gt;14 -->
<g id="edge14" class="edge">
<title>12&#45;&gt;14</title>
<path fill="none" stroke="#000000" d="M939.5062,-88.9777C953.4874,-79.2713 968.6838,-68.7213 982.5398,-59.1018"/>
<polygon fill="#000000" stroke="#000000" points="984.7526,-61.8264 990.9711,-53.2485 980.7606,-56.0763 984.7526,-61.8264"/>
</g>
</g>
</svg>
