<?xml version="1.0" encoding="UTF-8" standalone="no"?>
<!DOCTYPE svg PUBLIC "-//W3C//DTD SVG 1.1//EN"
 "http://www.w3.org/Graphics/SVG/1.1/DTD/svg11.dtd">
<!-- Generated by graphviz version 2.50.0 (0)
 -->
<!-- Title: Tree Pages: 1 -->
<svg width="1510pt" height="373pt"
 viewBox="0.00 0.00 1509.50 373.00" xmlns="http://www.w3.org/2000/svg" xmlns:xlink="http://www.w3.org/1999/xlink">
<g id="graph0" class="graph" transform="scale(1 1) rotate(0) translate(4 369)">
<title>Tree</title>
<polygon fill="white" stroke="transparent" points="-4,4 -4,-369 1505.5,-369 1505.5,4 -4,4"/>
<!-- 0 -->
<g id="node1" class="node">
<title>0</title>
<path fill="#eeaa7a" stroke="black" d="M821.5,-365C821.5,-365 671.5,-365 671.5,-365 665.5,-365 659.5,-359 659.5,-353 659.5,-353 659.5,-309 659.5,-309 659.5,-303 665.5,-297 671.5,-297 671.5,-297 821.5,-297 821.5,-297 827.5,-297 833.5,-303 833.5,-309 833.5,-309 833.5,-353 833.5,-353 833.5,-359 827.5,-365 821.5,-365"/>
<text text-anchor="start" x="706" y="-349.8" font-family="Helvetica,sans-Serif" font-size="14.00">X1 ≤ 0.663</text>
<text text-anchor="start" x="667.5" y="-334.8" font-family="Helvetica,sans-Serif" font-size="14.00">squared_error = 0.036</text>
<text text-anchor="start" x="689" y="-319.8" font-family="Helvetica,sans-Serif" font-size="14.00">samples = 1000</text>
<text text-anchor="start" x="696.5" y="-304.8" font-family="Helvetica,sans-Serif" font-size="14.00">value = 0.031</text>
</g>
<!-- 1 -->
<g id="node2" class="node">
<title>1</title>
<path fill="#e78d4c" stroke="black" d="M631.5,-261C631.5,-261 481.5,-261 481.5,-261 475.5,-261 469.5,-255 469.5,-249 469.5,-249 469.5,-205 469.5,-205 469.5,-199 475.5,-193 481.5,-193 481.5,-193 631.5,-193 631.5,-193 637.5,-193 643.5,-199 643.5,-205 643.5,-205 643.5,-249 643.5,-249 643.5,-255 637.5,-261 631.5,-261"/>
<text text-anchor="start" x="516" y="-245.8" font-family="Helvetica,sans-Serif" font-size="14.00">X1 ≤ 0.553</text>
<text text-anchor="start" x="477.5" y="-230.8" font-family="Helvetica,sans-Serif" font-size="14.00">squared_error = 0.016</text>
<text text-anchor="start" x="503.5" y="-215.8" font-family="Helvetica,sans-Serif" font-size="14.00">samples = 658</text>
<text text-anchor="start" x="506.5" y="-200.8" font-family="Helvetica,sans-Serif" font-size="14.00">value = 0.132</text>
</g>
<!-- 0&#45;&gt;1 -->
<g id="edge1" class="edge">
<title>0&#45;&gt;1</title>
<path fill="none" stroke="black" d="M684.81,-296.88C666.38,-286.99 646.04,-276.07 627.09,-265.9"/>
<polygon fill="black" stroke="black" points="628.67,-262.77 618.2,-261.12 625.36,-268.94 628.67,-262.77"/>
<text text-anchor="middle" x="625.42" y="-281.36" font-family="Helvetica,sans-Serif" font-size="14.00">True</text>
</g>
<!-- 8 -->
<g id="node9" class="node">
<title>8</title>
<path fill="#f9e3d3" stroke="black" d="M1011.5,-261C1011.5,-261 861.5,-261 861.5,-261 855.5,-261 849.5,-255 849.5,-249 849.5,-249 849.5,-205 849.5,-205 849.5,-199 855.5,-193 861.5,-193 861.5,-193 1011.5,-193 1011.5,-193 1017.5,-193 1023.5,-199 1023.5,-205 1023.5,-205 1023.5,-249 1023.5,-249 1023.5,-255 1017.5,-261 1011.5,-261"/>
<text text-anchor="start" x="896" y="-245.8" font-family="Helvetica,sans-Serif" font-size="14.00">X1 ≤ 0.826</text>
<text text-anchor="start" x="857.5" y="-230.8" font-family="Helvetica,sans-Serif" font-size="14.00">squared_error = 0.018</text>
<text text-anchor="start" x="883.5" y="-215.8" font-family="Helvetica,sans-Serif" font-size="14.00">samples = 342</text>
<text text-anchor="start" x="884" y="-200.8" font-family="Helvetica,sans-Serif" font-size="14.00">value = &#45;0.164</text>
</g>
<!-- 0&#45;&gt;8 -->
<g id="edge8" class="edge">
<title>0&#45;&gt;8</title>
<path fill="none" stroke="black" d="M808.19,-296.88C826.62,-286.99 846.96,-276.07 865.91,-265.9"/>
<polygon fill="black" stroke="black" points="867.64,-268.94 874.8,-261.12 864.33,-262.77 867.64,-268.94"/>
<text text-anchor="middle" x="867.58" y="-281.36" font-family="Helvetica,sans-Serif" font-size="14.00">False</text>
</g>
<!-- 2 -->
<g id="node3" class="node">
<title>2</title>
<path fill="#e68844" stroke="black" d="M345.5,-157C345.5,-157 195.5,-157 195.5,-157 189.5,-157 183.5,-151 183.5,-145 183.5,-145 183.5,-101 183.5,-101 183.5,-95 189.5,-89 195.5,-89 195.5,-89 345.5,-89 345.5,-89 351.5,-89 357.5,-95 357.5,-101 357.5,-101 357.5,-145 357.5,-145 357.5,-151 351.5,-157 345.5,-157"/>
<text text-anchor="start" x="230" y="-141.8" font-family="Helvetica,sans-Serif" font-size="14.00">X1 ≤ 0.103</text>
<text text-anchor="start" x="191.5" y="-126.8" font-family="Helvetica,sans-Serif" font-size="14.00">squared_error = 0.014</text>
<text text-anchor="start" x="217.5" y="-111.8" font-family="Helvetica,sans-Serif" font-size="14.00">samples = 556</text>
<text text-anchor="start" x="225" y="-96.8" font-family="Helvetica,sans-Serif" font-size="14.00">value = 0.15</text>
</g>
<!-- 1&#45;&gt;2 -->
<g id="edge2" class="edge">
<title>1&#45;&gt;2</title>
<path fill="none" stroke="black" d="M469.14,-194.84C436.99,-183.38 400.4,-170.33 367.46,-158.58"/>
<polygon fill="black" stroke="black" points="368.42,-155.21 357.82,-155.14 366.06,-161.8 368.42,-155.21"/>
</g>
<!-- 5 -->
<g id="node6" class="node">
<title>5</title>
<path fill="#eda978" stroke="black" d="M631.5,-157C631.5,-157 481.5,-157 481.5,-157 475.5,-157 469.5,-151 469.5,-145 469.5,-145 469.5,-101 469.5,-101 469.5,-95 475.5,-89 481.5,-89 481.5,-89 631.5,-89 631.5,-89 637.5,-89 643.5,-95 643.5,-101 643.5,-101 643.5,-145 643.5,-145 643.5,-151 637.5,-157 631.5,-157"/>
<text text-anchor="start" x="516" y="-141.8" font-family="Helvetica,sans-Serif" font-size="14.00">X1 ≤ 0.619</text>
<text text-anchor="start" x="477.5" y="-126.8" font-family="Helvetica,sans-Serif" font-size="14.00">squared_error = 0.011</text>
<text text-anchor="start" x="503.5" y="-111.8" font-family="Helvetica,sans-Serif" font-size="14.00">samples = 102</text>
<text text-anchor="start" x="506.5" y="-96.8" font-family="Helvetica,sans-Serif" font-size="14.00">value = 0.037</text>
</g>
<!-- 1&#45;&gt;5 -->
<g id="edge5" class="edge">
<title>1&#45;&gt;5</title>
<path fill="none" stroke="black" d="M556.5,-192.88C556.5,-184.78 556.5,-175.98 556.5,-167.47"/>
<polygon fill="black" stroke="black" points="560,-167.3 556.5,-157.3 553,-167.3 560,-167.3"/>
</g>
<!-- 3 -->
<g id="node4" class="node">
<title>3</title>
<path fill="#eca16b" stroke="black" d="M153,-53C153,-53 12,-53 12,-53 6,-53 0,-47 0,-41 0,-41 0,-12 0,-12 0,-6 6,0 12,0 12,0 153,0 153,0 159,0 165,-6 165,-12 165,-12 165,-41 165,-41 165,-47 159,-53 153,-53"/>
<text text-anchor="start" x="8" y="-37.8" font-family="Helvetica,sans-Serif" font-size="14.00">squared_error = 0.01</text>
<text text-anchor="start" x="29.5" y="-22.8" font-family="Helvetica,sans-Serif" font-size="14.00">samples = 122</text>
<text text-anchor="start" x="32.5" y="-7.8" font-family="Helvetica,sans-Serif" font-size="14.00">value = 0.064</text>
</g>
<!-- 2&#45;&gt;3 -->
<g id="edge3" class="edge">
<title>2&#45;&gt;3</title>
<path fill="none" stroke="black" d="M204.75,-88.95C184.45,-78.75 162.22,-67.57 142.35,-57.59"/>
<polygon fill="black" stroke="black" points="143.91,-54.45 133.4,-53.09 140.77,-60.71 143.91,-54.45"/>
</g>
<!-- 4 -->
<g id="node5" class="node">
<title>4</title>
<path fill="#e58139" stroke="black" d="M345.5,-53C345.5,-53 195.5,-53 195.5,-53 189.5,-53 183.5,-47 183.5,-41 183.5,-41 183.5,-12 183.5,-12 183.5,-6 189.5,0 195.5,0 195.5,0 345.5,0 345.5,0 351.5,0 357.5,-6 357.5,-12 357.5,-12 357.5,-41 357.5,-41 357.5,-47 351.5,-53 345.5,-53"/>
<text text-anchor="start" x="191.5" y="-37.8" font-family="Helvetica,sans-Serif" font-size="14.00">squared_error = 0.013</text>
<text text-anchor="start" x="217.5" y="-22.8" font-family="Helvetica,sans-Serif" font-size="14.00">samples = 434</text>
<text text-anchor="start" x="220.5" y="-7.8" font-family="Helvetica,sans-Serif" font-size="14.00">value = 0.174</text>
</g>
<!-- 2&#45;&gt;4 -->
<g id="edge4" class="edge">
<title>2&#45;&gt;4</title>
<path fill="none" stroke="black" d="M270.5,-88.95C270.5,-80.72 270.5,-71.85 270.5,-63.48"/>
<polygon fill="black" stroke="black" points="274,-63.24 270.5,-53.24 267,-63.24 274,-63.24"/>
</g>
<!-- 6 -->
<g id="node7" class="node">
<title>6</title>
<path fill="#eca26c" stroke="black" d="M537.5,-53C537.5,-53 387.5,-53 387.5,-53 381.5,-53 375.5,-47 375.5,-41 375.5,-41 375.5,-12 375.5,-12 375.5,-6 381.5,0 387.5,0 387.5,0 537.5,0 537.5,0 543.5,0 549.5,-6 549.5,-12 549.5,-12 549.5,-41 549.5,-41 549.5,-47 543.5,-53 537.5,-53"/>
<text text-anchor="start" x="383.5" y="-37.8" font-family="Helvetica,sans-Serif" font-size="14.00">squared_error = 0.014</text>
<text text-anchor="start" x="414" y="-22.8" font-family="Helvetica,sans-Serif" font-size="14.00">samples = 59</text>
<text text-anchor="start" x="412.5" y="-7.8" font-family="Helvetica,sans-Serif" font-size="14.00">value = 0.062</text>
</g>
<!-- 5&#45;&gt;6 -->
<g id="edge6" class="edge">
<title>5&#45;&gt;6</title>
<path fill="none" stroke="black" d="M523.62,-88.95C514.43,-79.71 504.45,-69.67 495.26,-60.44"/>
<polygon fill="black" stroke="black" points="497.63,-57.86 488.1,-53.24 492.67,-62.79 497.63,-57.86"/>
</g>
<!-- 7 -->
<g id="node8" class="node">
<title>7</title>
<path fill="#efb387" stroke="black" d="M729.5,-53C729.5,-53 579.5,-53 579.5,-53 573.5,-53 567.5,-47 567.5,-41 567.5,-41 567.5,-12 567.5,-12 567.5,-6 573.5,0 579.5,0 579.5,0 729.5,0 729.5,0 735.5,0 741.5,-6 741.5,-12 741.5,-12 741.5,-41 741.5,-41 741.5,-47 735.5,-53 729.5,-53"/>
<text text-anchor="start" x="575.5" y="-37.8" font-family="Helvetica,sans-Serif" font-size="14.00">squared_error = 0.006</text>
<text text-anchor="start" x="606" y="-22.8" font-family="Helvetica,sans-Serif" font-size="14.00">samples = 43</text>
<text text-anchor="start" x="604.5" y="-7.8" font-family="Helvetica,sans-Serif" font-size="14.00">value = 0.003</text>
</g>
<!-- 5&#45;&gt;7 -->
<g id="edge7" class="edge">
<title>5&#45;&gt;7</title>
<path fill="none" stroke="black" d="M590.78,-88.95C600.36,-79.71 610.77,-69.67 620.34,-60.44"/>
<polygon fill="black" stroke="black" points="623.04,-62.7 627.81,-53.24 618.18,-57.66 623.04,-62.7"/>
</g>
<!-- 9 -->
<g id="node10" class="node">
<title>9</title>
<path fill="#f5d1b6" stroke="black" d="M1011.5,-157C1011.5,-157 861.5,-157 861.5,-157 855.5,-157 849.5,-151 849.5,-145 849.5,-145 849.5,-101 849.5,-101 849.5,-95 855.5,-89 861.5,-89 861.5,-89 1011.5,-89 1011.5,-89 1017.5,-89 1023.5,-95 1023.5,-101 1023.5,-101 1023.5,-145 1023.5,-145 1023.5,-151 1017.5,-157 1011.5,-157"/>
<text text-anchor="start" x="896" y="-141.8" font-family="Helvetica,sans-Serif" font-size="14.00">X1 ≤ 0.705</text>
<text text-anchor="start" x="857.5" y="-126.8" font-family="Helvetica,sans-Serif" font-size="14.00">squared_error = 0.014</text>
<text text-anchor="start" x="883.5" y="-111.8" font-family="Helvetica,sans-Serif" font-size="14.00">samples = 164</text>
<text text-anchor="start" x="884" y="-96.8" font-family="Helvetica,sans-Serif" font-size="14.00">value = &#45;0.101</text>
</g>
<!-- 8&#45;&gt;9 -->
<g id="edge9" class="edge">
<title>8&#45;&gt;9</title>
<path fill="none" stroke="black" d="M936.5,-192.88C936.5,-184.78 936.5,-175.98 936.5,-167.47"/>
<polygon fill="black" stroke="black" points="940,-167.3 936.5,-157.3 933,-167.3 940,-167.3"/>
</g>
<!-- 12 -->
<g id="node13" class="node">
<title>12</title>
<path fill="#fdf4ed" stroke="black" d="M1297.5,-157C1297.5,-157 1147.5,-157 1147.5,-157 1141.5,-157 1135.5,-151 1135.5,-145 1135.5,-145 1135.5,-101 1135.5,-101 1135.5,-95 1141.5,-89 1147.5,-89 1147.5,-89 1297.5,-89 1297.5,-89 1303.5,-89 1309.5,-95 1309.5,-101 1309.5,-101 1309.5,-145 1309.5,-145 1309.5,-151 1303.5,-157 1297.5,-157"/>
<text text-anchor="start" x="1182" y="-141.8" font-family="Helvetica,sans-Serif" font-size="14.00">X2 ≤ 0.336</text>
<text text-anchor="start" x="1143.5" y="-126.8" font-family="Helvetica,sans-Serif" font-size="14.00">squared_error = 0.015</text>
<text text-anchor="start" x="1169.5" y="-111.8" font-family="Helvetica,sans-Serif" font-size="14.00">samples = 178</text>
<text text-anchor="start" x="1170" y="-96.8" font-family="Helvetica,sans-Serif" font-size="14.00">value = &#45;0.221</text>
</g>
<!-- 8&#45;&gt;12 -->
<g id="edge12" class="edge">
<title>8&#45;&gt;12</title>
<path fill="none" stroke="black" d="M1023.86,-194.84C1056.01,-183.38 1092.6,-170.33 1125.54,-158.58"/>
<polygon fill="black" stroke="black" points="1126.94,-161.8 1135.18,-155.14 1124.58,-155.21 1126.94,-161.8"/>
</g>
<!-- 10 -->
<g id="node11" class="node">
<title>10</title>
<path fill="#f2bf9a" stroke="black" d="M913,-53C913,-53 772,-53 772,-53 766,-53 760,-47 760,-41 760,-41 760,-12 760,-12 760,-6 766,0 772,0 772,0 913,0 913,0 919,0 925,-6 925,-12 925,-12 925,-41 925,-41 925,-47 919,-53 913,-53"/>
<text text-anchor="start" x="768" y="-37.8" font-family="Helvetica,sans-Serif" font-size="14.00">squared_error = 0.01</text>
<text text-anchor="start" x="794" y="-22.8" font-family="Helvetica,sans-Serif" font-size="14.00">samples = 44</text>
<text text-anchor="start" x="790" y="-7.8" font-family="Helvetica,sans-Serif" font-size="14.00">value = &#45;0.039</text>
</g>
<!-- 9&#45;&gt;10 -->
<g id="edge10" class="edge">
<title>9&#45;&gt;10</title>
<path fill="none" stroke="black" d="M903.62,-88.95C894.43,-79.71 884.45,-69.67 875.26,-60.44"/>
<polygon fill="black" stroke="black" points="877.63,-57.86 868.1,-53.24 872.67,-62.79 877.63,-57.86"/>
</g>
<!-- 11 -->
<g id="node12" class="node">
<title>11</title>
<path fill="#f7d7c1" stroke="black" d="M1105.5,-53C1105.5,-53 955.5,-53 955.5,-53 949.5,-53 943.5,-47 943.5,-41 943.5,-41 943.5,-12 943.5,-12 943.5,-6 949.5,0 955.5,0 955.5,0 1105.5,0 1105.5,0 1111.5,0 1117.5,-6 1117.5,-12 1117.5,-12 1117.5,-41 1117.5,-41 1117.5,-47 1111.5,-53 1105.5,-53"/>
<text text-anchor="start" x="951.5" y="-37.8" font-family="Helvetica,sans-Serif" font-size="14.00">squared_error = 0.013</text>
<text text-anchor="start" x="977.5" y="-22.8" font-family="Helvetica,sans-Serif" font-size="14.00">samples = 120</text>
<text text-anchor="start" x="978" y="-7.8" font-family="Helvetica,sans-Serif" font-size="14.00">value = &#45;0.124</text>
</g>
<!-- 9&#45;&gt;11 -->
<g id="edge11" class="edge">
<title>9&#45;&gt;11</title>
<path fill="none" stroke="black" d="M969.38,-88.95C978.57,-79.71 988.55,-69.67 997.74,-60.44"/>
<polygon fill="black" stroke="black" points="1000.33,-62.79 1004.9,-53.24 995.37,-57.86 1000.33,-62.79"/>
</g>
<!-- 13 -->
<g id="node14" class="node">
<title>13</title>
<path fill="#f7dac4" stroke="black" d="M1297.5,-53C1297.5,-53 1147.5,-53 1147.5,-53 1141.5,-53 1135.5,-47 1135.5,-41 1135.5,-41 1135.5,-12 1135.5,-12 1135.5,-6 1141.5,0 1147.5,0 1147.5,0 1297.5,0 1297.5,0 1303.5,0 1309.5,-6 1309.5,-12 1309.5,-12 1309.5,-41 1309.5,-41 1309.5,-47 1303.5,-53 1297.5,-53"/>
<text text-anchor="start" x="1143.5" y="-37.8" font-family="Helvetica,sans-Serif" font-size="14.00">squared_error = 0.011</text>
<text text-anchor="start" x="1174" y="-22.8" font-family="Helvetica,sans-Serif" font-size="14.00">samples = 54</text>
<text text-anchor="start" x="1170" y="-7.8" font-family="Helvetica,sans-Serif" font-size="14.00">value = &#45;0.131</text>
</g>
<!-- 12&#45;&gt;13 -->
<g id="edge13" class="edge">
<title>12&#45;&gt;13</title>
<path fill="none" stroke="black" d="M1222.5,-88.95C1222.5,-80.72 1222.5,-71.85 1222.5,-63.48"/>
<polygon fill="black" stroke="black" points="1226,-63.24 1222.5,-53.24 1219,-63.24 1226,-63.24"/>
</g>
<!-- 14 -->
<g id="node15" class="node">
<title>14</title>
<path fill="#ffffff" stroke="black" d="M1489.5,-53C1489.5,-53 1339.5,-53 1339.5,-53 1333.5,-53 1327.5,-47 1327.5,-41 1327.5,-41 1327.5,-12 1327.5,-12 1327.5,-6 1333.5,0 1339.5,0 1339.5,0 1489.5,0 1489.5,0 1495.5,0 1501.5,-6 1501.5,-12 1501.5,-12 1501.5,-41 1501.5,-41 1501.5,-47 1495.5,-53 1489.5,-53"/>
<text text-anchor="start" x="1335.5" y="-37.8" font-family="Helvetica,sans-Serif" font-size="14.00">squared_error = 0.011</text>
<text text-anchor="start" x="1361.5" y="-22.8" font-family="Helvetica,sans-Serif" font-size="14.00">samples = 124</text>
<text text-anchor="start" x="1362" y="-7.8" font-family="Helvetica,sans-Serif" font-size="14.00">value = &#45;0.261</text>
</g>
<!-- 12&#45;&gt;14 -->
<g id="edge14" class="edge">
<title>12&#45;&gt;14</title>
<path fill="none" stroke="black" d="M1289.65,-88.95C1310.38,-78.75 1333.08,-67.57 1353.37,-57.59"/>
<polygon fill="black" stroke="black" points="1355.09,-60.64 1362.51,-53.09 1352,-54.36 1355.09,-60.64"/>
</g>
</g>
</svg>
