<?xml version="1.0" encoding="UTF-8" standalone="no"?>
<!DOCTYPE svg PUBLIC "-//W3C//DTD SVG 1.1//EN"
 "http://www.w3.org/Graphics/SVG/1.1/DTD/svg11.dtd">
<!-- Generated by graphviz version 2.40.1 (20161225.0304)
 -->
<!-- Title: Tree Pages: 1 -->
<svg width="1114pt" height="373pt"
 viewBox="0.00 0.00 1114.00 373.00" xmlns="http://www.w3.org/2000/svg" xmlns:xlink="http://www.w3.org/1999/xlink">
<g id="graph0" class="graph" transform="scale(1 1) rotate(0) translate(4 369)">
<title>Tree</title>
<polygon fill="#ffffff" stroke="transparent" points="-4,4 -4,-369 1110,-369 1110,4 -4,4"/>
<!-- 0 -->
<g id="node1" class="node">
<title>0</title>
<path fill="#eead7e" stroke="#000000" d="M600.5,-365C600.5,-365 490.5,-365 490.5,-365 484.5,-365 478.5,-359 478.5,-353 478.5,-353 478.5,-309 478.5,-309 478.5,-303 484.5,-297 490.5,-297 490.5,-297 600.5,-297 600.5,-297 606.5,-297 612.5,-303 612.5,-309 612.5,-309 612.5,-353 612.5,-353 612.5,-359 606.5,-365 600.5,-365"/>
<text text-anchor="start" x="505" y="-349.8" font-family="Helvetica,sans-Serif" font-size="14.00" fill="#000000">X1 ≤ 0.682</text>
<text text-anchor="start" x="499" y="-334.8" font-family="Helvetica,sans-Serif" font-size="14.00" fill="#000000">mse = 0.033</text>
<text text-anchor="start" x="486.5" y="-319.8" font-family="Helvetica,sans-Serif" font-size="14.00" fill="#000000">samples = 1000</text>
<text text-anchor="start" x="495" y="-304.8" font-family="Helvetica,sans-Serif" font-size="14.00" fill="#000000">value = 0.019</text>
</g>
<!-- 1 -->
<g id="node2" class="node">
<title>1</title>
<path fill="#e89254" stroke="#000000" d="M462,-261C462,-261 361,-261 361,-261 355,-261 349,-255 349,-249 349,-249 349,-205 349,-205 349,-199 355,-193 361,-193 361,-193 462,-193 462,-193 468,-193 474,-199 474,-205 474,-205 474,-249 474,-249 474,-255 468,-261 462,-261"/>
<text text-anchor="start" x="371" y="-245.8" font-family="Helvetica,sans-Serif" font-size="14.00" fill="#000000">X1 ≤ 0.516</text>
<text text-anchor="start" x="365" y="-230.8" font-family="Helvetica,sans-Serif" font-size="14.00" fill="#000000">mse = 0.017</text>
<text text-anchor="start" x="357" y="-215.8" font-family="Helvetica,sans-Serif" font-size="14.00" fill="#000000">samples = 664</text>
<text text-anchor="start" x="361" y="-200.8" font-family="Helvetica,sans-Serif" font-size="14.00" fill="#000000">value = 0.112</text>
</g>
<!-- 0&#45;&gt;1 -->
<g id="edge1" class="edge">
<title>0&#45;&gt;1</title>
<path fill="none" stroke="#000000" d="M501.6234,-296.9465C489.4765,-287.519 476.1738,-277.1946 463.6073,-267.4415"/>
<polygon fill="#000000" stroke="#000000" points="465.521,-264.4963 455.4752,-261.13 461.2291,-270.0262 465.521,-264.4963"/>
<text text-anchor="middle" x="458.6017" y="-282.2337" font-family="Helvetica,sans-Serif" font-size="14.00" fill="#000000">True</text>
</g>
<!-- 8 -->
<g id="node9" class="node">
<title>8</title>
<path fill="#f9e2d2" stroke="#000000" d="M738,-261C738,-261 637,-261 637,-261 631,-261 625,-255 625,-249 625,-249 625,-205 625,-205 625,-199 631,-193 637,-193 637,-193 738,-193 738,-193 744,-193 750,-199 750,-205 750,-205 750,-249 750,-249 750,-255 744,-261 738,-261"/>
<text text-anchor="start" x="647" y="-245.8" font-family="Helvetica,sans-Serif" font-size="14.00" fill="#000000">X2 ≤ 0.459</text>
<text text-anchor="start" x="641" y="-230.8" font-family="Helvetica,sans-Serif" font-size="14.00" fill="#000000">mse = 0.015</text>
<text text-anchor="start" x="633" y="-215.8" font-family="Helvetica,sans-Serif" font-size="14.00" fill="#000000">samples = 336</text>
<text text-anchor="start" x="634.5" y="-200.8" font-family="Helvetica,sans-Serif" font-size="14.00" fill="#000000">value = &#45;0.164</text>
</g>
<!-- 0&#45;&gt;8 -->
<g id="edge8" class="edge">
<title>0&#45;&gt;8</title>
<path fill="none" stroke="#000000" d="M591.9961,-296.9465C604.9908,-287.4293 619.2337,-276.9978 632.6621,-267.163"/>
<polygon fill="#000000" stroke="#000000" points="634.8998,-269.8624 640.8994,-261.13 630.7637,-264.2151 634.8998,-269.8624"/>
<text text-anchor="middle" x="637.0829" y="-282.137" font-family="Helvetica,sans-Serif" font-size="14.00" fill="#000000">False</text>
</g>
<!-- 2 -->
<g id="node3" class="node">
<title>2</title>
<path fill="#e78a48" stroke="#000000" d="M256,-157C256,-157 155,-157 155,-157 149,-157 143,-151 143,-145 143,-145 143,-101 143,-101 143,-95 149,-89 155,-89 155,-89 256,-89 256,-89 262,-89 268,-95 268,-101 268,-101 268,-145 268,-145 268,-151 262,-157 256,-157"/>
<text text-anchor="start" x="165" y="-141.8" font-family="Helvetica,sans-Serif" font-size="14.00" fill="#000000">X1 ≤ 0.133</text>
<text text-anchor="start" x="159" y="-126.8" font-family="Helvetica,sans-Serif" font-size="14.00" fill="#000000">mse = 0.016</text>
<text text-anchor="start" x="151" y="-111.8" font-family="Helvetica,sans-Serif" font-size="14.00" fill="#000000">samples = 507</text>
<text text-anchor="start" x="155" y="-96.8" font-family="Helvetica,sans-Serif" font-size="14.00" fill="#000000">value = 0.138</text>
</g>
<!-- 1&#45;&gt;2 -->
<g id="edge2" class="edge">
<title>1&#45;&gt;2</title>
<path fill="none" stroke="#000000" d="M348.8542,-195.373C326.2822,-183.9774 300.6389,-171.0313 277.3431,-159.2703"/>
<polygon fill="#000000" stroke="#000000" points="278.707,-156.0382 268.2027,-154.6557 275.5522,-162.287 278.707,-156.0382"/>
</g>
<!-- 5 -->
<g id="node6" class="node">
<title>5</title>
<path fill="#eeaa7a" stroke="#000000" d="M462,-157C462,-157 361,-157 361,-157 355,-157 349,-151 349,-145 349,-145 349,-101 349,-101 349,-95 355,-89 361,-89 361,-89 462,-89 462,-89 468,-89 474,-95 474,-101 474,-101 474,-145 474,-145 474,-151 468,-157 462,-157"/>
<text text-anchor="start" x="371" y="-141.8" font-family="Helvetica,sans-Serif" font-size="14.00" fill="#000000">X1 ≤ 0.577</text>
<text text-anchor="start" x="369.5" y="-126.8" font-family="Helvetica,sans-Serif" font-size="14.00" fill="#000000">mse = 0.01</text>
<text text-anchor="start" x="357" y="-111.8" font-family="Helvetica,sans-Serif" font-size="14.00" fill="#000000">samples = 157</text>
<text text-anchor="start" x="361" y="-96.8" font-family="Helvetica,sans-Serif" font-size="14.00" fill="#000000">value = 0.028</text>
</g>
<!-- 1&#45;&gt;5 -->
<g id="edge5" class="edge">
<title>1&#45;&gt;5</title>
<path fill="none" stroke="#000000" d="M411.5,-192.9465C411.5,-184.776 411.5,-175.9318 411.5,-167.3697"/>
<polygon fill="#000000" stroke="#000000" points="415.0001,-167.13 411.5,-157.13 408.0001,-167.13 415.0001,-167.13"/>
</g>
<!-- 3 -->
<g id="node4" class="node">
<title>3</title>
<path fill="#eca470" stroke="#000000" d="M113,-53C113,-53 12,-53 12,-53 6,-53 0,-47 0,-41 0,-41 0,-12 0,-12 0,-6 6,0 12,0 12,0 113,0 113,0 119,0 125,-6 125,-12 125,-12 125,-41 125,-41 125,-47 119,-53 113,-53"/>
<text text-anchor="start" x="16" y="-37.8" font-family="Helvetica,sans-Serif" font-size="14.00" fill="#000000">mse = 0.013</text>
<text text-anchor="start" x="8" y="-22.8" font-family="Helvetica,sans-Serif" font-size="14.00" fill="#000000">samples = 136</text>
<text text-anchor="start" x="16.5" y="-7.8" font-family="Helvetica,sans-Serif" font-size="14.00" fill="#000000">value = 0.05</text>
</g>
<!-- 2&#45;&gt;3 -->
<g id="edge3" class="edge">
<title>2&#45;&gt;3</title>
<path fill="none" stroke="#000000" d="M155.0835,-88.9777C140.7,-79.2713 125.0663,-68.7213 110.8115,-59.1018"/>
<polygon fill="#000000" stroke="#000000" points="112.3846,-55.941 102.1376,-53.2485 108.469,-61.7435 112.3846,-55.941"/>
</g>
<!-- 4 -->
<g id="node5" class="node">
<title>4</title>
<path fill="#e58139" stroke="#000000" d="M256,-53C256,-53 155,-53 155,-53 149,-53 143,-47 143,-41 143,-41 143,-12 143,-12 143,-6 149,0 155,0 155,0 256,0 256,0 262,0 268,-6 268,-12 268,-12 268,-41 268,-41 268,-47 262,-53 256,-53"/>
<text text-anchor="start" x="159" y="-37.8" font-family="Helvetica,sans-Serif" font-size="14.00" fill="#000000">mse = 0.014</text>
<text text-anchor="start" x="151" y="-22.8" font-family="Helvetica,sans-Serif" font-size="14.00" fill="#000000">samples = 371</text>
<text text-anchor="start" x="159.5" y="-7.8" font-family="Helvetica,sans-Serif" font-size="14.00" fill="#000000">value = 0.17</text>
</g>
<!-- 2&#45;&gt;4 -->
<g id="edge4" class="edge">
<title>2&#45;&gt;4</title>
<path fill="none" stroke="#000000" d="M205.5,-88.9777C205.5,-80.7364 205.5,-71.887 205.5,-63.5153"/>
<polygon fill="#000000" stroke="#000000" points="209.0001,-63.2484 205.5,-53.2485 202.0001,-63.2485 209.0001,-63.2484"/>
</g>
<!-- 6 -->
<g id="node7" class="node">
<title>6</title>
<path fill="#eb9d66" stroke="#000000" d="M391,-53C391,-53 298,-53 298,-53 292,-53 286,-47 286,-41 286,-41 286,-12 286,-12 286,-6 292,0 298,0 298,0 391,0 391,0 397,0 403,-6 403,-12 403,-12 403,-41 403,-41 403,-47 397,-53 391,-53"/>
<text text-anchor="start" x="302.5" y="-37.8" font-family="Helvetica,sans-Serif" font-size="14.00" fill="#000000">mse = 0.01</text>
<text text-anchor="start" x="294.5" y="-22.8" font-family="Helvetica,sans-Serif" font-size="14.00" fill="#000000">samples = 60</text>
<text text-anchor="start" x="294" y="-7.8" font-family="Helvetica,sans-Serif" font-size="14.00" fill="#000000">value = 0.072</text>
</g>
<!-- 5&#45;&gt;6 -->
<g id="edge6" class="edge">
<title>5&#45;&gt;6</title>
<path fill="none" stroke="#000000" d="M387.8783,-88.9777C381.7113,-80.0954 375.0539,-70.5067 368.8499,-61.5711"/>
<polygon fill="#000000" stroke="#000000" points="371.6497,-59.4666 363.0715,-53.2485 365.8997,-63.4589 371.6497,-59.4666"/>
</g>
<!-- 7 -->
<g id="node8" class="node">
<title>7</title>
<path fill="#efb286" stroke="#000000" d="M526,-53C526,-53 433,-53 433,-53 427,-53 421,-47 421,-41 421,-41 421,-12 421,-12 421,-6 427,0 433,0 433,0 526,0 526,0 532,0 538,-6 538,-12 538,-12 538,-41 538,-41 538,-47 532,-53 526,-53"/>
<text text-anchor="start" x="433" y="-37.8" font-family="Helvetica,sans-Serif" font-size="14.00" fill="#000000">mse = 0.008</text>
<text text-anchor="start" x="429.5" y="-22.8" font-family="Helvetica,sans-Serif" font-size="14.00" fill="#000000">samples = 97</text>
<text text-anchor="start" x="429" y="-7.8" font-family="Helvetica,sans-Serif" font-size="14.00" fill="#000000">value = 0.001</text>
</g>
<!-- 5&#45;&gt;7 -->
<g id="edge7" class="edge">
<title>5&#45;&gt;7</title>
<path fill="none" stroke="#000000" d="M435.4743,-88.9777C441.7333,-80.0954 448.4901,-70.5067 454.7867,-61.5711"/>
<polygon fill="#000000" stroke="#000000" points="457.7521,-63.4389 460.6513,-53.2485 452.0301,-59.4068 457.7521,-63.4389"/>
</g>
<!-- 9 -->
<g id="node10" class="node">
<title>9</title>
<path fill="#f6d3ba" stroke="#000000" d="M738,-157C738,-157 637,-157 637,-157 631,-157 625,-151 625,-145 625,-145 625,-101 625,-101 625,-95 631,-89 637,-89 637,-89 738,-89 738,-89 744,-89 750,-95 750,-101 750,-101 750,-145 750,-145 750,-151 744,-157 738,-157"/>
<text text-anchor="start" x="647" y="-141.8" font-family="Helvetica,sans-Serif" font-size="14.00" fill="#000000">X2 ≤ 0.205</text>
<text text-anchor="start" x="641" y="-126.8" font-family="Helvetica,sans-Serif" font-size="14.00" fill="#000000">mse = 0.012</text>
<text text-anchor="start" x="633" y="-111.8" font-family="Helvetica,sans-Serif" font-size="14.00" fill="#000000">samples = 166</text>
<text text-anchor="start" x="634.5" y="-96.8" font-family="Helvetica,sans-Serif" font-size="14.00" fill="#000000">value = &#45;0.113</text>
</g>
<!-- 8&#45;&gt;9 -->
<g id="edge9" class="edge">
<title>8&#45;&gt;9</title>
<path fill="none" stroke="#000000" d="M687.5,-192.9465C687.5,-184.776 687.5,-175.9318 687.5,-167.3697"/>
<polygon fill="#000000" stroke="#000000" points="691.0001,-167.13 687.5,-157.13 684.0001,-167.13 691.0001,-167.13"/>
</g>
<!-- 12 -->
<g id="node13" class="node">
<title>12</title>
<path fill="#fcf1e9" stroke="#000000" d="M952,-157C952,-157 851,-157 851,-157 845,-157 839,-151 839,-145 839,-145 839,-101 839,-101 839,-95 845,-89 851,-89 851,-89 952,-89 952,-89 958,-89 964,-95 964,-101 964,-101 964,-145 964,-145 964,-151 958,-157 952,-157"/>
<text text-anchor="start" x="861" y="-141.8" font-family="Helvetica,sans-Serif" font-size="14.00" fill="#000000">X1 ≤ 0.805</text>
<text text-anchor="start" x="855" y="-126.8" font-family="Helvetica,sans-Serif" font-size="14.00" fill="#000000">mse = 0.013</text>
<text text-anchor="start" x="847" y="-111.8" font-family="Helvetica,sans-Serif" font-size="14.00" fill="#000000">samples = 170</text>
<text text-anchor="start" x="848.5" y="-96.8" font-family="Helvetica,sans-Serif" font-size="14.00" fill="#000000">value = &#45;0.214</text>
</g>
<!-- 8&#45;&gt;12 -->
<g id="edge12" class="edge">
<title>8&#45;&gt;12</title>
<path fill="none" stroke="#000000" d="M750.2611,-196.4993C775.0852,-184.4352 803.7651,-170.4973 829.4326,-158.0234"/>
<polygon fill="#000000" stroke="#000000" points="831.2757,-161.0192 838.74,-153.5002 828.216,-154.7233 831.2757,-161.0192"/>
</g>
<!-- 10 -->
<g id="node11" class="node">
<title>10</title>
<path fill="#f3c5a4" stroke="#000000" d="M666.5,-53C666.5,-53 568.5,-53 568.5,-53 562.5,-53 556.5,-47 556.5,-41 556.5,-41 556.5,-12 556.5,-12 556.5,-6 562.5,0 568.5,0 568.5,0 666.5,0 666.5,0 672.5,0 678.5,-6 678.5,-12 678.5,-12 678.5,-41 678.5,-41 678.5,-47 672.5,-53 666.5,-53"/>
<text text-anchor="start" x="571" y="-37.8" font-family="Helvetica,sans-Serif" font-size="14.00" fill="#000000">mse = 0.011</text>
<text text-anchor="start" x="567.5" y="-22.8" font-family="Helvetica,sans-Serif" font-size="14.00" fill="#000000">samples = 61</text>
<text text-anchor="start" x="564.5" y="-7.8" font-family="Helvetica,sans-Serif" font-size="14.00" fill="#000000">value = &#45;0.064</text>
</g>
<!-- 9&#45;&gt;10 -->
<g id="edge10" class="edge">
<title>9&#45;&gt;10</title>
<path fill="none" stroke="#000000" d="M662.8206,-88.9777C656.3775,-80.0954 649.422,-70.5067 642.9402,-61.5711"/>
<polygon fill="#000000" stroke="#000000" points="645.6079,-59.288 636.903,-53.2485 639.9417,-63.3982 645.6079,-59.288"/>
</g>
<!-- 11 -->
<g id="node12" class="node">
<title>11</title>
<path fill="#f8dcc7" stroke="#000000" d="M810,-53C810,-53 709,-53 709,-53 703,-53 697,-47 697,-41 697,-41 697,-12 697,-12 697,-6 703,0 709,0 709,0 810,0 810,0 816,0 822,-6 822,-12 822,-12 822,-41 822,-41 822,-47 816,-53 810,-53"/>
<text text-anchor="start" x="717.5" y="-37.8" font-family="Helvetica,sans-Serif" font-size="14.00" fill="#000000">mse = 0.01</text>
<text text-anchor="start" x="705" y="-22.8" font-family="Helvetica,sans-Serif" font-size="14.00" fill="#000000">samples = 105</text>
<text text-anchor="start" x="706.5" y="-7.8" font-family="Helvetica,sans-Serif" font-size="14.00" fill="#000000">value = &#45;0.141</text>
</g>
<!-- 9&#45;&gt;11 -->
<g id="edge11" class="edge">
<title>9&#45;&gt;11</title>
<path fill="none" stroke="#000000" d="M712.8845,-88.9777C719.58,-80.0039 726.8135,-70.3089 733.539,-61.295"/>
<polygon fill="#000000" stroke="#000000" points="736.3677,-63.3565 739.5426,-53.2485 730.7573,-59.1704 736.3677,-63.3565"/>
</g>
<!-- 13 -->
<g id="node14" class="node">
<title>13</title>
<path fill="#f7d6bf" stroke="#000000" d="M950.5,-53C950.5,-53 852.5,-53 852.5,-53 846.5,-53 840.5,-47 840.5,-41 840.5,-41 840.5,-12 840.5,-12 840.5,-6 846.5,0 852.5,0 852.5,0 950.5,0 950.5,0 956.5,0 962.5,-6 962.5,-12 962.5,-12 962.5,-41 962.5,-41 962.5,-47 956.5,-53 950.5,-53"/>
<text text-anchor="start" x="855" y="-37.8" font-family="Helvetica,sans-Serif" font-size="14.00" fill="#000000">mse = 0.009</text>
<text text-anchor="start" x="851.5" y="-22.8" font-family="Helvetica,sans-Serif" font-size="14.00" fill="#000000">samples = 59</text>
<text text-anchor="start" x="848.5" y="-7.8" font-family="Helvetica,sans-Serif" font-size="14.00" fill="#000000">value = &#45;0.123</text>
</g>
<!-- 12&#45;&gt;13 -->
<g id="edge13" class="edge">
<title>12&#45;&gt;13</title>
<path fill="none" stroke="#000000" d="M901.5,-88.9777C901.5,-80.7364 901.5,-71.887 901.5,-63.5153"/>
<polygon fill="#000000" stroke="#000000" points="905.0001,-63.2484 901.5,-53.2485 898.0001,-63.2485 905.0001,-63.2484"/>
</g>
<!-- 14 -->
<g id="node15" class="node">
<title>14</title>
<path fill="#ffffff" stroke="#000000" d="M1094,-53C1094,-53 993,-53 993,-53 987,-53 981,-47 981,-41 981,-41 981,-12 981,-12 981,-6 987,0 993,0 993,0 1094,0 1094,0 1100,0 1106,-6 1106,-12 1106,-12 1106,-41 1106,-41 1106,-47 1100,-53 1094,-53"/>
<text text-anchor="start" x="997" y="-37.8" font-family="Helvetica,sans-Serif" font-size="14.00" fill="#000000">mse = 0.009</text>
<text text-anchor="start" x="989" y="-22.8" font-family="Helvetica,sans-Serif" font-size="14.00" fill="#000000">samples = 111</text>
<text text-anchor="start" x="990.5" y="-7.8" font-family="Helvetica,sans-Serif" font-size="14.00" fill="#000000">value = &#45;0.262</text>
</g>
<!-- 12&#45;&gt;14 -->
<g id="edge14" class="edge">
<title>12&#45;&gt;14</title>
<path fill="none" stroke="#000000" d="M951.5639,-88.9777C965.8469,-79.2713 981.3713,-68.7213 995.5263,-59.1018"/>
<polygon fill="#000000" stroke="#000000" points="997.8359,-61.764 1004.1395,-53.2485 993.9014,-55.9744 997.8359,-61.764"/>
</g>
</g>
</svg>
