<?xml version="1.0" encoding="UTF-8" standalone="no"?>
<!DOCTYPE svg PUBLIC "-//W3C//DTD SVG 1.1//EN"
 "http://www.w3.org/Graphics/SVG/1.1/DTD/svg11.dtd">
<!-- Generated by graphviz version 2.40.1 (20161225.0304)
 -->
<!-- Title: Tree Pages: 1 -->
<svg width="1119pt" height="373pt"
 viewBox="0.00 0.00 1118.50 373.00" xmlns="http://www.w3.org/2000/svg" xmlns:xlink="http://www.w3.org/1999/xlink">
<g id="graph0" class="graph" transform="scale(1 1) rotate(0) translate(4 369)">
<title>Tree</title>
<polygon fill="#ffffff" stroke="transparent" points="-4,4 -4,-369 1114.5,-369 1114.5,4 -4,4"/>
<!-- 0 -->
<g id="node1" class="node">
<title>0</title>
<path fill="#eead7e" stroke="#000000" d="M606,-365C606,-365 496,-365 496,-365 490,-365 484,-359 484,-353 484,-353 484,-309 484,-309 484,-303 490,-297 496,-297 496,-297 606,-297 606,-297 612,-297 618,-303 618,-309 618,-309 618,-353 618,-353 618,-359 612,-365 606,-365"/>
<text text-anchor="start" x="510.5" y="-349.8" font-family="Helvetica,sans-Serif" font-size="14.00" fill="#000000">X1 ≤ 0.646</text>
<text text-anchor="start" x="504.5" y="-334.8" font-family="Helvetica,sans-Serif" font-size="14.00" fill="#000000">mse = 0.034</text>
<text text-anchor="start" x="492" y="-319.8" font-family="Helvetica,sans-Serif" font-size="14.00" fill="#000000">samples = 1000</text>
<text text-anchor="start" x="500.5" y="-304.8" font-family="Helvetica,sans-Serif" font-size="14.00" fill="#000000">value = 0.034</text>
</g>
<!-- 1 -->
<g id="node2" class="node">
<title>1</title>
<path fill="#e88f4f" stroke="#000000" d="M463.5,-261C463.5,-261 362.5,-261 362.5,-261 356.5,-261 350.5,-255 350.5,-249 350.5,-249 350.5,-205 350.5,-205 350.5,-199 356.5,-193 362.5,-193 362.5,-193 463.5,-193 463.5,-193 469.5,-193 475.5,-199 475.5,-205 475.5,-205 475.5,-249 475.5,-249 475.5,-255 469.5,-261 463.5,-261"/>
<text text-anchor="start" x="372.5" y="-245.8" font-family="Helvetica,sans-Serif" font-size="14.00" fill="#000000">X2 ≤ 0.327</text>
<text text-anchor="start" x="366.5" y="-230.8" font-family="Helvetica,sans-Serif" font-size="14.00" fill="#000000">mse = 0.016</text>
<text text-anchor="start" x="358.5" y="-215.8" font-family="Helvetica,sans-Serif" font-size="14.00" fill="#000000">samples = 644</text>
<text text-anchor="start" x="362.5" y="-200.8" font-family="Helvetica,sans-Serif" font-size="14.00" fill="#000000">value = 0.134</text>
</g>
<!-- 0&#45;&gt;1 -->
<g id="edge1" class="edge">
<title>0&#45;&gt;1</title>
<path fill="none" stroke="#000000" d="M505.8136,-296.9465C493.185,-287.4293 479.3433,-276.9978 466.2932,-267.163"/>
<polygon fill="#000000" stroke="#000000" points="468.3805,-264.3534 458.2879,-261.13 464.1675,-269.9437 468.3805,-264.3534"/>
<text text-anchor="middle" x="461.7661" y="-282.1869" font-family="Helvetica,sans-Serif" font-size="14.00" fill="#000000">True</text>
</g>
<!-- 8 -->
<g id="node9" class="node">
<title>8</title>
<path fill="#f9e2d1" stroke="#000000" d="M742.5,-261C742.5,-261 641.5,-261 641.5,-261 635.5,-261 629.5,-255 629.5,-249 629.5,-249 629.5,-205 629.5,-205 629.5,-199 635.5,-193 641.5,-193 641.5,-193 742.5,-193 742.5,-193 748.5,-193 754.5,-199 754.5,-205 754.5,-205 754.5,-249 754.5,-249 754.5,-255 748.5,-261 742.5,-261"/>
<text text-anchor="start" x="651.5" y="-245.8" font-family="Helvetica,sans-Serif" font-size="14.00" fill="#000000">X1 ≤ 0.771</text>
<text text-anchor="start" x="645.5" y="-230.8" font-family="Helvetica,sans-Serif" font-size="14.00" fill="#000000">mse = 0.017</text>
<text text-anchor="start" x="637.5" y="-215.8" font-family="Helvetica,sans-Serif" font-size="14.00" fill="#000000">samples = 356</text>
<text text-anchor="start" x="639" y="-200.8" font-family="Helvetica,sans-Serif" font-size="14.00" fill="#000000">value = &#45;0.147</text>
</g>
<!-- 0&#45;&gt;8 -->
<g id="edge8" class="edge">
<title>0&#45;&gt;8</title>
<path fill="none" stroke="#000000" d="M597.1687,-296.9465C610.0719,-287.4293 624.2145,-276.9978 637.5483,-267.163"/>
<polygon fill="#000000" stroke="#000000" points="639.7575,-269.8826 645.7276,-261.13 635.6023,-264.2492 639.7575,-269.8826"/>
<text text-anchor="middle" x="641.9944" y="-282.1497" font-family="Helvetica,sans-Serif" font-size="14.00" fill="#000000">False</text>
</g>
<!-- 2 -->
<g id="node3" class="node">
<title>2</title>
<path fill="#eca36e" stroke="#000000" d="M253.5,-157C253.5,-157 152.5,-157 152.5,-157 146.5,-157 140.5,-151 140.5,-145 140.5,-145 140.5,-101 140.5,-101 140.5,-95 146.5,-89 152.5,-89 152.5,-89 253.5,-89 253.5,-89 259.5,-89 265.5,-95 265.5,-101 265.5,-101 265.5,-145 265.5,-145 265.5,-151 259.5,-157 253.5,-157"/>
<text text-anchor="start" x="162.5" y="-141.8" font-family="Helvetica,sans-Serif" font-size="14.00" fill="#000000">X1 ≤ 0.064</text>
<text text-anchor="start" x="156.5" y="-126.8" font-family="Helvetica,sans-Serif" font-size="14.00" fill="#000000">mse = 0.012</text>
<text text-anchor="start" x="148.5" y="-111.8" font-family="Helvetica,sans-Serif" font-size="14.00" fill="#000000">samples = 191</text>
<text text-anchor="start" x="152.5" y="-96.8" font-family="Helvetica,sans-Serif" font-size="14.00" fill="#000000">value = 0.067</text>
</g>
<!-- 1&#45;&gt;2 -->
<g id="edge2" class="edge">
<title>1&#45;&gt;2</title>
<path fill="none" stroke="#000000" d="M350.2775,-195.9374C326.5934,-184.2081 299.464,-170.7727 274.9963,-158.6553"/>
<polygon fill="#000000" stroke="#000000" points="276.2765,-155.3837 265.7619,-154.0821 273.1699,-161.6566 276.2765,-155.3837"/>
</g>
<!-- 5 -->
<g id="node6" class="node">
<title>5</title>
<path fill="#e68742" stroke="#000000" d="M463.5,-157C463.5,-157 362.5,-157 362.5,-157 356.5,-157 350.5,-151 350.5,-145 350.5,-145 350.5,-101 350.5,-101 350.5,-95 356.5,-89 362.5,-89 362.5,-89 463.5,-89 463.5,-89 469.5,-89 475.5,-95 475.5,-101 475.5,-101 475.5,-145 475.5,-145 475.5,-151 469.5,-157 463.5,-157"/>
<text text-anchor="start" x="372.5" y="-141.8" font-family="Helvetica,sans-Serif" font-size="14.00" fill="#000000">X1 ≤ 0.138</text>
<text text-anchor="start" x="366.5" y="-126.8" font-family="Helvetica,sans-Serif" font-size="14.00" fill="#000000">mse = 0.015</text>
<text text-anchor="start" x="358.5" y="-111.8" font-family="Helvetica,sans-Serif" font-size="14.00" fill="#000000">samples = 453</text>
<text text-anchor="start" x="362.5" y="-96.8" font-family="Helvetica,sans-Serif" font-size="14.00" fill="#000000">value = 0.162</text>
</g>
<!-- 1&#45;&gt;5 -->
<g id="edge5" class="edge">
<title>1&#45;&gt;5</title>
<path fill="none" stroke="#000000" d="M413,-192.9465C413,-184.776 413,-175.9318 413,-167.3697"/>
<polygon fill="#000000" stroke="#000000" points="416.5001,-167.13 413,-157.13 409.5001,-167.13 416.5001,-167.13"/>
</g>
<!-- 3 -->
<g id="node4" class="node">
<title>3</title>
<path fill="#f1bc96" stroke="#000000" d="M110,-53C110,-53 12,-53 12,-53 6,-53 0,-47 0,-41 0,-41 0,-12 0,-12 0,-6 6,0 12,0 12,0 110,0 110,0 116,0 122,-6 122,-12 122,-12 122,-41 122,-41 122,-47 116,-53 110,-53"/>
<text text-anchor="start" x="14.5" y="-37.8" font-family="Helvetica,sans-Serif" font-size="14.00" fill="#000000">mse = 0.012</text>
<text text-anchor="start" x="11" y="-22.8" font-family="Helvetica,sans-Serif" font-size="14.00" fill="#000000">samples = 18</text>
<text text-anchor="start" x="8" y="-7.8" font-family="Helvetica,sans-Serif" font-size="14.00" fill="#000000">value = &#45;0.019</text>
</g>
<!-- 2&#45;&gt;3 -->
<g id="edge3" class="edge">
<title>2&#45;&gt;3</title>
<path fill="none" stroke="#000000" d="M152.9361,-88.9777C138.6531,-79.2713 123.1287,-68.7213 108.9737,-59.1018"/>
<polygon fill="#000000" stroke="#000000" points="110.5986,-55.9744 100.3605,-53.2485 106.6641,-61.764 110.5986,-55.9744"/>
</g>
<!-- 4 -->
<g id="node5" class="node">
<title>4</title>
<path fill="#eba06a" stroke="#000000" d="M253.5,-53C253.5,-53 152.5,-53 152.5,-53 146.5,-53 140.5,-47 140.5,-41 140.5,-41 140.5,-12 140.5,-12 140.5,-6 146.5,0 152.5,0 152.5,0 253.5,0 253.5,0 259.5,0 265.5,-6 265.5,-12 265.5,-12 265.5,-41 265.5,-41 265.5,-47 259.5,-53 253.5,-53"/>
<text text-anchor="start" x="156.5" y="-37.8" font-family="Helvetica,sans-Serif" font-size="14.00" fill="#000000">mse = 0.011</text>
<text text-anchor="start" x="148.5" y="-22.8" font-family="Helvetica,sans-Serif" font-size="14.00" fill="#000000">samples = 173</text>
<text text-anchor="start" x="152.5" y="-7.8" font-family="Helvetica,sans-Serif" font-size="14.00" fill="#000000">value = 0.076</text>
</g>
<!-- 2&#45;&gt;4 -->
<g id="edge4" class="edge">
<title>2&#45;&gt;4</title>
<path fill="none" stroke="#000000" d="M203,-88.9777C203,-80.7364 203,-71.887 203,-63.5153"/>
<polygon fill="#000000" stroke="#000000" points="206.5001,-63.2484 203,-53.2485 199.5001,-63.2485 206.5001,-63.2484"/>
</g>
<!-- 6 -->
<g id="node7" class="node">
<title>6</title>
<path fill="#eca16b" stroke="#000000" d="M388.5,-53C388.5,-53 295.5,-53 295.5,-53 289.5,-53 283.5,-47 283.5,-41 283.5,-41 283.5,-12 283.5,-12 283.5,-6 289.5,0 295.5,0 295.5,0 388.5,0 388.5,0 394.5,0 400.5,-6 400.5,-12 400.5,-12 400.5,-41 400.5,-41 400.5,-47 394.5,-53 388.5,-53"/>
<text text-anchor="start" x="295.5" y="-37.8" font-family="Helvetica,sans-Serif" font-size="14.00" fill="#000000">mse = 0.011</text>
<text text-anchor="start" x="292" y="-22.8" font-family="Helvetica,sans-Serif" font-size="14.00" fill="#000000">samples = 84</text>
<text text-anchor="start" x="291.5" y="-7.8" font-family="Helvetica,sans-Serif" font-size="14.00" fill="#000000">value = 0.075</text>
</g>
<!-- 5&#45;&gt;6 -->
<g id="edge6" class="edge">
<title>5&#45;&gt;6</title>
<path fill="none" stroke="#000000" d="M387.9681,-88.9777C381.4329,-80.0954 374.378,-70.5067 367.8036,-61.5711"/>
<polygon fill="#000000" stroke="#000000" points="370.4257,-59.229 361.6802,-53.2485 364.7874,-63.3775 370.4257,-59.229"/>
</g>
<!-- 7 -->
<g id="node8" class="node">
<title>7</title>
<path fill="#e58139" stroke="#000000" d="M531.5,-53C531.5,-53 430.5,-53 430.5,-53 424.5,-53 418.5,-47 418.5,-41 418.5,-41 418.5,-12 418.5,-12 418.5,-6 424.5,0 430.5,0 430.5,0 531.5,0 531.5,0 537.5,0 543.5,-6 543.5,-12 543.5,-12 543.5,-41 543.5,-41 543.5,-47 537.5,-53 531.5,-53"/>
<text text-anchor="start" x="434.5" y="-37.8" font-family="Helvetica,sans-Serif" font-size="14.00" fill="#000000">mse = 0.013</text>
<text text-anchor="start" x="426.5" y="-22.8" font-family="Helvetica,sans-Serif" font-size="14.00" fill="#000000">samples = 369</text>
<text text-anchor="start" x="430.5" y="-7.8" font-family="Helvetica,sans-Serif" font-size="14.00" fill="#000000">value = 0.182</text>
</g>
<!-- 5&#45;&gt;7 -->
<g id="edge7" class="edge">
<title>5&#45;&gt;7</title>
<path fill="none" stroke="#000000" d="M436.9743,-88.9777C443.2333,-80.0954 449.9901,-70.5067 456.2867,-61.5711"/>
<polygon fill="#000000" stroke="#000000" points="459.2521,-63.4389 462.1513,-53.2485 453.5301,-59.4068 459.2521,-63.4389"/>
</g>
<!-- 9 -->
<g id="node10" class="node">
<title>9</title>
<path fill="#f4c8a8" stroke="#000000" d="M742.5,-157C742.5,-157 641.5,-157 641.5,-157 635.5,-157 629.5,-151 629.5,-145 629.5,-145 629.5,-101 629.5,-101 629.5,-95 635.5,-89 641.5,-89 641.5,-89 742.5,-89 742.5,-89 748.5,-89 754.5,-95 754.5,-101 754.5,-101 754.5,-145 754.5,-145 754.5,-151 748.5,-157 742.5,-157"/>
<text text-anchor="start" x="656" y="-141.8" font-family="Helvetica,sans-Serif" font-size="14.00" fill="#000000">X2 ≤ 0.24</text>
<text text-anchor="start" x="645.5" y="-126.8" font-family="Helvetica,sans-Serif" font-size="14.00" fill="#000000">mse = 0.009</text>
<text text-anchor="start" x="637.5" y="-111.8" font-family="Helvetica,sans-Serif" font-size="14.00" fill="#000000">samples = 116</text>
<text text-anchor="start" x="639" y="-96.8" font-family="Helvetica,sans-Serif" font-size="14.00" fill="#000000">value = &#45;0.059</text>
</g>
<!-- 8&#45;&gt;9 -->
<g id="edge9" class="edge">
<title>8&#45;&gt;9</title>
<path fill="none" stroke="#000000" d="M692,-192.9465C692,-184.776 692,-175.9318 692,-167.3697"/>
<polygon fill="#000000" stroke="#000000" points="695.5001,-167.13 692,-157.13 688.5001,-167.13 695.5001,-167.13"/>
</g>
<!-- 12 -->
<g id="node13" class="node">
<title>12</title>
<path fill="#fceee5" stroke="#000000" d="M955.5,-157C955.5,-157 854.5,-157 854.5,-157 848.5,-157 842.5,-151 842.5,-145 842.5,-145 842.5,-101 842.5,-101 842.5,-95 848.5,-89 854.5,-89 854.5,-89 955.5,-89 955.5,-89 961.5,-89 967.5,-95 967.5,-101 967.5,-101 967.5,-145 967.5,-145 967.5,-151 961.5,-157 955.5,-157"/>
<text text-anchor="start" x="864.5" y="-141.8" font-family="Helvetica,sans-Serif" font-size="14.00" fill="#000000">X2 ≤ 0.506</text>
<text text-anchor="start" x="858.5" y="-126.8" font-family="Helvetica,sans-Serif" font-size="14.00" fill="#000000">mse = 0.016</text>
<text text-anchor="start" x="850.5" y="-111.8" font-family="Helvetica,sans-Serif" font-size="14.00" fill="#000000">samples = 240</text>
<text text-anchor="start" x="856.5" y="-96.8" font-family="Helvetica,sans-Serif" font-size="14.00" fill="#000000">value = &#45;0.19</text>
</g>
<!-- 8&#45;&gt;12 -->
<g id="edge12" class="edge">
<title>8&#45;&gt;12</title>
<path fill="none" stroke="#000000" d="M754.755,-196.3591C779.3458,-184.3523 807.7027,-170.5067 833.1108,-158.1008"/>
<polygon fill="#000000" stroke="#000000" points="834.8754,-161.1342 842.3258,-153.6015 831.8041,-154.844 834.8754,-161.1342"/>
</g>
<!-- 10 -->
<g id="node11" class="node">
<title>10</title>
<path fill="#f1bb94" stroke="#000000" d="M672,-53C672,-53 574,-53 574,-53 568,-53 562,-47 562,-41 562,-41 562,-12 562,-12 562,-6 568,0 574,0 574,0 672,0 672,0 678,0 684,-6 684,-12 684,-12 684,-41 684,-41 684,-47 678,-53 672,-53"/>
<text text-anchor="start" x="576.5" y="-37.8" font-family="Helvetica,sans-Serif" font-size="14.00" fill="#000000">mse = 0.009</text>
<text text-anchor="start" x="573" y="-22.8" font-family="Helvetica,sans-Serif" font-size="14.00" fill="#000000">samples = 28</text>
<text text-anchor="start" x="570" y="-7.8" font-family="Helvetica,sans-Serif" font-size="14.00" fill="#000000">value = &#45;0.015</text>
</g>
<!-- 9&#45;&gt;10 -->
<g id="edge10" class="edge">
<title>9&#45;&gt;10</title>
<path fill="none" stroke="#000000" d="M667.6732,-88.9777C661.3221,-80.0954 654.466,-70.5067 648.0768,-61.5711"/>
<polygon fill="#000000" stroke="#000000" points="650.7893,-59.3472 642.1259,-53.2485 645.0952,-63.4187 650.7893,-59.3472"/>
</g>
<!-- 11 -->
<g id="node12" class="node">
<title>11</title>
<path fill="#f4ccaf" stroke="#000000" d="M812,-53C812,-53 714,-53 714,-53 708,-53 702,-47 702,-41 702,-41 702,-12 702,-12 702,-6 708,0 714,0 714,0 812,0 812,0 818,0 824,-6 824,-12 824,-12 824,-41 824,-41 824,-47 818,-53 812,-53"/>
<text text-anchor="start" x="716.5" y="-37.8" font-family="Helvetica,sans-Serif" font-size="14.00" fill="#000000">mse = 0.008</text>
<text text-anchor="start" x="713" y="-22.8" font-family="Helvetica,sans-Serif" font-size="14.00" fill="#000000">samples = 88</text>
<text text-anchor="start" x="710" y="-7.8" font-family="Helvetica,sans-Serif" font-size="14.00" fill="#000000">value = &#45;0.073</text>
</g>
<!-- 9&#45;&gt;11 -->
<g id="edge11" class="edge">
<title>9&#45;&gt;11</title>
<path fill="none" stroke="#000000" d="M717.0319,-88.9777C723.5671,-80.0954 730.622,-70.5067 737.1964,-61.5711"/>
<polygon fill="#000000" stroke="#000000" points="740.2126,-63.3775 743.3198,-53.2485 734.5743,-59.229 740.2126,-63.3775"/>
</g>
<!-- 13 -->
<g id="node14" class="node">
<title>13</title>
<path fill="#f8dbc6" stroke="#000000" d="M955.5,-53C955.5,-53 854.5,-53 854.5,-53 848.5,-53 842.5,-47 842.5,-41 842.5,-41 842.5,-12 842.5,-12 842.5,-6 848.5,0 854.5,0 854.5,0 955.5,0 955.5,0 961.5,0 967.5,-6 967.5,-12 967.5,-12 967.5,-41 967.5,-41 967.5,-47 961.5,-53 955.5,-53"/>
<text text-anchor="start" x="858.5" y="-37.8" font-family="Helvetica,sans-Serif" font-size="14.00" fill="#000000">mse = 0.013</text>
<text text-anchor="start" x="850.5" y="-22.8" font-family="Helvetica,sans-Serif" font-size="14.00" fill="#000000">samples = 110</text>
<text text-anchor="start" x="852" y="-7.8" font-family="Helvetica,sans-Serif" font-size="14.00" fill="#000000">value = &#45;0.124</text>
</g>
<!-- 12&#45;&gt;13 -->
<g id="edge13" class="edge">
<title>12&#45;&gt;13</title>
<path fill="none" stroke="#000000" d="M905,-88.9777C905,-80.7364 905,-71.887 905,-63.5153"/>
<polygon fill="#000000" stroke="#000000" points="908.5001,-63.2484 905,-53.2485 901.5001,-63.2485 908.5001,-63.2484"/>
</g>
<!-- 14 -->
<g id="node15" class="node">
<title>14</title>
<path fill="#ffffff" stroke="#000000" d="M1098.5,-53C1098.5,-53 997.5,-53 997.5,-53 991.5,-53 985.5,-47 985.5,-41 985.5,-41 985.5,-12 985.5,-12 985.5,-6 991.5,0 997.5,0 997.5,0 1098.5,0 1098.5,0 1104.5,0 1110.5,-6 1110.5,-12 1110.5,-12 1110.5,-41 1110.5,-41 1110.5,-47 1104.5,-53 1098.5,-53"/>
<text text-anchor="start" x="1001.5" y="-37.8" font-family="Helvetica,sans-Serif" font-size="14.00" fill="#000000">mse = 0.011</text>
<text text-anchor="start" x="993.5" y="-22.8" font-family="Helvetica,sans-Serif" font-size="14.00" fill="#000000">samples = 130</text>
<text text-anchor="start" x="995" y="-7.8" font-family="Helvetica,sans-Serif" font-size="14.00" fill="#000000">value = &#45;0.247</text>
</g>
<!-- 12&#45;&gt;14 -->
<g id="edge14" class="edge">
<title>12&#45;&gt;14</title>
<path fill="none" stroke="#000000" d="M955.4165,-88.9777C969.8,-79.2713 985.4337,-68.7213 999.6885,-59.1018"/>
<polygon fill="#000000" stroke="#000000" points="1002.031,-61.7435 1008.3624,-53.2485 998.1154,-55.941 1002.031,-61.7435"/>
</g>
</g>
</svg>
