<?xml version="1.0" encoding="UTF-8" standalone="no"?>
<!DOCTYPE svg PUBLIC "-//W3C//DTD SVG 1.1//EN"
 "http://www.w3.org/Graphics/SVG/1.1/DTD/svg11.dtd">
<!-- Generated by graphviz version 2.40.1 (20161225.0304)
 -->
<!-- Title: Tree Pages: 1 -->
<svg width="1105pt" height="373pt"
 viewBox="0.00 0.00 1105.00 373.00" xmlns="http://www.w3.org/2000/svg" xmlns:xlink="http://www.w3.org/1999/xlink">
<g id="graph0" class="graph" transform="scale(1 1) rotate(0) translate(4 369)">
<title>Tree</title>
<polygon fill="#ffffff" stroke="transparent" points="-4,4 -4,-369 1101,-369 1101,4 -4,4"/>
<!-- 0 -->
<g id="node1" class="node">
<title>0</title>
<path fill="#efb184" stroke="#000000" d="M593.5,-365C593.5,-365 483.5,-365 483.5,-365 477.5,-365 471.5,-359 471.5,-353 471.5,-353 471.5,-309 471.5,-309 471.5,-303 477.5,-297 483.5,-297 483.5,-297 593.5,-297 593.5,-297 599.5,-297 605.5,-303 605.5,-309 605.5,-309 605.5,-353 605.5,-353 605.5,-359 599.5,-365 593.5,-365"/>
<text text-anchor="start" x="498" y="-349.8" font-family="Helvetica,sans-Serif" font-size="14.00" fill="#000000">X1 ≤ 0.619</text>
<text text-anchor="start" x="492" y="-334.8" font-family="Helvetica,sans-Serif" font-size="14.00" fill="#000000">mse = 0.034</text>
<text text-anchor="start" x="479.5" y="-319.8" font-family="Helvetica,sans-Serif" font-size="14.00" fill="#000000">samples = 1000</text>
<text text-anchor="start" x="488" y="-304.8" font-family="Helvetica,sans-Serif" font-size="14.00" fill="#000000">value = 0.024</text>
</g>
<!-- 1 -->
<g id="node2" class="node">
<title>1</title>
<path fill="#e88e4e" stroke="#000000" d="M452,-261C452,-261 351,-261 351,-261 345,-261 339,-255 339,-249 339,-249 339,-205 339,-205 339,-199 345,-193 351,-193 351,-193 452,-193 452,-193 458,-193 464,-199 464,-205 464,-205 464,-249 464,-249 464,-255 458,-261 452,-261"/>
<text text-anchor="start" x="370" y="-245.8" font-family="Helvetica,sans-Serif" font-size="14.00" fill="#000000">X1 ≤ 0.1</text>
<text text-anchor="start" x="355" y="-230.8" font-family="Helvetica,sans-Serif" font-size="14.00" fill="#000000">mse = 0.018</text>
<text text-anchor="start" x="347" y="-215.8" font-family="Helvetica,sans-Serif" font-size="14.00" fill="#000000">samples = 598</text>
<text text-anchor="start" x="351" y="-200.8" font-family="Helvetica,sans-Serif" font-size="14.00" fill="#000000">value = 0.133</text>
</g>
<!-- 0&#45;&gt;1 -->
<g id="edge1" class="edge">
<title>0&#45;&gt;1</title>
<path fill="none" stroke="#000000" d="M493.6411,-296.9465C481.2222,-287.519 467.6217,-277.1946 454.7739,-267.4415"/>
<polygon fill="#000000" stroke="#000000" points="456.541,-264.3887 446.4597,-261.13 452.3085,-269.9642 456.541,-264.3887"/>
<text text-anchor="middle" x="449.8513" y="-282.1989" font-family="Helvetica,sans-Serif" font-size="14.00" fill="#000000">True</text>
</g>
<!-- 8 -->
<g id="node9" class="node">
<title>8</title>
<path fill="#fae5d6" stroke="#000000" d="M730,-261C730,-261 629,-261 629,-261 623,-261 617,-255 617,-249 617,-249 617,-205 617,-205 617,-199 623,-193 629,-193 629,-193 730,-193 730,-193 736,-193 742,-199 742,-205 742,-205 742,-249 742,-249 742,-255 736,-261 730,-261"/>
<text text-anchor="start" x="639" y="-245.8" font-family="Helvetica,sans-Serif" font-size="14.00" fill="#000000">X1 ≤ 0.777</text>
<text text-anchor="start" x="633" y="-230.8" font-family="Helvetica,sans-Serif" font-size="14.00" fill="#000000">mse = 0.016</text>
<text text-anchor="start" x="625" y="-215.8" font-family="Helvetica,sans-Serif" font-size="14.00" fill="#000000">samples = 402</text>
<text text-anchor="start" x="626.5" y="-200.8" font-family="Helvetica,sans-Serif" font-size="14.00" fill="#000000">value = &#45;0.137</text>
</g>
<!-- 0&#45;&gt;8 -->
<g id="edge8" class="edge">
<title>0&#45;&gt;8</title>
<path fill="none" stroke="#000000" d="M584.6687,-296.9465C597.5719,-287.4293 611.7145,-276.9978 625.0483,-267.163"/>
<polygon fill="#000000" stroke="#000000" points="627.2575,-269.8826 633.2276,-261.13 623.1023,-264.2492 627.2575,-269.8826"/>
<text text-anchor="middle" x="629.4944" y="-282.1497" font-family="Helvetica,sans-Serif" font-size="14.00" fill="#000000">False</text>
</g>
<!-- 2 -->
<g id="node3" class="node">
<title>2</title>
<path fill="#eeaa7a" stroke="#000000" d="M244,-157C244,-157 143,-157 143,-157 137,-157 131,-151 131,-145 131,-145 131,-101 131,-101 131,-95 137,-89 143,-89 143,-89 244,-89 244,-89 250,-89 256,-95 256,-101 256,-101 256,-145 256,-145 256,-151 250,-157 244,-157"/>
<text text-anchor="start" x="153" y="-141.8" font-family="Helvetica,sans-Serif" font-size="14.00" fill="#000000">X1 ≤ 0.027</text>
<text text-anchor="start" x="147" y="-126.8" font-family="Helvetica,sans-Serif" font-size="14.00" fill="#000000">mse = 0.012</text>
<text text-anchor="start" x="139" y="-111.8" font-family="Helvetica,sans-Serif" font-size="14.00" fill="#000000">samples = 109</text>
<text text-anchor="start" x="143" y="-96.8" font-family="Helvetica,sans-Serif" font-size="14.00" fill="#000000">value = 0.045</text>
</g>
<!-- 1&#45;&gt;2 -->
<g id="edge2" class="edge">
<title>1&#45;&gt;2</title>
<path fill="none" stroke="#000000" d="M338.8111,-195.6555C315.5824,-184.0412 289.0706,-170.7853 265.1076,-158.8038"/>
<polygon fill="#000000" stroke="#000000" points="266.5701,-155.622 256.0605,-154.2803 263.4395,-161.883 266.5701,-155.622"/>
</g>
<!-- 5 -->
<g id="node6" class="node">
<title>5</title>
<path fill="#e68844" stroke="#000000" d="M452,-157C452,-157 351,-157 351,-157 345,-157 339,-151 339,-145 339,-145 339,-101 339,-101 339,-95 345,-89 351,-89 351,-89 452,-89 452,-89 458,-89 464,-95 464,-101 464,-101 464,-145 464,-145 464,-151 458,-157 452,-157"/>
<text text-anchor="start" x="365.5" y="-141.8" font-family="Helvetica,sans-Serif" font-size="14.00" fill="#000000">X1 ≤ 0.55</text>
<text text-anchor="start" x="355" y="-126.8" font-family="Helvetica,sans-Serif" font-size="14.00" fill="#000000">mse = 0.017</text>
<text text-anchor="start" x="347" y="-111.8" font-family="Helvetica,sans-Serif" font-size="14.00" fill="#000000">samples = 489</text>
<text text-anchor="start" x="351" y="-96.8" font-family="Helvetica,sans-Serif" font-size="14.00" fill="#000000">value = 0.152</text>
</g>
<!-- 1&#45;&gt;5 -->
<g id="edge5" class="edge">
<title>1&#45;&gt;5</title>
<path fill="none" stroke="#000000" d="M401.5,-192.9465C401.5,-184.776 401.5,-175.9318 401.5,-167.3697"/>
<polygon fill="#000000" stroke="#000000" points="405.0001,-167.13 401.5,-157.13 398.0001,-167.13 405.0001,-167.13"/>
</g>
<!-- 3 -->
<g id="node4" class="node">
<title>3</title>
<path fill="#f0b890" stroke="#000000" d="M105,-53C105,-53 12,-53 12,-53 6,-53 0,-47 0,-41 0,-41 0,-12 0,-12 0,-6 6,0 12,0 12,0 105,0 105,0 111,0 117,-6 117,-12 117,-12 117,-41 117,-41 117,-47 111,-53 105,-53"/>
<text text-anchor="start" x="12" y="-37.8" font-family="Helvetica,sans-Serif" font-size="14.00" fill="#000000">mse = 0.011</text>
<text text-anchor="start" x="8.5" y="-22.8" font-family="Helvetica,sans-Serif" font-size="14.00" fill="#000000">samples = 38</text>
<text text-anchor="start" x="8" y="-7.8" font-family="Helvetica,sans-Serif" font-size="14.00" fill="#000000">value = 0.002</text>
</g>
<!-- 2&#45;&gt;3 -->
<g id="edge3" class="edge">
<title>2&#45;&gt;3</title>
<path fill="none" stroke="#000000" d="M145.9041,-88.9777C132.3252,-79.2713 117.5661,-68.7213 104.1088,-59.1018"/>
<polygon fill="#000000" stroke="#000000" points="106.0908,-56.2164 95.9202,-53.2485 102.0201,-61.9111 106.0908,-56.2164"/>
</g>
<!-- 4 -->
<g id="node5" class="node">
<title>4</title>
<path fill="#eca36f" stroke="#000000" d="M240,-53C240,-53 147,-53 147,-53 141,-53 135,-47 135,-41 135,-41 135,-12 135,-12 135,-6 141,0 147,0 147,0 240,0 240,0 246,0 252,-6 252,-12 252,-12 252,-41 252,-41 252,-47 246,-53 240,-53"/>
<text text-anchor="start" x="151.5" y="-37.8" font-family="Helvetica,sans-Serif" font-size="14.00" fill="#000000">mse = 0.01</text>
<text text-anchor="start" x="143.5" y="-22.8" font-family="Helvetica,sans-Serif" font-size="14.00" fill="#000000">samples = 71</text>
<text text-anchor="start" x="143" y="-7.8" font-family="Helvetica,sans-Serif" font-size="14.00" fill="#000000">value = 0.067</text>
</g>
<!-- 2&#45;&gt;4 -->
<g id="edge4" class="edge">
<title>2&#45;&gt;4</title>
<path fill="none" stroke="#000000" d="M193.5,-88.9777C193.5,-80.7364 193.5,-71.887 193.5,-63.5153"/>
<polygon fill="#000000" stroke="#000000" points="197.0001,-63.2484 193.5,-53.2485 190.0001,-63.2485 197.0001,-63.2484"/>
</g>
<!-- 6 -->
<g id="node7" class="node">
<title>6</title>
<path fill="#e58139" stroke="#000000" d="M383,-53C383,-53 282,-53 282,-53 276,-53 270,-47 270,-41 270,-41 270,-12 270,-12 270,-6 276,0 282,0 282,0 383,0 383,0 389,0 395,-6 395,-12 395,-12 395,-41 395,-41 395,-47 389,-53 383,-53"/>
<text text-anchor="start" x="286" y="-37.8" font-family="Helvetica,sans-Serif" font-size="14.00" fill="#000000">mse = 0.015</text>
<text text-anchor="start" x="278" y="-22.8" font-family="Helvetica,sans-Serif" font-size="14.00" fill="#000000">samples = 416</text>
<text text-anchor="start" x="282" y="-7.8" font-family="Helvetica,sans-Serif" font-size="14.00" fill="#000000">value = 0.173</text>
</g>
<!-- 5&#45;&gt;6 -->
<g id="edge6" class="edge">
<title>5&#45;&gt;6</title>
<path fill="none" stroke="#000000" d="M377.1732,-88.9777C370.8221,-80.0954 363.966,-70.5067 357.5768,-61.5711"/>
<polygon fill="#000000" stroke="#000000" points="360.2893,-59.3472 351.6259,-53.2485 354.5952,-63.4187 360.2893,-59.3472"/>
</g>
<!-- 7 -->
<g id="node8" class="node">
<title>7</title>
<path fill="#eeae80" stroke="#000000" d="M518,-53C518,-53 425,-53 425,-53 419,-53 413,-47 413,-41 413,-41 413,-12 413,-12 413,-6 419,0 425,0 425,0 518,0 518,0 524,0 530,-6 530,-12 530,-12 530,-41 530,-41 530,-47 524,-53 518,-53"/>
<text text-anchor="start" x="425" y="-37.8" font-family="Helvetica,sans-Serif" font-size="14.00" fill="#000000">mse = 0.013</text>
<text text-anchor="start" x="421.5" y="-22.8" font-family="Helvetica,sans-Serif" font-size="14.00" fill="#000000">samples = 73</text>
<text text-anchor="start" x="421" y="-7.8" font-family="Helvetica,sans-Serif" font-size="14.00" fill="#000000">value = 0.033</text>
</g>
<!-- 5&#45;&gt;7 -->
<g id="edge7" class="edge">
<title>5&#45;&gt;7</title>
<path fill="none" stroke="#000000" d="M426.1794,-88.9777C432.6225,-80.0954 439.578,-70.5067 446.0598,-61.5711"/>
<polygon fill="#000000" stroke="#000000" points="449.0583,-63.3982 452.097,-53.2485 443.3921,-59.288 449.0583,-63.3982"/>
</g>
<!-- 9 -->
<g id="node10" class="node">
<title>9</title>
<path fill="#f5d0b5" stroke="#000000" d="M730,-157C730,-157 629,-157 629,-157 623,-157 617,-151 617,-145 617,-145 617,-101 617,-101 617,-95 623,-89 629,-89 629,-89 730,-89 730,-89 736,-89 742,-95 742,-101 742,-101 742,-145 742,-145 742,-151 736,-157 730,-157"/>
<text text-anchor="start" x="639" y="-141.8" font-family="Helvetica,sans-Serif" font-size="14.00" fill="#000000">X2 ≤ 0.653</text>
<text text-anchor="start" x="633" y="-126.8" font-family="Helvetica,sans-Serif" font-size="14.00" fill="#000000">mse = 0.011</text>
<text text-anchor="start" x="625" y="-111.8" font-family="Helvetica,sans-Serif" font-size="14.00" fill="#000000">samples = 165</text>
<text text-anchor="start" x="626.5" y="-96.8" font-family="Helvetica,sans-Serif" font-size="14.00" fill="#000000">value = &#45;0.071</text>
</g>
<!-- 8&#45;&gt;9 -->
<g id="edge9" class="edge">
<title>8&#45;&gt;9</title>
<path fill="none" stroke="#000000" d="M679.5,-192.9465C679.5,-184.776 679.5,-175.9318 679.5,-167.3697"/>
<polygon fill="#000000" stroke="#000000" points="683.0001,-167.13 679.5,-157.13 676.0001,-167.13 683.0001,-167.13"/>
</g>
<!-- 12 -->
<g id="node13" class="node">
<title>12</title>
<path fill="#fdf4ed" stroke="#000000" d="M943,-157C943,-157 842,-157 842,-157 836,-157 830,-151 830,-145 830,-145 830,-101 830,-101 830,-95 836,-89 842,-89 842,-89 943,-89 943,-89 949,-89 955,-95 955,-101 955,-101 955,-145 955,-145 955,-151 949,-157 943,-157"/>
<text text-anchor="start" x="852" y="-141.8" font-family="Helvetica,sans-Serif" font-size="14.00" fill="#000000">X2 ≤ 0.172</text>
<text text-anchor="start" x="846" y="-126.8" font-family="Helvetica,sans-Serif" font-size="14.00" fill="#000000">mse = 0.014</text>
<text text-anchor="start" x="838" y="-111.8" font-family="Helvetica,sans-Serif" font-size="14.00" fill="#000000">samples = 237</text>
<text text-anchor="start" x="839.5" y="-96.8" font-family="Helvetica,sans-Serif" font-size="14.00" fill="#000000">value = &#45;0.182</text>
</g>
<!-- 8&#45;&gt;12 -->
<g id="edge12" class="edge">
<title>8&#45;&gt;12</title>
<path fill="none" stroke="#000000" d="M742.255,-196.3591C766.8458,-184.3523 795.2027,-170.5067 820.6108,-158.1008"/>
<polygon fill="#000000" stroke="#000000" points="822.3754,-161.1342 829.8258,-153.6015 819.3041,-154.844 822.3754,-161.1342"/>
</g>
<!-- 10 -->
<g id="node11" class="node">
<title>10</title>
<path fill="#f4c8a8" stroke="#000000" d="M661,-53C661,-53 560,-53 560,-53 554,-53 548,-47 548,-41 548,-41 548,-12 548,-12 548,-6 554,0 560,0 560,0 661,0 661,0 667,0 673,-6 673,-12 673,-12 673,-41 673,-41 673,-47 667,-53 661,-53"/>
<text text-anchor="start" x="568.5" y="-37.8" font-family="Helvetica,sans-Serif" font-size="14.00" fill="#000000">mse = 0.01</text>
<text text-anchor="start" x="556" y="-22.8" font-family="Helvetica,sans-Serif" font-size="14.00" fill="#000000">samples = 104</text>
<text text-anchor="start" x="557.5" y="-7.8" font-family="Helvetica,sans-Serif" font-size="14.00" fill="#000000">value = &#45;0.046</text>
</g>
<!-- 9&#45;&gt;10 -->
<g id="edge10" class="edge">
<title>9&#45;&gt;10</title>
<path fill="none" stroke="#000000" d="M655.1732,-88.9777C648.8221,-80.0954 641.966,-70.5067 635.5768,-61.5711"/>
<polygon fill="#000000" stroke="#000000" points="638.2893,-59.3472 629.6259,-53.2485 632.5952,-63.4187 638.2893,-59.3472"/>
</g>
<!-- 11 -->
<g id="node12" class="node">
<title>11</title>
<path fill="#f8ddca" stroke="#000000" d="M801.5,-53C801.5,-53 703.5,-53 703.5,-53 697.5,-53 691.5,-47 691.5,-41 691.5,-41 691.5,-12 691.5,-12 691.5,-6 697.5,0 703.5,0 703.5,0 801.5,0 801.5,0 807.5,0 813.5,-6 813.5,-12 813.5,-12 813.5,-41 813.5,-41 813.5,-47 807.5,-53 801.5,-53"/>
<text text-anchor="start" x="710.5" y="-37.8" font-family="Helvetica,sans-Serif" font-size="14.00" fill="#000000">mse = 0.01</text>
<text text-anchor="start" x="702.5" y="-22.8" font-family="Helvetica,sans-Serif" font-size="14.00" fill="#000000">samples = 61</text>
<text text-anchor="start" x="699.5" y="-7.8" font-family="Helvetica,sans-Serif" font-size="14.00" fill="#000000">value = &#45;0.113</text>
</g>
<!-- 9&#45;&gt;11 -->
<g id="edge11" class="edge">
<title>9&#45;&gt;11</title>
<path fill="none" stroke="#000000" d="M705.2371,-88.9777C712.0256,-80.0039 719.3596,-70.3089 726.1784,-61.295"/>
<polygon fill="#000000" stroke="#000000" points="729.0237,-63.3352 732.2654,-53.2485 723.441,-59.1121 729.0237,-63.3352"/>
</g>
<!-- 13 -->
<g id="node14" class="node">
<title>13</title>
<path fill="#f3c5a4" stroke="#000000" d="M941.5,-53C941.5,-53 843.5,-53 843.5,-53 837.5,-53 831.5,-47 831.5,-41 831.5,-41 831.5,-12 831.5,-12 831.5,-6 837.5,0 843.5,0 843.5,0 941.5,0 941.5,0 947.5,0 953.5,-6 953.5,-12 953.5,-12 953.5,-41 953.5,-41 953.5,-47 947.5,-53 941.5,-53"/>
<text text-anchor="start" x="846" y="-37.8" font-family="Helvetica,sans-Serif" font-size="14.00" fill="#000000">mse = 0.007</text>
<text text-anchor="start" x="842.5" y="-22.8" font-family="Helvetica,sans-Serif" font-size="14.00" fill="#000000">samples = 46</text>
<text text-anchor="start" x="839.5" y="-7.8" font-family="Helvetica,sans-Serif" font-size="14.00" fill="#000000">value = &#45;0.037</text>
</g>
<!-- 12&#45;&gt;13 -->
<g id="edge13" class="edge">
<title>12&#45;&gt;13</title>
<path fill="none" stroke="#000000" d="M892.5,-88.9777C892.5,-80.7364 892.5,-71.887 892.5,-63.5153"/>
<polygon fill="#000000" stroke="#000000" points="896.0001,-63.2484 892.5,-53.2485 889.0001,-63.2485 896.0001,-63.2484"/>
</g>
<!-- 14 -->
<g id="node15" class="node">
<title>14</title>
<path fill="#ffffff" stroke="#000000" d="M1085,-53C1085,-53 984,-53 984,-53 978,-53 972,-47 972,-41 972,-41 972,-12 972,-12 972,-6 978,0 984,0 984,0 1085,0 1085,0 1091,0 1097,-6 1097,-12 1097,-12 1097,-41 1097,-41 1097,-47 1091,-53 1085,-53"/>
<text text-anchor="start" x="988" y="-37.8" font-family="Helvetica,sans-Serif" font-size="14.00" fill="#000000">mse = 0.009</text>
<text text-anchor="start" x="980" y="-22.8" font-family="Helvetica,sans-Serif" font-size="14.00" fill="#000000">samples = 191</text>
<text text-anchor="start" x="981.5" y="-7.8" font-family="Helvetica,sans-Serif" font-size="14.00" fill="#000000">value = &#45;0.217</text>
</g>
<!-- 12&#45;&gt;14 -->
<g id="edge14" class="edge">
<title>12&#45;&gt;14</title>
<path fill="none" stroke="#000000" d="M942.5639,-88.9777C956.8469,-79.2713 972.3713,-68.7213 986.5263,-59.1018"/>
<polygon fill="#000000" stroke="#000000" points="988.8359,-61.764 995.1395,-53.2485 984.9014,-55.9744 988.8359,-61.764"/>
</g>
</g>
</svg>
