<?xml version="1.0" encoding="UTF-8" standalone="no"?>
<!DOCTYPE svg PUBLIC "-//W3C//DTD SVG 1.1//EN"
 "http://www.w3.org/Graphics/SVG/1.1/DTD/svg11.dtd">
<!-- Generated by graphviz version 2.40.1 (20161225.0304)
 -->
<!-- Title: Tree Pages: 1 -->
<svg width="1094pt" height="373pt"
 viewBox="0.00 0.00 1094.00 373.00" xmlns="http://www.w3.org/2000/svg" xmlns:xlink="http://www.w3.org/1999/xlink">
<g id="graph0" class="graph" transform="scale(1 1) rotate(0) translate(4 369)">
<title>Tree</title>
<polygon fill="#ffffff" stroke="transparent" points="-4,4 -4,-369 1090,-369 1090,4 -4,4"/>
<!-- 0 -->
<g id="node1" class="node">
<title>0</title>
<path fill="#efb185" stroke="#000000" d="M589.5,-365C589.5,-365 479.5,-365 479.5,-365 473.5,-365 467.5,-359 467.5,-353 467.5,-353 467.5,-309 467.5,-309 467.5,-303 473.5,-297 479.5,-297 479.5,-297 589.5,-297 589.5,-297 595.5,-297 601.5,-303 601.5,-309 601.5,-309 601.5,-353 601.5,-353 601.5,-359 595.5,-365 589.5,-365"/>
<text text-anchor="start" x="494" y="-349.8" font-family="Helvetica,sans-Serif" font-size="14.00" fill="#000000">X1 ≤ 0.595</text>
<text text-anchor="start" x="488" y="-334.8" font-family="Helvetica,sans-Serif" font-size="14.00" fill="#000000">mse = 0.033</text>
<text text-anchor="start" x="475.5" y="-319.8" font-family="Helvetica,sans-Serif" font-size="14.00" fill="#000000">samples = 1000</text>
<text text-anchor="start" x="484" y="-304.8" font-family="Helvetica,sans-Serif" font-size="14.00" fill="#000000">value = 0.024</text>
</g>
<!-- 1 -->
<g id="node2" class="node">
<title>1</title>
<path fill="#e89051" stroke="#000000" d="M450,-261C450,-261 349,-261 349,-261 343,-261 337,-255 337,-249 337,-249 337,-205 337,-205 337,-199 343,-193 349,-193 349,-193 450,-193 450,-193 456,-193 462,-199 462,-205 462,-205 462,-249 462,-249 462,-255 456,-261 450,-261"/>
<text text-anchor="start" x="359" y="-245.8" font-family="Helvetica,sans-Serif" font-size="14.00" fill="#000000">X2 ≤ 0.213</text>
<text text-anchor="start" x="353" y="-230.8" font-family="Helvetica,sans-Serif" font-size="14.00" fill="#000000">mse = 0.016</text>
<text text-anchor="start" x="345" y="-215.8" font-family="Helvetica,sans-Serif" font-size="14.00" fill="#000000">samples = 586</text>
<text text-anchor="start" x="349" y="-200.8" font-family="Helvetica,sans-Serif" font-size="14.00" fill="#000000">value = 0.132</text>
</g>
<!-- 0&#45;&gt;1 -->
<g id="edge1" class="edge">
<title>0&#45;&gt;1</title>
<path fill="none" stroke="#000000" d="M490.296,-296.9465C478.0584,-287.519 464.6564,-277.1946 451.9962,-267.4415"/>
<polygon fill="#000000" stroke="#000000" points="453.8612,-264.4601 443.8034,-261.13 449.5893,-270.0055 453.8612,-264.4601"/>
<text text-anchor="middle" x="447.0191" y="-282.2223" font-family="Helvetica,sans-Serif" font-size="14.00" fill="#000000">True</text>
</g>
<!-- 8 -->
<g id="node9" class="node">
<title>8</title>
<path fill="#f9e0ce" stroke="#000000" d="M724,-261C724,-261 623,-261 623,-261 617,-261 611,-255 611,-249 611,-249 611,-205 611,-205 611,-199 617,-193 623,-193 623,-193 724,-193 724,-193 730,-193 736,-199 736,-205 736,-205 736,-249 736,-249 736,-255 730,-261 724,-261"/>
<text text-anchor="start" x="633" y="-245.8" font-family="Helvetica,sans-Serif" font-size="14.00" fill="#000000">X1 ≤ 0.741</text>
<text text-anchor="start" x="627" y="-230.8" font-family="Helvetica,sans-Serif" font-size="14.00" fill="#000000">mse = 0.018</text>
<text text-anchor="start" x="619" y="-215.8" font-family="Helvetica,sans-Serif" font-size="14.00" fill="#000000">samples = 414</text>
<text text-anchor="start" x="620.5" y="-200.8" font-family="Helvetica,sans-Serif" font-size="14.00" fill="#000000">value = &#45;0.129</text>
</g>
<!-- 0&#45;&gt;8 -->
<g id="edge8" class="edge">
<title>0&#45;&gt;8</title>
<path fill="none" stroke="#000000" d="M580.0138,-296.9465C592.734,-287.4293 606.676,-276.9978 619.8206,-267.163"/>
<polygon fill="#000000" stroke="#000000" points="621.9738,-269.9232 627.8839,-261.13 617.7802,-264.3184 621.9738,-269.9232"/>
<text text-anchor="middle" x="624.3199" y="-282.1746" font-family="Helvetica,sans-Serif" font-size="14.00" fill="#000000">False</text>
</g>
<!-- 2 -->
<g id="node3" class="node">
<title>2</title>
<path fill="#eda977" stroke="#000000" d="M244,-157C244,-157 143,-157 143,-157 137,-157 131,-151 131,-145 131,-145 131,-101 131,-101 131,-95 137,-89 143,-89 143,-89 244,-89 244,-89 250,-89 256,-95 256,-101 256,-101 256,-145 256,-145 256,-151 250,-157 244,-157"/>
<text text-anchor="start" x="153" y="-141.8" font-family="Helvetica,sans-Serif" font-size="14.00" fill="#000000">X2 ≤ 0.116</text>
<text text-anchor="start" x="151.5" y="-126.8" font-family="Helvetica,sans-Serif" font-size="14.00" fill="#000000">mse = 0.01</text>
<text text-anchor="start" x="139" y="-111.8" font-family="Helvetica,sans-Serif" font-size="14.00" fill="#000000">samples = 149</text>
<text text-anchor="start" x="143" y="-96.8" font-family="Helvetica,sans-Serif" font-size="14.00" fill="#000000">value = 0.052</text>
</g>
<!-- 1&#45;&gt;2 -->
<g id="edge2" class="edge">
<title>1&#45;&gt;2</title>
<path fill="none" stroke="#000000" d="M336.8542,-195.373C314.2822,-183.9774 288.6389,-171.0313 265.3431,-159.2703"/>
<polygon fill="#000000" stroke="#000000" points="266.707,-156.0382 256.2027,-154.6557 263.5522,-162.287 266.707,-156.0382"/>
</g>
<!-- 5 -->
<g id="node6" class="node">
<title>5</title>
<path fill="#e68844" stroke="#000000" d="M450,-157C450,-157 349,-157 349,-157 343,-157 337,-151 337,-145 337,-145 337,-101 337,-101 337,-95 343,-89 349,-89 349,-89 450,-89 450,-89 456,-89 462,-95 462,-101 462,-101 462,-145 462,-145 462,-151 456,-157 450,-157"/>
<text text-anchor="start" x="359" y="-141.8" font-family="Helvetica,sans-Serif" font-size="14.00" fill="#000000">X1 ≤ 0.116</text>
<text text-anchor="start" x="353" y="-126.8" font-family="Helvetica,sans-Serif" font-size="14.00" fill="#000000">mse = 0.016</text>
<text text-anchor="start" x="345" y="-111.8" font-family="Helvetica,sans-Serif" font-size="14.00" fill="#000000">samples = 437</text>
<text text-anchor="start" x="349" y="-96.8" font-family="Helvetica,sans-Serif" font-size="14.00" fill="#000000">value = 0.159</text>
</g>
<!-- 1&#45;&gt;5 -->
<g id="edge5" class="edge">
<title>1&#45;&gt;5</title>
<path fill="none" stroke="#000000" d="M399.5,-192.9465C399.5,-184.776 399.5,-175.9318 399.5,-167.3697"/>
<polygon fill="#000000" stroke="#000000" points="403.0001,-167.13 399.5,-157.13 396.0001,-167.13 403.0001,-167.13"/>
</g>
<!-- 3 -->
<g id="node4" class="node">
<title>3</title>
<path fill="#eeaf81" stroke="#000000" d="M105,-53C105,-53 12,-53 12,-53 6,-53 0,-47 0,-41 0,-41 0,-12 0,-12 0,-6 6,0 12,0 12,0 105,0 105,0 111,0 117,-6 117,-12 117,-12 117,-41 117,-41 117,-47 111,-53 105,-53"/>
<text text-anchor="start" x="12" y="-37.8" font-family="Helvetica,sans-Serif" font-size="14.00" fill="#000000">mse = 0.008</text>
<text text-anchor="start" x="8.5" y="-22.8" font-family="Helvetica,sans-Serif" font-size="14.00" fill="#000000">samples = 75</text>
<text text-anchor="start" x="8" y="-7.8" font-family="Helvetica,sans-Serif" font-size="14.00" fill="#000000">value = 0.031</text>
</g>
<!-- 2&#45;&gt;3 -->
<g id="edge3" class="edge">
<title>2&#45;&gt;3</title>
<path fill="none" stroke="#000000" d="M145.9041,-88.9777C132.3252,-79.2713 117.5661,-68.7213 104.1088,-59.1018"/>
<polygon fill="#000000" stroke="#000000" points="106.0908,-56.2164 95.9202,-53.2485 102.0201,-61.9111 106.0908,-56.2164"/>
</g>
<!-- 4 -->
<g id="node5" class="node">
<title>4</title>
<path fill="#eca26d" stroke="#000000" d="M240,-53C240,-53 147,-53 147,-53 141,-53 135,-47 135,-41 135,-41 135,-12 135,-12 135,-6 141,0 147,0 147,0 240,0 240,0 246,0 252,-6 252,-12 252,-12 252,-41 252,-41 252,-47 246,-53 240,-53"/>
<text text-anchor="start" x="151.5" y="-37.8" font-family="Helvetica,sans-Serif" font-size="14.00" fill="#000000">mse = 0.01</text>
<text text-anchor="start" x="143.5" y="-22.8" font-family="Helvetica,sans-Serif" font-size="14.00" fill="#000000">samples = 74</text>
<text text-anchor="start" x="143" y="-7.8" font-family="Helvetica,sans-Serif" font-size="14.00" fill="#000000">value = 0.073</text>
</g>
<!-- 2&#45;&gt;4 -->
<g id="edge4" class="edge">
<title>2&#45;&gt;4</title>
<path fill="none" stroke="#000000" d="M193.5,-88.9777C193.5,-80.7364 193.5,-71.887 193.5,-63.5153"/>
<polygon fill="#000000" stroke="#000000" points="197.0001,-63.2484 193.5,-53.2485 190.0001,-63.2485 197.0001,-63.2484"/>
</g>
<!-- 6 -->
<g id="node7" class="node">
<title>6</title>
<path fill="#eca16b" stroke="#000000" d="M375,-53C375,-53 282,-53 282,-53 276,-53 270,-47 270,-41 270,-41 270,-12 270,-12 270,-6 276,0 282,0 282,0 375,0 375,0 381,0 387,-6 387,-12 387,-12 387,-41 387,-41 387,-47 381,-53 375,-53"/>
<text text-anchor="start" x="286.5" y="-37.8" font-family="Helvetica,sans-Serif" font-size="14.00" fill="#000000">mse = 0.01</text>
<text text-anchor="start" x="278.5" y="-22.8" font-family="Helvetica,sans-Serif" font-size="14.00" fill="#000000">samples = 94</text>
<text text-anchor="start" x="278" y="-7.8" font-family="Helvetica,sans-Serif" font-size="14.00" fill="#000000">value = 0.078</text>
</g>
<!-- 5&#45;&gt;6 -->
<g id="edge6" class="edge">
<title>5&#45;&gt;6</title>
<path fill="none" stroke="#000000" d="M374.4681,-88.9777C367.9329,-80.0954 360.878,-70.5067 354.3036,-61.5711"/>
<polygon fill="#000000" stroke="#000000" points="356.9257,-59.229 348.1802,-53.2485 351.2874,-63.3775 356.9257,-59.229"/>
</g>
<!-- 7 -->
<g id="node8" class="node">
<title>7</title>
<path fill="#e58139" stroke="#000000" d="M518,-53C518,-53 417,-53 417,-53 411,-53 405,-47 405,-41 405,-41 405,-12 405,-12 405,-6 411,0 417,0 417,0 518,0 518,0 524,0 530,-6 530,-12 530,-12 530,-41 530,-41 530,-47 524,-53 518,-53"/>
<text text-anchor="start" x="421" y="-37.8" font-family="Helvetica,sans-Serif" font-size="14.00" fill="#000000">mse = 0.015</text>
<text text-anchor="start" x="413" y="-22.8" font-family="Helvetica,sans-Serif" font-size="14.00" fill="#000000">samples = 343</text>
<text text-anchor="start" x="417" y="-7.8" font-family="Helvetica,sans-Serif" font-size="14.00" fill="#000000">value = 0.181</text>
</g>
<!-- 5&#45;&gt;7 -->
<g id="edge7" class="edge">
<title>5&#45;&gt;7</title>
<path fill="none" stroke="#000000" d="M423.4743,-88.9777C429.7333,-80.0954 436.4901,-70.5067 442.7867,-61.5711"/>
<polygon fill="#000000" stroke="#000000" points="445.7521,-63.4389 448.6513,-53.2485 440.0301,-59.4068 445.7521,-63.4389"/>
</g>
<!-- 9 -->
<g id="node10" class="node">
<title>9</title>
<path fill="#f3c6a5" stroke="#000000" d="M724,-157C724,-157 623,-157 623,-157 617,-157 611,-151 611,-145 611,-145 611,-101 611,-101 611,-95 617,-89 623,-89 623,-89 724,-89 724,-89 730,-89 736,-95 736,-101 736,-101 736,-145 736,-145 736,-151 730,-157 724,-157"/>
<text text-anchor="start" x="633" y="-141.8" font-family="Helvetica,sans-Serif" font-size="14.00" fill="#000000">X2 ≤ 0.106</text>
<text text-anchor="start" x="631.5" y="-126.8" font-family="Helvetica,sans-Serif" font-size="14.00" fill="#000000">mse = 0.01</text>
<text text-anchor="start" x="619" y="-111.8" font-family="Helvetica,sans-Serif" font-size="14.00" fill="#000000">samples = 159</text>
<text text-anchor="start" x="620.5" y="-96.8" font-family="Helvetica,sans-Serif" font-size="14.00" fill="#000000">value = &#45;0.044</text>
</g>
<!-- 8&#45;&gt;9 -->
<g id="edge9" class="edge">
<title>8&#45;&gt;9</title>
<path fill="none" stroke="#000000" d="M673.5,-192.9465C673.5,-184.776 673.5,-175.9318 673.5,-167.3697"/>
<polygon fill="#000000" stroke="#000000" points="677.0001,-167.13 673.5,-157.13 670.0001,-167.13 677.0001,-167.13"/>
</g>
<!-- 12 -->
<g id="node13" class="node">
<title>12</title>
<path fill="#fcf0e7" stroke="#000000" d="M935,-157C935,-157 834,-157 834,-157 828,-157 822,-151 822,-145 822,-145 822,-101 822,-101 822,-95 828,-89 834,-89 834,-89 935,-89 935,-89 941,-89 947,-95 947,-101 947,-101 947,-145 947,-145 947,-151 941,-157 935,-157"/>
<text text-anchor="start" x="844" y="-141.8" font-family="Helvetica,sans-Serif" font-size="14.00" fill="#000000">X2 ≤ 0.348</text>
<text text-anchor="start" x="838" y="-126.8" font-family="Helvetica,sans-Serif" font-size="14.00" fill="#000000">mse = 0.015</text>
<text text-anchor="start" x="830" y="-111.8" font-family="Helvetica,sans-Serif" font-size="14.00" fill="#000000">samples = 255</text>
<text text-anchor="start" x="831.5" y="-96.8" font-family="Helvetica,sans-Serif" font-size="14.00" fill="#000000">value = &#45;0.182</text>
</g>
<!-- 8&#45;&gt;12 -->
<g id="edge12" class="edge">
<title>8&#45;&gt;12</title>
<path fill="none" stroke="#000000" d="M736.2357,-196.0782C760.2543,-184.2396 787.8326,-170.6465 812.6394,-158.4194"/>
<polygon fill="#000000" stroke="#000000" points="814.2194,-161.5428 821.6417,-153.9823 811.1247,-155.264 814.2194,-161.5428"/>
</g>
<!-- 10 -->
<g id="node11" class="node">
<title>10</title>
<path fill="#f0b48a" stroke="#000000" d="M653,-53C653,-53 560,-53 560,-53 554,-53 548,-47 548,-41 548,-41 548,-12 548,-12 548,-6 554,0 560,0 560,0 653,0 653,0 659,0 665,-6 665,-12 665,-12 665,-41 665,-41 665,-47 659,-53 653,-53"/>
<text text-anchor="start" x="560" y="-37.8" font-family="Helvetica,sans-Serif" font-size="14.00" fill="#000000">mse = 0.005</text>
<text text-anchor="start" x="556.5" y="-22.8" font-family="Helvetica,sans-Serif" font-size="14.00" fill="#000000">samples = 22</text>
<text text-anchor="start" x="556" y="-7.8" font-family="Helvetica,sans-Serif" font-size="14.00" fill="#000000">value = 0.013</text>
</g>
<!-- 9&#45;&gt;10 -->
<g id="edge10" class="edge">
<title>9&#45;&gt;10</title>
<path fill="none" stroke="#000000" d="M649.8783,-88.9777C643.7113,-80.0954 637.0539,-70.5067 630.8499,-61.5711"/>
<polygon fill="#000000" stroke="#000000" points="633.6497,-59.4666 625.0715,-53.2485 627.8997,-63.4589 633.6497,-59.4666"/>
</g>
<!-- 11 -->
<g id="node12" class="node">
<title>11</title>
<path fill="#f4c8a9" stroke="#000000" d="M796,-53C796,-53 695,-53 695,-53 689,-53 683,-47 683,-41 683,-41 683,-12 683,-12 683,-6 689,0 695,0 695,0 796,0 796,0 802,0 808,-6 808,-12 808,-12 808,-41 808,-41 808,-47 802,-53 796,-53"/>
<text text-anchor="start" x="699" y="-37.8" font-family="Helvetica,sans-Serif" font-size="14.00" fill="#000000">mse = 0.011</text>
<text text-anchor="start" x="691" y="-22.8" font-family="Helvetica,sans-Serif" font-size="14.00" fill="#000000">samples = 137</text>
<text text-anchor="start" x="692.5" y="-7.8" font-family="Helvetica,sans-Serif" font-size="14.00" fill="#000000">value = &#45;0.053</text>
</g>
<!-- 9&#45;&gt;11 -->
<g id="edge11" class="edge">
<title>9&#45;&gt;11</title>
<path fill="none" stroke="#000000" d="M698.8845,-88.9777C705.58,-80.0039 712.8135,-70.3089 719.539,-61.295"/>
<polygon fill="#000000" stroke="#000000" points="722.3677,-63.3565 725.5426,-53.2485 716.7573,-59.1704 722.3677,-63.3565"/>
</g>
<!-- 13 -->
<g id="node14" class="node">
<title>13</title>
<path fill="#f7d7c0" stroke="#000000" d="M930.5,-53C930.5,-53 838.5,-53 838.5,-53 832.5,-53 826.5,-47 826.5,-41 826.5,-41 826.5,-12 826.5,-12 826.5,-6 832.5,0 838.5,0 838.5,0 930.5,0 930.5,0 936.5,0 942.5,-6 942.5,-12 942.5,-12 942.5,-41 942.5,-41 942.5,-47 936.5,-53 930.5,-53"/>
<text text-anchor="start" x="842.5" y="-37.8" font-family="Helvetica,sans-Serif" font-size="14.00" fill="#000000">mse = 0.01</text>
<text text-anchor="start" x="834.5" y="-22.8" font-family="Helvetica,sans-Serif" font-size="14.00" fill="#000000">samples = 96</text>
<text text-anchor="start" x="840.5" y="-7.8" font-family="Helvetica,sans-Serif" font-size="14.00" fill="#000000">value = &#45;0.1</text>
</g>
<!-- 12&#45;&gt;13 -->
<g id="edge13" class="edge">
<title>12&#45;&gt;13</title>
<path fill="none" stroke="#000000" d="M884.5,-88.9777C884.5,-80.7364 884.5,-71.887 884.5,-63.5153"/>
<polygon fill="#000000" stroke="#000000" points="888.0001,-63.2484 884.5,-53.2485 881.0001,-63.2485 888.0001,-63.2484"/>
</g>
<!-- 14 -->
<g id="node15" class="node">
<title>14</title>
<path fill="#ffffff" stroke="#000000" d="M1074,-53C1074,-53 973,-53 973,-53 967,-53 961,-47 961,-41 961,-41 961,-12 961,-12 961,-6 967,0 973,0 973,0 1074,0 1074,0 1080,0 1086,-6 1086,-12 1086,-12 1086,-41 1086,-41 1086,-47 1080,-53 1074,-53"/>
<text text-anchor="start" x="977" y="-37.8" font-family="Helvetica,sans-Serif" font-size="14.00" fill="#000000">mse = 0.011</text>
<text text-anchor="start" x="969" y="-22.8" font-family="Helvetica,sans-Serif" font-size="14.00" fill="#000000">samples = 159</text>
<text text-anchor="start" x="970.5" y="-7.8" font-family="Helvetica,sans-Serif" font-size="14.00" fill="#000000">value = &#45;0.231</text>
</g>
<!-- 12&#45;&gt;14 -->
<g id="edge14" class="edge">
<title>12&#45;&gt;14</title>
<path fill="none" stroke="#000000" d="M933.5062,-88.9777C947.4874,-79.2713 962.6838,-68.7213 976.5398,-59.1018"/>
<polygon fill="#000000" stroke="#000000" points="978.7526,-61.8264 984.9711,-53.2485 974.7606,-56.0763 978.7526,-61.8264"/>
</g>
</g>
</svg>
