<?xml version="1.0" encoding="UTF-8" standalone="no"?>
<!DOCTYPE svg PUBLIC "-//W3C//DTD SVG 1.1//EN"
 "http://www.w3.org/Graphics/SVG/1.1/DTD/svg11.dtd">
<!-- Generated by graphviz version 2.40.1 (20161225.0304)
 -->
<!-- Title: Tree Pages: 1 -->
<svg width="1110pt" height="373pt"
 viewBox="0.00 0.00 1110.00 373.00" xmlns="http://www.w3.org/2000/svg" xmlns:xlink="http://www.w3.org/1999/xlink">
<g id="graph0" class="graph" transform="scale(1 1) rotate(0) translate(4 369)">
<title>Tree</title>
<polygon fill="#ffffff" stroke="transparent" points="-4,4 -4,-369 1106,-369 1106,4 -4,4"/>
<!-- 0 -->
<g id="node1" class="node">
<title>0</title>
<path fill="#eeae80" stroke="#000000" d="M600.5,-365C600.5,-365 490.5,-365 490.5,-365 484.5,-365 478.5,-359 478.5,-353 478.5,-353 478.5,-309 478.5,-309 478.5,-303 484.5,-297 490.5,-297 490.5,-297 600.5,-297 600.5,-297 606.5,-297 612.5,-303 612.5,-309 612.5,-309 612.5,-353 612.5,-353 612.5,-359 606.5,-365 600.5,-365"/>
<text text-anchor="start" x="505" y="-349.8" font-family="Helvetica,sans-Serif" font-size="14.00" fill="#000000">X1 ≤ 0.636</text>
<text text-anchor="start" x="499" y="-334.8" font-family="Helvetica,sans-Serif" font-size="14.00" fill="#000000">mse = 0.037</text>
<text text-anchor="start" x="486.5" y="-319.8" font-family="Helvetica,sans-Serif" font-size="14.00" fill="#000000">samples = 1000</text>
<text text-anchor="start" x="495" y="-304.8" font-family="Helvetica,sans-Serif" font-size="14.00" fill="#000000">value = 0.033</text>
</g>
<!-- 1 -->
<g id="node2" class="node">
<title>1</title>
<path fill="#e88e4e" stroke="#000000" d="M458,-261C458,-261 357,-261 357,-261 351,-261 345,-255 345,-249 345,-249 345,-205 345,-205 345,-199 351,-193 357,-193 357,-193 458,-193 458,-193 464,-193 470,-199 470,-205 470,-205 470,-249 470,-249 470,-255 464,-261 458,-261"/>
<text text-anchor="start" x="367" y="-245.8" font-family="Helvetica,sans-Serif" font-size="14.00" fill="#000000">X2 ≤ 0.315</text>
<text text-anchor="start" x="361" y="-230.8" font-family="Helvetica,sans-Serif" font-size="14.00" fill="#000000">mse = 0.017</text>
<text text-anchor="start" x="353" y="-215.8" font-family="Helvetica,sans-Serif" font-size="14.00" fill="#000000">samples = 642</text>
<text text-anchor="start" x="357" y="-200.8" font-family="Helvetica,sans-Serif" font-size="14.00" fill="#000000">value = 0.139</text>
</g>
<!-- 0&#45;&gt;1 -->
<g id="edge1" class="edge">
<title>0&#45;&gt;1</title>
<path fill="none" stroke="#000000" d="M500.3136,-296.9465C487.685,-287.4293 473.8433,-276.9978 460.7932,-267.163"/>
<polygon fill="#000000" stroke="#000000" points="462.8805,-264.3534 452.7879,-261.13 458.6675,-269.9437 462.8805,-264.3534"/>
<text text-anchor="middle" x="456.2661" y="-282.1869" font-family="Helvetica,sans-Serif" font-size="14.00" fill="#000000">True</text>
</g>
<!-- 8 -->
<g id="node9" class="node">
<title>8</title>
<path fill="#fae7da" stroke="#000000" d="M736,-261C736,-261 635,-261 635,-261 629,-261 623,-255 623,-249 623,-249 623,-205 623,-205 623,-199 629,-193 635,-193 635,-193 736,-193 736,-193 742,-193 748,-199 748,-205 748,-205 748,-249 748,-249 748,-255 742,-261 736,-261"/>
<text text-anchor="start" x="649.5" y="-245.8" font-family="Helvetica,sans-Serif" font-size="14.00" fill="#000000">X1 ≤ 0.78</text>
<text text-anchor="start" x="639" y="-230.8" font-family="Helvetica,sans-Serif" font-size="14.00" fill="#000000">mse = 0.017</text>
<text text-anchor="start" x="631" y="-215.8" font-family="Helvetica,sans-Serif" font-size="14.00" fill="#000000">samples = 358</text>
<text text-anchor="start" x="632.5" y="-200.8" font-family="Helvetica,sans-Serif" font-size="14.00" fill="#000000">value = &#45;0.158</text>
</g>
<!-- 0&#45;&gt;8 -->
<g id="edge8" class="edge">
<title>0&#45;&gt;8</title>
<path fill="none" stroke="#000000" d="M591.3412,-296.9465C604.1529,-287.4293 618.1952,-276.9978 631.4344,-267.163"/>
<polygon fill="#000000" stroke="#000000" points="633.6155,-269.9029 639.5558,-261.13 629.4412,-264.2837 633.6155,-269.9029"/>
<text text-anchor="middle" x="635.9068" y="-282.1623" font-family="Helvetica,sans-Serif" font-size="14.00" fill="#000000">False</text>
</g>
<!-- 2 -->
<g id="node3" class="node">
<title>2</title>
<path fill="#eca470" stroke="#000000" d="M248,-157C248,-157 147,-157 147,-157 141,-157 135,-151 135,-145 135,-145 135,-101 135,-101 135,-95 141,-89 147,-89 147,-89 248,-89 248,-89 254,-89 260,-95 260,-101 260,-101 260,-145 260,-145 260,-151 254,-157 248,-157"/>
<text text-anchor="start" x="157" y="-141.8" font-family="Helvetica,sans-Serif" font-size="14.00" fill="#000000">X2 ≤ 0.139</text>
<text text-anchor="start" x="151" y="-126.8" font-family="Helvetica,sans-Serif" font-size="14.00" fill="#000000">mse = 0.013</text>
<text text-anchor="start" x="143" y="-111.8" font-family="Helvetica,sans-Serif" font-size="14.00" fill="#000000">samples = 198</text>
<text text-anchor="start" x="147" y="-96.8" font-family="Helvetica,sans-Serif" font-size="14.00" fill="#000000">value = 0.067</text>
</g>
<!-- 1&#45;&gt;2 -->
<g id="edge2" class="edge">
<title>1&#45;&gt;2</title>
<path fill="none" stroke="#000000" d="M344.7775,-195.9374C321.0934,-184.2081 293.964,-170.7727 269.4963,-158.6553"/>
<polygon fill="#000000" stroke="#000000" points="270.7765,-155.3837 260.2619,-154.0821 267.6699,-161.6566 270.7765,-155.3837"/>
</g>
<!-- 5 -->
<g id="node6" class="node">
<title>5</title>
<path fill="#e6853f" stroke="#000000" d="M458,-157C458,-157 357,-157 357,-157 351,-157 345,-151 345,-145 345,-145 345,-101 345,-101 345,-95 351,-89 357,-89 357,-89 458,-89 458,-89 464,-89 470,-95 470,-101 470,-101 470,-145 470,-145 470,-151 464,-157 458,-157"/>
<text text-anchor="start" x="367" y="-141.8" font-family="Helvetica,sans-Serif" font-size="14.00" fill="#000000">X1 ≤ 0.041</text>
<text text-anchor="start" x="361" y="-126.8" font-family="Helvetica,sans-Serif" font-size="14.00" fill="#000000">mse = 0.015</text>
<text text-anchor="start" x="353" y="-111.8" font-family="Helvetica,sans-Serif" font-size="14.00" fill="#000000">samples = 444</text>
<text text-anchor="start" x="357" y="-96.8" font-family="Helvetica,sans-Serif" font-size="14.00" fill="#000000">value = 0.171</text>
</g>
<!-- 1&#45;&gt;5 -->
<g id="edge5" class="edge">
<title>1&#45;&gt;5</title>
<path fill="none" stroke="#000000" d="M407.5,-192.9465C407.5,-184.776 407.5,-175.9318 407.5,-167.3697"/>
<polygon fill="#000000" stroke="#000000" points="411.0001,-167.13 407.5,-157.13 404.0001,-167.13 411.0001,-167.13"/>
</g>
<!-- 3 -->
<g id="node4" class="node">
<title>3</title>
<path fill="#efb083" stroke="#000000" d="M105,-53C105,-53 12,-53 12,-53 6,-53 0,-47 0,-41 0,-41 0,-12 0,-12 0,-6 6,0 12,0 12,0 105,0 105,0 111,0 117,-6 117,-12 117,-12 117,-41 117,-41 117,-47 111,-53 105,-53"/>
<text text-anchor="start" x="16.5" y="-37.8" font-family="Helvetica,sans-Serif" font-size="14.00" fill="#000000">mse = 0.01</text>
<text text-anchor="start" x="8.5" y="-22.8" font-family="Helvetica,sans-Serif" font-size="14.00" fill="#000000">samples = 84</text>
<text text-anchor="start" x="8" y="-7.8" font-family="Helvetica,sans-Serif" font-size="14.00" fill="#000000">value = 0.025</text>
</g>
<!-- 2&#45;&gt;3 -->
<g id="edge3" class="edge">
<title>2&#45;&gt;3</title>
<path fill="none" stroke="#000000" d="M148.4938,-88.9777C134.5126,-79.2713 119.3162,-68.7213 105.4602,-59.1018"/>
<polygon fill="#000000" stroke="#000000" points="107.2394,-56.0763 97.0289,-53.2485 103.2474,-61.8264 107.2394,-56.0763"/>
</g>
<!-- 4 -->
<g id="node5" class="node">
<title>4</title>
<path fill="#ea9b61" stroke="#000000" d="M248,-53C248,-53 147,-53 147,-53 141,-53 135,-47 135,-41 135,-41 135,-12 135,-12 135,-6 141,0 147,0 147,0 248,0 248,0 254,0 260,-6 260,-12 260,-12 260,-41 260,-41 260,-47 254,-53 248,-53"/>
<text text-anchor="start" x="151" y="-37.8" font-family="Helvetica,sans-Serif" font-size="14.00" fill="#000000">mse = 0.012</text>
<text text-anchor="start" x="143" y="-22.8" font-family="Helvetica,sans-Serif" font-size="14.00" fill="#000000">samples = 114</text>
<text text-anchor="start" x="147" y="-7.8" font-family="Helvetica,sans-Serif" font-size="14.00" fill="#000000">value = 0.098</text>
</g>
<!-- 2&#45;&gt;4 -->
<g id="edge4" class="edge">
<title>2&#45;&gt;4</title>
<path fill="none" stroke="#000000" d="M197.5,-88.9777C197.5,-80.7364 197.5,-71.887 197.5,-63.5153"/>
<polygon fill="#000000" stroke="#000000" points="201.0001,-63.2484 197.5,-53.2485 194.0001,-63.2485 201.0001,-63.2484"/>
</g>
<!-- 6 -->
<g id="node7" class="node">
<title>6</title>
<path fill="#f0b78e" stroke="#000000" d="M383,-53C383,-53 290,-53 290,-53 284,-53 278,-47 278,-41 278,-41 278,-12 278,-12 278,-6 284,0 290,0 290,0 383,0 383,0 389,0 395,-6 395,-12 395,-12 395,-41 395,-41 395,-47 389,-53 383,-53"/>
<text text-anchor="start" x="290" y="-37.8" font-family="Helvetica,sans-Serif" font-size="14.00" fill="#000000">mse = 0.008</text>
<text text-anchor="start" x="286.5" y="-22.8" font-family="Helvetica,sans-Serif" font-size="14.00" fill="#000000">samples = 29</text>
<text text-anchor="start" x="286" y="-7.8" font-family="Helvetica,sans-Serif" font-size="14.00" fill="#000000">value = 0.003</text>
</g>
<!-- 5&#45;&gt;6 -->
<g id="edge6" class="edge">
<title>5&#45;&gt;6</title>
<path fill="none" stroke="#000000" d="M382.4681,-88.9777C375.9329,-80.0954 368.878,-70.5067 362.3036,-61.5711"/>
<polygon fill="#000000" stroke="#000000" points="364.9257,-59.229 356.1802,-53.2485 359.2874,-63.3775 364.9257,-59.229"/>
</g>
<!-- 7 -->
<g id="node8" class="node">
<title>7</title>
<path fill="#e58139" stroke="#000000" d="M526,-53C526,-53 425,-53 425,-53 419,-53 413,-47 413,-41 413,-41 413,-12 413,-12 413,-6 419,0 425,0 425,0 526,0 526,0 532,0 538,-6 538,-12 538,-12 538,-41 538,-41 538,-47 532,-53 526,-53"/>
<text text-anchor="start" x="429" y="-37.8" font-family="Helvetica,sans-Serif" font-size="14.00" fill="#000000">mse = 0.014</text>
<text text-anchor="start" x="421" y="-22.8" font-family="Helvetica,sans-Serif" font-size="14.00" fill="#000000">samples = 415</text>
<text text-anchor="start" x="425" y="-7.8" font-family="Helvetica,sans-Serif" font-size="14.00" fill="#000000">value = 0.183</text>
</g>
<!-- 5&#45;&gt;7 -->
<g id="edge7" class="edge">
<title>5&#45;&gt;7</title>
<path fill="none" stroke="#000000" d="M431.4743,-88.9777C437.7333,-80.0954 444.4901,-70.5067 450.7867,-61.5711"/>
<polygon fill="#000000" stroke="#000000" points="453.7521,-63.4389 456.6513,-53.2485 448.0301,-59.4068 453.7521,-63.4389"/>
</g>
<!-- 9 -->
<g id="node10" class="node">
<title>9</title>
<path fill="#f5d0b6" stroke="#000000" d="M736,-157C736,-157 635,-157 635,-157 629,-157 623,-151 623,-145 623,-145 623,-101 623,-101 623,-95 629,-89 635,-89 635,-89 736,-89 736,-89 742,-89 748,-95 748,-101 748,-101 748,-145 748,-145 748,-151 742,-157 736,-157"/>
<text text-anchor="start" x="645" y="-141.8" font-family="Helvetica,sans-Serif" font-size="14.00" fill="#000000">X2 ≤ 0.569</text>
<text text-anchor="start" x="639" y="-126.8" font-family="Helvetica,sans-Serif" font-size="14.00" fill="#000000">mse = 0.011</text>
<text text-anchor="start" x="631" y="-111.8" font-family="Helvetica,sans-Serif" font-size="14.00" fill="#000000">samples = 137</text>
<text text-anchor="start" x="632.5" y="-96.8" font-family="Helvetica,sans-Serif" font-size="14.00" fill="#000000">value = &#45;0.081</text>
</g>
<!-- 8&#45;&gt;9 -->
<g id="edge9" class="edge">
<title>8&#45;&gt;9</title>
<path fill="none" stroke="#000000" d="M685.5,-192.9465C685.5,-184.776 685.5,-175.9318 685.5,-167.3697"/>
<polygon fill="#000000" stroke="#000000" points="689.0001,-167.13 685.5,-157.13 682.0001,-167.13 689.0001,-167.13"/>
</g>
<!-- 12 -->
<g id="node13" class="node">
<title>12</title>
<path fill="#fdf6f0" stroke="#000000" d="M948,-157C948,-157 847,-157 847,-157 841,-157 835,-151 835,-145 835,-145 835,-101 835,-101 835,-95 841,-89 847,-89 847,-89 948,-89 948,-89 954,-89 960,-95 960,-101 960,-101 960,-145 960,-145 960,-151 954,-157 948,-157"/>
<text text-anchor="start" x="861.5" y="-141.8" font-family="Helvetica,sans-Serif" font-size="14.00" fill="#000000">X2 ≤ 0.24</text>
<text text-anchor="start" x="851" y="-126.8" font-family="Helvetica,sans-Serif" font-size="14.00" fill="#000000">mse = 0.015</text>
<text text-anchor="start" x="843" y="-111.8" font-family="Helvetica,sans-Serif" font-size="14.00" fill="#000000">samples = 221</text>
<text text-anchor="start" x="844.5" y="-96.8" font-family="Helvetica,sans-Serif" font-size="14.00" fill="#000000">value = &#45;0.205</text>
</g>
<!-- 8&#45;&gt;12 -->
<g id="edge12" class="edge">
<title>8&#45;&gt;12</title>
<path fill="none" stroke="#000000" d="M748.2465,-196.2187C772.6049,-184.2693 800.6414,-170.5156 825.7914,-158.1778"/>
<polygon fill="#000000" stroke="#000000" points="827.4781,-161.2489 834.9145,-153.7023 824.3951,-154.9644 827.4781,-161.2489"/>
</g>
<!-- 10 -->
<g id="node11" class="node">
<title>10</title>
<path fill="#f4caab" stroke="#000000" d="M666.5,-53C666.5,-53 568.5,-53 568.5,-53 562.5,-53 556.5,-47 556.5,-41 556.5,-41 556.5,-12 556.5,-12 556.5,-6 562.5,0 568.5,0 568.5,0 666.5,0 666.5,0 672.5,0 678.5,-6 678.5,-12 678.5,-12 678.5,-41 678.5,-41 678.5,-47 672.5,-53 666.5,-53"/>
<text text-anchor="start" x="571" y="-37.8" font-family="Helvetica,sans-Serif" font-size="14.00" fill="#000000">mse = 0.009</text>
<text text-anchor="start" x="567.5" y="-22.8" font-family="Helvetica,sans-Serif" font-size="14.00" fill="#000000">samples = 88</text>
<text text-anchor="start" x="564.5" y="-7.8" font-family="Helvetica,sans-Serif" font-size="14.00" fill="#000000">value = &#45;0.058</text>
</g>
<!-- 9&#45;&gt;10 -->
<g id="edge10" class="edge">
<title>9&#45;&gt;10</title>
<path fill="none" stroke="#000000" d="M661.5257,-88.9777C655.2667,-80.0954 648.5099,-70.5067 642.2133,-61.5711"/>
<polygon fill="#000000" stroke="#000000" points="644.9699,-59.4068 636.3487,-53.2485 639.2479,-63.4389 644.9699,-59.4068"/>
</g>
<!-- 11 -->
<g id="node12" class="node">
<title>11</title>
<path fill="#f8ddc9" stroke="#000000" d="M806.5,-53C806.5,-53 708.5,-53 708.5,-53 702.5,-53 696.5,-47 696.5,-41 696.5,-41 696.5,-12 696.5,-12 696.5,-6 702.5,0 708.5,0 708.5,0 806.5,0 806.5,0 812.5,0 818.5,-6 818.5,-12 818.5,-12 818.5,-41 818.5,-41 818.5,-47 812.5,-53 806.5,-53"/>
<text text-anchor="start" x="711" y="-37.8" font-family="Helvetica,sans-Serif" font-size="14.00" fill="#000000">mse = 0.011</text>
<text text-anchor="start" x="707.5" y="-22.8" font-family="Helvetica,sans-Serif" font-size="14.00" fill="#000000">samples = 49</text>
<text text-anchor="start" x="704.5" y="-7.8" font-family="Helvetica,sans-Serif" font-size="14.00" fill="#000000">value = &#45;0.122</text>
</g>
<!-- 9&#45;&gt;11 -->
<g id="edge11" class="edge">
<title>9&#45;&gt;11</title>
<path fill="none" stroke="#000000" d="M710.8845,-88.9777C717.58,-80.0039 724.8135,-70.3089 731.539,-61.295"/>
<polygon fill="#000000" stroke="#000000" points="734.3677,-63.3565 737.5426,-53.2485 728.7573,-59.1704 734.3677,-63.3565"/>
</g>
<!-- 13 -->
<g id="node14" class="node">
<title>13</title>
<path fill="#f6d3b9" stroke="#000000" d="M946.5,-53C946.5,-53 848.5,-53 848.5,-53 842.5,-53 836.5,-47 836.5,-41 836.5,-41 836.5,-12 836.5,-12 836.5,-6 842.5,0 848.5,0 848.5,0 946.5,0 946.5,0 952.5,0 958.5,-6 958.5,-12 958.5,-12 958.5,-41 958.5,-41 958.5,-47 952.5,-53 946.5,-53"/>
<text text-anchor="start" x="851" y="-37.8" font-family="Helvetica,sans-Serif" font-size="14.00" fill="#000000">mse = 0.013</text>
<text text-anchor="start" x="847.5" y="-22.8" font-family="Helvetica,sans-Serif" font-size="14.00" fill="#000000">samples = 47</text>
<text text-anchor="start" x="844.5" y="-7.8" font-family="Helvetica,sans-Serif" font-size="14.00" fill="#000000">value = &#45;0.088</text>
</g>
<!-- 12&#45;&gt;13 -->
<g id="edge13" class="edge">
<title>12&#45;&gt;13</title>
<path fill="none" stroke="#000000" d="M897.5,-88.9777C897.5,-80.7364 897.5,-71.887 897.5,-63.5153"/>
<polygon fill="#000000" stroke="#000000" points="901.0001,-63.2484 897.5,-53.2485 894.0001,-63.2485 901.0001,-63.2484"/>
</g>
<!-- 14 -->
<g id="node15" class="node">
<title>14</title>
<path fill="#ffffff" stroke="#000000" d="M1090,-53C1090,-53 989,-53 989,-53 983,-53 977,-47 977,-41 977,-41 977,-12 977,-12 977,-6 983,0 989,0 989,0 1090,0 1090,0 1096,0 1102,-6 1102,-12 1102,-12 1102,-41 1102,-41 1102,-47 1096,-53 1090,-53"/>
<text text-anchor="start" x="993" y="-37.8" font-family="Helvetica,sans-Serif" font-size="14.00" fill="#000000">mse = 0.011</text>
<text text-anchor="start" x="985" y="-22.8" font-family="Helvetica,sans-Serif" font-size="14.00" fill="#000000">samples = 174</text>
<text text-anchor="start" x="986.5" y="-7.8" font-family="Helvetica,sans-Serif" font-size="14.00" fill="#000000">value = &#45;0.236</text>
</g>
<!-- 12&#45;&gt;14 -->
<g id="edge14" class="edge">
<title>12&#45;&gt;14</title>
<path fill="none" stroke="#000000" d="M947.5639,-88.9777C961.8469,-79.2713 977.3713,-68.7213 991.5263,-59.1018"/>
<polygon fill="#000000" stroke="#000000" points="993.8359,-61.764 1000.1395,-53.2485 989.9014,-55.9744 993.8359,-61.764"/>
</g>
</g>
</svg>
