<?xml version="1.0" encoding="UTF-8" standalone="no"?>
<!DOCTYPE svg PUBLIC "-//W3C//DTD SVG 1.1//EN"
 "http://www.w3.org/Graphics/SVG/1.1/DTD/svg11.dtd">
<!-- Generated by graphviz version 2.40.1 (20161225.0304)
 -->
<!-- Title: Tree Pages: 1 -->
<svg width="1102pt" height="373pt"
 viewBox="0.00 0.00 1101.50 373.00" xmlns="http://www.w3.org/2000/svg" xmlns:xlink="http://www.w3.org/1999/xlink">
<g id="graph0" class="graph" transform="scale(1 1) rotate(0) translate(4 369)">
<title>Tree</title>
<polygon fill="#ffffff" stroke="transparent" points="-4,4 -4,-369 1097.5,-369 1097.5,4 -4,4"/>
<!-- 0 -->
<g id="node1" class="node">
<title>0</title>
<path fill="#eeae80" stroke="#000000" d="M595,-365C595,-365 485,-365 485,-365 479,-365 473,-359 473,-353 473,-353 473,-309 473,-309 473,-303 479,-297 485,-297 485,-297 595,-297 595,-297 601,-297 607,-303 607,-309 607,-309 607,-353 607,-353 607,-359 601,-365 595,-365"/>
<text text-anchor="start" x="499.5" y="-349.8" font-family="Helvetica,sans-Serif" font-size="14.00" fill="#000000">X1 ≤ 0.622</text>
<text text-anchor="start" x="493.5" y="-334.8" font-family="Helvetica,sans-Serif" font-size="14.00" fill="#000000">mse = 0.031</text>
<text text-anchor="start" x="481" y="-319.8" font-family="Helvetica,sans-Serif" font-size="14.00" fill="#000000">samples = 1000</text>
<text text-anchor="start" x="489.5" y="-304.8" font-family="Helvetica,sans-Serif" font-size="14.00" fill="#000000">value = 0.035</text>
</g>
<!-- 1 -->
<g id="node2" class="node">
<title>1</title>
<path fill="#e88f50" stroke="#000000" d="M455.5,-261C455.5,-261 354.5,-261 354.5,-261 348.5,-261 342.5,-255 342.5,-249 342.5,-249 342.5,-205 342.5,-205 342.5,-199 348.5,-193 354.5,-193 354.5,-193 455.5,-193 455.5,-193 461.5,-193 467.5,-199 467.5,-205 467.5,-205 467.5,-249 467.5,-249 467.5,-255 461.5,-261 455.5,-261"/>
<text text-anchor="start" x="364.5" y="-245.8" font-family="Helvetica,sans-Serif" font-size="14.00" fill="#000000">X1 ≤ 0.117</text>
<text text-anchor="start" x="358.5" y="-230.8" font-family="Helvetica,sans-Serif" font-size="14.00" fill="#000000">mse = 0.016</text>
<text text-anchor="start" x="350.5" y="-215.8" font-family="Helvetica,sans-Serif" font-size="14.00" fill="#000000">samples = 632</text>
<text text-anchor="start" x="354.5" y="-200.8" font-family="Helvetica,sans-Serif" font-size="14.00" fill="#000000">value = 0.128</text>
</g>
<!-- 0&#45;&gt;1 -->
<g id="edge1" class="edge">
<title>0&#45;&gt;1</title>
<path fill="none" stroke="#000000" d="M495.796,-296.9465C483.5584,-287.519 470.1564,-277.1946 457.4962,-267.4415"/>
<polygon fill="#000000" stroke="#000000" points="459.3612,-264.4601 449.3034,-261.13 455.0893,-270.0055 459.3612,-264.4601"/>
<text text-anchor="middle" x="452.5191" y="-282.2223" font-family="Helvetica,sans-Serif" font-size="14.00" fill="#000000">True</text>
</g>
<!-- 8 -->
<g id="node9" class="node">
<title>8</title>
<path fill="#f9e3d3" stroke="#000000" d="M729.5,-261C729.5,-261 628.5,-261 628.5,-261 622.5,-261 616.5,-255 616.5,-249 616.5,-249 616.5,-205 616.5,-205 616.5,-199 622.5,-193 628.5,-193 628.5,-193 729.5,-193 729.5,-193 735.5,-193 741.5,-199 741.5,-205 741.5,-205 741.5,-249 741.5,-249 741.5,-255 735.5,-261 729.5,-261"/>
<text text-anchor="start" x="638.5" y="-245.8" font-family="Helvetica,sans-Serif" font-size="14.00" fill="#000000">X1 ≤ 0.721</text>
<text text-anchor="start" x="632.5" y="-230.8" font-family="Helvetica,sans-Serif" font-size="14.00" fill="#000000">mse = 0.017</text>
<text text-anchor="start" x="624.5" y="-215.8" font-family="Helvetica,sans-Serif" font-size="14.00" fill="#000000">samples = 368</text>
<text text-anchor="start" x="626" y="-200.8" font-family="Helvetica,sans-Serif" font-size="14.00" fill="#000000">value = &#45;0.126</text>
</g>
<!-- 0&#45;&gt;8 -->
<g id="edge8" class="edge">
<title>0&#45;&gt;8</title>
<path fill="none" stroke="#000000" d="M585.5138,-296.9465C598.234,-287.4293 612.176,-276.9978 625.3206,-267.163"/>
<polygon fill="#000000" stroke="#000000" points="627.4738,-269.9232 633.3839,-261.13 623.2802,-264.3184 627.4738,-269.9232"/>
<text text-anchor="middle" x="629.8199" y="-282.1746" font-family="Helvetica,sans-Serif" font-size="14.00" fill="#000000">False</text>
</g>
<!-- 2 -->
<g id="node3" class="node">
<title>2</title>
<path fill="#eeab7b" stroke="#000000" d="M249.5,-157C249.5,-157 148.5,-157 148.5,-157 142.5,-157 136.5,-151 136.5,-145 136.5,-145 136.5,-101 136.5,-101 136.5,-95 142.5,-89 148.5,-89 148.5,-89 249.5,-89 249.5,-89 255.5,-89 261.5,-95 261.5,-101 261.5,-101 261.5,-145 261.5,-145 261.5,-151 255.5,-157 249.5,-157"/>
<text text-anchor="start" x="158.5" y="-141.8" font-family="Helvetica,sans-Serif" font-size="14.00" fill="#000000">X1 ≤ 0.023</text>
<text text-anchor="start" x="152.5" y="-126.8" font-family="Helvetica,sans-Serif" font-size="14.00" fill="#000000">mse = 0.012</text>
<text text-anchor="start" x="144.5" y="-111.8" font-family="Helvetica,sans-Serif" font-size="14.00" fill="#000000">samples = 129</text>
<text text-anchor="start" x="148.5" y="-96.8" font-family="Helvetica,sans-Serif" font-size="14.00" fill="#000000">value = 0.045</text>
</g>
<!-- 1&#45;&gt;2 -->
<g id="edge2" class="edge">
<title>1&#45;&gt;2</title>
<path fill="none" stroke="#000000" d="M342.3542,-195.373C319.7822,-183.9774 294.1389,-171.0313 270.8431,-159.2703"/>
<polygon fill="#000000" stroke="#000000" points="272.207,-156.0382 261.7027,-154.6557 269.0522,-162.287 272.207,-156.0382"/>
</g>
<!-- 5 -->
<g id="node6" class="node">
<title>5</title>
<path fill="#e78845" stroke="#000000" d="M455.5,-157C455.5,-157 354.5,-157 354.5,-157 348.5,-157 342.5,-151 342.5,-145 342.5,-145 342.5,-101 342.5,-101 342.5,-95 348.5,-89 354.5,-89 354.5,-89 455.5,-89 455.5,-89 461.5,-89 467.5,-95 467.5,-101 467.5,-101 467.5,-145 467.5,-145 467.5,-151 461.5,-157 455.5,-157"/>
<text text-anchor="start" x="364.5" y="-141.8" font-family="Helvetica,sans-Serif" font-size="14.00" fill="#000000">X1 ≤ 0.527</text>
<text text-anchor="start" x="358.5" y="-126.8" font-family="Helvetica,sans-Serif" font-size="14.00" fill="#000000">mse = 0.015</text>
<text text-anchor="start" x="350.5" y="-111.8" font-family="Helvetica,sans-Serif" font-size="14.00" fill="#000000">samples = 503</text>
<text text-anchor="start" x="359" y="-96.8" font-family="Helvetica,sans-Serif" font-size="14.00" fill="#000000">value = 0.15</text>
</g>
<!-- 1&#45;&gt;5 -->
<g id="edge5" class="edge">
<title>1&#45;&gt;5</title>
<path fill="none" stroke="#000000" d="M405,-192.9465C405,-184.776 405,-175.9318 405,-167.3697"/>
<polygon fill="#000000" stroke="#000000" points="408.5001,-167.13 405,-157.13 401.5001,-167.13 408.5001,-167.13"/>
</g>
<!-- 3 -->
<g id="node4" class="node">
<title>3</title>
<path fill="#f2bf9b" stroke="#000000" d="M110,-53C110,-53 12,-53 12,-53 6,-53 0,-47 0,-41 0,-41 0,-12 0,-12 0,-6 6,0 12,0 12,0 110,0 110,0 116,0 122,-6 122,-12 122,-12 122,-41 122,-41 122,-47 116,-53 110,-53"/>
<text text-anchor="start" x="14.5" y="-37.8" font-family="Helvetica,sans-Serif" font-size="14.00" fill="#000000">mse = 0.006</text>
<text text-anchor="start" x="11" y="-22.8" font-family="Helvetica,sans-Serif" font-size="14.00" fill="#000000">samples = 30</text>
<text text-anchor="start" x="8" y="-7.8" font-family="Helvetica,sans-Serif" font-size="14.00" fill="#000000">value = &#45;0.017</text>
</g>
<!-- 2&#45;&gt;3 -->
<g id="edge3" class="edge">
<title>2&#45;&gt;3</title>
<path fill="none" stroke="#000000" d="M150.3464,-88.9777C136.4657,-79.2713 121.3786,-68.7213 107.6223,-59.1018"/>
<polygon fill="#000000" stroke="#000000" points="109.4526,-56.1109 99.2517,-53.2485 105.4411,-61.8475 109.4526,-56.1109"/>
</g>
<!-- 4 -->
<g id="node5" class="node">
<title>4</title>
<path fill="#eca571" stroke="#000000" d="M245.5,-53C245.5,-53 152.5,-53 152.5,-53 146.5,-53 140.5,-47 140.5,-41 140.5,-41 140.5,-12 140.5,-12 140.5,-6 146.5,0 152.5,0 152.5,0 245.5,0 245.5,0 251.5,0 257.5,-6 257.5,-12 257.5,-12 257.5,-41 257.5,-41 257.5,-47 251.5,-53 245.5,-53"/>
<text text-anchor="start" x="152.5" y="-37.8" font-family="Helvetica,sans-Serif" font-size="14.00" fill="#000000">mse = 0.012</text>
<text text-anchor="start" x="149" y="-22.8" font-family="Helvetica,sans-Serif" font-size="14.00" fill="#000000">samples = 99</text>
<text text-anchor="start" x="148.5" y="-7.8" font-family="Helvetica,sans-Serif" font-size="14.00" fill="#000000">value = 0.064</text>
</g>
<!-- 2&#45;&gt;4 -->
<g id="edge4" class="edge">
<title>2&#45;&gt;4</title>
<path fill="none" stroke="#000000" d="M199,-88.9777C199,-80.7364 199,-71.887 199,-63.5153"/>
<polygon fill="#000000" stroke="#000000" points="202.5001,-63.2484 199,-53.2485 195.5001,-63.2485 202.5001,-63.2484"/>
</g>
<!-- 6 -->
<g id="node7" class="node">
<title>6</title>
<path fill="#e58139" stroke="#000000" d="M388.5,-53C388.5,-53 287.5,-53 287.5,-53 281.5,-53 275.5,-47 275.5,-41 275.5,-41 275.5,-12 275.5,-12 275.5,-6 281.5,0 287.5,0 287.5,0 388.5,0 388.5,0 394.5,0 400.5,-6 400.5,-12 400.5,-12 400.5,-41 400.5,-41 400.5,-47 394.5,-53 388.5,-53"/>
<text text-anchor="start" x="291.5" y="-37.8" font-family="Helvetica,sans-Serif" font-size="14.00" fill="#000000">mse = 0.013</text>
<text text-anchor="start" x="283.5" y="-22.8" font-family="Helvetica,sans-Serif" font-size="14.00" fill="#000000">samples = 407</text>
<text text-anchor="start" x="287.5" y="-7.8" font-family="Helvetica,sans-Serif" font-size="14.00" fill="#000000">value = 0.172</text>
</g>
<!-- 5&#45;&gt;6 -->
<g id="edge6" class="edge">
<title>5&#45;&gt;6</title>
<path fill="none" stroke="#000000" d="M381.3783,-88.9777C375.2113,-80.0954 368.5539,-70.5067 362.3499,-61.5711"/>
<polygon fill="#000000" stroke="#000000" points="365.1497,-59.4666 356.5715,-53.2485 359.3997,-63.4589 365.1497,-59.4666"/>
</g>
<!-- 7 -->
<g id="node8" class="node">
<title>7</title>
<path fill="#eda876" stroke="#000000" d="M523.5,-53C523.5,-53 430.5,-53 430.5,-53 424.5,-53 418.5,-47 418.5,-41 418.5,-41 418.5,-12 418.5,-12 418.5,-6 424.5,0 430.5,0 430.5,0 523.5,0 523.5,0 529.5,0 535.5,-6 535.5,-12 535.5,-12 535.5,-41 535.5,-41 535.5,-47 529.5,-53 523.5,-53"/>
<text text-anchor="start" x="430.5" y="-37.8" font-family="Helvetica,sans-Serif" font-size="14.00" fill="#000000">mse = 0.009</text>
<text text-anchor="start" x="427" y="-22.8" font-family="Helvetica,sans-Serif" font-size="14.00" fill="#000000">samples = 96</text>
<text text-anchor="start" x="426.5" y="-7.8" font-family="Helvetica,sans-Serif" font-size="14.00" fill="#000000">value = 0.055</text>
</g>
<!-- 5&#45;&gt;7 -->
<g id="edge7" class="edge">
<title>5&#45;&gt;7</title>
<path fill="none" stroke="#000000" d="M430.3845,-88.9777C437.08,-80.0039 444.3135,-70.3089 451.039,-61.295"/>
<polygon fill="#000000" stroke="#000000" points="453.8677,-63.3565 457.0426,-53.2485 448.2573,-59.1704 453.8677,-63.3565"/>
</g>
<!-- 9 -->
<g id="node10" class="node">
<title>9</title>
<path fill="#f3c5a4" stroke="#000000" d="M729.5,-157C729.5,-157 628.5,-157 628.5,-157 622.5,-157 616.5,-151 616.5,-145 616.5,-145 616.5,-101 616.5,-101 616.5,-95 622.5,-89 628.5,-89 628.5,-89 729.5,-89 729.5,-89 735.5,-89 741.5,-95 741.5,-101 741.5,-101 741.5,-145 741.5,-145 741.5,-151 735.5,-157 729.5,-157"/>
<text text-anchor="start" x="638.5" y="-141.8" font-family="Helvetica,sans-Serif" font-size="14.00" fill="#000000">X1 ≤ 0.699</text>
<text text-anchor="start" x="632.5" y="-126.8" font-family="Helvetica,sans-Serif" font-size="14.00" fill="#000000">mse = 0.009</text>
<text text-anchor="start" x="624.5" y="-111.8" font-family="Helvetica,sans-Serif" font-size="14.00" fill="#000000">samples = 116</text>
<text text-anchor="start" x="626" y="-96.8" font-family="Helvetica,sans-Serif" font-size="14.00" fill="#000000">value = &#45;0.035</text>
</g>
<!-- 8&#45;&gt;9 -->
<g id="edge9" class="edge">
<title>8&#45;&gt;9</title>
<path fill="none" stroke="#000000" d="M679,-192.9465C679,-184.776 679,-175.9318 679,-167.3697"/>
<polygon fill="#000000" stroke="#000000" points="682.5001,-167.13 679,-157.13 675.5001,-167.13 682.5001,-167.13"/>
</g>
<!-- 12 -->
<g id="node13" class="node">
<title>12</title>
<path fill="#fcf1e9" stroke="#000000" d="M939.5,-157C939.5,-157 838.5,-157 838.5,-157 832.5,-157 826.5,-151 826.5,-145 826.5,-145 826.5,-101 826.5,-101 826.5,-95 832.5,-89 838.5,-89 838.5,-89 939.5,-89 939.5,-89 945.5,-89 951.5,-95 951.5,-101 951.5,-101 951.5,-145 951.5,-145 951.5,-151 945.5,-157 939.5,-157"/>
<text text-anchor="start" x="848.5" y="-141.8" font-family="Helvetica,sans-Serif" font-size="14.00" fill="#000000">X2 ≤ 0.293</text>
<text text-anchor="start" x="842.5" y="-126.8" font-family="Helvetica,sans-Serif" font-size="14.00" fill="#000000">mse = 0.016</text>
<text text-anchor="start" x="834.5" y="-111.8" font-family="Helvetica,sans-Serif" font-size="14.00" fill="#000000">samples = 252</text>
<text text-anchor="start" x="836" y="-96.8" font-family="Helvetica,sans-Serif" font-size="14.00" fill="#000000">value = &#45;0.168</text>
</g>
<!-- 8&#45;&gt;12 -->
<g id="edge12" class="edge">
<title>8&#45;&gt;12</title>
<path fill="none" stroke="#000000" d="M741.7225,-195.9374C765.4066,-184.2081 792.536,-170.7727 817.0037,-158.6553"/>
<polygon fill="#000000" stroke="#000000" points="818.8301,-161.6566 826.2381,-154.0821 815.7235,-155.3837 818.8301,-161.6566"/>
</g>
<!-- 10 -->
<g id="node11" class="node">
<title>10</title>
<path fill="#f2c09c" stroke="#000000" d="M658,-53C658,-53 566,-53 566,-53 560,-53 554,-47 554,-41 554,-41 554,-12 554,-12 554,-6 560,0 566,0 566,0 658,0 658,0 664,0 670,-6 670,-12 670,-12 670,-41 670,-41 670,-47 664,-53 658,-53"/>
<text text-anchor="start" x="565.5" y="-37.8" font-family="Helvetica,sans-Serif" font-size="14.00" fill="#000000">mse = 0.008</text>
<text text-anchor="start" x="562" y="-22.8" font-family="Helvetica,sans-Serif" font-size="14.00" fill="#000000">samples = 87</text>
<text text-anchor="start" x="563.5" y="-7.8" font-family="Helvetica,sans-Serif" font-size="14.00" fill="#000000">value = &#45;0.02</text>
</g>
<!-- 9&#45;&gt;10 -->
<g id="edge10" class="edge">
<title>9&#45;&gt;10</title>
<path fill="none" stroke="#000000" d="M655.3783,-88.9777C649.2113,-80.0954 642.5539,-70.5067 636.3499,-61.5711"/>
<polygon fill="#000000" stroke="#000000" points="639.1497,-59.4666 630.5715,-53.2485 633.3997,-63.4589 639.1497,-59.4666"/>
</g>
<!-- 11 -->
<g id="node12" class="node">
<title>11</title>
<path fill="#f6d4bb" stroke="#000000" d="M798,-53C798,-53 700,-53 700,-53 694,-53 688,-47 688,-41 688,-41 688,-12 688,-12 688,-6 694,0 700,0 700,0 798,0 798,0 804,0 810,-6 810,-12 810,-12 810,-41 810,-41 810,-47 804,-53 798,-53"/>
<text text-anchor="start" x="702.5" y="-37.8" font-family="Helvetica,sans-Serif" font-size="14.00" fill="#000000">mse = 0.009</text>
<text text-anchor="start" x="699" y="-22.8" font-family="Helvetica,sans-Serif" font-size="14.00" fill="#000000">samples = 29</text>
<text text-anchor="start" x="696" y="-7.8" font-family="Helvetica,sans-Serif" font-size="14.00" fill="#000000">value = &#45;0.079</text>
</g>
<!-- 9&#45;&gt;11 -->
<g id="edge11" class="edge">
<title>9&#45;&gt;11</title>
<path fill="none" stroke="#000000" d="M703.6794,-88.9777C710.1225,-80.0954 717.078,-70.5067 723.5598,-61.5711"/>
<polygon fill="#000000" stroke="#000000" points="726.5583,-63.3982 729.597,-53.2485 720.8921,-59.288 726.5583,-63.3982"/>
</g>
<!-- 13 -->
<g id="node14" class="node">
<title>13</title>
<path fill="#f6d1b7" stroke="#000000" d="M938,-53C938,-53 840,-53 840,-53 834,-53 828,-47 828,-41 828,-41 828,-12 828,-12 828,-6 834,0 840,0 840,0 938,0 938,0 944,0 950,-6 950,-12 950,-12 950,-41 950,-41 950,-47 944,-53 938,-53"/>
<text text-anchor="start" x="847" y="-37.8" font-family="Helvetica,sans-Serif" font-size="14.00" fill="#000000">mse = 0.01</text>
<text text-anchor="start" x="839" y="-22.8" font-family="Helvetica,sans-Serif" font-size="14.00" fill="#000000">samples = 76</text>
<text text-anchor="start" x="836" y="-7.8" font-family="Helvetica,sans-Serif" font-size="14.00" fill="#000000">value = &#45;0.071</text>
</g>
<!-- 12&#45;&gt;13 -->
<g id="edge13" class="edge">
<title>12&#45;&gt;13</title>
<path fill="none" stroke="#000000" d="M889,-88.9777C889,-80.7364 889,-71.887 889,-63.5153"/>
<polygon fill="#000000" stroke="#000000" points="892.5001,-63.2484 889,-53.2485 885.5001,-63.2485 892.5001,-63.2484"/>
</g>
<!-- 14 -->
<g id="node15" class="node">
<title>14</title>
<path fill="#ffffff" stroke="#000000" d="M1081.5,-53C1081.5,-53 980.5,-53 980.5,-53 974.5,-53 968.5,-47 968.5,-41 968.5,-41 968.5,-12 968.5,-12 968.5,-6 974.5,0 980.5,0 980.5,0 1081.5,0 1081.5,0 1087.5,0 1093.5,-6 1093.5,-12 1093.5,-12 1093.5,-41 1093.5,-41 1093.5,-47 1087.5,-53 1081.5,-53"/>
<text text-anchor="start" x="984.5" y="-37.8" font-family="Helvetica,sans-Serif" font-size="14.00" fill="#000000">mse = 0.013</text>
<text text-anchor="start" x="976.5" y="-22.8" font-family="Helvetica,sans-Serif" font-size="14.00" fill="#000000">samples = 176</text>
<text text-anchor="start" x="978" y="-7.8" font-family="Helvetica,sans-Serif" font-size="14.00" fill="#000000">value = &#45;0.211</text>
</g>
<!-- 12&#45;&gt;14 -->
<g id="edge14" class="edge">
<title>12&#45;&gt;14</title>
<path fill="none" stroke="#000000" d="M939.0639,-88.9777C953.3469,-79.2713 968.8713,-68.7213 983.0263,-59.1018"/>
<polygon fill="#000000" stroke="#000000" points="985.3359,-61.764 991.6395,-53.2485 981.4014,-55.9744 985.3359,-61.764"/>
</g>
</g>
</svg>
