<?xml version="1.0" encoding="UTF-8" standalone="no"?>
<!DOCTYPE svg PUBLIC "-//W3C//DTD SVG 1.1//EN"
 "http://www.w3.org/Graphics/SVG/1.1/DTD/svg11.dtd">
<!-- Generated by graphviz version 2.40.1 (20161225.0304)
 -->
<!-- Title: Tree Pages: 1 -->
<svg width="801pt" height="373pt"
 viewBox="0.00 0.00 800.50 373.00" xmlns="http://www.w3.org/2000/svg" xmlns:xlink="http://www.w3.org/1999/xlink">
<g id="graph0" class="graph" transform="scale(1 1) rotate(0) translate(4 369)">
<title>Tree</title>
<polygon fill="#ffffff" stroke="transparent" points="-4,4 -4,-369 796.5,-369 796.5,4 -4,4"/>
<!-- 0 -->
<g id="node1" class="node">
<title>0</title>
<path fill="#efb083" stroke="#000000" d="M426.5,-365C426.5,-365 359.5,-365 359.5,-365 353.5,-365 347.5,-359 347.5,-353 347.5,-353 347.5,-309 347.5,-309 347.5,-303 353.5,-297 359.5,-297 359.5,-297 426.5,-297 426.5,-297 432.5,-297 438.5,-303 438.5,-309 438.5,-309 438.5,-353 438.5,-353 438.5,-359 432.5,-365 426.5,-365"/>
<text text-anchor="start" x="373" y="-349.8" font-family="Helvetica,sans-Serif" font-size="14.00" fill="#000000">X1 ≤ 0.6</text>
<text text-anchor="start" x="363.5" y="-334.8" font-family="Helvetica,sans-Serif" font-size="14.00" fill="#000000">mse = 0.033</text>
<text text-anchor="start" x="355.5" y="-319.8" font-family="Helvetica,sans-Serif" font-size="14.00" fill="#000000">samples = 1000</text>
<text text-anchor="start" x="361" y="-304.8" font-family="Helvetica,sans-Serif" font-size="14.00" fill="#000000">value = 0.033</text>
</g>
<!-- 1 -->
<g id="node2" class="node">
<title>1</title>
<path fill="#e89152" stroke="#000000" d="M321.5,-261C321.5,-261 260.5,-261 260.5,-261 254.5,-261 248.5,-255 248.5,-249 248.5,-249 248.5,-205 248.5,-205 248.5,-199 254.5,-193 260.5,-193 260.5,-193 321.5,-193 321.5,-193 327.5,-193 333.5,-199 333.5,-205 333.5,-205 333.5,-249 333.5,-249 333.5,-255 327.5,-261 321.5,-261"/>
<text text-anchor="start" x="265.5" y="-245.8" font-family="Helvetica,sans-Serif" font-size="14.00" fill="#000000">X1 ≤ 0.108</text>
<text text-anchor="start" x="261.5" y="-230.8" font-family="Helvetica,sans-Serif" font-size="14.00" fill="#000000">mse = 0.016</text>
<text text-anchor="start" x="256.5" y="-215.8" font-family="Helvetica,sans-Serif" font-size="14.00" fill="#000000">samples = 611</text>
<text text-anchor="start" x="259" y="-200.8" font-family="Helvetica,sans-Serif" font-size="14.00" fill="#000000">value = 0.136</text>
</g>
<!-- 0&#45;&gt;1 -->
<g id="edge1" class="edge">
<title>0&#45;&gt;1</title>
<path fill="none" stroke="#000000" d="M359.6014,-296.9465C350.6194,-287.7884 340.8072,-277.7838 331.485,-268.2788"/>
<polygon fill="#000000" stroke="#000000" points="333.9746,-265.8187 324.4737,-261.13 328.977,-270.7201 333.9746,-265.8187"/>
<text text-anchor="middle" x="324.2309" y="-282.4288" font-family="Helvetica,sans-Serif" font-size="14.00" fill="#000000">True</text>
</g>
<!-- 8 -->
<g id="node9" class="node">
<title>8</title>
<path fill="#f9e1d0" stroke="#000000" d="M525.5,-261C525.5,-261 464.5,-261 464.5,-261 458.5,-261 452.5,-255 452.5,-249 452.5,-249 452.5,-205 452.5,-205 452.5,-199 458.5,-193 464.5,-193 464.5,-193 525.5,-193 525.5,-193 531.5,-193 537.5,-199 537.5,-205 537.5,-205 537.5,-249 537.5,-249 537.5,-255 531.5,-261 525.5,-261"/>
<text text-anchor="start" x="469.5" y="-245.8" font-family="Helvetica,sans-Serif" font-size="14.00" fill="#000000">X1 ≤ 0.761</text>
<text text-anchor="start" x="465.5" y="-230.8" font-family="Helvetica,sans-Serif" font-size="14.00" fill="#000000">mse = 0.016</text>
<text text-anchor="start" x="460.5" y="-215.8" font-family="Helvetica,sans-Serif" font-size="14.00" fill="#000000">samples = 389</text>
<text text-anchor="start" x="464" y="-200.8" font-family="Helvetica,sans-Serif" font-size="14.00" fill="#000000">value = &#45;0.13</text>
</g>
<!-- 0&#45;&gt;8 -->
<g id="edge8" class="edge">
<title>0&#45;&gt;8</title>
<path fill="none" stroke="#000000" d="M426.3986,-296.9465C435.3806,-287.7884 445.1928,-277.7838 454.515,-268.2788"/>
<polygon fill="#000000" stroke="#000000" points="457.023,-270.7201 461.5263,-261.13 452.0254,-265.8187 457.023,-270.7201"/>
<text text-anchor="middle" x="461.7691" y="-282.4288" font-family="Helvetica,sans-Serif" font-size="14.00" fill="#000000">False</text>
</g>
<!-- 2 -->
<g id="node3" class="node">
<title>2</title>
<path fill="#efb084" stroke="#000000" d="M168.5,-157C168.5,-157 107.5,-157 107.5,-157 101.5,-157 95.5,-151 95.5,-145 95.5,-145 95.5,-101 95.5,-101 95.5,-95 101.5,-89 107.5,-89 107.5,-89 168.5,-89 168.5,-89 174.5,-89 180.5,-95 180.5,-101 180.5,-101 180.5,-145 180.5,-145 180.5,-151 174.5,-157 168.5,-157"/>
<text text-anchor="start" x="112.5" y="-141.8" font-family="Helvetica,sans-Serif" font-size="14.00" fill="#000000">X2 ≤ 0.591</text>
<text text-anchor="start" x="108.5" y="-126.8" font-family="Helvetica,sans-Serif" font-size="14.00" fill="#000000">mse = 0.012</text>
<text text-anchor="start" x="103.5" y="-111.8" font-family="Helvetica,sans-Serif" font-size="14.00" fill="#000000">samples = 105</text>
<text text-anchor="start" x="106" y="-96.8" font-family="Helvetica,sans-Serif" font-size="14.00" fill="#000000">value = 0.031</text>
</g>
<!-- 1&#45;&gt;2 -->
<g id="edge2" class="edge">
<title>1&#45;&gt;2</title>
<path fill="none" stroke="#000000" d="M248.381,-198.0302C229.9725,-185.5173 208.284,-170.7747 189.0266,-157.6847"/>
<polygon fill="#000000" stroke="#000000" points="190.8934,-154.7217 180.6556,-151.9946 186.9583,-160.5109 190.8934,-154.7217"/>
</g>
<!-- 5 -->
<g id="node6" class="node">
<title>5</title>
<path fill="#e78a47" stroke="#000000" d="M321.5,-157C321.5,-157 260.5,-157 260.5,-157 254.5,-157 248.5,-151 248.5,-145 248.5,-145 248.5,-101 248.5,-101 248.5,-95 254.5,-89 260.5,-89 260.5,-89 321.5,-89 321.5,-89 327.5,-89 333.5,-95 333.5,-101 333.5,-101 333.5,-145 333.5,-145 333.5,-151 327.5,-157 321.5,-157"/>
<text text-anchor="start" x="265.5" y="-141.8" font-family="Helvetica,sans-Serif" font-size="14.00" fill="#000000">X2 ≤ 0.286</text>
<text text-anchor="start" x="261.5" y="-126.8" font-family="Helvetica,sans-Serif" font-size="14.00" fill="#000000">mse = 0.014</text>
<text text-anchor="start" x="256.5" y="-111.8" font-family="Helvetica,sans-Serif" font-size="14.00" fill="#000000">samples = 506</text>
<text text-anchor="start" x="259" y="-96.8" font-family="Helvetica,sans-Serif" font-size="14.00" fill="#000000">value = 0.158</text>
</g>
<!-- 1&#45;&gt;5 -->
<g id="edge5" class="edge">
<title>1&#45;&gt;5</title>
<path fill="none" stroke="#000000" d="M291,-192.9465C291,-184.776 291,-175.9318 291,-167.3697"/>
<polygon fill="#000000" stroke="#000000" points="294.5001,-167.13 291,-157.13 287.5001,-167.13 294.5001,-167.13"/>
</g>
<!-- 3 -->
<g id="node4" class="node">
<title>3</title>
<path fill="#f1b991" stroke="#000000" d="M68,-53C68,-53 12,-53 12,-53 6,-53 0,-47 0,-41 0,-41 0,-12 0,-12 0,-6 6,0 12,0 12,0 68,0 68,0 74,0 80,-6 80,-12 80,-12 80,-41 80,-41 80,-47 74,-53 68,-53"/>
<text text-anchor="start" x="10.5" y="-37.8" font-family="Helvetica,sans-Serif" font-size="14.00" fill="#000000">mse = 0.012</text>
<text text-anchor="start" x="8.5" y="-22.8" font-family="Helvetica,sans-Serif" font-size="14.00" fill="#000000">samples = 68</text>
<text text-anchor="start" x="8" y="-7.8" font-family="Helvetica,sans-Serif" font-size="14.00" fill="#000000">value = 0.004</text>
</g>
<!-- 2&#45;&gt;3 -->
<g id="edge3" class="edge">
<title>2&#45;&gt;3</title>
<path fill="none" stroke="#000000" d="M103.4489,-88.9777C94.0566,-79.7292 83.8864,-69.7147 74.4971,-60.4691"/>
<polygon fill="#000000" stroke="#000000" points="76.7454,-57.7709 67.1643,-53.2485 71.8339,-62.7587 76.7454,-57.7709"/>
</g>
<!-- 4 -->
<g id="node5" class="node">
<title>4</title>
<path fill="#eca16b" stroke="#000000" d="M166,-53C166,-53 110,-53 110,-53 104,-53 98,-47 98,-41 98,-41 98,-12 98,-12 98,-6 104,0 110,0 110,0 166,0 166,0 172,0 178,-6 178,-12 178,-12 178,-41 178,-41 178,-47 172,-53 166,-53"/>
<text text-anchor="start" x="108.5" y="-37.8" font-family="Helvetica,sans-Serif" font-size="14.00" fill="#000000">mse = 0.008</text>
<text text-anchor="start" x="106.5" y="-22.8" font-family="Helvetica,sans-Serif" font-size="14.00" fill="#000000">samples = 37</text>
<text text-anchor="start" x="106" y="-7.8" font-family="Helvetica,sans-Serif" font-size="14.00" fill="#000000">value = 0.082</text>
</g>
<!-- 2&#45;&gt;4 -->
<g id="edge4" class="edge">
<title>2&#45;&gt;4</title>
<path fill="none" stroke="#000000" d="M138,-88.9777C138,-80.7364 138,-71.887 138,-63.5153"/>
<polygon fill="#000000" stroke="#000000" points="141.5001,-63.2484 138,-53.2485 134.5001,-63.2485 141.5001,-63.2484"/>
</g>
<!-- 6 -->
<g id="node7" class="node">
<title>6</title>
<path fill="#eba069" stroke="#000000" d="M269.5,-53C269.5,-53 208.5,-53 208.5,-53 202.5,-53 196.5,-47 196.5,-41 196.5,-41 196.5,-12 196.5,-12 196.5,-6 202.5,0 208.5,0 208.5,0 269.5,0 269.5,0 275.5,0 281.5,-6 281.5,-12 281.5,-12 281.5,-41 281.5,-41 281.5,-47 275.5,-53 269.5,-53"/>
<text text-anchor="start" x="212.5" y="-37.8" font-family="Helvetica,sans-Serif" font-size="14.00" fill="#000000">mse = 0.01</text>
<text text-anchor="start" x="204.5" y="-22.8" font-family="Helvetica,sans-Serif" font-size="14.00" fill="#000000">samples = 151</text>
<text text-anchor="start" x="207" y="-7.8" font-family="Helvetica,sans-Serif" font-size="14.00" fill="#000000">value = 0.087</text>
</g>
<!-- 5&#45;&gt;6 -->
<g id="edge6" class="edge">
<title>5&#45;&gt;6</title>
<path fill="none" stroke="#000000" d="M272.6667,-88.9777C267.9791,-80.2786 262.9264,-70.9018 258.1967,-62.1247"/>
<polygon fill="#000000" stroke="#000000" points="261.2386,-60.3914 253.4137,-53.2485 255.0763,-63.7121 261.2386,-60.3914"/>
</g>
<!-- 7 -->
<g id="node8" class="node">
<title>7</title>
<path fill="#e58139" stroke="#000000" d="M372.5,-53C372.5,-53 311.5,-53 311.5,-53 305.5,-53 299.5,-47 299.5,-41 299.5,-41 299.5,-12 299.5,-12 299.5,-6 305.5,0 311.5,0 311.5,0 372.5,0 372.5,0 378.5,0 384.5,-6 384.5,-12 384.5,-12 384.5,-41 384.5,-41 384.5,-47 378.5,-53 372.5,-53"/>
<text text-anchor="start" x="312.5" y="-37.8" font-family="Helvetica,sans-Serif" font-size="14.00" fill="#000000">mse = 0.013</text>
<text text-anchor="start" x="307.5" y="-22.8" font-family="Helvetica,sans-Serif" font-size="14.00" fill="#000000">samples = 355</text>
<text text-anchor="start" x="310" y="-7.8" font-family="Helvetica,sans-Serif" font-size="14.00" fill="#000000">value = 0.188</text>
</g>
<!-- 5&#45;&gt;7 -->
<g id="edge7" class="edge">
<title>5&#45;&gt;7</title>
<path fill="none" stroke="#000000" d="M308.9807,-88.9777C313.5782,-80.2786 318.5337,-70.9018 323.1725,-62.1247"/>
<polygon fill="#000000" stroke="#000000" points="326.2853,-63.7251 327.8635,-53.2485 320.0965,-60.4543 326.2853,-63.7251"/>
</g>
<!-- 9 -->
<g id="node10" class="node">
<title>9</title>
<path fill="#f4c9aa" stroke="#000000" d="M525.5,-157C525.5,-157 464.5,-157 464.5,-157 458.5,-157 452.5,-151 452.5,-145 452.5,-145 452.5,-101 452.5,-101 452.5,-95 458.5,-89 464.5,-89 464.5,-89 525.5,-89 525.5,-89 531.5,-89 537.5,-95 537.5,-101 537.5,-101 537.5,-145 537.5,-145 537.5,-151 531.5,-157 525.5,-157"/>
<text text-anchor="start" x="469.5" y="-141.8" font-family="Helvetica,sans-Serif" font-size="14.00" fill="#000000">X2 ≤ 0.671</text>
<text text-anchor="start" x="465.5" y="-126.8" font-family="Helvetica,sans-Serif" font-size="14.00" fill="#000000">mse = 0.009</text>
<text text-anchor="start" x="460.5" y="-111.8" font-family="Helvetica,sans-Serif" font-size="14.00" fill="#000000">samples = 155</text>
<text text-anchor="start" x="461.5" y="-96.8" font-family="Helvetica,sans-Serif" font-size="14.00" fill="#000000">value = &#45;0.051</text>
</g>
<!-- 8&#45;&gt;9 -->
<g id="edge9" class="edge">
<title>8&#45;&gt;9</title>
<path fill="none" stroke="#000000" d="M495,-192.9465C495,-184.776 495,-175.9318 495,-167.3697"/>
<polygon fill="#000000" stroke="#000000" points="498.5001,-167.13 495,-157.13 491.5001,-167.13 498.5001,-167.13"/>
</g>
<!-- 12 -->
<g id="node13" class="node">
<title>12</title>
<path fill="#fcf1e9" stroke="#000000" d="M678.5,-157C678.5,-157 617.5,-157 617.5,-157 611.5,-157 605.5,-151 605.5,-145 605.5,-145 605.5,-101 605.5,-101 605.5,-95 611.5,-89 617.5,-89 617.5,-89 678.5,-89 678.5,-89 684.5,-89 690.5,-95 690.5,-101 690.5,-101 690.5,-145 690.5,-145 690.5,-151 684.5,-157 678.5,-157"/>
<text text-anchor="start" x="622.5" y="-141.8" font-family="Helvetica,sans-Serif" font-size="14.00" fill="#000000">X2 ≤ 0.366</text>
<text text-anchor="start" x="618.5" y="-126.8" font-family="Helvetica,sans-Serif" font-size="14.00" fill="#000000">mse = 0.015</text>
<text text-anchor="start" x="613.5" y="-111.8" font-family="Helvetica,sans-Serif" font-size="14.00" fill="#000000">samples = 234</text>
<text text-anchor="start" x="614.5" y="-96.8" font-family="Helvetica,sans-Serif" font-size="14.00" fill="#000000">value = &#45;0.182</text>
</g>
<!-- 8&#45;&gt;12 -->
<g id="edge12" class="edge">
<title>8&#45;&gt;12</title>
<path fill="none" stroke="#000000" d="M537.619,-198.0302C556.0275,-185.5173 577.716,-170.7747 596.9734,-157.6847"/>
<polygon fill="#000000" stroke="#000000" points="599.0417,-160.5109 605.3444,-151.9946 595.1066,-154.7217 599.0417,-160.5109"/>
</g>
<!-- 10 -->
<g id="node11" class="node">
<title>10</title>
<path fill="#f3c3a0" stroke="#000000" d="M475.5,-53C475.5,-53 414.5,-53 414.5,-53 408.5,-53 402.5,-47 402.5,-41 402.5,-41 402.5,-12 402.5,-12 402.5,-6 408.5,0 414.5,0 414.5,0 475.5,0 475.5,0 481.5,0 487.5,-6 487.5,-12 487.5,-12 487.5,-41 487.5,-41 487.5,-47 481.5,-53 475.5,-53"/>
<text text-anchor="start" x="415.5" y="-37.8" font-family="Helvetica,sans-Serif" font-size="14.00" fill="#000000">mse = 0.007</text>
<text text-anchor="start" x="410.5" y="-22.8" font-family="Helvetica,sans-Serif" font-size="14.00" fill="#000000">samples = 109</text>
<text text-anchor="start" x="414" y="-7.8" font-family="Helvetica,sans-Serif" font-size="14.00" fill="#000000">value = &#45;0.03</text>
</g>
<!-- 9&#45;&gt;10 -->
<g id="edge10" class="edge">
<title>9&#45;&gt;10</title>
<path fill="none" stroke="#000000" d="M477.3719,-88.9777C472.912,-80.3702 468.1084,-71.0992 463.6021,-62.402"/>
<polygon fill="#000000" stroke="#000000" points="466.5675,-60.5172 458.8593,-53.2485 460.3522,-63.7376 466.5675,-60.5172"/>
</g>
<!-- 11 -->
<g id="node12" class="node">
<title>11</title>
<path fill="#f7d8c2" stroke="#000000" d="M576.5,-53C576.5,-53 517.5,-53 517.5,-53 511.5,-53 505.5,-47 505.5,-41 505.5,-41 505.5,-12 505.5,-12 505.5,-6 511.5,0 517.5,0 517.5,0 576.5,0 576.5,0 582.5,0 588.5,-6 588.5,-12 588.5,-12 588.5,-41 588.5,-41 588.5,-47 582.5,-53 576.5,-53"/>
<text text-anchor="start" x="517.5" y="-37.8" font-family="Helvetica,sans-Serif" font-size="14.00" fill="#000000">mse = 0.009</text>
<text text-anchor="start" x="515.5" y="-22.8" font-family="Helvetica,sans-Serif" font-size="14.00" fill="#000000">samples = 46</text>
<text text-anchor="start" x="513.5" y="-7.8" font-family="Helvetica,sans-Serif" font-size="14.00" fill="#000000">value = &#45;0.101</text>
</g>
<!-- 9&#45;&gt;11 -->
<g id="edge11" class="edge">
<title>9&#45;&gt;11</title>
<path fill="none" stroke="#000000" d="M513.3333,-88.9777C518.0209,-80.2786 523.0736,-70.9018 527.8033,-62.1247"/>
<polygon fill="#000000" stroke="#000000" points="530.9237,-63.7121 532.5863,-53.2485 524.7614,-60.3914 530.9237,-63.7121"/>
</g>
<!-- 13 -->
<g id="node14" class="node">
<title>13</title>
<path fill="#f7dac6" stroke="#000000" d="M677.5,-53C677.5,-53 618.5,-53 618.5,-53 612.5,-53 606.5,-47 606.5,-41 606.5,-41 606.5,-12 606.5,-12 606.5,-6 612.5,0 618.5,0 618.5,0 677.5,0 677.5,0 683.5,0 689.5,-6 689.5,-12 689.5,-12 689.5,-41 689.5,-41 689.5,-47 683.5,-53 677.5,-53"/>
<text text-anchor="start" x="618.5" y="-37.8" font-family="Helvetica,sans-Serif" font-size="14.00" fill="#000000">mse = 0.012</text>
<text text-anchor="start" x="616.5" y="-22.8" font-family="Helvetica,sans-Serif" font-size="14.00" fill="#000000">samples = 90</text>
<text text-anchor="start" x="614.5" y="-7.8" font-family="Helvetica,sans-Serif" font-size="14.00" fill="#000000">value = &#45;0.108</text>
</g>
<!-- 12&#45;&gt;13 -->
<g id="edge13" class="edge">
<title>12&#45;&gt;13</title>
<path fill="none" stroke="#000000" d="M648,-88.9777C648,-80.7364 648,-71.887 648,-63.5153"/>
<polygon fill="#000000" stroke="#000000" points="651.5001,-63.2484 648,-53.2485 644.5001,-63.2485 651.5001,-63.2484"/>
</g>
<!-- 14 -->
<g id="node15" class="node">
<title>14</title>
<path fill="#ffffff" stroke="#000000" d="M780.5,-53C780.5,-53 719.5,-53 719.5,-53 713.5,-53 707.5,-47 707.5,-41 707.5,-41 707.5,-12 707.5,-12 707.5,-6 713.5,0 719.5,0 719.5,0 780.5,0 780.5,0 786.5,0 792.5,-6 792.5,-12 792.5,-12 792.5,-41 792.5,-41 792.5,-47 786.5,-53 780.5,-53"/>
<text text-anchor="start" x="720.5" y="-37.8" font-family="Helvetica,sans-Serif" font-size="14.00" fill="#000000">mse = 0.011</text>
<text text-anchor="start" x="715.5" y="-22.8" font-family="Helvetica,sans-Serif" font-size="14.00" fill="#000000">samples = 144</text>
<text text-anchor="start" x="716.5" y="-7.8" font-family="Helvetica,sans-Serif" font-size="14.00" fill="#000000">value = &#45;0.229</text>
</g>
<!-- 12&#45;&gt;14 -->
<g id="edge14" class="edge">
<title>12&#45;&gt;14</title>
<path fill="none" stroke="#000000" d="M683.9614,-88.9777C693.8338,-79.6376 704.532,-69.5163 714.3849,-60.1947"/>
<polygon fill="#000000" stroke="#000000" points="716.8682,-62.6635 721.727,-53.2485 712.0574,-57.5785 716.8682,-62.6635"/>
</g>
</g>
</svg>
