<?xml version="1.0" encoding="UTF-8" standalone="no"?>
<!DOCTYPE svg PUBLIC "-//W3C//DTD SVG 1.1//EN"
 "http://www.w3.org/Graphics/SVG/1.1/DTD/svg11.dtd">
<!-- Generated by graphviz version 2.50.0 (0)
 -->
<!-- Title: Tree Pages: 1 -->
<svg width="1518pt" height="373pt"
 viewBox="0.00 0.00 1517.50 373.00" xmlns="http://www.w3.org/2000/svg" xmlns:xlink="http://www.w3.org/1999/xlink">
<g id="graph0" class="graph" transform="scale(1 1) rotate(0) translate(4 369)">
<title>Tree</title>
<polygon fill="white" stroke="transparent" points="-4,4 -4,-369 1513.5,-369 1513.5,4 -4,4"/>
<!-- 0 -->
<g id="node1" class="node">
<title>0</title>
<path fill="#efaf82" stroke="black" d="M825.5,-365C825.5,-365 675.5,-365 675.5,-365 669.5,-365 663.5,-359 663.5,-353 663.5,-353 663.5,-309 663.5,-309 663.5,-303 669.5,-297 675.5,-297 675.5,-297 825.5,-297 825.5,-297 831.5,-297 837.5,-303 837.5,-309 837.5,-309 837.5,-353 837.5,-353 837.5,-359 831.5,-365 825.5,-365"/>
<text text-anchor="start" x="710" y="-349.8" font-family="Helvetica,sans-Serif" font-size="14.00">X1 ≤ 0.637</text>
<text text-anchor="start" x="671.5" y="-334.8" font-family="Helvetica,sans-Serif" font-size="14.00">squared_error = 0.034</text>
<text text-anchor="start" x="693" y="-319.8" font-family="Helvetica,sans-Serif" font-size="14.00">samples = 1000</text>
<text text-anchor="start" x="700.5" y="-304.8" font-family="Helvetica,sans-Serif" font-size="14.00">value = 0.039</text>
</g>
<!-- 1 -->
<g id="node2" class="node">
<title>1</title>
<path fill="#e89151" stroke="black" d="M633.5,-261C633.5,-261 483.5,-261 483.5,-261 477.5,-261 471.5,-255 471.5,-249 471.5,-249 471.5,-205 471.5,-205 471.5,-199 477.5,-193 483.5,-193 483.5,-193 633.5,-193 633.5,-193 639.5,-193 645.5,-199 645.5,-205 645.5,-205 645.5,-249 645.5,-249 645.5,-255 639.5,-261 633.5,-261"/>
<text text-anchor="start" x="518" y="-245.8" font-family="Helvetica,sans-Serif" font-size="14.00">X2 ≤ 0.399</text>
<text text-anchor="start" x="479.5" y="-230.8" font-family="Helvetica,sans-Serif" font-size="14.00">squared_error = 0.017</text>
<text text-anchor="start" x="505.5" y="-215.8" font-family="Helvetica,sans-Serif" font-size="14.00">samples = 628</text>
<text text-anchor="start" x="508.5" y="-200.8" font-family="Helvetica,sans-Serif" font-size="14.00">value = 0.141</text>
</g>
<!-- 0&#45;&gt;1 -->
<g id="edge1" class="edge">
<title>0&#45;&gt;1</title>
<path fill="none" stroke="black" d="M688.16,-296.88C669.54,-286.99 648.98,-276.07 629.83,-265.9"/>
<polygon fill="black" stroke="black" points="631.33,-262.73 620.85,-261.12 628.04,-268.91 631.33,-262.73"/>
<text text-anchor="middle" x="628.17" y="-281.33" font-family="Helvetica,sans-Serif" font-size="14.00">True</text>
</g>
<!-- 8 -->
<g id="node9" class="node">
<title>8</title>
<path fill="#f9e3d3" stroke="black" d="M1017.5,-261C1017.5,-261 867.5,-261 867.5,-261 861.5,-261 855.5,-255 855.5,-249 855.5,-249 855.5,-205 855.5,-205 855.5,-199 861.5,-193 867.5,-193 867.5,-193 1017.5,-193 1017.5,-193 1023.5,-193 1029.5,-199 1029.5,-205 1029.5,-205 1029.5,-249 1029.5,-249 1029.5,-255 1023.5,-261 1017.5,-261"/>
<text text-anchor="start" x="902" y="-245.8" font-family="Helvetica,sans-Serif" font-size="14.00">X1 ≤ 0.761</text>
<text text-anchor="start" x="863.5" y="-230.8" font-family="Helvetica,sans-Serif" font-size="14.00">squared_error = 0.015</text>
<text text-anchor="start" x="889.5" y="-215.8" font-family="Helvetica,sans-Serif" font-size="14.00">samples = 372</text>
<text text-anchor="start" x="890" y="-200.8" font-family="Helvetica,sans-Serif" font-size="14.00">value = &#45;0.135</text>
</g>
<!-- 0&#45;&gt;8 -->
<g id="edge8" class="edge">
<title>0&#45;&gt;8</title>
<path fill="none" stroke="black" d="M812.84,-296.88C831.46,-286.99 852.02,-276.07 871.17,-265.9"/>
<polygon fill="black" stroke="black" points="872.96,-268.91 880.15,-261.12 869.67,-262.73 872.96,-268.91"/>
<text text-anchor="middle" x="872.83" y="-281.33" font-family="Helvetica,sans-Serif" font-size="14.00">False</text>
</g>
<!-- 2 -->
<g id="node3" class="node">
<title>2</title>
<path fill="#eba06a" stroke="black" d="M345.5,-157C345.5,-157 195.5,-157 195.5,-157 189.5,-157 183.5,-151 183.5,-145 183.5,-145 183.5,-101 183.5,-101 183.5,-95 189.5,-89 195.5,-89 195.5,-89 345.5,-89 345.5,-89 351.5,-89 357.5,-95 357.5,-101 357.5,-101 357.5,-145 357.5,-145 357.5,-151 351.5,-157 345.5,-157"/>
<text text-anchor="start" x="230" y="-141.8" font-family="Helvetica,sans-Serif" font-size="14.00">X2 ≤ 0.122</text>
<text text-anchor="start" x="191.5" y="-126.8" font-family="Helvetica,sans-Serif" font-size="14.00">squared_error = 0.013</text>
<text text-anchor="start" x="217.5" y="-111.8" font-family="Helvetica,sans-Serif" font-size="14.00">samples = 236</text>
<text text-anchor="start" x="220.5" y="-96.8" font-family="Helvetica,sans-Serif" font-size="14.00">value = 0.088</text>
</g>
<!-- 1&#45;&gt;2 -->
<g id="edge2" class="edge">
<title>1&#45;&gt;2</title>
<path fill="none" stroke="black" d="M471.31,-195.12C438.61,-183.54 401.26,-170.31 367.71,-158.43"/>
<polygon fill="black" stroke="black" points="368.49,-154.99 357.89,-154.95 366.15,-161.59 368.49,-154.99"/>
</g>
<!-- 5 -->
<g id="node6" class="node">
<title>5</title>
<path fill="#e68742" stroke="black" d="M633.5,-157C633.5,-157 483.5,-157 483.5,-157 477.5,-157 471.5,-151 471.5,-145 471.5,-145 471.5,-101 471.5,-101 471.5,-95 477.5,-89 483.5,-89 483.5,-89 633.5,-89 633.5,-89 639.5,-89 645.5,-95 645.5,-101 645.5,-101 645.5,-145 645.5,-145 645.5,-151 639.5,-157 633.5,-157"/>
<text text-anchor="start" x="518" y="-141.8" font-family="Helvetica,sans-Serif" font-size="14.00">X1 ≤ 0.547</text>
<text text-anchor="start" x="479.5" y="-126.8" font-family="Helvetica,sans-Serif" font-size="14.00">squared_error = 0.017</text>
<text text-anchor="start" x="505.5" y="-111.8" font-family="Helvetica,sans-Serif" font-size="14.00">samples = 392</text>
<text text-anchor="start" x="508.5" y="-96.8" font-family="Helvetica,sans-Serif" font-size="14.00">value = 0.173</text>
</g>
<!-- 1&#45;&gt;5 -->
<g id="edge5" class="edge">
<title>1&#45;&gt;5</title>
<path fill="none" stroke="black" d="M558.5,-192.88C558.5,-184.78 558.5,-175.98 558.5,-167.47"/>
<polygon fill="black" stroke="black" points="562,-167.3 558.5,-157.3 555,-167.3 562,-167.3"/>
</g>
<!-- 3 -->
<g id="node4" class="node">
<title>3</title>
<path fill="#eeaf81" stroke="black" d="M153,-53C153,-53 12,-53 12,-53 6,-53 0,-47 0,-41 0,-41 0,-12 0,-12 0,-6 6,0 12,0 12,0 153,0 153,0 159,0 165,-6 165,-12 165,-12 165,-41 165,-41 165,-47 159,-53 153,-53"/>
<text text-anchor="start" x="8" y="-37.8" font-family="Helvetica,sans-Serif" font-size="14.00">squared_error = 0.01</text>
<text text-anchor="start" x="34" y="-22.8" font-family="Helvetica,sans-Serif" font-size="14.00">samples = 78</text>
<text text-anchor="start" x="32.5" y="-7.8" font-family="Helvetica,sans-Serif" font-size="14.00">value = 0.041</text>
</g>
<!-- 2&#45;&gt;3 -->
<g id="edge3" class="edge">
<title>2&#45;&gt;3</title>
<path fill="none" stroke="black" d="M204.75,-88.95C184.45,-78.75 162.22,-67.57 142.35,-57.59"/>
<polygon fill="black" stroke="black" points="143.91,-54.45 133.4,-53.09 140.77,-60.71 143.91,-54.45"/>
</g>
<!-- 4 -->
<g id="node5" class="node">
<title>4</title>
<path fill="#ea995f" stroke="black" d="M345.5,-53C345.5,-53 195.5,-53 195.5,-53 189.5,-53 183.5,-47 183.5,-41 183.5,-41 183.5,-12 183.5,-12 183.5,-6 189.5,0 195.5,0 195.5,0 345.5,0 345.5,0 351.5,0 357.5,-6 357.5,-12 357.5,-12 357.5,-41 357.5,-41 357.5,-47 351.5,-53 345.5,-53"/>
<text text-anchor="start" x="191.5" y="-37.8" font-family="Helvetica,sans-Serif" font-size="14.00">squared_error = 0.012</text>
<text text-anchor="start" x="217.5" y="-22.8" font-family="Helvetica,sans-Serif" font-size="14.00">samples = 158</text>
<text text-anchor="start" x="220.5" y="-7.8" font-family="Helvetica,sans-Serif" font-size="14.00">value = 0.111</text>
</g>
<!-- 2&#45;&gt;4 -->
<g id="edge4" class="edge">
<title>2&#45;&gt;4</title>
<path fill="none" stroke="black" d="M270.5,-88.95C270.5,-80.72 270.5,-71.85 270.5,-63.48"/>
<polygon fill="black" stroke="black" points="274,-63.24 270.5,-53.24 267,-63.24 274,-63.24"/>
</g>
<!-- 6 -->
<g id="node7" class="node">
<title>6</title>
<path fill="#e58139" stroke="black" d="M537.5,-53C537.5,-53 387.5,-53 387.5,-53 381.5,-53 375.5,-47 375.5,-41 375.5,-41 375.5,-12 375.5,-12 375.5,-6 381.5,0 387.5,0 387.5,0 537.5,0 537.5,0 543.5,0 549.5,-6 549.5,-12 549.5,-12 549.5,-41 549.5,-41 549.5,-47 543.5,-53 537.5,-53"/>
<text text-anchor="start" x="383.5" y="-37.8" font-family="Helvetica,sans-Serif" font-size="14.00">squared_error = 0.015</text>
<text text-anchor="start" x="409.5" y="-22.8" font-family="Helvetica,sans-Serif" font-size="14.00">samples = 336</text>
<text text-anchor="start" x="412.5" y="-7.8" font-family="Helvetica,sans-Serif" font-size="14.00">value = 0.193</text>
</g>
<!-- 5&#45;&gt;6 -->
<g id="edge6" class="edge">
<title>5&#45;&gt;6</title>
<path fill="none" stroke="black" d="M524.92,-88.95C515.54,-79.71 505.34,-69.67 495.96,-60.44"/>
<polygon fill="black" stroke="black" points="498.23,-57.76 488.65,-53.24 493.32,-62.75 498.23,-57.76"/>
</g>
<!-- 7 -->
<g id="node8" class="node">
<title>7</title>
<path fill="#eeab7b" stroke="black" d="M729.5,-53C729.5,-53 579.5,-53 579.5,-53 573.5,-53 567.5,-47 567.5,-41 567.5,-41 567.5,-12 567.5,-12 567.5,-6 573.5,0 579.5,0 579.5,0 729.5,0 729.5,0 735.5,0 741.5,-6 741.5,-12 741.5,-12 741.5,-41 741.5,-41 741.5,-47 735.5,-53 729.5,-53"/>
<text text-anchor="start" x="575.5" y="-37.8" font-family="Helvetica,sans-Serif" font-size="14.00">squared_error = 0.012</text>
<text text-anchor="start" x="606" y="-22.8" font-family="Helvetica,sans-Serif" font-size="14.00">samples = 56</text>
<text text-anchor="start" x="604.5" y="-7.8" font-family="Helvetica,sans-Serif" font-size="14.00">value = 0.053</text>
</g>
<!-- 5&#45;&gt;7 -->
<g id="edge7" class="edge">
<title>5&#45;&gt;7</title>
<path fill="none" stroke="black" d="M592.08,-88.95C601.46,-79.71 611.66,-69.67 621.04,-60.44"/>
<polygon fill="black" stroke="black" points="623.68,-62.75 628.35,-53.24 618.77,-57.76 623.68,-62.75"/>
</g>
<!-- 9 -->
<g id="node10" class="node">
<title>9</title>
<path fill="#f5cfb3" stroke="black" d="M1017.5,-157C1017.5,-157 867.5,-157 867.5,-157 861.5,-157 855.5,-151 855.5,-145 855.5,-145 855.5,-101 855.5,-101 855.5,-95 861.5,-89 867.5,-89 867.5,-89 1017.5,-89 1017.5,-89 1023.5,-89 1029.5,-95 1029.5,-101 1029.5,-101 1029.5,-145 1029.5,-145 1029.5,-151 1023.5,-157 1017.5,-157"/>
<text text-anchor="start" x="902" y="-141.8" font-family="Helvetica,sans-Serif" font-size="14.00">X1 ≤ 0.706</text>
<text text-anchor="start" x="863.5" y="-126.8" font-family="Helvetica,sans-Serif" font-size="14.00">squared_error = 0.012</text>
<text text-anchor="start" x="889.5" y="-111.8" font-family="Helvetica,sans-Serif" font-size="14.00">samples = 141</text>
<text text-anchor="start" x="890" y="-96.8" font-family="Helvetica,sans-Serif" font-size="14.00">value = &#45;0.067</text>
</g>
<!-- 8&#45;&gt;9 -->
<g id="edge9" class="edge">
<title>8&#45;&gt;9</title>
<path fill="none" stroke="black" d="M942.5,-192.88C942.5,-184.78 942.5,-175.98 942.5,-167.47"/>
<polygon fill="black" stroke="black" points="946,-167.3 942.5,-157.3 939,-167.3 946,-167.3"/>
</g>
<!-- 12 -->
<g id="node13" class="node">
<title>12</title>
<path fill="#fcf0e7" stroke="black" d="M1305.5,-157C1305.5,-157 1155.5,-157 1155.5,-157 1149.5,-157 1143.5,-151 1143.5,-145 1143.5,-145 1143.5,-101 1143.5,-101 1143.5,-95 1149.5,-89 1155.5,-89 1155.5,-89 1305.5,-89 1305.5,-89 1311.5,-89 1317.5,-95 1317.5,-101 1317.5,-101 1317.5,-145 1317.5,-145 1317.5,-151 1311.5,-157 1305.5,-157"/>
<text text-anchor="start" x="1190" y="-141.8" font-family="Helvetica,sans-Serif" font-size="14.00">X2 ≤ 0.373</text>
<text text-anchor="start" x="1151.5" y="-126.8" font-family="Helvetica,sans-Serif" font-size="14.00">squared_error = 0.013</text>
<text text-anchor="start" x="1177.5" y="-111.8" font-family="Helvetica,sans-Serif" font-size="14.00">samples = 231</text>
<text text-anchor="start" x="1178" y="-96.8" font-family="Helvetica,sans-Serif" font-size="14.00">value = &#45;0.176</text>
</g>
<!-- 8&#45;&gt;12 -->
<g id="edge12" class="edge">
<title>8&#45;&gt;12</title>
<path fill="none" stroke="black" d="M1029.69,-195.12C1062.39,-183.54 1099.74,-170.31 1133.29,-158.43"/>
<polygon fill="black" stroke="black" points="1134.85,-161.59 1143.11,-154.95 1132.51,-154.99 1134.85,-161.59"/>
</g>
<!-- 10 -->
<g id="node11" class="node">
<title>10</title>
<path fill="#f3c7a7" stroke="black" d="M921.5,-53C921.5,-53 771.5,-53 771.5,-53 765.5,-53 759.5,-47 759.5,-41 759.5,-41 759.5,-12 759.5,-12 759.5,-6 765.5,0 771.5,0 771.5,0 921.5,0 921.5,0 927.5,0 933.5,-6 933.5,-12 933.5,-12 933.5,-41 933.5,-41 933.5,-47 927.5,-53 921.5,-53"/>
<text text-anchor="start" x="767.5" y="-37.8" font-family="Helvetica,sans-Serif" font-size="14.00">squared_error = 0.009</text>
<text text-anchor="start" x="798" y="-22.8" font-family="Helvetica,sans-Serif" font-size="14.00">samples = 83</text>
<text text-anchor="start" x="798.5" y="-7.8" font-family="Helvetica,sans-Serif" font-size="14.00">value = &#45;0.04</text>
</g>
<!-- 9&#45;&gt;10 -->
<g id="edge10" class="edge">
<title>9&#45;&gt;10</title>
<path fill="none" stroke="black" d="M908.92,-88.95C899.54,-79.71 889.34,-69.67 879.96,-60.44"/>
<polygon fill="black" stroke="black" points="882.23,-57.76 872.65,-53.24 877.32,-62.75 882.23,-57.76"/>
</g>
<!-- 11 -->
<g id="node12" class="node">
<title>11</title>
<path fill="#f7dac5" stroke="black" d="M1113.5,-53C1113.5,-53 963.5,-53 963.5,-53 957.5,-53 951.5,-47 951.5,-41 951.5,-41 951.5,-12 951.5,-12 951.5,-6 957.5,0 963.5,0 963.5,0 1113.5,0 1113.5,0 1119.5,0 1125.5,-6 1125.5,-12 1125.5,-12 1125.5,-41 1125.5,-41 1125.5,-47 1119.5,-53 1113.5,-53"/>
<text text-anchor="start" x="959.5" y="-37.8" font-family="Helvetica,sans-Serif" font-size="14.00">squared_error = 0.014</text>
<text text-anchor="start" x="990" y="-22.8" font-family="Helvetica,sans-Serif" font-size="14.00">samples = 58</text>
<text text-anchor="start" x="986" y="-7.8" font-family="Helvetica,sans-Serif" font-size="14.00">value = &#45;0.105</text>
</g>
<!-- 9&#45;&gt;11 -->
<g id="edge11" class="edge">
<title>9&#45;&gt;11</title>
<path fill="none" stroke="black" d="M976.08,-88.95C985.46,-79.71 995.66,-69.67 1005.04,-60.44"/>
<polygon fill="black" stroke="black" points="1007.68,-62.75 1012.35,-53.24 1002.77,-57.76 1007.68,-62.75"/>
</g>
<!-- 13 -->
<g id="node14" class="node">
<title>13</title>
<path fill="#f8dbc6" stroke="black" d="M1305.5,-53C1305.5,-53 1155.5,-53 1155.5,-53 1149.5,-53 1143.5,-47 1143.5,-41 1143.5,-41 1143.5,-12 1143.5,-12 1143.5,-6 1149.5,0 1155.5,0 1155.5,0 1305.5,0 1305.5,0 1311.5,0 1317.5,-6 1317.5,-12 1317.5,-12 1317.5,-41 1317.5,-41 1317.5,-47 1311.5,-53 1305.5,-53"/>
<text text-anchor="start" x="1151.5" y="-37.8" font-family="Helvetica,sans-Serif" font-size="14.00">squared_error = 0.013</text>
<text text-anchor="start" x="1182" y="-22.8" font-family="Helvetica,sans-Serif" font-size="14.00">samples = 99</text>
<text text-anchor="start" x="1178" y="-7.8" font-family="Helvetica,sans-Serif" font-size="14.00">value = &#45;0.107</text>
</g>
<!-- 12&#45;&gt;13 -->
<g id="edge13" class="edge">
<title>12&#45;&gt;13</title>
<path fill="none" stroke="black" d="M1230.5,-88.95C1230.5,-80.72 1230.5,-71.85 1230.5,-63.48"/>
<polygon fill="black" stroke="black" points="1234,-63.24 1230.5,-53.24 1227,-63.24 1234,-63.24"/>
</g>
<!-- 14 -->
<g id="node15" class="node">
<title>14</title>
<path fill="#ffffff" stroke="black" d="M1497.5,-53C1497.5,-53 1347.5,-53 1347.5,-53 1341.5,-53 1335.5,-47 1335.5,-41 1335.5,-41 1335.5,-12 1335.5,-12 1335.5,-6 1341.5,0 1347.5,0 1347.5,0 1497.5,0 1497.5,0 1503.5,0 1509.5,-6 1509.5,-12 1509.5,-12 1509.5,-41 1509.5,-41 1509.5,-47 1503.5,-53 1497.5,-53"/>
<text text-anchor="start" x="1343.5" y="-37.8" font-family="Helvetica,sans-Serif" font-size="14.00">squared_error = 0.007</text>
<text text-anchor="start" x="1369.5" y="-22.8" font-family="Helvetica,sans-Serif" font-size="14.00">samples = 132</text>
<text text-anchor="start" x="1370" y="-7.8" font-family="Helvetica,sans-Serif" font-size="14.00">value = &#45;0.228</text>
</g>
<!-- 12&#45;&gt;14 -->
<g id="edge14" class="edge">
<title>12&#45;&gt;14</title>
<path fill="none" stroke="black" d="M1297.65,-88.95C1318.38,-78.75 1341.08,-67.57 1361.37,-57.59"/>
<polygon fill="black" stroke="black" points="1363.09,-60.64 1370.51,-53.09 1360,-54.36 1363.09,-60.64"/>
</g>
</g>
</svg>
