<?xml version="1.0" encoding="UTF-8" standalone="no"?>
<!DOCTYPE svg PUBLIC "-//W3C//DTD SVG 1.1//EN"
 "http://www.w3.org/Graphics/SVG/1.1/DTD/svg11.dtd">
<!-- Generated by graphviz version 2.40.1 (20161225.0304)
 -->
<!-- Title: Tree Pages: 1 -->
<svg width="1113pt" height="373pt"
 viewBox="0.00 0.00 1113.00 373.00" xmlns="http://www.w3.org/2000/svg" xmlns:xlink="http://www.w3.org/1999/xlink">
<g id="graph0" class="graph" transform="scale(1 1) rotate(0) translate(4 369)">
<title>Tree</title>
<polygon fill="#ffffff" stroke="transparent" points="-4,4 -4,-369 1109,-369 1109,4 -4,4"/>
<!-- 0 -->
<g id="node1" class="node">
<title>0</title>
<path fill="#eeac7d" stroke="#000000" d="M601.5,-365C601.5,-365 491.5,-365 491.5,-365 485.5,-365 479.5,-359 479.5,-353 479.5,-353 479.5,-309 479.5,-309 479.5,-303 485.5,-297 491.5,-297 491.5,-297 601.5,-297 601.5,-297 607.5,-297 613.5,-303 613.5,-309 613.5,-309 613.5,-353 613.5,-353 613.5,-359 607.5,-365 601.5,-365"/>
<text text-anchor="start" x="506" y="-349.8" font-family="Helvetica,sans-Serif" font-size="14.00" fill="#000000">X1 ≤ 0.595</text>
<text text-anchor="start" x="500" y="-334.8" font-family="Helvetica,sans-Serif" font-size="14.00" fill="#000000">mse = 0.033</text>
<text text-anchor="start" x="487.5" y="-319.8" font-family="Helvetica,sans-Serif" font-size="14.00" fill="#000000">samples = 1000</text>
<text text-anchor="start" x="496" y="-304.8" font-family="Helvetica,sans-Serif" font-size="14.00" fill="#000000">value = 0.051</text>
</g>
<!-- 1 -->
<g id="node2" class="node">
<title>1</title>
<path fill="#e89050" stroke="#000000" d="M458,-261C458,-261 357,-261 357,-261 351,-261 345,-255 345,-249 345,-249 345,-205 345,-205 345,-199 351,-193 357,-193 357,-193 458,-193 458,-193 464,-193 470,-199 470,-205 470,-205 470,-249 470,-249 470,-255 464,-261 458,-261"/>
<text text-anchor="start" x="367" y="-245.8" font-family="Helvetica,sans-Serif" font-size="14.00" fill="#000000">X2 ≤ 0.264</text>
<text text-anchor="start" x="361" y="-230.8" font-family="Helvetica,sans-Serif" font-size="14.00" fill="#000000">mse = 0.016</text>
<text text-anchor="start" x="353" y="-215.8" font-family="Helvetica,sans-Serif" font-size="14.00" fill="#000000">samples = 633</text>
<text text-anchor="start" x="357" y="-200.8" font-family="Helvetica,sans-Serif" font-size="14.00" fill="#000000">value = 0.149</text>
</g>
<!-- 0&#45;&gt;1 -->
<g id="edge1" class="edge">
<title>0&#45;&gt;1</title>
<path fill="none" stroke="#000000" d="M500.9862,-296.9465C488.266,-287.4293 474.324,-276.9978 461.1794,-267.163"/>
<polygon fill="#000000" stroke="#000000" points="463.2198,-264.3184 453.1161,-261.13 459.0262,-269.9232 463.2198,-264.3184"/>
<text text-anchor="middle" x="456.6801" y="-282.1746" font-family="Helvetica,sans-Serif" font-size="14.00" fill="#000000">True</text>
</g>
<!-- 8 -->
<g id="node9" class="node">
<title>8</title>
<path fill="#f8ddca" stroke="#000000" d="M738,-261C738,-261 637,-261 637,-261 631,-261 625,-255 625,-249 625,-249 625,-205 625,-205 625,-199 631,-193 637,-193 637,-193 738,-193 738,-193 744,-193 750,-199 750,-205 750,-205 750,-249 750,-249 750,-255 744,-261 738,-261"/>
<text text-anchor="start" x="647" y="-245.8" font-family="Helvetica,sans-Serif" font-size="14.00" fill="#000000">X1 ≤ 0.767</text>
<text text-anchor="start" x="641" y="-230.8" font-family="Helvetica,sans-Serif" font-size="14.00" fill="#000000">mse = 0.018</text>
<text text-anchor="start" x="633" y="-215.8" font-family="Helvetica,sans-Serif" font-size="14.00" fill="#000000">samples = 367</text>
<text text-anchor="start" x="634.5" y="-200.8" font-family="Helvetica,sans-Serif" font-size="14.00" fill="#000000">value = &#45;0.119</text>
</g>
<!-- 0&#45;&gt;8 -->
<g id="edge8" class="edge">
<title>0&#45;&gt;8</title>
<path fill="none" stroke="#000000" d="M592.6687,-296.9465C605.5719,-287.4293 619.7145,-276.9978 633.0483,-267.163"/>
<polygon fill="#000000" stroke="#000000" points="635.2575,-269.8826 641.2276,-261.13 631.1023,-264.2492 635.2575,-269.8826"/>
<text text-anchor="middle" x="637.4944" y="-282.1497" font-family="Helvetica,sans-Serif" font-size="14.00" fill="#000000">False</text>
</g>
<!-- 2 -->
<g id="node3" class="node">
<title>2</title>
<path fill="#eda978" stroke="#000000" d="M248,-157C248,-157 147,-157 147,-157 141,-157 135,-151 135,-145 135,-145 135,-101 135,-101 135,-95 141,-89 147,-89 147,-89 248,-89 248,-89 254,-89 260,-95 260,-101 260,-101 260,-145 260,-145 260,-151 254,-157 248,-157"/>
<text text-anchor="start" x="157" y="-141.8" font-family="Helvetica,sans-Serif" font-size="14.00" fill="#000000">X1 ≤ 0.104</text>
<text text-anchor="start" x="155.5" y="-126.8" font-family="Helvetica,sans-Serif" font-size="14.00" fill="#000000">mse = 0.01</text>
<text text-anchor="start" x="143" y="-111.8" font-family="Helvetica,sans-Serif" font-size="14.00" fill="#000000">samples = 174</text>
<text text-anchor="start" x="147" y="-96.8" font-family="Helvetica,sans-Serif" font-size="14.00" fill="#000000">value = 0.062</text>
</g>
<!-- 1&#45;&gt;2 -->
<g id="edge2" class="edge">
<title>1&#45;&gt;2</title>
<path fill="none" stroke="#000000" d="M344.7775,-195.9374C321.0934,-184.2081 293.964,-170.7727 269.4963,-158.6553"/>
<polygon fill="#000000" stroke="#000000" points="270.7765,-155.3837 260.2619,-154.0821 267.6699,-161.6566 270.7765,-155.3837"/>
</g>
<!-- 5 -->
<g id="node6" class="node">
<title>5</title>
<path fill="#e68641" stroke="#000000" d="M458,-157C458,-157 357,-157 357,-157 351,-157 345,-151 345,-145 345,-145 345,-101 345,-101 345,-95 351,-89 357,-89 357,-89 458,-89 458,-89 464,-89 470,-95 470,-101 470,-101 470,-145 470,-145 470,-151 464,-157 458,-157"/>
<text text-anchor="start" x="367" y="-141.8" font-family="Helvetica,sans-Serif" font-size="14.00" fill="#000000">X1 ≤ 0.112</text>
<text text-anchor="start" x="361" y="-126.8" font-family="Helvetica,sans-Serif" font-size="14.00" fill="#000000">mse = 0.014</text>
<text text-anchor="start" x="353" y="-111.8" font-family="Helvetica,sans-Serif" font-size="14.00" fill="#000000">samples = 459</text>
<text text-anchor="start" x="357" y="-96.8" font-family="Helvetica,sans-Serif" font-size="14.00" fill="#000000">value = 0.182</text>
</g>
<!-- 1&#45;&gt;5 -->
<g id="edge5" class="edge">
<title>1&#45;&gt;5</title>
<path fill="none" stroke="#000000" d="M407.5,-192.9465C407.5,-184.776 407.5,-175.9318 407.5,-167.3697"/>
<polygon fill="#000000" stroke="#000000" points="411.0001,-167.13 407.5,-157.13 404.0001,-167.13 411.0001,-167.13"/>
</g>
<!-- 3 -->
<g id="node4" class="node">
<title>3</title>
<path fill="#f0b88f" stroke="#000000" d="M105,-53C105,-53 12,-53 12,-53 6,-53 0,-47 0,-41 0,-41 0,-12 0,-12 0,-6 6,0 12,0 12,0 105,0 105,0 111,0 117,-6 117,-12 117,-12 117,-41 117,-41 117,-47 111,-53 105,-53"/>
<text text-anchor="start" x="16.5" y="-37.8" font-family="Helvetica,sans-Serif" font-size="14.00" fill="#000000">mse = 0.01</text>
<text text-anchor="start" x="8.5" y="-22.8" font-family="Helvetica,sans-Serif" font-size="14.00" fill="#000000">samples = 35</text>
<text text-anchor="start" x="8" y="-7.8" font-family="Helvetica,sans-Serif" font-size="14.00" fill="#000000">value = 0.011</text>
</g>
<!-- 2&#45;&gt;3 -->
<g id="edge3" class="edge">
<title>2&#45;&gt;3</title>
<path fill="none" stroke="#000000" d="M148.4938,-88.9777C134.5126,-79.2713 119.3162,-68.7213 105.4602,-59.1018"/>
<polygon fill="#000000" stroke="#000000" points="107.2394,-56.0763 97.0289,-53.2485 103.2474,-61.8264 107.2394,-56.0763"/>
</g>
<!-- 4 -->
<g id="node5" class="node">
<title>4</title>
<path fill="#eca572" stroke="#000000" d="M248,-53C248,-53 147,-53 147,-53 141,-53 135,-47 135,-41 135,-41 135,-12 135,-12 135,-6 141,0 147,0 147,0 248,0 248,0 254,0 260,-6 260,-12 260,-12 260,-41 260,-41 260,-47 254,-53 248,-53"/>
<text text-anchor="start" x="151" y="-37.8" font-family="Helvetica,sans-Serif" font-size="14.00" fill="#000000">mse = 0.009</text>
<text text-anchor="start" x="143" y="-22.8" font-family="Helvetica,sans-Serif" font-size="14.00" fill="#000000">samples = 139</text>
<text text-anchor="start" x="147" y="-7.8" font-family="Helvetica,sans-Serif" font-size="14.00" fill="#000000">value = 0.075</text>
</g>
<!-- 2&#45;&gt;4 -->
<g id="edge4" class="edge">
<title>2&#45;&gt;4</title>
<path fill="none" stroke="#000000" d="M197.5,-88.9777C197.5,-80.7364 197.5,-71.887 197.5,-63.5153"/>
<polygon fill="#000000" stroke="#000000" points="201.0001,-63.2484 197.5,-53.2485 194.0001,-63.2485 201.0001,-63.2484"/>
</g>
<!-- 6 -->
<g id="node7" class="node">
<title>6</title>
<path fill="#eba069" stroke="#000000" d="M383,-53C383,-53 290,-53 290,-53 284,-53 278,-47 278,-41 278,-41 278,-12 278,-12 278,-6 284,0 290,0 290,0 383,0 383,0 389,0 395,-6 395,-12 395,-12 395,-41 395,-41 395,-47 389,-53 383,-53"/>
<text text-anchor="start" x="290" y="-37.8" font-family="Helvetica,sans-Serif" font-size="14.00" fill="#000000">mse = 0.012</text>
<text text-anchor="start" x="286.5" y="-22.8" font-family="Helvetica,sans-Serif" font-size="14.00" fill="#000000">samples = 76</text>
<text text-anchor="start" x="286" y="-7.8" font-family="Helvetica,sans-Serif" font-size="14.00" fill="#000000">value = 0.094</text>
</g>
<!-- 5&#45;&gt;6 -->
<g id="edge6" class="edge">
<title>5&#45;&gt;6</title>
<path fill="none" stroke="#000000" d="M382.4681,-88.9777C375.9329,-80.0954 368.878,-70.5067 362.3036,-61.5711"/>
<polygon fill="#000000" stroke="#000000" points="364.9257,-59.229 356.1802,-53.2485 359.2874,-63.3775 364.9257,-59.229"/>
</g>
<!-- 7 -->
<g id="node8" class="node">
<title>7</title>
<path fill="#e58139" stroke="#000000" d="M526,-53C526,-53 425,-53 425,-53 419,-53 413,-47 413,-41 413,-41 413,-12 413,-12 413,-6 419,0 425,0 425,0 526,0 526,0 532,0 538,-6 538,-12 538,-12 538,-41 538,-41 538,-47 532,-53 526,-53"/>
<text text-anchor="start" x="429" y="-37.8" font-family="Helvetica,sans-Serif" font-size="14.00" fill="#000000">mse = 0.013</text>
<text text-anchor="start" x="421" y="-22.8" font-family="Helvetica,sans-Serif" font-size="14.00" fill="#000000">samples = 383</text>
<text text-anchor="start" x="425" y="-7.8" font-family="Helvetica,sans-Serif" font-size="14.00" fill="#000000">value = 0.199</text>
</g>
<!-- 5&#45;&gt;7 -->
<g id="edge7" class="edge">
<title>5&#45;&gt;7</title>
<path fill="none" stroke="#000000" d="M431.4743,-88.9777C437.7333,-80.0954 444.4901,-70.5067 450.7867,-61.5711"/>
<polygon fill="#000000" stroke="#000000" points="453.7521,-63.4389 456.6513,-53.2485 448.0301,-59.4068 453.7521,-63.4389"/>
</g>
<!-- 9 -->
<g id="node10" class="node">
<title>9</title>
<path fill="#f4c8a8" stroke="#000000" d="M738,-157C738,-157 637,-157 637,-157 631,-157 625,-151 625,-145 625,-145 625,-101 625,-101 625,-95 631,-89 637,-89 637,-89 738,-89 738,-89 744,-89 750,-95 750,-101 750,-101 750,-145 750,-145 750,-151 744,-157 738,-157"/>
<text text-anchor="start" x="647" y="-141.8" font-family="Helvetica,sans-Serif" font-size="14.00" fill="#000000">X1 ≤ 0.698</text>
<text text-anchor="start" x="641" y="-126.8" font-family="Helvetica,sans-Serif" font-size="14.00" fill="#000000">mse = 0.011</text>
<text text-anchor="start" x="633" y="-111.8" font-family="Helvetica,sans-Serif" font-size="14.00" fill="#000000">samples = 176</text>
<text text-anchor="start" x="634.5" y="-96.8" font-family="Helvetica,sans-Serif" font-size="14.00" fill="#000000">value = &#45;0.044</text>
</g>
<!-- 8&#45;&gt;9 -->
<g id="edge9" class="edge">
<title>8&#45;&gt;9</title>
<path fill="none" stroke="#000000" d="M687.5,-192.9465C687.5,-184.776 687.5,-175.9318 687.5,-167.3697"/>
<polygon fill="#000000" stroke="#000000" points="691.0001,-167.13 687.5,-157.13 684.0001,-167.13 691.0001,-167.13"/>
</g>
<!-- 12 -->
<g id="node13" class="node">
<title>12</title>
<path fill="#fcf2ea" stroke="#000000" d="M951,-157C951,-157 850,-157 850,-157 844,-157 838,-151 838,-145 838,-145 838,-101 838,-101 838,-95 844,-89 850,-89 850,-89 951,-89 951,-89 957,-89 963,-95 963,-101 963,-101 963,-145 963,-145 963,-151 957,-157 951,-157"/>
<text text-anchor="start" x="860" y="-141.8" font-family="Helvetica,sans-Serif" font-size="14.00" fill="#000000">X2 ≤ 0.333</text>
<text text-anchor="start" x="854" y="-126.8" font-family="Helvetica,sans-Serif" font-size="14.00" fill="#000000">mse = 0.013</text>
<text text-anchor="start" x="846" y="-111.8" font-family="Helvetica,sans-Serif" font-size="14.00" fill="#000000">samples = 191</text>
<text text-anchor="start" x="847.5" y="-96.8" font-family="Helvetica,sans-Serif" font-size="14.00" fill="#000000">value = &#45;0.189</text>
</g>
<!-- 8&#45;&gt;12 -->
<g id="edge12" class="edge">
<title>8&#45;&gt;12</title>
<path fill="none" stroke="#000000" d="M750.255,-196.3591C774.8458,-184.3523 803.2027,-170.5067 828.6108,-158.1008"/>
<polygon fill="#000000" stroke="#000000" points="830.3754,-161.1342 837.8258,-153.6015 827.3041,-154.844 830.3754,-161.1342"/>
</g>
<!-- 10 -->
<g id="node11" class="node">
<title>10</title>
<path fill="#f2bf9a" stroke="#000000" d="M669,-53C669,-53 568,-53 568,-53 562,-53 556,-47 556,-41 556,-41 556,-12 556,-12 556,-6 562,0 568,0 568,0 669,0 669,0 675,0 681,-6 681,-12 681,-12 681,-41 681,-41 681,-47 675,-53 669,-53"/>
<text text-anchor="start" x="576.5" y="-37.8" font-family="Helvetica,sans-Serif" font-size="14.00" fill="#000000">mse = 0.01</text>
<text text-anchor="start" x="564" y="-22.8" font-family="Helvetica,sans-Serif" font-size="14.00" fill="#000000">samples = 111</text>
<text text-anchor="start" x="565.5" y="-7.8" font-family="Helvetica,sans-Serif" font-size="14.00" fill="#000000">value = &#45;0.013</text>
</g>
<!-- 9&#45;&gt;10 -->
<g id="edge10" class="edge">
<title>9&#45;&gt;10</title>
<path fill="none" stroke="#000000" d="M663.1732,-88.9777C656.8221,-80.0954 649.966,-70.5067 643.5768,-61.5711"/>
<polygon fill="#000000" stroke="#000000" points="646.2893,-59.3472 637.6259,-53.2485 640.5952,-63.4187 646.2893,-59.3472"/>
</g>
<!-- 11 -->
<g id="node12" class="node">
<title>11</title>
<path fill="#f7d7bf" stroke="#000000" d="M809.5,-53C809.5,-53 711.5,-53 711.5,-53 705.5,-53 699.5,-47 699.5,-41 699.5,-41 699.5,-12 699.5,-12 699.5,-6 705.5,0 711.5,0 711.5,0 809.5,0 809.5,0 815.5,0 821.5,-6 821.5,-12 821.5,-12 821.5,-41 821.5,-41 821.5,-47 815.5,-53 809.5,-53"/>
<text text-anchor="start" x="718.5" y="-37.8" font-family="Helvetica,sans-Serif" font-size="14.00" fill="#000000">mse = 0.01</text>
<text text-anchor="start" x="710.5" y="-22.8" font-family="Helvetica,sans-Serif" font-size="14.00" fill="#000000">samples = 65</text>
<text text-anchor="start" x="707.5" y="-7.8" font-family="Helvetica,sans-Serif" font-size="14.00" fill="#000000">value = &#45;0.095</text>
</g>
<!-- 9&#45;&gt;11 -->
<g id="edge11" class="edge">
<title>9&#45;&gt;11</title>
<path fill="none" stroke="#000000" d="M713.2371,-88.9777C720.0256,-80.0039 727.3596,-70.3089 734.1784,-61.295"/>
<polygon fill="#000000" stroke="#000000" points="737.0237,-63.3352 740.2654,-53.2485 731.441,-59.1121 737.0237,-63.3352"/>
</g>
<!-- 13 -->
<g id="node14" class="node">
<title>13</title>
<path fill="#f6d3ba" stroke="#000000" d="M949.5,-53C949.5,-53 851.5,-53 851.5,-53 845.5,-53 839.5,-47 839.5,-41 839.5,-41 839.5,-12 839.5,-12 839.5,-6 845.5,0 851.5,0 851.5,0 949.5,0 949.5,0 955.5,0 961.5,-6 961.5,-12 961.5,-12 961.5,-41 961.5,-41 961.5,-47 955.5,-53 949.5,-53"/>
<text text-anchor="start" x="854" y="-37.8" font-family="Helvetica,sans-Serif" font-size="14.00" fill="#000000">mse = 0.007</text>
<text text-anchor="start" x="850.5" y="-22.8" font-family="Helvetica,sans-Serif" font-size="14.00" fill="#000000">samples = 58</text>
<text text-anchor="start" x="847.5" y="-7.8" font-family="Helvetica,sans-Serif" font-size="14.00" fill="#000000">value = &#45;0.083</text>
</g>
<!-- 12&#45;&gt;13 -->
<g id="edge13" class="edge">
<title>12&#45;&gt;13</title>
<path fill="none" stroke="#000000" d="M900.5,-88.9777C900.5,-80.7364 900.5,-71.887 900.5,-63.5153"/>
<polygon fill="#000000" stroke="#000000" points="904.0001,-63.2484 900.5,-53.2485 897.0001,-63.2485 904.0001,-63.2484"/>
</g>
<!-- 14 -->
<g id="node15" class="node">
<title>14</title>
<path fill="#ffffff" stroke="#000000" d="M1093,-53C1093,-53 992,-53 992,-53 986,-53 980,-47 980,-41 980,-41 980,-12 980,-12 980,-6 986,0 992,0 992,0 1093,0 1093,0 1099,0 1105,-6 1105,-12 1105,-12 1105,-41 1105,-41 1105,-47 1099,-53 1093,-53"/>
<text text-anchor="start" x="996" y="-37.8" font-family="Helvetica,sans-Serif" font-size="14.00" fill="#000000">mse = 0.009</text>
<text text-anchor="start" x="988" y="-22.8" font-family="Helvetica,sans-Serif" font-size="14.00" fill="#000000">samples = 133</text>
<text text-anchor="start" x="989.5" y="-7.8" font-family="Helvetica,sans-Serif" font-size="14.00" fill="#000000">value = &#45;0.235</text>
</g>
<!-- 12&#45;&gt;14 -->
<g id="edge14" class="edge">
<title>12&#45;&gt;14</title>
<path fill="none" stroke="#000000" d="M950.5639,-88.9777C964.8469,-79.2713 980.3713,-68.7213 994.5263,-59.1018"/>
<polygon fill="#000000" stroke="#000000" points="996.8359,-61.764 1003.1395,-53.2485 992.9014,-55.9744 996.8359,-61.764"/>
</g>
</g>
</svg>
