<?xml version="1.0" encoding="UTF-8" standalone="no"?>
<!DOCTYPE svg PUBLIC "-//W3C//DTD SVG 1.1//EN"
 "http://www.w3.org/Graphics/SVG/1.1/DTD/svg11.dtd">
<!-- Generated by graphviz version 2.40.1 (20161225.0304)
 -->
<!-- Title: Tree Pages: 1 -->
<svg width="1111pt" height="373pt"
 viewBox="0.00 0.00 1111.00 373.00" xmlns="http://www.w3.org/2000/svg" xmlns:xlink="http://www.w3.org/1999/xlink">
<g id="graph0" class="graph" transform="scale(1 1) rotate(0) translate(4 369)">
<title>Tree</title>
<polygon fill="#ffffff" stroke="transparent" points="-4,4 -4,-369 1107,-369 1107,4 -4,4"/>
<!-- 0 -->
<g id="node1" class="node">
<title>0</title>
<path fill="#efaf81" stroke="#000000" d="M603.5,-365C603.5,-365 493.5,-365 493.5,-365 487.5,-365 481.5,-359 481.5,-353 481.5,-353 481.5,-309 481.5,-309 481.5,-303 487.5,-297 493.5,-297 493.5,-297 603.5,-297 603.5,-297 609.5,-297 615.5,-303 615.5,-309 615.5,-309 615.5,-353 615.5,-353 615.5,-359 609.5,-365 603.5,-365"/>
<text text-anchor="start" x="508" y="-349.8" font-family="Helvetica,sans-Serif" font-size="14.00" fill="#000000">X1 ≤ 0.635</text>
<text text-anchor="start" x="502" y="-334.8" font-family="Helvetica,sans-Serif" font-size="14.00" fill="#000000">mse = 0.034</text>
<text text-anchor="start" x="489.5" y="-319.8" font-family="Helvetica,sans-Serif" font-size="14.00" fill="#000000">samples = 1000</text>
<text text-anchor="start" x="498" y="-304.8" font-family="Helvetica,sans-Serif" font-size="14.00" fill="#000000">value = 0.027</text>
</g>
<!-- 1 -->
<g id="node2" class="node">
<title>1</title>
<path fill="#e88f4f" stroke="#000000" d="M461,-261C461,-261 360,-261 360,-261 354,-261 348,-255 348,-249 348,-249 348,-205 348,-205 348,-199 354,-193 360,-193 360,-193 461,-193 461,-193 467,-193 473,-199 473,-205 473,-205 473,-249 473,-249 473,-255 467,-261 461,-261"/>
<text text-anchor="start" x="370" y="-245.8" font-family="Helvetica,sans-Serif" font-size="14.00" fill="#000000">X1 ≤ 0.543</text>
<text text-anchor="start" x="364" y="-230.8" font-family="Helvetica,sans-Serif" font-size="14.00" fill="#000000">mse = 0.016</text>
<text text-anchor="start" x="356" y="-215.8" font-family="Helvetica,sans-Serif" font-size="14.00" fill="#000000">samples = 634</text>
<text text-anchor="start" x="360" y="-200.8" font-family="Helvetica,sans-Serif" font-size="14.00" fill="#000000">value = 0.127</text>
</g>
<!-- 0&#45;&gt;1 -->
<g id="edge1" class="edge">
<title>0&#45;&gt;1</title>
<path fill="none" stroke="#000000" d="M503.3136,-296.9465C490.685,-287.4293 476.8433,-276.9978 463.7932,-267.163"/>
<polygon fill="#000000" stroke="#000000" points="465.8805,-264.3534 455.7879,-261.13 461.6675,-269.9437 465.8805,-264.3534"/>
<text text-anchor="middle" x="459.2661" y="-282.1869" font-family="Helvetica,sans-Serif" font-size="14.00" fill="#000000">True</text>
</g>
<!-- 8 -->
<g id="node9" class="node">
<title>8</title>
<path fill="#fae7d9" stroke="#000000" d="M739,-261C739,-261 638,-261 638,-261 632,-261 626,-255 626,-249 626,-249 626,-205 626,-205 626,-199 632,-193 638,-193 638,-193 739,-193 739,-193 745,-193 751,-199 751,-205 751,-205 751,-249 751,-249 751,-255 745,-261 739,-261"/>
<text text-anchor="start" x="648" y="-245.8" font-family="Helvetica,sans-Serif" font-size="14.00" fill="#000000">X1 ≤ 0.733</text>
<text text-anchor="start" x="642" y="-230.8" font-family="Helvetica,sans-Serif" font-size="14.00" fill="#000000">mse = 0.018</text>
<text text-anchor="start" x="634" y="-215.8" font-family="Helvetica,sans-Serif" font-size="14.00" fill="#000000">samples = 366</text>
<text text-anchor="start" x="635.5" y="-200.8" font-family="Helvetica,sans-Serif" font-size="14.00" fill="#000000">value = &#45;0.145</text>
</g>
<!-- 0&#45;&gt;8 -->
<g id="edge8" class="edge">
<title>0&#45;&gt;8</title>
<path fill="none" stroke="#000000" d="M594.3412,-296.9465C607.1529,-287.4293 621.1952,-276.9978 634.4344,-267.163"/>
<polygon fill="#000000" stroke="#000000" points="636.6155,-269.9029 642.5558,-261.13 632.4412,-264.2837 636.6155,-269.9029"/>
<text text-anchor="middle" x="638.9068" y="-282.1623" font-family="Helvetica,sans-Serif" font-size="14.00" fill="#000000">False</text>
</g>
<!-- 2 -->
<g id="node3" class="node">
<title>2</title>
<path fill="#e78946" stroke="#000000" d="M256,-157C256,-157 155,-157 155,-157 149,-157 143,-151 143,-145 143,-145 143,-101 143,-101 143,-95 149,-89 155,-89 155,-89 256,-89 256,-89 262,-89 268,-95 268,-101 268,-101 268,-145 268,-145 268,-151 262,-157 256,-157"/>
<text text-anchor="start" x="165" y="-141.8" font-family="Helvetica,sans-Serif" font-size="14.00" fill="#000000">X2 ≤ 0.223</text>
<text text-anchor="start" x="159" y="-126.8" font-family="Helvetica,sans-Serif" font-size="14.00" fill="#000000">mse = 0.014</text>
<text text-anchor="start" x="151" y="-111.8" font-family="Helvetica,sans-Serif" font-size="14.00" fill="#000000">samples = 538</text>
<text text-anchor="start" x="155" y="-96.8" font-family="Helvetica,sans-Serif" font-size="14.00" fill="#000000">value = 0.145</text>
</g>
<!-- 1&#45;&gt;2 -->
<g id="edge2" class="edge">
<title>1&#45;&gt;2</title>
<path fill="none" stroke="#000000" d="M347.8793,-195.2315C325.5303,-183.8934 300.1845,-171.0351 277.1353,-159.3418"/>
<polygon fill="#000000" stroke="#000000" points="278.5917,-156.1561 268.0901,-154.753 275.4247,-162.3987 278.5917,-156.1561"/>
</g>
<!-- 5 -->
<g id="node6" class="node">
<title>5</title>
<path fill="#efb083" stroke="#000000" d="M457,-157C457,-157 364,-157 364,-157 358,-157 352,-151 352,-145 352,-145 352,-101 352,-101 352,-95 358,-89 364,-89 364,-89 457,-89 457,-89 463,-89 469,-95 469,-101 469,-101 469,-145 469,-145 469,-151 463,-157 457,-157"/>
<text text-anchor="start" x="370" y="-141.8" font-family="Helvetica,sans-Serif" font-size="14.00" fill="#000000">X2 ≤ 0.929</text>
<text text-anchor="start" x="364" y="-126.8" font-family="Helvetica,sans-Serif" font-size="14.00" fill="#000000">mse = 0.012</text>
<text text-anchor="start" x="360.5" y="-111.8" font-family="Helvetica,sans-Serif" font-size="14.00" fill="#000000">samples = 96</text>
<text text-anchor="start" x="360" y="-96.8" font-family="Helvetica,sans-Serif" font-size="14.00" fill="#000000">value = 0.024</text>
</g>
<!-- 1&#45;&gt;5 -->
<g id="edge5" class="edge">
<title>1&#45;&gt;5</title>
<path fill="none" stroke="#000000" d="M410.5,-192.9465C410.5,-184.776 410.5,-175.9318 410.5,-167.3697"/>
<polygon fill="#000000" stroke="#000000" points="414.0001,-167.13 410.5,-157.13 407.0001,-167.13 414.0001,-167.13"/>
</g>
<!-- 3 -->
<g id="node4" class="node">
<title>3</title>
<path fill="#eca26d" stroke="#000000" d="M113,-53C113,-53 12,-53 12,-53 6,-53 0,-47 0,-41 0,-41 0,-12 0,-12 0,-6 6,0 12,0 12,0 113,0 113,0 119,0 125,-6 125,-12 125,-12 125,-41 125,-41 125,-47 119,-53 113,-53"/>
<text text-anchor="start" x="20.5" y="-37.8" font-family="Helvetica,sans-Serif" font-size="14.00" fill="#000000">mse = 0.01</text>
<text text-anchor="start" x="8" y="-22.8" font-family="Helvetica,sans-Serif" font-size="14.00" fill="#000000">samples = 130</text>
<text text-anchor="start" x="12" y="-7.8" font-family="Helvetica,sans-Serif" font-size="14.00" fill="#000000">value = 0.068</text>
</g>
<!-- 2&#45;&gt;3 -->
<g id="edge3" class="edge">
<title>2&#45;&gt;3</title>
<path fill="none" stroke="#000000" d="M155.0835,-88.9777C140.7,-79.2713 125.0663,-68.7213 110.8115,-59.1018"/>
<polygon fill="#000000" stroke="#000000" points="112.3846,-55.941 102.1376,-53.2485 108.469,-61.7435 112.3846,-55.941"/>
</g>
<!-- 4 -->
<g id="node5" class="node">
<title>4</title>
<path fill="#e58139" stroke="#000000" d="M256,-53C256,-53 155,-53 155,-53 149,-53 143,-47 143,-41 143,-41 143,-12 143,-12 143,-6 149,0 155,0 155,0 256,0 256,0 262,0 268,-6 268,-12 268,-12 268,-41 268,-41 268,-47 262,-53 256,-53"/>
<text text-anchor="start" x="159" y="-37.8" font-family="Helvetica,sans-Serif" font-size="14.00" fill="#000000">mse = 0.013</text>
<text text-anchor="start" x="151" y="-22.8" font-family="Helvetica,sans-Serif" font-size="14.00" fill="#000000">samples = 408</text>
<text text-anchor="start" x="159.5" y="-7.8" font-family="Helvetica,sans-Serif" font-size="14.00" fill="#000000">value = 0.17</text>
</g>
<!-- 2&#45;&gt;4 -->
<g id="edge4" class="edge">
<title>2&#45;&gt;4</title>
<path fill="none" stroke="#000000" d="M205.5,-88.9777C205.5,-80.7364 205.5,-71.887 205.5,-63.5153"/>
<polygon fill="#000000" stroke="#000000" points="209.0001,-63.2484 205.5,-53.2485 202.0001,-63.2485 209.0001,-63.2484"/>
</g>
<!-- 6 -->
<g id="node7" class="node">
<title>6</title>
<path fill="#eeaf81" stroke="#000000" d="M391,-53C391,-53 298,-53 298,-53 292,-53 286,-47 286,-41 286,-41 286,-12 286,-12 286,-6 292,0 298,0 298,0 391,0 391,0 397,0 403,-6 403,-12 403,-12 403,-41 403,-41 403,-47 397,-53 391,-53"/>
<text text-anchor="start" x="298" y="-37.8" font-family="Helvetica,sans-Serif" font-size="14.00" fill="#000000">mse = 0.012</text>
<text text-anchor="start" x="294.5" y="-22.8" font-family="Helvetica,sans-Serif" font-size="14.00" fill="#000000">samples = 91</text>
<text text-anchor="start" x="294" y="-7.8" font-family="Helvetica,sans-Serif" font-size="14.00" fill="#000000">value = 0.029</text>
</g>
<!-- 5&#45;&gt;6 -->
<g id="edge6" class="edge">
<title>5&#45;&gt;6</title>
<path fill="none" stroke="#000000" d="M387.2309,-88.9777C381.156,-80.0954 374.5979,-70.5067 368.4865,-61.5711"/>
<polygon fill="#000000" stroke="#000000" points="371.3286,-59.5267 362.7943,-53.2485 365.5507,-63.4785 371.3286,-59.5267"/>
</g>
<!-- 7 -->
<g id="node8" class="node">
<title>7</title>
<path fill="#f5ceb1" stroke="#000000" d="M531.5,-53C531.5,-53 433.5,-53 433.5,-53 427.5,-53 421.5,-47 421.5,-41 421.5,-41 421.5,-12 421.5,-12 421.5,-6 427.5,0 433.5,0 433.5,0 531.5,0 531.5,0 537.5,0 543.5,-6 543.5,-12 543.5,-12 543.5,-41 543.5,-41 543.5,-47 537.5,-53 531.5,-53"/>
<text text-anchor="start" x="436" y="-37.8" font-family="Helvetica,sans-Serif" font-size="14.00" fill="#000000">mse = 0.001</text>
<text text-anchor="start" x="437" y="-22.8" font-family="Helvetica,sans-Serif" font-size="14.00" fill="#000000">samples = 5</text>
<text text-anchor="start" x="429.5" y="-7.8" font-family="Helvetica,sans-Serif" font-size="14.00" fill="#000000">value = &#45;0.067</text>
</g>
<!-- 5&#45;&gt;7 -->
<g id="edge7" class="edge">
<title>5&#45;&gt;7</title>
<path fill="none" stroke="#000000" d="M435.8845,-88.9777C442.58,-80.0039 449.8135,-70.3089 456.539,-61.295"/>
<polygon fill="#000000" stroke="#000000" points="459.3677,-63.3565 462.5426,-53.2485 453.7573,-59.1704 459.3677,-63.3565"/>
</g>
<!-- 9 -->
<g id="node10" class="node">
<title>9</title>
<path fill="#f4c9aa" stroke="#000000" d="M737.5,-157C737.5,-157 639.5,-157 639.5,-157 633.5,-157 627.5,-151 627.5,-145 627.5,-145 627.5,-101 627.5,-101 627.5,-95 633.5,-89 639.5,-89 639.5,-89 737.5,-89 737.5,-89 743.5,-89 749.5,-95 749.5,-101 749.5,-101 749.5,-145 749.5,-145 749.5,-151 743.5,-157 737.5,-157"/>
<text text-anchor="start" x="648" y="-141.8" font-family="Helvetica,sans-Serif" font-size="14.00" fill="#000000">X2 ≤ 0.348</text>
<text text-anchor="start" x="642" y="-126.8" font-family="Helvetica,sans-Serif" font-size="14.00" fill="#000000">mse = 0.014</text>
<text text-anchor="start" x="638.5" y="-111.8" font-family="Helvetica,sans-Serif" font-size="14.00" fill="#000000">samples = 98</text>
<text text-anchor="start" x="635.5" y="-96.8" font-family="Helvetica,sans-Serif" font-size="14.00" fill="#000000">value = &#45;0.053</text>
</g>
<!-- 8&#45;&gt;9 -->
<g id="edge9" class="edge">
<title>8&#45;&gt;9</title>
<path fill="none" stroke="#000000" d="M688.5,-192.9465C688.5,-184.776 688.5,-175.9318 688.5,-167.3697"/>
<polygon fill="#000000" stroke="#000000" points="692.0001,-167.13 688.5,-157.13 685.0001,-167.13 692.0001,-167.13"/>
</g>
<!-- 12 -->
<g id="node13" class="node">
<title>12</title>
<path fill="#fcf2ea" stroke="#000000" d="M949,-157C949,-157 848,-157 848,-157 842,-157 836,-151 836,-145 836,-145 836,-101 836,-101 836,-95 842,-89 848,-89 848,-89 949,-89 949,-89 955,-89 961,-95 961,-101 961,-101 961,-145 961,-145 961,-151 955,-157 949,-157"/>
<text text-anchor="start" x="858" y="-141.8" font-family="Helvetica,sans-Serif" font-size="14.00" fill="#000000">X2 ≤ 0.325</text>
<text text-anchor="start" x="852" y="-126.8" font-family="Helvetica,sans-Serif" font-size="14.00" fill="#000000">mse = 0.015</text>
<text text-anchor="start" x="844" y="-111.8" font-family="Helvetica,sans-Serif" font-size="14.00" fill="#000000">samples = 268</text>
<text text-anchor="start" x="845.5" y="-96.8" font-family="Helvetica,sans-Serif" font-size="14.00" fill="#000000">value = &#45;0.179</text>
</g>
<!-- 8&#45;&gt;12 -->
<g id="edge12" class="edge">
<title>8&#45;&gt;12</title>
<path fill="none" stroke="#000000" d="M751.2225,-195.9374C774.9066,-184.2081 802.036,-170.7727 826.5037,-158.6553"/>
<polygon fill="#000000" stroke="#000000" points="828.3301,-161.6566 835.7381,-154.0821 825.2235,-155.3837 828.3301,-161.6566"/>
</g>
<!-- 10 -->
<g id="node11" class="node">
<title>10</title>
<path fill="#f0b78e" stroke="#000000" d="M667,-53C667,-53 574,-53 574,-53 568,-53 562,-47 562,-41 562,-41 562,-12 562,-12 562,-6 568,0 574,0 574,0 667,0 667,0 673,0 679,-6 679,-12 679,-12 679,-41 679,-41 679,-47 673,-53 667,-53"/>
<text text-anchor="start" x="578.5" y="-37.8" font-family="Helvetica,sans-Serif" font-size="14.00" fill="#000000">mse = 0.01</text>
<text text-anchor="start" x="570.5" y="-22.8" font-family="Helvetica,sans-Serif" font-size="14.00" fill="#000000">samples = 33</text>
<text text-anchor="start" x="570" y="-7.8" font-family="Helvetica,sans-Serif" font-size="14.00" fill="#000000">value = 0.003</text>
</g>
<!-- 9&#45;&gt;10 -->
<g id="edge10" class="edge">
<title>9&#45;&gt;10</title>
<path fill="none" stroke="#000000" d="M664.5257,-88.9777C658.2667,-80.0954 651.5099,-70.5067 645.2133,-61.5711"/>
<polygon fill="#000000" stroke="#000000" points="647.9699,-59.4068 639.3487,-53.2485 642.2479,-63.4389 647.9699,-59.4068"/>
</g>
<!-- 11 -->
<g id="node12" class="node">
<title>11</title>
<path fill="#f6d2b8" stroke="#000000" d="M807.5,-53C807.5,-53 709.5,-53 709.5,-53 703.5,-53 697.5,-47 697.5,-41 697.5,-41 697.5,-12 697.5,-12 697.5,-6 703.5,0 709.5,0 709.5,0 807.5,0 807.5,0 813.5,0 819.5,-6 819.5,-12 819.5,-12 819.5,-41 819.5,-41 819.5,-47 813.5,-53 807.5,-53"/>
<text text-anchor="start" x="712" y="-37.8" font-family="Helvetica,sans-Serif" font-size="14.00" fill="#000000">mse = 0.013</text>
<text text-anchor="start" x="708.5" y="-22.8" font-family="Helvetica,sans-Serif" font-size="14.00" fill="#000000">samples = 65</text>
<text text-anchor="start" x="705.5" y="-7.8" font-family="Helvetica,sans-Serif" font-size="14.00" fill="#000000">value = &#45;0.081</text>
</g>
<!-- 9&#45;&gt;11 -->
<g id="edge11" class="edge">
<title>9&#45;&gt;11</title>
<path fill="none" stroke="#000000" d="M713.1794,-88.9777C719.6225,-80.0954 726.578,-70.5067 733.0598,-61.5711"/>
<polygon fill="#000000" stroke="#000000" points="736.0583,-63.3982 739.097,-53.2485 730.3921,-59.288 736.0583,-63.3982"/>
</g>
<!-- 13 -->
<g id="node14" class="node">
<title>13</title>
<path fill="#f6d4bb" stroke="#000000" d="M947.5,-53C947.5,-53 849.5,-53 849.5,-53 843.5,-53 837.5,-47 837.5,-41 837.5,-41 837.5,-12 837.5,-12 837.5,-6 843.5,0 849.5,0 849.5,0 947.5,0 947.5,0 953.5,0 959.5,-6 959.5,-12 959.5,-12 959.5,-41 959.5,-41 959.5,-47 953.5,-53 947.5,-53"/>
<text text-anchor="start" x="852" y="-37.8" font-family="Helvetica,sans-Serif" font-size="14.00" fill="#000000">mse = 0.011</text>
<text text-anchor="start" x="848.5" y="-22.8" font-family="Helvetica,sans-Serif" font-size="14.00" fill="#000000">samples = 82</text>
<text text-anchor="start" x="845.5" y="-7.8" font-family="Helvetica,sans-Serif" font-size="14.00" fill="#000000">value = &#45;0.086</text>
</g>
<!-- 12&#45;&gt;13 -->
<g id="edge13" class="edge">
<title>12&#45;&gt;13</title>
<path fill="none" stroke="#000000" d="M898.5,-88.9777C898.5,-80.7364 898.5,-71.887 898.5,-63.5153"/>
<polygon fill="#000000" stroke="#000000" points="902.0001,-63.2484 898.5,-53.2485 895.0001,-63.2485 902.0001,-63.2484"/>
</g>
<!-- 14 -->
<g id="node15" class="node">
<title>14</title>
<path fill="#ffffff" stroke="#000000" d="M1091,-53C1091,-53 990,-53 990,-53 984,-53 978,-47 978,-41 978,-41 978,-12 978,-12 978,-6 984,0 990,0 990,0 1091,0 1091,0 1097,0 1103,-6 1103,-12 1103,-12 1103,-41 1103,-41 1103,-47 1097,-53 1091,-53"/>
<text text-anchor="start" x="994" y="-37.8" font-family="Helvetica,sans-Serif" font-size="14.00" fill="#000000">mse = 0.011</text>
<text text-anchor="start" x="986" y="-22.8" font-family="Helvetica,sans-Serif" font-size="14.00" fill="#000000">samples = 186</text>
<text text-anchor="start" x="992" y="-7.8" font-family="Helvetica,sans-Serif" font-size="14.00" fill="#000000">value = &#45;0.22</text>
</g>
<!-- 12&#45;&gt;14 -->
<g id="edge14" class="edge">
<title>12&#45;&gt;14</title>
<path fill="none" stroke="#000000" d="M948.5639,-88.9777C962.8469,-79.2713 978.3713,-68.7213 992.5263,-59.1018"/>
<polygon fill="#000000" stroke="#000000" points="994.8359,-61.764 1001.1395,-53.2485 990.9014,-55.9744 994.8359,-61.764"/>
</g>
</g>
</svg>
