<?xml version="1.0" encoding="UTF-8" standalone="no"?>
<!DOCTYPE svg PUBLIC "-//W3C//DTD SVG 1.1//EN"
 "http://www.w3.org/Graphics/SVG/1.1/DTD/svg11.dtd">
<!-- Generated by graphviz version 2.40.1 (20161225.0304)
 -->
<!-- Title: Tree Pages: 1 -->
<svg width="1108pt" height="373pt"
 viewBox="0.00 0.00 1107.50 373.00" xmlns="http://www.w3.org/2000/svg" xmlns:xlink="http://www.w3.org/1999/xlink">
<g id="graph0" class="graph" transform="scale(1 1) rotate(0) translate(4 369)">
<title>Tree</title>
<polygon fill="#ffffff" stroke="transparent" points="-4,4 -4,-369 1103.5,-369 1103.5,4 -4,4"/>
<!-- 0 -->
<g id="node1" class="node">
<title>0</title>
<path fill="#f0b489" stroke="#000000" d="M603,-365C603,-365 493,-365 493,-365 487,-365 481,-359 481,-353 481,-353 481,-309 481,-309 481,-303 487,-297 493,-297 493,-297 603,-297 603,-297 609,-297 615,-303 615,-309 615,-309 615,-353 615,-353 615,-359 609,-365 603,-365"/>
<text text-anchor="start" x="512" y="-349.8" font-family="Helvetica,sans-Serif" font-size="14.00" fill="#000000">X1 ≤ 0.63</text>
<text text-anchor="start" x="501.5" y="-334.8" font-family="Helvetica,sans-Serif" font-size="14.00" fill="#000000">mse = 0.036</text>
<text text-anchor="start" x="489" y="-319.8" font-family="Helvetica,sans-Serif" font-size="14.00" fill="#000000">samples = 1000</text>
<text text-anchor="start" x="497.5" y="-304.8" font-family="Helvetica,sans-Serif" font-size="14.00" fill="#000000">value = 0.021</text>
</g>
<!-- 1 -->
<g id="node2" class="node">
<title>1</title>
<path fill="#e99254" stroke="#000000" d="M461.5,-261C461.5,-261 360.5,-261 360.5,-261 354.5,-261 348.5,-255 348.5,-249 348.5,-249 348.5,-205 348.5,-205 348.5,-199 354.5,-193 360.5,-193 360.5,-193 461.5,-193 461.5,-193 467.5,-193 473.5,-199 473.5,-205 473.5,-205 473.5,-249 473.5,-249 473.5,-255 467.5,-261 461.5,-261"/>
<text text-anchor="start" x="370.5" y="-245.8" font-family="Helvetica,sans-Serif" font-size="14.00" fill="#000000">X2 ≤ 0.315</text>
<text text-anchor="start" x="364.5" y="-230.8" font-family="Helvetica,sans-Serif" font-size="14.00" fill="#000000">mse = 0.018</text>
<text text-anchor="start" x="356.5" y="-215.8" font-family="Helvetica,sans-Serif" font-size="14.00" fill="#000000">samples = 612</text>
<text text-anchor="start" x="365" y="-200.8" font-family="Helvetica,sans-Serif" font-size="14.00" fill="#000000">value = 0.13</text>
</g>
<!-- 0&#45;&gt;1 -->
<g id="edge1" class="edge">
<title>0&#45;&gt;1</title>
<path fill="none" stroke="#000000" d="M503.1411,-296.9465C490.7222,-287.519 477.1217,-277.1946 464.2739,-267.4415"/>
<polygon fill="#000000" stroke="#000000" points="466.041,-264.3887 455.9597,-261.13 461.8085,-269.9642 466.041,-264.3887"/>
<text text-anchor="middle" x="459.3513" y="-282.1989" font-family="Helvetica,sans-Serif" font-size="14.00" fill="#000000">True</text>
</g>
<!-- 8 -->
<g id="node9" class="node">
<title>8</title>
<path fill="#fbe9dd" stroke="#000000" d="M736.5,-261C736.5,-261 635.5,-261 635.5,-261 629.5,-261 623.5,-255 623.5,-249 623.5,-249 623.5,-205 623.5,-205 623.5,-199 629.5,-193 635.5,-193 635.5,-193 736.5,-193 736.5,-193 742.5,-193 748.5,-199 748.5,-205 748.5,-205 748.5,-249 748.5,-249 748.5,-255 742.5,-261 736.5,-261"/>
<text text-anchor="start" x="645.5" y="-245.8" font-family="Helvetica,sans-Serif" font-size="14.00" fill="#000000">X1 ≤ 0.709</text>
<text text-anchor="start" x="639.5" y="-230.8" font-family="Helvetica,sans-Serif" font-size="14.00" fill="#000000">mse = 0.018</text>
<text text-anchor="start" x="631.5" y="-215.8" font-family="Helvetica,sans-Serif" font-size="14.00" fill="#000000">samples = 388</text>
<text text-anchor="start" x="633" y="-200.8" font-family="Helvetica,sans-Serif" font-size="14.00" fill="#000000">value = &#45;0.149</text>
</g>
<!-- 0&#45;&gt;8 -->
<g id="edge8" class="edge">
<title>0&#45;&gt;8</title>
<path fill="none" stroke="#000000" d="M593.1864,-296.9465C605.815,-287.4293 619.6567,-276.9978 632.7068,-267.163"/>
<polygon fill="#000000" stroke="#000000" points="634.8325,-269.9437 640.7121,-261.13 630.6195,-264.3534 634.8325,-269.9437"/>
<text text-anchor="middle" x="637.2339" y="-282.1869" font-family="Helvetica,sans-Serif" font-size="14.00" fill="#000000">False</text>
</g>
<!-- 2 -->
<g id="node3" class="node">
<title>2</title>
<path fill="#eda876" stroke="#000000" d="M253.5,-157C253.5,-157 152.5,-157 152.5,-157 146.5,-157 140.5,-151 140.5,-145 140.5,-145 140.5,-101 140.5,-101 140.5,-95 146.5,-89 152.5,-89 152.5,-89 253.5,-89 253.5,-89 259.5,-89 265.5,-95 265.5,-101 265.5,-101 265.5,-145 265.5,-145 265.5,-151 259.5,-157 253.5,-157"/>
<text text-anchor="start" x="162.5" y="-141.8" font-family="Helvetica,sans-Serif" font-size="14.00" fill="#000000">X1 ≤ 0.106</text>
<text text-anchor="start" x="156.5" y="-126.8" font-family="Helvetica,sans-Serif" font-size="14.00" fill="#000000">mse = 0.014</text>
<text text-anchor="start" x="148.5" y="-111.8" font-family="Helvetica,sans-Serif" font-size="14.00" fill="#000000">samples = 208</text>
<text text-anchor="start" x="152.5" y="-96.8" font-family="Helvetica,sans-Serif" font-size="14.00" fill="#000000">value = 0.061</text>
</g>
<!-- 1&#45;&gt;2 -->
<g id="edge2" class="edge">
<title>1&#45;&gt;2</title>
<path fill="none" stroke="#000000" d="M348.3111,-195.6555C325.0824,-184.0412 298.5706,-170.7853 274.6076,-158.8038"/>
<polygon fill="#000000" stroke="#000000" points="276.0701,-155.622 265.5605,-154.2803 272.9395,-161.883 276.0701,-155.622"/>
</g>
<!-- 5 -->
<g id="node6" class="node">
<title>5</title>
<path fill="#e68743" stroke="#000000" d="M461.5,-157C461.5,-157 360.5,-157 360.5,-157 354.5,-157 348.5,-151 348.5,-145 348.5,-145 348.5,-101 348.5,-101 348.5,-95 354.5,-89 360.5,-89 360.5,-89 461.5,-89 461.5,-89 467.5,-89 473.5,-95 473.5,-101 473.5,-101 473.5,-145 473.5,-145 473.5,-151 467.5,-157 461.5,-157"/>
<text text-anchor="start" x="370.5" y="-141.8" font-family="Helvetica,sans-Serif" font-size="14.00" fill="#000000">X1 ≤ 0.103</text>
<text text-anchor="start" x="364.5" y="-126.8" font-family="Helvetica,sans-Serif" font-size="14.00" fill="#000000">mse = 0.016</text>
<text text-anchor="start" x="356.5" y="-111.8" font-family="Helvetica,sans-Serif" font-size="14.00" fill="#000000">samples = 404</text>
<text text-anchor="start" x="360.5" y="-96.8" font-family="Helvetica,sans-Serif" font-size="14.00" fill="#000000">value = 0.165</text>
</g>
<!-- 1&#45;&gt;5 -->
<g id="edge5" class="edge">
<title>1&#45;&gt;5</title>
<path fill="none" stroke="#000000" d="M411,-192.9465C411,-184.776 411,-175.9318 411,-167.3697"/>
<polygon fill="#000000" stroke="#000000" points="414.5001,-167.13 411,-157.13 407.5001,-167.13 414.5001,-167.13"/>
</g>
<!-- 3 -->
<g id="node4" class="node">
<title>3</title>
<path fill="#f2bf9a" stroke="#000000" d="M110,-53C110,-53 12,-53 12,-53 6,-53 0,-47 0,-41 0,-41 0,-12 0,-12 0,-6 6,0 12,0 12,0 110,0 110,0 116,0 122,-6 122,-12 122,-12 122,-41 122,-41 122,-47 116,-53 110,-53"/>
<text text-anchor="start" x="14.5" y="-37.8" font-family="Helvetica,sans-Serif" font-size="14.00" fill="#000000">mse = 0.009</text>
<text text-anchor="start" x="11" y="-22.8" font-family="Helvetica,sans-Serif" font-size="14.00" fill="#000000">samples = 40</text>
<text text-anchor="start" x="8" y="-7.8" font-family="Helvetica,sans-Serif" font-size="14.00" fill="#000000">value = &#45;0.012</text>
</g>
<!-- 2&#45;&gt;3 -->
<g id="edge3" class="edge">
<title>2&#45;&gt;3</title>
<path fill="none" stroke="#000000" d="M152.9361,-88.9777C138.6531,-79.2713 123.1287,-68.7213 108.9737,-59.1018"/>
<polygon fill="#000000" stroke="#000000" points="110.5986,-55.9744 100.3605,-53.2485 106.6641,-61.764 110.5986,-55.9744"/>
</g>
<!-- 4 -->
<g id="node5" class="node">
<title>4</title>
<path fill="#eca26d" stroke="#000000" d="M253.5,-53C253.5,-53 152.5,-53 152.5,-53 146.5,-53 140.5,-47 140.5,-41 140.5,-41 140.5,-12 140.5,-12 140.5,-6 146.5,0 152.5,0 152.5,0 253.5,0 253.5,0 259.5,0 265.5,-6 265.5,-12 265.5,-12 265.5,-41 265.5,-41 265.5,-47 259.5,-53 253.5,-53"/>
<text text-anchor="start" x="156.5" y="-37.8" font-family="Helvetica,sans-Serif" font-size="14.00" fill="#000000">mse = 0.014</text>
<text text-anchor="start" x="148.5" y="-22.8" font-family="Helvetica,sans-Serif" font-size="14.00" fill="#000000">samples = 168</text>
<text text-anchor="start" x="152.5" y="-7.8" font-family="Helvetica,sans-Serif" font-size="14.00" fill="#000000">value = 0.079</text>
</g>
<!-- 2&#45;&gt;4 -->
<g id="edge4" class="edge">
<title>2&#45;&gt;4</title>
<path fill="none" stroke="#000000" d="M203,-88.9777C203,-80.7364 203,-71.887 203,-63.5153"/>
<polygon fill="#000000" stroke="#000000" points="206.5001,-63.2484 203,-53.2485 199.5001,-63.2485 206.5001,-63.2484"/>
</g>
<!-- 6 -->
<g id="node7" class="node">
<title>6</title>
<path fill="#eda775" stroke="#000000" d="M388.5,-53C388.5,-53 295.5,-53 295.5,-53 289.5,-53 283.5,-47 283.5,-41 283.5,-41 283.5,-12 283.5,-12 283.5,-6 289.5,0 295.5,0 295.5,0 388.5,0 388.5,0 394.5,0 400.5,-6 400.5,-12 400.5,-12 400.5,-41 400.5,-41 400.5,-47 394.5,-53 388.5,-53"/>
<text text-anchor="start" x="295.5" y="-37.8" font-family="Helvetica,sans-Serif" font-size="14.00" fill="#000000">mse = 0.012</text>
<text text-anchor="start" x="292" y="-22.8" font-family="Helvetica,sans-Serif" font-size="14.00" fill="#000000">samples = 69</text>
<text text-anchor="start" x="291.5" y="-7.8" font-family="Helvetica,sans-Serif" font-size="14.00" fill="#000000">value = 0.064</text>
</g>
<!-- 5&#45;&gt;6 -->
<g id="edge6" class="edge">
<title>5&#45;&gt;6</title>
<path fill="none" stroke="#000000" d="M386.6732,-88.9777C380.3221,-80.0954 373.466,-70.5067 367.0768,-61.5711"/>
<polygon fill="#000000" stroke="#000000" points="369.7893,-59.3472 361.1259,-53.2485 364.0952,-63.4187 369.7893,-59.3472"/>
</g>
<!-- 7 -->
<g id="node8" class="node">
<title>7</title>
<path fill="#e58139" stroke="#000000" d="M531.5,-53C531.5,-53 430.5,-53 430.5,-53 424.5,-53 418.5,-47 418.5,-41 418.5,-41 418.5,-12 418.5,-12 418.5,-6 424.5,0 430.5,0 430.5,0 531.5,0 531.5,0 537.5,0 543.5,-6 543.5,-12 543.5,-12 543.5,-41 543.5,-41 543.5,-47 537.5,-53 531.5,-53"/>
<text text-anchor="start" x="434.5" y="-37.8" font-family="Helvetica,sans-Serif" font-size="14.00" fill="#000000">mse = 0.014</text>
<text text-anchor="start" x="426.5" y="-22.8" font-family="Helvetica,sans-Serif" font-size="14.00" fill="#000000">samples = 335</text>
<text text-anchor="start" x="430.5" y="-7.8" font-family="Helvetica,sans-Serif" font-size="14.00" fill="#000000">value = 0.186</text>
</g>
<!-- 5&#45;&gt;7 -->
<g id="edge7" class="edge">
<title>5&#45;&gt;7</title>
<path fill="none" stroke="#000000" d="M435.6794,-88.9777C442.1225,-80.0954 449.078,-70.5067 455.5598,-61.5711"/>
<polygon fill="#000000" stroke="#000000" points="458.5583,-63.3982 461.597,-53.2485 452.8921,-59.288 458.5583,-63.3982"/>
</g>
<!-- 9 -->
<g id="node10" class="node">
<title>9</title>
<path fill="#f2c2a0" stroke="#000000" d="M735,-157C735,-157 637,-157 637,-157 631,-157 625,-151 625,-145 625,-145 625,-101 625,-101 625,-95 631,-89 637,-89 637,-89 735,-89 735,-89 741,-89 747,-95 747,-101 747,-101 747,-145 747,-145 747,-151 741,-157 735,-157"/>
<text text-anchor="start" x="645.5" y="-141.8" font-family="Helvetica,sans-Serif" font-size="14.00" fill="#000000">X2 ≤ 0.037</text>
<text text-anchor="start" x="639.5" y="-126.8" font-family="Helvetica,sans-Serif" font-size="14.00" fill="#000000">mse = 0.013</text>
<text text-anchor="start" x="636" y="-111.8" font-family="Helvetica,sans-Serif" font-size="14.00" fill="#000000">samples = 68</text>
<text text-anchor="start" x="633" y="-96.8" font-family="Helvetica,sans-Serif" font-size="14.00" fill="#000000">value = &#45;0.024</text>
</g>
<!-- 8&#45;&gt;9 -->
<g id="edge9" class="edge">
<title>8&#45;&gt;9</title>
<path fill="none" stroke="#000000" d="M686,-192.9465C686,-184.776 686,-175.9318 686,-167.3697"/>
<polygon fill="#000000" stroke="#000000" points="689.5001,-167.13 686,-157.13 682.5001,-167.13 689.5001,-167.13"/>
</g>
<!-- 12 -->
<g id="node13" class="node">
<title>12</title>
<path fill="#fcf2ea" stroke="#000000" d="M944.5,-157C944.5,-157 843.5,-157 843.5,-157 837.5,-157 831.5,-151 831.5,-145 831.5,-145 831.5,-101 831.5,-101 831.5,-95 837.5,-89 843.5,-89 843.5,-89 944.5,-89 944.5,-89 950.5,-89 956.5,-95 956.5,-101 956.5,-101 956.5,-145 956.5,-145 956.5,-151 950.5,-157 944.5,-157"/>
<text text-anchor="start" x="853.5" y="-141.8" font-family="Helvetica,sans-Serif" font-size="14.00" fill="#000000">X2 ≤ 0.318</text>
<text text-anchor="start" x="847.5" y="-126.8" font-family="Helvetica,sans-Serif" font-size="14.00" fill="#000000">mse = 0.015</text>
<text text-anchor="start" x="839.5" y="-111.8" font-family="Helvetica,sans-Serif" font-size="14.00" fill="#000000">samples = 320</text>
<text text-anchor="start" x="841" y="-96.8" font-family="Helvetica,sans-Serif" font-size="14.00" fill="#000000">value = &#45;0.176</text>
</g>
<!-- 8&#45;&gt;12 -->
<g id="edge12" class="edge">
<title>8&#45;&gt;12</title>
<path fill="none" stroke="#000000" d="M748.6889,-195.6555C771.9176,-184.0412 798.4294,-170.7853 822.3924,-158.8038"/>
<polygon fill="#000000" stroke="#000000" points="824.0605,-161.883 831.4395,-154.2803 820.9299,-155.622 824.0605,-161.883"/>
</g>
<!-- 10 -->
<g id="node11" class="node">
<title>10</title>
<path fill="#eda979" stroke="#000000" d="M666.5,-53C666.5,-53 573.5,-53 573.5,-53 567.5,-53 561.5,-47 561.5,-41 561.5,-41 561.5,-12 561.5,-12 561.5,-6 567.5,0 573.5,0 573.5,0 666.5,0 666.5,0 672.5,0 678.5,-6 678.5,-12 678.5,-12 678.5,-41 678.5,-41 678.5,-47 672.5,-53 666.5,-53"/>
<text text-anchor="start" x="573.5" y="-37.8" font-family="Helvetica,sans-Serif" font-size="14.00" fill="#000000">mse = 0.004</text>
<text text-anchor="start" x="574.5" y="-22.8" font-family="Helvetica,sans-Serif" font-size="14.00" fill="#000000">samples = 5</text>
<text text-anchor="start" x="569.5" y="-7.8" font-family="Helvetica,sans-Serif" font-size="14.00" fill="#000000">value = 0.056</text>
</g>
<!-- 9&#45;&gt;10 -->
<g id="edge10" class="edge">
<title>9&#45;&gt;10</title>
<path fill="none" stroke="#000000" d="M662.7309,-88.9777C656.656,-80.0954 650.0979,-70.5067 643.9865,-61.5711"/>
<polygon fill="#000000" stroke="#000000" points="646.8286,-59.5267 638.2943,-53.2485 641.0507,-63.4785 646.8286,-59.5267"/>
</g>
<!-- 11 -->
<g id="node12" class="node">
<title>11</title>
<path fill="#f3c4a3" stroke="#000000" d="M801,-53C801,-53 709,-53 709,-53 703,-53 697,-47 697,-41 697,-41 697,-12 697,-12 697,-6 703,0 709,0 709,0 801,0 801,0 807,0 813,-6 813,-12 813,-12 813,-41 813,-41 813,-47 807,-53 801,-53"/>
<text text-anchor="start" x="708.5" y="-37.8" font-family="Helvetica,sans-Serif" font-size="14.00" fill="#000000">mse = 0.013</text>
<text text-anchor="start" x="705" y="-22.8" font-family="Helvetica,sans-Serif" font-size="14.00" fill="#000000">samples = 63</text>
<text text-anchor="start" x="706.5" y="-7.8" font-family="Helvetica,sans-Serif" font-size="14.00" fill="#000000">value = &#45;0.03</text>
</g>
<!-- 9&#45;&gt;11 -->
<g id="edge11" class="edge">
<title>9&#45;&gt;11</title>
<path fill="none" stroke="#000000" d="M710.3268,-88.9777C716.6779,-80.0954 723.534,-70.5067 729.9232,-61.5711"/>
<polygon fill="#000000" stroke="#000000" points="732.9048,-63.4187 735.8741,-53.2485 727.2107,-59.3472 732.9048,-63.4187"/>
</g>
<!-- 13 -->
<g id="node14" class="node">
<title>13</title>
<path fill="#f6d6be" stroke="#000000" d="M944.5,-53C944.5,-53 843.5,-53 843.5,-53 837.5,-53 831.5,-47 831.5,-41 831.5,-41 831.5,-12 831.5,-12 831.5,-6 837.5,0 843.5,0 843.5,0 944.5,0 944.5,0 950.5,0 956.5,-6 956.5,-12 956.5,-12 956.5,-41 956.5,-41 956.5,-47 950.5,-53 944.5,-53"/>
<text text-anchor="start" x="847.5" y="-37.8" font-family="Helvetica,sans-Serif" font-size="14.00" fill="#000000">mse = 0.012</text>
<text text-anchor="start" x="839.5" y="-22.8" font-family="Helvetica,sans-Serif" font-size="14.00" fill="#000000">samples = 104</text>
<text text-anchor="start" x="841" y="-7.8" font-family="Helvetica,sans-Serif" font-size="14.00" fill="#000000">value = &#45;0.086</text>
</g>
<!-- 12&#45;&gt;13 -->
<g id="edge13" class="edge">
<title>12&#45;&gt;13</title>
<path fill="none" stroke="#000000" d="M894,-88.9777C894,-80.7364 894,-71.887 894,-63.5153"/>
<polygon fill="#000000" stroke="#000000" points="897.5001,-63.2484 894,-53.2485 890.5001,-63.2485 897.5001,-63.2484"/>
</g>
<!-- 14 -->
<g id="node15" class="node">
<title>14</title>
<path fill="#ffffff" stroke="#000000" d="M1087.5,-53C1087.5,-53 986.5,-53 986.5,-53 980.5,-53 974.5,-47 974.5,-41 974.5,-41 974.5,-12 974.5,-12 974.5,-6 980.5,0 986.5,0 986.5,0 1087.5,0 1087.5,0 1093.5,0 1099.5,-6 1099.5,-12 1099.5,-12 1099.5,-41 1099.5,-41 1099.5,-47 1093.5,-53 1087.5,-53"/>
<text text-anchor="start" x="990.5" y="-37.8" font-family="Helvetica,sans-Serif" font-size="14.00" fill="#000000">mse = 0.011</text>
<text text-anchor="start" x="982.5" y="-22.8" font-family="Helvetica,sans-Serif" font-size="14.00" fill="#000000">samples = 216</text>
<text text-anchor="start" x="984" y="-7.8" font-family="Helvetica,sans-Serif" font-size="14.00" fill="#000000">value = &#45;0.219</text>
</g>
<!-- 12&#45;&gt;14 -->
<g id="edge14" class="edge">
<title>12&#45;&gt;14</title>
<path fill="none" stroke="#000000" d="M944.4165,-88.9777C958.8,-79.2713 974.4337,-68.7213 988.6885,-59.1018"/>
<polygon fill="#000000" stroke="#000000" points="991.031,-61.7435 997.3624,-53.2485 987.1154,-55.941 991.031,-61.7435"/>
</g>
</g>
</svg>
