<?xml version="1.0" encoding="UTF-8" standalone="no"?>
<!DOCTYPE svg PUBLIC "-//W3C//DTD SVG 1.1//EN"
 "http://www.w3.org/Graphics/SVG/1.1/DTD/svg11.dtd">
<!-- Generated by graphviz version 2.40.1 (20161225.0304)
 -->
<!-- Title: Tree Pages: 1 -->
<svg width="1122pt" height="373pt"
 viewBox="0.00 0.00 1122.00 373.00" xmlns="http://www.w3.org/2000/svg" xmlns:xlink="http://www.w3.org/1999/xlink">
<g id="graph0" class="graph" transform="scale(1 1) rotate(0) translate(4 369)">
<title>Tree</title>
<polygon fill="#ffffff" stroke="transparent" points="-4,4 -4,-369 1118,-369 1118,4 -4,4"/>
<!-- 0 -->
<g id="node1" class="node">
<title>0</title>
<path fill="#eeae7f" stroke="#000000" d="M611.5,-365C611.5,-365 501.5,-365 501.5,-365 495.5,-365 489.5,-359 489.5,-353 489.5,-353 489.5,-309 489.5,-309 489.5,-303 495.5,-297 501.5,-297 501.5,-297 611.5,-297 611.5,-297 617.5,-297 623.5,-303 623.5,-309 623.5,-309 623.5,-353 623.5,-353 623.5,-359 617.5,-365 611.5,-365"/>
<text text-anchor="start" x="516" y="-349.8" font-family="Helvetica,sans-Serif" font-size="14.00" fill="#000000">X1 ≤ 0.672</text>
<text text-anchor="start" x="510" y="-334.8" font-family="Helvetica,sans-Serif" font-size="14.00" fill="#000000">mse = 0.035</text>
<text text-anchor="start" x="497.5" y="-319.8" font-family="Helvetica,sans-Serif" font-size="14.00" fill="#000000">samples = 1000</text>
<text text-anchor="start" x="506" y="-304.8" font-family="Helvetica,sans-Serif" font-size="14.00" fill="#000000">value = 0.034</text>
</g>
<!-- 1 -->
<g id="node2" class="node">
<title>1</title>
<path fill="#e99355" stroke="#000000" d="M467,-261C467,-261 366,-261 366,-261 360,-261 354,-255 354,-249 354,-249 354,-205 354,-205 354,-199 360,-193 366,-193 366,-193 467,-193 467,-193 473,-193 479,-199 479,-205 479,-205 479,-249 479,-249 479,-255 473,-261 467,-261"/>
<text text-anchor="start" x="376" y="-245.8" font-family="Helvetica,sans-Serif" font-size="14.00" fill="#000000">X1 ≤ 0.534</text>
<text text-anchor="start" x="370" y="-230.8" font-family="Helvetica,sans-Serif" font-size="14.00" fill="#000000">mse = 0.018</text>
<text text-anchor="start" x="362" y="-215.8" font-family="Helvetica,sans-Serif" font-size="14.00" fill="#000000">samples = 686</text>
<text text-anchor="start" x="366" y="-200.8" font-family="Helvetica,sans-Serif" font-size="14.00" fill="#000000">value = 0.124</text>
</g>
<!-- 0&#45;&gt;1 -->
<g id="edge1" class="edge">
<title>0&#45;&gt;1</title>
<path fill="none" stroke="#000000" d="M510.6588,-296.9465C497.8471,-287.4293 483.8048,-276.9978 470.5656,-267.163"/>
<polygon fill="#000000" stroke="#000000" points="472.5588,-264.2837 462.4442,-261.13 468.3845,-269.9029 472.5588,-264.2837"/>
<text text-anchor="middle" x="466.0932" y="-282.1623" font-family="Helvetica,sans-Serif" font-size="14.00" fill="#000000">True</text>
</g>
<!-- 8 -->
<g id="node9" class="node">
<title>8</title>
<path fill="#fae8dc" stroke="#000000" d="M748,-261C748,-261 647,-261 647,-261 641,-261 635,-255 635,-249 635,-249 635,-205 635,-205 635,-199 641,-193 647,-193 647,-193 748,-193 748,-193 754,-193 760,-199 760,-205 760,-205 760,-249 760,-249 760,-255 754,-261 748,-261"/>
<text text-anchor="start" x="657" y="-245.8" font-family="Helvetica,sans-Serif" font-size="14.00" fill="#000000">X1 ≤ 0.793</text>
<text text-anchor="start" x="651" y="-230.8" font-family="Helvetica,sans-Serif" font-size="14.00" fill="#000000">mse = 0.016</text>
<text text-anchor="start" x="643" y="-215.8" font-family="Helvetica,sans-Serif" font-size="14.00" fill="#000000">samples = 314</text>
<text text-anchor="start" x="644.5" y="-200.8" font-family="Helvetica,sans-Serif" font-size="14.00" fill="#000000">value = &#45;0.165</text>
</g>
<!-- 0&#45;&gt;8 -->
<g id="edge8" class="edge">
<title>0&#45;&gt;8</title>
<path fill="none" stroke="#000000" d="M602.6687,-296.9465C615.5719,-287.4293 629.7145,-276.9978 643.0483,-267.163"/>
<polygon fill="#000000" stroke="#000000" points="645.2575,-269.8826 651.2276,-261.13 641.1023,-264.2492 645.2575,-269.8826"/>
<text text-anchor="middle" x="647.4944" y="-282.1497" font-family="Helvetica,sans-Serif" font-size="14.00" fill="#000000">False</text>
</g>
<!-- 2 -->
<g id="node3" class="node">
<title>2</title>
<path fill="#e78b49" stroke="#000000" d="M256,-157C256,-157 155,-157 155,-157 149,-157 143,-151 143,-145 143,-145 143,-101 143,-101 143,-95 149,-89 155,-89 155,-89 256,-89 256,-89 262,-89 268,-95 268,-101 268,-101 268,-145 268,-145 268,-151 262,-157 256,-157"/>
<text text-anchor="start" x="165" y="-141.8" font-family="Helvetica,sans-Serif" font-size="14.00" fill="#000000">X1 ≤ 0.138</text>
<text text-anchor="start" x="159" y="-126.8" font-family="Helvetica,sans-Serif" font-size="14.00" fill="#000000">mse = 0.017</text>
<text text-anchor="start" x="151" y="-111.8" font-family="Helvetica,sans-Serif" font-size="14.00" fill="#000000">samples = 540</text>
<text text-anchor="start" x="155" y="-96.8" font-family="Helvetica,sans-Serif" font-size="14.00" fill="#000000">value = 0.151</text>
</g>
<!-- 1&#45;&gt;2 -->
<g id="edge2" class="edge">
<title>1&#45;&gt;2</title>
<path fill="none" stroke="#000000" d="M353.7643,-196.0782C329.7457,-184.2396 302.1674,-170.6465 277.3606,-158.4194"/>
<polygon fill="#000000" stroke="#000000" points="278.8753,-155.264 268.3583,-153.9823 275.7806,-161.5428 278.8753,-155.264"/>
</g>
<!-- 5 -->
<g id="node6" class="node">
<title>5</title>
<path fill="#efaf82" stroke="#000000" d="M467,-157C467,-157 366,-157 366,-157 360,-157 354,-151 354,-145 354,-145 354,-101 354,-101 354,-95 360,-89 366,-89 366,-89 467,-89 467,-89 473,-89 479,-95 479,-101 479,-101 479,-145 479,-145 479,-151 473,-157 467,-157"/>
<text text-anchor="start" x="376" y="-141.8" font-family="Helvetica,sans-Serif" font-size="14.00" fill="#000000">X1 ≤ 0.629</text>
<text text-anchor="start" x="370" y="-126.8" font-family="Helvetica,sans-Serif" font-size="14.00" fill="#000000">mse = 0.008</text>
<text text-anchor="start" x="362" y="-111.8" font-family="Helvetica,sans-Serif" font-size="14.00" fill="#000000">samples = 146</text>
<text text-anchor="start" x="366" y="-96.8" font-family="Helvetica,sans-Serif" font-size="14.00" fill="#000000">value = 0.028</text>
</g>
<!-- 1&#45;&gt;5 -->
<g id="edge5" class="edge">
<title>1&#45;&gt;5</title>
<path fill="none" stroke="#000000" d="M416.5,-192.9465C416.5,-184.776 416.5,-175.9318 416.5,-167.3697"/>
<polygon fill="#000000" stroke="#000000" points="420.0001,-167.13 416.5,-157.13 413.0001,-167.13 420.0001,-167.13"/>
</g>
<!-- 3 -->
<g id="node4" class="node">
<title>3</title>
<path fill="#eca572" stroke="#000000" d="M113,-53C113,-53 12,-53 12,-53 6,-53 0,-47 0,-41 0,-41 0,-12 0,-12 0,-6 6,0 12,0 12,0 113,0 113,0 119,0 125,-6 125,-12 125,-12 125,-41 125,-41 125,-47 119,-53 113,-53"/>
<text text-anchor="start" x="16" y="-37.8" font-family="Helvetica,sans-Serif" font-size="14.00" fill="#000000">mse = 0.012</text>
<text text-anchor="start" x="8" y="-22.8" font-family="Helvetica,sans-Serif" font-size="14.00" fill="#000000">samples = 152</text>
<text text-anchor="start" x="12" y="-7.8" font-family="Helvetica,sans-Serif" font-size="14.00" fill="#000000">value = 0.063</text>
</g>
<!-- 2&#45;&gt;3 -->
<g id="edge3" class="edge">
<title>2&#45;&gt;3</title>
<path fill="none" stroke="#000000" d="M155.0835,-88.9777C140.7,-79.2713 125.0663,-68.7213 110.8115,-59.1018"/>
<polygon fill="#000000" stroke="#000000" points="112.3846,-55.941 102.1376,-53.2485 108.469,-61.7435 112.3846,-55.941"/>
</g>
<!-- 4 -->
<g id="node5" class="node">
<title>4</title>
<path fill="#e58139" stroke="#000000" d="M256,-53C256,-53 155,-53 155,-53 149,-53 143,-47 143,-41 143,-41 143,-12 143,-12 143,-6 149,0 155,0 155,0 256,0 256,0 262,0 268,-6 268,-12 268,-12 268,-41 268,-41 268,-47 262,-53 256,-53"/>
<text text-anchor="start" x="159" y="-37.8" font-family="Helvetica,sans-Serif" font-size="14.00" fill="#000000">mse = 0.015</text>
<text text-anchor="start" x="151" y="-22.8" font-family="Helvetica,sans-Serif" font-size="14.00" fill="#000000">samples = 388</text>
<text text-anchor="start" x="155" y="-7.8" font-family="Helvetica,sans-Serif" font-size="14.00" fill="#000000">value = 0.185</text>
</g>
<!-- 2&#45;&gt;4 -->
<g id="edge4" class="edge">
<title>2&#45;&gt;4</title>
<path fill="none" stroke="#000000" d="M205.5,-88.9777C205.5,-80.7364 205.5,-71.887 205.5,-63.5153"/>
<polygon fill="#000000" stroke="#000000" points="209.0001,-63.2484 205.5,-53.2485 202.0001,-63.2485 209.0001,-63.2484"/>
</g>
<!-- 6 -->
<g id="node7" class="node">
<title>6</title>
<path fill="#eeab7b" stroke="#000000" d="M399,-53C399,-53 298,-53 298,-53 292,-53 286,-47 286,-41 286,-41 286,-12 286,-12 286,-6 292,0 298,0 298,0 399,0 399,0 405,0 411,-6 411,-12 411,-12 411,-41 411,-41 411,-47 405,-53 399,-53"/>
<text text-anchor="start" x="302" y="-37.8" font-family="Helvetica,sans-Serif" font-size="14.00" fill="#000000">mse = 0.007</text>
<text text-anchor="start" x="294" y="-22.8" font-family="Helvetica,sans-Serif" font-size="14.00" fill="#000000">samples = 107</text>
<text text-anchor="start" x="298" y="-7.8" font-family="Helvetica,sans-Serif" font-size="14.00" fill="#000000">value = 0.042</text>
</g>
<!-- 5&#45;&gt;6 -->
<g id="edge6" class="edge">
<title>5&#45;&gt;6</title>
<path fill="none" stroke="#000000" d="M392.5257,-88.9777C386.2667,-80.0954 379.5099,-70.5067 373.2133,-61.5711"/>
<polygon fill="#000000" stroke="#000000" points="375.9699,-59.4068 367.3487,-53.2485 370.2479,-63.4389 375.9699,-59.4068"/>
</g>
<!-- 7 -->
<g id="node8" class="node">
<title>7</title>
<path fill="#f1bb95" stroke="#000000" d="M539.5,-53C539.5,-53 441.5,-53 441.5,-53 435.5,-53 429.5,-47 429.5,-41 429.5,-41 429.5,-12 429.5,-12 429.5,-6 435.5,0 441.5,0 441.5,0 539.5,0 539.5,0 545.5,0 551.5,-6 551.5,-12 551.5,-12 551.5,-41 551.5,-41 551.5,-47 545.5,-53 539.5,-53"/>
<text text-anchor="start" x="444" y="-37.8" font-family="Helvetica,sans-Serif" font-size="14.00" fill="#000000">mse = 0.008</text>
<text text-anchor="start" x="440.5" y="-22.8" font-family="Helvetica,sans-Serif" font-size="14.00" fill="#000000">samples = 39</text>
<text text-anchor="start" x="437.5" y="-7.8" font-family="Helvetica,sans-Serif" font-size="14.00" fill="#000000">value = &#45;0.012</text>
</g>
<!-- 5&#45;&gt;7 -->
<g id="edge7" class="edge">
<title>5&#45;&gt;7</title>
<path fill="none" stroke="#000000" d="M442.5896,-88.9777C449.4711,-80.0039 456.9056,-70.3089 463.8178,-61.295"/>
<polygon fill="#000000" stroke="#000000" points="466.6804,-63.3137 469.9882,-53.2485 461.1256,-59.0541 466.6804,-63.3137"/>
</g>
<!-- 9 -->
<g id="node10" class="node">
<title>9</title>
<path fill="#f6d6be" stroke="#000000" d="M748,-157C748,-157 647,-157 647,-157 641,-157 635,-151 635,-145 635,-145 635,-101 635,-101 635,-95 641,-89 647,-89 647,-89 748,-89 748,-89 754,-89 760,-95 760,-101 760,-101 760,-145 760,-145 760,-151 754,-157 748,-157"/>
<text text-anchor="start" x="657" y="-141.8" font-family="Helvetica,sans-Serif" font-size="14.00" fill="#000000">X2 ≤ 0.072</text>
<text text-anchor="start" x="651" y="-126.8" font-family="Helvetica,sans-Serif" font-size="14.00" fill="#000000">mse = 0.012</text>
<text text-anchor="start" x="643" y="-111.8" font-family="Helvetica,sans-Serif" font-size="14.00" fill="#000000">samples = 124</text>
<text text-anchor="start" x="644.5" y="-96.8" font-family="Helvetica,sans-Serif" font-size="14.00" fill="#000000">value = &#45;0.101</text>
</g>
<!-- 8&#45;&gt;9 -->
<g id="edge9" class="edge">
<title>8&#45;&gt;9</title>
<path fill="none" stroke="#000000" d="M697.5,-192.9465C697.5,-184.776 697.5,-175.9318 697.5,-167.3697"/>
<polygon fill="#000000" stroke="#000000" points="701.0001,-167.13 697.5,-157.13 694.0001,-167.13 701.0001,-167.13"/>
</g>
<!-- 12 -->
<g id="node13" class="node">
<title>12</title>
<path fill="#fdf5ef" stroke="#000000" d="M960,-157C960,-157 859,-157 859,-157 853,-157 847,-151 847,-145 847,-145 847,-101 847,-101 847,-95 853,-89 859,-89 859,-89 960,-89 960,-89 966,-89 972,-95 972,-101 972,-101 972,-145 972,-145 972,-151 966,-157 960,-157"/>
<text text-anchor="start" x="869" y="-141.8" font-family="Helvetica,sans-Serif" font-size="14.00" fill="#000000">X2 ≤ 0.217</text>
<text text-anchor="start" x="863" y="-126.8" font-family="Helvetica,sans-Serif" font-size="14.00" fill="#000000">mse = 0.015</text>
<text text-anchor="start" x="855" y="-111.8" font-family="Helvetica,sans-Serif" font-size="14.00" fill="#000000">samples = 190</text>
<text text-anchor="start" x="856.5" y="-96.8" font-family="Helvetica,sans-Serif" font-size="14.00" fill="#000000">value = &#45;0.207</text>
</g>
<!-- 8&#45;&gt;12 -->
<g id="edge12" class="edge">
<title>8&#45;&gt;12</title>
<path fill="none" stroke="#000000" d="M760.2465,-196.2187C784.6049,-184.2693 812.6414,-170.5156 837.7914,-158.1778"/>
<polygon fill="#000000" stroke="#000000" points="839.4781,-161.2489 846.9145,-153.7023 836.3951,-154.9644 839.4781,-161.2489"/>
</g>
<!-- 10 -->
<g id="node11" class="node">
<title>10</title>
<path fill="#eead7e" stroke="#000000" d="M675,-53C675,-53 582,-53 582,-53 576,-53 570,-47 570,-41 570,-41 570,-12 570,-12 570,-6 576,0 582,0 582,0 675,0 675,0 681,0 687,-6 687,-12 687,-12 687,-41 687,-41 687,-47 681,-53 675,-53"/>
<text text-anchor="start" x="582" y="-37.8" font-family="Helvetica,sans-Serif" font-size="14.00" fill="#000000">mse = 0.006</text>
<text text-anchor="start" x="578.5" y="-22.8" font-family="Helvetica,sans-Serif" font-size="14.00" fill="#000000">samples = 11</text>
<text text-anchor="start" x="578" y="-7.8" font-family="Helvetica,sans-Serif" font-size="14.00" fill="#000000">value = 0.036</text>
</g>
<!-- 9&#45;&gt;10 -->
<g id="edge10" class="edge">
<title>9&#45;&gt;10</title>
<path fill="none" stroke="#000000" d="M673.1732,-88.9777C666.8221,-80.0954 659.966,-70.5067 653.5768,-61.5711"/>
<polygon fill="#000000" stroke="#000000" points="656.2893,-59.3472 647.6259,-53.2485 650.5952,-63.4187 656.2893,-59.3472"/>
</g>
<!-- 11 -->
<g id="node12" class="node">
<title>11</title>
<path fill="#f7d9c4" stroke="#000000" d="M818,-53C818,-53 717,-53 717,-53 711,-53 705,-47 705,-41 705,-41 705,-12 705,-12 705,-6 711,0 717,0 717,0 818,0 818,0 824,0 830,-6 830,-12 830,-12 830,-41 830,-41 830,-47 824,-53 818,-53"/>
<text text-anchor="start" x="725.5" y="-37.8" font-family="Helvetica,sans-Serif" font-size="14.00" fill="#000000">mse = 0.01</text>
<text text-anchor="start" x="713" y="-22.8" font-family="Helvetica,sans-Serif" font-size="14.00" fill="#000000">samples = 113</text>
<text text-anchor="start" x="714.5" y="-7.8" font-family="Helvetica,sans-Serif" font-size="14.00" fill="#000000">value = &#45;0.114</text>
</g>
<!-- 9&#45;&gt;11 -->
<g id="edge11" class="edge">
<title>9&#45;&gt;11</title>
<path fill="none" stroke="#000000" d="M722.1794,-88.9777C728.6225,-80.0954 735.578,-70.5067 742.0598,-61.5711"/>
<polygon fill="#000000" stroke="#000000" points="745.0583,-63.3982 748.097,-53.2485 739.3921,-59.288 745.0583,-63.3982"/>
</g>
<!-- 13 -->
<g id="node14" class="node">
<title>13</title>
<path fill="#f6d3ba" stroke="#000000" d="M958.5,-53C958.5,-53 860.5,-53 860.5,-53 854.5,-53 848.5,-47 848.5,-41 848.5,-41 848.5,-12 848.5,-12 848.5,-6 854.5,0 860.5,0 860.5,0 958.5,0 958.5,0 964.5,0 970.5,-6 970.5,-12 970.5,-12 970.5,-41 970.5,-41 970.5,-47 964.5,-53 958.5,-53"/>
<text text-anchor="start" x="863" y="-37.8" font-family="Helvetica,sans-Serif" font-size="14.00" fill="#000000">mse = 0.007</text>
<text text-anchor="start" x="859.5" y="-22.8" font-family="Helvetica,sans-Serif" font-size="14.00" fill="#000000">samples = 44</text>
<text text-anchor="start" x="856.5" y="-7.8" font-family="Helvetica,sans-Serif" font-size="14.00" fill="#000000">value = &#45;0.093</text>
</g>
<!-- 12&#45;&gt;13 -->
<g id="edge13" class="edge">
<title>12&#45;&gt;13</title>
<path fill="none" stroke="#000000" d="M909.5,-88.9777C909.5,-80.7364 909.5,-71.887 909.5,-63.5153"/>
<polygon fill="#000000" stroke="#000000" points="913.0001,-63.2484 909.5,-53.2485 906.0001,-63.2485 913.0001,-63.2484"/>
</g>
<!-- 14 -->
<g id="node15" class="node">
<title>14</title>
<path fill="#ffffff" stroke="#000000" d="M1102,-53C1102,-53 1001,-53 1001,-53 995,-53 989,-47 989,-41 989,-41 989,-12 989,-12 989,-6 995,0 1001,0 1001,0 1102,0 1102,0 1108,0 1114,-6 1114,-12 1114,-12 1114,-41 1114,-41 1114,-47 1108,-53 1102,-53"/>
<text text-anchor="start" x="1005" y="-37.8" font-family="Helvetica,sans-Serif" font-size="14.00" fill="#000000">mse = 0.012</text>
<text text-anchor="start" x="997" y="-22.8" font-family="Helvetica,sans-Serif" font-size="14.00" fill="#000000">samples = 146</text>
<text text-anchor="start" x="998.5" y="-7.8" font-family="Helvetica,sans-Serif" font-size="14.00" fill="#000000">value = &#45;0.241</text>
</g>
<!-- 12&#45;&gt;14 -->
<g id="edge14" class="edge">
<title>12&#45;&gt;14</title>
<path fill="none" stroke="#000000" d="M959.5639,-88.9777C973.8469,-79.2713 989.3713,-68.7213 1003.5263,-59.1018"/>
<polygon fill="#000000" stroke="#000000" points="1005.8359,-61.764 1012.1395,-53.2485 1001.9014,-55.9744 1005.8359,-61.764"/>
</g>
</g>
</svg>
