<?xml version="1.0" encoding="UTF-8" standalone="no"?>
<!DOCTYPE svg PUBLIC "-//W3C//DTD SVG 1.1//EN"
 "http://www.w3.org/Graphics/SVG/1.1/DTD/svg11.dtd">
<!-- Generated by graphviz version 2.38.0 (20140413.2041)
 -->
<!-- Title: Tree Pages: 1 -->
<svg width="998pt" height="373pt"
 viewBox="0.00 0.00 998.00 373.00" xmlns="http://www.w3.org/2000/svg" xmlns:xlink="http://www.w3.org/1999/xlink">
<g id="graph0" class="graph" transform="scale(1 1) rotate(0) translate(4 369)">
<title>Tree</title>
<polygon fill="white" stroke="none" points="-4,4 -4,-369 994,-369 994,4 -4,4"/>
<!-- 0 -->
<g id="node1" class="node"><title>0</title>
<path fill="#efb083" stroke="black" d="M537,-365C537,-365 442,-365 442,-365 436,-365 430,-359 430,-353 430,-353 430,-309 430,-309 430,-303 436,-297 442,-297 442,-297 537,-297 537,-297 543,-297 549,-303 549,-309 549,-309 549,-353 549,-353 549,-359 543,-365 537,-365"/>
<text text-anchor="start" x="458.5" y="-349.8" font-family="Helvetica,sans-Serif" font-size="14.00">X1 ≤ 0.62</text>
<text text-anchor="start" x="449" y="-334.8" font-family="Helvetica,sans-Serif" font-size="14.00">mse = 0.036</text>
<text text-anchor="start" x="438" y="-319.8" font-family="Helvetica,sans-Serif" font-size="14.00">samples = 1000</text>
<text text-anchor="start" x="450.5" y="-304.8" font-family="Helvetica,sans-Serif" font-size="14.00">value = 0.03</text>
</g>
<!-- 1 -->
<g id="node2" class="node"><title>1</title>
<path fill="#e88f4f" stroke="black" d="M439,-261C439,-261 352,-261 352,-261 346,-261 340,-255 340,-249 340,-249 340,-205 340,-205 340,-199 346,-193 352,-193 352,-193 439,-193 439,-193 445,-193 451,-199 451,-205 451,-205 451,-249 451,-249 451,-255 445,-261 439,-261"/>
<text text-anchor="start" x="360.5" y="-245.8" font-family="Helvetica,sans-Serif" font-size="14.00">X2 ≤ 0.291</text>
<text text-anchor="start" x="355" y="-230.8" font-family="Helvetica,sans-Serif" font-size="14.00">mse = 0.017</text>
<text text-anchor="start" x="348" y="-215.8" font-family="Helvetica,sans-Serif" font-size="14.00">samples = 617</text>
<text text-anchor="start" x="352.5" y="-200.8" font-family="Helvetica,sans-Serif" font-size="14.00">value = 0.138</text>
</g>
<!-- 0&#45;&gt;1 -->
<g id="edge1" class="edge"><title>0&#45;&gt;1</title>
<path fill="none" stroke="black" d="M458.981,-296.884C450.69,-287.887 441.616,-278.041 432.988,-268.678"/>
<polygon fill="black" stroke="black" points="435.538,-266.281 426.188,-261.299 430.391,-271.025 435.538,-266.281"/>
<text text-anchor="middle" x="425.168" y="-282.579" font-family="Helvetica,sans-Serif" font-size="14.00">True</text>
</g>
<!-- 8 -->
<g id="node9" class="node"><title>8</title>
<path fill="#fae5d7" stroke="black" d="M627,-261C627,-261 540,-261 540,-261 534,-261 528,-255 528,-249 528,-249 528,-205 528,-205 528,-199 534,-193 540,-193 540,-193 627,-193 627,-193 633,-193 639,-199 639,-205 639,-205 639,-249 639,-249 639,-255 633,-261 627,-261"/>
<text text-anchor="start" x="548.5" y="-245.8" font-family="Helvetica,sans-Serif" font-size="14.00">X1 ≤ 0.751</text>
<text text-anchor="start" x="543" y="-230.8" font-family="Helvetica,sans-Serif" font-size="14.00">mse = 0.017</text>
<text text-anchor="start" x="536" y="-215.8" font-family="Helvetica,sans-Serif" font-size="14.00">samples = 383</text>
<text text-anchor="start" x="538" y="-200.8" font-family="Helvetica,sans-Serif" font-size="14.00">value = &#45;0.145</text>
</g>
<!-- 0&#45;&gt;8 -->
<g id="edge8" class="edge"><title>0&#45;&gt;8</title>
<path fill="none" stroke="black" d="M520.019,-296.884C528.31,-287.887 537.384,-278.041 546.012,-268.678"/>
<polygon fill="black" stroke="black" points="548.609,-271.025 552.812,-261.299 543.462,-266.281 548.609,-271.025"/>
<text text-anchor="middle" x="553.832" y="-282.579" font-family="Helvetica,sans-Serif" font-size="14.00">False</text>
</g>
<!-- 2 -->
<g id="node3" class="node"><title>2</title>
<path fill="#eca470" stroke="black" d="M220,-157C220,-157 133,-157 133,-157 127,-157 121,-151 121,-145 121,-145 121,-101 121,-101 121,-95 127,-89 133,-89 133,-89 220,-89 220,-89 226,-89 232,-95 232,-101 232,-101 232,-145 232,-145 232,-151 226,-157 220,-157"/>
<text text-anchor="start" x="141.5" y="-141.8" font-family="Helvetica,sans-Serif" font-size="14.00">X2 ≤ 0.117</text>
<text text-anchor="start" x="136" y="-126.8" font-family="Helvetica,sans-Serif" font-size="14.00">mse = 0.015</text>
<text text-anchor="start" x="129" y="-111.8" font-family="Helvetica,sans-Serif" font-size="14.00">samples = 169</text>
<text text-anchor="start" x="133.5" y="-96.8" font-family="Helvetica,sans-Serif" font-size="14.00">value = 0.069</text>
</g>
<!-- 1&#45;&gt;2 -->
<g id="edge2" class="edge"><title>1&#45;&gt;2</title>
<path fill="none" stroke="black" d="M339.954,-200.129C309.967,-186.163 272.782,-168.844 241.459,-154.255"/>
<polygon fill="black" stroke="black" points="242.91,-151.07 232.367,-150.02 239.955,-157.415 242.91,-151.07"/>
</g>
<!-- 5 -->
<g id="node6" class="node"><title>5</title>
<path fill="#e68742" stroke="black" d="M439,-157C439,-157 352,-157 352,-157 346,-157 340,-151 340,-145 340,-145 340,-101 340,-101 340,-95 346,-89 352,-89 352,-89 439,-89 439,-89 445,-89 451,-95 451,-101 451,-101 451,-145 451,-145 451,-151 445,-157 439,-157"/>
<text text-anchor="start" x="360.5" y="-141.8" font-family="Helvetica,sans-Serif" font-size="14.00">X1 ≤ 0.099</text>
<text text-anchor="start" x="355" y="-126.8" font-family="Helvetica,sans-Serif" font-size="14.00">mse = 0.016</text>
<text text-anchor="start" x="348" y="-111.8" font-family="Helvetica,sans-Serif" font-size="14.00">samples = 448</text>
<text text-anchor="start" x="352.5" y="-96.8" font-family="Helvetica,sans-Serif" font-size="14.00">value = 0.165</text>
</g>
<!-- 1&#45;&gt;5 -->
<g id="edge5" class="edge"><title>1&#45;&gt;5</title>
<path fill="none" stroke="black" d="M395.5,-192.884C395.5,-184.778 395.5,-175.982 395.5,-167.472"/>
<polygon fill="black" stroke="black" points="399,-167.299 395.5,-157.299 392,-167.299 399,-167.299"/>
</g>
<!-- 3 -->
<g id="node4" class="node"><title>3</title>
<path fill="#efb184" stroke="black" d="M91,-53C91,-53 12,-53 12,-53 6,-53 0,-47 0,-41 0,-41 0,-12 0,-12 0,-6 6,-0 12,-0 12,-0 91,-0 91,-0 97,-0 103,-6 103,-12 103,-12 103,-41 103,-41 103,-47 97,-53 91,-53"/>
<text text-anchor="start" x="11" y="-37.8" font-family="Helvetica,sans-Serif" font-size="14.00">mse = 0.011</text>
<text text-anchor="start" x="8" y="-22.8" font-family="Helvetica,sans-Serif" font-size="14.00">samples = 67</text>
<text text-anchor="start" x="8.5" y="-7.8" font-family="Helvetica,sans-Serif" font-size="14.00">value = 0.027</text>
</g>
<!-- 2&#45;&gt;3 -->
<g id="edge3" class="edge"><title>2&#45;&gt;3</title>
<path fill="none" stroke="black" d="M132.781,-88.9485C120.076,-79.3431 106.228,-68.8747 93.623,-59.345"/>
<polygon fill="black" stroke="black" points="95.631,-56.4754 85.5433,-53.2367 91.4095,-62.0593 95.631,-56.4754"/>
</g>
<!-- 4 -->
<g id="node5" class="node"><title>4</title>
<path fill="#eb9c63" stroke="black" d="M220,-53C220,-53 133,-53 133,-53 127,-53 121,-47 121,-41 121,-41 121,-12 121,-12 121,-6 127,-0 133,-0 133,-0 220,-0 220,-0 226,-0 232,-6 232,-12 232,-12 232,-41 232,-41 232,-47 226,-53 220,-53"/>
<text text-anchor="start" x="136" y="-37.8" font-family="Helvetica,sans-Serif" font-size="14.00">mse = 0.015</text>
<text text-anchor="start" x="129" y="-22.8" font-family="Helvetica,sans-Serif" font-size="14.00">samples = 102</text>
<text text-anchor="start" x="133.5" y="-7.8" font-family="Helvetica,sans-Serif" font-size="14.00">value = 0.097</text>
</g>
<!-- 2&#45;&gt;4 -->
<g id="edge4" class="edge"><title>2&#45;&gt;4</title>
<path fill="none" stroke="black" d="M176.5,-88.9485C176.5,-80.7153 176.5,-71.848 176.5,-63.4814"/>
<polygon fill="black" stroke="black" points="180,-63.2367 176.5,-53.2367 173,-63.2367 180,-63.2367"/>
</g>
<!-- 6 -->
<g id="node7" class="node"><title>6</title>
<path fill="#eca470" stroke="black" d="M341,-53C341,-53 262,-53 262,-53 256,-53 250,-47 250,-41 250,-41 250,-12 250,-12 250,-6 256,-0 262,-0 262,-0 341,-0 341,-0 347,-0 353,-6 353,-12 353,-12 353,-41 353,-41 353,-47 347,-53 341,-53"/>
<text text-anchor="start" x="265" y="-37.8" font-family="Helvetica,sans-Serif" font-size="14.00">mse = 0.01</text>
<text text-anchor="start" x="258" y="-22.8" font-family="Helvetica,sans-Serif" font-size="14.00">samples = 77</text>
<text text-anchor="start" x="258.5" y="-7.8" font-family="Helvetica,sans-Serif" font-size="14.00">value = 0.069</text>
</g>
<!-- 5&#45;&gt;6 -->
<g id="edge6" class="edge"><title>5&#45;&gt;6</title>
<path fill="none" stroke="black" d="M362.623,-88.9485C353.433,-79.709 343.448,-69.671 334.264,-60.4381"/>
<polygon fill="black" stroke="black" points="336.634,-57.8582 327.101,-53.2367 331.671,-62.7948 336.634,-57.8582"/>
</g>
<!-- 7 -->
<g id="node8" class="node"><title>7</title>
<path fill="#e58139" stroke="black" d="M470,-53C470,-53 383,-53 383,-53 377,-53 371,-47 371,-41 371,-41 371,-12 371,-12 371,-6 377,-0 383,-0 383,-0 470,-0 470,-0 476,-0 482,-6 482,-12 482,-12 482,-41 482,-41 482,-47 476,-53 470,-53"/>
<text text-anchor="start" x="386" y="-37.8" font-family="Helvetica,sans-Serif" font-size="14.00">mse = 0.015</text>
<text text-anchor="start" x="379" y="-22.8" font-family="Helvetica,sans-Serif" font-size="14.00">samples = 371</text>
<text text-anchor="start" x="383.5" y="-7.8" font-family="Helvetica,sans-Serif" font-size="14.00">value = 0.184</text>
</g>
<!-- 5&#45;&gt;7 -->
<g id="edge7" class="edge"><title>5&#45;&gt;7</title>
<path fill="none" stroke="black" d="M406.342,-88.9485C409.103,-80.5323 412.081,-71.4536 414.879,-62.9243"/>
<polygon fill="black" stroke="black" points="418.266,-63.8295 418.057,-53.2367 411.615,-61.6475 418.266,-63.8295"/>
</g>
<!-- 9 -->
<g id="node10" class="node"><title>9</title>
<path fill="#f4c8a9" stroke="black" d="M627,-157C627,-157 540,-157 540,-157 534,-157 528,-151 528,-145 528,-145 528,-101 528,-101 528,-95 534,-89 540,-89 540,-89 627,-89 627,-89 633,-89 639,-95 639,-101 639,-101 639,-145 639,-145 639,-151 633,-157 627,-157"/>
<text text-anchor="start" x="548.5" y="-141.8" font-family="Helvetica,sans-Serif" font-size="14.00">X1 ≤ 0.706</text>
<text text-anchor="start" x="543" y="-126.8" font-family="Helvetica,sans-Serif" font-size="14.00">mse = 0.013</text>
<text text-anchor="start" x="536" y="-111.8" font-family="Helvetica,sans-Serif" font-size="14.00">samples = 113</text>
<text text-anchor="start" x="542.5" y="-96.8" font-family="Helvetica,sans-Serif" font-size="14.00">value = &#45;0.05</text>
</g>
<!-- 8&#45;&gt;9 -->
<g id="edge9" class="edge"><title>8&#45;&gt;9</title>
<path fill="none" stroke="black" d="M583.5,-192.884C583.5,-184.778 583.5,-175.982 583.5,-167.472"/>
<polygon fill="black" stroke="black" points="587,-167.299 583.5,-157.299 580,-167.299 587,-167.299"/>
</g>
<!-- 12 -->
<g id="node13" class="node"><title>12</title>
<path fill="#fcf2ea" stroke="black" d="M849,-157C849,-157 762,-157 762,-157 756,-157 750,-151 750,-145 750,-145 750,-101 750,-101 750,-95 756,-89 762,-89 762,-89 849,-89 849,-89 855,-89 861,-95 861,-101 861,-101 861,-145 861,-145 861,-151 855,-157 849,-157"/>
<text text-anchor="start" x="774.5" y="-141.8" font-family="Helvetica,sans-Serif" font-size="14.00">X2 ≤ 0.41</text>
<text text-anchor="start" x="765" y="-126.8" font-family="Helvetica,sans-Serif" font-size="14.00">mse = 0.013</text>
<text text-anchor="start" x="758" y="-111.8" font-family="Helvetica,sans-Serif" font-size="14.00">samples = 270</text>
<text text-anchor="start" x="760" y="-96.8" font-family="Helvetica,sans-Serif" font-size="14.00">value = &#45;0.185</text>
</g>
<!-- 8&#45;&gt;12 -->
<g id="edge12" class="edge"><title>8&#45;&gt;12</title>
<path fill="none" stroke="black" d="M639.233,-200.393C669.978,-186.267 708.317,-168.652 740.429,-153.897"/>
<polygon fill="black" stroke="black" points="742.118,-156.973 749.744,-149.618 739.196,-150.612 742.118,-156.973"/>
</g>
<!-- 10 -->
<g id="node11" class="node"><title>10</title>
<path fill="#f3c3a1" stroke="black" d="M595,-53C595,-53 512,-53 512,-53 506,-53 500,-47 500,-41 500,-41 500,-12 500,-12 500,-6 506,-0 512,-0 512,-0 595,-0 595,-0 601,-0 607,-6 607,-12 607,-12 607,-41 607,-41 607,-47 601,-53 595,-53"/>
<text text-anchor="start" x="513" y="-37.8" font-family="Helvetica,sans-Serif" font-size="14.00">mse = 0.015</text>
<text text-anchor="start" x="510" y="-22.8" font-family="Helvetica,sans-Serif" font-size="14.00">samples = 76</text>
<text text-anchor="start" x="508" y="-7.8" font-family="Helvetica,sans-Serif" font-size="14.00">value = &#45;0.032</text>
</g>
<!-- 9&#45;&gt;10 -->
<g id="edge10" class="edge"><title>9&#45;&gt;10</title>
<path fill="none" stroke="black" d="M573.007,-88.9485C570.336,-80.5323 567.454,-71.4536 564.746,-62.9243"/>
<polygon fill="black" stroke="black" points="568.032,-61.7089 561.67,-53.2367 561.36,-63.827 568.032,-61.7089"/>
</g>
<!-- 11 -->
<g id="node12" class="node"><title>11</title>
<path fill="#f6d4bb" stroke="black" d="M720,-53C720,-53 637,-53 637,-53 631,-53 625,-47 625,-41 625,-41 625,-12 625,-12 625,-6 631,-0 637,-0 637,-0 720,-0 720,-0 726,-0 732,-6 732,-12 732,-12 732,-41 732,-41 732,-47 726,-53 720,-53"/>
<text text-anchor="start" x="638" y="-37.8" font-family="Helvetica,sans-Serif" font-size="14.00">mse = 0.008</text>
<text text-anchor="start" x="635" y="-22.8" font-family="Helvetica,sans-Serif" font-size="14.00">samples = 37</text>
<text text-anchor="start" x="633" y="-7.8" font-family="Helvetica,sans-Serif" font-size="14.00">value = &#45;0.088</text>
</g>
<!-- 9&#45;&gt;11 -->
<g id="edge11" class="edge"><title>9&#45;&gt;11</title>
<path fill="none" stroke="black" d="M616.726,-88.9485C626.015,-79.709 636.106,-69.671 645.388,-60.4381"/>
<polygon fill="black" stroke="black" points="648.006,-62.7705 652.627,-53.2367 643.069,-57.8077 648.006,-62.7705"/>
</g>
<!-- 13 -->
<g id="node14" class="node"><title>13</title>
<path fill="#f8ddc9" stroke="black" d="M849,-53C849,-53 762,-53 762,-53 756,-53 750,-47 750,-41 750,-41 750,-12 750,-12 750,-6 756,-0 762,-0 762,-0 849,-0 849,-0 855,-0 861,-6 861,-12 861,-12 861,-41 861,-41 861,-47 855,-53 849,-53"/>
<text text-anchor="start" x="765" y="-37.8" font-family="Helvetica,sans-Serif" font-size="14.00">mse = 0.013</text>
<text text-anchor="start" x="758" y="-22.8" font-family="Helvetica,sans-Serif" font-size="14.00">samples = 106</text>
<text text-anchor="start" x="760" y="-7.8" font-family="Helvetica,sans-Serif" font-size="14.00">value = &#45;0.117</text>
</g>
<!-- 12&#45;&gt;13 -->
<g id="edge13" class="edge"><title>12&#45;&gt;13</title>
<path fill="none" stroke="black" d="M805.5,-88.9485C805.5,-80.7153 805.5,-71.848 805.5,-63.4814"/>
<polygon fill="black" stroke="black" points="809,-63.2367 805.5,-53.2367 802,-63.2367 809,-63.2367"/>
</g>
<!-- 14 -->
<g id="node15" class="node"><title>14</title>
<path fill="#ffffff" stroke="black" d="M978,-53C978,-53 891,-53 891,-53 885,-53 879,-47 879,-41 879,-41 879,-12 879,-12 879,-6 885,-0 891,-0 891,-0 978,-0 978,-0 984,-0 990,-6 990,-12 990,-12 990,-41 990,-41 990,-47 984,-53 978,-53"/>
<text text-anchor="start" x="894" y="-37.8" font-family="Helvetica,sans-Serif" font-size="14.00">mse = 0.009</text>
<text text-anchor="start" x="887" y="-22.8" font-family="Helvetica,sans-Serif" font-size="14.00">samples = 164</text>
<text text-anchor="start" x="889" y="-7.8" font-family="Helvetica,sans-Serif" font-size="14.00">value = &#45;0.229</text>
</g>
<!-- 12&#45;&gt;14 -->
<g id="edge14" class="edge"><title>12&#45;&gt;14</title>
<path fill="none" stroke="black" d="M850.618,-88.9485C863.73,-79.3431 878.02,-68.8747 891.029,-59.345"/>
<polygon fill="black" stroke="black" points="893.369,-61.9698 899.367,-53.2367 889.232,-56.3228 893.369,-61.9698"/>
</g>
</g>
</svg>
